<?xml version="1.0" encoding="UTF-8"?>
<svg id="Layer_2" data-name="Layer 2" xmlns="http://www.w3.org/2000/svg" viewBox="0 0 13.7 5.39">
  <defs>
    <style>
      .cls-1 {
        fill: #1f1f1f;
      }
    </style>
  </defs>
  <g id="Object">
    <g>
      <g>
        <path class="cls-1" d="M10.6,4.81c-.9-.62-2.42-1.35-3.74-1.35s-2.73.48-3.8,1.36c-.09.07-.12.19-.08.29.04.1.14.17.25.17h7.22c.11,0,.22-.07.25-.18s0-.23-.1-.29ZM4.05,4.77c.84-.5,1.81-.78,2.8-.78.83,0,1.83.34,2.65.78h-5.46Z"/>
        <path class="cls-1" d="M10.45,5.39H3.23c-.15,0-.29-.1-.34-.24-.05-.14,0-.3.11-.4,1.08-.89,2.45-1.38,3.86-1.38s2.89.74,3.8,1.37h0c.13.09.19.25.14.4-.05.15-.18.25-.34.25ZM6.86,3.56c-1.36,0-2.69.48-3.73,1.34-.05.04-.07.12-.05.18.02.07.09.11.15.11h7.22c.07,0,.13-.05.16-.11.02-.07,0-.14-.06-.18-.89-.61-2.38-1.33-3.69-1.33ZM9.51,4.86h-5.46s-.08-.03-.09-.07c-.01-.04,0-.09.04-.11.86-.52,1.85-.79,2.86-.79.76,0,1.74.29,2.7.79.04.02.06.07.05.11-.01.04-.05.07-.1.07ZM4.43,4.67h4.65c-.8-.37-1.6-.58-2.23-.58-.84,0-1.67.2-2.42.58Z"/>
      </g>
      <g>
        <path class="cls-1" d="M7.11,2.44V.36c0-.14-.12-.26-.26-.26s-.26.12-.26.26v2.08c0,.14.12.26.26.26s.26-.12.26-.26Z"/>
        <path class="cls-1" d="M6.85,2.8c-.2,0-.36-.16-.36-.36V.36c0-.2.16-.36.36-.36s.36.16.36.36v2.08c0,.2-.16.36-.36.36ZM6.85.2c-.09,0-.16.07-.16.16v2.08c0,.09.07.16.16.16s.16-.07.16-.16V.36c0-.09-.07-.16-.16-.16Z"/>
      </g>
      <g>
        <path class="cls-1" d="M13.16,2.86l-1.47,1.47c-.1.1-.1.27,0,.37.05.05.12.08.19.08s.13-.03.19-.08l1.47-1.47c.1-.1.1-.27,0-.37-.1-.1-.27-.1-.37,0Z"/>
        <path class="cls-1" d="M11.87,4.88c-.1,0-.19-.04-.25-.11-.14-.14-.14-.37,0-.51l1.47-1.47c.14-.14.37-.14.51,0,.14.14.14.37,0,.51l-1.47,1.47c-.07.07-.16.11-.25.11ZM13.34,2.89s-.08.02-.12.05l-1.47,1.47s-.05.07-.05.12.02.08.05.12c.06.06.17.06.23,0l1.47-1.47c.06-.06.06-.17,0-.23-.03-.03-.07-.05-.12-.05Z"/>
      </g>
      <g>
        <path class="cls-1" d="M.55,2.86c-.1-.1-.27-.1-.37,0-.1.1-.1.27,0,.37l1.47,1.47c.05.05.12.08.19.08s.13-.03.19-.08c.1-.1.1-.27,0-.37l-1.47-1.47Z"/>
        <path class="cls-1" d="M1.83,4.88c-.1,0-.19-.04-.25-.11L.11,3.3c-.14-.14-.14-.37,0-.51.14-.14.37-.14.51,0l1.47,1.47c.14.14.14.37,0,.51-.07.07-.16.11-.25.11ZM.36,2.89s-.08.02-.12.05c-.06.06-.06.17,0,.23l1.47,1.47c.06.06.17.06.23,0,.03-.03.05-.07.05-.12s-.02-.08-.05-.12L.48,2.93H.48s-.07-.05-.12-.05Z"/>
      </g>
    </g>
  </g>
</svg>