<?xml version="1.0" encoding="UTF-8"?>
<svg id="Layer_2" data-name="Layer 2" xmlns="http://www.w3.org/2000/svg" viewBox="0 0 18.64 18.36">
  <defs>
    <style>
      .cls-1 {
        fill: #1f1f1f;
      }
    </style>
  </defs>
  <g id="Object">
    <g>
      <g>
        <path class="cls-1" d="M7.61,9.13l-.38.08c-.14.03-.23.17-.21.31.03.12.13.21.26.21.02,0,.03,0,.05,0l1.33-.27c.08-.02.15-.07.19-.15.04-.08.03-.16,0-.24l-.66-1.18c-.07-.13-.23-.17-.36-.1-.13.07-.17.23-.1.36l.34.61c-.44-.16-.85-.41-1.19-.74-.64-.62-1.01-1.46-1.02-2.36-.02-.9.32-1.74.94-2.39.49-.51,1.12-.85,1.82-.97.14-.03.24-.16.21-.3-.03-.14-.16-.24-.3-.21-.81.14-1.54.53-2.11,1.12-.72.75-1.11,1.73-1.09,2.76.02,1.04.44,2,1.18,2.72.33.31.7.56,1.1.75Z"/>
        <path class="cls-1" d="M7.28,9.82c-.17,0-.32-.12-.35-.29-.04-.19.09-.39.28-.42l.1-.02c-.32-.17-.61-.38-.87-.64-.76-.74-1.2-1.73-1.21-2.79-.02-1.06.38-2.07,1.12-2.83.58-.61,1.33-1,2.16-1.15.1-.02.19,0,.27.06.08.06.13.14.15.23.03.2-.1.38-.29.42-.68.12-1.29.45-1.77.94-.6.63-.93,1.45-.91,2.32.02.87.37,1.68.99,2.29.26.26.57.46.9.61l-.2-.36c-.1-.17-.03-.39.14-.49.17-.1.39-.03.49.14l.66,1.18c.06.1.06.22.01.33-.05.1-.14.18-.26.2l-1.33.26s-.05,0-.07,0ZM8.56,1.86s-.02,0-.03,0c-.79.14-1.5.52-2.05,1.09-.7.73-1.08,1.68-1.06,2.69.02,1.01.43,1.95,1.15,2.65.31.3.67.55,1.08.73.04.02.06.06.06.1,0,.04-.04.08-.08.09l-.38.08c-.09.02-.15.1-.13.19.02.09.11.15.19.13l1.33-.27c.05,0,.09-.04.12-.09.02-.05.02-.1,0-.15l-.66-1.18c-.04-.08-.14-.11-.22-.06-.04.02-.07.06-.08.1-.01.04,0,.09.01.12l.33.61s.02.08-.01.11c-.03.03-.07.04-.11.03-.46-.17-.87-.42-1.22-.76-.66-.64-1.04-1.5-1.05-2.42-.02-.92.33-1.8.97-2.46.51-.53,1.16-.87,1.87-1,.09-.02.15-.1.13-.19,0-.04-.03-.08-.07-.11-.03-.02-.06-.03-.09-.03Z"/>
      </g>
      <g>
        <path class="cls-1" d="M9.67,2.22l.59,1.07c.05.09.14.14.23.14.04,0,.09-.01.13-.03.13-.07.17-.23.1-.36l-.32-.59c.42.16.8.4,1.13.72.64.62,1.01,1.46,1.02,2.36.02.9-.32,1.75-.94,2.39-.49.51-1.12.85-1.82.97-.14.03-.24.16-.21.3.02.13.13.22.26.22.02,0,.03,0,.05,0,.81-.14,1.54-.53,2.11-1.12.72-.75,1.11-1.73,1.09-2.76-.02-1.04-.44-2-1.18-2.72-.32-.31-.69-.56-1.09-.74l.41-.08c.14-.03.23-.17.21-.31-.03-.14-.17-.23-.31-.21l-1.33.27c-.08.02-.15.07-.19.15-.02.04-.02.09-.02.14,0,.08.03.16.09.21Z"/>
        <path class="cls-1" d="M9.84,9.51c-.17,0-.32-.12-.35-.3-.03-.2.1-.38.29-.42.68-.12,1.29-.45,1.77-.94.6-.63.93-1.45.91-2.32-.02-.87-.37-1.68-.99-2.29-.25-.24-.53-.44-.84-.58l.19.33c.1.17.03.39-.14.49-.17.09-.4.03-.49-.14l-.59-1.06c-.08-.07-.11-.17-.11-.28,0-.05,0-.12.03-.17.05-.1.14-.18.26-.2l1.33-.27c.2-.04.38.09.42.28.02.09,0,.19-.05.27s-.13.13-.23.15l-.13.03c.31.17.6.38.85.63.76.74,1.2,1.73,1.21,2.79.02,1.06-.38,2.07-1.12,2.83-.58.61-1.33,1-2.16,1.15-.02,0-.04,0-.06,0ZM10.4,2.36s.02,0,.04,0c.44.17.83.42,1.16.74.66.64,1.04,1.5,1.05,2.42.02.92-.33,1.8-.97,2.46-.51.53-1.16.87-1.87,1-.09.02-.15.1-.13.19.02.09.1.15.19.13.79-.14,1.5-.52,2.05-1.09.7-.73,1.08-1.68,1.06-2.69-.02-1.01-.43-1.95-1.15-2.65-.31-.3-.66-.54-1.06-.72-.04-.02-.06-.06-.06-.1,0-.04.04-.08.08-.09l.41-.08c.09-.02.15-.1.13-.19-.02-.09-.1-.15-.19-.13l-1.33.26c-.05.01-.09.04-.12.09-.01.02-.01.05-.01.08,0,.07.02.11.06.15,0,0,.02.02.02.03l.59,1.07c.04.08.15.11.22.06.08-.04.11-.14.06-.22l-.32-.59s-.02-.08.01-.11c.02-.02.05-.03.07-.03Z"/>
      </g>
      <g>
        <path class="cls-1" d="M18.53,10.78s0-.03,0-.04L15.31.28c-.03-.11-.14-.18-.25-.18H3.8c-.11,0-.21.07-.25.18L.11,10.74s0,.03,0,.04c0,.01,0,.03,0,.04v7.18c0,.14.12.26.26.26h17.92c.14,0,.26-.12.26-.26v-7.18s0-.03,0-.04ZM3.99.62h10.88l3.06,9.94h-6.25c-.14,0-.26.12-.26.26v2.98h-4.09v-2.98c0-.14-.12-.26-.26-.26H.72L3.99.62ZM18.01,17.74H.62v-6.66h6.17v2.98c0,.14.12.26.26.26h4.62c.14,0,.26-.12.26-.26v-2.98h6.08v6.66Z"/>
        <path class="cls-1" d="M18.28,18.36H.36c-.2,0-.36-.16-.36-.36v-7.18s0-.04,0-.05c0-.02,0-.04,0-.06L3.45.25c.05-.15.19-.25.34-.25h11.26c.16,0,.3.1.34.25l3.22,10.46s0,.04,0,.05l-.1.02.1-.02s0,.05,0,.05v7.18c0,.2-.16.36-.36.36ZM3.8.2c-.07,0-.13.05-.16.11L.2,10.77s0,.02,0,.03c0,0,0,.02,0,.03v7.18c0,.09.07.16.16.16h17.92c.09,0,.16-.07.16-.16v-7.18s0-.01,0-.02c0,0,0,0,0,0,0,0,0-.02,0-.03L15.22.31c-.02-.07-.08-.12-.16-.12H3.8ZM18.01,17.84H.62c-.05,0-.1-.04-.1-.1v-6.66c0-.05.04-.1.1-.1h6.17c.05,0,.1.04.1.1v2.98c0,.09.07.16.16.16h4.62c.09,0,.16-.07.16-.16v-2.98c0-.05.04-.1.1-.1h6.08c.05,0,.1.04.1.1v6.66c0,.05-.04.1-.1.1ZM.72,17.64h17.2v-6.46h-5.88v2.88c0,.2-.16.36-.36.36h-4.62c-.2,0-.36-.16-.36-.36v-2.88H.72v6.46ZM11.41,13.9h-4.09c-.05,0-.1-.04-.1-.1v-2.98c0-.09-.07-.16-.16-.16H.72s-.06-.02-.08-.04c-.02-.03-.02-.06-.01-.09L3.89.59s.05-.07.09-.07h10.88s.08.03.09.07l3.06,9.94s0,.06-.01.09c-.02.03-.05.04-.08.04h-6.25c-.09,0-.16.07-.16.16v2.98c0,.05-.04.1-.1.1ZM7.42,13.7h3.9v-2.88c0-.2.16-.36.36-.36h6.12L14.79.72H4.06L.86,10.46h6.2c.2,0,.36.16.36.36v2.88Z"/>
      </g>
    </g>
  </g>
</svg>