<?xml version="1.0" encoding="UTF-8"?>
<svg id="Layer_2" data-name="Layer 2" xmlns="http://www.w3.org/2000/svg" viewBox="0 0 19.08 19.08">
  <defs>
    <style>
      .cls-1 {
        fill: #1f1f1f;
      }
    </style>
  </defs>
  <g id="Object">
    <g>
      <g>
        <path class="cls-1" d="M9.55,15.41c-3.29,0-5.97-2.68-5.97-5.97s2.68-5.97,5.97-5.97,5.97,2.68,5.97,5.97-2.68,5.97-5.97,5.97ZM9.55,3.99c-3.01,0-5.45,2.44-5.45,5.45s2.44,5.45,5.45,5.45,5.45-2.44,5.45-5.45-2.44-5.45-5.45-5.45Z"/>
        <path class="cls-1" d="M9.55,15.51c-3.35,0-6.07-2.72-6.07-6.07s2.72-6.07,6.07-6.07,6.07,2.72,6.07,6.07-2.72,6.07-6.07,6.07ZM9.55,3.56c-3.24,0-5.88,2.64-5.88,5.88s2.64,5.88,5.88,5.88,5.88-2.64,5.88-5.88-2.64-5.88-5.88-5.88ZM9.55,14.99c-3.06,0-5.55-2.49-5.55-5.55s2.49-5.55,5.55-5.55,5.55,2.49,5.55,5.55-2.49,5.55-5.55,5.55ZM9.55,4.09c-2.95,0-5.35,2.4-5.35,5.35s2.4,5.35,5.35,5.35,5.35-2.4,5.35-5.35-2.4-5.35-5.35-5.35Z"/>
      </g>
      <g>
        <path class="cls-1" d="M9.54,2.7c-.14,0-.26-.12-.26-.26V.36c0-.14.12-.26.26-.26s.26.12.26.26v2.08c0,.14-.12.26-.26.26Z"/>
        <path class="cls-1" d="M9.54,2.8c-.2,0-.36-.16-.36-.36V.36c0-.2.16-.36.36-.36s.36.16.36.36v2.08c0,.2-.16.36-.36.36ZM9.54.2c-.09,0-.16.07-.16.16v2.08c0,.09.07.16.16.16s.16-.07.16-.16V.36c0-.09-.07-.16-.16-.16Z"/>
      </g>
      <g>
        <path class="cls-1" d="M9.54,18.98c-.14,0-.26-.12-.26-.26v-2.08c0-.14.12-.26.26-.26s.26.12.26.26v2.08c0,.14-.12.26-.26.26Z"/>
        <path class="cls-1" d="M9.54,19.08c-.2,0-.36-.16-.36-.36v-2.08c0-.2.16-.36.36-.36s.36.16.36.36v2.08c0,.2-.16.36-.36.36ZM9.54,16.48c-.09,0-.16.07-.16.16v2.08c0,.09.07.16.16.16s.16-.07.16-.16v-2.08c0-.09-.07-.16-.16-.16Z"/>
      </g>
      <g>
        <path class="cls-1" d="M14.56,4.78c-.07,0-.13-.03-.19-.08-.1-.1-.1-.27,0-.37l1.47-1.47c.1-.1.27-.1.37,0s.1.27,0,.37l-1.47,1.47c-.05.05-.12.08-.19.08Z"/>
        <path class="cls-1" d="M14.56,4.88c-.1,0-.19-.04-.25-.11-.14-.14-.14-.37,0-.51l1.47-1.47c.14-.14.37-.14.51,0,.14.14.14.37,0,.51l-1.47,1.47c-.07.07-.16.11-.25.11ZM16.03,2.89s-.08.02-.12.05l-1.47,1.47c-.06.06-.06.17,0,.23.06.06.17.06.23,0l1.47-1.47c.06-.06.06-.17,0-.23-.03-.03-.07-.05-.12-.05Z"/>
      </g>
      <g>
        <path class="cls-1" d="M3.05,16.29c-.07,0-.13-.03-.19-.08-.1-.1-.1-.27,0-.37l1.47-1.47c.1-.1.27-.1.37,0,.1.1.1.27,0,.37l-1.47,1.47c-.05.05-.12.08-.19.08Z"/>
        <path class="cls-1" d="M3.05,16.39c-.1,0-.19-.04-.25-.11-.14-.14-.14-.37,0-.51l1.47-1.47c.14-.14.37-.14.51,0,.14.14.14.37,0,.51l-1.47,1.47c-.07.07-.16.11-.25.11ZM4.52,14.4s-.08.02-.12.05l-1.47,1.47c-.06.06-.06.17,0,.23.06.06.17.06.23,0l1.47-1.47s.05-.07.05-.12-.02-.09-.05-.12c-.03-.03-.07-.05-.12-.05Z"/>
      </g>
      <g>
        <path class="cls-1" d="M18.72,9.8h-2.08c-.14,0-.26-.12-.26-.26s.12-.26.26-.26h2.08c.14,0,.26.12.26.26s-.12.26-.26.26Z"/>
        <path class="cls-1" d="M18.72,9.9h-2.08c-.2,0-.36-.16-.36-.36s.16-.36.36-.36h2.08c.2,0,.36.16.36.36s-.16.36-.36.36ZM16.64,9.38c-.09,0-.16.07-.16.16s.07.16.16.16h2.08c.09,0,.16-.07.16-.16s-.07-.16-.16-.16h-2.08Z"/>
      </g>
      <g>
        <path class="cls-1" d="M2.44,9.8H.36c-.14,0-.26-.12-.26-.26s.12-.26.26-.26h2.08c.14,0,.26.12.26.26s-.12.26-.26.26Z"/>
        <path class="cls-1" d="M2.44,9.9H.36c-.2,0-.36-.16-.36-.36s.16-.36.36-.36h2.08c.2,0,.36.16.36.36s-.16.36-.36.36ZM.36,9.38c-.09,0-.16.07-.16.16s.07.16.16.16h2.08c.09,0,.16-.07.16-.16s-.07-.16-.16-.16H.36Z"/>
      </g>
      <g>
        <path class="cls-1" d="M16.03,16.29c-.07,0-.13-.03-.19-.08l-1.47-1.47c-.1-.1-.1-.27,0-.37.1-.1.27-.1.37,0l1.47,1.47c.1.1.1.27,0,.37-.05.05-.12.08-.19.08Z"/>
        <path class="cls-1" d="M16.03,16.39c-.1,0-.19-.04-.25-.11l-1.47-1.47c-.14-.14-.14-.37,0-.51.14-.14.37-.14.51,0l1.47,1.47c.14.14.14.37,0,.51-.07.07-.16.11-.25.11ZM14.56,14.4s-.08.02-.12.05c-.03.03-.05.07-.05.12s.02.08.05.12l1.47,1.47c.06.06.17.06.23,0,.06-.06.06-.17,0-.23l-1.47-1.47s-.07-.05-.12-.05Z"/>
      </g>
      <g>
        <path class="cls-1" d="M4.52,4.78c-.07,0-.13-.03-.19-.08l-1.47-1.47c-.1-.1-.1-.27,0-.37s.27-.1.37,0l1.47,1.47c.1.1.1.27,0,.37-.05.05-.12.08-.19.08Z"/>
        <path class="cls-1" d="M4.52,4.88c-.1,0-.19-.04-.26-.11l-1.47-1.47c-.14-.14-.14-.37,0-.51.14-.14.37-.14.51,0l1.47,1.47c.14.14.14.37,0,.51-.07.07-.16.11-.25.11ZM3.05,2.89s-.08.02-.12.05c-.06.06-.06.17,0,.23l1.47,1.47c.06.06.17.06.23,0,.06-.06.06-.17,0-.23l-1.47-1.47s-.07-.05-.12-.05Z"/>
      </g>
    </g>
  </g>
</svg>