<?xml version="1.0" encoding="UTF-8"?>
<svg id="Layer_2" data-name="Layer 2" xmlns="http://www.w3.org/2000/svg" viewBox="0 0 19.06 18.89">
  <defs>
    <style>
      .cls-1 {
        fill: #1f1f1f;
      }
    </style>
  </defs>
  <g id="Object">
    <g>
      <g>
        <path class="cls-1" d="M10.85,16.27c0,1.39,1.13,2.52,2.52,2.52s2.52-1.13,2.52-2.52c0-.18-.02-.36-.06-.54l-1.63-14.47c-.02-.17.03-.33.14-.45.1-.11.23-.18.38-.19l3.72,1.59v1.7c0,.14.12.26.26.26s.26-.12.26-.26v-1.87c0-.1-.06-.2-.16-.24L14.88.12s-.07-.02-.1-.02c-.31,0-.61.13-.82.37-.21.23-.31.55-.27.86l1.48,13.19c-.46-.46-1.09-.75-1.79-.75-1.39,0-2.52,1.13-2.52,2.52ZM15.31,15.83l.05.45c0,1.1-.9,1.98-1.99,1.98s-1.99-.89-1.99-1.99.89-1.99,1.99-1.99c.95,0,1.74.66,1.94,1.55Z"/>
        <path class="cls-1" d="M13.37,18.89c-1.44,0-2.62-1.17-2.62-2.62s1.17-2.62,2.62-2.62c.62,0,1.2.21,1.67.6l-1.45-12.92c-.04-.34.07-.68.3-.93s.55-.4.9-.4c.05,0,.1,0,.14.03l3.93,1.68c.13.06.22.19.22.33v1.87c0,.2-.16.36-.36.36s-.36-.16-.36-.36v-1.63l-3.63-1.56c-.11.01-.22.07-.29.16-.09.1-.13.24-.12.37l1.63,14.47c.04.18.06.36.06.55,0,1.44-1.17,2.62-2.62,2.62ZM13.37,13.85c-1.33,0-2.42,1.09-2.42,2.42s1.09,2.42,2.42,2.42,2.42-1.09,2.42-2.42c0-.17-.02-.34-.06-.51l-1.63-14.48c-.02-.19.04-.38.17-.53.12-.13.28-.21.45-.22.02,0,.03,0,.05,0l3.72,1.59s.06.05.06.09v1.7c0,.09.07.16.16.16s.16-.07.16-.16v-1.87c0-.07-.04-.12-.1-.15L14.84.21s-.04-.01-.06-.01c-.29,0-.56.12-.75.34-.19.21-.28.5-.25.78l1.48,13.19s-.02.08-.06.1c-.04.02-.08,0-.11-.02-.46-.47-1.07-.72-1.72-.72ZM13.37,18.37c-1.15,0-2.09-.94-2.09-2.09s.94-2.09,2.09-2.09c.97,0,1.82.68,2.04,1.63,0,0,0,0,0,.01l.05.45c0,1.16-.94,2.09-2.09,2.09ZM13.37,14.38c-1.05,0-1.9.85-1.9,1.9s.85,1.9,1.9,1.9,1.89-.85,1.9-1.89l-.05-.44c-.2-.85-.97-1.47-1.85-1.47Z"/>
      </g>
      <g>
        <path class="cls-1" d="M11.56,4.35H.36c-.14,0-.26.12-.26.26s.12.26.26.26h11.2c.14,0,.26-.12.26-.26s-.12-.26-.26-.26Z"/>
        <path class="cls-1" d="M11.56,4.97H.36c-.2,0-.36-.16-.36-.36s.16-.36.36-.36h11.2c.2,0,.36.16.36.36s-.16.36-.36.36ZM.36,4.45c-.09,0-.16.07-.16.16s.07.16.16.16h11.2c.09,0,.16-.07.16-.16s-.07-.16-.16-.16H.36Z"/>
      </g>
      <g>
        <path class="cls-1" d="M11.56,8.11H.36c-.14,0-.26.12-.26.26s.12.26.26.26h11.2c.14,0,.26-.12.26-.26s-.12-.26-.26-.26Z"/>
        <path class="cls-1" d="M11.56,8.73H.36C.16,8.73,0,8.57,0,8.37s.16-.36.36-.36h11.2c.2,0,.36.16.36.36s-.16.36-.36.36ZM.36,8.21c-.09,0-.16.07-.16.16s.07.16.16.16h11.2c.09,0,.16-.07.16-.16s-.07-.16-.16-.16H.36Z"/>
      </g>
      <g>
        <path class="cls-1" d="M11.82,11.95c0-.14-.12-.26-.26-.26H.36c-.14,0-.26.12-.26.26s.12.26.26.26h11.2c.14,0,.26-.12.26-.26Z"/>
        <path class="cls-1" d="M11.56,12.31H.36C.16,12.31,0,12.15,0,11.95s.16-.36.36-.36h11.2c.2,0,.36.16.36.36s-.16.36-.36.36ZM.36,11.79c-.09,0-.16.07-.16.16s.07.16.16.16h11.2c.09,0,.16-.07.16-.16s-.07-.16-.16-.16H.36Z"/>
      </g>
    </g>
  </g>
</svg>