<?xml version="1.0" encoding="UTF-8"?>
<svg id="Layer_2" data-name="Layer 2" xmlns="http://www.w3.org/2000/svg" viewBox="0 0 19.43 19.2">
  <defs>
    <style>
      .cls-1 {
        fill: #1f1f1f;
      }
    </style>
  </defs>
  <g id="Object">
    <g>
      <g>
        <path class="cls-1" d="M19.07,19.1H.36c-.14,0-.26-.12-.26-.26V.36C.1.22.22.1.36.1h18.71c.14,0,.26.12.26.26v18.47c0,.14-.12.26-.26.26ZM.62,18.57h18.18V.62H.62v17.95Z"/>
        <path class="cls-1" d="M19.07,19.2H.36c-.2,0-.36-.16-.36-.36V.36c0-.2.16-.36.36-.36h18.71c.2,0,.36.16.36.36v18.47c0,.2-.16.36-.36.36ZM.36.2c-.09,0-.16.07-.16.16v18.47c0,.09.07.16.16.16h18.71c.09,0,.16-.07.16-.16V.36c0-.09-.07-.16-.16-.16H.36ZM18.81,18.67H.62c-.05,0-.1-.04-.1-.1V.62c0-.05.04-.1.1-.1h18.18c.05,0,.1.04.1.1v17.95c0,.05-.04.1-.1.1ZM.72,18.47h17.99V.72H.72v17.75Z"/>
      </g>
      <g>
        <path class="cls-1" d="M15.52,5.7c-.14,0-.26-.12-.26-.26v-1.04H4.17v1.04c0,.14-.12.26-.26.26s-.26-.12-.26-.26v-1.3c0-.14.12-.26.26-.26h11.62c.14,0,.26.12.26.26v1.3c0,.14-.12.26-.26.26Z"/>
        <path class="cls-1" d="M15.52,5.8c-.2,0-.36-.16-.36-.36v-.94H4.27v.94c0,.2-.16.36-.36.36s-.36-.16-.36-.36v-1.3c0-.2.16-.36.36-.36h11.62c.2,0,.36.16.36.36v1.3c0,.2-.16.36-.36.36ZM4.17,4.3h11.09c.05,0,.1.04.1.1v1.04c0,.09.07.16.16.16s.16-.07.16-.16v-1.3c0-.09-.07-.16-.16-.16H3.91c-.09,0-.16.07-.16.16v1.3c0,.09.07.16.16.16s.16-.07.16-.16v-1.04c0-.05.04-.1.1-.1Z"/>
      </g>
      <g>
        <path class="cls-1" d="M9.71,16.05c-.14,0-.26-.12-.26-.26V4.13c0-.14.12-.26.26-.26s.26.12.26.26v11.65c0,.14-.12.26-.26.26Z"/>
        <path class="cls-1" d="M9.71,16.15c-.2,0-.36-.16-.36-.36V4.13c0-.2.16-.36.36-.36s.36.16.36.36v11.65c0,.2-.16.36-.36.36ZM9.71,3.97c-.09,0-.16.07-.16.16v11.65c0,.09.07.16.16.16s.16-.07.16-.16V4.13c0-.09-.07-.16-.16-.16Z"/>
      </g>
      <g>
        <path class="cls-1" d="M11.35,16.05h-3.28c-.14,0-.26-.12-.26-.26s.12-.26.26-.26h3.28c.14,0,.26.12.26.26s-.12.26-.26.26Z"/>
        <path class="cls-1" d="M11.35,16.15h-3.28c-.2,0-.36-.16-.36-.36s.16-.36.36-.36h3.28c.2,0,.36.16.36.36s-.16.36-.36.36ZM8.08,15.62c-.09,0-.16.07-.16.16s.07.16.16.16h3.28c.09,0,.16-.07.16-.16s-.07-.16-.16-.16h-3.28Z"/>
      </g>
    </g>
  </g>
</svg>