<?xml version="1.0" encoding="UTF-8"?>
<svg id="Layer_2" data-name="Layer 2" xmlns="http://www.w3.org/2000/svg" viewBox="0 0 14.96 14.8">
  <defs>
    <style>
      .cls-1 {
        fill: #1f1f1f;
      }
    </style>
  </defs>
  <g id="Object">
    <g>
      <g>
        <path class="cls-1" d="M14.6,7.65c-.14,0-.26-.12-.26-.26,0-3.73-3.08-6.77-6.86-6.77S.62,3.66.62,7.39c0,.14-.12.26-.26.26s-.26-.12-.26-.26C.1,3.37,3.41.1,7.48.1s7.38,3.27,7.38,7.29c0,.14-.12.26-.26.26Z"/>
        <path class="cls-1" d="M14.6,7.75c-.2,0-.36-.16-.36-.36,0-3.68-3.03-6.67-6.76-6.67S.72,3.71.72,7.39c0,.2-.16.36-.36.36s-.36-.16-.36-.36C0,3.32,3.36,0,7.48,0s7.48,3.32,7.48,7.39c0,.2-.16.36-.36.36ZM7.48.52c3.84,0,6.96,3.08,6.96,6.87,0,.09.07.16.16.16s.16-.07.16-.16C14.76,3.42,11.5.2,7.48.2S.2,3.42.2,7.39c0,.09.07.16.16.16s.16-.07.16-.16C.52,3.61,3.64.52,7.48.52Z"/>
      </g>
      <g>
        <path class="cls-1" d="M12.21,7.13H2.77c-.14,0-.26.12-.26.26s.12.26.26.26h4.46v6.79c0,.14.12.25.26.25h2.36c.14,0,.26-.11.26-.25s-.12-.25-.26-.25h-2.1v-6.54h4.46c.14,0,.26-.12.26-.26s-.12-.26-.26-.26Z"/>
        <path class="cls-1" d="M9.85,14.8h-2.36c-.2,0-.36-.16-.36-.35v-6.69H2.77c-.2,0-.36-.16-.36-.36s.16-.36.36-.36h9.43c.2,0,.36.16.36.36s-.16.36-.36.36h-4.36v6.34h2c.2,0,.36.16.36.35s-.16.35-.36.35ZM2.77,7.23c-.09,0-.16.07-.16.16s.07.16.16.16h4.46c.05,0,.1.04.1.1v6.79c0,.09.07.15.16.15h2.36c.09,0,.16-.07.16-.15s-.07-.15-.16-.15h-2.1c-.05,0-.1-.04-.1-.1v-6.54c0-.05.04-.1.1-.1h4.46c.09,0,.16-.07.16-.16s-.07-.16-.16-.16H2.77Z"/>
      </g>
    </g>
  </g>
</svg>