<?xml version="1.0" encoding="UTF-8"?>
<svg id="Layer_2" data-name="Layer 2" xmlns="http://www.w3.org/2000/svg" viewBox="0 0 19.59 19.72">
  <defs>
    <style>
      .cls-1 {
        fill: #1f1f1f;
      }
    </style>
  </defs>
  <g id="Object">
    <g>
      <path class="cls-1" d="M19.23,9.4h-4.32v-4.19c0-.14-.12-.26-.26-.26h-4.72s0,0,0,0v-.07s0-.01,0-.02V.36c0-.14-.12-.26-.26-.26H.36C.22.1.1.22.1.36v9.3c0,.14.12.26.26.26h4.46v4.85c0,.14.12.26.26.26h4.32v4.32c0,.14.12.26.26.26h9.57c.14,0,.26-.12.26-.26v-9.7c0-.14-.12-.26-.26-.26ZM14.38,5.47v3.93h-4.46v-3.93h4.46ZM.62.62h8.78v4.05h0v1.01h0v3.7l-8.78.02V.62ZM5.34,14.51v-4.59s0,.03-.02,0l4.08-.02v4.6h-4.06ZM18.97,19.1h-9.04v-3.82h0v-1.02h0v-4.34h9.04v9.17Z"/>
      <path class="cls-1" d="M19.23,19.72h-9.57c-.2,0-.36-.16-.36-.36v-4.23h-4.23c-.2,0-.36-.16-.36-.36v-4.75H.36c-.2,0-.36-.16-.36-.36V.36c0-.2.16-.36.36-.36h9.3c.2,0,.36.16.36.36v4.49h4.62c.2,0,.36.16.36.36v4.09h4.23c.2,0,.36.16.36.36v9.7c0,.2-.16.36-.36.36ZM.36.2c-.09,0-.16.07-.16.16v9.3c0,.09.07.16.16.16h4.46c.05,0,.1.04.1.1v4.85c0,.09.07.16.16.16h4.32c.05,0,.1.04.1.1v4.32c0,.09.07.16.16.16h9.57c.09,0,.16-.07.16-.16v-9.7c0-.09-.07-.16-.16-.16h-4.32c-.05,0-.1-.04-.1-.1v-4.19c0-.09-.07-.16-.16-.16h-4.71c-.06,0-.11-.04-.11-.1v-.07s0-.03,0-.04V.36c0-.09-.08-.16-.17-.16H.36ZM18.97,19.2h-9.04c-.05,0-.1-.04-.1-.1v-3.82s0-.02,0-.03v-.96s0-.02,0-.03v-4.34c0-.05.04-.1.1-.1h9.04c.05,0,.1.04.1.1v9.17c0,.05-.04.1-.1.1ZM10.02,19h8.84v-8.98h-8.84v4.21s0,.02,0,.03v1.02s0,.02,0,.03v3.69ZM9.4,14.61h-4.06c-.05,0-.1-.04-.1-.1v-4.53s0-.01-.01-.02c-.01-.03,0-.06.01-.09.01-.02.03-.03.05-.04.02-.01.04-.02.06-.01,0,0,.01,0,.02,0l4.02-.02s.05.01.07.03c.02.02.03.04.03.07v4.6c0,.05-.04.1-.1.1ZM5.44,14.41h3.87v-4.41l-3.87.02v4.39ZM.62,9.5s-.05-.01-.07-.03-.03-.04-.03-.07V.62c0-.05.04-.1.1-.1h8.78c.05,0,.1.04.1.1v4.05s0,.02,0,.03v.95s0,.02,0,.03v3.7c0,.05-.04.1-.1.1l-8.78.02h0ZM.72.72v8.58l8.58-.02v-3.57s0-.02,0-.03v-1.01s0-.02,0-.03V.72H.72ZM14.38,9.5h-4.46c-.05,0-.1-.04-.1-.1v-3.93c0-.05.04-.1.1-.1h4.46c.05,0,.1.04.1.1v3.93c0,.05-.04.1-.1.1ZM10.02,9.3h4.26v-3.73h-4.26v3.73Z"/>
    </g>
  </g>
</svg>