<?xml version="1.0" encoding="UTF-8"?>
<svg id="Layer_2" data-name="Layer 2" xmlns="http://www.w3.org/2000/svg" viewBox="0 0 20.05 19.5">
  <defs>
    <style>
      .cls-1 {
        fill: #1f1f1f;
      }
    </style>
  </defs>
  <g id="Object">
    <g>
      <g>
        <path class="cls-1" d="M2.96,19.4c-.07,0-.14-.03-.19-.08-.08-.08-.09-.21-.04-.31,2.25-3.98.17-6.58.08-6.69-.09-.1-.08-.26.02-.35L14.62.17c.1-.1.27-.1.37,0,.1.1.1.27,0,.37L3.36,12.18c.2.3.56.93.77,1.83.24,1.05.31,2.66-.61,4.61,1.29-.48,4.16-1.27,6.5.11l9.48-9.48c.1-.1.27-.1.37,0,.1.1.1.27,0,.37l-9.63,9.63c-.09.09-.22.1-.33.03-2.83-1.83-6.8.07-6.84.09-.04.02-.08.03-.11.03Z"/>
        <path class="cls-1" d="M2.96,19.5c-.1,0-.19-.04-.26-.11-.11-.12-.13-.29-.05-.42,2.22-3.93.18-6.47.09-6.58-.12-.14-.11-.35.02-.48L14.55.11c.07-.07.16-.11.25-.11h0c.1,0,.19.04.25.11.07.07.11.16.11.25s-.04.19-.11.25L3.48,12.19c.21.32.54.94.74,1.8.23.99.32,2.56-.52,4.46,1.29-.45,4.03-1.13,6.3.16l9.43-9.43c.07-.07.16-.11.25-.11h0c.1,0,.19.04.25.11s.11.16.11.25-.04.19-.11.25l-9.63,9.63c-.12.12-.31.14-.45.05-2.77-1.8-6.71.08-6.75.1-.05.02-.1.04-.16.04ZM14.81.2s-.08.02-.12.05L2.9,12.04c-.06.06-.06.15-.01.22.09.11,2.21,2.76-.07,6.8-.04.06-.03.14.02.19.05.05.13.07.19.04.04-.02,4.07-1.95,6.94-.09.06.04.15.03.2-.02l9.63-9.63c.06-.06.06-.17,0-.23-.03-.03-.07-.05-.12-.05h0s-.08.02-.12.05l-9.48,9.48s-.08.04-.12.01c-2.34-1.38-5.26-.53-6.41-.1-.04.01-.08,0-.11-.03-.03-.03-.03-.07-.02-.11.92-1.95.83-3.55.6-4.54-.21-.89-.56-1.51-.76-1.8-.03-.04-.02-.09.01-.12L14.92.48s.05-.07.05-.12-.02-.08-.05-.12c-.03-.03-.07-.05-.12-.05h0Z"/>
      </g>
      <g>
        <path class="cls-1" d="M19.39,14.64c-.07,0-.13-.03-.19-.08L7.63,2.94c-.1-.1-.1-.27,0-.37.1-.1.27-.1.37,0l11.57,11.62c.1.1.1.27,0,.37-.05.05-.12.08-.19.08Z"/>
        <path class="cls-1" d="M19.39,14.74c-.1,0-.19-.04-.26-.11L7.56,3.01c-.07-.07-.11-.16-.11-.25,0-.1.04-.19.11-.25.07-.07.16-.11.25-.11h0c.1,0,.19.04.25.11l11.57,11.62c.14.14.14.37,0,.51-.07.07-.16.11-.25.11ZM7.81,2.59s-.08.02-.12.05c-.03.03-.05.07-.05.12,0,.04.02.09.05.12l11.57,11.62c.06.06.17.06.23,0,.03-.03.05-.07.05-.12,0-.04-.02-.09-.05-.12L7.93,2.64s-.07-.05-.12-.05Z"/>
      </g>
      <g>
        <path class="cls-1" d="M10.16,13.18c-.31,0-.59-.12-.81-.34-.22-.22-.34-.5-.34-.81s.12-.59.34-.81c.22-.22.5-.34.81-.34s.59.12.81.34c.22.22.34.5.34.81s-.12.59-.34.81c-.22.22-.5.34-.81.34ZM10.16,11.41c-.17,0-.32.06-.44.18-.12.12-.18.27-.18.44s.06.32.18.44c.24.24.65.24.88,0h0c.12-.12.18-.27.18-.44s-.06-.32-.18-.44c-.12-.12-.27-.18-.44-.18Z"/>
        <path class="cls-1" d="M10.16,13.28c-.33,0-.65-.13-.88-.36-.24-.24-.36-.55-.36-.88s.13-.64.36-.88c.24-.24.55-.36.88-.36s.64.13.88.36c.24.24.36.55.36.88s-.13.65-.36.88c-.24.23-.55.36-.88.36ZM10.16,10.99c-.28,0-.54.11-.74.31-.2.2-.31.46-.31.74s.11.54.31.74c.2.2.46.31.74.31s.54-.11.74-.31c.2-.2.31-.46.31-.74s-.11-.54-.31-.74c-.2-.2-.46-.31-.74-.31ZM10.16,12.75c-.19,0-.37-.07-.51-.2-.14-.14-.21-.32-.21-.51s.07-.37.21-.51c.27-.27.75-.27,1.02,0,.14.14.21.32.21.51s-.08.37-.21.51c-.14.14-.32.2-.51.2ZM10.16,11.51c-.14,0-.27.05-.37.15-.1.1-.15.23-.15.37s.05.27.15.37c.2.2.54.2.74,0,.1-.1.15-.23.15-.37s-.05-.27-.15-.37c-.1-.1-.23-.15-.37-.15Z"/>
      </g>
      <g>
        <path class="cls-1" d="M2.96,19.4c-.07,0-.13-.03-.19-.08-.1-.1-.1-.27,0-.37l6.95-6.9c.1-.1.27-.1.37,0,.1.1.1.27,0,.37l-6.95,6.9c-.05.05-.12.08-.18.08Z"/>
        <path class="cls-1" d="M2.96,19.5c-.1,0-.19-.04-.26-.11-.14-.14-.14-.37,0-.51l6.95-6.9c.07-.07.16-.1.25-.1h0c.1,0,.19.04.25.11.07.07.1.16.1.26,0,.1-.04.19-.11.25l-6.95,6.9c-.07.07-.16.1-.25.1ZM9.91,12.07s-.08.02-.12.05l-6.95,6.9c-.06.06-.06.17,0,.23.06.06.17.06.23,0l6.95-6.9s.05-.07.05-.12c0-.04-.02-.08-.05-.12-.03-.03-.07-.05-.12-.05h0Z"/>
      </g>
      <g>
        <path class="cls-1" d="M5.25,5.16H.36c-.14,0-.26-.12-.26-.26s.12-.26.26-.26h4.89c.14,0,.26.12.26.26s-.12.26-.26.26Z"/>
        <path class="cls-1" d="M5.25,5.26H.36c-.2,0-.36-.16-.36-.36s.16-.36.36-.36h4.89c.2,0,.36.16.36.36s-.16.36-.36.36ZM.36,4.73c-.09,0-.16.07-.16.16s.07.16.16.16h4.89c.09,0,.16-.07.16-.16s-.07-.16-.16-.16H.36Z"/>
      </g>
    </g>
  </g>
</svg>