<?xml version="1.0" encoding="UTF-8"?>
<svg id="Layer_2" data-name="Layer 2" xmlns="http://www.w3.org/2000/svg" viewBox="0 0 15.28 15.28">
  <defs>
    <style>
      .cls-1 {
        fill: #1f1f1f;
      }
    </style>
  </defs>
  <g id="Object">
    <g>
      <path class="cls-1" d="M15.1.17c-.1-.1-.27-.1-.37,0L.75,14.15l1.04-6.2c.02-.14-.07-.28-.22-.3-.14-.02-.28.07-.3.22L.1,14.88c-.01.08.01.17.07.23.05.05.12.08.19.08.01,0,.03,0,.04,0l7.01-1.18c.14-.02.24-.16.22-.3-.02-.14-.16-.24-.3-.22l-6.2,1.04L15.1.55c.1-.1.1-.27,0-.37Z"/>
      <path class="cls-1" d="M.36,15.28c-.09,0-.19-.04-.25-.11-.08-.08-.12-.2-.1-.31l1.18-7.01c.03-.19.22-.33.41-.3.1.02.18.07.23.15.06.08.08.17.06.27l-.99,5.9L14.66.11c.14-.14.37-.14.51,0h0c.07.07.11.16.11.25s-.04.19-.11.26L1.41,14.38l5.9-.99c.2-.03.38.1.42.3.03.2-.1.38-.3.42L.42,15.28s-.04,0-.06,0ZM1.54,7.75c-.08,0-.15.06-.16.14L.2,14.89c0,.05,0,.11.05.14.04.04.09.05.14.05l7.01-1.18c.09-.01.15-.1.13-.19-.01-.09-.1-.15-.19-.13l-6.2,1.04s-.08-.01-.1-.05c-.02-.04-.01-.08.02-.11L15.04.48s.05-.07.05-.12-.02-.08-.05-.12h0c-.06-.06-.17-.06-.23,0L.82,14.22s-.08.04-.11.02c-.04-.02-.06-.06-.05-.1l1.04-6.2s0-.09-.03-.12c-.03-.04-.06-.06-.11-.07,0,0-.02,0-.03,0Z"/>
    </g>
  </g>
</svg>