<?xml version="1.0" encoding="UTF-8"?>
<svg id="Layer_2" data-name="Layer 2" xmlns="http://www.w3.org/2000/svg" viewBox="0 0 18.59 15.67">
  <defs>
    <style>
      .cls-1 {
        fill: #1f1f1f;
      }
    </style>
  </defs>
  <g id="Object">
    <g>
      <g>
        <path class="cls-1" d="M10.76,2.67c-.99,0-1.95.28-2.77.82-.12.08-.15.25-.06.37h0c.08.12.24.14.36.06.74-.48,1.59-.73,2.47-.73,2.51,0,4.56,2.05,4.55,4.56,0,2.41-1.95,4.44-4.36,4.54-.95.04-1.87-.21-2.65-.72-.12-.08-.28-.05-.36.06-.09.12-.06.29.06.37.88.57,1.91.85,2.97.81,2.57-.11,4.7-2.19,4.85-4.77.17-2.94-2.17-5.38-5.07-5.38Z"/>
        <path class="cls-1" d="M10.76,12.92c-1,0-1.97-.28-2.81-.83-.08-.05-.14-.13-.15-.23-.02-.1,0-.2.06-.28.11-.15.33-.19.49-.09.77.5,1.67.74,2.6.7,2.35-.1,4.26-2.09,4.27-4.44,0-1.19-.46-2.31-1.3-3.15-.84-.84-1.96-1.31-3.15-1.31-.86,0-1.7.25-2.42.71-.16.11-.38.07-.49-.09-.06-.08-.08-.18-.06-.28.02-.1.07-.18.15-.23.84-.55,1.81-.84,2.82-.84,1.42,0,2.79.59,3.76,1.63.99,1.05,1.49,2.42,1.4,3.86-.15,2.62-2.33,4.75-4.95,4.86-.07,0-.15,0-.22,0ZM8.15,11.63c-.05,0-.1.02-.13.07-.03.04-.04.08-.03.13,0,.04.03.08.07.1.87.56,1.87.84,2.91.79,2.52-.1,4.61-2.16,4.76-4.67.08-1.38-.4-2.7-1.35-3.71-.95-1.01-2.24-1.57-3.62-1.57-.97,0-1.91.28-2.72.81-.04.02-.06.06-.07.1,0,.05,0,.09.03.13.05.07.15.09.23.04.75-.49,1.62-.74,2.53-.74,1.24,0,2.41.49,3.29,1.37.88.88,1.36,2.05,1.36,3.29,0,2.46-2,4.53-4.45,4.63-.97.04-1.91-.21-2.71-.73-.03-.02-.06-.03-.1-.03Z"/>
      </g>
      <g>
        <path class="cls-1" d="M10.76,1.85h0c.14,0,.26-.12.26-.26V.36c0-.14-.12-.26-.26-.26h0c-.14,0-.26.12-.26.26v1.23c0,.14.12.26.26.26Z"/>
        <path class="cls-1" d="M10.76,1.95c-.2,0-.36-.16-.36-.36V.36c0-.2.16-.36.36-.36s.36.16.36.36v1.23c0,.2-.16.36-.36.36ZM10.76.2c-.09,0-.16.07-.16.16v1.23c0,.09.07.16.16.16s.16-.07.16-.16V.36c0-.09-.07-.16-.16-.16Z"/>
      </g>
      <g>
        <path class="cls-1" d="M10.76,13.82c-.14,0-.26.12-.26.26v1.23c0,.14.12.26.26.26s.26-.12.26-.26v-1.23c0-.14-.12-.26-.26-.26Z"/>
        <path class="cls-1" d="M10.76,15.67c-.2,0-.36-.16-.36-.36v-1.23c0-.2.16-.36.36-.36s.36.16.36.36v1.23c0,.2-.16.36-.36.36ZM10.76,13.92c-.09,0-.16.07-.16.16v1.23c0,.09.07.16.16.16s.16-.07.16-.16v-1.23c0-.09-.07-.16-.16-.16Z"/>
      </g>
      <g>
        <path class="cls-1" d="M15.86,2.36l-1.05,1.05.37.37,1.05-1.05c.1-.1.1-.27,0-.37-.1-.1-.27-.1-.37,0Z"/>
        <path class="cls-1" d="M15.17,3.89s-.05,0-.07-.03l-.37-.37s-.04-.1,0-.14l1.05-1.05c.14-.14.37-.14.51,0,.14.14.14.37,0,.51l-1.05,1.05s-.04.03-.07.03ZM14.94,3.42l.23.23.98-.98c.06-.06.06-.17,0-.23-.06-.06-.17-.06-.23,0l-.98.98Z"/>
      </g>
      <g>
        <path class="cls-1" d="M18.23,7.57h-1.23c-.14,0-.26.12-.26.26s.12.26.26.26h1.23c.14,0,.26-.12.26-.26s-.12-.26-.26-.26Z"/>
        <path class="cls-1" d="M18.23,8.19h-1.23c-.2,0-.36-.16-.36-.36s.16-.36.36-.36h1.23c.2,0,.36.16.36.36s-.16.36-.36.36ZM17,7.67c-.09,0-.16.07-.16.16s.07.16.16.16h1.23c.09,0,.16-.07.16-.16s-.07-.16-.16-.16h-1.23Z"/>
      </g>
      <g>
        <path class="cls-1" d="M7.81,7.83c0-.14-.12-.26-.26-.26H.36c-.14,0-.26.12-.26.26s.12.26.26.26h7.18c.14,0,.26-.12.26-.26Z"/>
        <path class="cls-1" d="M7.54,8.19H.36c-.2,0-.36-.16-.36-.36s.16-.36.36-.36h7.18c.2,0,.36.16.36.36s-.16.36-.36.36ZM.36,7.67c-.09,0-.16.07-.16.16s.07.16.16.16h7.18c.09,0,.16-.07.16-.16s-.07-.16-.16-.16H.36Z"/>
      </g>
      <g>
        <path class="cls-1" d="M15.36,12.07c-.1-.1-.27-.1-.37,0s-.1.27,0,.37l.87.87c.1.1.27.1.37,0,.1-.1.1-.27,0-.37l-.87-.87Z"/>
        <path class="cls-1" d="M16.04,13.48c-.09,0-.18-.04-.25-.11l-.87-.87c-.14-.14-.14-.37,0-.51.14-.14.37-.14.51,0l.87.87c.14.14.14.37,0,.51-.07.07-.16.11-.25.11ZM15.17,12.09s-.08.02-.12.05c-.06.06-.06.17,0,.23l.87.87c.06.06.17.06.23,0,.06-.06.06-.17,0-.23l-.87-.87s-.07-.05-.12-.05Z"/>
      </g>
      <g>
        <path class="cls-1" d="M2.59,5.51h7.18c.14,0,.26-.12.26-.26s-.12-.26-.26-.26H2.59c-.14,0-.26.12-.26.26s.12.26.26.26Z"/>
        <path class="cls-1" d="M9.77,5.61H2.59c-.2,0-.36-.16-.36-.36s.16-.36.36-.36h7.18c.2,0,.36.16.36.36s-.16.36-.36.36ZM2.59,5.09c-.09,0-.16.07-.16.16s.07.16.16.16h7.18c.09,0,.16-.07.16-.16s-.07-.16-.16-.16H2.59Z"/>
      </g>
      <g>
        <path class="cls-1" d="M10.29,10.62c0-.14-.12-.26-.26-.26H2.84c-.14,0-.26.12-.26.26s.12.26.26.26h7.18c.14,0,.26-.12.26-.26Z"/>
        <path class="cls-1" d="M10.03,10.98H2.84c-.2,0-.36-.16-.36-.36s.16-.36.36-.36h7.18c.2,0,.36.16.36.36s-.16.36-.36.36ZM2.84,10.46c-.09,0-.16.07-.16.16s.07.16.16.16h7.18c.09,0,.16-.07.16-.16s-.07-.16-.16-.16H2.84Z"/>
      </g>
    </g>
  </g>
</svg>