<?xml version="1.0" encoding="UTF-8"?>
<svg id="Layer_2" data-name="Layer 2" xmlns="http://www.w3.org/2000/svg" viewBox="0 0 18.93 19.17">
  <defs>
    <style>
      .cls-1 {
        fill: #1f1f1f;
      }
    </style>
  </defs>
  <g id="Object">
    <g>
      <g>
        <path class="cls-1" d="M11.71,19.07h-4.49c-.14,0-.26-.12-.26-.26s.12-.26.26-.26h4.49c.14,0,.26.12.26.26s-.12.26-.26.26Z"/>
        <path class="cls-1" d="M11.71,19.17h-4.49c-.2,0-.36-.16-.36-.36s.16-.36.36-.36h4.49c.2,0,.36.16.36.36s-.16.36-.36.36ZM7.22,18.65c-.09,0-.16.07-.16.16s.07.16.16.16h4.49c.09,0,.16-.07.16-.16s-.07-.16-.16-.16h-4.49Z"/>
      </g>
      <g>
        <path class="cls-1" d="M11.71,16.77h-4.49c-.14,0-.26-.12-.26-.26s.12-.26.26-.26h4.49c.14,0,.26.12.26.26s-.12.26-.26.26Z"/>
        <path class="cls-1" d="M11.71,16.87h-4.49c-.2,0-.36-.16-.36-.36s.16-.36.36-.36h4.49c.2,0,.36.16.36.36s-.16.36-.36.36ZM7.22,16.34c-.09,0-.16.07-.16.16s.07.16.16.16h4.49c.09,0,.16-.07.16-.16s-.07-.16-.16-.16h-4.49Z"/>
      </g>
      <g>
        <path class="cls-1" d="M11.71,14.46h-4.49c-.14,0-.26-.12-.26-.26s.12-.26.26-.26h4.49c.14,0,.26.12.26.26s-.12.26-.26.26Z"/>
        <path class="cls-1" d="M11.71,14.56h-4.49c-.2,0-.36-.16-.36-.36s.16-.36.36-.36h4.49c.2,0,.36.16.36.36s-.16.36-.36.36ZM7.22,14.04c-.09,0-.16.07-.16.16s.07.16.16.16h4.49c.09,0,.16-.07.16-.16s-.07-.16-.16-.16h-4.49Z"/>
      </g>
      <g>
        <path class="cls-1" d="M11.71,12.15h-4.49c-.14,0-.26-.12-.26-.26s.12-.26.26-.26h4.49c.14,0,.26.12.26.26s-.12.26-.26.26Z"/>
        <path class="cls-1" d="M11.71,12.25h-4.49c-.2,0-.36-.16-.36-.36s.16-.36.36-.36h4.49c.2,0,.36.16.36.36s-.16.36-.36.36ZM7.22,11.73c-.09,0-.16.07-.16.16s.07.16.16.16h4.49c.09,0,.16-.07.16-.16s-.07-.16-.16-.16h-4.49Z"/>
      </g>
      <g>
        <path class="cls-1" d="M11.71,9.85h-4.49c-.14,0-.26-.12-.26-.26s.12-.26.26-.26h4.49c.14,0,.26.12.26.26s-.12.26-.26.26Z"/>
        <path class="cls-1" d="M11.71,9.95h-4.49c-.2,0-.36-.16-.36-.36s.16-.36.36-.36h4.49c.2,0,.36.16.36.36s-.16.36-.36.36ZM7.22,9.42c-.09,0-.16.07-.16.16s.07.16.16.16h4.49c.09,0,.16-.07.16-.16s-.07-.16-.16-.16h-4.49Z"/>
      </g>
      <g>
        <path class="cls-1" d="M4.85,19.07H.36c-.14,0-.26-.12-.26-.26s.12-.26.26-.26h4.49c.14,0,.26.12.26.26s-.12.26-.26.26Z"/>
        <path class="cls-1" d="M4.85,19.17H.36c-.2,0-.36-.16-.36-.36s.16-.36.36-.36h4.49c.2,0,.36.16.36.36s-.16.36-.36.36ZM.36,18.65c-.09,0-.16.07-.16.16s.07.16.16.16h4.49c.09,0,.16-.07.16-.16s-.07-.16-.16-.16H.36Z"/>
      </g>
      <g>
        <path class="cls-1" d="M4.85,16.77H.36c-.14,0-.26-.12-.26-.26s.12-.26.26-.26h4.49c.14,0,.26.12.26.26s-.12.26-.26.26Z"/>
        <path class="cls-1" d="M4.85,16.87H.36c-.2,0-.36-.16-.36-.36s.16-.36.36-.36h4.49c.2,0,.36.16.36.36s-.16.36-.36.36ZM.36,16.34c-.09,0-.16.07-.16.16s.07.16.16.16h4.49c.09,0,.16-.07.16-.16s-.07-.16-.16-.16H.36Z"/>
      </g>
      <g>
        <path class="cls-1" d="M4.85,14.46H.36c-.14,0-.26-.12-.26-.26s.12-.26.26-.26h4.49c.14,0,.26.12.26.26s-.12.26-.26.26Z"/>
        <path class="cls-1" d="M4.85,14.56H.36c-.2,0-.36-.16-.36-.36s.16-.36.36-.36h4.49c.2,0,.36.16.36.36s-.16.36-.36.36ZM.36,14.04c-.09,0-.16.07-.16.16s.07.16.16.16h4.49c.09,0,.16-.07.16-.16s-.07-.16-.16-.16H.36Z"/>
      </g>
      <g>
        <path class="cls-1" d="M4.85,12.15H.36c-.14,0-.26-.12-.26-.26s.12-.26.26-.26h4.49c.14,0,.26.12.26.26s-.12.26-.26.26Z"/>
        <path class="cls-1" d="M4.85,12.25H.36c-.2,0-.36-.16-.36-.36s.16-.36.36-.36h4.49c.2,0,.36.16.36.36s-.16.36-.36.36ZM.36,11.73c-.09,0-.16.07-.16.16s.07.16.16.16h4.49c.09,0,.16-.07.16-.16s-.07-.16-.16-.16H.36Z"/>
      </g>
      <g>
        <path class="cls-1" d="M4.85,9.85H.36c-.14,0-.26-.12-.26-.26s.12-.26.26-.26h4.49c.14,0,.26.12.26.26s-.12.26-.26.26Z"/>
        <path class="cls-1" d="M4.85,9.95H.36c-.2,0-.36-.16-.36-.36s.16-.36.36-.36h4.49c.2,0,.36.16.36.36s-.16.36-.36.36ZM.36,9.42c-.09,0-.16.07-.16.16s.07.16.16.16h4.49c.09,0,.16-.07.16-.16s-.07-.16-.16-.16H.36Z"/>
      </g>
      <g>
        <path class="cls-1" d="M11.71,7.54h-4.49c-.14,0-.26-.12-.26-.26s.12-.26.26-.26h4.49c.14,0,.26.12.26.26s-.12.26-.26.26Z"/>
        <path class="cls-1" d="M11.71,7.64h-4.49c-.2,0-.36-.16-.36-.36s.16-.36.36-.36h4.49c.2,0,.36.16.36.36s-.16.36-.36.36ZM7.22,7.12c-.09,0-.16.07-.16.16s.07.16.16.16h4.49c.09,0,.16-.07.16-.16s-.07-.16-.16-.16h-4.49Z"/>
      </g>
      <g>
        <path class="cls-1" d="M11.71,5.24h-4.49c-.14,0-.26-.12-.26-.26s.12-.26.26-.26h4.49c.14,0,.26.12.26.26s-.12.26-.26.26Z"/>
        <path class="cls-1" d="M11.71,5.33h-4.49c-.2,0-.36-.16-.36-.36s.16-.36.36-.36h4.49c.2,0,.36.16.36.36s-.16.36-.36.36ZM7.22,4.81c-.09,0-.16.07-.16.16s.07.16.16.16h4.49c.09,0,.16-.07.16-.16s-.07-.16-.16-.16h-4.49Z"/>
      </g>
      <g>
        <path class="cls-1" d="M18.57,19.07h-4.49c-.14,0-.26-.12-.26-.26s.12-.26.26-.26h4.49c.14,0,.26.12.26.26s-.12.26-.26.26Z"/>
        <path class="cls-1" d="M18.57,19.17h-4.49c-.2,0-.36-.16-.36-.36s.16-.36.36-.36h4.49c.2,0,.36.16.36.36s-.16.36-.36.36ZM14.09,18.65c-.09,0-.16.07-.16.16s.07.16.16.16h4.49c.09,0,.16-.07.16-.16s-.07-.16-.16-.16h-4.49Z"/>
      </g>
      <g>
        <path class="cls-1" d="M18.57,16.77h-4.49c-.14,0-.26-.12-.26-.26s.12-.26.26-.26h4.49c.14,0,.26.12.26.26s-.12.26-.26.26Z"/>
        <path class="cls-1" d="M18.57,16.87h-4.49c-.2,0-.36-.16-.36-.36s.16-.36.36-.36h4.49c.2,0,.36.16.36.36s-.16.36-.36.36ZM14.09,16.34c-.09,0-.16.07-.16.16s.07.16.16.16h4.49c.09,0,.16-.07.16-.16s-.07-.16-.16-.16h-4.49Z"/>
      </g>
      <g>
        <path class="cls-1" d="M18.57,14.46h-4.49c-.14,0-.26-.12-.26-.26s.12-.26.26-.26h4.49c.14,0,.26.12.26.26s-.12.26-.26.26Z"/>
        <path class="cls-1" d="M18.57,14.56h-4.49c-.2,0-.36-.16-.36-.36s.16-.36.36-.36h4.49c.2,0,.36.16.36.36s-.16.36-.36.36ZM14.09,14.04c-.09,0-.16.07-.16.16s.07.16.16.16h4.49c.09,0,.16-.07.16-.16s-.07-.16-.16-.16h-4.49Z"/>
      </g>
      <g>
        <path class="cls-1" d="M18.57,12.15h-4.49c-.14,0-.26-.12-.26-.26s.12-.26.26-.26h4.49c.14,0,.26.12.26.26s-.12.26-.26.26Z"/>
        <path class="cls-1" d="M18.57,12.25h-4.49c-.2,0-.36-.16-.36-.36s.16-.36.36-.36h4.49c.2,0,.36.16.36.36s-.16.36-.36.36ZM14.09,11.73c-.09,0-.16.07-.16.16s.07.16.16.16h4.49c.09,0,.16-.07.16-.16s-.07-.16-.16-.16h-4.49Z"/>
      </g>
      <g>
        <path class="cls-1" d="M18.57,9.85h-4.49c-.14,0-.26-.12-.26-.26s.12-.26.26-.26h4.49c.14,0,.26.12.26.26s-.12.26-.26.26Z"/>
        <path class="cls-1" d="M18.57,9.95h-4.49c-.2,0-.36-.16-.36-.36s.16-.36.36-.36h4.49c.2,0,.36.16.36.36s-.16.36-.36.36ZM14.09,9.42c-.09,0-.16.07-.16.16s.07.16.16.16h4.49c.09,0,.16-.07.16-.16s-.07-.16-.16-.16h-4.49Z"/>
      </g>
      <g>
        <path class="cls-1" d="M18.57,7.54h-4.49c-.14,0-.26-.12-.26-.26s.12-.26.26-.26h4.49c.14,0,.26.12.26.26s-.12.26-.26.26Z"/>
        <path class="cls-1" d="M18.57,7.64h-4.49c-.2,0-.36-.16-.36-.36s.16-.36.36-.36h4.49c.2,0,.36.16.36.36s-.16.36-.36.36ZM14.09,7.12c-.09,0-.16.07-.16.16s.07.16.16.16h4.49c.09,0,.16-.07.16-.16s-.07-.16-.16-.16h-4.49Z"/>
      </g>
      <g>
        <path class="cls-1" d="M18.57,5.24h-4.49c-.14,0-.26-.12-.26-.26s.12-.26.26-.26h4.49c.14,0,.26.12.26.26s-.12.26-.26.26Z"/>
        <path class="cls-1" d="M18.57,5.33h-4.49c-.2,0-.36-.16-.36-.36s.16-.36.36-.36h4.49c.2,0,.36.16.36.36s-.16.36-.36.36ZM14.09,4.81c-.09,0-.16.07-.16.16s.07.16.16.16h4.49c.09,0,.16-.07.16-.16s-.07-.16-.16-.16h-4.49Z"/>
      </g>
      <g>
        <path class="cls-1" d="M11.71,2.93h-4.49c-.14,0-.26-.12-.26-.26s.12-.26.26-.26h4.49c.14,0,.26.12.26.26s-.12.26-.26.26Z"/>
        <path class="cls-1" d="M11.71,3.03h-4.49c-.2,0-.36-.16-.36-.36s.16-.36.36-.36h4.49c.2,0,.36.16.36.36s-.16.36-.36.36ZM7.22,2.5c-.09,0-.16.07-.16.16s.07.16.16.16h4.49c.09,0,.16-.07.16-.16s-.07-.16-.16-.16h-4.49Z"/>
      </g>
      <g>
        <path class="cls-1" d="M11.71.62h-4.49c-.14,0-.26-.12-.26-.26s.12-.26.26-.26h4.49c.14,0,.26.12.26.26s-.12.26-.26.26Z"/>
        <path class="cls-1" d="M11.71.72h-4.49c-.2,0-.36-.16-.36-.36s.16-.36.36-.36h4.49c.2,0,.36.16.36.36s-.16.36-.36.36ZM7.22.2c-.09,0-.16.07-.16.16s.07.16.16.16h4.49c.09,0,.16-.07.16-.16s-.07-.16-.16-.16h-4.49Z"/>
      </g>
    </g>
  </g>
</svg>