<?xml version="1.0" encoding="UTF-8"?>
<svg id="Layer_2" data-name="Layer 2" xmlns="http://www.w3.org/2000/svg" viewBox="0 0 10.37 18.99">
  <defs>
    <style>
      .cls-1 {
        fill: #1f1f1f;
      }
    </style>
  </defs>
  <g id="Object">
    <g>
      <path class="cls-1" d="M10.19,6.53c-.07-.07-.19-.1-.29-.06l-4.5,1.85.1-7.96c0-.14-.11-.26-.26-.27-.15,0-.26.11-.27.26l-.1,7.96L.47,6.37c-.1-.04-.21-.02-.29.05-.08.07-.1.19-.06.28l4.65,12.02c.04.1.13.17.24.17h0c.11,0,.2-.06.24-.16l4.99-11.91c.04-.1.02-.21-.06-.29ZM5.02,17.93L.83,7.1l4.2,1.85h0s.07.02.1.02h0s.05,0,.07-.01c0,0,.02,0,.03,0h0s0,0,0,0l4.28-1.76-4.49,10.73Z"/>
      <path class="cls-1" d="M5.02,18.99c-.15,0-.28-.09-.34-.23L.02,6.74c-.05-.14-.02-.29.09-.39.11-.1.26-.13.39-.07l4.28,1.89.1-7.81c0-.1.04-.19.11-.26.07-.07.16-.09.26-.1.2,0,.36.17.35.36l-.1,7.81,4.36-1.8c.13-.06.29-.02.39.08h0c.1.1.13.26.08.39l-4.99,11.91c-.06.13-.19.22-.33.22ZM.36,6.44s-.08.02-.11.05c-.05.05-.06.12-.04.18l4.65,12.02c.02.06.08.1.15.1.07,0,.13-.04.15-.1l4.99-11.91c.03-.06.01-.13-.03-.18-.05-.05-.12-.06-.18-.04l-4.5,1.85s-.07,0-.09,0c-.03-.02-.04-.05-.04-.08l.1-7.96c0-.09-.07-.16-.16-.17-.04,0-.08.01-.11.04-.03.03-.05.07-.05.12l-.1,7.96s-.02.06-.05.08c-.03.02-.06.02-.09,0L.43,6.46s-.04-.01-.07-.01ZM5.02,18.02h0s-.08-.03-.09-.06L.74,7.14s0-.08.02-.11c.03-.03.07-.04.11-.02l4.2,1.85s.06.02.11,0c0,0,.03,0,.03,0l4.27-1.76s.08,0,.11.02c.03.03.04.07.02.11l-4.49,10.73s-.05.06-.09.06ZM1.01,7.29l4.02,10.37,4.31-10.29-4.06,1.67s-.03,0-.04.01c-.03,0-.06.02-.1.02-.05,0-.1-.01-.14-.03l-3.98-1.75Z"/>
    </g>
  </g>
</svg>