<?xml version="1.0" encoding="UTF-8"?>
<svg id="Layer_2" data-name="Layer 2" xmlns="http://www.w3.org/2000/svg" viewBox="0 0 15.17 19.68">
  <defs>
    <style>
      .cls-1 {
        fill: #1f1f1f;
      }
    </style>
  </defs>
  <g id="Object">
    <g>
      <g>
        <path class="cls-1" d="M10.08,6.98l-.25-.13c-1-.99-2.1-1.62-3.25-1.89v-2.16c0-.14-.12-.26-.26-.26h-2.19c-.14,0-.26.12-.26.26v2.19c-1.16.29-2.32.92-3.43,1.89l-.18.1c-.09.05-.14.13-.14.23v12.1c0,.14.12.26.26.26h9.6c.14,0,.26-.12.26-.26V7.22c0-.1-.06-.19-.14-.23ZM4.38,3.07h1.67v1.75h-1.67v-1.75ZM.69,7.34s.04-.02.05-.04c1.38-1.22,2.81-1.87,4.21-1.96h.65c1.37.09,2.69.72,3.88,1.91.02.02.04.04.07.05l.15.08v1.81c-.8-.7-1.62-1.03-2.44-.96-1.38.11-2.25,1.27-2.35,1.41-.66.76-1.37,1.15-2.11,1.14-1.08,0-1.94-.84-2.17-1.08v-2.32l.07-.04ZM5.42,19.06v-1.88c0-.14-.12-.26-.26-.26s-.26.12-.26.26v1.88h-2v-4.54c0-.14-.12-.26-.26-.26s-.26.12-.26.26v4.54H.62v-8.64c.46.39,1.23.88,2.16.89,0,0,.01,0,.02,0,.9,0,1.74-.45,2.5-1.33,0,0,.01-.01.02-.02,0-.01.77-1.11,1.97-1.2.79-.06,1.6.33,2.4,1.16v9.15h-4.27Z"/>
        <path class="cls-1" d="M9.96,19.68H.36c-.2,0-.36-.16-.36-.36V7.22c0-.14.07-.26.19-.32l.18-.1c1.07-.94,2.21-1.58,3.38-1.88v-2.11c0-.2.16-.36.36-.36h2.19c.2,0,.36.16.36.36v2.08c1.15.28,2.23.92,3.21,1.88l.24.12h0c.12.06.2.18.2.32v12.1c0,.2-.16.36-.36.36ZM4.12,2.64c-.09,0-.16.07-.16.16v2.19s-.03.08-.07.1c-1.16.29-2.3.92-3.39,1.87l-.2.11c-.05.03-.09.08-.09.15v12.1c0,.09.07.16.16.16h9.6c.09,0,.16-.07.16-.16V7.22c0-.06-.03-.12-.09-.15l-.25-.13s-.02-.01-.02-.02c-.98-.97-2.05-1.59-3.2-1.86-.04-.01-.08-.05-.08-.1v-2.16c0-.09-.07-.16-.16-.16h-2.19ZM9.7,19.15h-4.27c-.05,0-.1-.04-.1-.1v-1.88c0-.09-.07-.16-.16-.16s-.16.07-.16.16v1.88c0,.05-.04.1-.1.1h-2c-.05,0-.1-.04-.1-.1v-4.54c0-.09-.07-.16-.16-.16s-.16.07-.16.16v4.54c0,.05-.04.1-.1.1H.62c-.05,0-.1-.04-.1-.1v-8.64s.02-.07.06-.09c.03-.02.08-.01.1.01.46.39,1.21.86,2.1.86.89,0,1.7-.44,2.45-1.3.04-.06.82-1.16,2.05-1.26.82-.06,1.65.34,2.48,1.19.02.02.03.04.03.07v9.15c0,.05-.04.1-.1.1ZM5.52,18.96h4.08v-9.01c-.78-.79-1.56-1.16-2.3-1.1-1.14.09-1.89,1.15-1.89,1.16,0,.01-.02.02-.03.03-.78.91-1.65,1.37-2.58,1.37-.87,0-1.59-.4-2.09-.78v8.34h1.55v-4.44c0-.2.16-.36.36-.36s.36.16.36.36v4.44h1.81v-1.78c0-.2.16-.36.36-.36s.36.16.36.36v1.78ZM2.8,10.87h-.01c-1.11,0-2-.85-2.24-1.11-.02-.02-.03-.04-.03-.07v-2.32s.02-.07.05-.09l.07-.04s.02-.01.03-.02c1.39-1.23,2.82-1.9,4.26-1.99h.66c1.42.09,2.75.74,3.95,1.94.01.01.03.02.04.03l.15.08s.05.05.05.09v1.81s-.02.07-.06.09c-.03.02-.08.01-.11-.02-.78-.68-1.58-1-2.37-.94-1.34.1-2.18,1.24-2.28,1.37-.68.79-1.41,1.18-2.18,1.18ZM.72,9.65c.26.27,1.07,1.02,2.07,1.02h0c.71,0,1.39-.37,2.03-1.11.09-.13.99-1.34,2.42-1.45.79-.06,1.58.23,2.35.85v-1.54l-.09-.05s-.06-.04-.09-.07c-1.17-1.17-2.45-1.8-3.82-1.89h-.64c-1.39.09-2.78.74-4.14,1.94-.02.02-.05.04-.07.05h0s-.02,0-.02,0v2.22ZM.69,7.34h0,0ZM6.05,4.91h-1.67c-.05,0-.1-.04-.1-.1v-1.75c0-.05.04-.1.1-.1h1.67c.05,0,.1.04.1.1v1.75c0,.05-.04.1-.1.1ZM4.48,4.72h1.47v-1.55h-1.47v1.55Z"/>
      </g>
      <g>
        <path class="cls-1" d="M15.04.24c-.07-.13-.22-.18-.35-.12l-4.85,2.45c-.13.07-.18.22-.12.35.05.09.14.14.23.14.04,0,.08,0,.12-.03L14.92.59c.13-.07.18-.22.12-.35Z"/>
        <path class="cls-1" d="M9.96,3.17c-.14,0-.26-.08-.32-.2-.04-.09-.05-.18-.02-.27.03-.09.09-.17.18-.21L14.64.04c.09-.04.18-.05.27-.02.09.03.17.09.21.18h0c.09.18.02.39-.16.48l-4.85,2.45s-.11.04-.16.04ZM14.81.2s-.05,0-.07.02l-4.85,2.45s-.07.05-.08.09c-.01.04-.01.09,0,.12.04.08.14.11.22.07L14.88.51c.08-.04.11-.14.07-.22h0s-.05-.07-.1-.08c-.02,0-.03,0-.05,0Z"/>
      </g>
      <g>
        <path class="cls-1" d="M14.55,7.29l-4.72-2.45c-.13-.07-.29-.02-.35.11-.07.13-.02.29.11.35l4.72,2.45s.08.03.12.03c.09,0,.19-.05.23-.14.07-.13.02-.29-.11-.35Z"/>
        <path class="cls-1" d="M14.42,7.88c-.06,0-.11-.01-.17-.04l-4.72-2.45c-.18-.09-.25-.31-.15-.49.09-.18.31-.25.49-.15l4.72,2.45c.18.09.25.31.15.49-.06.12-.18.19-.32.19ZM9.7,4.91c-.06,0-.12.03-.15.09-.04.08-.01.18.07.22l4.72,2.45c.08.04.18,0,.22-.07.02-.04.02-.08.01-.12-.01-.04-.04-.08-.08-.1h0l-4.72-2.45s-.05-.02-.07-.02Z"/>
      </g>
      <g>
        <path class="cls-1" d="M14.43,3.68h-2.15c-.14,0-.26.12-.26.26s.12.26.26.26h2.15c.14,0,.26-.12.26-.26s-.12-.26-.26-.26Z"/>
        <path class="cls-1" d="M14.42,4.3h-2.15c-.2,0-.36-.16-.36-.36s.16-.36.36-.36h2.15c.2,0,.36.16.36.36s-.16.36-.36.36ZM12.27,3.78c-.09,0-.16.07-.16.16s.07.16.16.16h2.15c.09,0,.16-.07.16-.16s-.07-.16-.16-.16h-2.15Z"/>
      </g>
    </g>
  </g>
</svg>