<?xml version="1.0" encoding="UTF-8"?>
<svg id="Layer_2" data-name="Layer 2" xmlns="http://www.w3.org/2000/svg" viewBox="0 0 19.66 19.69">
  <defs>
    <style>
      .cls-1 {
        fill: #1f1f1f;
      }
    </style>
  </defs>
  <g id="Object">
    <g>
      <g>
        <path class="cls-1" d="M.36.62h18.93c.14,0,.26-.12.26-.26s-.12-.26-.26-.26H.36C.22.1.1.22.1.36s.12.26.26.26Z"/>
        <path class="cls-1" d="M19.3.72H.36c-.2,0-.36-.16-.36-.36s.16-.36.36-.36h18.93c.2,0,.36.16.36.36s-.16.36-.36.36ZM.36.2c-.09,0-.16.07-.16.16s.07.16.16.16h18.93c.09,0,.16-.07.16-.16s-.07-.16-.16-.16H.36Z"/>
      </g>
      <g>
        <path class="cls-1" d="M4.16,3.38c-.14,0-.26.12-.26.26v15.69c0,.14.12.26.26.26h4.72c.14,0,.26-.12.26-.26V2.72c0-.14-.12-.26-.26-.26h-1.6c-.14,0-.26.12-.26.26s.12.26.26.26h1.34v16.09h-4.19V3.64c0-.14-.12-.26-.26-.26Z"/>
        <path class="cls-1" d="M8.88,19.69h-4.72c-.2,0-.36-.16-.36-.36V3.64c0-.2.16-.36.36-.36s.36.16.36.36v15.33h4V3.08h-1.24c-.2,0-.36-.16-.36-.36s.16-.36.36-.36h1.6c.2,0,.36.16.36.36v16.61c0,.2-.16.36-.36.36ZM4.16,3.47c-.09,0-.16.07-.16.16v15.69c0,.09.07.16.16.16h4.72c.09,0,.16-.07.16-.16V2.72c0-.09-.07-.16-.16-.16h-1.6c-.09,0-.16.07-.16.16s.07.16.16.16h1.34c.05,0,.1.04.1.1v16.09c0,.05-.04.1-.1.1h-4.19c-.05,0-.1-.04-.1-.1V3.64c0-.09-.07-.16-.16-.16Z"/>
      </g>
      <g>
        <path class="cls-1" d="M11.24,3.38c-.14,0-.26.12-.26.26v11.01c0,.14.12.26.26.26h4.65c.14,0,.26-.12.26-.26V2.78c0-.14-.12-.26-.26-.26h-1.67c-.14,0-.26.12-.26.26s.12.26.26.26h1.41v11.33h-4.13V3.64c0-.14-.12-.26-.26-.26Z"/>
        <path class="cls-1" d="M15.89,15h-4.65c-.2,0-.36-.16-.36-.36V3.64c0-.2.16-.36.36-.36s.36.16.36.36v10.65h3.93V3.14h-1.31c-.2,0-.36-.16-.36-.36s.16-.36.36-.36h1.67c.2,0,.36.16.36.36v11.86c0,.2-.16.36-.36.36ZM11.24,3.47c-.09,0-.16.07-.16.16v11.01c0,.09.07.16.16.16h4.65c.09,0,.16-.07.16-.16V2.78c0-.09-.07-.16-.16-.16h-1.67c-.09,0-.16.07-.16.16s.07.16.16.16h1.41c.05,0,.1.04.1.1v11.33c0,.05-.04.1-.1.1h-4.13c-.05,0-.1-.04-.1-.1V3.64c0-.09-.07-.16-.16-.16Z"/>
      </g>
    </g>
  </g>
</svg>