<?xml version="1.0" encoding="UTF-8"?>
<svg id="Layer_2" data-name="Layer 2" xmlns="http://www.w3.org/2000/svg" viewBox="0 0 16.56 16.45">
  <defs>
    <style>
      .cls-1 {
        fill: #1f1f1f;
      }
    </style>
  </defs>
  <g id="Object">
    <g>
      <path class="cls-1" d="M16.38,11.79L6.56,1.97c-.1-.1-.27-.1-.37,0-.1.1-.1.27,0,.37l9.64,9.64-2.68,2.68-2.97-2.97.46-.46c.1-.1.1-.27,0-.37l-5.03-5.03c-.1-.1-.27-.1-.37,0l-.49.49L1.72,3.29,4.47.55c.1-.1.1-.27,0-.37-.1-.1-.27-.1-.37,0L.18,4.1c-.1.1-.1.27,0,.37l3.43,3.39c.1.1.27.1.37,0l1.46-1.46,4.66,4.66-1.52,1.52c-.1.1-.1.27,0,.37l3.34,3.34c.1.1.27.1.37,0l4.11-4.11c.1-.1.1-.27,0-.37ZM3.78,7.3L.73,4.28l.62-.62,3.03,3.03-.6.6ZM12.09,15.72l-2.97-2.97.68-.68,2.97,2.97-.68.68Z"/>
      <path class="cls-1" d="M12.09,16.45c-.09,0-.18-.04-.25-.11l-3.34-3.34c-.07-.07-.11-.16-.11-.25s.04-.19.11-.26l1.45-1.45-4.52-4.52-1.39,1.39c-.14.14-.37.14-.51,0L.11,4.54C.04,4.47,0,4.38,0,4.28c0-.1.04-.19.11-.26L4.03.11c.14-.14.37-.14.51,0,.07.07.11.16.11.25s-.04.19-.11.25L1.86,3.29l2.9,2.9.42-.42c.14-.14.37-.14.51,0l5.03,5.03c.07.07.11.16.11.26s-.04.19-.11.25l-.39.39,2.83,2.83,2.54-2.55L6.12,2.41c-.14-.14-.14-.37,0-.51.14-.14.37-.14.51,0l9.82,9.82c.07.07.11.16.11.26s-.04.19-.11.25l-4.11,4.11c-.07.07-.16.11-.25.11ZM5.43,6.3s.05,0,.07.03l4.66,4.66s.04.1,0,.14l-1.52,1.52s-.05.07-.05.12.02.08.05.12l3.34,3.34c.06.06.17.06.23,0l4.11-4.11s.05-.07.05-.12-.02-.08-.05-.12L6.49,2.04c-.06-.06-.17-.06-.23,0-.06.06-.06.17,0,.23l9.64,9.64s.04.1,0,.14l-2.68,2.68s-.1.04-.14,0l-2.97-2.97s-.04-.1,0-.14l.46-.46s.05-.07.05-.12-.02-.08-.05-.12l-5.03-5.03c-.06-.06-.17-.06-.23,0l-.49.49s-.1.04-.14,0L1.65,3.36s-.04-.1,0-.14L4.4.48s.05-.07.05-.12-.02-.08-.05-.12c-.06-.06-.17-.06-.23,0L.24,4.17s-.05.07-.05.12c0,.04.02.09.05.12l3.43,3.38c.06.06.17.06.23,0l1.46-1.46s.04-.03.07-.03ZM12.09,15.82s-.05,0-.07-.03l-2.97-2.97s-.03-.04-.03-.07.01-.05.03-.07l.68-.68s.1-.04.14,0l2.97,2.97s.03.04.03.07-.01.05-.03.07l-.68.68s-.04.03-.07.03ZM9.26,12.75l2.83,2.83.54-.54-2.83-2.83-.54.54ZM3.78,7.4s-.05,0-.07-.03L.66,4.35s-.03-.04-.03-.07.01-.05.03-.07l.62-.62s.1-.04.14,0l3.03,3.03s.04.1,0,.14l-.6.6s-.04.03-.07.03ZM.87,4.28l2.91,2.88.46-.46L1.35,3.8l-.48.48Z"/>
    </g>
  </g>
</svg>