<?xml version="1.0" encoding="UTF-8"?>
<svg id="Layer_2" data-name="Layer 2" xmlns="http://www.w3.org/2000/svg" viewBox="0 0 20.01 12.32">
  <defs>
    <style>
      .cls-1 {
        fill: #1f1f1f;
      }
    </style>
  </defs>
  <g id="Object">
    <g>
      <g>
        <path class="cls-1" d="M17.57,9.29c-.1-.1-.27-.1-.37,0h0c-.1.1-.1.27,0,.37l1.81,1.81h-6.35c-.1,0-.18-.05-.23-.13L7.51,2.53c-.05-.08-.13-.13-.23-.13H.38c-.14,0-.26.12-.26.26H.12c0,.14.12.26.26.26h6.75l4.99,8.95c.05.08.13.13.23.13h7.29c.23,0,.35-.28.19-.45l-2.26-2.26Z"/>
        <path class="cls-1" d="M19.64,12.1h-7.29c-.13,0-.25-.07-.31-.18L7.07,3.02H.38c-.2,0-.36-.16-.36-.36s.16-.36.36-.36h6.9c.13,0,.25.07.31.18l4.92,8.82c.03.05.08.08.14.08h6.12l-1.65-1.65c-.14-.14-.14-.37,0-.51.14-.14.37-.14.51,0l2.26,2.26c.1.11.13.26.08.39-.06.14-.18.22-.33.22ZM.38,2.49c-.09,0-.16.07-.16.16s.07.16.16.16h6.75s.07.02.09.05l4.99,8.95c.03.05.08.08.14.08h7.29c.07,0,.13-.04.15-.1.03-.06.01-.13-.04-.18l-2.26-2.26c-.06-.06-.17-.06-.23,0-.03.03-.05.07-.05.12s.02.08.05.12l1.81,1.81s.04.07.02.11c-.02.04-.05.06-.09.06h-6.35c-.13,0-.25-.07-.31-.18L7.43,2.58c-.03-.05-.08-.08-.14-.08H.38Z"/>
      </g>
      <g>
        <path class="cls-1" d="M19.84,2.7L17.57.18c-.1-.11-.26-.12-.37-.02h0c-.11.1-.12.26-.02.37l1.88,2.08h-6.62c-.09,0-.18.05-.23.13l-1.33,2.79c-.07.13-.03.29.1.36h0c.13.07.29.03.36-.1l1.18-2.53c.05-.08.13-.13.23-.13h6.9c.23,0,.35-.27.19-.44Z"/>
        <path class="cls-1" d="M11.1,6.03c-.06,0-.12-.02-.18-.05-.17-.1-.24-.32-.14-.49l1.33-2.79c.07-.12.19-.19.32-.19h6.4l-1.73-1.91c-.13-.15-.12-.38.03-.51.07-.06.16-.1.26-.09.1,0,.18.05.25.12l2.27,2.51h0c.1.11.12.26.06.39-.06.13-.18.21-.33.21h-6.9c-.06,0-.11.03-.14.08l-1.18,2.52c-.05.09-.13.15-.22.18-.03,0-.07.01-.1.01ZM12.43,2.71c-.06,0-.11.03-.14.08l-1.33,2.79c-.05.08-.02.18.06.23.08.04.18.02.22-.06l1.18-2.52c.07-.12.19-.19.32-.19h6.9c.07,0,.12-.04.15-.1.03-.06.02-.13-.03-.18h0s-2.27-2.51-2.27-2.51c-.06-.07-.16-.07-.23-.01-.07.06-.07.16-.01.23l1.88,2.08s.03.07.02.11c-.02.04-.05.06-.09.06h-6.62Z"/>
      </g>
      <g>
        <path class="cls-1" d="M8.91,9.58c-.13-.07-.29-.03-.36.1l-1.05,1.88c-.05.08-.13.13-.23.13H.36c-.14,0-.26.12-.26.26H.1c0,.14.12.26.26.26h7.23c.1,0,.18-.05.23-.13l1.2-2.15c.07-.13.03-.29-.1-.36Z"/>
        <path class="cls-1" d="M7.59,12.32H.36c-.2,0-.36-.16-.36-.36s.16-.36.36-.36h6.92c.06,0,.11-.03.14-.08l1.05-1.88c.05-.08.12-.14.22-.17.09-.03.19-.01.27.03h0c.08.05.14.12.17.22.03.09.01.19-.03.27l-1.2,2.15c-.06.11-.18.18-.31.18ZM.36,11.8c-.09,0-.16.07-.16.16s.07.16.16.16h7.23c.06,0,.11-.03.14-.08l1.2-2.15s.03-.08.01-.12c-.01-.04-.04-.08-.08-.1h0c-.08-.04-.18-.02-.22.06l-1.05,1.88c-.06.11-.18.19-.31.19H.36Z"/>
      </g>
    </g>
  </g>
</svg>