<?xml version="1.0" encoding="UTF-8"?>
<svg id="Layer_2" data-name="Layer 2" xmlns="http://www.w3.org/2000/svg" viewBox="0 0 11.82 19.12">
  <defs>
    <style>
      .cls-1 {
        fill: #1f1f1f;
      }
    </style>
  </defs>
  <g id="Object">
    <g>
      <g>
        <path class="cls-1" d="M5.91,9.82H.36c-.09,0-.18-.05-.23-.13-.05-.08-.05-.18,0-.26L5.68.23c.06-.1.18-.15.29-.12.11.03.19.13.19.25v9.2c0,.14-.12.26-.26.26ZM.82,9.3h4.82V1.3L.82,9.3Z"/>
        <path class="cls-1" d="M5.91,9.92H.36c-.13,0-.25-.07-.31-.18-.06-.11-.06-.25,0-.36L5.6.17c.08-.14.25-.21.41-.16.16.04.26.19.26.35v9.2c0,.2-.16.36-.36.36ZM5.91.2c-.06,0-.11.03-.14.08L.22,9.48c-.03.05-.03.11,0,.17.03.05.08.08.14.08h5.55c.09,0,.16-.07.16-.16V.36c0-.07-.05-.14-.12-.16-.01,0-.03,0-.04,0ZM5.65,9.4H.82s-.07-.02-.09-.05c-.02-.03-.02-.07,0-.1L5.56,1.25s.07-.06.11-.04c.04.01.07.05.07.09v8c0,.05-.04.1-.1.1ZM1,9.2h4.55V1.66L1,9.2Z"/>
      </g>
      <g>
        <path class="cls-1" d="M5.91,19.02s-.05,0-.07,0c-.11-.03-.19-.13-.19-.25v-9.2c0-.14.12-.26.26-.26h5.55c.09,0,.18.05.23.13.05.08.05.18,0,.26l-5.55,9.2c-.05.08-.13.13-.22.13ZM6.17,9.82v8l4.82-8h-4.82Z"/>
        <path class="cls-1" d="M5.91,19.12s-.06,0-.1-.01c-.16-.04-.26-.19-.26-.35v-9.2c0-.2.16-.36.36-.36h5.55c.13,0,.25.07.31.18.06.11.06.25,0,.36l-5.55,9.2c-.06.11-.18.17-.31.17ZM5.91,9.4c-.09,0-.16.07-.16.16v9.2c0,.07.05.14.12.16.07.02.15-.01.18-.07l5.55-9.2c.03-.05.03-.11,0-.17-.03-.05-.08-.08-.14-.08h-5.55ZM6.17,17.92s-.02,0-.03,0c-.04-.01-.07-.05-.07-.09v-8c0-.05.04-.1.1-.1h4.82s.07.02.09.05c.02.03.02.07,0,.1l-4.82,8s-.05.05-.08.05ZM6.27,9.92v7.54l4.55-7.54h-4.55Z"/>
      </g>
    </g>
  </g>
</svg>