<?xml version="1.0" encoding="UTF-8"?>
<svg id="Layer_2" data-name="Layer 2" xmlns="http://www.w3.org/2000/svg" viewBox="0 0 16.87 19.04">
  <defs>
    <style>
      .cls-1 {
        fill: #1f1f1f;
      }
    </style>
  </defs>
  <g id="Object">
    <g>
      <g>
        <path class="cls-1" d="M2.62,18.94c-1.39,0-2.52-1.13-2.52-2.52s1.13-2.52,2.52-2.52,2.52,1.13,2.52,2.52-1.13,2.52-2.52,2.52ZM2.62,14.42c-1.1,0-1.99.89-1.99,1.99s.89,1.99,1.99,1.99,1.99-.89,1.99-1.99-.89-1.99-1.99-1.99Z"/>
        <path class="cls-1" d="M2.62,19.04c-1.44,0-2.62-1.17-2.62-2.62s1.17-2.62,2.62-2.62,2.62,1.17,2.62,2.62-1.17,2.62-2.62,2.62ZM2.62,14c-1.33,0-2.42,1.09-2.42,2.42s1.09,2.42,2.42,2.42,2.42-1.09,2.42-2.42-1.09-2.42-2.42-2.42ZM2.62,18.51c-1.15,0-2.09-.94-2.09-2.09s.94-2.09,2.09-2.09,2.09.94,2.09,2.09-.94,2.09-2.09,2.09ZM2.62,14.52c-1.05,0-1.9.85-1.9,1.9s.85,1.9,1.9,1.9,1.9-.85,1.9-1.9-.85-1.9-1.9-1.9Z"/>
      </g>
      <g>
        <path class="cls-1" d="M14.25,16.68c-1.39,0-2.52-1.13-2.52-2.52s1.13-2.52,2.52-2.52,2.52,1.13,2.52,2.52-1.13,2.52-2.52,2.52ZM14.25,12.17c-1.1,0-1.99.89-1.99,1.99s.89,1.99,1.99,1.99,1.99-.89,1.99-1.99-.89-1.99-1.99-1.99Z"/>
        <path class="cls-1" d="M14.25,16.78c-1.44,0-2.62-1.17-2.62-2.62s1.17-2.62,2.62-2.62,2.62,1.17,2.62,2.62-1.17,2.62-2.62,2.62ZM14.25,11.74c-1.34,0-2.42,1.09-2.42,2.42s1.09,2.42,2.42,2.42,2.42-1.09,2.42-2.42-1.09-2.42-2.42-2.42ZM14.25,16.25c-1.15,0-2.09-.94-2.09-2.09s.94-2.09,2.09-2.09,2.09.94,2.09,2.09-.94,2.09-2.09,2.09ZM14.25,12.27c-1.05,0-1.9.85-1.9,1.9s.85,1.9,1.9,1.9,1.9-.85,1.9-1.9-.85-1.9-1.9-1.9Z"/>
      </g>
      <g>
        <path class="cls-1" d="M4.87,16.68c-.14,0-.26-.12-.26-.26V2.53c0-.13.09-.23.21-.26L16.46.1c.08-.01.16,0,.22.06.06.05.09.12.09.2v13.8c0,.14-.12.26-.26.26s-.26-.12-.26-.26V.68L5.14,2.75v13.67c0,.14-.12.26-.26.26Z"/>
        <path class="cls-1" d="M4.87,16.78c-.2,0-.36-.16-.36-.36V2.53c0-.17.12-.32.29-.35L16.44,0c.11-.02.22,0,.3.08.08.07.13.17.13.28v13.8c0,.2-.16.36-.36.36s-.36-.16-.36-.36V.79L5.23,2.83v13.59c0,.2-.16.36-.36.36ZM16.5.2s-.02,0-.03,0L4.84,2.37c-.08.01-.13.08-.13.16v13.89c0,.09.07.16.16.16s.16-.07.16-.16V2.75s.03-.09.08-.1L16.23.58s.06,0,.08.02c.02.02.04.05.04.08v13.49c0,.09.07.16.16.16s.16-.07.16-.16V.36s-.02-.1-.06-.13c-.03-.02-.07-.04-.11-.04Z"/>
      </g>
      <g>
        <path class="cls-1" d="M4.87,5.41c-.12,0-.23-.09-.26-.21-.03-.14.07-.28.21-.31l11.63-2.17c.14-.03.28.07.31.21.03.14-.07.28-.21.31l-11.63,2.17s-.03,0-.05,0Z"/>
        <path class="cls-1" d="M4.87,5.5c-.17,0-.32-.12-.35-.29-.04-.2.09-.38.29-.42l11.63-2.17c.2-.04.38.09.42.29.04.2-.09.38-.29.42l-11.63,2.17s-.05,0-.07,0ZM16.5,2.81s-.02,0-.03,0l-11.63,2.17c-.09.02-.15.1-.13.19.02.09.1.15.19.13l11.63-2.17c.09-.02.15-.1.13-.19-.01-.08-.08-.13-.16-.13Z"/>
      </g>
    </g>
  </g>
</svg>