<?xml version="1.0" encoding="UTF-8"?>
<svg id="Layer_2" data-name="Layer 2" xmlns="http://www.w3.org/2000/svg" viewBox="0 0 12.95 19.15">
  <defs>
    <style>
      .cls-1 {
        fill: #1f1f1f;
      }
    </style>
  </defs>
  <g id="Object">
    <g>
      <g>
        <path class="cls-1" d="M7.59,14.06V2.94c0-.34.27-.61.61-.61h2.95c.31,0,.57.25.57.57v13.31c0,.34-.28.62-.62.62h-1.39c-.14,0-.26-.12-.26-.26h0c0-.14.12-.26.26-.26h1.48V2.85h-3.08v11.21c0,.14-.12.26-.26.26h0c-.14,0-.26-.12-.26-.26Z"/>
        <path class="cls-1" d="M11.1,16.92h-1.39c-.2,0-.36-.16-.36-.36s.16-.36.36-.36h1.38V2.95h-2.88v11.11c0,.2-.16.36-.36.36s-.36-.16-.36-.36V2.94c0-.39.32-.71.71-.71h2.95c.37,0,.66.3.66.66v13.31c0,.4-.32.72-.72.72ZM9.71,16.4c-.09,0-.16.07-.16.16s.07.16.16.16h1.39c.29,0,.52-.23.52-.52V2.89c0-.26-.21-.47-.47-.47h-2.95c-.28,0-.51.23-.51.51v11.13c0,.09.07.16.16.16s.16-.07.16-.16V2.85c0-.05.04-.1.1-.1h3.08c.05,0,.1.04.1.1v13.45c0,.05-.04.1-.1.1h-1.48Z"/>
      </g>
      <g>
        <path class="cls-1" d="M.1,11.63v-6.48c0-.31.25-.55.55-.55h3.2c.31,0,.55.25.55.55v8.85c0,.31-.25.55-.55.55h-1.17c-.14,0-.26-.12-.26-.26h0c0-.14.12-.26.26-.26h1.2V5.12H.62v6.51c0,.14-.12.26-.26.26H.36c-.14,0-.26-.12-.26-.26Z"/>
        <path class="cls-1" d="M3.85,14.65h-1.17c-.2,0-.36-.16-.36-.36s.16-.36.36-.36h1.1V5.22H.72v6.41c0,.2-.16.36-.36.36s-.36-.16-.36-.36v-6.48c0-.36.29-.65.65-.65h3.2c.36,0,.65.29.65.65v8.85c0,.36-.29.65-.65.65ZM2.68,14.13c-.09,0-.16.07-.16.16s.07.16.16.16h1.17c.25,0,.46-.2.46-.46V5.15c0-.25-.2-.46-.46-.46H.65c-.25,0-.46.2-.46.46v6.48c0,.09.07.16.16.16s.16-.07.16-.16v-6.51c0-.05.04-.1.1-.1h3.25c.05,0,.1.04.1.1v8.91c0,.05-.04.1-.1.1h-1.2Z"/>
      </g>
      <g>
        <path class="cls-1" d="M5.17,18.66V.49c0-.14.12-.26.26-.26h0c.14,0,.26.12.26.26v18.17c0,.14-.12.26-.26.26h0c-.14,0-.26-.12-.26-.26Z"/>
        <path class="cls-1" d="M5.43,19.02c-.2,0-.36-.16-.36-.36V.49c0-.2.16-.36.36-.36s.36.16.36.36v18.17c0,.2-.16.36-.36.36ZM5.43.33c-.09,0-.16.07-.16.16v18.17c0,.09.07.16.16.16s.16-.07.16-.16V.49c0-.09-.07-.16-.16-.16Z"/>
      </g>
      <g>
        <path class="cls-1" d="M12.33,18.79V.36c0-.14.12-.26.26-.26h0c.14,0,.26.12.26.26v18.43c0,.14-.12.26-.26.26h0c-.14,0-.26-.12-.26-.26Z"/>
        <path class="cls-1" d="M12.59,19.15c-.2,0-.36-.16-.36-.36V.36c0-.2.16-.36.36-.36s.36.16.36.36v18.43c0,.2-.16.36-.36.36ZM12.59.2c-.09,0-.16.07-.16.16v18.43c0,.09.07.16.16.16s.16-.07.16-.16V.36c0-.09-.07-.16-.16-.16Z"/>
      </g>
    </g>
  </g>
</svg>