<?xml version="1.0" encoding="UTF-8"?>
<svg id="Layer_2" data-name="Layer 2" xmlns="http://www.w3.org/2000/svg" viewBox="0 0 19.15 11.81">
  <defs>
    <style>
      .cls-1 {
        fill: #1f1f1f;
      }
    </style>
  </defs>
  <g id="Object">
    <g>
      <g>
        <path class="cls-1" d="M.49,2.46h4.19v1.1c0,.47.38.85.85.85h6.14c.14,0,.26-.12.26-.26s-.12-.26-.26-.26h-6.41s-.06-.02-.06-.06V.62h8.91v2.18c0,.14.12.26.26.26s.26-.12.26-.26v-.35h4.02c.14,0,.26-.12.26-.26s-.12-.26-.26-.26h-4.02v-.99c0-.47-.38-.85-.85-.85H5.53c-.47,0-.85.38-.85.85v.99H.49c-.14,0-.26.12-.26.26s.12.26.26.26Z"/>
        <path class="cls-1" d="M11.67,4.5h-6.14c-.52,0-.95-.42-.95-.95v-1H.49c-.2,0-.36-.16-.36-.36s.16-.36.36-.36h4.09v-.89c0-.52.42-.95.95-.95h8.26c.52,0,.95.42.95.95v.89h3.92c.2,0,.36.16.36.36s-.16.36-.36.36h-3.92v.25c0,.2-.16.36-.36.36s-.36-.16-.36-.36V.72H5.31v3.06h6.37c.2,0,.36.16.36.36s-.16.36-.36.36ZM.49,2.03c-.09,0-.16.07-.16.16s.07.16.16.16h4.19c.05,0,.1.04.1.1v1.1c0,.41.34.75.75.75h6.14c.09,0,.16-.07.16-.16s-.07-.16-.16-.16h-6.41c-.08,0-.15-.07-.15-.15V.62c0-.05.04-.1.1-.1h8.91c.05,0,.1.04.1.1v2.18c0,.09.07.16.16.16s.16-.07.16-.16v-.35c0-.05.04-.1.1-.1h4.02c.09,0,.16-.07.16-.16s-.07-.16-.16-.16h-4.02c-.05,0-.1-.04-.1-.1v-.99c0-.41-.34-.75-.75-.75H5.53c-.41,0-.75.34-.75.75v.99c0,.05-.04.1-.1.1H.49Z"/>
      </g>
      <g>
        <path class="cls-1" d="M18.79,9.27h-1.89v-.92c0-.42-.34-.75-.75-.75H3.16c-.42,0-.75.34-.75.75v.92H.36c-.14,0-.26.12-.26.26s.12.26.26.26h2.04v1.17c0,.42.34.75.75.75h10.88c.14,0,.26-.12.26-.26s-.12-.26-.26-.26H2.93v-3.08h13.45v1.89c0,.14.12.26.26.26s.26-.12.26-.26v-.22h1.89c.14,0,.26-.12.26-.26s-.12-.26-.26-.26Z"/>
        <path class="cls-1" d="M14.03,11.81H3.16c-.47,0-.85-.38-.85-.85v-1.07H.36c-.2,0-.36-.16-.36-.36s.16-.36.36-.36h1.95v-.83c0-.47.38-.85.85-.85h12.99c.47,0,.85.38.85.85v.83h1.79c.2,0,.36.16.36.36s-.16.36-.36.36h-1.79v.12c0,.2-.16.36-.36.36s-.36-.16-.36-.36v-1.8H3.03v2.88h11.01c.2,0,.36.16.36.36s-.16.36-.36.36ZM.36,9.37c-.09,0-.16.07-.16.16s.07.16.16.16h2.04c.05,0,.1.04.1.1v1.17c0,.36.29.65.65.65h10.88c.09,0,.16-.07.16-.16s-.07-.16-.16-.16H2.93c-.05,0-.1-.04-.1-.1v-3.08c0-.05.04-.1.1-.1h13.45c.05,0,.1.04.1.1v1.89c0,.09.07.16.16.16s.16-.07.16-.16v-.22c0-.05.04-.1.1-.1h1.89c.09,0,.16-.07.16-.16s-.07-.16-.16-.16h-1.89c-.05,0-.1-.04-.1-.1v-.92c0-.36-.29-.66-.65-.66H3.16c-.36,0-.65.29-.65.66v.92c0,.05-.04.1-.1.1H.36Z"/>
      </g>
    </g>
  </g>
</svg>