<?xml version="1.0" encoding="UTF-8"?>
<svg id="Layer_2" data-name="Layer 2" xmlns="http://www.w3.org/2000/svg" viewBox="0 0 11.12 18.96">
  <defs>
    <style>
      .cls-1 {
        fill: #1f1f1f;
      }
    </style>
  </defs>
  <g id="Object">
    <g>
      <g>
        <path class="cls-1" d="M5.56,11.52c-1.81,0-3.28-1.47-3.28-3.28V3.37C2.28,1.57,3.75.1,5.56.1s3.28,1.47,3.28,3.28v4.87c0,1.81-1.47,3.28-3.28,3.28ZM5.56.62c-1.52,0-2.75,1.23-2.75,2.75v4.87c0,1.52,1.23,2.75,2.75,2.75s2.75-1.23,2.75-2.75V3.37c0-1.52-1.23-2.75-2.75-2.75Z"/>
        <path class="cls-1" d="M5.56,11.62c-1.86,0-3.37-1.51-3.37-3.37V3.37c0-1.86,1.51-3.37,3.37-3.37s3.37,1.51,3.37,3.37v4.87c0,1.86-1.51,3.37-3.37,3.37ZM5.56.2C3.81.2,2.38,1.62,2.38,3.37v4.87c0,1.75,1.43,3.18,3.18,3.18s3.18-1.43,3.18-3.18V3.37C8.74,1.62,7.31.2,5.56.2ZM5.56,11.1c-1.57,0-2.85-1.28-2.85-2.85V3.37c0-1.57,1.28-2.85,2.85-2.85s2.85,1.28,2.85,2.85v4.87c0,1.57-1.28,2.85-2.85,2.85ZM5.56.72c-1.46,0-2.65,1.19-2.65,2.65v4.87c0,1.46,1.19,2.65,2.65,2.65s2.65-1.19,2.65-2.65V3.37c0-1.46-1.19-2.65-2.65-2.65Z"/>
      </g>
      <g>
        <path class="cls-1" d="M5.56,13.85C2.55,13.85.1,11.4.1,8.39c0-.14.12-.26.26-.26s.26.12.26.26c0,2.72,2.21,4.94,4.94,4.94s4.94-2.21,4.94-4.94c0-.14.12-.26.26-.26s.26.12.26.26c0,3.01-2.45,5.46-5.46,5.46Z"/>
        <path class="cls-1" d="M5.56,13.95c-3.06,0-5.56-2.49-5.56-5.56,0-.2.16-.36.36-.36s.36.16.36.36c0,2.67,2.17,4.84,4.84,4.84s4.84-2.17,4.84-4.84c0-.2.16-.36.36-.36s.36.16.36.36c0,3.06-2.49,5.56-5.56,5.56ZM.36,8.23c-.09,0-.16.07-.16.16,0,2.96,2.41,5.36,5.36,5.36s5.36-2.41,5.36-5.36c0-.09-.07-.16-.16-.16s-.16.07-.16.16c0,2.78-2.26,5.03-5.03,5.03S.52,11.16.52,8.39c0-.09-.07-.16-.16-.16Z"/>
      </g>
      <g>
        <path class="cls-1" d="M5.56,18.86c-.14,0-.26-.12-.26-.26v-5.01c0-.14.12-.26.26-.26s.26.12.26.26v5.01c0,.14-.12.26-.26.26Z"/>
        <path class="cls-1" d="M5.56,18.96c-.2,0-.36-.16-.36-.36v-5.01c0-.2.16-.36.36-.36s.36.16.36.36v5.01c0,.2-.16.36-.36.36ZM5.56,13.42c-.09,0-.16.07-.16.16v5.01c0,.09.07.16.16.16s.16-.07.16-.16v-5.01c0-.09-.07-.16-.16-.16Z"/>
      </g>
      <g>
        <path class="cls-1" d="M9.1,18.86H2.02c-.14,0-.26-.12-.26-.26s.12-.26.26-.26h7.08c.14,0,.26.12.26.26s-.12.26-.26.26Z"/>
        <path class="cls-1" d="M9.1,18.96H2.02c-.2,0-.36-.16-.36-.36s.16-.36.36-.36h7.08c.2,0,.36.16.36.36s-.16.36-.36.36ZM2.02,18.44c-.09,0-.16.07-.16.16s.07.16.16.16h7.08c.09,0,.16-.07.16-.16s-.07-.16-.16-.16H2.02Z"/>
      </g>
      <g>
        <path class="cls-1" d="M8.4,4.88H2.54c-.14,0-.26-.12-.26-.26s.12-.26.26-.26h5.86c.14,0,.26.12.26.26s-.12.26-.26.26Z"/>
        <path class="cls-1" d="M8.4,4.97H2.54c-.2,0-.36-.16-.36-.36s.16-.36.36-.36h5.86c.2,0,.36.16.36.36s-.16.36-.36.36ZM2.54,4.45c-.09,0-.16.07-.16.16s.07.16.16.16h5.86c.09,0,.16-.07.16-.16s-.07-.16-.16-.16H2.54Z"/>
      </g>
    </g>
  </g>
</svg>