<?xml version="1.0" encoding="UTF-8"?>
<svg id="Layer_2" data-name="Layer 2" xmlns="http://www.w3.org/2000/svg" viewBox="0 0 19.46 19.85">
  <defs>
    <style>
      .cls-1 {
        fill: #1f1f1f;
      }
    </style>
  </defs>
  <g id="Object">
    <g>
      <path class="cls-1" d="M.36,10.32h9.04v1.57H2.59c-.14,0-.26.12-.26.26v4.85c0,.14.12.26.26.26h6.81v2.23c0,.14.12.26.26.26s.26-.12.26-.26v-2.23h4.29c.14,0,.26-.12.26-.26s-.12-.26-.26-.26H2.85v-4.32h13.76v3.2c0,.14.12.26.26.26s.26-.12.26-.26v-3.47c0-.14-.12-.26-.26-.26h-6.94v-1.57h9.17c.14,0,.26-.12.26-.26v-4.85c0-.14-.12-.26-.26-.26h-9.3V.36c0-.14-.12-.26-.26-.26s-.26.12-.26.26v4.59H.36c-.14,0-.26.12-.26.26v4.85c0,.14.12.26.26.26ZM.62,5.47h18.21v4.32H.62v-4.32Z"/>
      <path class="cls-1" d="M9.66,19.85c-.2,0-.36-.16-.36-.36v-2.13H2.59c-.2,0-.36-.16-.36-.36v-4.85c0-.2.16-.36.36-.36h6.72v-1.38H.36c-.2,0-.36-.16-.36-.36v-4.85c0-.2.16-.36.36-.36h8.81V.36c0-.2.16-.36.36-.36s.36.16.36.36v4.49h9.21c.2,0,.36.16.36.36v4.85c0,.2-.16.36-.36.36h-9.07v1.38h6.85c.2,0,.36.16.36.36v3.47c0,.2-.16.36-.36.36s-.36-.16-.36-.36v-3.1H2.95v4.13h11.27c.2,0,.36.16.36.36s-.16.36-.36.36h-4.2v2.13c0,.2-.16.36-.36.36ZM2.59,11.99c-.09,0-.16.07-.16.16v4.85c0,.09.07.16.16.16h6.81c.05,0,.1.04.1.1v2.23c0,.09.07.16.16.16s.16-.07.16-.16v-2.23c0-.05.04-.1.1-.1h4.29c.09,0,.16-.07.16-.16s-.07-.16-.16-.16H2.85c-.05,0-.1-.04-.1-.1v-4.32c0-.05.04-.1.1-.1h13.76c.05,0,.1.04.1.1v3.2c0,.09.07.16.16.16s.16-.07.16-.16v-3.47c0-.09-.07-.16-.16-.16h-6.94c-.05,0-.1-.04-.1-.1v-1.57c0-.05.04-.1.1-.1h9.17c.09,0,.16-.07.16-.16v-4.85c0-.09-.07-.16-.16-.16h-9.3c-.05,0-.1-.04-.1-.1V.36c0-.09-.07-.16-.16-.16s-.16.07-.16.16v4.59c0,.05-.04.1-.1.1H.36c-.09,0-.16.07-.16.16v4.85c0,.09.07.16.16.16h9.04c.05,0,.1.04.1.1v1.57c0,.05-.04.1-.1.1H2.59ZM18.84,9.89H.62c-.05,0-.1-.04-.1-.1v-4.32c0-.05.04-.1.1-.1h18.21c.05,0,.1.04.1.1v4.32c0,.05-.04.1-.1.1ZM.72,9.7h18.02v-4.13H.72v4.13Z"/>
    </g>
  </g>
</svg>