<?xml version="1.0" encoding="UTF-8"?>
<svg id="Layer_2" data-name="Layer 2" xmlns="http://www.w3.org/2000/svg" viewBox="0 0 19.59 19.59">
  <defs>
    <style>
      .cls-1 {
        fill: #1f1f1f;
      }
    </style>
  </defs>
  <g id="Object">
    <g>
      <path class="cls-1" d="M.1.36v18.87c0,.14.12.26.26.26h18.87c.14,0,.26-.12.26-.26V.36c0-.14-.12-.26-.26-.26H.36C.22.1.1.22.1.36ZM5.41.62h13.56v18.35H5.4s.03-.07.03-.11V.72s0-.07-.02-.1ZM.62.62h4.3s-.02.06-.02.1v18.13s.01.08.03.11H.62V.62Z"/>
      <path class="cls-1" d="M19.23,19.59H.36c-.2,0-.36-.16-.36-.36V.36c0-.2.16-.36.36-.36h18.87c.2,0,.36.16.36.36v18.87c0,.2-.16.36-.36.36ZM.36.2c-.09,0-.16.07-.16.16v18.87c0,.09.07.16.16.16h18.87c.09,0,.16-.07.16-.16V.36c0-.09-.07-.16-.16-.16H.36ZM18.97,19.07H5.4s-.07-.02-.08-.05c-.02-.03-.02-.06,0-.1.01-.03.02-.05.02-.07V.72s0-.04-.01-.06c-.01-.03,0-.06,0-.09.02-.03.05-.04.08-.04h13.56c.05,0,.1.04.1.1v18.35c0,.05-.04.1-.1.1ZM5.52,18.87h13.34V.72H5.53v18.13s0,.01,0,.02ZM4.93,19.07H.62c-.05,0-.1-.04-.1-.1V.62c0-.05.04-.1.1-.1h4.3s.06.02.08.04c.02.03.02.06,0,.09,0,.02-.01.04-.01.06v18.13s0,.04.02.07c.01.03.01.07,0,.1-.02.03-.05.05-.08.05ZM.72,18.87h4.08s0-.01,0-.02V.72H.72v18.15Z"/>
    </g>
  </g>
</svg>