<?xml version="1.0" encoding="UTF-8"?>
<svg id="Layer_2" data-name="Layer 2" xmlns="http://www.w3.org/2000/svg" viewBox="0 0 19.64 19.64">
  <defs>
    <style>
      .cls-1 {
        fill: #1f1f1f;
      }
    </style>
  </defs>
  <g id="Object">
    <g>
      <g>
        <path class="cls-1" d="M19.46,7.21L12.42.18c-.1-.1-.27-.1-.37,0L.18,12.05c-.1.1-.1.27,0,.37l6.59,6.59H.36c-.14,0-.26.12-.26.26s.12.26.26.26h7.04s.07,0,.1-.02c.03-.01.06-.03.08-.06h0s11.88-11.88,11.88-11.88c.05-.05.08-.12.08-.19s-.03-.14-.08-.19ZM7.4,18.91L.73,12.24l5.47-5.47,5.74,5.61c.05.05.12.07.18.07s.14-.03.19-.08c.1-.1.1-.27,0-.37l-5.73-5.61L12.24.73l6.67,6.67-11.51,11.51Z"/>
        <path class="cls-1" d="M7.4,19.64H.36c-.2,0-.36-.16-.36-.36s.16-.36.36-.36h6.17L.11,12.49c-.14-.14-.14-.37,0-.51L11.98.11c.07-.07.16-.11.25-.11h0c.1,0,.19.04.25.11l7.04,7.04c.07.07.11.16.11.25s-.04.19-.11.26l-11.88,11.88s-.07.06-.12.08c-.04.02-.09.03-.14.03ZM.36,19.11c-.09,0-.16.07-.16.16s.07.16.16.16h7.04s.04,0,.06-.01c.02,0,.04-.02.05-.04l11.88-11.88s.05-.07.05-.12-.02-.09-.05-.12L12.35.24s-.07-.05-.12-.05h0s-.08.02-.12.05L.24,12.12c-.06.06-.06.17,0,.23l6.59,6.59s.04.07.02.11c-.02.04-.05.06-.09.06H.36ZM7.4,19.01s-.05,0-.07-.03L.66,12.31s-.04-.1,0-.14l5.47-5.47s.1-.04.14,0l5.74,5.61c.06.06.17.06.23,0,.06-.06.06-.17,0-.23l-5.73-5.61s-.03-.04-.03-.07c0-.03.01-.05.03-.07L12.17.66s.1-.04.14,0l6.67,6.67s.04.1,0,.14l-11.51,11.51s-.04.03-.07.03ZM.87,12.24l6.53,6.53,11.37-11.37L12.24.87l-5.53,5.53,5.66,5.54c.14.14.14.37,0,.51-.14.14-.37.14-.51,0l-5.67-5.54L.87,12.24Z"/>
      </g>
      <g>
        <path class="cls-1" d="M9.63,7.1c-.1.1-.1.27,0,.37l2.42,2.42c.05.05.12.08.19.08s.13-.03.19-.08c.1-.1.1-.27,0-.37l-2.42-2.42c-.1-.1-.27-.1-.37,0Z"/>
        <path class="cls-1" d="M12.24,10.06c-.1,0-.19-.04-.25-.11l-2.42-2.42c-.14-.14-.14-.37,0-.51.14-.14.37-.14.51,0l2.42,2.42c.14.14.14.37,0,.51-.07.07-.16.11-.25.11ZM9.82,7.12s-.08.02-.12.05c-.06.06-.06.17,0,.23l2.42,2.42c.06.06.17.06.23,0,.06-.06.06-.17,0-.23l-2.42-2.42s-.07-.05-.12-.05Z"/>
      </g>
    </g>
  </g>
</svg>