<?xml version="1.0" encoding="UTF-8"?>
<svg id="Layer_2" data-name="Layer 2" xmlns="http://www.w3.org/2000/svg" viewBox="0 0 8.86 19.62">
  <defs>
    <style>
      .cls-1 {
        fill: #1f1f1f;
      }
    </style>
  </defs>
  <g id="Object">
    <g>
      <g>
        <path class="cls-1" d="M8.32,4.88h-.58c-.14,0-.26.12-.26.26s.12.26.26.26h.38v11.13H.62V5.41h1.95c.14,0,.26-.12.26-.26s-.12-.26-.26-.26H.67c-.32,0-.58.26-.58.58v13.45c0,.34.27.61.61.61h7.33c.34,0,.61-.27.61-.61V5.21c0-.18-.15-.33-.33-.33ZM8.12,19H.62v-1.93h7.5v1.93Z"/>
        <path class="cls-1" d="M8.04,19.62H.71c-.39,0-.71-.32-.71-.71V5.46c0-.37.3-.67.67-.67h1.89c.2,0,.36.16.36.36s-.16.36-.36.36H.72v10.94h7.3V5.5h-.28c-.2,0-.36-.16-.36-.36s.16-.36.36-.36h.58c.23,0,.43.19.43.43v13.7c0,.39-.32.71-.71.71ZM.67,4.98c-.26,0-.48.21-.48.48v13.45c0,.28.23.51.51.51h7.33c.28,0,.51-.23.51-.51V5.21c0-.13-.1-.23-.23-.23h-.58c-.09,0-.16.07-.16.16s.07.16.16.16h.38c.05,0,.1.04.1.1v11.13c0,.05-.04.1-.1.1H.62c-.05,0-.1-.04-.1-.1V5.41c0-.05.04-.1.1-.1h1.95c.09,0,.16-.07.16-.16s-.07-.16-.16-.16H.67ZM8.12,19.09H.62c-.05,0-.1-.04-.1-.1v-1.93c0-.05.04-.1.1-.1h7.5c.05,0,.1.04.1.1v1.93c0,.05-.04.1-.1.1ZM.72,18.9h7.3v-1.74H.72v1.74Z"/>
      </g>
      <g>
        <path class="cls-1" d="M3.8,18.29h1.14c.14,0,.26-.12.26-.26s-.12-.26-.26-.26h-1.14c-.14,0-.26.12-.26.26s.12.26.26.26Z"/>
        <path class="cls-1" d="M4.94,18.39h-1.14c-.2,0-.36-.16-.36-.36s.16-.36.36-.36h1.14c.2,0,.36.16.36.36s-.16.36-.36.36ZM3.8,17.86c-.09,0-.16.07-.16.16s.07.16.16.16h1.14c.09,0,.16-.07.16-.16s-.07-.16-.16-.16h-1.14Z"/>
      </g>
      <g>
        <path class="cls-1" d="M8.68,2.73c-.1-.1-.27-.1-.37,0l-3.83,4-.07-5.74.91.91c.1.1.27.1.37,0s.1-.27,0-.37L4.33.18c-.1-.1-.27-.1-.37,0l-1.36,1.36c-.1.1-.1.27,0,.37.1.1.27.1.37,0l.92-.92.08,5.91c0,.41.51.61.8.31l3.94-4.11c.1-.1.1-.27,0-.37Z"/>
        <path class="cls-1" d="M4.43,7.46c-.07,0-.14-.01-.21-.04-.22-.09-.35-.28-.36-.51l-.07-5.68-.75.75c-.07.07-.16.11-.25.11h0c-.1,0-.19-.04-.25-.11-.14-.14-.14-.37,0-.51L3.89.11c.07-.07.16-.11.25-.11h0c.1,0,.19.04.25.11l1.36,1.36c.14.14.14.37,0,.51-.07.07-.16.11-.25.11h0c-.1,0-.19-.04-.25-.11l-.73-.73.07,5.26,3.66-3.83c.14-.14.37-.15.51-.01h0c.14.14.15.37.01.51l-3.94,4.11c-.11.11-.25.17-.4.17ZM3.88.89s.03,0,.04,0c.04.02.06.05.06.09l.08,5.91c0,.18.12.29.23.33.11.04.27.04.4-.09l3.94-4.11c.06-.07.06-.17,0-.23-.07-.06-.17-.06-.23,0l-3.83,4s-.07.04-.11.02c-.04-.01-.06-.05-.06-.09l-.07-5.74s.02-.08.06-.09c.04-.02.08,0,.11.02l.91.91s.07.05.12.05h0s.08-.02.12-.05c.06-.06.06-.17,0-.23L4.26.24s-.07-.05-.12-.05h0s-.08.02-.12.05l-1.36,1.36c-.06.06-.06.17,0,.23.03.03.07.05.12.05h0s.08-.02.12-.05l.92-.92s.04-.03.07-.03Z"/>
      </g>
    </g>
  </g>
</svg>