<?xml version="1.0" encoding="UTF-8"?>
<svg id="Layer_2" data-name="Layer 2" xmlns="http://www.w3.org/2000/svg" viewBox="0 0 18.94 19.17">
  <defs>
    <style>
      .cls-1 {
        fill: #1f1f1f;
      }
    </style>
  </defs>
  <g id="Object">
    <g>
      <g>
        <path class="cls-1" d="M4.66,19.07H.36c-.14,0-.26-.12-.26-.26v-9.5c0-.14.12-.26.26-.26h4.3c.14,0,.26.12.26.26v9.5c0,.14-.12.26-.26.26ZM.62,18.55h3.78v-8.98H.62v8.98Z"/>
        <path class="cls-1" d="M4.66,19.17H.36c-.2,0-.36-.16-.36-.36v-9.5c0-.2.16-.36.36-.36h4.3c.2,0,.36.16.36.36v9.5c0,.2-.16.36-.36.36ZM.36,9.15c-.09,0-.16.07-.16.16v9.5c0,.09.07.16.16.16h4.3c.09,0,.16-.07.16-.16v-9.5c0-.09-.07-.16-.16-.16H.36ZM4.4,18.65H.62c-.05,0-.1-.04-.1-.1v-8.98c0-.05.04-.1.1-.1h3.78c.05,0,.1.04.1.1v8.98c0,.05-.04.1-.1.1ZM.72,18.45h3.58v-8.78H.72v8.78Z"/>
      </g>
      <g>
        <path class="cls-1" d="M11.7,19.07h-4.3c-.14,0-.26-.12-.26-.26V4.85c0-.14.12-.26.26-.26h4.3c.14,0,.26.12.26.26v13.96c0,.14-.12.26-.26.26ZM7.67,18.55h3.78V5.11h-3.78v13.44Z"/>
        <path class="cls-1" d="M11.7,19.17h-4.3c-.2,0-.36-.16-.36-.36V4.85c0-.2.16-.36.36-.36h4.3c.2,0,.36.16.36.36v13.96c0,.2-.16.36-.36.36ZM7.4,4.68c-.09,0-.16.07-.16.16v13.96c0,.09.07.16.16.16h4.3c.09,0,.16-.07.16-.16V4.85c0-.09-.07-.16-.16-.16h-4.3ZM11.44,18.65h-3.78c-.05,0-.1-.04-.1-.1V5.11c0-.05.04-.1.1-.1h3.78c.05,0,.1.04.1.1v13.44c0,.05-.04.1-.1.1ZM7.76,18.45h3.58V5.21h-3.58v13.24Z"/>
      </g>
      <g>
        <path class="cls-1" d="M18.58,19.07h-4.3c-.14,0-.26-.12-.26-.26V.36c0-.14.12-.26.26-.26h4.3c.14,0,.26.12.26.26v18.45c0,.14-.12.26-.26.26ZM14.55,18.55h3.78V.62h-3.78v17.93Z"/>
        <path class="cls-1" d="M18.58,19.17h-4.3c-.2,0-.36-.16-.36-.36V.36c0-.2.16-.36.36-.36h4.3c.2,0,.36.16.36.36v18.45c0,.2-.16.36-.36.36ZM14.28.2c-.09,0-.16.07-.16.16v18.45c0,.09.07.16.16.16h4.3c.09,0,.16-.07.16-.16V.36c0-.09-.07-.16-.16-.16h-4.3ZM18.32,18.65h-3.78c-.05,0-.1-.04-.1-.1V.62c0-.05.04-.1.1-.1h3.78c.05,0,.1.04.1.1v17.93c0,.05-.04.1-.1.1ZM14.64,18.45h3.58V.72h-3.58v17.73Z"/>
      </g>
    </g>
  </g>
</svg>