<?xml version="1.0" encoding="UTF-8"?>
<svg id="Layer_2" data-name="Layer 2" xmlns="http://www.w3.org/2000/svg" viewBox="0 0 16.77 14.66">
  <defs>
    <style>
      .cls-1 {
        fill: #1f1f1f;
      }
    </style>
  </defs>
  <g id="Object">
    <g>
      <g>
        <path class="cls-1" d="M3.31,14.56c-.46,0-.87-.16-1.17-.47l-1.58-1.58c-.35-.35-.51-.83-.46-1.36.05-.51.29-1.01.69-1.41l4.84-4.84c.83-.83,2.07-.93,2.77-.23l1.58,1.58c.35.35.51.83.46,1.36-.05.51-.29,1.01-.69,1.41-.1.1-.27.1-.37,0s-.1-.27,0-.37c.31-.31.5-.7.54-1.09.04-.37-.07-.71-.3-.94l-1.58-1.58c-.49-.49-1.4-.39-2.03.23L1.17,10.11c-.31.31-.5.7-.54,1.09-.04.37.07.71.3.94l1.58,1.58c.23.23.57.34.94.3.39-.04.78-.23,1.09-.54l2.77-2.77c.1-.1.27-.1.37,0,.1.1.1.27,0,.37l-2.77,2.77c-.39.39-.89.64-1.41.69-.07,0-.13,0-.19,0Z"/>
        <path class="cls-1" d="M3.31,14.66c-.48,0-.92-.18-1.24-.49l-1.58-1.58c-.37-.37-.54-.88-.48-1.44.05-.54.31-1.06.72-1.47l4.84-4.84c.42-.42.95-.67,1.49-.72.56-.04,1.06.13,1.41.48l1.58,1.58c.37.37.54.88.48,1.44-.05.54-.31,1.06-.72,1.47-.14.14-.37.14-.51,0-.07-.07-.11-.16-.11-.25s.04-.19.11-.25c.29-.29.47-.66.51-1.03.03-.34-.06-.65-.28-.86l-1.58-1.58c-.22-.22-.53-.31-.89-.27-.36.04-.72.22-1,.51L1.24,10.18c-.29.29-.47.66-.51,1.03-.03.34.06.65.28.86l1.58,1.58c.21.21.52.31.86.28.37-.04.74-.22,1.03-.51l2.77-2.77c.14-.14.37-.14.51,0,.14.14.14.37,0,.51l-2.77,2.77c-.41.41-.93.67-1.47.72-.07,0-.14,0-.2,0ZM7.24,4.3c-.05,0-.11,0-.16,0-.5.04-.99.28-1.37.66L.87,9.81c-.38.38-.61.86-.66,1.35-.05.5.1.96.43,1.28l1.58,1.58c.33.33.77.48,1.28.43.49-.05.97-.28,1.35-.66l2.77-2.77c.06-.06.06-.17,0-.23-.06-.06-.17-.06-.23,0l-2.77,2.77c-.32.32-.73.53-1.15.57-.4.04-.77-.08-1.02-.33l-1.58-1.58c-.25-.25-.37-.62-.33-1.02.04-.42.24-.82.57-1.15l4.84-4.84c.32-.32.72-.52,1.12-.56.41-.05.79.07,1.05.33l1.58,1.58c.25.25.37.62.33,1.02-.04.42-.24.82-.57,1.15-.03.03-.05.07-.05.12s.02.09.05.12c.06.06.17.06.23,0,.38-.38.61-.86.66-1.35.05-.5-.1-.96-.43-1.28l-1.58-1.58c-.28-.28-.67-.43-1.1-.43Z"/>
      </g>
      <g>
        <path class="cls-1" d="M9.53,10.46c-.44,0-.86-.15-1.17-.46l-1.58-1.58c-.35-.35-.51-.83-.46-1.36.05-.51.29-1.01.69-1.41.1-.1.27-.1.37,0,.1.1.1.27,0,.37-.31.31-.5.7-.54,1.09-.04.37.07.71.3.94l1.58,1.58c.49.49,1.4.39,2.03-.23l4.84-4.84c.31-.31.5-.7.54-1.09.04-.37-.07-.71-.3-.94l-1.58-1.58c-.49-.49-1.41-.39-2.03.23l-3.04,3.04c-.1.1-.27.1-.37,0-.1-.1-.1-.27,0-.37l3.04-3.04c.83-.83,2.07-.93,2.77-.23l1.58,1.58c.35.35.51.83.46,1.36-.05.51-.29,1.01-.69,1.41l-4.84,4.84c-.46.46-1.05.7-1.6.7Z"/>
        <path class="cls-1" d="M9.53,10.55c-.48,0-.92-.17-1.24-.49l-1.58-1.58c-.37-.37-.54-.88-.48-1.44.05-.54.31-1.06.72-1.47.14-.14.37-.14.51,0,.07.07.11.16.11.25s-.04.19-.11.25c-.29.29-.47.66-.51,1.03-.03.34.06.65.28.86l1.58,1.58c.46.46,1.3.35,1.89-.23l4.84-4.84c.29-.29.47-.66.51-1.03.03-.34-.06-.65-.28-.86l-1.58-1.58c-.22-.22-.53-.32-.89-.27-.36.04-.72.22-1,.51l-3.04,3.04c-.14.14-.37.14-.51,0-.14-.14-.14-.37,0-.51l3.04-3.04c.42-.42.95-.67,1.49-.72.55-.05,1.06.13,1.41.48l1.58,1.58c.37.37.54.88.48,1.44-.05.54-.31,1.06-.72,1.47l-4.84,4.84c-.46.46-1.07.73-1.67.73ZM7.19,5.66s-.08.02-.12.05c-.38.38-.61.86-.66,1.35-.05.5.1.96.43,1.28l1.58,1.58c.28.28.67.43,1.1.43.55,0,1.1-.24,1.53-.67l4.84-4.84c.38-.38.61-.86.66-1.35.05-.5-.1-.96-.43-1.28l-1.58-1.58c-.32-.32-.76-.47-1.26-.43-.5.04-.99.28-1.37.66l-3.04,3.04c-.06.06-.06.17,0,.23.06.06.17.06.23,0l3.04-3.04c.32-.32.72-.52,1.12-.56.41-.05.79.07,1.05.33l1.58,1.58c.25.25.37.62.33,1.02-.04.42-.24.82-.57,1.15l-4.84,4.84c-.66.66-1.63.77-2.17.23l-1.58-1.58c-.25-.25-.37-.62-.33-1.02.04-.42.24-.82.57-1.15.03-.03.05-.07.05-.12s-.02-.08-.05-.12c-.03-.03-.07-.05-.12-.05Z"/>
      </g>
    </g>
  </g>
</svg>