<?xml version="1.0" encoding="UTF-8"?>
<svg id="Layer_2" data-name="Layer 2" xmlns="http://www.w3.org/2000/svg" viewBox="0 0 22.03 19.63">
  <defs>
    <style>
      .cls-1 {
        fill: #1f1f1f;
      }
    </style>
  </defs>
  <g id="Object">
    <g>
      <g>
        <path class="cls-1" d="M11.07,6.58c-1.85,0-3.35,1.5-3.35,3.35s1.5,3.35,3.35,3.35,3.35-1.5,3.35-3.35-1.5-3.35-3.35-3.35ZM11.07,12.76c-1.56,0-2.83-1.27-2.83-2.83s1.27-2.83,2.83-2.83,2.83,1.27,2.83,2.83-1.27,2.83-2.83,2.83Z"/>
        <path class="cls-1" d="M11.07,13.38c-1.9,0-3.45-1.55-3.45-3.45s1.55-3.45,3.45-3.45,3.45,1.55,3.45,3.45-1.55,3.45-3.45,3.45ZM11.07,6.68c-1.79,0-3.25,1.46-3.25,3.25s1.46,3.25,3.25,3.25,3.25-1.46,3.25-3.25-1.46-3.25-3.25-3.25ZM11.07,12.86c-1.61,0-2.93-1.31-2.93-2.93s1.31-2.93,2.93-2.93,2.93,1.31,2.93,2.93-1.31,2.93-2.93,2.93ZM11.07,7.2c-1.51,0-2.73,1.22-2.73,2.73s1.22,2.73,2.73,2.73,2.73-1.22,2.73-2.73-1.22-2.73-2.73-2.73Z"/>
      </g>
      <g>
        <g>
          <path class="cls-1" d="M5.87,6.23l-2.57-.36c-.14-.02-.27.08-.29.22-.02.14.08.27.22.29l3.33.47h.03s0,0,0,0c.03,0,.06,0,.1-.02.02,0,.04-.02.06-.04l.03-.03s.03-.04.04-.08c.01-.03.02-.06.02-.1l-.64-3.34c-.01-.07-.05-.12-.11-.16s-.12-.05-.19-.04c-.05,0-.1.03-.13.07-.06.06-.09.15-.07.23l.48,2.48L.53.17C.43.07.27.07.17.17c-.1.1-.1.26,0,.36l5.7,5.7Z"/>
          <path class="cls-1" d="M6.6,6.94h-.05s-3.34-.47-3.34-.47c-.19-.03-.33-.21-.3-.4.01-.09.06-.18.14-.23.07-.06.17-.08.26-.07l2.28.32L.1.6c-.07-.07-.1-.16-.1-.25S.04.17.1.1C.24-.03.46-.03.6.1l5.42,5.42-.42-2.16c-.02-.11.01-.23.1-.32.05-.05.11-.08.18-.1.09-.02.19,0,.26.05.08.05.13.13.15.23l.64,3.34c0,.07,0,.11-.02.15-.02.05-.04.08-.06.11l-.04.04s-.06.04-.08.05c-.05.02-.09.03-.13.03ZM3.26,5.96s-.07.01-.09.03c-.03.03-.06.06-.06.1-.01.09.05.16.13.18l3.35.47s.03,0,.06-.02c0,0,.02-.01.03-.02l.03-.03h0s0-.01.02-.05c0-.01,0-.03,0-.06l-.64-3.32s-.03-.08-.07-.1c-.04-.02-.07-.03-.12-.02-.03,0-.06.02-.08.04-.04.04-.05.09-.04.14l.48,2.48s-.01.09-.05.11c-.04.02-.09.01-.12-.02L.46.24c-.06-.06-.16-.06-.22,0-.03.03-.05.07-.05.11s.02.08.05.11l5.7,5.7s.04.08.02.11c-.02.04-.06.06-.1.05l-2.57-.36s-.02,0-.02,0Z"/>
        </g>
        <g>
          <path class="cls-1" d="M6.79,12.88v-.02s-.04-.01-.04-.01c-.02-.01-.04-.03-.07-.04-.03,0-.05-.02-.1-.02l-3.36.47h0c-.14.02-.24.15-.22.29.02.14.15.24.29.22l2.57-.36L.17,19.09c-.1.1-.1.26,0,.36.05.05.11.08.18.08s.13-.03.18-.07l5.65-5.65-.48,2.48c-.02.08,0,.17.07.23.04.04.08.06.13.07.07.01.13,0,.19-.04.06-.04.09-.1.11-.16l.64-3.3v-.05s0-.06-.02-.1c0-.02-.02-.04-.03-.06Z"/>
          <path class="cls-1" d="M.35,19.63c-.09,0-.18-.04-.25-.1-.14-.14-.14-.36,0-.5l5.49-5.49-2.28.32c-.19.02-.37-.11-.4-.3-.03-.19.11-.37.3-.4l3.36-.47h0c.07,0,.11,0,.14.02.04.02.07.04.1.06h0s.04.03.04.04v.02s.04.04.05.07c.02.06.03.1.03.14v.06s-.65,3.31-.65,3.31c-.02.09-.07.17-.15.23-.08.05-.17.07-.26.05-.07-.01-.13-.05-.18-.1-.08-.08-.12-.2-.1-.32l.42-2.17L.6,19.52c-.07.07-.16.1-.25.1ZM5.87,13.3s.07.02.09.05c.02.04.01.08-.02.11L.24,19.16c-.06.06-.06.16,0,.22.06.06.16.06.22,0l5.65-5.65s.08-.04.12-.02c.04.02.06.06.05.11l-.48,2.48c-.01.05,0,.1.04.14.02.02.05.04.08.04.04,0,.08,0,.12-.02.03-.02.06-.06.07-.1l.64-3.34s0-.02-.02-.06c0,0-.01-.02-.02-.03,0,0,0,0,0-.01-.03-.02-.04-.03-.06-.04,0,0-.02,0-.06,0l-3.34.47c-.09.01-.15.09-.13.18.01.09.1.14.18.13l2.57-.36s0,0,.01,0Z"/>
        </g>
        <g>
          <path class="cls-1" d="M15.24,6.75v.03s.04.01.04.01c.02.01.04.03.07.04.03,0,.05.02.1.02l3.36-.47h0c.14-.02.24-.15.22-.29-.02-.14-.15-.23-.29-.22l-2.57.36L21.85.53c.1-.1.1-.26,0-.36-.1-.1-.26-.1-.36,0l-5.65,5.65.48-2.48c.02-.08-.01-.17-.07-.23-.04-.04-.08-.06-.13-.07-.14-.03-.27.06-.3.2l-.64,3.3v.05s0,.05.02.1c0,.02.02.04.03.05Z"/>
          <path class="cls-1" d="M15.46,6.94c-.07,0-.1,0-.14-.02-.04-.02-.07-.04-.1-.05h-.01s-.04-.03-.05-.05v-.02s-.03-.04-.04-.06c-.02-.06-.03-.1-.03-.14v-.06s.65-3.31.65-3.31c.04-.19.22-.32.41-.28.07.01.13.05.18.1.08.08.12.2.1.32l-.42,2.17L21.42.1c.14-.14.36-.14.5,0,.07.07.1.16.1.25s-.04.18-.1.25l-5.49,5.49,2.28-.32c.2-.03.37.11.4.3.03.19-.11.37-.3.4l-3.36.47h0ZM15.32,6.7s.04.03.06.04c0,0,.02,0,.06,0l3.34-.47c.09-.01.15-.09.13-.18-.01-.09-.09-.15-.18-.13l-2.57.36s-.08-.02-.1-.05c-.02-.04-.01-.08.02-.11L21.78.46s.05-.07.05-.11-.02-.08-.05-.11c-.06-.06-.16-.06-.22,0l-5.65,5.65s-.08.04-.12.02c-.04-.02-.06-.06-.05-.11l.48-2.48c.01-.05,0-.1-.04-.14-.02-.02-.05-.04-.08-.04-.08-.02-.17.04-.18.12l-.64,3.34s0,.02.02.06c0,0,0,.02.02.03,0,0,0,0,0,.02Z"/>
        </g>
        <g>
          <path class="cls-1" d="M16.16,13.4l2.57.36c.07,0,.13,0,.19-.05.05-.04.09-.1.1-.17.02-.14-.08-.27-.22-.29l-3.33-.47h-.03s-.01,0-.01,0c-.03,0-.06,0-.09.02-.02,0-.04.02-.06.03l-.03.02v.03s-.04.04-.05.07c0,.03-.02.06-.01.1l.64,3.34c.03.14.16.23.3.2.05,0,.1-.03.13-.07.06-.06.09-.15.07-.23l-.48-2.48,5.65,5.65s.11.08.18.08h0c.07,0,.13-.03.18-.07.1-.1.1-.26,0-.36l-5.7-5.7Z"/>
          <path class="cls-1" d="M21.67,19.63c-.09,0-.18-.04-.25-.1l-5.42-5.42.42,2.17c.02.12-.01.23-.1.32-.05.05-.11.08-.18.1-.19.03-.38-.09-.41-.28l-.64-3.34c0-.07,0-.11.02-.15.02-.05.04-.07.05-.1h0s.03-.04.04-.05l.03-.02s.03-.02.06-.04c.05-.02.09-.03.13-.03h.05s3.34.47,3.34.47c.19.03.33.21.3.4-.01.09-.06.18-.14.23-.08.06-.17.08-.26.07l-2.28-.32,5.49,5.49c.14.14.14.36,0,.5-.07.07-.16.1-.25.1ZM15.85,13.71s.05.01.07.03l5.65,5.65c.06.06.16.06.22,0,.06-.06.06-.16,0-.22l-5.7-5.7s-.04-.08-.02-.11c.02-.04.06-.06.1-.05l2.57.36s.08,0,.12-.03c.03-.02.05-.06.06-.1,0-.04,0-.08-.03-.12-.02-.03-.06-.06-.1-.06l-3.35-.47s-.03,0-.06.02c0,0-.02.01-.03.02h-.02s-.03.05-.04.07c0,0,0,.03,0,.06l.64,3.32c.02.08.1.14.18.12.03,0,.06-.02.08-.04.04-.04.05-.09.04-.14l-.48-2.48s.01-.09.05-.11c.01,0,.03-.01.05-.01Z"/>
        </g>
      </g>
    </g>
  </g>
</svg>