<?xml version="1.0" encoding="UTF-8"?>
<svg id="Layer_2" data-name="Layer 2" xmlns="http://www.w3.org/2000/svg" viewBox="0 0 17.11 14.86">
  <defs>
    <style>
      .cls-1 {
        fill: #1f1f1f;
      }
    </style>
  </defs>
  <g id="Object">
    <g>
      <g>
        <path class="cls-1" d="M14.34,14.76H.36c-.14,0-.26-.12-.26-.26V.52C.1.38.22.26.36.26h0c.14,0,.26.12.26.26v13.72h13.72c.14,0,.26.12.26.26h0c0,.14-.12.26-.26.26Z"/>
        <path class="cls-1" d="M14.34,14.86H.36c-.2,0-.36-.16-.36-.36V.52C0,.33.16.16.36.16s.36.16.36.36v13.62h13.62c.2,0,.36.16.36.36s-.16.36-.36.36ZM.36.36c-.09,0-.16.07-.16.16v13.98c0,.09.07.16.16.16h13.98c.09,0,.16-.07.16-.16s-.07-.16-.16-.16H.62c-.05,0-.1-.04-.1-.1V.52c0-.09-.07-.16-.16-.16Z"/>
      </g>
      <g>
        <path class="cls-1" d="M2.55,12.05h0c-.1-.1-.1-.27,0-.37l7.06-6.98c.11-.11.28-.1.38.01l2.09,2.41,4.33-4.42c.1-.1.27-.1.37,0h0c.1.1.1.27,0,.37l-4.53,4.62c-.11.11-.28.1-.39-.01l-2.09-2.41-6.87,6.78c-.1.1-.27.1-.37,0Z"/>
        <path class="cls-1" d="M2.74,12.23h0c-.1,0-.19-.04-.25-.11h0c-.14-.14-.14-.37,0-.51l7.06-6.98c.07-.07.17-.11.27-.1.1,0,.19.05.26.12l2.02,2.33,4.26-4.34c.14-.14.37-.14.51,0,.07.07.11.16.11.25,0,.1-.04.19-.1.26l-4.53,4.62c-.07.07-.17.12-.27.11-.1,0-.2-.05-.26-.12l-2.02-2.33-6.79,6.71c-.07.07-.16.1-.25.1ZM9.8,4.73s-.08.02-.11.05l-7.06,6.98c-.06.06-.06.17,0,.23h0s.07.05.12.05h0s.08-.02.11-.05l6.87-6.78s.04-.03.07-.03c.03,0,.05.01.07.03l2.09,2.41s.07.05.12.06c.04,0,.09-.02.12-.05l4.53-4.62s.05-.07.05-.12c0-.04-.02-.09-.05-.12-.06-.06-.17-.06-.23,0l-4.33,4.42s-.04.03-.07.03c-.03,0-.05-.01-.07-.03l-2.09-2.41s-.07-.05-.12-.06h0Z"/>
      </g>
      <g>
        <path class="cls-1" d="M14.04,12.03l-4.2-1.94-2.29,1.91c-.11.09-.28.08-.37-.03h0c-.09-.11-.08-.28.03-.37l2.31-1.92c.15-.12.35-.15.52-.07l4.19,1.93,2.28-3.93c.07-.13.23-.17.36-.1h0c.13.07.17.23.1.36l-2.3,3.96c-.13.22-.4.31-.64.2Z"/>
        <path class="cls-1" d="M14.25,12.17c-.08,0-.17-.02-.25-.06h0l-4.14-1.91-2.24,1.87c-.07.06-.17.09-.26.08-.1,0-.18-.05-.24-.13-.13-.15-.11-.38.05-.51l2.31-1.92c.17-.15.42-.18.63-.08l4.11,1.9,2.24-3.86c.05-.08.13-.14.22-.17.09-.02.19-.01.27.04.08.05.14.13.17.22.02.09.01.19-.04.27l-2.3,3.96c-.11.19-.31.3-.51.3ZM14.09,11.94c.19.09.41.02.51-.16l2.3-3.96c.05-.08.02-.18-.06-.22-.04-.02-.08-.03-.12-.02-.04.01-.08.04-.1.08l-2.28,3.94s-.08.06-.13.04l-4.19-1.94c-.14-.06-.3-.04-.42.06l-2.31,1.92c-.07.06-.08.16-.02.23.06.07.16.08.23.02l2.29-1.91s.07-.03.1-.01l4.2,1.94Z"/>
      </g>
      <g>
        <path class="cls-1" d="M2.55,7.25h0c-.13-.07-.17-.23-.1-.36l2.39-4.31c.11-.19.31-.31.53-.31h4.32L11.71.18c.1-.1.27-.11.37,0h0c.1.1.11.27,0,.37l-1.91,1.98c-.16.17-.39.27-.63.27h-4.22l-2.42,4.35c-.07.13-.23.17-.36.1Z"/>
        <path class="cls-1" d="M2.68,7.38c-.06,0-.12-.02-.17-.05-.17-.1-.24-.32-.14-.49l2.39-4.31c.12-.22.36-.36.62-.36h4.27L11.63.11c.07-.07.16-.11.25-.11.1-.01.19.03.26.1.07.07.11.16.11.25,0,.1-.03.19-.1.26l-1.91,1.98c-.18.19-.44.3-.7.3h-4.16l-2.39,4.3c-.05.08-.12.15-.22.17-.03,0-.07.01-.1.01ZM5.38,2.37c-.18,0-.36.1-.44.26l-2.39,4.31c-.04.08-.02.18.06.22h0s.08.03.12.01c.04-.01.08-.04.1-.08l2.42-4.35s.05-.05.09-.05h4.22c.21,0,.41-.09.56-.24l1.91-1.98s.05-.07.05-.12c0-.04-.02-.08-.05-.11-.03-.03-.07-.04-.12-.05-.04,0-.08.02-.11.05l-2.01,2.09s-.04.03-.07.03h-4.32Z"/>
      </g>
    </g>
  </g>
</svg>