<?xml version="1.0" encoding="UTF-8"?>
<svg id="Layer_2" data-name="Layer 2" xmlns="http://www.w3.org/2000/svg" viewBox="0 0 19.72 19.98">
  <defs>
    <style>
      .cls-1 {
        fill: #1f1f1f;
      }
    </style>
  </defs>
  <g id="Object">
    <g>
      <path class="cls-1" d="M19.36.1h-2.36c-.14,0-.26.12-.26.26v2.36s.01.08.03.12l-5.51,5.51h-2.59c-.14,0-.26.12-.26.26v2.59l-5.4,5.4H.36c-.14,0-.26.12-.26.26v2.77c0,.14.12.26.26.26h2.77c.14,0,.26-.12.26-.26v-2.66l5.33-5.33h2.73c.14,0,.26-.12.26-.26v-2.73l5.48-5.48c.05-.05.08-.12.08-.19h2.1c.14,0,.26-.12.26-.26V.36c0-.14-.12-.26-.26-.26ZM2.87,19.36H.62v-2.24h2.24v2.24ZM8.94,11.11v-2.24h2.24v2.24h-2.24ZM19.1,2.46h-1.83V.62h1.83v1.83Z"/>
      <path class="cls-1" d="M3.13,19.98H.36c-.2,0-.36-.16-.36-.36v-2.77c0-.2.16-.36.36-.36h2.62l5.34-5.34v-2.55c0-.2.16-.36.36-.36h2.55l5.43-5.43s-.02-.06-.02-.1V.36c0-.2.16-.36.36-.36h2.36c.2,0,.36.16.36.36v2.36c0,.2-.16.36-.36.36h-2.01c-.02.06-.05.11-.09.16l-5.45,5.45v2.69c0,.2-.16.36-.36.36h-2.69l-5.27,5.27v2.62c0,.2-.16.36-.36.36ZM.36,16.69c-.09,0-.16.07-.16.16v2.77c0,.09.07.16.16.16h2.77c.09,0,.16-.07.16-.16v-2.66s.01-.05.03-.07l5.33-5.33s.04-.03.07-.03h2.73c.09,0,.16-.07.16-.16v-2.73s.01-.05.03-.07l5.48-5.48s.05-.07.05-.12c0-.05.04-.1.1-.1h2.1c.09,0,.16-.07.16-.16V.36c0-.09-.07-.16-.16-.16h-2.36c-.09,0-.16.07-.16.16v2.36s0,.05.02.07c.02.04.01.09-.02.12l-5.51,5.51s-.04.03-.07.03h-2.59c-.09,0-.16.07-.16.16v2.59s-.01.05-.03.07l-5.4,5.4s-.04.03-.07.03H.36ZM2.87,19.46H.62c-.05,0-.1-.04-.1-.1v-2.24c0-.05.04-.1.1-.1h2.24c.05,0,.1.04.1.1v2.24c0,.05-.04.1-.1.1ZM.72,19.26h2.05v-2.05H.72v2.05ZM11.19,11.21h-2.24c-.05,0-.1-.04-.1-.1v-2.24c0-.05.04-.1.1-.1h2.24c.05,0,.1.04.1.1v2.24c0,.05-.04.1-.1.1ZM9.04,11.02h2.05v-2.05h-2.05v2.05ZM19.1,2.56h-1.83c-.05,0-.1-.04-.1-.1V.62c0-.05.04-.1.1-.1h1.83c.05,0,.1.04.1.1v1.83c0,.05-.04.1-.1.1ZM17.36,2.36h1.64V.72h-1.64v1.64Z"/>
    </g>
  </g>
</svg>