<?xml version="1.0" encoding="UTF-8"?>
<svg id="Layer_2" data-name="Layer 2" xmlns="http://www.w3.org/2000/svg" viewBox="0 0 14.7 14.7">
  <defs>
    <style>
      .cls-1 {
        fill: #1f1f1f;
      }
    </style>
  </defs>
  <g id="Object">
    <g>
      <path class="cls-1" d="M3.13,9.64l1.8,2.01c.23.26.65.18.77-.15l2.21-6.02,1.82,3.71c.13.27.52.27.65,0L14.56.61c.06-.13.01-.28-.12-.35h0c-.13-.07-.29-.01-.35.12l-4.03,8.3-1.8-3.67c-.16-.32-.63-.3-.75.04l-2.26,6.16-1.71-1.91c-.25-.28-.71-.23-.89.11l-2.03,3.86V.36C.62.22.51.1.36.1H.36C.22.1.1.22.1.36v13.65c0,.33.26.59.59.59h13.65c.14,0,.26-.12.26-.26h0c0-.14-.12-.26-.26-.26H.79l2.33-4.44Z"/>
      <path class="cls-1" d="M14.34,14.7H.69c-.38,0-.69-.31-.69-.69V.36c0-.2.16-.36.36-.36s.36.16.36.36v12.52l1.84-3.5c.1-.19.28-.31.49-.34.21-.03.42.05.56.21l1.6,1.79,2.21-6.01c.07-.19.24-.32.45-.33.21-.01.39.1.48.28l1.71,3.49L14,.34c.04-.09.12-.15.21-.18.09-.03.19-.02.28.02.18.09.25.3.16.48l-4.18,8.58c-.08.16-.24.26-.41.26h0c-.18,0-.34-.1-.41-.26l-1.72-3.51-2.13,5.81c-.07.18-.22.32-.42.35-.19.04-.39-.03-.52-.17l-1.71-1.91L.96,13.98h13.38c.2,0,.36.16.36.36s-.16.36-.36.36ZM.36.2c-.09,0-.16.07-.16.16v13.65c0,.27.22.49.49.49h13.65c.09,0,.16-.07.16-.16s-.07-.16-.16-.16H.79s-.07-.02-.08-.05c-.02-.03-.02-.07,0-.1l2.33-4.44s.04-.05.07-.05c.03,0,.06,0,.09.03l1.8,2.01c.08.09.21.14.33.11.12-.02.23-.11.27-.23l2.21-6.02s.05-.06.09-.06c.04,0,.08.02.09.05l1.82,3.71c.05.09.13.15.24.15h0c.1,0,.19-.06.24-.15L14.47.57c.04-.08,0-.18-.07-.22-.04-.02-.08-.02-.13,0-.04.01-.08.04-.09.08l-4.03,8.3s-.05.06-.09.06h0s-.07-.02-.09-.06l-1.8-3.67c-.07-.14-.2-.19-.3-.17-.1,0-.22.06-.28.2l-2.26,6.17s-.04.06-.07.06c-.03,0-.07,0-.09-.03l-1.71-1.91c-.1-.11-.24-.16-.39-.14-.15.02-.27.1-.34.23l-2.03,3.86s-.07.06-.11.05c-.04-.01-.07-.05-.07-.1V.36c0-.09-.07-.16-.16-.16Z"/>
    </g>
  </g>
</svg>