<?xml version="1.0" encoding="UTF-8"?>
<svg id="Layer_2" data-name="Layer 2" xmlns="http://www.w3.org/2000/svg" viewBox="0 0 19.29 19.17">
  <defs>
    <style>
      .cls-1 {
        fill: #1f1f1f;
      }
    </style>
  </defs>
  <g id="Object">
    <g>
      <g>
        <path class="cls-1" d="M5,9.05H.7c-.14,0-.26.12-.26.26v9.5c0,.14.12.26.26.26h4.3c.14,0,.26-.12.26-.26v-9.5c0-.14-.12-.26-.26-.26ZM4.74,18.55H.96v-8.98h3.78v8.98Z"/>
        <path class="cls-1" d="M5,19.17H.7c-.2,0-.36-.16-.36-.36v-9.5c0-.2.16-.36.36-.36h4.3c.2,0,.36.16.36.36v9.5c0,.2-.16.36-.36.36ZM.7,9.15c-.09,0-.16.07-.16.16v9.5c0,.09.07.16.16.16h4.3c.09,0,.16-.07.16-.16v-9.5c0-.09-.07-.16-.16-.16H.7ZM4.74,18.65H.96c-.05,0-.1-.04-.1-.1v-8.98c0-.05.04-.1.1-.1h3.78c.05,0,.1.04.1.1v8.98c0,.05-.04.1-.1.1ZM1.06,18.45h3.58v-8.78H1.06v8.78Z"/>
      </g>
      <g>
        <path class="cls-1" d="M12.05,4.59h-4.3c-.14,0-.26.12-.26.26v13.96c0,.14.12.26.26.26h4.3c.14,0,.26-.12.26-.26V4.85c0-.14-.12-.26-.26-.26ZM11.78,18.55h-3.78V5.11h3.78v13.44Z"/>
        <path class="cls-1" d="M12.05,19.17h-4.3c-.2,0-.36-.16-.36-.36V4.85c0-.2.16-.36.36-.36h4.3c.2,0,.36.16.36.36v13.96c0,.2-.16.36-.36.36ZM7.74,4.68c-.09,0-.16.07-.16.16v13.96c0,.09.07.16.16.16h4.3c.09,0,.16-.07.16-.16V4.85c0-.09-.07-.16-.16-.16h-4.3ZM11.78,18.65h-3.78c-.05,0-.1-.04-.1-.1V5.11c0-.05.04-.1.1-.1h3.78c.05,0,.1.04.1.1v13.44c0,.05-.04.1-.1.1ZM8.11,18.45h3.58V5.21h-3.58v13.24Z"/>
      </g>
      <g>
        <path class="cls-1" d="M18.93.1h-4.3c-.14,0-.26.12-.26.26v18.45c0,.14.12.26.26.26h4.3c.14,0,.26-.12.26-.26V.36c0-.14-.12-.26-.26-.26ZM18.66,18.55h-3.78V.62h3.78v17.93Z"/>
        <path class="cls-1" d="M18.93,19.17h-4.3c-.2,0-.36-.16-.36-.36V.36c0-.2.16-.36.36-.36h4.3c.2,0,.36.16.36.36v18.45c0,.2-.16.36-.36.36ZM14.62.2c-.09,0-.16.07-.16.16v18.45c0,.09.07.16.16.16h4.3c.09,0,.16-.07.16-.16V.36c0-.09-.07-.16-.16-.16h-4.3ZM18.66,18.65h-3.78c-.05,0-.1-.04-.1-.1V.62c0-.05.04-.1.1-.1h3.78c.05,0,.1.04.1.1v17.93c0,.05-.04.1-.1.1ZM14.98,18.45h3.58V.72h-3.58v17.73Z"/>
      </g>
      <g>
        <path class="cls-1" d="M2.93,7.23c0-.14-.12-.26-.26-.26h-1.55L9.7.61c.12-.09.14-.25.05-.37-.09-.12-.25-.14-.37-.05L.62,6.68v-1.75c0-.14-.12-.26-.26-.26s-.26.12-.26.26v2.29c0,.14.12.26.26.26h2.31c.14,0,.26-.12.26-.26Z"/>
        <path class="cls-1" d="M2.67,7.59H.36c-.2,0-.36-.16-.36-.36v-2.29c0-.2.16-.36.36-.36s.36.16.36.36v1.55L9.33.11c.16-.12.39-.08.5.07.12.16.08.39-.08.5L1.42,6.87h1.25c.2,0,.36.16.36.36s-.16.36-.36.36ZM.36,4.77c-.09,0-.16.07-.16.16v2.29c0,.09.07.16.16.16h2.31c.09,0,.16-.07.16-.16s-.07-.16-.16-.16h-1.55s-.08-.03-.09-.07c-.01-.04,0-.08.04-.11L9.64.54c.07-.05.09-.16.03-.23-.05-.07-.16-.09-.23-.03L.68,6.76s-.07.03-.1,0c-.03-.02-.05-.05-.05-.09v-1.75c0-.09-.07-.16-.16-.16Z"/>
      </g>
    </g>
  </g>
</svg>