<?xml version="1.0" encoding="UTF-8"?>
<svg id="Layer_2" data-name="Layer 2" xmlns="http://www.w3.org/2000/svg" viewBox="0 0 19.03 13.85">
  <defs>
    <style>
      .cls-1 {
        fill: #1f1f1f;
      }
    </style>
  </defs>
  <g id="Object">
    <g>
      <g>
        <path class="cls-1" d="M13.65,8.11c-.84,0-1.59.37-2.1.95,0,0,0,0,0,0,0,0,0,.01-.01.02-.43.5-.69,1.14-.69,1.85,0,1.55,1.26,2.82,2.82,2.82.71,0,1.35-.26,1.84-.69,0,0,.01,0,.02-.01,0,0,0,0,0-.01.58-.52.95-1.27.95-2.1,0-1.55-1.26-2.82-2.82-2.82ZM11.36,10.93c0-.47.14-.91.39-1.28l3.18,3.18c-.37.25-.81.39-1.28.39-1.26,0-2.29-1.03-2.29-2.29ZM15.33,12.49l-3.24-3.24c.41-.38.96-.62,1.56-.62,1.26,0,2.29,1.03,2.29,2.29,0,.6-.24,1.15-.62,1.56Z"/>
        <path class="cls-1" d="M13.65,13.85c-1.61,0-2.92-1.31-2.92-2.92,0-.7.25-1.38.72-1.91,0,0,0-.01.02-.02,0,0,.01,0,.02-.01.55-.62,1.34-.97,2.17-.97,1.61,0,2.92,1.31,2.92,2.92,0,.82-.35,1.61-.97,2.17,0,0-.01.01-.01.02,0,0-.02.02-.03.02-.52.46-1.2.71-1.9.71ZM11.61,9.14s0,0,0,.01c-.43.5-.67,1.13-.67,1.78,0,1.5,1.22,2.72,2.72,2.72.65,0,1.28-.24,1.78-.67,0,0,0,0,.01,0,0,0,0,0,0,0,.59-.53.92-1.27.92-2.04,0-1.5-1.22-2.72-2.72-2.72-.77,0-1.51.33-2.03.92,0,0,0,0-.01.01ZM15.51,13.05h0,0ZM11.55,9.06h0,0ZM13.65,13.32c-1.32,0-2.39-1.07-2.39-2.39,0-.48.14-.94.41-1.33.02-.02.04-.04.07-.04.03,0,.06,0,.08.03l3.18,3.18s.03.05.03.08-.02.06-.04.07c-.4.27-.86.41-1.33.41ZM11.77,9.81c-.2.34-.31.73-.31,1.12,0,1.21.98,2.2,2.2,2.2.4,0,.78-.11,1.12-.31l-3.01-3.01ZM15.33,12.59s-.05-.01-.07-.03l-3.24-3.24s-.03-.04-.03-.07c0-.03.01-.05.03-.07.45-.41,1.02-.64,1.63-.64,1.32,0,2.39,1.07,2.39,2.39,0,.6-.23,1.18-.64,1.63-.02.02-.04.03-.07.03h0ZM12.24,9.26l3.09,3.09c.34-.4.52-.9.52-1.42,0-1.21-.98-2.2-2.2-2.2-.52,0-1.02.18-1.42.52Z"/>
      </g>
      <g>
        <path class="cls-1" d="M14.09,2.52c-.32,0-.64.04-.97.11C12.25,1.06,10.64.1,8.88.1,6.62.1,4.66,1.69,4.14,3.92c-.12-.01-.24-.02-.35-.02C1.76,3.9.1,5.6.1,7.69c0,.97.37,2.71,1.05,3.43.05.05.12.08.19.08h8.7c.14,0,.26-.12.26-.26s-.12-.26-.26-.26H1.46c-.48-.6-.84-2.03-.84-2.99,0-1.8,1.42-3.26,3.17-3.26.16,0,.32.02.51.05.14.02.28-.07.3-.21.39-2.11,2.18-3.64,4.27-3.64,1.63,0,3.11.93,3.87,2.43.06.11.18.17.3.14.35-.09.71-.14,1.04-.14,2.38,0,4.31,1.99,4.31,4.43,0,.97-.28,2.46-.69,3.19h-.53c-.14,0-.26.12-.26.26s.12.26.26.26h.68c.09,0,.17-.04.22-.12.56-.83.86-2.62.86-3.6,0-2.73-2.17-4.96-4.84-4.96Z"/>
        <path class="cls-1" d="M17.85,11.29h-.68c-.2,0-.36-.16-.36-.36s.16-.36.36-.36h.47c.39-.73.65-2.17.65-3.09,0-2.39-1.89-4.34-4.22-4.34-.33,0-.67.05-1.02.13-.17.04-.33-.03-.41-.19-.74-1.46-2.18-2.37-3.78-2.37-2.04,0-3.8,1.5-4.18,3.56-.04.19-.22.32-.41.29-.18-.03-.34-.05-.5-.05-1.69,0-3.07,1.42-3.07,3.16,0,.88.32,2.27.79,2.89h8.53c.2,0,.36.16.36.36s-.16.36-.36.36H1.34c-.1,0-.19-.04-.26-.11-.7-.74-1.08-2.51-1.08-3.5,0-2.14,1.7-3.88,3.79-3.88.09,0,.18,0,.27.01.57-2.25,2.53-3.82,4.81-3.82,1.76,0,3.4.96,4.29,2.52.31-.06.62-.09.92-.09,2.72,0,4.94,2.27,4.94,5.06,0,.99-.3,2.81-.87,3.65-.07.1-.18.16-.3.16ZM17.18,10.77c-.09,0-.16.07-.16.16s.07.16.16.16h.68c.05,0,.11-.03.14-.07.55-.81.84-2.58.84-3.54,0-2.68-2.13-4.86-4.74-4.86-.31,0-.63.03-.95.1-.04,0-.09-.01-.11-.05C12.18,1.15,10.59.2,8.88.2,6.66.2,4.75,1.74,4.24,3.94c-.01.05-.05.08-.11.08-.12-.01-.23-.02-.34-.02C1.81,4,.2,5.65.2,7.69c0,.96.36,2.66,1.03,3.36.03.03.07.05.12.05h8.7c.09,0,.16-.07.16-.16s-.07-.16-.16-.16H1.46s-.06-.01-.08-.04c-.51-.64-.86-2.09-.86-3.05,0-1.85,1.47-3.36,3.27-3.36.16,0,.33.02.53.05.09.02.17-.04.19-.13.4-2.16,2.23-3.72,4.37-3.72,1.67,0,3.19.95,3.95,2.48.03.07.11.1.19.08.36-.09.72-.14,1.07-.14,2.43,0,4.41,2.03,4.41,4.53,0,.96-.27,2.47-.71,3.24-.02.03-.05.05-.09.05h-.53Z"/>
      </g>
    </g>
  </g>
</svg>