<?xml version="1.0" encoding="UTF-8"?>
<svg id="Layer_2" data-name="Layer 2" xmlns="http://www.w3.org/2000/svg" viewBox="0 0 19.26 17.2">
  <defs>
    <style>
      .cls-1 {
        fill: #1f1f1f;
      }
    </style>
  </defs>
  <g id="Object">
    <g>
      <g>
        <path class="cls-1" d="M18.9,17.1H.36c-.14,0-.26-.12-.26-.26s.12-.26.26-.26h18.54c.14,0,.26.12.26.26s-.12.26-.26.26Z"/>
        <path class="cls-1" d="M18.9,17.2H.36c-.2,0-.36-.16-.36-.36s.16-.36.36-.36h18.54c.2,0,.36.16.36.36s-.16.36-.36.36ZM.36,16.67c-.09,0-.16.07-.16.16s.07.16.16.16h18.54c.09,0,.16-.07.16-.16s-.07-.16-.16-.16H.36Z"/>
      </g>
      <g>
        <path class="cls-1" d="M5.21,15.07s-.1-.01-.14-.04c-.07-.05-.11-.12-.12-.2l-.19-3.03c0-.06.01-.11.04-.16L12.2.22c.08-.12.24-.16.36-.08l3.02,1.96c.06.04.1.1.11.17.01.07,0,.14-.04.2l-7.4,11.41s-.08.08-.13.1l-2.84,1.07s-.06.02-.09.02ZM5.29,11.84l.16,2.59,2.42-.91L15.08,2.4l-2.58-1.67-7.21,11.12ZM8.04,13.73h0,0Z"/>
        <path class="cls-1" d="M5.21,15.16c-.07,0-.14-.02-.2-.06-.1-.06-.16-.17-.16-.28l-.19-3.03c0-.08.02-.15.06-.22L12.11.16c.05-.08.13-.14.23-.16.1-.02.19,0,.27.05l3.02,1.96c.08.05.14.13.16.23.02.09,0,.19-.05.27l-7.4,11.41c-.04.06-.1.11-.17.14l-2.84,1.07s-.08.02-.13.02ZM12.42.2s-.02,0-.03,0c-.04,0-.08.03-.1.07l-7.4,11.41s-.03.06-.03.1l.19,3.03c0,.05.03.1.07.13.04.03.1.03.15.02l2.84-1.07s.06-.03.08-.06L15.58,2.41s.03-.08.02-.12c0-.04-.03-.08-.07-.1L12.51.22s-.06-.03-.09-.03ZM5.45,14.53s-.04,0-.05-.02c-.03-.02-.04-.05-.04-.08l-.16-2.59s0-.04.02-.06L12.41.67s.09-.06.14-.03l2.58,1.67s.04.04.04.06c0,.03,0,.05-.01.07l-7.21,11.12s-.03.03-.05.04l-2.42.91s-.02,0-.03,0ZM5.39,11.87l.15,2.42,2.27-.86L14.94,2.43l-2.42-1.57-7.14,11.01ZM8.05,13.83c-.05,0-.1-.04-.1-.1s.04-.1.1-.1h0c.05,0,.1.04.1.1s-.04.1-.1.1Z"/>
      </g>
    </g>
  </g>
</svg>