<?xml version="1.0" encoding="UTF-8"?>
<svg id="Layer_2" data-name="Layer 2" xmlns="http://www.w3.org/2000/svg" viewBox="0 0 19.43 19.2">
  <defs>
    <style>
      .cls-1 {
        fill: #1f1f1f;
      }
    </style>
  </defs>
  <g id="Object">
    <g>
      <g>
        <path class="cls-1" d="M19.33,18.83V.36c0-.14-.12-.26-.26-.26H.36C.22.1.1.22.1.36v18.47c0,.14.12.26.26.26h18.71c.14,0,.26-.12.26-.26ZM18.81,18.57H.62V4.44h18.18v14.13ZM18.81,3.92H.62V.62h18.18v3.3Z"/>
        <path class="cls-1" d="M19.07,19.2H.36c-.2,0-.36-.16-.36-.36V.36c0-.2.16-.36.36-.36h18.71c.2,0,.36.16.36.36v18.47c0,.2-.16.36-.36.36ZM.36.2c-.09,0-.16.07-.16.16v18.47c0,.09.07.16.16.16h18.71c.09,0,.16-.07.16-.16V.36c0-.09-.07-.16-.16-.16H.36ZM18.81,18.67H.62c-.05,0-.1-.04-.1-.1V4.44c0-.05.04-.1.1-.1h18.18c.05,0,.1.04.1.1v14.13c0,.05-.04.1-.1.1ZM.72,18.47h17.99V4.54H.72v13.93ZM18.81,4.02H.62c-.05,0-.1-.04-.1-.1V.62c0-.05.04-.1.1-.1h18.18c.05,0,.1.04.1.1v3.3c0,.05-.04.1-.1.1ZM.72,3.82h17.99V.72H.72v3.1Z"/>
      </g>
      <g>
        <path class="cls-1" d="M2.19,3.16c.48,0,.86-.39.86-.86s-.39-.86-.86-.86-.86.39-.86.86.39.86.86.86ZM2.19,1.96c.19,0,.34.15.34.34s-.15.34-.34.34-.34-.15-.34-.34.15-.34.34-.34Z"/>
        <path class="cls-1" d="M2.19,3.26c-.53,0-.96-.43-.96-.96s.43-.96.96-.96.96.43.96.96-.43.96-.96.96ZM2.19,1.53c-.42,0-.76.34-.76.76s.34.76.76.76.76-.34.76-.76-.34-.76-.76-.76ZM2.19,2.73c-.24,0-.44-.2-.44-.44s.2-.44.44-.44.44.2.44.44-.2.44-.44.44ZM2.19,2.06c-.13,0-.24.11-.24.24s.11.24.24.24.24-.11.24-.24-.11-.24-.24-.24Z"/>
      </g>
      <g>
        <path class="cls-1" d="M4.37,3.16c.48,0,.86-.39.86-.86s-.39-.86-.86-.86-.86.39-.86.86.39.86.86.86ZM4.37,1.96c.19,0,.34.15.34.34s-.15.34-.34.34-.34-.15-.34-.34.15-.34.34-.34Z"/>
        <path class="cls-1" d="M4.37,3.26c-.53,0-.96-.43-.96-.96s.43-.96.96-.96.96.43.96.96-.43.96-.96.96ZM4.37,1.53c-.42,0-.76.34-.76.76s.34.76.76.76.76-.34.76-.76-.34-.76-.76-.76ZM4.37,2.73c-.24,0-.44-.2-.44-.44s.2-.44.44-.44.44.2.44.44-.2.44-.44.44ZM4.37,2.06c-.13,0-.24.11-.24.24s.11.24.24.24.24-.11.24-.24-.11-.24-.24-.24Z"/>
      </g>
      <g>
        <path class="cls-1" d="M6.55,3.16c.48,0,.86-.39.86-.86s-.39-.86-.86-.86-.86.39-.86.86.39.86.86.86ZM6.55,1.96c.19,0,.34.15.34.34s-.15.34-.34.34-.34-.15-.34-.34.15-.34.34-.34Z"/>
        <path class="cls-1" d="M6.55,3.26c-.53,0-.96-.43-.96-.96s.43-.96.96-.96.96.43.96.96-.43.96-.96.96ZM6.55,1.53c-.42,0-.76.34-.76.76s.34.76.76.76.76-.34.76-.76-.34-.76-.76-.76ZM6.55,2.73c-.24,0-.44-.2-.44-.44s.2-.44.44-.44.44.2.44.44-.2.44-.44.44ZM6.55,2.06c-.13,0-.24.11-.24.24s.11.24.24.24.24-.11.24-.24-.11-.24-.24-.24Z"/>
      </g>
      <g>
        <path class="cls-1" d="M5.15,15.72h9.45c.09,0,.18-.05.22-.13.05-.08.05-.17,0-.26l-4.73-9.23c-.09-.18-.38-.18-.47,0l-4.73,9.23c-.04.08-.04.18,0,.26.05.08.13.13.22.13ZM9.87,6.8l4.3,8.4H5.57l4.3-8.4Z"/>
        <path class="cls-1" d="M14.6,15.82H5.15c-.12,0-.24-.07-.31-.17-.06-.11-.07-.24-.01-.35l4.73-9.23c.06-.11.18-.18.32-.18h0c.14,0,.26.07.32.18l4.73,9.23c.06.11.05.25-.01.35-.07.11-.18.17-.31.17ZM9.87,6.07c-.05,0-.12.02-.15.08l-4.73,9.23c-.03.05-.02.11,0,.16.03.05.08.08.14.08h9.45c.06,0,.11-.03.14-.08.03-.05.03-.11,0-.16l-4.73-9.23c-.03-.06-.09-.08-.15-.08ZM14.17,15.29H5.57s-.07-.02-.08-.05c-.02-.03-.02-.07,0-.1l4.3-8.4c.03-.07.14-.07.17,0l4.3,8.4s.01.07,0,.1c-.02.03-.05.05-.08.05ZM5.73,15.1h8.27l-4.14-8.08-4.14,8.08Z"/>
      </g>
      <g>
        <path class="cls-1" d="M9.87,12.95c.14,0,.26-.12.26-.26v-3.74c0-.14-.12-.26-.26-.26s-.26.12-.26.26v3.74c0,.14.12.26.26.26Z"/>
        <path class="cls-1" d="M9.87,13.05c-.2,0-.36-.16-.36-.36v-3.74c0-.2.16-.36.36-.36s.36.16.36.36v3.74c0,.2-.16.36-.36.36ZM9.87,8.79c-.09,0-.16.07-.16.16v3.74c0,.09.07.16.16.16s.16-.07.16-.16v-3.74c0-.09-.07-.16-.16-.16Z"/>
      </g>
      <g>
        <path class="cls-1" d="M9.85,13.18c-.36,0-.66.3-.66.66s.3.66.66.66.66-.3.66-.66-.3-.66-.66-.66ZM9.85,13.97c-.07,0-.13-.06-.13-.13s.06-.13.13-.13.13.06.13.13-.06.13-.13.13Z"/>
        <path class="cls-1" d="M9.85,14.59c-.42,0-.76-.34-.76-.76s.34-.76.76-.76.76.34.76.76-.34.76-.76.76ZM9.85,13.28c-.31,0-.56.25-.56.56s.25.56.56.56.56-.25.56-.56-.25-.56-.56-.56ZM9.85,14.07c-.13,0-.23-.1-.23-.23s.1-.23.23-.23.23.1.23.23-.1.23-.23.23ZM9.85,13.8s-.04.02-.04.04c0,.04.07.04.07,0,0-.02-.02-.04-.04-.04Z"/>
      </g>
    </g>
  </g>
</svg>