<?xml version="1.0" encoding="UTF-8"?>
<svg id="Layer_2" data-name="Layer 2" xmlns="http://www.w3.org/2000/svg" viewBox="0 0 19.43 18.88">
  <defs>
    <style>
      .cls-1 {
        fill: #1f1f1f;
      }
    </style>
  </defs>
  <g id="Object">
    <g>
      <g>
        <path class="cls-1" d="M6.87.18c-.05-.05-.12-.09-.19-.09H.36C.22.1.1.22.1.36v5.08s0,0,0,.01,0,0,0,.01v13.06c0,.14.12.26.26.26h18.71c.14,0,.26-.12.26-.26V3.18c0-.14-.12-.26-.26-.26h-9.72L6.87.18ZM18.81,18.26H.62V5.72h18.17s0,0,.01,0v12.54ZM18.81,5.19s0,0-.01,0H.62V.62h5.94l2.47,2.73c.05.05.12.09.19.09h9.58v1.76Z"/>
        <path class="cls-1" d="M19.07,18.88H.36c-.2,0-.36-.16-.36-.36V5.46s0-.03,0-.04V.36c0-.2.16-.36.36-.36h6.31c.1,0,.2.04.27.12h0s2.44,2.7,2.44,2.7h9.68c.2,0,.36.16.36.36v15.34c0,.2-.16.36-.36.36ZM.2,5.45s0,0,0,0v13.06c0,.09.07.16.16.16h18.71c.09,0,.16-.07.16-.16V3.18c0-.09-.07-.16-.16-.16h-9.72s-.05-.01-.07-.03L6.8.25s-.08-.05-.12-.05H.36c-.09,0-.16.07-.16.16v5.08s0,0,0,0ZM18.81,18.36H.62s-.05-.01-.07-.03c-.02-.02-.03-.04-.03-.07V5.72c0-.05.05-.1.1-.1h18.17s.06,0,.08.03c.02.02.03.04.03.07v12.54c0,.05-.04.1-.1.1ZM.72,18.16h17.99V5.81H.72s0,12.35,0,12.35ZM18.81,5.29s-.02,0-.03,0H.62s-.05,0-.07-.03c-.02-.02-.03-.04-.03-.07V.62c0-.05.04-.1.1-.1h5.93s.05.01.07.03l2.47,2.73s.08.05.12.05h9.58c.05,0,.1.04.1.1v1.76s-.01.05-.03.07c-.02.02-.04.03-.07.03ZM.72,5.09h17.99v-1.56h-9.48c-.1,0-.2-.04-.27-.12L6.52.72H.72v4.37Z"/>
      </g>
      <g>
        <path class="cls-1" d="M8.69,14.29c-.07-.13-.23-.17-.36-.1-.13.07-.17.23-.1.36l.34.61c-.44-.16-.85-.41-1.19-.74-1.33-1.29-1.37-3.41-.08-4.74.49-.51,1.12-.85,1.82-.97.14-.03.24-.16.21-.3s-.16-.24-.3-.21c-.81.14-1.54.53-2.11,1.12-.72.75-1.11,1.73-1.09,2.76.02,1.04.44,2,1.18,2.72.33.31.7.56,1.1.75l-.38.08c-.14.03-.23.17-.21.31.02.12.13.21.26.21.02,0,.03,0,.05,0l1.33-.26c.08-.02.15-.07.19-.15s.03-.16,0-.24l-.66-1.18Z"/>
        <path class="cls-1" d="M7.79,16.22c-.17,0-.32-.12-.35-.29-.04-.19.09-.38.28-.42l.1-.02c-.32-.17-.61-.38-.87-.64-.76-.74-1.2-1.73-1.21-2.79-.02-1.06.38-2.07,1.12-2.83.58-.61,1.33-1,2.16-1.15.2-.04.38.1.42.29.02.09,0,.19-.06.27-.06.08-.14.13-.23.15-.68.12-1.29.45-1.77.94-1.25,1.29-1.21,3.36.08,4.61.26.26.57.46.9.61l-.2-.36c-.05-.08-.06-.18-.03-.27.03-.09.09-.17.17-.22.08-.05.18-.06.27-.03.09.03.17.09.22.17l.66,1.18c.06.1.06.22.01.33-.05.1-.14.18-.26.2l-1.33.26s-.05,0-.07,0ZM9.07,8.27s-.02,0-.03,0c-.79.14-1.5.52-2.05,1.09-.7.73-1.08,1.68-1.06,2.69.02,1.01.43,1.95,1.15,2.65.31.3.67.55,1.08.73.04.02.06.06.06.1,0,.04-.04.08-.08.09l-.38.08c-.09.02-.15.1-.13.19.02.09.12.14.19.13l1.33-.27c.05-.01.09-.04.12-.09.02-.05.02-.1,0-.15l-.66-1.18h0s-.06-.07-.1-.08c-.04-.01-.09,0-.12.01-.04.02-.07.06-.08.1-.01.04,0,.09.01.12l.34.61s.02.08-.01.11c-.03.03-.07.04-.11.03-.46-.17-.87-.42-1.22-.76-1.37-1.32-1.41-3.51-.09-4.88.51-.53,1.16-.87,1.87-1,.04,0,.08-.03.11-.07.02-.04.03-.08.03-.12-.01-.08-.08-.14-.16-.14Z"/>
      </g>
      <g>
        <path class="cls-1" d="M11.32,8.46l.41-.08c.14-.03.23-.17.21-.31s-.17-.23-.31-.21l-1.33.27c-.08.02-.15.07-.19.15-.02.04-.02.09-.02.14,0,.08.03.16.09.21l.59,1.07c.05.09.14.14.23.14.04,0,.09-.01.13-.03.13-.07.17-.23.1-.36l-.32-.59c.42.16.8.4,1.13.72,1.33,1.29,1.37,3.41.08,4.74-.49.51-1.12.85-1.82.97-.14.03-.24.16-.21.3.02.13.13.22.26.22.02,0,.03,0,.05,0,.81-.14,1.54-.53,2.11-1.12,1.49-1.54,1.44-4-.1-5.49-.32-.31-.69-.56-1.09-.74Z"/>
        <path class="cls-1" d="M10.35,15.91c-.17,0-.32-.12-.35-.3-.02-.09,0-.19.06-.27.06-.08.14-.13.23-.15.68-.12,1.29-.45,1.77-.94,1.25-1.29,1.21-3.36-.08-4.61-.25-.24-.53-.44-.84-.58l.19.33c.1.17.03.39-.14.49-.17.09-.4.03-.49-.14l-.59-1.06c-.07-.07-.11-.17-.11-.28,0-.05,0-.12.03-.17.05-.1.14-.18.26-.2l1.33-.27c.19-.04.38.09.42.28.02.09,0,.19-.05.27-.05.08-.13.13-.23.15l-.13.03c.31.17.6.38.85.63,1.58,1.52,1.62,4.05.1,5.62-.58.61-1.33,1-2.16,1.15-.02,0-.04,0-.06,0ZM10.91,8.76s.02,0,.04,0c.44.17.83.42,1.16.74,1.37,1.32,1.41,3.51.09,4.88-.51.53-1.16.87-1.87,1-.04,0-.08.03-.11.07-.03.04-.03.08-.03.12.02.09.1.15.19.13.79-.14,1.5-.52,2.05-1.1,1.45-1.5,1.41-3.9-.09-5.35-.31-.3-.66-.54-1.06-.72-.04-.02-.06-.06-.06-.1,0-.04.04-.08.08-.09l.41-.08s.08-.03.1-.07c.02-.04.03-.08.02-.12-.02-.09-.11-.15-.19-.13l-1.33.27c-.05.01-.09.04-.12.09-.01.02-.01.05-.01.09,0,.07.02.11.06.15,0,0,.02.02.02.03l.59,1.07c.04.08.15.11.22.06.04-.02.07-.06.08-.1.01-.04,0-.09-.01-.12l-.32-.59s-.02-.08.01-.11c.02-.02.05-.03.07-.03Z"/>
      </g>
    </g>
  </g>
</svg>