<?xml version="1.0" encoding="UTF-8"?>
<svg id="Layer_2" data-name="Layer 2" xmlns="http://www.w3.org/2000/svg" viewBox="0 0 9.73 17.6">
  <defs>
    <style>
      .cls-1 {
        fill: #1f1f1f;
      }
    </style>
  </defs>
  <g id="Object">
    <g>
      <g>
        <path class="cls-1" d="M.46,13.54s-.07,0-.1-.02c-.1-.04-.16-.13-.16-.24L.1.36c0-.11.06-.2.16-.24.1-.04.21-.02.29.06l9.01,9.22c.07.08.1.19.05.29-.04.1-.14.16-.24.16h0l-5.11-.06-3.61,3.68c-.05.05-.12.08-.19.08ZM.63,1.01l.09,11.63,3.24-3.3c.05-.05.13-.07.19-.08l4.59.05L.63,1.01Z"/>
        <path class="cls-1" d="M.46,13.64s-.09,0-.14-.03c-.14-.05-.22-.18-.23-.33L0,.36C0,.22.09.08.22.03.36-.03.51,0,.62.11l9.01,9.22c.1.1.13.26.07.39-.06.13-.19.22-.33.22l-5.07-.05-3.58,3.65c-.07.07-.16.11-.26.11ZM.36.2s-.04,0-.06.01c-.06.03-.1.09-.1.15l.1,12.92c0,.07.04.13.1.15.06.02.13,0,.18-.04l3.61-3.68s.05-.02.07-.03l5.11.06c.07,0,.13-.04.15-.1.03-.06.01-.13-.03-.18L.48.25s-.07-.05-.12-.05ZM.72,12.74s-.02,0-.04,0c-.04-.01-.06-.05-.06-.09l-.09-11.63s.02-.08.06-.09c.04-.02.08,0,.11.02l8.11,8.3s.04.07.02.11c-.02.04-.05.06-.09.06h0l-4.59-.05s-.09.02-.12.05l-3.24,3.3s-.04.03-.07.03ZM.73,1.25l.09,11.15,3.08-3.13c.08-.09.2-.1.25-.11l4.36.05L.73,1.25Z"/>
      </g>
      <g>
        <path class="cls-1" d="M7.34,17.5c-.1,0-.2-.06-.24-.16l-3.19-7.72c-.06-.13,0-.29.14-.34.13-.06.29,0,.34.14l3.19,7.72c.06.13,0,.29-.14.34-.03.01-.07.02-.1.02Z"/>
        <path class="cls-1" d="M7.34,17.6c-.15,0-.28-.09-.33-.22l-3.19-7.72c-.04-.09-.04-.19,0-.28.04-.09.11-.16.2-.19.09-.04.19-.04.28,0,.09.04.16.11.19.2l3.19,7.72c.04.09.04.19,0,.28-.04.09-.11.16-.2.2-.04.02-.09.03-.14.03ZM4.15,9.36s-.04,0-.06.01c-.04.02-.07.05-.09.09-.02.04-.02.08,0,.13l3.19,7.72c.03.08.13.12.21.09.04-.02.07-.05.09-.09.02-.04.02-.08,0-.13l-3.19-7.72s-.05-.07-.09-.09c-.02,0-.04-.01-.06-.01Z"/>
      </g>
    </g>
  </g>
</svg>