<?xml version="1.0" encoding="UTF-8"?>
<svg id="Layer_2" data-name="Layer 2" xmlns="http://www.w3.org/2000/svg" viewBox="0 0 19.43 18.88">
  <defs>
    <style>
      .cls-1 {
        fill: #1f1f1f;
      }
    </style>
  </defs>
  <g id="Object">
    <g>
      <g>
        <path class="cls-1" d="M19.33,18.52V3.18c0-.14-.12-.26-.26-.26h-9.72L6.87.18c-.05-.05-.12-.09-.19-.09H.36C.22.1.1.22.1.36v5.08s0,0,0,0c0,0,0,0,0,0v13.06c0,.14.12.26.26.26h18.71c.14,0,.26-.12.26-.26ZM18.81,18.26H.62V5.72h18.17s0,0,.01,0v12.54ZM18.81,5.19s0,0-.01,0H.62V.62h5.94l2.47,2.73c.05.05.12.09.19.09h9.58v1.76Z"/>
        <path class="cls-1" d="M19.07,18.88H.36c-.2,0-.36-.16-.36-.36V5.46s0-.03,0-.04V.36c0-.2.16-.36.36-.36h6.31c.1,0,.2.04.27.12l2.45,2.7h9.68c.2,0,.36.16.36.36v15.34c0,.2-.16.36-.36.36ZM.2,5.45s0,0,0,0v13.06c0,.09.07.16.16.16h18.71c.09,0,.16-.07.16-.16V3.18c0-.09-.07-.16-.16-.16h-9.72s-.05-.01-.07-.03L6.8.25s-.07-.05-.12-.05H.36c-.09,0-.16.07-.16.16v5.08s0,0,0,0ZM18.81,18.36H.62s-.05-.01-.07-.03c-.02-.02-.03-.04-.03-.07V5.72c0-.05.05-.1.1-.1h18.17s.06,0,.08.03c.02.02.03.04.03.07v12.54c0,.05-.04.1-.1.1ZM.72,18.16h17.99V5.81H.72s0,12.35,0,12.35ZM18.81,5.29s-.02,0-.03,0H.62s-.05,0-.07-.03c-.02-.02-.03-.04-.03-.07V.62c0-.05.04-.1.1-.1h5.93s.05.01.07.03l2.47,2.73s.07.05.12.05h9.58c.05,0,.1.04.1.1v1.76s-.01.05-.03.07c-.02.02-.04.03-.07.03ZM.72,5.09h17.99v-1.56h-9.48c-.1,0-.2-.04-.27-.12L6.52.72H.72v4.37Z"/>
      </g>
      <g>
        <path class="cls-1" d="M12.17,11.21h-4.91c-.14,0-.26.12-.26.26s.12.26.26.26h4.91c.14,0,.26-.12.26-.26s-.12-.26-.26-.26Z"/>
        <path class="cls-1" d="M12.17,11.83h-4.91c-.2,0-.36-.16-.36-.36s.16-.36.36-.36h4.91c.2,0,.36.16.36.36s-.16.36-.36.36ZM7.26,11.31c-.09,0-.16.07-.16.16s.07.16.16.16h4.91c.09,0,.16-.07.16-.16s-.07-.16-.16-.16h-4.91Z"/>
      </g>
    </g>
  </g>
</svg>