<?xml version="1.0" encoding="UTF-8"?>
<svg id="Layer_2" data-name="Layer 2" xmlns="http://www.w3.org/2000/svg" viewBox="0 0 20.03 19.34">
  <defs>
    <style>
      .cls-1 {
        fill: #1f1f1f;
      }
    </style>
  </defs>
  <g id="Object">
    <g>
      <g>
        <path class="cls-1" d="M19.67,10.27c-.07,0-.13-.03-.19-.08L10.01.72.55,10.19c-.1.1-.27.1-.37,0-.1-.1-.1-.27,0-.37L9.83.17c.1-.1.27-.1.37,0l9.65,9.65c.1.1.1.27,0,.37-.05.05-.12.08-.19.08Z"/>
        <path class="cls-1" d="M19.67,10.37c-.1,0-.19-.04-.25-.11L10.01.86.62,10.26c-.14.14-.37.14-.51,0-.14-.14-.14-.37,0-.51L9.76.1c.13-.13.38-.13.51,0l9.65,9.65c.07.07.11.16.11.25s-.04.19-.11.25-.16.11-.25.11ZM10.01.62s.05,0,.07.03l9.47,9.47c.06.06.17.06.23,0,.03-.03.05-.07.05-.12s-.02-.08-.05-.12L10.13.24c-.06-.06-.17-.06-.23,0L.24,9.89s-.05.07-.05.12.02.09.05.12c.06.06.17.06.23,0L9.94.65s.04-.03.07-.03Z"/>
      </g>
      <g>
        <path class="cls-1" d="M17.07,19.25h-4.66c-.14,0-.26-.12-.26-.26v-6.68h-4.28v6.68c0,.14-.12.26-.26.26H2.95c-.14,0-.26-.12-.26-.26V7.64c0-.14.12-.26.26-.26s.26.12.26.26v11.08h4.13v-6.68c0-.14.12-.26.26-.26h4.8c.14,0,.26.12.26.26v6.68h4.13V7.64c0-.14.12-.26.26-.26s.26.12.26.26v11.35c0,.14-.12.26-.26.26Z"/>
        <path class="cls-1" d="M17.07,19.34h-4.66c-.2,0-.36-.16-.36-.36v-6.58h-4.08v6.58c0,.2-.16.36-.36.36H2.95c-.2,0-.36-.16-.36-.36V7.64c0-.2.16-.36.36-.36s.36.16.36.36v10.99h3.94v-6.58c0-.2.16-.36.36-.36h4.8c.2,0,.36.16.36.36v6.58h3.94V7.64c0-.2.16-.36.36-.36s.36.16.36.36v11.35c0,.2-.16.36-.36.36ZM7.87,12.2h4.28c.05,0,.1.04.1.1v6.68c0,.09.07.16.16.16h4.66c.09,0,.16-.07.16-.16V7.64c0-.09-.07-.16-.16-.16s-.16.07-.16.16v11.08c0,.05-.04.1-.1.1h-4.13c-.05,0-.1-.04-.1-.1v-6.68c0-.09-.07-.16-.16-.16h-4.8c-.09,0-.16.07-.16.16v6.68c0,.05-.04.1-.1.1H3.22c-.05,0-.1-.04-.1-.1V7.64c0-.09-.07-.16-.16-.16s-.16.07-.16.16v11.35c0,.09.07.16.16.16h4.66c.09,0,.16-.07.16-.16v-6.68c0-.05.04-.1.1-.1Z"/>
      </g>
    </g>
  </g>
</svg>