<?xml version="1.0" encoding="UTF-8"?>
<svg id="Layer_2" data-name="Layer 2" xmlns="http://www.w3.org/2000/svg" viewBox="0 0 18.99 10.37">
  <defs>
    <style>
      .cls-1 {
        fill: #1f1f1f;
      }
    </style>
  </defs>
  <g id="Object">
    <g>
      <path class="cls-1" d="M18.73,5.11L6.81.12c-.1-.04-.21-.02-.29.06-.08.07-.1.19-.06.29l1.85,4.5-7.96-.1c-.15,0-.26.11-.27.26,0,.14.11.26.26.27l7.96.1-1.95,4.41c-.04.1-.02.21.05.29.05.05.12.08.19.08.03,0,.06,0,.09-.02l12.02-4.65c.1-.04.17-.13.17-.24,0-.11-.06-.2-.16-.25ZM7.1,9.53l1.85-4.2h0s.02-.07.02-.1c0-.04,0-.07-.02-.1h0S7.2.85,7.2.85l10.73,4.49-10.82,4.19Z"/>
      <path class="cls-1" d="M6.61,10.37c-.1,0-.19-.04-.26-.11-.1-.11-.13-.26-.07-.39l1.89-4.28-7.81-.1c-.1,0-.19-.04-.25-.11C.04,5.31,0,5.22,0,5.12c0-.1.04-.19.11-.26.07-.07.17-.09.26-.1l7.81.1L6.38.5c-.06-.14-.02-.29.08-.39.1-.1.26-.13.39-.08l11.91,4.99c.14.06.22.19.22.34,0,.15-.09.28-.23.33l-12.02,4.65s-.09.02-.13.02ZM.36,4.96s-.08.02-.11.05c-.03.03-.05.07-.05.12,0,.04.02.08.05.12.03.03.07.05.12.05l7.96.1s.06.02.08.05c.02.03.02.06,0,.09l-1.95,4.41c-.03.06-.01.13.03.18.05.05.12.06.18.04l12.02-4.65c.06-.02.1-.08.1-.15,0-.07-.04-.13-.1-.15h0L6.77.21c-.06-.03-.13-.01-.18.04-.05.05-.06.12-.04.18l1.85,4.5s0,.07,0,.09c-.02.03-.06.05-.08.04l-7.96-.1h0ZM7.1,9.63s-.05-.01-.07-.03c-.03-.03-.03-.07-.02-.11l1.85-4.19s0,0,0,0c0-.02.01-.04.01-.06,0-.02,0-.04-.01-.06L7.1.88s0-.08.02-.11c.03-.03.07-.04.11-.02l10.73,4.49s.06.05.06.09c0,.04-.03.08-.06.09l-10.82,4.19s-.02,0-.04,0ZM9.05,5.37s0,0,0,0l-1.75,3.98,10.37-4.02L7.38,1.03l1.67,4.06s.03.09.03.14c0,.05-.01.09-.03.13Z"/>
    </g>
  </g>
</svg>