<?xml version="1.0" encoding="UTF-8"?>
<svg id="Layer_2" data-name="Layer 2" xmlns="http://www.w3.org/2000/svg" viewBox="0 0 13.48 13.8">
  <defs>
    <style>
      .cls-1 {
        fill: #1f1f1f;
      }
    </style>
  </defs>
  <g id="Object">
    <g>
      <g>
        <path class="cls-1" d="M13.12,13.7s-.07,0-.11-.02L1.22,8.47c-.1-.04-.16-.14-.16-.25,0-.11.07-.2.17-.24l4.76-1.85,1.98-4.76c.04-.1.13-.16.24-.16.11,0,.2.06.24.16l4.9,11.95c.04.1.02.21-.06.29-.05.05-.12.07-.18.07ZM2.01,8.25l10.62,4.69L8.22,2.17l-1.78,4.27c-.03.07-.08.12-.15.14l-4.28,1.66Z"/>
        <path class="cls-1" d="M13.12,13.8c-.05,0-.1-.01-.15-.03L1.18,8.56c-.13-.06-.22-.19-.21-.34,0-.15.09-.27.23-.33l4.72-1.83,1.97-4.72c.06-.14.18-.22.33-.22h0c.15,0,.28.09.33.22l4.9,11.95c.06.14.02.29-.08.39-.07.07-.16.1-.25.1ZM8.22,1.32c-.09,0-.13.05-.15.1l-1.98,4.76s-.03.04-.06.05l-4.76,1.85c-.06.02-.1.08-.1.15,0,.07.04.13.1.15l11.79,5.21c.06.03.13.01.18-.03.05-.05.06-.12.04-.18L8.37,1.42c-.03-.06-.08-.1-.15-.1h0ZM12.63,13.03s-.03,0-.04,0L1.97,8.34s-.06-.05-.06-.09c0-.04.03-.08.06-.09l4.28-1.66s.08-.05.09-.09l1.78-4.27s.05-.06.09-.06h0s.08.02.09.06l4.41,10.76s0,.08-.02.11c-.02.02-.04.03-.07.03ZM2.27,8.25l10.18,4.49L8.22,2.43l-1.69,4.05c-.04.09-.11.16-.2.2l-4.06,1.57Z"/>
      </g>
      <g>
        <path class="cls-1" d="M6.19,6.6c-.07,0-.14-.03-.19-.08L.17.54c-.1-.1-.1-.27,0-.37.1-.1.27-.1.37,0l5.83,5.98c.1.1.1.27,0,.37-.05.05-.12.07-.18.07Z"/>
        <path class="cls-1" d="M6.19,6.7c-.1,0-.19-.04-.26-.11L.1.61C-.04.47-.03.24.11.1c.14-.14.37-.14.51,0l5.83,5.98c.14.14.14.37,0,.51-.07.07-.16.1-.25.1ZM.36.2s-.08.02-.11.05c-.06.06-.07.17,0,.23l5.83,5.98c.06.06.17.06.23,0,.06-.06.07-.17,0-.23L.48.25s-.07-.05-.12-.05Z"/>
      </g>
    </g>
  </g>
</svg>