<?xml version="1.0" encoding="UTF-8"?>
<svg id="Layer_2" data-name="Layer 2" xmlns="http://www.w3.org/2000/svg" viewBox="0 0 15.07 19.5">
  <defs>
    <style>
      .cls-1 {
        fill: #1f1f1f;
      }
    </style>
  </defs>
  <g id="Object">
    <g>
      <g>
        <g>
          <path class="cls-1" d="M2.91,12.91c-.14,0-.26-.12-.26-.26V.36c0-.14.12-.26.26-.26s.26.12.26.26v12.29c0,.14-.12.26-.26.26Z"/>
          <path class="cls-1" d="M2.91,13.01c-.2,0-.36-.16-.36-.36V.36c0-.2.16-.36.36-.36s.36.16.36.36v12.29c0,.2-.16.36-.36.36ZM2.91.2c-.09,0-.16.07-.16.16v12.29c0,.09.07.16.16.16s.16-.07.16-.16V.36c0-.09-.07-.16-.16-.16Z"/>
        </g>
        <g>
          <path class="cls-1" d="M2.91,19.4c-.14,0-.26-.12-.26-.26v-4.59c0-.14.12-.26.26-.26s.26.12.26.26v4.59c0,.14-.12.26-.26.26Z"/>
          <path class="cls-1" d="M2.91,19.5c-.2,0-.36-.16-.36-.36v-4.59c0-.2.16-.36.36-.36s.36.16.36.36v4.59c0,.2-.16.36-.36.36ZM2.91,14.39c-.09,0-.16.07-.16.16v4.59c0,.09.07.16.16.16s.16-.07.16-.16v-4.59c0-.09-.07-.16-.16-.16Z"/>
        </g>
        <g>
          <path class="cls-1" d="M7.65,5.44c-.14,0-.26-.12-.26-.26V.36c0-.14.12-.26.26-.26s.26.12.26.26v4.82c0,.14-.12.26-.26.26Z"/>
          <path class="cls-1" d="M7.65,5.54c-.2,0-.36-.16-.36-.36V.36c0-.2.16-.36.36-.36s.36.16.36.36v4.82c0,.2-.16.36-.36.36ZM7.65.2c-.09,0-.16.07-.16.16v4.82c0,.09.07.16.16.16s.16-.07.16-.16V.36c0-.09-.07-.16-.16-.16Z"/>
        </g>
        <g>
          <path class="cls-1" d="M7.65,19.4c-.14,0-.26-.12-.26-.26V6.5c0-.14.12-.26.26-.26s.26.12.26.26v12.64c0,.14-.12.26-.26.26Z"/>
          <path class="cls-1" d="M7.65,19.5c-.2,0-.36-.16-.36-.36V6.51c0-.2.16-.36.36-.36s.36.16.36.36v12.64c0,.2-.16.36-.36.36ZM7.65,6.34c-.09,0-.16.07-.16.16v12.64c0,.09.07.16.16.16s.16-.07.16-.16V6.51c0-.09-.07-.16-.16-.16Z"/>
        </g>
        <g>
          <path class="cls-1" d="M12.38,13.5c-.14,0-.26-.12-.26-.26V.36c0-.14.12-.26.26-.26s.26.12.26.26v12.88c0,.14-.12.26-.26.26Z"/>
          <path class="cls-1" d="M12.38,13.6c-.2,0-.36-.16-.36-.36V.36c0-.2.16-.36.36-.36s.36.16.36.36v12.88c0,.2-.16.36-.36.36ZM12.38.2c-.09,0-.16.07-.16.16v12.88c0,.09.07.16.16.16s.16-.07.16-.16V.36c0-.09-.07-.16-.16-.16Z"/>
        </g>
        <g>
          <path class="cls-1" d="M12.38,19.4c-.14,0-.26-.12-.26-.26v-4.59c0-.14.12-.26.26-.26s.26.12.26.26v4.59c0,.14-.12.26-.26.26Z"/>
          <path class="cls-1" d="M12.38,19.5c-.2,0-.36-.16-.36-.36v-4.59c0-.2.16-.36.36-.36s.36.16.36.36v4.59c0,.2-.16.36-.36.36ZM12.38,14.39c-.09,0-.16.07-.16.16v4.59c0,.09.07.16.16.16s.16-.07.16-.16v-4.59c0-.09-.07-.16-.16-.16Z"/>
        </g>
      </g>
      <g>
        <path class="cls-1" d="M5.01,14.81H.36c-.14,0-.26-.12-.26-.26s.12-.26.26-.26h4.65c.14,0,.26.12.26.26s-.12.26-.26.26Z"/>
        <path class="cls-1" d="M5.01,14.91H.36c-.2,0-.36-.16-.36-.36s.16-.36.36-.36h4.65c.2,0,.36.16.36.36s-.16.36-.36.36ZM.36,14.39c-.09,0-.16.07-.16.16s.07.16.16.16h4.65c.09,0,.16-.07.16-.16s-.07-.16-.16-.16H.36Z"/>
      </g>
      <g>
        <path class="cls-1" d="M14.71,14.81h-4.65c-.14,0-.26-.12-.26-.26s.12-.26.26-.26h4.65c.14,0,.26.12.26.26s-.12.26-.26.26Z"/>
        <path class="cls-1" d="M14.71,14.91h-4.65c-.2,0-.36-.16-.36-.36s.16-.36.36-.36h4.65c.2,0,.36.16.36.36s-.16.36-.36.36ZM10.06,14.39c-.09,0-.16.07-.16.16s.07.16.16.16h4.65c.09,0,.16-.07.16-.16s-.07-.16-.16-.16h-4.65Z"/>
      </g>
      <g>
        <path class="cls-1" d="M9.73,5.44h-4.72c-.14,0-.26-.12-.26-.26s.12-.26.26-.26h4.72c.14,0,.26.12.26.26s-.12.26-.26.26Z"/>
        <path class="cls-1" d="M9.73,5.54h-4.72c-.2,0-.36-.16-.36-.36s.16-.36.36-.36h4.72c.2,0,.36.16.36.36s-.16.36-.36.36ZM5.01,5.02c-.09,0-.16.07-.16.16s.07.16.16.16h4.72c.09,0,.16-.07.16-.16s-.07-.16-.16-.16h-4.72Z"/>
      </g>
    </g>
  </g>
</svg>