<?xml version="1.0" encoding="UTF-8"?>
<svg id="Layer_2" data-name="Layer 2" xmlns="http://www.w3.org/2000/svg" viewBox="0 0 15.18 18.45">
  <defs>
    <style>
      .cls-1 {
        fill: #1f1f1f;
      }
    </style>
  </defs>
  <g id="Object">
    <g>
      <path class="cls-1" d="M14.56,7.32v5.89s-.02.06-.04.08l-6.88,4.57s-.07.02-.1,0L.66,13.28s-.04-.05-.04-.08V2.08s.02-.07.06-.08l.33-.13c4.23-1.65,8.93-1.65,13.16,0h0c.06.02.08.11.03.15l-5.89,5.28s-.09.03-.12,0l-3.14-2.96c-.1-.09-.26-.09-.35,0-.1.1-.1.27,0,.37l3.1,2.92s.04.1,0,.13l-3.32,2.99c-.12.11-.12.29,0,.4.1.1.26.1.37,0l3.36-3.03s.09-.03.12,0l3.22,3.05c.1.09.26.09.35,0,.1-.1.1-.27,0-.37l-3.18-3.01s-.04-.1,0-.13l6.06-5.44c.06-.06.09-.14.09-.22l.04.02h0c0-.26-.16-.5-.4-.59l-.15-.06c-4.35-1.7-9.19-1.7-13.54,0l-.26.1c-.28.11-.46.37-.46.67v10.87c0,.32.16.62.42.79l6.62,4.4c.27.18.62.18.89,0l6.67-4.43c.23-.16.37-.42.37-.7v-5.77c0-.14-.12-.26-.26-.26h0c-.14,0-.26.12-.26.26Z"/>
      <path class="cls-1" d="M7.59,18.45c-.17,0-.35-.05-.5-.15L.47,13.9c-.29-.19-.47-.52-.47-.87V2.15c0-.34.2-.64.52-.76l.26-.1c4.39-1.72,9.22-1.72,13.61,0l.15.06c.28.11.47.38.47.68,0,.03-.02.06-.04.08,0,0,0,0-.01,0-.02.07-.06.13-.11.18l-6.06,5.44,3.18,3c.07.07.11.16.11.25,0,.1-.04.19-.11.26-.14.13-.35.13-.49,0l-3.22-3.05-3.35,3.03c-.14.13-.37.13-.5,0-.07-.07-.12-.17-.11-.27,0-.1.05-.2.12-.27l3.32-2.99-3.1-2.91c-.07-.07-.11-.16-.11-.26,0-.1.04-.19.11-.26.14-.13.35-.13.49,0l3.14,2.96L14.13,1.95c-4.22-1.64-8.87-1.64-13.09.01l-.33.13v11.11s6.88,4.56,6.88,4.56l6.87-4.57v-5.88c0-.2.16-.36.36-.36s.36.16.36.36v5.77c0,.31-.16.61-.42.78l-6.67,4.43c-.15.1-.32.15-.5.15ZM7.59.2C5.31.2,3.03.62.86,1.47l-.26.1c-.24.09-.39.32-.39.58v10.87c0,.29.14.55.38.71l6.62,4.4c.24.16.54.16.78,0l6.67-4.43c.21-.14.33-.37.33-.62v-5.77c0-.09-.07-.16-.16-.16s-.16.07-.16.16v5.89c0,.06-.03.12-.09.16l-6.88,4.57c-.06.04-.15.04-.21,0L.61,13.36c-.05-.04-.08-.09-.08-.16V2.08c0-.08.05-.15.12-.18l.33-.13c4.27-1.67,8.96-1.67,13.23,0,.06.02.11.08.12.14.01.07-.01.13-.06.18l-5.89,5.28c-.07.06-.19.06-.26,0l-3.14-2.96c-.06-.06-.16-.06-.22,0-.03.03-.05.07-.05.11,0,.04.02.08.05.11l3.1,2.92s.06.09.06.14c0,.05-.02.1-.06.14l-3.32,2.99s-.06.08-.06.13c0,.05.02.09.05.13.07.06.17.06.24,0l3.36-3.03c.07-.07.19-.06.26,0l3.22,3.05c.06.06.16.06.22,0,.03-.03.05-.07.05-.11,0-.04-.02-.08-.05-.11l-3.18-3.01s-.06-.09-.06-.14c0-.05.02-.1.06-.14l6.06-5.44c.05-.05.06-.11.05-.14,0-.03.01-.06.04-.08-.03-.18-.16-.34-.33-.4l-.15-.06C12.15.62,9.87.2,7.59.2Z"/>
    </g>
  </g>
</svg>