<?xml version="1.0" encoding="UTF-8"?>
<svg id="Layer_2" data-name="Layer 2" xmlns="http://www.w3.org/2000/svg" viewBox="0 0 15.83 18.99">
  <defs>
    <style>
      .cls-1 {
        fill: #1f1f1f;
      }
    </style>
  </defs>
  <g id="Object">
    <g>
      <path class="cls-1" d="M7.91.1C4.49.1,1.71,3.03,1.71,6.64v2.42c-.95.46-1.61,1.43-1.61,2.55,0,1.5,1.16,2.72,2.63,2.82.15.47.59.82,1.11.82.65,0,1.17-.53,1.17-1.17v-5.01c0-.65-.53-1.17-1.17-1.17-.55,0-1.01.38-1.13.89-.16.01-.32.04-.47.08v-2.23C2.24,3.32,4.78.62,7.91.62s5.68,2.7,5.68,6.02v2.23c-.15-.04-.31-.07-.47-.08-.13-.51-.58-.89-1.13-.89-.65,0-1.17.53-1.17,1.17v5.01c0,.65.53,1.17,1.17,1.17.52,0,.96-.34,1.11-.82.49-.03.95-.19,1.34-.45v2.37c0,.51-.2,1.01-.56,1.36-.41.4-1.24.75-1.97.61-.58-.12-1.02-.52-1.33-1.19.19-.17.32-.41.32-.69,0-.51-.41-.92-.92-.92s-.92.41-.92.92.41.92.92.92c.04,0,.08,0,.12-.01.47,1.04,1.18,1.38,1.7,1.49.15.03.3.04.45.04.78,0,1.55-.36,1.99-.79.45-.45.72-1.08.72-1.73v-2.73s0-.04-.01-.06c.49-.51.79-1.2.79-1.95,0-1.13-.66-2.1-1.61-2.55v-2.42C14.12,3.03,11.33.1,7.91.1ZM3.2,9.08c0-.36.29-.65.65-.65s.65.29.65.65v5.01c0,.36-.29.65-.65.65s-.65-.29-.65-.65v-5.01ZM2.67,9.33v4.59c-1.15-.13-2.05-1.11-2.05-2.29s.9-2.16,2.05-2.29ZM12.63,14.09c0,.36-.29.65-.65.65s-.65-.29-.65-.65v-5.01c0-.36.29-.65.65-.65s.65.29.65.65v5.01ZM9.98,16.85c-.22,0-.39-.18-.39-.39s.18-.39.39-.39.39.18.39.39-.18.39-.39.39ZM15.21,11.62c0,1.19-.9,2.16-2.05,2.29v-4.59c1.15.13,2.05,1.11,2.05,2.29Z"/>
      <path class="cls-1" d="M12.25,18.99c-.16,0-.32-.02-.47-.05-.53-.11-1.26-.45-1.74-1.48-.02,0-.04,0-.06,0-.56,0-1.02-.46-1.02-1.02s.46-1.02,1.02-1.02,1.02.46,1.02,1.02c0,.26-.11.52-.3.71.29.61.7.97,1.23,1.07.7.14,1.49-.2,1.88-.58.34-.33.53-.8.53-1.29v-2.19c-.36.2-.76.33-1.17.36-.19.49-.65.82-1.18.82-.7,0-1.27-.57-1.27-1.27v-5.01c0-.7.57-1.27,1.27-1.27.56,0,1.05.36,1.21.9.1.01.2.03.3.05v-2.11c0-3.27-2.5-5.92-5.58-5.92S2.33,3.38,2.33,6.64v2.11c.1-.02.2-.04.3-.05.16-.53.65-.9,1.21-.9.7,0,1.27.57,1.27,1.27v5.01c0,.7-.57,1.27-1.27,1.27-.53,0-.99-.33-1.18-.82-1.5-.14-2.66-1.41-2.66-2.92,0-1.1.63-2.12,1.61-2.62v-2.36C1.61,2.98,4.44,0,7.91,0s6.3,2.98,6.3,6.64v2.36c.98.5,1.61,1.52,1.61,2.62,0,.74-.28,1.44-.78,1.98,0,.01,0,.02,0,.03v2.73c0,.68-.27,1.33-.75,1.8-.41.41-1.21.82-2.05.82ZM10.08,17.26s.09.02.11.06c.45,1,1.14,1.33,1.63,1.43.14.03.29.04.43.04.79,0,1.53-.38,1.92-.76.44-.43.69-1.04.69-1.66v-2.73s0-.04,0-.04c0-.03,0-.07.02-.09.49-.51.76-1.18.76-1.89,0-1.04-.61-2.01-1.56-2.47-.03-.02-.06-.05-.06-.09v-2.42C14.02,3.09,11.28.2,7.91.2S1.81,3.09,1.81,6.64v2.42s-.02.07-.06.09c-.95.45-1.56,1.42-1.56,2.47,0,1.43,1.12,2.63,2.54,2.73.04,0,.07.03.09.07.14.45.55.75,1.02.75.59,0,1.07-.48,1.07-1.07v-5.01c0-.59-.48-1.07-1.07-1.07-.49,0-.92.34-1.04.82-.01.04-.05.07-.09.07-.15.01-.3.04-.46.08-.03,0-.06,0-.08-.02-.02-.02-.04-.05-.04-.08v-2.23C2.14,3.27,4.73.52,7.91.52s5.78,2.74,5.78,6.12v2.23s-.01.06-.04.08c-.02.02-.06.02-.08.02-.15-.04-.31-.06-.46-.08-.04,0-.08-.03-.09-.07-.12-.48-.55-.82-1.04-.82-.59,0-1.07.48-1.07,1.07v5.01c0,.59.48,1.07,1.07,1.07.46,0,.87-.3,1.02-.75.01-.04.05-.07.09-.07.46-.03.9-.18,1.29-.43.03-.02.07-.02.1,0,.03.02.05.05.05.09v2.37c0,.54-.21,1.06-.59,1.43-.43.42-1.29.78-2.06.63-.61-.12-1.08-.54-1.4-1.25-.02-.04,0-.09.02-.11.18-.16.28-.38.28-.61,0-.45-.37-.82-.82-.82s-.82.37-.82.82.37.82.82.82c.03,0,.06,0,.09,0,0,0,.01,0,.02,0ZM1.71,9.07h0,0ZM9.98,16.95c-.27,0-.49-.22-.49-.49s.22-.49.49-.49.49.22.49.49-.22.49-.49.49ZM9.98,16.16c-.16,0-.29.13-.29.29s.13.29.29.29.29-.13.29-.29-.13-.29-.29-.29ZM11.99,14.84c-.41,0-.75-.33-.75-.75v-5.01c0-.41.33-.75.75-.75s.75.33.75.75v5.01c0,.41-.33.75-.75.75ZM11.99,8.53c-.3,0-.55.25-.55.55v5.01c0,.3.25.55.55.55s.55-.25.55-.55v-5.01c0-.3-.25-.55-.55-.55ZM3.84,14.84c-.41,0-.75-.33-.75-.75v-5.01c0-.41.33-.75.75-.75s.75.33.75.75v5.01c0,.41-.33.75-.75.75ZM3.84,8.53c-.3,0-.55.25-.55.55v5.01c0,.3.25.55.55.55s.55-.25.55-.55v-5.01c0-.3-.25-.55-.55-.55ZM13.16,14.01s-.05,0-.07-.03c-.02-.02-.03-.05-.03-.07v-4.59s.01-.05.03-.07c.02-.02.05-.03.08-.02,1.22.14,2.14,1.17,2.14,2.39s-.92,2.25-2.14,2.39c0,0,0,0-.01,0ZM13.25,9.44v4.36c1.06-.17,1.85-1.09,1.85-2.18s-.79-2.01-1.85-2.18ZM2.67,14.01s0,0-.01,0c-1.22-.14-2.14-1.17-2.14-2.39s.92-2.25,2.14-2.39c.03,0,.06,0,.08.02.02.02.03.05.03.07v4.59s-.01.05-.03.07c-.02.02-.04.03-.07.03ZM2.57,9.44c-1.06.17-1.85,1.09-1.85,2.18s.79,2.01,1.85,2.18v-4.36Z"/>
    </g>
  </g>
</svg>