<?xml version="1.0" encoding="UTF-8"?>
<svg id="Layer_2" data-name="Layer 2" xmlns="http://www.w3.org/2000/svg" viewBox="0 0 19.59 19.59">
  <defs>
    <style>
      .cls-1 {
        fill: #1f1f1f;
      }
    </style>
  </defs>
  <g id="Object">
    <g>
      <path class="cls-1" d="M.1.36v18.87c0,.14.12.26.26.26h18.87c.14,0,.26-.12.26-.26V.36c0-.14-.12-.26-.26-.26H.36C.22.1.1.22.1.36ZM18.97.62v18.35h-5.85s0,0,0,0V.77c0-.06-.02-.11-.05-.15h5.91ZM12.64.62s-.05.09-.05.15v18.19s0,0,0,0h-5.94V.63s0,0,0,0h6ZM.62.62h5.5s0,0,0,0v18.34H.62V.62Z"/>
      <path class="cls-1" d="M19.23,19.59H.36c-.2,0-.36-.16-.36-.36V.36c0-.2.16-.36.36-.36h18.87c.2,0,.36.16.36.36v18.87c0,.2-.16.36-.36.36ZM.36.2c-.09,0-.16.07-.16.16v18.87c0,.09.07.16.16.16h18.87c.09,0,.16-.07.16-.16V.36c0-.09-.07-.16-.16-.16H.36ZM18.97,19.07h-5.85s-.05-.01-.07-.03c-.02-.02-.03-.05-.03-.08,0,0,0,0,0,0V.77s-.01-.06-.04-.09c-.02-.03-.03-.07,0-.1.02-.03.05-.05.09-.05h5.91c.05,0,.1.04.1.1v18.35c0,.05-.04.1-.1.1ZM13.21,18.87h5.66V.72h-5.66s0,.04,0,.05v18.1ZM12.59,19.07h-5.94c-.05,0-.1-.04-.1-.1V.64s0-.01,0-.02c0-.05.04-.1.1-.1h6s.07.02.09.05c.02.03.01.07,0,.1-.02.03-.04.06-.04.09v18.18s0,.01,0,.02c0,.05-.04.1-.1.1ZM6.75,18.87h5.74V.77s0-.04,0-.05h-5.75v18.15ZM6.13,19.07H.62c-.05,0-.1-.04-.1-.1V.62c0-.05.04-.1.1-.1h5.5c.05,0,.1.04.1.1,0,0,0,.02,0,.03v18.32c0,.05-.04.1-.1.1ZM.72,18.87h5.31V.72H.72v18.15Z"/>
    </g>
  </g>
</svg>