<?xml version="1.0" encoding="UTF-8"?>
<svg id="Layer_2" data-name="Layer 2" xmlns="http://www.w3.org/2000/svg" viewBox="0 0 13.79 18.85">
  <defs>
    <style>
      .cls-1 {
        fill: #1f1f1f;
      }
    </style>
  </defs>
  <g id="Object">
    <g>
      <g>
        <path class="cls-1" d="M1.87,14.78c-.14,0-.26.12-.26.26v3.44c0,.14.12.26.26.26h10.31c.14,0,.26-.12.26-.26V4.91c0-.14-.12-.26-.26-.26h0c-.14,0-.26.12-.26.26v10.16H2.13c.01-.06-.08-.29-.26-.28ZM2.13,18.22v-2.63h9.78v2.63H2.13Z"/>
        <path class="cls-1" d="M12.18,18.85H1.87c-.2,0-.36-.16-.36-.36v-3.44c0-.2.16-.36.36-.36h0c.11,0,.2.05.27.14.03.04.06.1.08.15h9.6V4.91c0-.2.16-.36.36-.36s.36.16.36.36v13.57c0,.2-.16.36-.36.36ZM1.87,14.88c-.09,0-.17.07-.17.16v3.44c0,.09.07.16.16.16h10.31c.09,0,.16-.07.16-.16V4.91c0-.09-.07-.16-.16-.16s-.16.07-.16.16v10.16c0,.05-.04.1-.1.1H2.13s-.06-.01-.08-.04c-.02-.02-.03-.05-.02-.08,0,0-.02-.08-.07-.12-.03-.03-.06-.04-.09-.04h0ZM1.87,14.78h0,0ZM11.92,18.32H2.13c-.05,0-.1-.04-.1-.1v-2.63c0-.05.04-.1.1-.1h9.78c.05,0,.1.04.1.1v2.63c0,.05-.04.1-.1.1ZM2.23,18.13h9.59v-2.43H2.23v2.43Z"/>
      </g>
      <g>
        <path class="cls-1" d="M2.13.62h9.78v1.52c0,.14.12.26.26.26h0c.14,0,.26-.12.26-.26V.36c0-.14-.12-.26-.26-.26H1.87c-.14,0-.26.12-.26.26v12.41c0,.14.12.26.26.26h0c.14,0,.26-.12.26-.26V.62Z"/>
        <path class="cls-1" d="M1.87,13.14c-.2,0-.36-.16-.36-.36V.36c0-.2.16-.36.36-.36h10.31c.2,0,.36.16.36.36v1.78c0,.2-.16.36-.36.36s-.36-.16-.36-.36V.72H2.23v12.05c0,.2-.16.36-.36.36ZM1.87.2c-.09,0-.16.07-.16.16v12.41c0,.09.07.16.16.16s.16-.07.16-.16V.62c0-.05.04-.1.1-.1h9.78c.05,0,.1.04.1.1v1.52c0,.09.07.16.16.16s.16-.07.16-.16V.36c0-.09-.07-.16-.16-.16H1.87Z"/>
      </g>
      <g>
        <rect class="cls-1" x="5.96" y="16.64" width="2.14" height=".52"/>
        <path class="cls-1" d="M8.1,17.26h-2.14c-.05,0-.1-.04-.1-.1v-.52c0-.05.04-.1.1-.1h2.14c.05,0,.1.04.1.1v.52c0,.05-.04.1-.1.1ZM6.05,17.07h1.94v-.33h-1.94v.33Z"/>
      </g>
      <g>
        <path class="cls-1" d="M13.25,2.04L.17,15.35c-.1.1-.1.27,0,.37H.18c.1.1.27.1.37,0L13.62,2.41c.1-.1.1-.27,0-.37h0c-.1-.1-.27-.1-.37,0Z"/>
        <path class="cls-1" d="M.36,15.9c-.1,0-.18-.04-.25-.1-.14-.14-.14-.37,0-.51L13.18,1.97h0c.07-.07.16-.11.25-.11h0c.1,0,.18.04.25.1.07.07.11.16.11.25,0,.1-.04.19-.1.26L.62,15.79c-.07.07-.16.11-.25.11h0ZM13.32,2.11L.24,15.42c-.06.06-.06.17,0,.23.06.06.17.06.23,0L13.55,2.34s.05-.07.05-.12c0-.04-.02-.08-.05-.12-.03-.03-.07-.05-.11-.05h0s-.08.02-.12.05h0Z"/>
      </g>
    </g>
  </g>
</svg>