<?xml version="1.0" encoding="UTF-8"?>
<svg id="Layer_2" data-name="Layer 2" xmlns="http://www.w3.org/2000/svg" viewBox="0 0 13.8 13.48">
  <defs>
    <style>
      .cls-1 {
        fill: #1f1f1f;
      }
    </style>
  </defs>
  <g id="Object">
    <g>
      <path class="cls-1" d="M13.62.18c-.1-.1-.27-.11-.37,0l-5.7,5.56-1.75-4.5c-.04-.1-.13-.16-.24-.17-.1,0-.2.06-.25.16L.12,13.01c-.04.1-.02.21.05.29.05.05.12.08.19.08.03,0,.07,0,.1-.02l11.95-4.9c.1-.04.16-.14.16-.24,0-.11-.06-.2-.16-.24l-4.49-1.87L13.62.55c.1-.1.11-.27,0-.37ZM.86,12.63L5.55,2.01l1.66,4.28h0s.03.06.06.09c0,0,0,0,0,0h0s0,0,0,0c.02.02.05.04.08.06h0s0,0,0,0l4.27,1.78L.86,12.63Z"/>
      <path class="cls-1" d="M.36,13.48c-.1,0-.19-.04-.26-.11-.1-.11-.13-.26-.07-.4L5.24,1.18c.06-.14.2-.22.34-.21.14,0,.27.09.33.23l1.69,4.36L13.18.1c.07-.07.16-.1.25-.1h0c.1,0,.19.04.25.11.14.14.14.37,0,.51l-5.59,5.45,4.36,1.82c.13.06.22.19.22.33,0,.15-.09.28-.22.33L.5,13.45s-.09.03-.14.03ZM5.56,1.16c-.06,0-.12.04-.15.1L.21,13.05c-.03.06-.01.13.03.18.05.05.12.06.18.04l11.95-4.9c.06-.03.1-.08.1-.15,0-.07-.04-.13-.1-.15l-4.49-1.87s-.05-.04-.06-.07c0-.03,0-.07.03-.09L13.55.48c.06-.06.07-.17,0-.23-.03-.03-.07-.05-.12-.05h0s-.08.02-.11.05l-5.7,5.56s-.06.03-.09.03c-.03,0-.06-.03-.07-.06l-1.75-4.5c-.02-.06-.08-.1-.15-.1,0,0,0,0,0,0ZM.86,12.73s-.05-.01-.07-.03c-.03-.03-.04-.07-.02-.11L5.46,1.97s.05-.06.09-.06c.04,0,.08.03.09.06l1.66,4.28s.02.04.03.05c0,0,0,0,0,0,.02.02.03.03.05.04l4.27,1.78s.06.05.06.09-.02.08-.06.09L.9,12.72s-.02,0-.04,0ZM5.55,2.27L1.05,12.44l10.32-4.23-4.05-1.69s-.08-.04-.11-.07c0,0,0,0,0,0,0,0,0,0,0,0-.03-.03-.05-.07-.07-.11l-1.57-4.06ZM7.27,6.38h0,0Z"/>
    </g>
  </g>
</svg>