<?xml version="1.0" encoding="UTF-8"?>
<svg id="Layer_2" data-name="Layer 2" xmlns="http://www.w3.org/2000/svg" viewBox="0 0 17.26 16.99">
  <defs>
    <style>
      .cls-1 {
        fill: #1f1f1f;
      }
    </style>
  </defs>
  <g id="Object">
    <g>
      <path class="cls-1" d="M17.08,7.07l-4.59-4.59,1.94-1.94c.1-.1.1-.27,0-.37-.1-.1-.27-.1-.37,0l-2.11,2.1s-.02,0-.02.02l-4.8,4.8-1.05,1.05h0s-1.21,1.21-1.21,1.21h0l-1.14,1.13h0s0,0,0,0L.18,14.04c-.1.1-.1.27,0,.37.05.05.12.08.19.08s.13-.03.19-.08l2.2-2.2,4.6,4.6s.12.08.19.08.14-.03.19-.08l9.37-9.37s.08-.12.08-.19-.03-.14-.08-.19ZM7.53,16.26l-4.41-4.41.79-.79,1.11,1.11c.05.05.12.08.19.08s.13-.03.19-.08c.1-.1.1-.27,0-.37l-1.11-1.11.77-.77,2.24,2.24c.05.05.12.08.19.08s.13-.03.19-.08c.1-.1.1-.27,0-.37l-2.24-2.24.84-.84,1.03,1.03c.05.05.12.08.19.08s.13-.03.19-.08c.1-.1.1-.27,0-.37l-1.03-1.03.8-.8,2.2,2.2c.05.05.12.08.19.08s.13-.03.19-.08c.1-.1.1-.27,0-.37l-2.2-2.2.76-.76,1.07,1.07c.05.05.12.08.19.08s.13-.03.19-.08c.1-.1.1-.27,0-.37l-1.07-1.07.86-.86,2.3,2.3c.05.05.12.08.19.08s.13-.03.19-.08c.1-.1.1-.27,0-.37l-2.3-2.3.87-.87,1.06,1.06c.05.05.12.08.19.08s.13-.03.19-.08c.1-.1.1-.27,0-.37l-1.06-1.06.71-.71,4.4,4.41-9,9Z"/>
      <path class="cls-1" d="M7.53,16.99c-.09,0-.19-.04-.25-.11l-4.53-4.53-2.13,2.13c-.14.14-.37.14-.51,0C.04,14.41,0,14.32,0,14.23,0,14.13.04,14.04.11,13.97L11.86,2.22s.03-.02.04-.03L14,.11c.14-.14.37-.14.51,0,.14.14.14.37,0,.51l-1.87,1.87,4.52,4.52c.07.07.11.16.11.25s-.04.19-.11.25l-9.37,9.37c-.07.07-.16.11-.25.11ZM2.75,12.12s.05,0,.07.03l4.6,4.6c.06.06.17.06.23,0l9.37-9.37s.05-.07.05-.12-.02-.08-.05-.12l-4.59-4.59s-.03-.04-.03-.07.01-.05.03-.07l1.94-1.94c.06-.06.06-.17,0-.23-.06-.06-.17-.06-.23,0l-2.11,2.1s-.02.02-.03.02L3.8,10.57h0s0,0,0,0L.24,14.11s-.05.07-.05.12c0,.04.02.09.05.12.06.06.17.06.23,0l2.2-2.2s.04-.03.07-.03ZM7.53,16.35s-.05-.01-.07-.03l-4.41-4.41s-.04-.1,0-.14l.79-.79s.1-.04.14,0l1.11,1.11c.06.06.17.06.23,0,.06-.06.06-.17,0-.23l-1.11-1.11s-.04-.1,0-.14l.76-.77s.1-.04.14,0l2.24,2.24c.06.06.17.06.23,0,.06-.06.06-.17,0-.23l-2.24-2.24s-.04-.1,0-.14l.84-.84s.1-.04.14,0l1.03,1.03c.06.06.17.06.23,0,.06-.06.06-.17,0-.23l-1.03-1.03s-.04-.1,0-.14l.8-.8s.1-.04.14,0l2.2,2.2c.06.06.17.06.23,0,.06-.06.06-.17,0-.23l-2.2-2.2s-.03-.04-.03-.07.01-.05.03-.07l.76-.76s.1-.04.14,0l1.07,1.07c.06.06.17.06.23,0,.03-.03.05-.07.05-.12s-.02-.08-.05-.12l-1.07-1.07s-.03-.04-.03-.07.01-.05.03-.07l.86-.86s.1-.04.14,0l2.3,2.3c.06.06.17.06.23,0,.06-.06.06-.17,0-.23l-2.3-2.3s-.03-.04-.03-.07.01-.05.03-.07l.87-.87s.1-.04.14,0l1.06,1.06c.06.06.17.06.23,0,.06-.06.06-.17,0-.23l-1.06-1.06s-.03-.04-.03-.07.01-.05.03-.07l.71-.71s.1-.04.14,0l4.4,4.4s.04.1,0,.14l-9,9s-.04.03-.07.03ZM3.26,11.85l4.27,4.27,8.86-8.86-4.27-4.27-.57.57.99.99c.14.14.14.37,0,.51-.14.14-.37.14-.51,0l-.99-.99-.73.73,2.23,2.23c.14.14.14.37,0,.51-.14.14-.37.14-.51,0l-2.23-2.23-.72.72,1,1c.07.07.11.16.11.25s-.04.19-.11.26c-.14.14-.37.14-.51,0l-1-1-.62.62,2.13,2.13c.14.14.14.37,0,.51-.14.14-.37.14-.51,0l-2.13-2.14-.66.66.96.96c.14.14.14.37,0,.51-.14.14-.37.14-.51,0l-.96-.96-.7.7,2.18,2.18c.07.07.11.16.11.25s-.04.19-.11.25c-.14.14-.37.14-.51,0l-2.18-2.18-.63.63,1.04,1.04c.14.14.14.37,0,.51-.14.14-.37.14-.51,0l-1.04-1.04-.65.65Z"/>
    </g>
  </g>
</svg>