<?xml version="1.0" encoding="UTF-8"?>
<svg id="Layer_2" data-name="Layer 2" xmlns="http://www.w3.org/2000/svg" viewBox="0 0 19.08 19.31">
  <defs>
    <style>
      .cls-1 {
        fill: #1f1f1f;
      }
    </style>
  </defs>
  <g id="Object">
    <g>
      <g>
        <path class="cls-1" d="M18.72,19.21H.36c-.14,0-.26-.12-.26-.26v-9.22c0-.14.12-.26.26-.26s.26.12.26.26v8.95h17.84v-8.95c0-.14.12-.26.26-.26s.26.12.26.26v9.22c0,.14-.12.26-.26.26Z"/>
        <path class="cls-1" d="M18.72,19.31H.36c-.2,0-.36-.16-.36-.36v-9.22c0-.2.16-.36.36-.36s.36.16.36.36v8.86h17.64v-8.86c0-.2.16-.36.36-.36s.36.16.36.36v9.22c0,.2-.16.36-.36.36ZM.36,9.57c-.09,0-.16.07-.16.16v9.22c0,.09.07.16.16.16h18.36c.09,0,.16-.07.16-.16v-9.22c0-.09-.07-.16-.16-.16s-.16.07-.16.16v8.95c0,.05-.04.1-.1.1H.62c-.05,0-.1-.04-.1-.1v-8.95c0-.09-.07-.16-.16-.16Z"/>
      </g>
      <g>
        <g>
          <path class="cls-1" d="M9.54,15.16c-.14,0-.26-.12-.26-.26V.74c0-.14.12-.26.26-.26s.26.12.26.26v14.15c0,.14-.12.26-.26.26Z"/>
          <path class="cls-1" d="M9.54,15.26c-.2,0-.36-.16-.36-.36V.74c0-.2.16-.36.36-.36s.36.16.36.36v14.15c0,.2-.16.36-.36.36ZM9.54.58c-.09,0-.16.07-.16.16v14.15c0,.09.07.16.16.16s.16-.07.16-.16V.74c0-.09-.07-.16-.16-.16Z"/>
        </g>
        <g>
          <path class="cls-1" d="M11.48,3.33c-.08,0-.16-.04-.21-.11l-1.73-2.43-1.73,2.43c-.08.12-.25.15-.37.06-.12-.08-.15-.25-.06-.37L9.33.19c.1-.14.33-.14.43,0l1.94,2.73c.08.12.06.28-.06.37-.05.03-.1.05-.15.05Z"/>
          <path class="cls-1" d="M7.6,3.43c-.07,0-.15-.02-.21-.07-.08-.06-.13-.14-.15-.23-.02-.09,0-.19.06-.27L9.25.14c.13-.18.46-.18.59,0l1.94,2.73c.06.08.08.17.06.27-.02.1-.07.18-.15.23-.16.11-.39.07-.5-.08l-1.65-2.31-1.65,2.31c-.06.08-.14.13-.23.15-.02,0-.04,0-.06,0ZM9.54.19c-.06,0-.11.02-.13.06l-1.94,2.73s-.04.08-.03.12c0,.04.03.08.07.11.04.03.08.04.12.03.04,0,.08-.03.11-.07l1.73-2.43c.04-.05.12-.05.16,0l1.73,2.43c.05.07.16.09.23.04.04-.03.06-.06.07-.11,0-.04,0-.09-.03-.12l-1.94-2.73s-.08-.06-.13-.06Z"/>
        </g>
      </g>
    </g>
  </g>
</svg>