<?xml version="1.0" encoding="UTF-8"?>
<svg id="Layer_2" data-name="Layer 2" xmlns="http://www.w3.org/2000/svg" viewBox="0 0 19.76 19.42">
  <defs>
    <style>
      .cls-1 {
        fill: #1f1f1f;
      }
    </style>
  </defs>
  <g id="Object">
    <g>
      <path class="cls-1" d="M19.19.1h-9.19c-.26,0-.47.21-.47.47v8.79H.43c-.19,0-.34.15-.34.34v9.02c0,.33.27.6.6.6h8.76c.33,0,.6-.27.6-.6v-8.85h9.14c.26,0,.47-.21.47-.47V.57c0-.26-.21-.47-.47-.47ZM9.53,18.77s-.01.03-.03.03H.65s-.03-.01-.03-.03v-8.86s.01-.03.03-.03h8.86s.03.01.03.03v8.86ZM19.14,9.34h-9.09V.62h9.09v8.72Z"/>
      <path class="cls-1" d="M9.46,19.42H.7c-.38,0-.7-.31-.7-.7v-9.02c0-.24.19-.43.43-.43h9V.57c0-.31.26-.57.57-.57h9.19c.32,0,.57.26.57.57v8.82c0,.32-.26.57-.57.57h-9.04v8.75c0,.39-.31.7-.7.7ZM.43,9.46c-.13,0-.24.11-.24.24v9.02c0,.28.23.5.5.5h8.76c.28,0,.5-.23.5-.5v-8.85c0-.05.04-.1.1-.1h9.14c.21,0,.37-.17.37-.37V.57c0-.21-.17-.37-.37-.37h-9.19c-.21,0-.38.17-.38.37v8.79c0,.05-.04.1-.1.1H.43ZM9.51,18.89H.65c-.07,0-.13-.06-.13-.13v-8.86c0-.07.06-.13.13-.13h8.86c.07,0,.13.06.13.13v8.86c0,.07-.06.13-.13.13ZM.72,18.69h8.71v-8.71H.72v8.71ZM19.14,9.44h-9.09c-.05,0-.1-.04-.1-.1V.62c0-.05.04-.1.1-.1h9.09c.05,0,.1.04.1.1v8.72c0,.05-.04.1-.1.1ZM10.16,9.25h8.89V.72h-8.89v8.53Z"/>
    </g>
  </g>
</svg>