<?xml version="1.0" encoding="UTF-8"?>
<svg id="Layer_2" data-name="Layer 2" xmlns="http://www.w3.org/2000/svg" viewBox="0 0 19.5 15.07">
  <defs>
    <style>
      .cls-1 {
        fill: #1f1f1f;
      }
    </style>
  </defs>
  <g id="Object">
    <g>
      <g>
        <g>
          <path class="cls-1" d="M19.14,3.17H6.85c-.14,0-.26-.12-.26-.26s.12-.26.26-.26h12.29c.14,0,.26.12.26.26s-.12.26-.26.26Z"/>
          <path class="cls-1" d="M19.14,3.27H6.85c-.2,0-.36-.16-.36-.36s.16-.36.36-.36h12.29c.2,0,.36.16.36.36s-.16.36-.36.36ZM6.85,2.74c-.09,0-.16.07-.16.16s.07.16.16.16h12.29c.09,0,.16-.07.16-.16s-.07-.16-.16-.16H6.85Z"/>
        </g>
        <g>
          <path class="cls-1" d="M4.95,3.17H.36c-.14,0-.26-.12-.26-.26s.12-.26.26-.26h4.59c.14,0,.26.12.26.26s-.12.26-.26.26Z"/>
          <path class="cls-1" d="M4.95,3.27H.36c-.2,0-.36-.16-.36-.36s.16-.36.36-.36h4.59c.2,0,.36.16.36.36s-.16.36-.36.36ZM.36,2.74c-.09,0-.16.07-.16.16s.07.16.16.16h4.59c.09,0,.16-.07.16-.16s-.07-.16-.16-.16H.36Z"/>
        </g>
        <g>
          <path class="cls-1" d="M19.14,7.91h-4.82c-.14,0-.26-.12-.26-.26s.12-.26.26-.26h4.82c.14,0,.26.12.26.26s-.12.26-.26.26Z"/>
          <path class="cls-1" d="M19.14,8.01h-4.82c-.2,0-.36-.16-.36-.36s.16-.36.36-.36h4.82c.2,0,.36.16.36.36s-.16.36-.36.36ZM14.32,7.48c-.09,0-.16.07-.16.16s.07.16.16.16h4.82c.09,0,.16-.07.16-.16s-.07-.16-.16-.16h-4.82Z"/>
        </g>
        <g>
          <path class="cls-1" d="M13,7.91H.36c-.14,0-.26-.12-.26-.26s.12-.26.26-.26h12.64c.14,0,.26.12.26.26s-.12.26-.26.26Z"/>
          <path class="cls-1" d="M13,8.01H.36c-.2,0-.36-.16-.36-.36s.16-.36.36-.36h12.64c.2,0,.36.16.36.36s-.16.36-.36.36ZM.36,7.48c-.09,0-.16.07-.16.16s.07.16.16.16h12.64c.09,0,.16-.07.16-.16s-.07-.16-.16-.16H.36Z"/>
        </g>
        <g>
          <path class="cls-1" d="M19.14,12.65H6.26c-.14,0-.26-.12-.26-.26s.12-.26.26-.26h12.88c.14,0,.26.12.26.26s-.12.26-.26.26Z"/>
          <path class="cls-1" d="M19.14,12.74H6.26c-.2,0-.36-.16-.36-.36s.16-.36.36-.36h12.88c.2,0,.36.16.36.36s-.16.36-.36.36ZM6.26,12.22c-.09,0-.16.07-.16.16s.07.16.16.16h12.88c.09,0,.16-.07.16-.16s-.07-.16-.16-.16H6.26Z"/>
        </g>
        <g>
          <path class="cls-1" d="M4.95,12.65H.36c-.14,0-.26-.12-.26-.26s.12-.26.26-.26h4.59c.14,0,.26.12.26.26s-.12.26-.26.26Z"/>
          <path class="cls-1" d="M4.95,12.74H.36c-.2,0-.36-.16-.36-.36s.16-.36.36-.36h4.59c.2,0,.36.16.36.36s-.16.36-.36.36ZM.36,12.22c-.09,0-.16.07-.16.16s.07.16.16.16h4.59c.09,0,.16-.07.16-.16s-.07-.16-.16-.16H.36Z"/>
        </g>
      </g>
      <g>
        <path class="cls-1" d="M4.95,5.27c-.14,0-.26-.12-.26-.26V.36c0-.14.12-.26.26-.26s.26.12.26.26v4.65c0,.14-.12.26-.26.26Z"/>
        <path class="cls-1" d="M4.95,5.37c-.2,0-.36-.16-.36-.36V.36c0-.2.16-.36.36-.36s.36.16.36.36v4.65c0,.2-.16.36-.36.36ZM4.95.2c-.09,0-.16.07-.16.16v4.65c0,.09.07.16.16.16s.16-.07.16-.16V.36c0-.09-.07-.16-.16-.16Z"/>
      </g>
      <g>
        <path class="cls-1" d="M4.95,14.97c-.14,0-.26-.12-.26-.26v-4.65c0-.14.12-.26.26-.26s.26.12.26.26v4.65c0,.14-.12.26-.26.26Z"/>
        <path class="cls-1" d="M4.95,15.07c-.2,0-.36-.16-.36-.36v-4.65c0-.2.16-.36.36-.36s.36.16.36.36v4.65c0,.2-.16.36-.36.36ZM4.95,9.89c-.09,0-.16.07-.16.16v4.65c0,.09.07.16.16.16s.16-.07.16-.16v-4.65c0-.09-.07-.16-.16-.16Z"/>
      </g>
      <g>
        <path class="cls-1" d="M14.32,9.99c-.14,0-.26-.12-.26-.26v-4.72c0-.14.12-.26.26-.26s.26.12.26.26v4.72c0,.14-.12.26-.26.26Z"/>
        <path class="cls-1" d="M14.32,10.09c-.2,0-.36-.16-.36-.36v-4.72c0-.2.16-.36.36-.36s.36.16.36.36v4.72c0,.2-.16.36-.36.36ZM14.32,4.85c-.09,0-.16.07-.16.16v4.72c0,.09.07.16.16.16s.16-.07.16-.16v-4.72c0-.09-.07-.16-.16-.16Z"/>
      </g>
    </g>
  </g>
</svg>