<?xml version="1.0" encoding="UTF-8"?>
<svg id="Layer_2" data-name="Layer 2" xmlns="http://www.w3.org/2000/svg" viewBox="0 0 19.37 8.97">
  <defs>
    <style>
      .cls-1 {
        fill: #1f1f1f;
      }
    </style>
  </defs>
  <g id="Object">
    <g>
      <path class="cls-1" d="M19.24,4.44s0,0,0-.01c.01-.03.02-.06.02-.09,0,0,0,0,0,0h0s0,0,0,0c0-.03,0-.06-.02-.09,0,0,0-.01,0-.02-.01-.03-.03-.05-.05-.07,0,0,0,0-.01,0,0,0-.02-.02-.03-.03L13.26.14c-.12-.08-.28-.05-.36.07-.08.12-.05.28.07.36l5.18,3.49H.36c-.14,0-.26.12-.26.26s.12.26.26.26h17.86l-5.05,3.8c-.12.09-.14.25-.05.37.05.07.13.1.21.1.05,0,.11-.02.16-.05l5.68-4.27s.01-.01.02-.02c0,0,0,0,.01-.01.02-.02.04-.05.05-.07Z"/>
      <path class="cls-1" d="M13.33,8.97c-.11,0-.22-.05-.29-.14-.06-.08-.08-.17-.07-.27.01-.1.06-.18.14-.24l4.82-3.62H.36c-.2,0-.36-.16-.36-.36s.16-.36.36-.36h17.47L12.91.66c-.08-.05-.13-.14-.15-.23-.02-.09,0-.19.06-.27.05-.08.14-.13.23-.15.09-.02.19,0,.27.06l5.89,3.97s.02.02.03.03l-.05.09.07-.07s.05.06.07.1c0,0,0,.02.01.03.01.04.02.08.02.12,0,.01,0,.02,0,.03,0,.04-.01.07-.02.1,0,0,0,.02,0,.02-.02.04-.04.07-.07.1,0,0-.02.02-.02.02,0,0-.02.02-.03.02l-5.68,4.27c-.06.05-.14.07-.22.07ZM.36,4.17c-.09,0-.16.07-.16.16s.07.16.16.16h17.86s.08.03.09.07c.01.04,0,.08-.03.11l-5.05,3.8s-.06.06-.06.11c0,.04,0,.09.03.12.05.07.16.09.23.03l5.68-4.27.08.06-.06-.08s.02-.03.03-.04c.01-.03.01-.05.01-.06,0,0,0,0,0-.01,0-.02,0-.03-.01-.05-.01-.03-.02-.04-.03-.06l.03-.1-.06.08L13.21.22s-.08-.03-.12-.03c-.04,0-.08.03-.1.07-.02.04-.03.08-.03.12,0,.04.03.08.07.1l5.18,3.49s.05.07.04.11c-.01.04-.05.07-.09.07H.36ZM19.24,4.44h0,0ZM19.24,4.44h0,0Z"/>
    </g>
  </g>
</svg>