<?xml version="1.0" encoding="UTF-8"?>
<svg id="Layer_2" data-name="Layer 2" xmlns="http://www.w3.org/2000/svg" viewBox="0 0 18.94 19.01">
  <defs>
    <style>
      .cls-1 {
        fill: #1f1f1f;
      }
    </style>
  </defs>
  <g id="Object">
    <g>
      <g>
        <path class="cls-1" d="M12.98,5.08H2.24c-.42,0-.76.34-.76.76v11.04c0,.42.34.76.76.76h10.74c.42,0,.76-.34.76-.76V5.83c0-.42-.34-.76-.76-.76ZM13.21,17.11H2.01V5.6h11.21v11.51Z"/>
        <path class="cls-1" d="M12.98,17.73H2.24c-.47,0-.86-.38-.86-.86V5.83c0-.47.38-.86.86-.86h10.74c.47,0,.86.38.86.86v11.04c0,.47-.38.86-.86.86ZM2.24,5.17c-.36,0-.66.3-.66.66v11.04c0,.36.3.66.66.66h10.74c.36,0,.66-.3.66-.66V5.83c0-.36-.3-.66-.66-.66H2.24ZM13.21,17.21H2.01c-.05,0-.1-.04-.1-.1V5.6c0-.05.04-.1.1-.1h11.21c.05,0,.1.04.1.1v11.51c0,.05-.04.1-.1.1ZM2.1,17.01h11.01V5.7H2.1v11.31Z"/>
      </g>
      <g>
        <path class="cls-1" d="M18.37,16.98l-1.01,1.01V4.61l1.04,1.04c.1.1.27.1.37,0,.1-.1.1-.27,0-.37l-1.48-1.48c-.1-.1-.27-.1-.37,0l-1.48,1.48c-.1.1-.1.27,0,.37.1.1.27.1.37,0l1.04-1.04v13.43l-1.06-1.06c-.1-.1-.27-.1-.37,0-.1.1-.1.27,0,.37l1.48,1.48c.1.1.27.1.37,0l1.48-1.48c.1-.1.1-.27,0-.37-.1-.1-.27-.1-.37,0Z"/>
        <path class="cls-1" d="M17.08,19.01c-.09,0-.18-.04-.25-.11l-1.48-1.48c-.07-.07-.11-.16-.11-.26s.04-.19.11-.25c.14-.14.37-.14.51,0l.89.89V4.85l-.87.87c-.14.14-.37.14-.51,0-.14-.14-.14-.37,0-.51l1.48-1.48c.14-.14.37-.14.51,0l1.48,1.48c.14.14.14.37,0,.51-.07.07-.16.11-.26.11h0c-.1,0-.19-.04-.25-.11l-.87-.87v12.91l.85-.85c.14-.14.37-.14.51,0,.07.07.11.16.11.25s-.04.19-.11.26l-1.48,1.48c-.07.07-.16.11-.26.11ZM15.59,17s-.08.02-.12.05c-.03.03-.05.07-.05.12s.02.09.05.12l1.48,1.48c.06.06.17.06.23,0l1.48-1.48s.05-.07.05-.12-.02-.08-.05-.12c-.06-.06-.17-.06-.23,0l-1.01,1.01s-.07.04-.11.02c-.04-.02-.06-.05-.06-.09V4.61s.02-.08.06-.09c.04-.02.08,0,.11.02l1.04,1.04s.07.05.12.05h0s.09-.02.12-.05c.06-.06.06-.17,0-.23l-1.48-1.48c-.06-.06-.17-.06-.23,0l-1.48,1.48c-.06.06-.06.17,0,.23.06.06.17.06.23,0l1.04-1.04s.07-.04.11-.02c.04.02.06.05.06.09v13.43s-.02.08-.06.09c-.04.01-.08,0-.11-.02l-1.06-1.06s-.07-.05-.12-.05Z"/>
      </g>
      <g>
        <path class="cls-1" d="M15.5,1.68l-1.48-1.48c-.1-.1-.27-.1-.37,0-.1.1-.1.27,0,.37l1.01,1.01H.99l1.04-1.04c.1-.1.1-.27,0-.37-.1-.1-.27-.1-.37,0L.17,1.66c-.1.1-.1.27,0,.37l1.48,1.48c.1.1.27.1.37,0,.1-.1.1-.27,0-.37l-1.03-1.03h13.71l-1.06,1.06c-.1.1-.1.27,0,.37.1.1.27.1.37,0l1.48-1.48c.1-.1.1-.27,0-.37Z"/>
        <path class="cls-1" d="M13.83,3.71c-.09,0-.18-.04-.25-.11-.07-.07-.11-.16-.11-.25s.04-.19.11-.25l.89-.89H1.23l.87.87c.07.07.11.16.11.25s-.04.19-.11.26c-.14.14-.37.14-.51,0L.11,2.1c-.07-.07-.11-.16-.11-.26s.04-.19.11-.25L1.59.11c.07-.07.16-.11.25-.11h0c.1,0,.19.04.25.11.07.07.11.16.11.25s-.04.19-.11.26l-.87.87h13.19l-.85-.85c-.07-.07-.11-.16-.11-.25s.04-.19.11-.25c.14-.14.37-.14.51,0l1.48,1.48c.14.14.14.37,0,.51l-1.48,1.48c-.07.07-.16.11-.25.11ZM.99,2.01h13.71s.08.02.09.06c.02.04,0,.08-.02.11l-1.06,1.06c-.06.06-.06.17,0,.23.06.06.17.06.23,0l1.48-1.48s.05-.07.05-.12-.02-.08-.05-.12l-1.48-1.48c-.06-.06-.17-.06-.23,0-.06.06-.06.17,0,.23l1.01,1.01s.04.07.02.11c-.02.04-.05.06-.09.06H.99s-.08-.02-.09-.06c-.02-.04,0-.08.02-.11L1.96.48s.05-.07.05-.12-.02-.08-.05-.12c-.03-.03-.07-.05-.12-.05h0s-.09.02-.12.05L.24,1.73s-.05.07-.05.12.02.08.05.12l1.48,1.48c.06.06.17.06.23,0,.03-.03.05-.07.05-.12s-.02-.08-.05-.12l-1.03-1.03s-.04-.07-.02-.11c.02-.04.05-.06.09-.06Z"/>
      </g>
    </g>
  </g>
</svg>