<?xml version="1.0" encoding="UTF-8"?>
<svg id="Layer_2" data-name="Layer 2" xmlns="http://www.w3.org/2000/svg" viewBox="0 0 19.73 19.14">
  <defs>
    <style>
      .cls-1 {
        fill: #1f1f1f;
      }
    </style>
  </defs>
  <g id="Object">
    <g>
      <g>
        <path class="cls-1" d="M19.59,6.86c-.05-.08-.13-.14-.23-.14H6.53l-.94-4.64c-.02-.12-.13-.21-.26-.21H.36c-.14,0-.26.12-.26.26s.12.26.26.26h4.77l2.31,11.43v4.95c0,.14.12.26.26.26h6.88c.14,0,.26-.12.26-.26s-.12-.26-.26-.26h-6.62v-4.46h7.15c.09,0,.17-.05.22-.12l4.25-6.81c.05-.08.05-.18,0-.27ZM6.64,7.25h4.07v1.64h-3.74l-.33-1.64ZM7.51,11.55l-.43-2.14h3.63v2.1h-3.07s-.09.02-.13.04ZM7.91,13.54l-.31-1.51s.02,0,.04,0h3.07v1.46s0,.03.01.05h-2.81ZM14.77,13.54h-3.55s0-.03,0-.05v-1.46h3.54v1.51ZM14.77,11.51h-3.54v-2.1h3.54v2.1ZM14.77,8.88h-3.54v-1.64h3.54v1.64ZM15.3,13v-.97h.61l-.61.97ZM16.23,11.51h-.93v-2.1h2.24l-1.31,2.1ZM17.87,8.89s-.02,0-.04,0h-2.53v-1.64h3.59l-1.03,1.65Z"/>
        <path class="cls-1" d="M14.58,19.14h-6.88c-.2,0-.36-.16-.36-.36v-4.95L5.05,2.5H.36c-.2,0-.36-.16-.36-.36s.16-.36.36-.36h4.98c.17,0,.32.12.35.29l.92,4.56h12.75c.13,0,.25.07.32.19h0c.06.12.06.26,0,.37l-4.25,6.81c-.07.11-.18.17-.31.17h-7.05v4.26h6.52c.2,0,.36.16.36.36s-.16.36-.36.36ZM.36,1.97c-.09,0-.16.07-.16.16s.07.16.16.16h4.77s.09.03.1.08l2.31,11.43v4.97c0,.09.08.16.17.16h6.88c.09,0,.16-.07.16-.16s-.07-.16-.16-.16h-6.62c-.05,0-.1-.04-.1-.1v-4.46c0-.05.04-.1.1-.1h7.15c.06,0,.11-.03.14-.08l4.25-6.81c.03-.05.03-.11,0-.17h0c-.03-.05-.08-.08-.14-.08H6.53s-.09-.03-.1-.08l-.94-4.64c-.02-.08-.08-.13-.16-.13H.36ZM14.77,13.64h-3.55s-.06-.01-.08-.04-.03-.05-.02-.08l.1-.02h-.09s0-1.47,0-1.47c0-.05.04-.1.1-.1h3.54c.05,0,.1.04.1.1v1.51c0,.05-.04.1-.1.1ZM11.33,13.44h3.34v-1.31h-3.34v1.31ZM10.72,13.64h-2.81s-.09-.03-.1-.08l-.31-1.51s0-.06.02-.09c.02-.02.05-.04.09-.03,0,0,.02,0,.03,0h3.06c.05,0,.1.04.1.1v1.46s0,.03,0,.03c0,.03,0,.06-.02.08-.02.02-.05.04-.08.04ZM7.99,13.44h2.62v-1.31h-2.89l.27,1.31ZM15.3,13.1s-.02,0-.03,0c-.04-.01-.07-.05-.07-.09v-.97c0-.05.04-.1.1-.1h.61s.07.02.09.05c.02.03.02.07,0,.1l-.61.97s-.05.05-.08.05ZM15.4,12.13v.53l.33-.53h-.33ZM7.51,11.65s-.03,0-.04,0c-.03-.01-.05-.04-.06-.07l-.43-2.14s0-.06.02-.08c.02-.02.05-.04.08-.04h3.63c.05,0,.1.04.1.1v2.1c0,.05-.04.1-.1.1h-3.07s-.05,0-.08.03c-.02,0-.03.01-.05.01ZM7.2,9.51l.39,1.91s.04,0,.06,0h2.97v-1.9h-3.42ZM16.23,11.6h-.93c-.05,0-.1-.04-.1-.1v-2.1c0-.05.04-.1.1-.1h2.24s.07.02.09.05c.02.03.02.07,0,.1l-1.31,2.1s-.05.05-.08.05ZM15.4,11.41h.78l1.19-1.9h-1.97v1.9ZM14.77,11.6h-3.54c-.05,0-.1-.04-.1-.1v-2.1c0-.05.04-.1.1-.1h3.54c.05,0,.1.04.1.1v2.1c0,.05-.04.1-.1.1ZM11.33,11.41h3.34v-1.9h-3.34v1.9ZM17.87,8.99s0,0-.01,0c0,0-.02,0-.03,0h-2.52c-.05,0-.1-.04-.1-.1v-1.64c0-.05.04-.1.1-.1h3.59s.07.02.09.05.02.07,0,.1l-1.03,1.64s-.05.05-.08.05ZM15.4,8.79h2.42l.9-1.44h-3.32v1.44ZM14.77,8.98h-3.54c-.05,0-.1-.04-.1-.1v-1.64c0-.05.04-.1.1-.1h3.54c.05,0,.1.04.1.1v1.64c0,.05-.04.1-.1.1ZM11.33,8.79h3.34v-1.44h-3.34v1.44ZM10.71,8.98h-3.74s-.09-.03-.1-.08l-.33-1.64s0-.06.02-.08c.02-.02.05-.04.08-.04h4.07c.05,0,.1.04.1.1v1.64c0,.05-.04.1-.1.1ZM7.05,8.79h3.56v-1.44h-3.85l.29,1.44Z"/>
      </g>
      <g>
        <path class="cls-1" d="M11.86.82c.14-.03.24-.16.21-.3-.03-.14-.16-.24-.3-.21-.54.1-1.03.36-1.41.75-.99,1.03-.97,2.68.06,3.67.15.15.33.27.51.38-.14.03-.23.17-.2.31.02.12.13.21.26.21.02,0,.03,0,.05,0l.86-.17c.08-.02.15-.07.19-.15.04-.08.03-.16,0-.24l-.42-.76c-.07-.13-.23-.17-.36-.1-.13.07-.17.23-.1.36l.08.15c-.18-.09-.34-.21-.49-.35-.82-.79-.85-2.11-.05-2.93.3-.32.69-.52,1.13-.6Z"/>
        <path class="cls-1" d="M10.98,5.72c-.17,0-.32-.12-.35-.29-.02-.12.02-.25.1-.33-.14-.09-.27-.19-.38-.3-1.07-1.03-1.1-2.74-.07-3.81.4-.41.9-.68,1.46-.78.09-.02.19,0,.27.06.08.06.13.14.15.23.03.2-.1.38-.29.42-.41.07-.78.27-1.07.57-.76.78-.73,2.04.05,2.79.07.06.13.12.21.17-.01-.14.06-.28.18-.35.17-.1.39-.03.49.14l.42.76c.06.1.06.22.01.33-.05.1-.14.18-.26.2l-.86.17s-.05,0-.07,0ZM11.81.39s-.02,0-.03,0c-.52.09-.99.34-1.36.72-.96.99-.93,2.58.06,3.53.14.13.3.25.49.36.04.02.05.06.05.1,0,.04-.04.07-.08.08-.09.02-.14.1-.12.19.02.09.1.15.19.13l.86-.17c.05,0,.09-.04.12-.09.02-.05.02-.1,0-.15l-.42-.76c-.04-.08-.14-.11-.22-.06-.04.02-.07.06-.08.1-.01.04,0,.09.01.12l.08.15s.01.08-.02.12c-.03.03-.08.04-.12.02-.19-.1-.36-.22-.51-.37-.86-.83-.89-2.21-.05-3.07.32-.33.73-.55,1.18-.63h0s.08-.03.11-.07.03-.08.03-.12c0-.04-.03-.08-.07-.11-.03-.02-.06-.03-.09-.03Z"/>
      </g>
      <g>
        <path class="cls-1" d="M12.59,4.9c-.14.03-.24.16-.21.3.02.13.13.22.26.22.02,0,.03,0,.05,0,.54-.1,1.03-.36,1.41-.75.48-.5.74-1.16.73-1.85-.01-.69-.29-1.34-.79-1.82-.15-.15-.32-.26-.5-.37h.01c.14-.03.23-.17.21-.31s-.17-.23-.31-.21l-.86.17c-.08.02-.15.07-.19.15-.01.03-.01.05-.02.08,0,0,0,0,0,0,0,0,0,0,0,0,0,.01,0,.03,0,.04,0,.07.03.13.07.18l.38.69c.05.09.14.14.23.14.04,0,.09-.01.13-.03.13-.07.17-.23.1-.36l-.07-.13c.16.09.31.19.45.32.4.38.62.9.63,1.46,0,.55-.2,1.08-.58,1.48-.3.32-.69.52-1.12.6Z"/>
        <path class="cls-1" d="M12.63,5.52c-.17,0-.32-.12-.35-.3-.03-.2.1-.38.29-.42h0c.41-.07.78-.27,1.07-.57.37-.38.56-.88.55-1.41,0-.53-.22-1.02-.6-1.39-.05-.05-.11-.1-.18-.15,0,.13-.06.26-.19.32-.17.09-.4.03-.49-.14l-.37-.68c-.06-.06-.09-.15-.09-.23,0-.02,0-.03,0-.05,0,0,0-.01,0-.02,0-.04,0-.07.02-.11.05-.1.14-.18.26-.2L13.42,0c.09-.02.19,0,.27.05.08.05.14.14.15.23.02.09,0,.19-.05.27-.02.03-.04.05-.06.07.14.09.26.19.36.29.52.5.81,1.17.82,1.89.01.72-.26,1.4-.76,1.92-.4.41-.9.68-1.46.78-.02,0-.04,0-.06,0ZM12.61,4.99c-.09.02-.15.1-.13.19.02.09.1.15.19.13.52-.09.99-.34,1.36-.72.46-.48.71-1.11.7-1.78-.01-.67-.28-1.29-.76-1.75-.13-.13-.29-.24-.48-.35-.04-.02-.05-.06-.05-.1,0-.04.04-.07.08-.08.06-.01.09-.04.12-.07.02-.04.03-.08.02-.12,0-.04-.03-.08-.07-.1-.04-.02-.08-.03-.12-.02l-.86.17c-.05,0-.09.04-.12.09,0,0,0,.02,0,.04,0,0,0,.02,0,.02,0,0,0,.01,0,.01,0,.06.02.1.05.13,0,0,.01.01.01.02l.38.69c.04.08.15.11.22.06.08-.04.11-.14.06-.22l-.07-.13s-.01-.09.02-.12c.03-.03.08-.04.12-.02.18.1.33.21.47.34.42.4.65.94.66,1.52.01.58-.21,1.13-.61,1.55-.32.33-.73.55-1.18.63h0ZM12.47.5h0s0,0,0,0Z"/>
      </g>
    </g>
  </g>
</svg>