<?xml version="1.0" encoding="UTF-8"?>
<svg id="Layer_2" data-name="Layer 2" xmlns="http://www.w3.org/2000/svg" viewBox="0 0 19.5 19.5">
  <defs>
    <style>
      .cls-1 {
        fill: #1f1f1f;
      }
    </style>
  </defs>
  <g id="Object">
    <g>
      <g>
        <path class="cls-1" d="M9.75,19.4C4.43,19.4.1,15.07.1,9.75S4.43.1,9.75.1s9.65,4.33,9.65,9.65-4.33,9.65-9.65,9.65ZM9.75.62C4.72.62.62,4.72.62,9.75s4.1,9.13,9.13,9.13,9.13-4.1,9.13-9.13S14.79.62,9.75.62Z"/>
        <path class="cls-1" d="M9.75,19.5C4.37,19.5,0,15.13,0,9.75S4.37,0,9.75,0s9.75,4.37,9.75,9.75-4.37,9.75-9.75,9.75ZM9.75.2C4.48.2.2,4.48.2,9.75s4.29,9.55,9.56,9.55,9.55-4.29,9.55-9.55S15.02.2,9.75.2ZM9.75,18.98C4.66,18.98.52,14.84.52,9.75S4.66.52,9.75.52s9.23,4.14,9.23,9.23-4.14,9.23-9.23,9.23ZM9.75.72C4.77.72.72,4.77.72,9.75s4.05,9.03,9.03,9.03,9.03-4.05,9.03-9.03S14.73.72,9.75.72Z"/>
      </g>
      <g>
        <path class="cls-1" d="M7,14.15s-.09-.01-.13-.03c-.08-.05-.13-.13-.13-.23V5.61c0-.09.05-.18.13-.23.08-.05.18-.05.26,0l7.08,4.14c.08.05.13.13.13.23s-.05.18-.13.23l-7.08,4.14s-.09.04-.13.04ZM7.26,6.07v7.36l6.3-3.68-6.3-3.68Z"/>
        <path class="cls-1" d="M7,14.25c-.06,0-.13-.02-.18-.05-.11-.06-.18-.18-.18-.31V5.61c0-.13.07-.25.18-.31.11-.06.25-.06.36,0l7.08,4.14c.11.06.18.18.18.31s-.07.25-.18.31l-7.08,4.14c-.06.03-.12.05-.18.05ZM7,5.45s-.06,0-.08.02c-.05.03-.08.08-.08.14v8.28c0,.06.03.11.08.14.05.03.11.03.16,0l7.08-4.14s.08-.08.08-.14-.03-.11-.08-.14l-7.08-4.14s-.05-.02-.08-.02ZM7.26,13.53s-.03,0-.05-.01c-.03-.02-.05-.05-.05-.09v-7.37s.02-.07.05-.09c.03-.02.07-.02.1,0l6.3,3.68s.05.05.05.08-.02.07-.05.08l-6.3,3.68s-.03.01-.05.01ZM7.36,6.24v7.02l6-3.51-6-3.51Z"/>
      </g>
    </g>
  </g>
</svg>