<?xml version="1.0" encoding="UTF-8"?>
<svg id="Layer_2" data-name="Layer 2" xmlns="http://www.w3.org/2000/svg" viewBox="0 0 19.69 19.66">
  <defs>
    <style>
      .cls-1 {
        fill: #1f1f1f;
      }
    </style>
  </defs>
  <g id="Object">
    <g>
      <g>
        <path class="cls-1" d="M.36,19.56c.14,0,.26-.12.26-.26V.36C.62.22.51.1.36.1S.1.22.1.36v18.94c0,.14.12.26.26.26Z"/>
        <path class="cls-1" d="M.36,19.66c-.2,0-.36-.16-.36-.36V.36c0-.2.16-.36.36-.36s.36.16.36.36v18.93c0,.2-.16.36-.36.36ZM.36.2c-.09,0-.16.07-.16.16v18.93c0,.09.07.16.16.16s.16-.07.16-.16V.36c0-.09-.07-.16-.16-.16Z"/>
      </g>
      <g>
        <path class="cls-1" d="M3.7,15.23c-.14,0-.26.12-.26.26s.12.26.26.26h15.63c.14,0,.26-.12.26-.26v-4.72c0-.14-.12-.26-.26-.26H2.72c-.14,0-.26.12-.26.26v2.41c0,.14.12.26.26.26s.26-.12.26-.26v-2.15h16.09v4.19H3.7Z"/>
        <path class="cls-1" d="M19.33,15.85H3.7c-.2,0-.36-.16-.36-.36s.16-.36.36-.36h15.27v-4H3.08v2.05c0,.2-.16.36-.36.36s-.36-.16-.36-.36v-2.41c0-.2.16-.36.36-.36h16.61c.2,0,.36.16.36.36v4.72c0,.2-.16.36-.36.36ZM3.7,15.33c-.09,0-.16.07-.16.16s.07.16.16.16h15.63c.09,0,.16-.07.16-.16v-4.72c0-.09-.07-.16-.16-.16H2.72c-.09,0-.16.07-.16.16v2.41c0,.09.07.16.16.16s.16-.07.16-.16v-2.15c0-.05.04-.1.1-.1h16.09c.05,0,.1.04.1.1v4.19c0,.05-.04.1-.1.1H3.7Z"/>
      </g>
      <g>
        <path class="cls-1" d="M2.52,3.77v2.41c0,.14.12.26.26.26s.26-.12.26-.26v-2.15h11.33v4.13H3.7c-.14,0-.26.12-.26.26s.12.26.26.26h10.95c.14,0,.26-.12.26-.26V3.77c0-.14-.12-.26-.26-.26H2.78c-.14,0-.26.12-.26.26Z"/>
        <path class="cls-1" d="M14.64,8.78H3.7c-.2,0-.36-.16-.36-.36s.16-.36.36-.36h10.59v-3.93H3.14v2.05c0,.2-.16.36-.36.36s-.36-.16-.36-.36v-2.41c0-.2.16-.36.36-.36h11.86c.2,0,.36.16.36.36v4.65c0,.2-.16.36-.36.36ZM3.7,8.25c-.09,0-.16.07-.16.16s.07.16.16.16h10.95c.09,0,.16-.07.16-.16V3.77c0-.09-.07-.16-.16-.16H2.78c-.09,0-.16.07-.16.16v2.41c0,.09.07.16.16.16s.16-.07.16-.16v-2.15c0-.05.04-.1.1-.1h11.33c.05,0,.1.04.1.1v4.13c0,.05-.04.1-.1.1H3.7Z"/>
      </g>
    </g>
  </g>
</svg>