<?xml version="1.0" encoding="UTF-8"?>
<svg id="Layer_2" data-name="Layer 2" xmlns="http://www.w3.org/2000/svg" viewBox="0 0 8.31 18.89">
  <defs>
    <style>
      .cls-1 {
        fill: #1f1f1f;
      }
    </style>
  </defs>
  <g id="Object">
    <g>
      <g>
        <path class="cls-1" d="M2.62,18.79c-1.39,0-2.52-1.13-2.52-2.52s1.13-2.52,2.52-2.52,2.52,1.13,2.52,2.52-1.13,2.52-2.52,2.52ZM2.62,14.28c-1.1,0-1.99.89-1.99,1.99s.89,1.99,1.99,1.99,1.99-.89,1.99-1.99-.9-1.99-1.99-1.99Z"/>
        <path class="cls-1" d="M2.62,18.89c-1.44,0-2.62-1.17-2.62-2.62s1.17-2.62,2.62-2.62,2.62,1.17,2.62,2.62-1.17,2.62-2.62,2.62ZM2.62,13.85c-1.33,0-2.42,1.09-2.42,2.42s1.09,2.42,2.42,2.42,2.42-1.09,2.42-2.42-1.09-2.42-2.42-2.42ZM2.62,18.37c-1.15,0-2.09-.94-2.09-2.09s.94-2.09,2.09-2.09,2.09.94,2.09,2.09-.94,2.09-2.09,2.09ZM2.62,14.38c-1.05,0-1.9.85-1.9,1.9s.85,1.9,1.9,1.9,1.9-.85,1.9-1.9-.85-1.9-1.9-1.9Z"/>
      </g>
      <g>
        <path class="cls-1" d="M4.87,16.54c-.13,0-.25-.1-.26-.23L2.93,1.32c-.04-.31.06-.62.27-.86s.51-.37.82-.37c.04,0,.07,0,.1.02l3.93,1.68c.1.04.16.14.16.24v1.87c0,.14-.12.26-.26.26s-.26-.12-.26-.26v-1.7L3.97.62c-.15.01-.28.08-.38.19-.11.12-.16.28-.14.45l1.69,14.98c.02.14-.09.27-.23.29-.01,0-.02,0-.03,0Z"/>
        <path class="cls-1" d="M4.87,16.63c-.18,0-.34-.14-.36-.32L2.83,1.33c-.04-.34.07-.68.3-.93.23-.25.55-.4.9-.4.05,0,.1,0,.14.03l3.93,1.68c.13.06.22.19.22.33v1.87c0,.2-.16.36-.36.36s-.36-.16-.36-.36v-1.63L3.96.72c-.11.01-.22.07-.29.16-.09.1-.13.24-.12.37l1.69,14.98c.02.2-.12.38-.32.4-.01,0-.03,0-.04,0ZM4.02.2c-.29,0-.56.12-.75.34-.19.21-.28.5-.25.78l1.69,14.98c0,.08.08.15.16.15h.02c.09-.01.15-.09.14-.18L3.35,1.28c-.02-.19.04-.38.17-.53.12-.13.28-.21.45-.22.02,0,.03,0,.05,0l3.72,1.59s.06.05.06.09v1.7c0,.09.07.16.16.16s.16-.07.16-.16v-1.87c0-.07-.04-.12-.1-.15L4.09.21s-.04-.01-.06-.01Z"/>
      </g>
    </g>
  </g>
</svg>