<?xml version="1.0" encoding="UTF-8"?>
<svg id="Layer_2" data-name="Layer 2" xmlns="http://www.w3.org/2000/svg" viewBox="0 0 19.69 17.23">
  <defs>
    <style>
      .cls-1 {
        fill: #1f1f1f;
      }
    </style>
  </defs>
  <g id="Object">
    <g>
      <g>
        <path class="cls-1" d="M19.51,11.97c-.1-.1-.27-.1-.37,0l-4.45,4.53L5.37,7.44,12.4.55c.1-.1.1-.27,0-.37-.1-.1-.27-.1-.37,0l-7.22,7.08s0,0,0,0c0,0,0,0,0,0-.01.01-.02.03-.03.04,0,.01-.02.03-.03.04,0,.02-.01.04-.01.07,0,.01,0,.02,0,.03v9.43c0,.14.12.26.26.26h9.7s.07,0,.1-.02c.03-.01.06-.03.09-.06h0s0,0,0,0h0s4.63-4.72,4.63-4.72c.1-.1.1-.27,0-.37ZM7.51,16.61l-2.25-2.29v-6.26l8.79,8.55h-6.54ZM5.26,15.07l1.52,1.54h-1.52v-1.54Z"/>
        <path class="cls-1" d="M14.69,17.23H5c-.2,0-.36-.16-.36-.36V7.44s0-.04,0-.04c0-.03,0-.06.02-.09,0-.02.02-.04.03-.05.02-.03.03-.05.04-.06,0,0,0,0,.01,0L11.96.1c.14-.14.37-.14.51,0,.07.07.1.16.1.26,0,.1-.04.19-.11.25l-6.95,6.82,9.18,8.93,4.38-4.46c.14-.14.37-.14.51,0,.07.07.11.16.11.25,0,.1-.04.19-.1.26l-4.63,4.72s-.07.06-.12.08c-.04.02-.09.03-.14.03ZM4.88,7.32s-.01.02-.01.03l-.02.03s0,.02,0,.03c0,0,0,.03,0,.04v9.43c0,.09.07.16.16.16h9.7s.04,0,.06-.01c.02,0,.04-.02.05-.04l4.63-4.72c.06-.06.06-.17,0-.23h0c-.06-.06-.17-.06-.23,0l-4.45,4.53s-.1.04-.14,0L5.3,7.51s-.03-.04-.03-.07.01-.05.03-.07L12.33.48s.05-.07.05-.12c0-.04-.02-.08-.05-.12-.03-.03-.07-.05-.12-.05-.04,0-.08.02-.12.05l-7.21,7.07s0,0,0,0c0,0,0,0,0,0ZM14.05,16.71h-6.54s-.05-.01-.07-.03l-2.25-2.29s-.03-.04-.03-.07v-6.26s.02-.08.06-.09c.04-.02.08,0,.11.02l8.79,8.55s.04.07.02.11c-.02.04-.05.06-.09.06ZM7.55,16.51h6.26L5.36,8.29v5.99l2.19,2.23ZM6.78,16.71h-1.52c-.05,0-.1-.04-.1-.1v-1.54s.02-.08.06-.09c.04-.02.08,0,.11.02l1.52,1.54s.04.07.02.11c-.02.04-.05.06-.09.06ZM5.36,16.51h1.18l-1.18-1.2v1.2Z"/>
      </g>
      <g>
        <path class="cls-1" d="M9.58,10.16c.05.05.12.08.19.08s.13-.03.19-.08L19.51.55c.1-.1.1-.27,0-.37-.1-.1-.27-.1-.37,0l-9.56,9.61c-.1.1-.1.27,0,.37Z"/>
        <path class="cls-1" d="M9.77,10.33c-.1,0-.19-.04-.25-.1h0c-.14-.14-.14-.37,0-.51L19.07.11c.14-.14.37-.14.51,0,.07.07.11.16.11.25,0,.1-.04.19-.1.26l-9.56,9.61c-.07.07-.16.11-.26.11ZM9.65,10.09c.06.06.17.06.23,0L19.44.48s.05-.07.05-.12-.02-.08-.05-.12c-.06-.06-.17-.06-.23,0l-9.56,9.61c-.06.06-.06.17,0,.23h0Z"/>
      </g>
      <g>
        <path class="cls-1" d="M19.14,4.98l-4.78,4.8c-.1.1-.1.27,0,.37.05.05.12.08.18.08s.13-.03.19-.08l4.78-4.8c.1-.1.1-.27,0-.37-.1-.1-.27-.1-.37,0Z"/>
        <path class="cls-1" d="M14.55,10.33c-.1,0-.19-.04-.25-.1-.14-.14-.14-.37,0-.51l4.78-4.8h0c.07-.07.16-.11.25-.11h0c.1,0,.19.04.25.1.07.07.11.16.11.25,0,.1-.04.19-.1.26l-4.78,4.8c-.07.07-.16.11-.26.11ZM19.21,5.05l-4.78,4.8c-.06.06-.06.17,0,.23.06.06.17.06.23,0l4.78-4.8s.05-.07.05-.12-.02-.08-.05-.12c-.03-.03-.07-.05-.12-.05h0s-.08.02-.12.05h0Z"/>
      </g>
      <g>
        <path class="cls-1" d="M5.27,3.09c.14,0,.26-.12.26-.26s-.12-.26-.26-.26h-2.19V.36c0-.14-.12-.26-.26-.26s-.26.12-.26.26v2.21H.36c-.14,0-.26.12-.26.26s.12.26.26.26h2.19v2.07c0,.14.12.26.26.26s.26-.12.26-.26v-2.07h2.19Z"/>
        <path class="cls-1" d="M2.82,5.53c-.2,0-.36-.16-.36-.36v-1.98H.36c-.2,0-.36-.16-.36-.36s.16-.36.36-.36h2.1V.36c0-.2.16-.36.36-.36s.36.16.36.36v2.11h2.1c.2,0,.36.16.36.36s-.16.36-.36.36h-2.1v1.98c0,.2-.16.36-.36.36ZM.36,2.66c-.09,0-.16.07-.16.16s.07.16.16.16h2.19c.05,0,.1.04.1.1v2.07c0,.09.07.16.16.16s.16-.07.16-.16v-2.07c0-.05.04-.1.1-.1h2.19c.09,0,.16-.07.16-.16s-.07-.16-.16-.16h-2.19c-.05,0-.1-.04-.1-.1V.36c0-.09-.07-.16-.16-.16s-.16.07-.16.16v2.21c0,.05-.04.1-.1.1H.36Z"/>
      </g>
    </g>
  </g>
</svg>