<?xml version="1.0" encoding="UTF-8"?>
<svg id="Layer_2" data-name="Layer 2" xmlns="http://www.w3.org/2000/svg" viewBox="0 0 12.78 19.2">
  <defs>
    <style>
      .cls-1 {
        fill: #1f1f1f;
      }
    </style>
  </defs>
  <g id="Object">
    <g>
      <g>
        <path class="cls-1" d="M12.42,4.16h-1.9C10.48,1.91,8.64.1,6.39.1S2.3,1.91,2.26,4.16H.36c-.14,0-.26.12-.26.26v14.41c0,.14.12.26.26.26h12.06c.14,0,.26-.12.26-.26V4.42c0-.14-.12-.26-.26-.26ZM6.39.62c1.96,0,3.56,1.58,3.6,3.54H2.79c.04-1.96,1.64-3.54,3.6-3.54ZM12.15,18.57H.62V4.68h1.64v2.56c0,.14.12.26.26.26s.26-.12.26-.26v-2.56h7.21v2.56c0,.14.12.26.26.26s.26-.12.26-.26v-2.56h1.64v13.89Z"/>
        <path class="cls-1" d="M12.42,19.2H.36c-.2,0-.36-.16-.36-.36V4.42c0-.2.16-.36.36-.36h1.81c.09-2.25,1.96-4.06,4.22-4.06s4.13,1.81,4.22,4.06h1.81c.2,0,.36.16.36.36v14.41c0,.2-.16.36-.36.36ZM.36,4.26c-.09,0-.16.07-.16.16v14.41c0,.09.07.16.16.16h12.06c.09,0,.16-.07.16-.16V4.42c0-.09-.07-.16-.16-.16h-1.9c-.05,0-.1-.04-.1-.1-.03-2.19-1.84-3.97-4.03-3.97s-3.99,1.78-4.03,3.97c0,.05-.04.1-.1.1H.36ZM12.15,18.67H.62c-.05,0-.1-.04-.1-.1V4.68c0-.05.04-.1.1-.1h1.64c.05,0,.1.04.1.1v2.56c0,.09.07.16.16.16s.16-.07.16-.16v-2.56c0-.05.04-.1.1-.1h7.21c.05,0,.1.04.1.1v2.56c0,.09.07.16.16.16s.16-.07.16-.16v-2.56c0-.05.04-.1.1-.1h1.64c.05,0,.1.04.1.1v13.89c0,.05-.04.1-.1.1ZM.72,18.48h11.33V4.78h-1.44v2.46c0,.2-.16.36-.36.36s-.36-.16-.36-.36v-2.46H2.88v2.46c0,.2-.16.36-.36.36s-.36-.16-.36-.36v-2.46H.72v13.69ZM9.99,4.26H2.79s-.05-.01-.07-.03c-.02-.02-.03-.04-.03-.07.04-2,1.7-3.63,3.7-3.63s3.66,1.63,3.7,3.63c0,.03,0,.05-.03.07-.02.02-.04.03-.07.03ZM2.89,4.06h7c-.09-1.85-1.64-3.34-3.5-3.34s-3.41,1.49-3.5,3.34Z"/>
      </g>
      <g>
        <path class="cls-1" d="M9,9.42c-.1-.1-.27-.1-.37,0l-2.18,2.13-2.18-2.13c-.1-.1-.27-.1-.37,0-.1.1-.1.27,0,.37l2.17,2.13-2.17,2.13c-.1.1-.1.27,0,.37.05.05.12.08.19.08s.13-.02.18-.08l2.18-2.13,2.18,2.13c.05.05.12.08.18.08s.14-.03.19-.08c.1-.1.1-.27,0-.37l-2.17-2.13,2.17-2.13c.1-.1.1-.27,0-.37Z"/>
        <path class="cls-1" d="M8.81,14.59c-.09,0-.18-.04-.25-.1l-2.11-2.07-2.11,2.07c-.14.14-.37.13-.51,0-.07-.07-.1-.16-.1-.26,0-.1.04-.19.11-.25l2.1-2.06-2.1-2.06c-.07-.07-.11-.16-.11-.25,0-.1.04-.19.1-.26.07-.07.16-.11.25-.11.1,0,.19.04.26.1l2.11,2.07,2.11-2.07c.07-.07.16-.11.26-.1.1,0,.19.04.25.11h0c.14.14.14.37,0,.51l-2.1,2.06,2.1,2.06c.14.14.14.37,0,.51-.07.07-.16.11-.26.11ZM6.45,12.18s.05,0,.07.03l2.18,2.13c.06.06.17.06.23,0,.06-.06.06-.17,0-.23l-2.17-2.13s-.03-.04-.03-.07.01-.05.03-.07l2.17-2.13s.05-.07.05-.12c0-.04-.02-.08-.05-.12h0s-.07-.05-.12-.05c-.05,0-.09.02-.12.05l-2.18,2.13s-.1.04-.14,0l-2.17-2.13s-.07-.05-.11-.05h0s-.08.02-.12.05c-.03.03-.05.07-.05.12,0,.04.02.08.05.12l2.17,2.13s.03.04.03.07-.01.05-.03.07l-2.17,2.13s-.05.07-.05.12c0,.04.02.09.05.12.06.06.17.06.23,0l2.17-2.13s.04-.03.07-.03Z"/>
      </g>
    </g>
  </g>
</svg>