<?xml version="1.0" encoding="UTF-8"?>
<svg id="Layer_2" data-name="Layer 2" xmlns="http://www.w3.org/2000/svg" viewBox="0 0 19.5 19.06">
  <defs>
    <style>
      .cls-1 {
        fill: #1f1f1f;
      }
    </style>
  </defs>
  <g id="Object">
    <g>
      <g>
        <path class="cls-1" d="M19.14,18.96H.36c-.09,0-.18-.05-.22-.13-.05-.08-.05-.17,0-.26L9.52.23c.09-.18.38-.18.47,0l9.39,18.35c.04.08.04.18,0,.26-.05.08-.13.13-.22.13ZM.79,18.43h17.92L9.75.92.79,18.43Z"/>
        <path class="cls-1" d="M19.14,19.06H.36c-.12,0-.24-.07-.31-.17-.06-.11-.07-.24-.01-.35L9.43.18c.06-.11.18-.18.32-.18s.26.07.32.18l9.39,18.35c.06.11.05.25-.01.35-.07.11-.18.17-.31.17ZM9.75.2c-.05,0-.12.02-.15.08L.21,18.62c-.03.05-.02.11,0,.16.03.05.08.08.14.08h18.78c.06,0,.11-.03.14-.08.03-.05.03-.11,0-.16L9.9.27c-.03-.06-.09-.08-.15-.08ZM18.71,18.53H.79s-.07-.02-.08-.05c-.02-.03-.02-.07,0-.1L9.66.88c.03-.07.14-.07.18,0l8.96,17.51s.01.07,0,.1c-.02.03-.05.05-.08.05ZM.95,18.33h17.6L9.75,1.14.95,18.33Z"/>
      </g>
      <g>
        <path class="cls-1" d="M9.75,13.45c-.14,0-.26-.12-.26-.26v-7.43c0-.14.12-.26.26-.26s.26.12.26.26v7.43c0,.14-.12.26-.26.26Z"/>
        <path class="cls-1" d="M9.75,13.55c-.2,0-.36-.16-.36-.36v-7.43c0-.2.16-.36.36-.36s.36.16.36.36v7.43c0,.2-.16.36-.36.36ZM9.75,5.6c-.09,0-.16.07-.16.16v7.43c0,.09.07.16.16.16s.16-.07.16-.16v-7.43c0-.09-.07-.16-.16-.16Z"/>
      </g>
      <g>
        <path class="cls-1" d="M9.71,16.52c-.58,0-1.05-.47-1.05-1.05s.47-1.05,1.05-1.05,1.05.47,1.05,1.05-.47,1.05-1.05,1.05ZM9.71,14.94c-.29,0-.52.24-.52.52s.24.52.52.52.52-.24.52-.52-.24-.52-.52-.52Z"/>
        <path class="cls-1" d="M9.71,16.62c-.63,0-1.15-.51-1.15-1.15s.51-1.15,1.15-1.15,1.15.51,1.15,1.15-.51,1.15-1.15,1.15ZM9.71,14.52c-.52,0-.95.43-.95.95s.43.95.95.95.95-.43.95-.95-.43-.95-.95-.95ZM9.71,16.09c-.34,0-.62-.28-.62-.62s.28-.62.62-.62.62.28.62.62-.28.62-.62.62ZM9.71,15.04c-.23,0-.43.19-.43.43s.19.43.43.43.43-.19.43-.43-.19-.43-.43-.43Z"/>
      </g>
    </g>
  </g>
</svg>