<?xml version="1.0" encoding="UTF-8"?>
<svg id="Layer_2" data-name="Layer 2" xmlns="http://www.w3.org/2000/svg" viewBox="0 0 18.99 10.37">
  <defs>
    <style>
      .cls-1 {
        fill: #1f1f1f;
      }
    </style>
  </defs>
  <g id="Object">
    <g>
      <path class="cls-1" d="M.1,5.35c0,.11.07.2.17.24l12.02,4.65s.06.02.09.02c.07,0,.14-.03.19-.08.07-.08.09-.19.05-.29l-1.95-4.41,7.96-.1c.14,0,.26-.12.26-.27,0-.14-.12-.26-.27-.26l-7.96.1L12.52.46c.04-.1.02-.21-.06-.29-.08-.07-.19-.1-.29-.06L.26,5.11c-.1.04-.16.14-.16.25ZM1.06,5.34L11.79.85l-1.76,4.28h0s-.02.07-.02.1c0,.04,0,.07.02.1h0s1.85,4.2,1.85,4.2L1.06,5.34Z"/>
      <path class="cls-1" d="M12.38,10.37s-.09,0-.13-.02L.23,5.69C.09,5.63,0,5.5,0,5.36H0c0-.15.08-.28.22-.34L12.14.03c.13-.06.29-.03.39.08s.13.26.08.39l-1.8,4.36,7.81-.1c.1,0,.19.03.26.1.07.07.11.16.11.26,0,.2-.16.36-.36.36l-7.81.1,1.89,4.28c.06.13.03.29-.07.39-.07.07-.16.11-.26.11ZM.2,5.35c0,.07.04.13.1.15l12.02,4.65c.06.02.13,0,.18-.04.05-.05.06-.12.03-.18l-1.95-4.41s-.01-.06,0-.09c.02-.03.05-.04.08-.05l7.96-.1s.08-.02.12-.05c.03-.03.05-.07.05-.12,0-.04-.02-.09-.05-.12-.03-.03-.06-.05-.12-.05l-7.96.1s-.06-.02-.08-.04c-.02-.03-.02-.06,0-.09L12.43.42c.03-.06.01-.13-.04-.18-.05-.05-.12-.06-.18-.03L.3,5.2c-.06.03-.1.09-.1.15H.2ZM11.88,9.63s-.02,0-.04,0L1.03,5.43s-.06-.05-.06-.09c0-.04.02-.08.06-.09L11.75.76s.08,0,.11.02c.03.03.04.07.02.11l-1.76,4.28s-.01.04-.01.06,0,.04.01.06c0,0,0,0,0,0l1.85,4.19s0,.08-.02.11c-.02.02-.04.03-.07.03ZM1.32,5.34l10.37,4.02-1.76-3.98s0,0,0,0c-.02-.04-.03-.09-.03-.13,0-.05,0-.1.03-.14l1.67-4.06L1.32,5.34Z"/>
    </g>
  </g>
</svg>