<?xml version="1.0" encoding="UTF-8"?>
<svg id="Layer_2" data-name="Layer 2" xmlns="http://www.w3.org/2000/svg" viewBox="0 0 19.59 19.72">
  <defs>
    <style>
      .cls-1 {
        fill: #1f1f1f;
      }
    </style>
  </defs>
  <g id="Object">
    <g>
      <path class="cls-1" d="M19.01,9.37h-4.1v-.79h0v-3.15c0-.26-.21-.48-.48-.48h-4.5V.55h0c-.01-.25-.22-.45-.48-.45H.58C.31.1.1.31.1.58v8.87c0,.26.21.48.48.48h4.24v4.63c0,.26.21.48.48.48h4.11v4.11c0,.26.21.48.48.48h9.13c.26,0,.48-.21.48-.48v-9.3c0-.26-.21-.48-.48-.48ZM4.82,5.42v3.98h.03s-.02,0-.03,0H.62V.62h8.78v4.32h-4.11c-.26,0-.48.21-.48.48ZM5.34,14.51v-5.65s0,0,0,0v-3.39h9.04v9.04H5.34ZM18.97,19.1h-9.04v-4.06h4.5c.26,0,.48-.21.48-.48v-3.34h0v-1.33h4.05v9.21Z"/>
      <path class="cls-1" d="M19.01,19.72h-9.13c-.32,0-.58-.26-.58-.58v-4.01h-4.01c-.32,0-.58-.26-.58-.58v-4.53H.58c-.32,0-.58-.26-.58-.58V.58c0-.32.26-.58.58-.58h8.87c.3,0,.55.23.57.53,0,0,0,.02,0,.03v4.3h4.4c.32,0,.58.26.58.58v3.12s0,.02,0,.04v.69h4c.32,0,.58.26.58.58v9.3c0,.32-.26.58-.58.58ZM.58.2C.37.2.2.37.2.58v8.87c0,.21.17.38.38.38h4.24c.05,0,.1.04.1.1v4.63c0,.21.17.38.38.38h4.11c.05,0,.1.04.1.1v4.11c0,.21.17.38.38.38h9.13c.21,0,.38-.17.38-.38v-9.3c0-.21-.17-.38-.38-.38h-4.1c-.05,0-.1-.04-.1-.1v-.76s0-.02,0-.04v-3.15c0-.21-.17-.38-.38-.38h-4.5c-.05,0-.1-.04-.1-.1V.58s0-.01,0-.02c0-.2-.18-.36-.38-.36H.58ZM18.97,19.2h-9.04c-.05,0-.1-.04-.1-.1v-4.06c0-.05.04-.1.1-.1h4.5c.21,0,.38-.17.38-.38v-3.34s0-.03,0-.04v-1.29c0-.05.04-.1.1-.1h4.05c.05,0,.1.04.1.1v9.21c0,.05-.04.1-.1.1ZM10.02,19h8.85v-9.01h-3.86v1.23s0,.03,0,.04v3.3c0,.32-.26.58-.58.58h-4.4v3.87ZM14.38,14.61H5.34c-.05,0-.1-.04-.1-.1v-5.61s0-.02,0-.04v-3.39c0-.05.04-.1.1-.1h9.04c.05,0,.1.04.1.1v9.04c0,.05-.04.1-.1.1ZM5.44,14.51h0,0ZM5.44,14.41h8.85V5.57H5.44v3.25s0,.03,0,.04v1.07s0,4.49,0,4.49ZM4.84,9.51s0,0,0,0c0,0-.02,0-.03,0,0,0,0,0,0,0H.62c-.05,0-.1-.04-.1-.1V.62c0-.05.04-.1.1-.1h8.78c.05,0,.1.04.1.1v4.32c0,.05-.04.1-.1.1h-4.11c-.21,0-.38.17-.38.38v3.91s.03.04.03.07-.01.06-.03.08c-.02.02-.04.03-.07.03ZM.72,9.3h4v-3.88c0-.32.26-.58.58-.58h4.01V.72H.72v8.58Z"/>
    </g>
  </g>
</svg>