<?xml version="1.0" encoding="UTF-8"?>
<svg id="Layer_2" data-name="Layer 2" xmlns="http://www.w3.org/2000/svg" viewBox="0 0 18.37 18.37">
  <defs>
    <style>
      .cls-1 {
        fill: #1f1f1f;
      }
    </style>
  </defs>
  <g id="Object">
    <g>
      <g>
        <path class="cls-1" d="M14.05,9.49c-.1-.1-.27-.1-.37,0l-1.46,1.46-4.66-4.66,1.52-1.52c.1-.1.1-.27,0-.37l-3.34-3.34c-.1-.1-.27-.1-.37,0L1.26,5.18c-.1.1-.1.27,0,.37l9.82,9.82c.1.1.27.1.37,0,.1-.1.1-.27,0-.37L1.82,5.37l2.68-2.68,2.97,2.97-.46.46c-.1.1-.1.27,0,.37l5.03,5.03c.1.1.27.1.37,0l.49-.49,3.03,3.03-2.74,2.74c-.1.1-.1.27,0,.37h0c.1.1.27.1.37,0l3.92-3.92c.1-.1.1-.27,0-.37l-3.43-3.39ZM4.87,2.31l.68-.68,2.97,2.97-.68.68-2.97-2.97ZM16.3,13.68l-3.03-3.03.6-.6,3.05,3.02-.62.62Z"/>
        <path class="cls-1" d="M13.36,17.35c-.09,0-.18-.03-.25-.11-.07-.07-.11-.16-.11-.25s.04-.19.11-.25l2.68-2.68-2.9-2.9-.42.42c-.14.14-.37.14-.51,0l-5.03-5.03c-.14-.14-.14-.37,0-.51l.39-.39-2.83-2.83-2.54,2.55,9.57,9.57c.14.14.14.37,0,.51-.07.07-.16.11-.25.11h0c-.1,0-.19-.04-.25-.11L1.19,5.62c-.14-.14-.14-.37,0-.51L5.3,1c.14-.14.37-.14.51,0l3.34,3.34c.14.14.14.37,0,.51l-1.45,1.45,4.52,4.52,1.39-1.39c.14-.14.37-.14.51,0h0l3.43,3.39c.07.07.11.16.11.26,0,.1-.04.19-.11.26l-3.92,3.92c-.07.07-.16.11-.25.11ZM12.89,10.92s.05,0,.07.03l3.03,3.03s.03.04.03.07-.01.05-.03.07l-2.74,2.74s-.05.07-.05.12.02.08.05.12c.06.06.17.06.23,0l3.92-3.92s.05-.07.05-.12c0-.04-.02-.09-.05-.12l-3.43-3.39c-.06-.06-.17-.06-.23,0l-1.46,1.46s-.1.04-.14,0l-4.66-4.66s-.04-.1,0-.14l1.52-1.52c.06-.06.06-.17,0-.23l-3.34-3.34c-.06-.06-.17-.06-.23,0L1.33,5.25s-.05.07-.05.12.02.08.05.12l9.82,9.82s.07.05.12.05h0s.09-.02.12-.05c.06-.06.06-.17,0-.23L1.75,5.44s-.04-.1,0-.14l2.68-2.68s.1-.04.14,0l2.97,2.97s.03.04.03.07-.01.05-.03.07l-.46.46c-.06.06-.06.17,0,.23l5.03,5.03c.06.06.17.06.23,0l.49-.49s.04-.03.07-.03ZM16.3,13.78s-.05,0-.07-.03l-3.03-3.03s-.03-.04-.03-.07.01-.05.03-.07l.6-.6s.1-.04.14,0l3.05,3.02s.03.04.03.07-.01.05-.03.07l-.62.62s-.04.03-.07.03ZM13.4,10.65l2.9,2.9.48-.48-2.91-2.88-.47.47ZM7.84,5.37s-.05,0-.07-.03l-2.97-2.97s-.03-.04-.03-.07.01-.05.03-.07l.68-.68s.1-.04.14,0l2.96,2.97s.04.1,0,.14l-.68.68s-.04.03-.07.03ZM5.01,2.31l2.83,2.83.54-.54-2.83-2.83-.54.54Z"/>
      </g>
      <g>
        <path class="cls-1" d="M8.55,15.6c.15.02.28-.1.29-.24h0c0-.14-.1-.26-.24-.28-1.31-.14-2.53-.73-3.47-1.67-.94-.94-1.53-2.17-1.67-3.49-.02-.14-.13-.25-.28-.24-.15,0-.26.14-.25.28.15,1.44.79,2.78,1.82,3.81,1.02,1.02,2.36,1.66,3.79,1.82Z"/>
        <path class="cls-1" d="M8.58,15.7s-.03,0-.04,0c-1.45-.16-2.82-.81-3.85-1.85-1.04-1.04-1.69-2.41-1.85-3.87-.01-.1.02-.19.08-.26.06-.08.16-.12.26-.13.19-.01.36.13.38.33.14,1.29.72,2.51,1.64,3.43.91.91,2.12,1.5,3.41,1.64.2.02.34.19.32.38,0,.1-.05.19-.13.25-.06.05-.14.08-.23.08ZM3.21,9.79s0,0,0,0c-.05,0-.09.02-.12.06-.03.03-.04.07-.04.12.15,1.41.79,2.75,1.79,3.75,1,1,2.32,1.64,3.73,1.79h0s.08,0,.12-.04c.03-.03.06-.07.06-.12,0-.09-.06-.16-.15-.17-1.33-.15-2.58-.75-3.52-1.69-.95-.95-1.55-2.21-1.7-3.55,0-.09-.08-.15-.16-.15Z"/>
      </g>
      <g>
        <path class="cls-1" d="M13.35,5.2c.86.86,1.42,1.94,1.62,3.14.02.14.15.24.29.22.15-.02.25-.15.23-.3-.22-1.3-.82-2.49-1.77-3.43-.96-.96-2.15-1.57-3.48-1.78-.15-.02-.28.08-.3.23h0c-.02.14.08.27.22.29,1.21.19,2.31.75,3.18,1.63Z"/>
        <path class="cls-1" d="M15.23,8.66c-.17,0-.32-.13-.35-.31-.2-1.17-.75-2.24-1.59-3.08h0c-.86-.86-1.94-1.41-3.13-1.6-.19-.03-.33-.2-.31-.4.01-.1.06-.19.14-.25.08-.06.17-.08.27-.07,1.34.21,2.57.84,3.53,1.8.95.95,1.58,2.16,1.8,3.48.02.1,0,.19-.07.27-.06.08-.15.13-.25.14-.02,0-.03,0-.04,0ZM13.42,5.13c.88.87,1.44,1.98,1.65,3.19.02.09.1.15.18.14.05,0,.09-.03.11-.07.03-.03.04-.08.03-.12-.21-1.28-.82-2.45-1.74-3.38-.94-.94-2.12-1.54-3.43-1.75-.04,0-.08,0-.12.03-.04.03-.06.07-.07.11,0,.09.05.17.14.18,1.23.2,2.35.77,3.24,1.66h0,0,0Z"/>
      </g>
      <g>
        <path class="cls-1" d="M9.29,17.74c-2.3.03-4.53-.88-6.16-2.51-1.63-1.63-2.53-3.86-2.51-6.15,0-.14-.11-.26-.25-.27-.15,0-.27.11-.27.26-.03,2.44.93,4.81,2.66,6.53,1.7,1.7,4.03,2.66,6.43,2.66.04,0,.08,0,.12,0,.15,0,.26-.13.26-.28h0c0-.14-.12-.25-.27-.25Z"/>
        <path class="cls-1" d="M9.19,18.37c-2.42,0-4.79-.98-6.5-2.69S-.03,11.53,0,9.07c0-.1.04-.19.11-.25.07-.07.17-.1.27-.1.19,0,.35.17.34.37-.03,2.27.88,4.48,2.48,6.08,1.6,1.6,3.82,2.51,6.09,2.48h0c.2,0,.35.15.36.34,0,.1-.03.19-.1.27-.07.07-.16.11-.25.11h-.12ZM.36,8.91s-.08.02-.11.05c-.03.03-.05.07-.05.11-.03,2.41.93,4.76,2.63,6.46,1.67,1.67,3.99,2.63,6.36,2.63h.11s.08-.02.11-.05c.03-.03.05-.08.05-.12,0-.09-.08-.15-.17-.15h0c-2.32.04-4.6-.9-6.23-2.54-1.64-1.64-2.56-3.91-2.54-6.22,0-.09-.07-.16-.16-.17,0,0,0,0,0,0ZM9.29,17.74h0,0Z"/>
      </g>
      <g>
        <path class="cls-1" d="M8.69.11c-.15,0-.26.14-.24.29.01.14.14.25.28.24,2.43-.13,4.79.77,6.52,2.49,1.75,1.75,2.65,4.15,2.49,6.61,0,.14.09.27.23.28h0c.15.01.28-.1.29-.24.17-2.62-.78-5.16-2.64-7.02C13.78.93,11.27-.03,8.69.11Z"/>
        <path class="cls-1" d="M17.99,10.12s-.02,0-.03,0c-.19-.02-.34-.19-.32-.38.16-2.43-.74-4.81-2.46-6.53-1.7-1.7-4.05-2.6-6.44-2.47-.2.02-.36-.13-.38-.33,0-.1.02-.2.09-.27.06-.07.15-.12.25-.12h0c2.6-.14,5.15.83,7,2.68,1.87,1.87,2.84,4.46,2.67,7.1,0,.1-.05.18-.13.25-.07.06-.15.09-.24.09ZM9.18.52c2.29,0,4.5.91,6.13,2.54,1.76,1.76,2.68,4.2,2.52,6.69,0,.09.06.17.15.18.04,0,.09,0,.12-.04.03-.03.05-.07.06-.11.17-2.58-.78-5.11-2.61-6.94C13.73,1.03,11.24.07,8.69.21h0s-.08.02-.11.06c-.03.03-.04.08-.04.12,0,.09.09.15.17.15.16,0,.31-.01.47-.01Z"/>
      </g>
    </g>
  </g>
</svg>