<?xml version="1.0" encoding="UTF-8"?>
<svg id="Layer_2" data-name="Layer 2" xmlns="http://www.w3.org/2000/svg" viewBox="0 0 19.59 19.59">
  <defs>
    <style>
      .cls-1 {
        fill: #1f1f1f;
      }
    </style>
  </defs>
  <g id="Object">
    <g>
      <path class="cls-1" d="M19.49,19.23V.36c0-.14-.12-.26-.26-.26H.36C.22.1.1.22.1.36v18.87c0,.14.12.26.26.26h6.79s.2,0,.2,0h11.88c.14,0,.26-.12.26-.26ZM7.09.63v18.34H.62V.62h6.47s0,0,0,0ZM18.97,18.97H7.61v-8.65h11.36v8.65ZM18.97,9.8H7.61V.63s0,0,0,0h11.36v9.17Z"/>
      <path class="cls-1" d="M19.23,19.59H7.35s-.13,0-.18,0c0,0-.01,0-.02,0H.36c-.2,0-.36-.16-.36-.36V.36c0-.2.16-.36.36-.36h18.87c.2,0,.36.16.36.36v18.87c0,.2-.16.36-.36.36ZM7.21,19.39s.08,0,.15,0h11.88c.09,0,.16-.07.16-.16V.36c0-.09-.07-.16-.16-.16H.36c-.09,0-.16.07-.16.16v18.87c0,.09.07.16.16.16h6.78s.04,0,.07,0ZM18.97,19.07H7.61c-.05,0-.1-.04-.1-.1v-8.65c0-.05.04-.1.1-.1h11.36c.05,0,.1.04.1.1v8.65c0,.05-.04.1-.1.1ZM7.71,18.87h11.16v-8.45H7.71v8.45ZM7.09,19.07H.62c-.05,0-.1-.04-.1-.1V.62c0-.05.04-.1.1-.1h6.47s.06.01.07.03c.02.02.03.05.02.08h0s0,18.33,0,18.33c0,.05-.04.1-.1.1ZM.72,18.87h6.27V.72H.72v18.15ZM18.97,9.89H7.61c-.05,0-.1-.04-.1-.1V.64s0,0,0-.01c0-.05.04-.1.1-.1h11.36c.05,0,.1.04.1.1v9.17c0,.05-.04.1-.1.1ZM7.71,9.7h11.16V.72H7.71v8.98Z"/>
    </g>
  </g>
</svg>