<?xml version="1.0" encoding="UTF-8"?>
<svg id="Layer_2" data-name="Layer 2" xmlns="http://www.w3.org/2000/svg" viewBox="0 0 19.18 19.25">
  <defs>
    <style>
      .cls-1 {
        fill: #1f1f1f;
      }
    </style>
  </defs>
  <g id="Object">
    <g>
      <g>
        <path class="cls-1" d="M12.96,11.39c-.1-.1-.27-.1-.37,0l-1.46,1.46-4.66-4.66,1.52-1.52c.1-.1.1-.27,0-.37l-3.34-3.34c-.1-.1-.27-.1-.37,0L.17,7.08c-.1.1-.1.27,0,.37l9.82,9.82c.1.1.27.1.37,0,.1-.1.1-.27,0-.37L.73,7.27l2.68-2.68,2.97,2.97-.46.46c-.1.1-.1.27,0,.37l5.03,5.03c.1.1.27.1.37,0l.49-.49,3.03,3.03-2.74,2.74c-.1.1-.1.27,0,.37h0c.1.1.27.1.37,0l3.92-3.92c.1-.1.1-.27,0-.37l-3.43-3.39ZM3.79,4.21l.68-.68,2.97,2.97-.68.68-2.96-2.97ZM15.21,15.59l-3.03-3.03.6-.6,3.05,3.02-.62.62Z"/>
        <path class="cls-1" d="M12.28,19.25c-.09,0-.18-.04-.25-.11-.07-.07-.11-.16-.11-.25s.04-.19.11-.26l2.68-2.68-2.9-2.9-.42.42c-.14.14-.37.14-.51,0l-5.03-5.03c-.07-.07-.11-.16-.11-.25s.04-.19.11-.26l.39-.39-2.83-2.83L.87,7.27l9.57,9.57c.07.07.11.16.11.26s-.04.19-.11.25c-.14.14-.37.14-.51,0L.11,7.52c-.07-.07-.11-.16-.11-.25s.04-.19.11-.26L4.21,2.9c.07-.07.16-.11.25-.11h0c.1,0,.19.04.25.11l3.34,3.34c.07.07.11.16.11.26s-.04.19-.11.25l-1.45,1.45,4.52,4.52,1.39-1.39c.14-.14.37-.14.51,0h0l3.43,3.39c.07.07.11.16.11.26,0,.1-.04.19-.11.26l-3.92,3.92c-.07.07-.16.11-.25.11ZM11.8,12.82s.05,0,.07.03l3.03,3.03s.03.04.03.07-.01.05-.03.07l-2.74,2.74s-.05.07-.05.12.02.08.05.12c.06.06.17.06.23,0l3.92-3.92s.05-.07.05-.12c0-.04-.02-.09-.05-.12l-3.43-3.39c-.06-.06-.17-.06-.23,0l-1.46,1.46s-.1.04-.14,0l-4.66-4.66s-.04-.1,0-.14l1.52-1.52s.05-.07.05-.12-.02-.08-.05-.12l-3.34-3.34s-.07-.05-.12-.05h0s-.08.02-.12.05L.24,7.15s-.05.07-.05.12.02.08.05.12l9.82,9.82c.06.06.17.06.23,0,.03-.03.05-.07.05-.12s-.02-.09-.05-.12L.66,7.34s-.04-.1,0-.14l2.68-2.68s.1-.04.14,0l2.97,2.97s.03.04.03.07-.01.05-.03.07l-.46.46s-.05.07-.05.12.02.08.05.12l5.03,5.03c.06.06.17.06.23,0l.49-.49s.04-.03.07-.03ZM15.21,15.68s-.05-.01-.07-.03l-3.03-3.03s-.04-.1,0-.14l.6-.6s.1-.04.14,0l3.05,3.02s.03.04.03.07-.01.05-.03.07l-.62.62s-.04.03-.07.03ZM12.31,12.55l2.9,2.9.48-.48-2.91-2.88-.46.46ZM6.75,7.28s-.05,0-.07-.03l-2.97-2.97s-.04-.1,0-.14l.68-.68s.1-.04.14,0l2.97,2.96s.04.1,0,.14l-.68.68s-.04.03-.07.03ZM3.92,4.21l2.83,2.83.54-.54-2.83-2.83-.54.54Z"/>
      </g>
      <g>
        <path class="cls-1" d="M15.78,8.34c.02.14.15.24.29.22.15-.02.25-.15.23-.3-.22-1.3-.82-2.49-1.77-3.43-.96-.96-2.16-1.57-3.48-1.78-.15-.02-.28.08-.3.23h0c-.02.14.08.27.22.29,1.21.19,2.31.75,3.18,1.63.86.86,1.42,1.94,1.62,3.14Z"/>
        <path class="cls-1" d="M16.04,8.66c-.17,0-.33-.13-.35-.31h0c-.2-1.17-.75-2.24-1.59-3.08-.86-.86-1.94-1.41-3.13-1.6-.19-.03-.33-.2-.31-.4.01-.1.06-.19.14-.25.08-.06.17-.08.27-.07,1.34.21,2.57.84,3.53,1.8.95.96,1.58,2.16,1.8,3.48.02.1,0,.19-.07.27-.06.08-.15.13-.25.14-.01,0-.03,0-.04,0ZM15.88,8.32c.01.09.09.15.18.14.04,0,.09-.03.11-.07.03-.04.04-.08.03-.12-.21-1.28-.81-2.45-1.74-3.38-.94-.94-2.12-1.54-3.43-1.75-.04,0-.08,0-.12.03-.04.03-.06.07-.07.11-.01.09.05.17.14.18,1.23.2,2.35.77,3.24,1.66.88.88,1.44,1.98,1.65,3.19h0Z"/>
      </g>
      <g>
        <path class="cls-1" d="M11.3,5.41c-.13-.07-.29-.01-.36.12h0c-.06.13,0,.28.12.34.51.27.98.62,1.39,1.03.4.4.74.86,1.01,1.36.07.13.22.18.35.12.13-.06.19-.23.12-.36-.29-.55-.66-1.05-1.11-1.49-.45-.45-.97-.83-1.53-1.13Z"/>
        <path class="cls-1" d="M13.71,8.5c-.13,0-.25-.07-.32-.19-.26-.49-.6-.94-.99-1.34-.41-.41-.87-.75-1.37-1.01-.17-.09-.24-.3-.16-.47.04-.09.12-.16.21-.19.09-.03.19-.02.28.02.57.3,1.09.68,1.55,1.14.45.45.83.96,1.12,1.51.05.08.05.18.02.28-.03.09-.1.17-.19.22-.05.02-.1.04-.15.04ZM11.19,5.47s-.03,0-.05,0c-.04.01-.08.05-.1.09-.04.08,0,.17.08.22.52.27,1,.63,1.42,1.05.41.41.76.88,1.03,1.38.04.08.14.11.22.07.04-.02.07-.06.09-.1.01-.04.01-.08,0-.12-.29-.54-.65-1.03-1.09-1.47-.45-.45-.95-.82-1.5-1.11h0s-.05-.02-.07-.02Z"/>
      </g>
      <g>
        <path class="cls-1" d="M9.5.11c-.15,0-.26.14-.25.29.01.14.14.25.28.24,2.43-.13,4.79.77,6.52,2.49,1.75,1.75,2.65,4.15,2.49,6.61,0,.14.09.27.23.28h0c.15.01.28-.1.29-.24.17-2.62-.78-5.16-2.64-7.02C14.59.93,12.08-.03,9.5.11Z"/>
        <path class="cls-1" d="M18.8,10.12s-.02,0-.03,0c-.19-.02-.34-.19-.32-.38.16-2.43-.74-4.81-2.46-6.54-1.7-1.7-4.05-2.59-6.44-2.47-.2.01-.36-.13-.38-.33,0-.1.02-.2.09-.27.06-.07.15-.12.25-.12h0c2.6-.15,5.15.83,7,2.68,1.87,1.87,2.84,4.46,2.67,7.1,0,.1-.05.18-.13.25-.07.06-.15.09-.24.09ZM9.99.52c2.29,0,4.5.91,6.13,2.54,1.76,1.76,2.68,4.2,2.52,6.69,0,.09.06.17.15.18.04,0,.09,0,.12-.04.03-.03.05-.07.06-.11.17-2.58-.78-5.11-2.61-6.94C14.55,1.03,12.05.07,9.5.21c-.04,0-.08.02-.11.06-.03.03-.04.08-.04.12,0,.09.09.15.17.15.16,0,.31-.01.47-.01Z"/>
      </g>
    </g>
  </g>
</svg>