<?xml version="1.0" encoding="UTF-8"?>
<svg id="Layer_2" data-name="Layer 2" xmlns="http://www.w3.org/2000/svg" viewBox="0 0 19.43 19.26">
  <defs>
    <style>
      .cls-1 {
        fill: #1f1f1f;
      }
    </style>
  </defs>
  <g id="Object">
    <g>
      <g>
        <path class="cls-1" d="M9.71,19.17s-.05,0-.08-.01L.29,16.36c-.11-.03-.19-.14-.19-.25V2.72c0-.08.04-.16.1-.21.06-.05.15-.07.23-.04l9.29,2.51,9.29-2.51c.08-.02.16,0,.23.04.06.05.1.13.1.21v13.83c0,.12-.08.22-.2.25l-9.35,2.36s-.04,0-.06,0ZM.62,15.91l9.1,2.72,9.09-2.29V3.06l-9.02,2.44s-.09.01-.14,0L.62,3.06v12.85Z"/>
        <path class="cls-1" d="M9.71,19.26s-.07,0-.1-.02L.26,16.45C.11,16.41,0,16.27,0,16.11V2.72c0-.11.05-.22.14-.29.09-.07.2-.09.31-.06l9.26,2.51,9.26-2.51c.11-.03.22,0,.31.06.09.07.14.17.14.29v13.83c0,.17-.11.31-.27.35l-9.35,2.36s-.06.01-.09.01ZM.36,2.56s-.07.01-.1.03c-.04.03-.06.08-.06.13v13.39c0,.07.05.14.12.16l9.35,2.8s.06,0,.09,0l9.35-2.36c.07-.02.12-.08.12-.16V2.72c0-.05-.02-.1-.06-.13-.04-.03-.09-.04-.14-.03l-9.29,2.51s-.03,0-.05,0L.4,2.56s-.03,0-.04,0ZM9.72,18.73s-.02,0-.03,0L.59,16.01s-.07-.05-.07-.09V3.06s.01-.06.04-.08c.02-.02.06-.03.09-.02l9.02,2.44s.06,0,.09,0l9.02-2.44s.06,0,.09.02.04.05.04.08v13.28s-.03.08-.07.1l-9.09,2.29s-.02,0-.02,0ZM.72,15.84l9,2.69,8.99-2.27V3.19l-8.9,2.41c-.06.02-.13.02-.19,0L.72,3.19v12.65Z"/>
      </g>
      <g>
        <path class="cls-1" d="M19.07,2.98s-.04,0-.06,0L9.71.63.42,2.97c-.14.04-.28-.05-.32-.19-.04-.14.05-.28.19-.32L9.65.11s.09-.01.13,0l9.35,2.36c.14.04.23.18.19.32-.03.12-.14.2-.25.2Z"/>
        <path class="cls-1" d="M19.07,3.08s-.06,0-.09-.01L9.71.73.45,3.07c-.19.05-.39-.07-.44-.26-.02-.09,0-.19.04-.27.05-.08.13-.14.22-.16L9.63.01c.06-.01.12-.01.18,0l9.35,2.36c.09.02.17.08.22.16.05.08.06.18.04.27-.04.16-.18.27-.35.27ZM9.71.53s.02,0,.02,0l9.29,2.34c.08.02.18-.03.2-.12.01-.04,0-.09-.02-.12-.02-.04-.06-.06-.1-.07L9.75.2s-.05,0-.08,0L.32,2.56s-.08.04-.1.07c-.02.04-.03.08-.02.12.02.09.11.14.2.12L9.69.54s.02,0,.02,0Z"/>
      </g>
      <g>
        <path class="cls-1" d="M9.71,19.17c-.14,0-.26-.12-.26-.26V5.25c0-.14.12-.26.26-.26s.26.12.26.26v13.65c0,.14-.12.26-.26.26Z"/>
        <path class="cls-1" d="M9.71,19.26c-.2,0-.36-.16-.36-.36V5.25c0-.2.16-.36.36-.36s.36.16.36.36v13.65c0,.2-.16.36-.36.36ZM9.71,5.09c-.09,0-.16.07-.16.16v13.65c0,.09.07.16.16.16s.16-.07.16-.16V5.25c0-.09-.07-.16-.16-.16Z"/>
      </g>
      <g>
        <path class="cls-1" d="M13.95,4.37s-.05,0-.08-.01L5.92,1.79c-.14-.04-.21-.19-.17-.33.04-.14.19-.21.33-.17l7.95,2.57c.14.04.21.19.17.33-.04.11-.14.18-.25.18Z"/>
        <path class="cls-1" d="M13.95,4.47s-.07,0-.11-.02L5.89,1.88c-.09-.03-.17-.09-.21-.18-.04-.09-.05-.18-.02-.28.06-.19.26-.29.45-.23l7.95,2.57c.09.03.17.09.21.18.04.09.05.18.02.28-.05.15-.19.25-.34.25ZM6,1.38c-.07,0-.13.04-.15.11-.01.04,0,.09.01.13.02.04.05.07.1.08l7.95,2.57c.09.03.18-.02.21-.11.01-.04,0-.09-.01-.13-.02-.04-.05-.07-.1-.08L6.05,1.38s-.03,0-.05,0Z"/>
      </g>
    </g>
  </g>
</svg>