<?xml version="1.0" encoding="UTF-8"?>
<svg id="Layer_2" data-name="Layer 2" xmlns="http://www.w3.org/2000/svg" viewBox="0 0 19.19 19.4">
  <defs>
    <style>
      .cls-1 {
        fill: #1f1f1f;
      }
    </style>
  </defs>
  <g id="Object">
    <g>
      <path class="cls-1" d="M1.86,5.22c-.4-.4-1.03-.43-1.43-.07-.21.19-.33.45-.34.73,0,.28.1.55.3.74l1.97,1.97,2.36,2.83c-.38.4-.59.92-.59,1.48s.22,1.11.63,1.51c.42.42.96.62,1.51.62s1.06-.2,1.48-.59l2.82,2.35,2.2,2.2c.19.19.45.3.72.3.03,0,.06,0,.09,0,.3-.03.57-.18.75-.43.28-.4.22-.97-.15-1.33l-.58-.58c-.77-.77-.77-2.03,0-2.81l3.72-3.72c2.3-2.3,2.35-5.99.18-8.36l.66-.66c.1-.1.1-.27,0-.37s-.27-.1-.37,0l-.66.66c-2.37-2.17-6.06-2.12-8.36.18l-3.72,3.72c-.77.77-2.03.77-2.81,0l-.37-.37ZM5.13,14.05c-.3-.3-.47-.71-.47-1.14,0-.4.15-.78.41-1.07l.34.41c.46.55.97,1.06,1.52,1.52l.41.34c-.63.56-1.6.55-2.21-.06ZM5.41,5.97l3.72-3.72c2.09-2.09,5.45-2.15,7.62-.18l-1.27,1.27c-.1.1-.1.27,0,.37.05.05.12.08.19.08s.13-.03.19-.08l1.27-1.27c1.97,2.17,1.92,5.53-.18,7.62l-3.72,3.72c-.98.98-.98,2.57,0,3.55l.58.58h0c.18.18.22.47.09.66-.09.12-.22.2-.36.21-.14.01-.29-.04-.39-.14l-2.22-2.22-3.65-3.04c-.53-.44-1.01-.93-1.45-1.45l-3.06-3.67-1.99-1.99c-.1-.1-.15-.22-.14-.36,0-.14.06-.26.16-.35.09-.08.2-.12.31-.12.14,0,.28.06.39.16l.37.37c.98.98,2.57.98,3.55,0Z"/>
      <path class="cls-1" d="M13.49,19.4c-.3,0-.58-.12-.79-.33l-2.2-2.2-2.74-2.29c-.41.36-.93.56-1.48.56-.6,0-1.16-.23-1.58-.65-.42-.42-.65-.98-.65-1.58,0-.55.2-1.07.56-1.48l-2.31-2.77-1.97-1.97C.11,6.48,0,6.19,0,5.88c0-.31.14-.59.37-.8.44-.4,1.13-.37,1.56.07h0s.37.37.37.37c.74.74,1.93.74,2.67,0l3.72-3.72c2.31-2.31,5.99-2.41,8.42-.24l.59-.59c.14-.14.37-.14.51,0,.14.14.14.37,0,.51l-.59.59c2.17,2.43,2.07,6.12-.24,8.42l-3.72,3.72c-.74.74-.74,1.93,0,2.67l.58.58c.4.4.46,1.02.16,1.45-.19.27-.49.44-.82.47-.03,0-.06,0-.1,0ZM7.75,14.36s.04,0,.06.02l2.82,2.35,2.21,2.21c.19.19.46.28.73.27.27-.02.52-.17.67-.39.25-.36.19-.87-.14-1.2l-.58-.58c-.81-.81-.81-2.14,0-2.95l3.72-3.72c2.26-2.26,2.33-5.87.17-8.22-.04-.04-.03-.1,0-.14l.66-.66c.06-.06.06-.17,0-.23-.06-.06-.17-.06-.23,0l-.66.66s-.1.04-.14,0c-2.35-2.16-5.97-2.08-8.22.17l-3.72,3.72c-.81.81-2.13.81-2.95,0l-.37-.37h0c-.36-.36-.93-.39-1.29-.06-.19.17-.3.4-.3.66,0,.25.09.5.27.67l1.97,1.97,2.37,2.84s.03.09,0,.13c-.37.38-.57.88-.57,1.41s.21,1.06.6,1.44c.38.38.9.6,1.44.6s1.03-.2,1.41-.57c.02-.02.04-.03.07-.03ZM13.49,18.88c-.16,0-.31-.06-.42-.17l-2.22-2.22-3.64-3.04c-.53-.44-1.02-.93-1.47-1.47l-3.06-3.67-1.98-1.98c-.12-.12-.18-.27-.17-.43,0-.16.07-.31.2-.42.22-.2.62-.17.84.05l.37.37c.45.45,1.06.71,1.71.71s1.25-.25,1.71-.71h0s3.72-3.72,3.72-3.72C11.19.05,14.59-.03,16.82,1.99c.02.02.03.04.03.07,0,.03,0,.05-.03.07l-1.27,1.27c-.06.06-.06.17,0,.23.06.06.17.06.23,0l1.27-1.27s.04-.03.07-.03c.03,0,.05.01.07.03,2.02,2.22,1.94,5.63-.18,7.75l-3.72,3.72c-.94.94-.94,2.47,0,3.41l.58.58c.22.22.26.55.1.78-.1.15-.26.24-.44.25-.02,0-.03,0-.05,0ZM1.1,5.53c-.09,0-.18.03-.25.09-.08.07-.13.17-.13.28,0,.11.04.21.12.29l1.99,1.99,3.07,3.68c.43.52.92,1.01,1.44,1.44l3.65,3.04,2.23,2.23c.08.08.19.12.31.11.12-.01.22-.07.29-.17.11-.15.07-.38-.08-.53l-.58-.58c-1.02-1.02-1.02-2.67,0-3.69l3.72-3.72c2.02-2.02,2.12-5.26.24-7.4l-1.2,1.2c-.14.14-.37.14-.51,0-.14-.14-.14-.37,0-.51l1.2-1.2c-2.15-1.88-5.38-1.78-7.4.24l-3.72,3.72c-.49.49-1.15.76-1.84.76s-1.35-.27-1.84-.76l-.37-.37c-.09-.09-.2-.14-.32-.14ZM6.27,14.62c-.44,0-.87-.17-1.2-.5-.32-.32-.5-.75-.5-1.21,0-.42.15-.82.43-1.14.02-.02.04-.04.07-.03.03,0,.06.01.07.04l.34.41c.46.55.96,1.05,1.51,1.51l.41.34s.03.05.04.07c0,.03-.01.06-.03.08-.33.29-.73.43-1.14.43ZM5.07,12c-.2.26-.31.58-.31.92,0,.4.16.78.44,1.07.54.54,1.39.58,1.98.13l-.32-.26c-.55-.46-1.07-.98-1.53-1.53l-.27-.32Z"/>
    </g>
  </g>
</svg>