<?xml version="1.0" encoding="UTF-8"?>
<svg id="Layer_2" data-name="Layer 2" xmlns="http://www.w3.org/2000/svg" viewBox="0 0 19.03 19.5">
  <defs>
    <style>
      .cls-1 {
        fill: #1f1f1f;
      }
    </style>
  </defs>
  <g id="Object">
    <g>
      <g>
        <path class="cls-1" d="M14.09,2.52c-.32,0-.64.04-.97.11C12.25,1.06,10.64.1,8.88.1,6.62.1,4.66,1.69,4.14,3.92c-.12-.01-.24-.02-.35-.02C1.76,3.9.1,5.6.1,7.69c0,.97.37,2.71,1.05,3.43.05.05.12.08.19.08h16.51c.09,0,.17-.04.22-.12.56-.83.86-2.62.86-3.6,0-2.73-2.17-4.96-4.84-4.96ZM17.71,10.67H1.46c-.48-.6-.84-2.03-.84-2.99,0-1.8,1.42-3.26,3.17-3.26.16,0,.32.02.51.05.14.02.28-.07.3-.21.39-2.11,2.18-3.64,4.27-3.64,1.63,0,3.11.93,3.87,2.43.06.11.18.17.3.14.35-.09.71-.14,1.05-.14,2.38,0,4.31,1.99,4.31,4.43,0,.97-.28,2.46-.69,3.19Z"/>
        <path class="cls-1" d="M17.85,11.29H1.34c-.1,0-.19-.04-.26-.11-.7-.74-1.08-2.5-1.08-3.5,0-2.14,1.7-3.88,3.79-3.88.09,0,.18,0,.27.01.57-2.25,2.53-3.81,4.81-3.81,1.76,0,3.4.96,4.29,2.52.31-.06.62-.09.92-.09,2.72,0,4.94,2.27,4.94,5.06,0,.99-.3,2.81-.87,3.65-.07.1-.18.16-.3.16ZM3.79,4C1.81,4,.2,5.65.2,7.69c0,.96.36,2.66,1.02,3.36.03.03.07.05.12.05h16.51c.05,0,.11-.03.14-.07.55-.81.84-2.58.84-3.54,0-2.68-2.13-4.86-4.74-4.86-.31,0-.63.03-.95.1-.04,0-.09-.01-.11-.05C12.18,1.15,10.59.2,8.88.2,6.66.2,4.75,1.74,4.24,3.94c-.01.05-.06.08-.11.08-.12-.01-.23-.02-.34-.02ZM17.71,10.77H1.46s-.06-.01-.08-.04c-.51-.64-.86-2.09-.86-3.05,0-1.85,1.47-3.36,3.27-3.36.16,0,.33.02.53.05.09.02.17-.04.19-.13.4-2.16,2.23-3.72,4.37-3.72,1.67,0,3.19.95,3.95,2.48.03.07.11.1.19.08.36-.09.72-.14,1.07-.14,2.43,0,4.41,2.03,4.41,4.53,0,.96-.27,2.47-.71,3.24-.02.03-.05.05-.09.05ZM1.51,10.57h16.14c.39-.73.65-2.17.65-3.09,0-2.39-1.89-4.34-4.22-4.34-.33,0-.67.05-1.02.13-.16.04-.34-.04-.41-.19-.74-1.46-2.18-2.37-3.78-2.37-2.04,0-3.8,1.5-4.18,3.56-.04.19-.22.32-.41.29-.18-.03-.34-.05-.49-.05-1.69,0-3.07,1.42-3.07,3.16,0,.88.32,2.27.79,2.89Z"/>
      </g>
      <g>
        <path class="cls-1" d="M9.51,11.76c-.14,0-.26.12-.26.26v7.11c0,.14.12.26.26.26s.26-.12.26-.26v-7.11c0-.14-.12-.26-.26-.26Z"/>
        <path class="cls-1" d="M9.51,19.5c-.2,0-.36-.16-.36-.36v-7.11c0-.2.16-.36.36-.36s.36.16.36.36v7.11c0,.2-.16.36-.36.36ZM9.51,11.86c-.09,0-.16.07-.16.16v7.11c0,.09.07.16.16.16s.16-.07.16-.16v-7.11c0-.09-.07-.16-.16-.16Z"/>
      </g>
      <g>
        <path class="cls-1" d="M7.15,14.03c-.14,0-.26.12-.26.26v2.49c0,.14.12.26.26.26s.26-.12.26-.26v-2.49c0-.14-.12-.26-.26-.26Z"/>
        <path class="cls-1" d="M7.15,17.15c-.2,0-.36-.16-.36-.36v-2.49c0-.2.16-.36.36-.36s.36.16.36.36v2.49c0,.2-.16.36-.36.36ZM7.15,14.13c-.09,0-.16.07-.16.16v2.49c0,.09.07.16.16.16s.16-.07.16-.16v-2.49c0-.09-.07-.16-.16-.16Z"/>
      </g>
      <g>
        <path class="cls-1" d="M11.7,11.76c-.14,0-.26.12-.26.26v2.27c0,.14.12.26.26.26s.26-.12.26-.26v-2.27c0-.14-.12-.26-.26-.26Z"/>
        <path class="cls-1" d="M11.7,14.66c-.2,0-.36-.16-.36-.36v-2.27c0-.2.16-.36.36-.36s.36.16.36.36v2.27c0,.2-.16.36-.36.36ZM11.7,11.86c-.09,0-.16.07-.16.16v2.27c0,.09.07.16.16.16s.16-.07.16-.16v-2.27c0-.09-.07-.16-.16-.16Z"/>
      </g>
      <g>
        <path class="cls-1" d="M4.53,11.76c-.14,0-.26.12-.26.26v4.76c0,.14.12.26.26.26s.26-.12.26-.26v-4.76c0-.14-.12-.26-.26-.26Z"/>
        <path class="cls-1" d="M4.53,17.15c-.2,0-.36-.16-.36-.36v-4.76c0-.2.16-.36.36-.36s.36.16.36.36v4.76c0,.2-.16.36-.36.36ZM4.53,11.86c-.09,0-.16.07-.16.16v4.76c0,.09.07.16.16.16s.16-.07.16-.16v-4.76c0-.09-.07-.16-.16-.16Z"/>
      </g>
      <g>
        <path class="cls-1" d="M14.49,11.76c-.14,0-.26.12-.26.26v4.15c0,.14.12.26.26.26s.26-.12.26-.26v-4.15c0-.14-.12-.26-.26-.26Z"/>
        <path class="cls-1" d="M14.49,16.54c-.2,0-.36-.16-.36-.36v-4.15c0-.2.16-.36.36-.36s.36.16.36.36v4.15c0,.2-.16.36-.36.36ZM14.49,11.86c-.09,0-.16.07-.16.16v4.15c0,.09.07.16.16.16s.16-.07.16-.16v-4.15c0-.09-.07-.16-.16-.16Z"/>
      </g>
    </g>
  </g>
</svg>