<?xml version="1.0" encoding="UTF-8"?>
<svg id="Layer_2" data-name="Layer 2" xmlns="http://www.w3.org/2000/svg" viewBox="0 0 12.59 15.44">
  <defs>
    <style>
      .cls-1 {
        fill: #1f1f1f;
      }
    </style>
  </defs>
  <g id="Object">
    <g>
      <g>
        <path class="cls-1" d="M.36,15.34h11.87c.14,0,.26-.12.26-.26V3.55c0-.07-.03-.14-.08-.19L9.11.18h0s0,0,0,0c-.01-.01-.03-.02-.04-.03-.01,0-.03-.02-.04-.03-.03-.01-.07-.02-.1-.02H.36C.22.1.1.22.1.36v14.72c0,.14.12.26.26.26ZM9.18.98l2.4,2.31h-2.4V.98ZM.62.62h8.04v2.93c0,.14.12.26.26.26h3.05v11H.62V.62Z"/>
        <path class="cls-1" d="M12.23,15.44H.36c-.2,0-.36-.16-.36-.36V.36c0-.2.16-.36.36-.36h8.56s.09,0,.14.03c.02,0,.04.02.05.03.03.02.04.03.06.04l3.31,3.19c.07.07.11.16.11.26v11.53c0,.2-.16.36-.36.36ZM.36.2c-.09,0-.16.07-.16.16v14.72c0,.09.07.16.16.16h11.87c.09,0,.16-.07.16-.16V3.55s-.02-.09-.05-.12L9.04.25s-.03-.02-.03-.02l-.03-.02s-.04-.01-.06-.01H.36ZM11.97,14.91H.62c-.05,0-.1-.04-.1-.1V.62c0-.05.04-.1.1-.1h8.04c.05,0,.1.04.1.1v2.93c0,.09.07.16.16.16h3.05c.05,0,.1.04.1.1v11c0,.05-.04.1-.1.1ZM.72,14.72h11.15V3.91h-2.95c-.2,0-.36-.16-.36-.36V.72H.72v14ZM11.58,3.39h-2.4c-.05,0-.1-.04-.1-.1V.98s.02-.08.06-.09c.04-.02.08,0,.11.02l2.4,2.31s.04.07.02.11c-.02.04-.05.06-.09.06ZM9.28,3.19h2.06l-2.06-1.98v1.98Z"/>
      </g>
      <g>
        <path class="cls-1" d="M8.75,7.57h-2.19v-2.28c0-.14-.12-.26-.26-.26s-.26.12-.26.26v2.28h-2.19c-.14,0-.26.12-.26.26s.12.26.26.26h2.19v2.05c0,.14.12.26.26.26s.26-.12.26-.26v-2.05h2.19c.14,0,.26-.12.26-.26s-.12-.26-.26-.26Z"/>
        <path class="cls-1" d="M6.3,10.51c-.2,0-.36-.16-.36-.36v-1.95h-2.1c-.2,0-.36-.16-.36-.36s.16-.36.36-.36h2.1v-2.18c0-.2.16-.36.36-.36s.36.16.36.36v2.18h2.1c.2,0,.36.16.36.36s-.16.36-.36.36h-2.1v1.95c0,.2-.16.36-.36.36ZM3.84,7.67c-.09,0-.16.07-.16.16s.07.16.16.16h2.19c.05,0,.1.04.1.1v2.05c0,.09.07.16.16.16s.16-.07.16-.16v-2.05c0-.05.04-.1.1-.1h2.19c.09,0,.16-.07.16-.16s-.07-.16-.16-.16h-2.19c-.05,0-.1-.04-.1-.1v-2.28c0-.09-.07-.16-.16-.16s-.16.07-.16.16v2.28c0,.05-.04.1-.1.1h-2.19Z"/>
      </g>
    </g>
  </g>
</svg>