<?xml version="1.0" encoding="UTF-8"?>
<svg id="Layer_2" data-name="Layer 2" xmlns="http://www.w3.org/2000/svg" viewBox="0 0 19.02 19.01">
  <defs>
    <style>
      .cls-1 {
        fill: #1f1f1f;
      }
    </style>
  </defs>
  <g id="Object">
    <g>
      <g>
        <path class="cls-1" d="M11.55,9.49h-4.3c-.14,0-.26.12-.26.26v8.9c0,.14.12.26.26.26h4.3c.14,0,.26-.12.26-.26v-8.9c0-.14-.12-.26-.26-.26ZM11.28,18.39h-3.78v-8.37h3.78v8.37Z"/>
        <path class="cls-1" d="M11.55,19.01h-4.3c-.2,0-.36-.16-.36-.36v-8.9c0-.2.16-.36.36-.36h4.3c.2,0,.36.16.36.36v8.9c0,.2-.16.36-.36.36ZM7.24,9.59c-.09,0-.16.07-.16.16v8.9c0,.09.07.16.16.16h4.3c.09,0,.16-.07.16-.16v-8.9c0-.09-.07-.16-.16-.16h-4.3ZM11.28,18.48h-3.78c-.05,0-.1-.04-.1-.1v-8.37c0-.05.04-.1.1-.1h3.78c.05,0,.1.04.1.1v8.37c0,.05-.04.1-.1.1ZM7.61,18.29h3.58v-8.18h-3.58v8.18Z"/>
      </g>
      <g>
        <path class="cls-1" d="M18.65,4.78h-4.3c-.14,0-.26.12-.26.26v13.61c0,.14.12.26.26.26h4.3c.14,0,.26-.12.26-.26V5.04c0-.14-.12-.26-.26-.26ZM18.39,18.39h-3.78V5.3h3.78v13.08Z"/>
        <path class="cls-1" d="M18.65,19.01h-4.3c-.2,0-.36-.16-.36-.36V5.04c0-.2.16-.36.36-.36h4.3c.2,0,.36.16.36.36v13.61c0,.2-.16.36-.36.36ZM14.35,4.88c-.09,0-.16.07-.16.16v13.61c0,.09.07.16.16.16h4.3c.09,0,.16-.07.16-.16V5.04c0-.09-.07-.16-.16-.16h-4.3ZM18.39,18.48h-3.78c-.05,0-.1-.04-.1-.1V5.3c0-.05.04-.1.1-.1h3.78c.05,0,.1.04.1.1v13.08c0,.05-.04.1-.1.1ZM14.71,18.29h3.58V5.4h-3.58v12.89Z"/>
      </g>
      <g>
        <path class="cls-1" d="M4.66,4.78H.36c-.14,0-.26.12-.26.26v13.61c0,.14.12.26.26.26h4.3c.14,0,.26-.12.26-.26V5.04c0-.14-.12-.26-.26-.26ZM4.4,18.39H.62V5.3h3.78v13.08Z"/>
        <path class="cls-1" d="M4.66,19.01H.36c-.2,0-.36-.16-.36-.36V5.04c0-.2.16-.36.36-.36h4.3c.2,0,.36.16.36.36v13.61c0,.2-.16.36-.36.36ZM.36,4.88c-.09,0-.16.07-.16.16v13.61c0,.09.07.16.16.16h4.3c.09,0,.16-.07.16-.16V5.04c0-.09-.07-.16-.16-.16H.36ZM4.4,18.48H.62c-.05,0-.1-.04-.1-.1V5.3c0-.05.04-.1.1-.1h3.78c.05,0,.1.04.1.1v13.08c0,.05-.04.1-.1.1ZM.72,18.29h3.58V5.4H.72v12.89Z"/>
      </g>
      <g>
        <path class="cls-1" d="M9.18,7.31s.11.07.18.07c0,0,.02,0,.03,0,.08,0,.15-.05.19-.11L13.92,1.03l.3,1.7c.02.13.13.22.26.22.02,0,.03,0,.05,0,.14-.03.24-.16.21-.3l-.42-2.32c-.03-.14-.16-.24-.3-.21l-2.31.41c-.14.03-.24.16-.21.3.03.14.16.24.3.21l1.69-.3-4.17,5.99L2.64.32c-.1-.1-.27-.1-.37,0-.1.1-.1.27,0,.37l6.91,6.61Z"/>
        <path class="cls-1" d="M9.36,7.48c-.09,0-.18-.04-.25-.1h0S2.21.77,2.21.77c-.14-.14-.15-.37-.01-.51.14-.14.37-.15.51-.01l6.6,6.32L13.28.87l-1.45.26c-.2.04-.38-.1-.42-.29-.04-.2.1-.38.29-.42L14.01,0c.09-.02.19,0,.27.06.08.06.13.14.15.23l.42,2.32c.02.09,0,.19-.06.27-.06.08-.14.13-.23.15-.2.04-.38-.1-.42-.29l-.26-1.47-4.21,6.05c-.06.09-.15.14-.26.15-.01,0-.02,0-.04,0ZM9.25,7.24s.07.05.11.05c.06,0,.11-.03.13-.07L13.84.97s.06-.05.1-.04c.04,0,.07.04.08.08l.3,1.7c.02.09.1.15.19.13.04,0,.08-.03.11-.07.02-.04.03-.08.03-.12l-.42-2.32s-.03-.08-.07-.11c-.04-.02-.08-.03-.12-.03l-2.31.41c-.09.02-.15.1-.13.19.02.09.1.15.19.13l1.69-.3s.08.01.1.04c.02.03.02.08,0,.11l-4.17,5.99s-.04.04-.07.04c-.03,0-.06,0-.08-.03L2.57.39c-.07-.06-.17-.06-.23,0-.06.07-.06.17,0,.23l6.91,6.61h0Z"/>
      </g>
    </g>
  </g>
</svg>