<?xml version="1.0" encoding="UTF-8"?>
<svg id="Layer_2" data-name="Layer 2" xmlns="http://www.w3.org/2000/svg" viewBox="0 0 19.13 19.02">
  <defs>
    <style>
      .cls-1 {
        fill: #1f1f1f;
      }
    </style>
  </defs>
  <g id="Object">
    <g>
      <g>
        <path class="cls-1" d="M.53,18.77c-.07,0-.13-.03-.19-.08-.1-.1-.1-.27,0-.37l7.37-7.37c.1-.1.27-.1.37,0s.1.27,0,.37L.72,18.69c-.05.05-.12.08-.19.08Z"/>
        <path class="cls-1" d="M.53,18.87c-.1,0-.19-.04-.25-.11-.14-.14-.14-.37,0-.51l7.37-7.37c.14-.14.37-.14.51,0,.14.14.14.37,0,.51L.79,18.76c-.07.07-.16.11-.25.11ZM7.9,10.97s-.08.02-.12.05L.42,18.39c-.06.06-.06.17,0,.23.06.06.17.06.23,0l7.37-7.37c.06-.06.06-.17,0-.23-.03-.03-.07-.05-.12-.05Z"/>
      </g>
      <g>
        <path class="cls-1" d="M11.07,8.23c-.07,0-.13-.03-.19-.08-.1-.1-.1-.27,0-.37L18.15.51c.1-.1.27-.1.37,0,.1.1.1.27,0,.37l-7.27,7.27c-.05.05-.12.08-.19.08Z"/>
        <path class="cls-1" d="M11.07,8.33c-.1,0-.19-.04-.25-.11-.14-.14-.14-.37,0-.51L18.08.45c.14-.14.37-.14.51,0,.14.14.14.37,0,.51l-7.27,7.27c-.07.07-.16.11-.25.11ZM18.34.54s-.08.02-.12.05l-7.27,7.27c-.06.06-.06.17,0,.23.06.06.17.06.23,0L18.45.82c.06-.06.06-.17,0-.23-.03-.03-.07-.05-.12-.05Z"/>
      </g>
      <g>
        <path class="cls-1" d="M18.02,3.88s-.04,0-.06,0c-.14-.03-.23-.17-.2-.31l.67-2.9-2.96.31c-.14.02-.27-.09-.29-.23-.02-.14.09-.27.23-.29l3.33-.35c.08,0,.17.02.22.09.06.06.08.15.06.23l-.75,3.26c-.03.12-.14.2-.26.2Z"/>
        <path class="cls-1" d="M18.02,3.98s-.06,0-.08,0c-.09-.02-.17-.08-.22-.16-.05-.08-.07-.18-.05-.27l.64-2.77-2.83.3c-.2.02-.38-.12-.4-.32-.02-.2.12-.38.32-.4L18.73,0c.12-.01.23.03.31.12.08.09.11.21.08.32l-.75,3.26c-.04.16-.18.28-.35.28ZM18.43.56s.05.01.07.03c.02.02.03.06.02.09l-.67,2.9c-.02.09.03.18.12.2.08.02.18-.04.2-.12l.75-3.26c.01-.05,0-.11-.04-.15-.03-.04-.09-.06-.14-.05l-3.33.35c-.09,0-.16.09-.15.18,0,.09.09.16.18.15l2.96-.31s0,0,.01,0Z"/>
      </g>
      <g>
        <path class="cls-1" d="M.36,18.92c-.07,0-.14-.03-.19-.09-.06-.06-.08-.15-.06-.23l.71-3.27c.03-.14.17-.23.31-.2.14.03.23.17.2.31l-.63,2.91,2.96-.36c.15-.02.27.09.29.23.02.14-.09.27-.23.29l-3.32.4s-.02,0-.03,0Z"/>
        <path class="cls-1" d="M.36,19.02c-.1,0-.2-.04-.27-.12-.08-.09-.11-.2-.09-.32l.71-3.27c.04-.19.23-.32.43-.28.19.04.32.23.28.43l-.6,2.78,2.82-.34c.1-.01.19.01.27.07.08.06.12.15.14.24.02.2-.12.38-.31.4l-3.32.4s-.03,0-.04,0ZM1.07,15.22c-.08,0-.14.05-.16.13l-.71,3.27c-.01.05,0,.11.04.15.03.03.07.05.12.05h.02s3.32-.4,3.32-.4c.09-.01.15-.09.14-.18,0-.04-.03-.08-.06-.11-.03-.03-.08-.04-.12-.03l-2.96.36s-.06,0-.08-.03c-.02-.02-.03-.06-.02-.09l.63-2.91c.02-.09-.04-.18-.13-.19-.01,0-.02,0-.03,0Z"/>
      </g>
    </g>
  </g>
</svg>