<?xml version="1.0" encoding="UTF-8"?>
<svg id="Layer_2" data-name="Layer 2" xmlns="http://www.w3.org/2000/svg" viewBox="0 0 19.5 19.5">
  <defs>
    <style>
      .cls-1 {
        fill: #1f1f1f;
      }
    </style>
  </defs>
  <g id="Object">
    <g>
      <g>
        <path class="cls-1" d="M9.75,19.4C4.43,19.4.1,15.07.1,9.75S4.43.1,9.75.1s9.65,4.33,9.65,9.65-4.33,9.65-9.65,9.65ZM9.75.62C4.72.62.62,4.72.62,9.75s4.1,9.13,9.13,9.13,9.13-4.1,9.13-9.13S14.78.62,9.75.62Z"/>
        <path class="cls-1" d="M9.75,19.5C4.37,19.5,0,15.13,0,9.75S4.37,0,9.75,0s9.75,4.37,9.75,9.75-4.37,9.75-9.75,9.75ZM9.75.2C4.48.2.2,4.48.2,9.75s4.29,9.55,9.55,9.55,9.55-4.29,9.55-9.55S15.02.2,9.75.2ZM9.75,18.98C4.66,18.98.52,14.84.52,9.75S4.66.52,9.75.52s9.23,4.14,9.23,9.23-4.14,9.23-9.23,9.23ZM9.75.72C4.77.72.72,4.77.72,9.75s4.05,9.03,9.03,9.03,9.03-4.05,9.03-9.03S14.73.72,9.75.72Z"/>
      </g>
      <g>
        <polygon class="cls-1" points="16.7 16.07 9.49 9.87 9.49 .36 10.01 .36 10.01 9.63 17.04 15.68 16.7 16.07"/>
        <path class="cls-1" d="M16.7,16.17s-.05,0-.06-.02l-7.21-6.2s-.03-.05-.03-.07V.36c0-.05.04-.1.1-.1h.52c.05,0,.1.04.1.1v9.23l6.99,6.02s.03.04.03.07c0,.03,0,.05-.02.07l-.34.4s-.05.03-.07.03ZM9.59,9.83l7.1,6.11.21-.25-6.95-5.98s-.03-.05-.03-.07V.46h-.33v9.37Z"/>
      </g>
      <g>
        <rect class="cls-1" x="9.75" y="9.49" width="9.39" height=".52"/>
        <path class="cls-1" d="M19.14,10.11h-9.39c-.05,0-.1-.04-.1-.1v-.52c0-.05.04-.1.1-.1h9.39c.05,0,.1.04.1.1v.52c0,.05-.04.1-.1.1ZM9.85,9.92h9.19v-.33h-9.19v.33Z"/>
      </g>
    </g>
  </g>
</svg>