<?xml version="1.0" encoding="UTF-8"?>
<svg id="Layer_2" data-name="Layer 2" xmlns="http://www.w3.org/2000/svg" viewBox="0 0 19.57 9.97">
  <defs>
    <style>
      .cls-1 {
        fill: #1f1f1f;
      }
    </style>
  </defs>
  <g id="Object">
    <g>
      <path class="cls-1" d="M15.49,2.72c-.25,0-.51.03-.77.08-.72-1.27-2.03-2.05-3.47-2.05-1.28,0-2.45.62-3.19,1.61C7.34.98,5.91.1,4.32.1,1.99.1.1,1.99.1,4.32s1.89,4.22,4.21,4.22c.15.5.35.96.62,1.24.05.05.12.08.19.08h13.43c.09,0,.17-.04.22-.12.48-.71.7-2.18.7-2.95,0-2.25-1.79-4.08-3.98-4.08ZM.62,4.32C.62,2.28,2.28.62,4.32.62c1.49,0,2.83.89,3.41,2.26h0c-.16.3-.29.63-.37.97-.08,0-.17-.01-.25-.01-1.68,0-3.05,1.4-3.05,3.13,0,.29.04.66.12,1.05-1.97-.08-3.56-1.7-3.56-3.69ZM18.4,9.35H5.24c-.37-.49-.66-1.64-.66-2.38,0-1.43,1.13-2.6,2.53-2.6.12,0,.26.01.41.04.14.02.28-.07.3-.21.31-1.69,1.75-2.92,3.43-2.92,1.31,0,2.5.75,3.1,1.95.06.11.18.17.3.14.28-.07.57-.11.84-.11,1.91,0,3.46,1.6,3.46,3.56,0,.77-.22,1.95-.54,2.55Z"/>
      <path class="cls-1" d="M18.55,9.97H5.12c-.1,0-.19-.04-.26-.11-.3-.32-.5-.82-.62-1.21-2.34-.05-4.23-1.97-4.23-4.32S1.94,0,4.32,0c1.56,0,2.99.83,3.76,2.18.79-.98,1.93-1.53,3.17-1.53,1.44,0,2.78.78,3.52,2.04.24-.05.48-.07.72-.07,2.25,0,4.08,1.87,4.08,4.18,0,.78-.23,2.28-.72,3.01-.07.1-.18.16-.3.16ZM4.32.2C2.05.2.2,2.05.2,4.32s1.84,4.12,4.11,4.12c.04,0,.08.03.09.07.16.54.37.96.6,1.2.03.03.07.05.12.05h13.43c.05,0,.11-.03.14-.07.47-.7.69-2.14.69-2.9,0-2.2-1.74-3.98-3.89-3.98-.24,0-.49.03-.75.08-.04,0-.08-.01-.11-.05-.7-1.23-2-2-3.39-2-1.23,0-2.36.57-3.11,1.58-.02.03-.05.04-.09.04-.03,0-.06-.02-.08-.05C7.26,1.04,5.86.2,4.32.2ZM18.4,9.44H5.24s-.06-.01-.08-.04c-.4-.52-.68-1.7-.68-2.44,0-1.49,1.18-2.7,2.63-2.7.13,0,.27.01.42.04.09.01.17-.04.19-.13.32-1.74,1.8-3,3.52-3,1.35,0,2.57.77,3.19,2,.03.07.11.11.19.08.29-.07.58-.11.86-.11,1.96,0,3.56,1.64,3.56,3.65,0,.76-.21,1.97-.56,2.59-.02.03-.05.05-.09.05ZM5.29,9.25h13.05c.3-.6.51-1.73.51-2.45,0-1.91-1.51-3.46-3.36-3.46-.26,0-.54.04-.81.11-.16.04-.34-.04-.41-.19-.59-1.17-1.74-1.89-3.01-1.89-1.63,0-3.03,1.19-3.33,2.84-.04.19-.22.32-.41.29-.14-.02-.27-.04-.39-.04-1.34,0-2.43,1.12-2.43,2.5,0,.69.26,1.79.61,2.28ZM4.18,8.11h0c-2.05-.08-3.65-1.74-3.65-3.79S2.23.52,4.32.52c1.53,0,2.9.91,3.5,2.32.01.03,0,.06,0,.08-.16.3-.28.62-.36.95-.01.05-.05.08-.1.07-.08,0-.16-.01-.24-.01-1.63,0-2.96,1.36-2.96,3.03,0,.29.04.66.12,1.03,0,.03,0,.06-.02.08-.02.02-.05.03-.07.03ZM4.32.72C2.34.72.72,2.34.72,4.32s1.46,3.45,3.34,3.59c-.06-.34-.1-.67-.1-.94,0-1.78,1.41-3.22,3.15-3.22.06,0,.11,0,.17,0,.08-.3.19-.59.34-.87-.57-1.31-1.87-2.16-3.3-2.16Z"/>
    </g>
  </g>
</svg>