<?xml version="1.0" encoding="UTF-8"?>
<svg id="Layer_2" data-name="Layer 2" xmlns="http://www.w3.org/2000/svg" viewBox="0 0 19.52 19.46">
  <defs>
    <style>
      .cls-1 {
        fill: #1f1f1f;
      }
    </style>
  </defs>
  <g id="Object">
    <g>
      <g>
        <path class="cls-1" d="M19.16,18.84h-9.14l-.11.15c-.05.07-.13.11-.21.11h0c-.09,0-.17-.04-.21-.11l-.1-.15H.36c-.14,0-.26.12-.26.26s.12.26.26.26h18.8c.14,0,.26-.12.26-.26s-.12-.26-.26-.26Z"/>
        <path class="cls-1" d="M19.16,19.46H.36c-.2,0-.36-.16-.36-.36s.16-.36.36-.36h9.03s.06.02.08.04l.1.15c.06.09.21.09.27,0l.11-.15s.05-.04.08-.04h9.14c.2,0,.36.16.36.36s-.16.36-.36.36ZM.36,18.93c-.09,0-.16.07-.16.16s.07.16.16.16h18.8c.09,0,.16-.07.16-.16s-.07-.16-.16-.16h-9.08l-.08.11c-.07.1-.18.15-.29.15-.12,0-.23-.06-.3-.16l-.07-.11H.36Z"/>
      </g>
      <g>
        <path class="cls-1" d="M4.95,11.59h.26V.36c0-.14-.12-.26-.26-.26s-.26.12-.26.26v11.49c0-.14.12-.26.26-.26Z"/>
        <path class="cls-1" d="M4.68,11.95c-.05,0-.1-.04-.1-.1V.36c0-.2.16-.36.36-.36s.36.16.36.36v11.23c0,.05-.04.1-.1.1h-.26c-.09,0-.16.07-.16.16,0,.05-.04.1-.1.1ZM4.95.2c-.09,0-.16.07-.16.16v11.17s.1-.04.16-.04h.16V.36c0-.09-.07-.16-.16-.16Z"/>
      </g>
      <g>
        <path class="cls-1" d="M14.77,12.11s.05-.1.05-.15v-.11c0,.14-.12.26-.26.26h-.43l-3.68,5.21h.12c.14,0,.26.12.26.26s-.12.26-.26.26h-.49l-.38.53-.37-.53h-.49c-.14,0-.26-.12-.26-.26s.12-.26.26-.26h.12l-3.61-5.21h-.42c-.14,0-.26-.12-.26-.26v.11c0,.05.02.11.05.15l4.66,6.73h.64l4.74-6.72Z"/>
        <path class="cls-1" d="M10.03,18.93h-.64s-.06-.02-.08-.04l-4.66-6.73c-.04-.06-.06-.13-.06-.21v-.11c0-.05.04-.1.1-.1s.1.04.1.1c0,.09.07.16.16.16h.42s.06.02.08.04l3.61,5.21s.02.07,0,.1c-.02.03-.05.05-.09.05h-.12c-.09,0-.16.07-.16.16s.07.16.16.16h.49s.06.02.08.04l.29.42.29-.42s.05-.04.08-.04h.49c.09,0,.16-.07.16-.16s-.07-.16-.16-.16h-.12s-.07-.02-.09-.05c-.02-.03-.01-.07,0-.1l3.68-5.21s.05-.04.08-.04h.43c.09,0,.16-.07.16-.16,0-.05.04-.1.1-.1s.1.04.1.1v.11c0,.07-.02.15-.07.21h0l-4.74,6.72s-.05.04-.08.04ZM9.44,18.74h.54l.56-.79h-.4l-.35.49s-.05.04-.08.04h0s-.06-.02-.08-.04l-.34-.49h-.4l.55.79ZM10.64,17.23c.12.02.21.1.26.2l3.68-5.22s-.02,0-.03,0h-.37l-3.54,5.02ZM4.92,12.21l3.61,5.22c.05-.1.15-.18.26-.2l-3.48-5.02h-.37s-.02,0-.03,0Z"/>
      </g>
      <g>
        <path class="cls-1" d="M14.82,11.85V.36c0-.14-.12-.26-.26-.26s-.26.12-.26.26v11.23h.26c.14,0,.26.12.26.26Z"/>
        <path class="cls-1" d="M14.82,11.95c-.05,0-.1-.04-.1-.1,0-.09-.07-.16-.16-.16h-.26c-.05,0-.1-.04-.1-.1V.36c0-.2.16-.36.36-.36s.36.16.36.36v11.49c0,.05-.04.1-.1.1ZM14.39,11.49h.16c.06,0,.11.01.16.04V.36c0-.09-.07-.16-.16-.16s-.16.07-.16.16v11.13Z"/>
      </g>
      <g>
        <path class="cls-1" d="M9.71,19.1h0c.09,0,.17-.04.21-.11l.11-.15h-.64l.1.15c.05.07.13.11.21.11Z"/>
        <path class="cls-1" d="M9.71,19.2h0c-.12,0-.23-.06-.29-.16l-.1-.15s-.02-.07,0-.1c.02-.03.05-.05.09-.05h.64s.07.02.09.05c.02.03.01.07,0,.1l-.11.15c-.07.1-.18.15-.29.15ZM9.71,19h0c.05,0,.1-.02.13-.07h-.26s.08.07.13.07Z"/>
      </g>
      <g>
        <polygon class="cls-1" points="5.37 12.11 14.13 12.11 14.29 11.88 14.29 11.59 5.21 11.59 5.21 11.88 5.37 12.11"/>
        <path class="cls-1" d="M14.13,12.21H5.37s-.06-.02-.08-.04l-.16-.23s-.02-.04-.02-.06v-.29c0-.05.04-.1.1-.1h9.09c.05,0,.1.04.1.1v.29s0,.04-.02.06l-.16.23s-.05.04-.08.04ZM5.42,12.01h8.66l.12-.16v-.16H5.31v.17l.11.16Z"/>
      </g>
      <g>
        <path class="cls-1" d="M4.95,12.11h.42l-.16-.23v-.29h-.26c-.14,0-.26.12-.26.26s.12.26.26.26Z"/>
        <path class="cls-1" d="M5.37,12.21h-.42c-.2,0-.36-.16-.36-.36s.16-.36.36-.36h.26c.05,0,.1.04.1.1v.26l.14.2s.02.07,0,.1c-.02.03-.05.05-.09.05ZM4.95,11.68c-.09,0-.16.07-.16.16s.07.16.16.16h.23l-.05-.08s-.02-.04-.02-.06v-.2h-.16Z"/>
      </g>
      <g>
        <path class="cls-1" d="M14.13,12.11h.43c.14,0,.26-.12.26-.26s-.12-.26-.26-.26h-.26v.29l-.16.23Z"/>
        <path class="cls-1" d="M14.56,12.21h-.43s-.07-.02-.09-.05c-.02-.03-.01-.07,0-.1l.15-.21v-.26c0-.05.04-.1.1-.1h.26c.2,0,.36.16.36.36s-.16.36-.36.36ZM14.32,12.01h.24c.09,0,.16-.07.16-.16s-.07-.16-.16-.16h-.16v.19s0,.04-.02.06l-.05.08Z"/>
      </g>
      <g>
        <polygon class="cls-1" points="9.34 17.85 10.08 17.85 10.45 17.32 8.98 17.32 9.34 17.85"/>
        <path class="cls-1" d="M10.08,17.95h-.74s-.06-.02-.08-.04l-.36-.52s-.02-.07,0-.1c.02-.03.05-.05.09-.05h1.48s.07.02.09.05c.02.03.01.07,0,.1l-.37.52s-.05.04-.08.04ZM9.39,17.75h.64l.23-.33h-1.1l.23.33Z"/>
      </g>
      <g>
        <path class="cls-1" d="M8.86,17.32c-.14,0-.26.12-.26.26s.12.26.26.26h.49l-.36-.52h-.12Z"/>
        <path class="cls-1" d="M9.34,17.95h-.49c-.2,0-.36-.16-.36-.36s.16-.36.36-.36h.12s.06.02.08.04l.36.52s.02.07,0,.1c-.02.03-.05.05-.09.05ZM8.86,17.42c-.09,0-.16.07-.16.16s.07.16.16.16h.3l-.23-.33h-.07Z"/>
      </g>
      <g>
        <path class="cls-1" d="M10.58,17.85c.14,0,.26-.12.26-.26s-.12-.26-.26-.26h-.12l-.37.52h.49Z"/>
        <path class="cls-1" d="M10.58,17.95h-.49s-.07-.02-.09-.05c-.02-.03-.01-.07,0-.1l.37-.52s.05-.04.08-.04h.12c.2,0,.36.16.36.36s-.16.36-.36.36ZM10.27,17.75h.3c.09,0,.16-.07.16-.16s-.07-.16-.16-.16h-.07l-.23.33Z"/>
      </g>
      <g>
        <path class="cls-1" d="M7.35,9.71c.14,0,.26-.12.26-.26V2.37c0-.14-.12-.26-.26-.26s-.26.12-.26.26v7.08c0,.14.12.26.26.26Z"/>
        <path class="cls-1" d="M7.35,9.81c-.2,0-.36-.16-.36-.36V2.37c0-.2.16-.36.36-.36s.36.16.36.36v7.08c0,.2-.16.36-.36.36ZM7.35,2.21c-.09,0-.16.07-.16.16v7.08c0,.09.07.16.16.16s.16-.07.16-.16V2.37c0-.09-.07-.16-.16-.16Z"/>
      </g>
      <g>
        <path class="cls-1" d="M12.24,9.71c.14,0,.26-.12.26-.26V2.37c0-.14-.12-.26-.26-.26s-.26.12-.26.26v7.08c0,.14.12.26.26.26Z"/>
        <path class="cls-1" d="M12.24,9.81c-.2,0-.36-.16-.36-.36V2.37c0-.2.16-.36.36-.36s.36.16.36.36v7.08c0,.2-.16.36-.36.36ZM12.24,2.21c-.09,0-.16.07-.16.16v7.08c0,.09.07.16.16.16s.16-.07.16-.16V2.37c0-.09-.07-.16-.16-.16Z"/>
      </g>
      <g>
        <path class="cls-1" d="M9.75,8.7c.14,0,.26-.12.26-.26V1.1c0-.14-.12-.26-.26-.26s-.26.12-.26.26v7.34c0,.14.12.26.26.26Z"/>
        <path class="cls-1" d="M9.75,8.8c-.2,0-.36-.16-.36-.36V1.1c0-.2.16-.36.36-.36s.36.16.36.36v7.34c0,.2-.16.36-.36.36ZM9.75.94c-.09,0-.16.07-.16.16v7.34c0,.09.07.16.16.16s.16-.07.16-.16V1.1c0-.09-.07-.16-.16-.16Z"/>
      </g>
    </g>
  </g>
</svg>