<?xml version="1.0" encoding="UTF-8"?>
<svg id="Layer_2" data-name="Layer 2" xmlns="http://www.w3.org/2000/svg" viewBox="0 0 19.03 16.76">
  <defs>
    <style>
      .cls-1 {
        fill: #1f1f1f;
      }
    </style>
  </defs>
  <g id="Object">
    <g>
      <g>
        <path class="cls-1" d="M17.85,11.19h-2.84c-.14,0-.26-.12-.26-.26s.12-.26.26-.26h2.69c.41-.73.69-2.22.69-3.19,0-2.44-1.94-4.43-4.31-4.43-.34,0-.69.05-1.05.14-.12.03-.24-.03-.3-.14-.75-1.5-2.23-2.43-3.87-2.43-2.09,0-3.89,1.53-4.27,3.64-.03.14-.16.23-.3.21-.19-.03-.36-.05-.51-.05-1.75,0-3.17,1.46-3.17,3.26,0,.95.35,2.38.84,2.99h3.4c.14,0,.26.12.26.26s-.12.26-.26.26H1.34c-.07,0-.14-.03-.19-.08C.46,10.39.1,8.66.1,7.69.1,5.6,1.76,3.9,3.79,3.9c.11,0,.23,0,.35.02C4.66,1.69,6.62.1,8.88.1c1.76,0,3.37.96,4.24,2.53.33-.07.66-.11.97-.11,2.67,0,4.84,2.22,4.84,4.96,0,.98-.3,2.77-.86,3.6-.05.07-.13.12-.22.12Z"/>
        <path class="cls-1" d="M17.85,11.29h-2.84c-.2,0-.36-.16-.36-.36s.16-.36.36-.36h2.64c.39-.73.65-2.17.65-3.09,0-2.39-1.89-4.34-4.22-4.34-.33,0-.67.05-1.02.13-.16.04-.34-.04-.41-.19-.74-1.46-2.18-2.37-3.78-2.37-2.04,0-3.8,1.5-4.18,3.56-.04.19-.22.32-.41.29-.18-.03-.35-.05-.5-.05-1.69,0-3.07,1.42-3.07,3.16,0,.88.32,2.27.79,2.89h3.35c.2,0,.36.16.36.36s-.16.36-.36.36H1.34c-.1,0-.19-.04-.26-.11-.7-.74-1.08-2.51-1.08-3.5,0-2.14,1.7-3.88,3.79-3.88.09,0,.18,0,.27.01.57-2.25,2.53-3.81,4.81-3.81,1.76,0,3.4.96,4.29,2.52.31-.06.62-.09.92-.09,2.72,0,4.94,2.27,4.94,5.06,0,.99-.3,2.81-.87,3.65-.07.1-.18.16-.3.16ZM15.01,10.77c-.09,0-.16.07-.16.16s.07.16.16.16h2.84c.05,0,.11-.03.14-.07.55-.81.84-2.58.84-3.54,0-2.68-2.13-4.86-4.74-4.86-.31,0-.63.03-.95.1-.04,0-.09-.01-.11-.05C12.18,1.15,10.59.2,8.88.2,6.66.2,4.75,1.74,4.24,3.94c-.01.05-.05.08-.11.08-.12-.01-.23-.02-.34-.02C1.81,4,.2,5.65.2,7.69c0,.96.36,2.66,1.02,3.36.03.03.07.05.12.05h3.52c.09,0,.16-.07.16-.16s-.07-.16-.16-.16H1.46s-.06-.01-.08-.04c-.51-.64-.86-2.09-.86-3.05,0-1.85,1.47-3.36,3.27-3.36.16,0,.33.02.53.05.09.02.17-.04.19-.13.4-2.16,2.23-3.72,4.37-3.72,1.67,0,3.19.95,3.95,2.48.03.07.11.1.19.09.36-.09.72-.14,1.07-.14,2.43,0,4.41,2.03,4.41,4.53,0,.96-.27,2.47-.71,3.24-.02.03-.05.05-.09.05h-2.69Z"/>
      </g>
      <g>
        <path class="cls-1" d="M6.36,16.66c-.72,0-1.31-.59-1.31-1.31s.59-1.31,1.31-1.31,1.31.59,1.31,1.31-.59,1.31-1.31,1.31ZM6.36,14.58c-.43,0-.78.35-.78.78s.35.78.78.78.78-.35.78-.78-.35-.78-.78-.78Z"/>
        <path class="cls-1" d="M6.36,16.76c-.77,0-1.4-.63-1.4-1.4s.63-1.41,1.4-1.41,1.4.63,1.4,1.41-.63,1.4-1.4,1.4ZM6.36,14.15c-.67,0-1.21.54-1.21,1.21s.54,1.21,1.21,1.21,1.21-.54,1.21-1.21-.54-1.21-1.21-1.21ZM6.36,16.24c-.49,0-.88-.4-.88-.88s.4-.88.88-.88.88.4.88.88-.4.88-.88.88ZM6.36,14.67c-.38,0-.68.31-.68.68s.31.68.68.68.68-.31.68-.68-.31-.68-.68-.68Z"/>
      </g>
      <g>
        <path class="cls-1" d="M11.74,15.62c-.72,0-1.31-.59-1.31-1.31s.59-1.31,1.31-1.31,1.31.59,1.31,1.31-.59,1.31-1.31,1.31ZM11.74,13.53c-.43,0-.78.35-.78.78s.35.78.78.78.78-.35.78-.78-.35-.78-.78-.78Z"/>
        <path class="cls-1" d="M11.74,15.72c-.77,0-1.41-.63-1.41-1.41s.63-1.4,1.41-1.4,1.4.63,1.4,1.4-.63,1.41-1.4,1.41ZM11.74,13.11c-.67,0-1.21.54-1.21,1.21s.54,1.21,1.21,1.21,1.21-.54,1.21-1.21-.54-1.21-1.21-1.21ZM11.74,15.19c-.49,0-.88-.4-.88-.88s.4-.88.88-.88.88.4.88.88-.4.88-.88.88ZM11.74,13.63c-.38,0-.68.31-.68.68s.31.68.68.68.68-.31.68-.68-.31-.68-.68-.68Z"/>
      </g>
      <g>
        <path class="cls-1" d="M7.4,15.62c-.14,0-.26-.12-.26-.26v-6.43c0-.13.09-.23.21-.26l5.38-1c.08-.01.16,0,.22.06.06.05.09.12.09.2v6.39c0,.14-.12.26-.26.26s-.26-.12-.26-.26v-6.07l-4.86.91v6.21c0,.14-.12.26-.26.26Z"/>
        <path class="cls-1" d="M7.4,15.72c-.2,0-.36-.16-.36-.36v-6.43c0-.17.12-.32.29-.35l5.38-1c.11-.02.22,0,.3.08.08.07.13.17.13.28v6.39c0,.2-.16.36-.36.36s-.36-.16-.36-.36v-5.95l-4.66.87v6.13c0,.2-.16.36-.36.36ZM12.79,7.76s-.02,0-.03,0l-5.38,1c-.08.01-.13.08-.13.16v6.43c0,.09.07.16.16.16s.16-.07.16-.16v-6.21s.03-.09.08-.1l4.86-.91s.06,0,.08.02c.02.02.04.05.04.08v6.07c0,.09.07.16.16.16s.16-.07.16-.16v-6.39s-.02-.1-.06-.13c-.03-.02-.07-.04-.11-.04Z"/>
      </g>
      <g>
        <path class="cls-1" d="M7.4,10.4c-.12,0-.23-.09-.26-.21-.03-.14.07-.28.21-.31l5.38-1c.14-.02.28.07.31.21.03.14-.07.28-.21.31l-5.38,1s-.03,0-.05,0Z"/>
        <path class="cls-1" d="M7.4,10.5c-.17,0-.32-.12-.35-.29-.04-.2.09-.38.29-.42l5.38-1c.2-.04.38.09.42.29.04.2-.09.38-.29.42l-5.38,1s-.05,0-.07,0ZM12.79,8.97s-.02,0-.03,0l-5.38,1c-.09.02-.15.1-.13.19.02.09.1.14.19.13l5.38-1c.09-.02.15-.1.13-.19-.01-.08-.08-.13-.16-.13Z"/>
      </g>
    </g>
  </g>
</svg>