<?xml version="1.0" encoding="UTF-8"?>
<svg id="Layer_2" data-name="Layer 2" xmlns="http://www.w3.org/2000/svg" viewBox="0 0 17.15 17.23">
  <defs>
    <style>
      .cls-1 {
        fill: #1f1f1f;
      }
    </style>
  </defs>
  <g id="Object">
    <g>
      <g>
        <path class="cls-1" d="M13.06,9.61c-.24-.24-.62-.23-.86,0l-1.21,1.21-4.66-4.66,1.27-1.27c.24-.24.24-.62,0-.86l-2.84-2.84c-.24-.24-.62-.24-.86,0L.28,4.82c-.24.24-.24.62,0,.86l9.58,9.58c.1.1.27.1.37,0s.1-.27,0-.37L.59,5.25l2.68-2.68,2.97,2.97-.22.22c-.24.24-.24.62,0,.86l4.54,4.53c.24.24.62.24.86,0l.24-.24,3.03,3.03-2.74,2.74c-.1.1-.1.27,0,.37.1.1.27.1.37,0l3.68-3.68c.24-.24.24-.63,0-.86l-2.93-2.9ZM3.64,2.19l.68-.68,2.97,2.97-.68.68-2.97-2.97ZM15.06,13.57l-3.03-3.03.6-.6,3.05,3.02-.62.62Z"/>
        <path class="cls-1" d="M12.13,17.23h0c-.1,0-.19-.04-.25-.11-.14-.14-.14-.37,0-.51l2.68-2.68-2.9-2.9-.17.17c-.27.27-.73.27-1,0l-4.53-4.53c-.13-.13-.21-.31-.21-.5s.07-.37.21-.5l.15-.15-2.83-2.83L.73,5.25l9.57,9.57c.14.14.14.37,0,.51-.14.14-.37.14-.51,0L.21,5.75c-.13-.13-.21-.31-.21-.5s.07-.37.21-.5L3.82,1.13c.27-.27.73-.27,1,0l2.84,2.84c.13.13.21.31.21.5s-.07.37-.21.5l-1.2,1.2,4.52,4.52,1.15-1.15c.27-.27.72-.28,1,0l2.93,2.9c.14.13.21.31.21.5,0,.19-.07.37-.21.5l-3.68,3.68c-.07.07-.16.11-.25.11ZM11.66,10.8s.05.01.07.03l3.03,3.03s.04.1,0,.14l-2.74,2.74c-.06.06-.06.17,0,.23.03.03.07.05.12.05h0s.08-.02.12-.05l3.68-3.68c.1-.1.15-.23.15-.36,0-.14-.05-.27-.15-.36l-2.93-2.9c-.2-.2-.52-.2-.72,0l-1.21,1.22s-.1.04-.14,0l-4.66-4.66s-.03-.04-.03-.07.01-.05.03-.07l1.27-1.27c.2-.2.2-.52,0-.72l-2.84-2.84c-.19-.19-.53-.19-.72,0L.35,4.89c-.2.2-.2.52,0,.72l9.58,9.58c.06.06.17.06.23,0,.06-.06.06-.17,0-.23L.52,5.32s-.04-.1,0-.14l2.68-2.68s.1-.04.14,0l2.97,2.97s.04.1,0,.14l-.22.22c-.1.1-.15.23-.15.36s.05.26.15.36l4.54,4.53c.19.19.53.19.72,0l.24-.24s.04-.03.07-.03ZM15.06,13.66s-.05,0-.07-.03l-3.03-3.03s-.04-.1,0-.14l.6-.6s.1-.04.14,0l3.05,3.02s.03.04.03.07-.01.05-.03.07l-.62.62s-.04.03-.07.03ZM12.17,10.53l2.9,2.9.48-.48-2.91-2.88-.46.46ZM6.61,5.26s-.05,0-.07-.03l-2.96-2.97s-.04-.1,0-.14l.68-.68s.1-.04.14,0l2.97,2.97s.03.04.03.07-.01.05-.03.07l-.68.68s-.04.03-.07.03ZM3.78,2.19l2.83,2.83.54-.54-2.83-2.83-.54.54Z"/>
      </g>
      <g>
        <path class="cls-1" d="M9.6,5.45c.07,0,.13-.03.19-.08L14.14.99v1.77c0,.14.12.26.26.26s.26-.12.26-.26V.36c0-.14-.12-.26-.26-.26h-2.29c-.14,0-.26.12-.26.26s.12.26.26.26h1.66l-4.36,4.38c-.1.1-.1.27,0,.37.05.05.12.08.18.08Z"/>
        <path class="cls-1" d="M9.6,5.55c-.1,0-.19-.04-.25-.1-.07-.07-.11-.16-.11-.25,0-.1.04-.19.11-.25L13.54.72h-1.43c-.2,0-.36-.16-.36-.36s.16-.36.36-.36h2.29c.2,0,.36.16.36.36v2.4c0,.2-.16.36-.36.36s-.36-.16-.36-.36v-1.53l-4.19,4.21c-.07.07-.16.11-.26.11ZM12.11.2c-.09,0-.16.07-.16.16s.07.16.16.16h1.66s.08.02.09.06c.02.04,0,.08-.02.11l-4.36,4.38s-.05.07-.05.12c0,.04.02.08.05.12.06.06.17.06.23,0L14.07.93s.07-.04.11-.02c.04.02.06.05.06.09v1.77c0,.09.07.16.16.16s.16-.07.16-.16V.36c0-.09-.07-.16-.16-.16h-2.29Z"/>
      </g>
      <g>
        <path class="cls-1" d="M16.97,2.56c-.05-.05-.12-.08-.18-.08s-.13.03-.19.08l-4.36,4.38v-1.77c0-.14-.12-.26-.26-.26s-.26.12-.26.26v2.4c0,.14.12.26.26.26h2.29c.14,0,.26-.12.26-.26s-.12-.26-.26-.26h-1.66l4.36-4.38c.1-.1.1-.27,0-.37Z"/>
        <path class="cls-1" d="M14.28,7.93h-2.29c-.2,0-.36-.16-.36-.36v-2.4c0-.2.16-.36.36-.36s.36.16.36.36v1.53l4.19-4.21c.14-.14.37-.14.51,0h0c.07.07.11.16.11.25,0,.1-.04.19-.11.26l-4.19,4.21h1.43c.2,0,.36.16.36.36s-.16.36-.36.36ZM11.98,5c-.09,0-.16.07-.16.16v2.4c0,.09.07.16.16.16h2.29c.09,0,.16-.07.16-.16s-.07-.16-.16-.16h-1.66s-.08-.02-.09-.06c-.02-.04,0-.08.02-.11l4.36-4.38s.05-.07.05-.12c0-.04-.02-.08-.05-.12h0c-.06-.06-.17-.06-.23,0l-4.36,4.38s-.07.04-.11.02c-.04-.02-.06-.05-.06-.09v-1.77c0-.09-.07-.16-.16-.16Z"/>
      </g>
    </g>
  </g>
</svg>