<?xml version="1.0" encoding="UTF-8"?>
<svg id="Layer_2" data-name="Layer 2" xmlns="http://www.w3.org/2000/svg" viewBox="0 0 19.47 18.99">
  <defs>
    <style>
      .cls-1 {
        fill: #1f1f1f;
      }
    </style>
  </defs>
  <g id="Object">
    <g>
      <g>
        <path class="cls-1" d="M4.44,18.89s-.07,0-.11-.02c-.1-.04-.16-.14-.16-.24v-3.54H.36c-.14,0-.26-.12-.26-.26V2.15c0-.14.12-.26.26-.26h16.44c.14,0,.26.12.26.26v12.68c0,.14-.12.26-.26.26h-8.12l-4.07,3.73s-.11.07-.18.07ZM.62,14.57h3.81c.14,0,.26.12.26.26v3.2l3.71-3.4s.11-.07.18-.07h7.96V2.41H.62v12.15Z"/>
        <path class="cls-1" d="M4.44,18.99c-.05,0-.1-.01-.14-.03-.13-.06-.22-.19-.22-.33v-3.44H.36c-.2,0-.36-.16-.36-.36V2.15c0-.2.16-.36.36-.36h16.44c.2,0,.36.16.36.36v12.68c0,.2-.16.36-.36.36h-8.08l-4.04,3.7c-.07.06-.15.09-.24.09ZM.36,1.99c-.09,0-.16.07-.16.16v12.68c0,.09.07.16.16.16h3.81c.05,0,.1.04.1.1v3.54c0,.06.04.12.1.15.06.03.13.01.18-.03l4.07-3.73s.04-.03.07-.03h8.12c.09,0,.16-.07.16-.16V2.15c0-.09-.07-.16-.16-.16H.36ZM4.7,18.13s-.03,0-.04,0c-.04-.02-.06-.05-.06-.09v-3.2c0-.09-.07-.16-.16-.16H.62c-.05,0-.1-.04-.1-.1V2.41c0-.05.04-.1.1-.1h15.92c.05,0,.1.04.1.1v12.15c0,.05-.04.1-.1.1h-7.96s-.08.02-.11.04l-3.71,3.4s-.04.03-.07.03ZM.72,14.47h3.72c.2,0,.36.16.36.36v2.98l3.54-3.25c.07-.06.15-.09.24-.09h7.86V2.51H.72v11.96Z"/>
      </g>
      <g>
        <path class="cls-1" d="M19.11,13.74h-2.31c-.14,0-.26-.12-.26-.26s.12-.26.26-.26h2.04V.62H2.93v1.53c0,.14-.12.26-.26.26s-.26-.12-.26-.26V.36c0-.14.12-.26.26-.26h16.44c.14,0,.26.12.26.26v13.12c0,.14-.12.26-.26.26Z"/>
        <path class="cls-1" d="M19.11,13.84h-2.31c-.2,0-.36-.16-.36-.36s.16-.36.36-.36h1.95V.72H3.03v1.43c0,.2-.16.36-.36.36s-.36-.16-.36-.36V.36c0-.2.16-.36.36-.36h16.44c.2,0,.36.16.36.36v13.12c0,.2-.16.36-.36.36ZM16.8,13.31c-.09,0-.16.07-.16.16s.07.16.16.16h2.31c.09,0,.16-.07.16-.16V.36c0-.09-.07-.16-.16-.16H2.67c-.09,0-.16.07-.16.16v1.79c0,.09.07.16.16.16s.16-.07.16-.16V.62c0-.05.04-.1.1-.1h15.92c.05,0,.1.04.1.1v12.59c0,.05-.04.1-.1.1h-2.04Z"/>
      </g>
      <g>
        <path class="cls-1" d="M15.04,17.54c-.06,0-.13-.02-.18-.07l-2.67-2.45c-.11-.1-.11-.26-.02-.37.1-.11.26-.11.37-.02l2.23,2.04v-1.85c0-.14.12-.26.26-.26s.26.12.26.26v2.45c0,.1-.06.2-.16.24-.03.01-.07.02-.11.02Z"/>
        <path class="cls-1" d="M15.04,17.64c-.09,0-.18-.03-.24-.09l-2.67-2.45c-.15-.13-.16-.36-.02-.51.13-.15.36-.16.51-.02l2.07,1.89v-1.63c0-.2.16-.36.36-.36s.36.16.36.36v2.45c0,.14-.08.27-.22.33-.05.02-.09.03-.15.03ZM12.37,14.67s-.09.02-.12.05c-.03.03-.04.07-.04.12,0,.04.02.08.05.11l2.67,2.45s.12.06.18.03c.06-.03.1-.08.1-.15v-2.45c0-.09-.07-.16-.16-.16s-.16.07-.16.16v1.85s-.02.07-.06.09c-.04.02-.08,0-.11-.02l-2.23-2.04s-.07-.04-.11-.04Z"/>
      </g>
      <g>
        <path class="cls-1" d="M14.38,5.96H2.67c-.14,0-.26-.12-.26-.26s.12-.26.26-.26h11.71c.14,0,.26.12.26.26s-.12.26-.26.26Z"/>
        <path class="cls-1" d="M14.38,6.06H2.67c-.2,0-.36-.16-.36-.36s.16-.36.36-.36h11.71c.2,0,.36.16.36.36s-.16.36-.36.36ZM2.67,5.54c-.09,0-.16.07-.16.16s.07.16.16.16h11.71c.09,0,.16-.07.16-.16s-.07-.16-.16-.16H2.67Z"/>
      </g>
      <g>
        <path class="cls-1" d="M14.38,8.31H2.67c-.14,0-.26-.12-.26-.26s.12-.26.26-.26h11.71c.14,0,.26.12.26.26s-.12.26-.26.26Z"/>
        <path class="cls-1" d="M14.38,8.41H2.67c-.2,0-.36-.16-.36-.36s.16-.36.36-.36h11.71c.2,0,.36.16.36.36s-.16.36-.36.36ZM2.67,7.88c-.09,0-.16.07-.16.16s.07.16.16.16h11.71c.09,0,.16-.07.16-.16s-.07-.16-.16-.16H2.67Z"/>
      </g>
      <g>
        <path class="cls-1" d="M7.35,10.65H2.67c-.14,0-.26-.12-.26-.26s.12-.26.26-.26h4.68c.14,0,.26.12.26.26s-.12.26-.26.26Z"/>
        <path class="cls-1" d="M7.35,10.75H2.67c-.2,0-.36-.16-.36-.36s.16-.36.36-.36h4.68c.2,0,.36.16.36.36s-.16.36-.36.36ZM2.67,10.23c-.09,0-.16.07-.16.16s.07.16.16.16h4.68c.09,0,.16-.07.16-.16s-.07-.16-.16-.16H2.67Z"/>
      </g>
    </g>
  </g>
</svg>