<?xml version="1.0" encoding="UTF-8"?>
<svg id="Layer_2" data-name="Layer 2" xmlns="http://www.w3.org/2000/svg" viewBox="0 0 16.79 18.85">
  <defs>
    <style>
      .cls-1 {
        fill: #1f1f1f;
      }
    </style>
  </defs>
  <g id="Object">
    <g>
      <g>
        <path class="cls-1" d="M6.58,16.64h-2.14c-.14,0-.26.12-.26.26s.12.26.26.26h2.14c.14,0,.26-.12.26-.26s-.12-.26-.26-.26Z"/>
        <path class="cls-1" d="M6.58,17.26h-2.14c-.2,0-.36-.16-.36-.36s.16-.36.36-.36h2.14c.2,0,.36.16.36.36s-.16.36-.36.36ZM4.44,16.74c-.09,0-.16.07-.16.16s.07.16.16.16h2.14c.09,0,.16-.07.16-.16s-.07-.16-.16-.16h-2.14Z"/>
      </g>
      <g>
        <path class="cls-1" d="M16.43,4.13h-5.5V.36c0-.14-.12-.26-.26-.26H.36C.22.1.1.22.1.36v18.13c0,.14.12.26.26.26h10.31c.14,0,.26-.12.26-.26v-5.91l.92-.85h4.57c.14,0,.26-.12.26-.26v-7.07c0-.14-.12-.26-.26-.26ZM.62,18.23v-2.63h9.78v2.63H.62ZM10.41,15.07H.62V.62h9.78v3.51h-3.33c-.14,0-.26.12-.26.26v7.07c0,.14.12.26.26.26h2.06v1.9c0,.1.06.2.16.24.03.02.07.02.11.02.06,0,.13-.02.18-.07l.83-.76v2.01ZM16.17,11.21h-4.41c-.07,0-.13.02-.18.07l-1.92,1.76v-1.57c0-.14-.12-.26-.26-.26h-2.06v-6.55h8.83v6.55Z"/>
        <path class="cls-1" d="M10.67,18.85H.36c-.2,0-.36-.16-.36-.36V.36c0-.2.16-.36.36-.36h10.31c.2,0,.36.16.36.36v3.68h5.4c.2,0,.36.16.36.36v7.07c0,.2-.16.36-.36.36h-4.54l-.86.79v5.86c0,.2-.16.36-.36.36ZM.36.2c-.09,0-.16.07-.16.16v18.13c0,.09.07.16.16.16h10.31c.09,0,.16-.07.16-.16v-5.91s.01-.05.03-.07l.92-.85s.04-.03.07-.03h4.57c.09,0,.16-.07.16-.16v-7.07c0-.09-.07-.16-.16-.16h-5.5c-.05,0-.1-.04-.1-.1V.36c0-.09-.07-.16-.16-.16H.36ZM10.41,18.32H.62c-.05,0-.1-.04-.1-.1v-2.63c0-.05.04-.1.1-.1h9.78c.05,0,.1.04.1.1v2.63c0,.05-.04.1-.1.1ZM.72,18.13h9.59v-2.44H.72v2.44ZM10.41,15.17H.62c-.05,0-.1-.04-.1-.1V.62c0-.05.04-.1.1-.1h9.78c.05,0,.1.04.1.1v3.51c0,.05-.04.1-.1.1h-3.33c-.09,0-.16.07-.16.16v7.07c0,.09.07.16.16.16h2.06c.05,0,.1.04.1.1v1.9c0,.06.04.12.1.15.06.03.13.01.18-.03l.84-.76s.07-.03.11-.02c.04.02.06.05.06.09v2.01c0,.05-.04.1-.1.1ZM.72,14.97h9.59v-1.69l-.67.61c-.1.1-.26.12-.39.06-.13-.06-.21-.19-.21-.33v-1.8h-1.96c-.2,0-.36-.16-.36-.36v-7.07c0-.2.16-.36.36-.36h3.23V.72H.72v14.25ZM9.66,13.13s-.03,0-.04,0c-.04-.02-.06-.05-.06-.09v-1.57c0-.09-.07-.16-.16-.16h-2.06c-.05,0-.1-.04-.1-.1v-6.55c0-.05.04-.1.1-.1h8.83c.05,0,.1.04.1.1v6.55c0,.05-.04.1-.1.1h-4.41s-.08.02-.11.04l-1.92,1.76s-.04.03-.07.03ZM7.44,11.11h1.96c.2,0,.36.16.36.36v1.34l1.75-1.61c.07-.06.15-.09.24-.09h4.32v-6.35H7.44v6.35Z"/>
      </g>
      <g>
        <path class="cls-1" d="M8.3,7.23h7.08c.14,0,.26-.12.26-.26s-.12-.26-.26-.26h-7.08c-.14,0-.26.12-.26.26s.12.26.26.26Z"/>
        <path class="cls-1" d="M15.38,7.33h-7.08c-.2,0-.36-.16-.36-.36s.16-.36.36-.36h7.08c.2,0,.36.16.36.36s-.16.36-.36.36ZM8.3,6.8c-.09,0-.16.07-.16.16s.07.16.16.16h7.08c.09,0,.16-.07.16-.16s-.07-.16-.16-.16h-7.08Z"/>
      </g>
      <g>
        <path class="cls-1" d="M8.3,9.52h4.85c.14,0,.26-.12.26-.26s-.12-.26-.26-.26h-4.85c-.14,0-.26.12-.26.26s.12.26.26.26Z"/>
        <path class="cls-1" d="M13.15,9.62h-4.85c-.2,0-.36-.16-.36-.36s.16-.36.36-.36h4.85c.2,0,.36.16.36.36s-.16.36-.36.36ZM8.3,9.1c-.09,0-.16.07-.16.16s.07.16.16.16h4.85c.09,0,.16-.07.16-.16s-.07-.16-.16-.16h-4.85Z"/>
      </g>
    </g>
  </g>
</svg>