<?xml version="1.0" encoding="UTF-8"?>
<svg id="Layer_2" data-name="Layer 2" xmlns="http://www.w3.org/2000/svg" viewBox="0 0 12.11 19.1">
  <defs>
    <style>
      .cls-1 {
        fill: #1f1f1f;
      }
    </style>
  </defs>
  <g id="Object">
    <g>
      <g>
        <path class="cls-1" d="M5.94,9.38c-2.56,0-4.64-2.08-4.64-4.64S3.38.1,5.94.1s4.64,2.08,4.64,4.64-2.08,4.64-4.64,4.64ZM5.94.62C3.67.62,1.83,2.47,1.83,4.74s1.85,4.11,4.11,4.11,4.11-1.85,4.11-4.11S8.21.62,5.94.62Z"/>
        <path class="cls-1" d="M5.94,9.47c-2.61,0-4.74-2.13-4.74-4.74S3.33,0,5.94,0s4.74,2.12,4.74,4.74-2.12,4.74-4.74,4.74ZM5.94.2C3.44.2,1.4,2.23,1.4,4.74s2.04,4.54,4.54,4.54,4.54-2.04,4.54-4.54S8.45.2,5.94.2ZM5.94,8.95c-2.32,0-4.21-1.89-4.21-4.21S3.62.52,5.94.52s4.21,1.89,4.21,4.21-1.89,4.21-4.21,4.21ZM5.94.72C3.73.72,1.93,2.52,1.93,4.74s1.8,4.02,4.02,4.02,4.02-1.8,4.02-4.02S8.16.72,5.94.72Z"/>
      </g>
      <g>
        <path class="cls-1" d="M11.75,19H.36c-.14,0-.26-.12-.26-.26v-3.93c0-3.28,2.67-5.96,5.96-5.96s5.96,2.67,5.96,5.96v3.93c0,.14-.12.26-.26.26ZM.62,18.48h10.86v-3.67c0-3-2.44-5.43-5.43-5.43S.62,11.81.62,14.81v3.67Z"/>
        <path class="cls-1" d="M11.75,19.1H.36c-.2,0-.36-.16-.36-.36v-3.93c0-3.34,2.72-6.05,6.05-6.05s6.05,2.72,6.05,6.05v3.93c0,.2-.16.36-.36.36ZM6.05,8.95C2.82,8.95.2,11.58.2,14.81v3.93c0,.09.07.16.16.16h11.39c.09,0,.16-.07.16-.16v-3.93c0-3.23-2.63-5.86-5.86-5.86ZM11.49,18.58H.62c-.05,0-.1-.04-.1-.1v-3.67c0-3.05,2.48-5.53,5.53-5.53s5.53,2.48,5.53,5.53v3.67c0,.05-.04.1-.1.1ZM.72,18.38h10.67v-3.57c0-2.94-2.39-5.33-5.33-5.33S.72,11.87.72,14.81v3.57Z"/>
      </g>
    </g>
  </g>
</svg>