<?xml version="1.0" encoding="UTF-8"?>
<svg id="Layer_2" data-name="Layer 2" xmlns="http://www.w3.org/2000/svg" viewBox="0 0 19.89 19.5">
  <defs>
    <style>
      .cls-1 {
        fill: #1f1f1f;
      }
    </style>
  </defs>
  <g id="Object">
    <g>
      <path class="cls-1" d="M19.71,9.25c-.1-.1-.27-.1-.37,0l-2.43,2.43-6.59-6.62L14.83.55c.1-.1.1-.27,0-.37s-.27-.1-.37,0l-4.51,4.51-2.11-2.12c-.1-.1-.27-.1-.37,0-.1.1-.1.27,0,.37l2.11,2.12-6.91,6.91c-.1.1-.1.25-.02.35.09.11,2.12,2.65-.01,6.56H.36c-.14,0-.26.12-.26.26s.12.26.26.26h2.44s.07,0,.11-.02c0,0,0,0,0,0,.04-.02,4.02-1.92,6.84-.09.1.07.24.05.33-.03l6.83-6.83,2.13,2.14c.05.05.12.08.19.08s.13-.03.18-.08c.1-.1.1-.27,0-.37l-2.13-2.14,2.43-2.43c.1-.1.1-.27,0-.37ZM9.86,18.73c-2.07-1.22-4.55-.75-5.99-.29l5.49-5.45c.19.12.41.19.64.19.31,0,.59-.12.81-.34.22-.22.34-.5.34-.81s-.12-.59-.34-.81c-.22-.22-.5-.34-.81-.34s-.59.12-.81.34-.34.5-.34.81c0,.2.06.4.16.57l-5.35,5.31c.6-1.64.53-2.99.32-3.91-.21-.9-.57-1.53-.77-1.83l6.75-6.75,6.59,6.62-6.68,6.68ZM9.37,12.04c0-.17.06-.32.18-.44s.27-.18.44-.18.32.06.44.18c.12.12.18.27.18.44s-.06.32-.18.44h0c-.18.18-.46.22-.69.13l.18-.18c.1-.1.1-.27,0-.37s-.27-.1-.37,0l-.16.16c-.02-.06-.03-.11-.03-.17Z"/>
      <path class="cls-1" d="M.36,19.5c-.2,0-.36-.16-.36-.36s.16-.36.36-.36h2.22c2.05-3.82.08-6.29,0-6.4-.12-.14-.11-.35.02-.48l6.84-6.84-2.04-2.05c-.07-.07-.11-.16-.1-.25,0-.1.04-.19.11-.25.14-.14.37-.14.51,0l2.04,2.05L14.39.11c.14-.14.37-.14.51,0,.07.07.11.16.11.25s-.04.19-.11.26l-4.45,4.45,6.45,6.48,2.36-2.36c.14-.14.37-.14.51,0h0c.07.07.11.16.11.25s-.04.19-.11.26l-2.36,2.36,2.06,2.07c.14.14.14.37,0,.51-.14.14-.37.14-.51,0l-2.06-2.07-6.76,6.76c-.12.12-.31.14-.45.05-2.78-1.8-6.71.08-6.75.1,0,0-.01,0-.02,0-.05.02-.09.03-.14.03H.36ZM.36,18.98c-.09,0-.16.07-.16.16s.07.16.16.16h2.44s.04,0,.07-.02c0,0,.01,0,.02,0,.2-.09,4.12-1.9,6.93-.08.06.04.15.03.2-.02l6.83-6.83s.04-.03.07-.03h0s.05.01.07.03l2.13,2.14c.06.06.17.06.23,0,.06-.06.06-.17,0-.23l-2.13-2.14s-.04-.1,0-.14l2.43-2.43s.05-.07.05-.12-.02-.08-.05-.12c-.06-.06-.17-.06-.23,0l-2.43,2.43s-.04.03-.07.03h0s-.05-.01-.07-.03l-6.59-6.62s-.04-.1,0-.14L14.76.48c.06-.06.06-.17,0-.23-.06-.06-.17-.06-.23,0l-4.51,4.51s-.04.03-.07.03h0s-.05-.01-.07-.03l-2.11-2.12c-.06-.06-.17-.06-.23,0-.03.03-.05.07-.05.12,0,.04.02.08.05.12l2.11,2.12s.04.1,0,.14l-6.91,6.91c-.06.06-.06.15-.01.22.09.11,2.16,2.7,0,6.67-.02.03-.05.05-.09.05H.36ZM9.86,18.83s-.03,0-.05-.01c-2.07-1.22-4.59-.7-5.91-.28-.04.01-.09,0-.11-.04-.02-.04-.02-.09.01-.12l5.49-5.45s.08-.04.12-.01c.17.11.37.18.58.18.28,0,.54-.11.74-.31.2-.2.31-.46.31-.74s-.11-.54-.31-.74c-.2-.2-.46-.31-.74-.31s-.54.11-.74.31c-.2.2-.31.46-.31.74,0,.18.05.35.14.52.02.04.02.09-.02.12l-5.35,5.31s-.08.04-.12.01c-.04-.02-.06-.07-.04-.12.61-1.65.51-3.01.31-3.85-.21-.89-.56-1.51-.76-1.8-.03-.04-.02-.09.01-.12l6.75-6.75s.04-.03.07-.03h0s.05.01.07.03l6.59,6.62s.04.1,0,.14l-6.68,6.68s-.04.03-.07.03ZM6.8,17.86c1,0,2.06.19,3.04.75l6.56-6.56-6.45-6.48-6.62,6.62c.21.32.54.94.74,1.8.18.8.29,2.04-.18,3.56l5-4.97c-.09-.17-.13-.36-.13-.55,0-.33.13-.65.36-.88.24-.23.55-.36.88-.36s.64.13.88.36c.24.24.36.55.36.88s-.13.65-.36.88c-.24.24-.55.36-.88.36-.22,0-.43-.06-.62-.17l-5.16,5.12c.69-.19,1.61-.38,2.58-.38ZM10,12.75c-.1,0-.19-.02-.28-.06-.03-.01-.05-.04-.06-.07,0-.03,0-.07.03-.09l.18-.18c.06-.06.06-.17,0-.23-.06-.06-.17-.06-.23,0l-.16.16s-.06.03-.09.03c-.03,0-.06-.03-.07-.07-.02-.07-.03-.14-.03-.2,0-.19.07-.37.21-.51.27-.27.75-.27,1.02,0,.14.14.21.32.21.51s-.08.37-.21.51c-.13.13-.32.2-.51.2ZM9.94,12.55c.16.02.32-.04.42-.14.1-.1.15-.23.15-.37s-.05-.27-.15-.37c-.2-.2-.54-.2-.74,0-.09.09-.14.21-.15.34l.02-.02c.14-.14.37-.14.51,0,.14.14.14.37,0,.51l-.06.06Z"/>
    </g>
  </g>
</svg>