<?xml version="1.0" encoding="UTF-8"?>
<svg id="Layer_2" data-name="Layer 2" xmlns="http://www.w3.org/2000/svg" viewBox="0 0 19.59 19.59">
  <defs>
    <style>
      .cls-1 {
        fill: #1f1f1f;
      }
    </style>
  </defs>
  <g id="Object">
    <g>
      <path class="cls-1" d="M12.44.1s-.2,0-.2,0H.36C.22.1.1.22.1.36v18.87c0,.14.12.26.26.26h18.87c.14,0,.26-.12.26-.26V.36c0-.14-.12-.26-.26-.26h-6.79ZM.62.62h11.36v8.65H.62V.62ZM.62,18.97v-9.17h11.36v9.17s0,0,0,0H.62ZM18.97,18.97h-6.47s0,0,0,0V.62h6.46v18.35Z"/>
      <path class="cls-1" d="M19.23,19.59H.36c-.2,0-.36-.16-.36-.36V.36C0,.16.16,0,.36,0h11.88s.13,0,.18,0c0,0,.02,0,.02,0h6.79c.2,0,.36.16.36.36v18.87c0,.2-.16.36-.36.36ZM.36.2c-.09,0-.16.07-.16.16v18.87c0,.09.07.16.16.16h18.87c.09,0,.16-.07.16-.16V.36c0-.09-.07-.16-.16-.16h-6.78s-.11,0-.22,0H.36ZM12.43.1h0,0ZM18.97,19.07h-6.47s-.06-.02-.08-.04c-.01-.02-.02-.05-.02-.07V.62c0-.05.04-.1.1-.1h6.46c.05,0,.1.04.1.1v18.35c0,.05-.04.1-.1.1ZM12.6,18.87h6.27V.72h-6.27v18.15ZM11.98,19.07H.62c-.05,0-.1-.04-.1-.1v-9.17c0-.05.04-.1.1-.1h11.36c.05,0,.1.04.1.1v9.16s0,0,0,.01c0,.05-.04.1-.1.1ZM.72,18.87h11.16v-8.98H.72v8.98ZM11.98,9.37H.62c-.05,0-.1-.04-.1-.1V.62c0-.05.04-.1.1-.1h11.36c.05,0,.1.04.1.1v8.65c0,.05-.04.1-.1.1ZM.72,9.17h11.16V.72H.72v8.45Z"/>
    </g>
  </g>
</svg>