<?xml version="1.0" encoding="UTF-8"?>
<svg id="Layer_2" data-name="Layer 2" xmlns="http://www.w3.org/2000/svg" viewBox="0 0 19.33 17.74">
  <defs>
    <style>
      .cls-1 {
        fill: #1f1f1f;
      }
    </style>
  </defs>
  <g id="Object">
    <g>
      <g>
        <path class="cls-1" d="M18.97,14.41H.36c-.14,0-.26-.12-.26-.26V.36C.1.22.22.1.36.1h18.61c.14,0,.26.12.26.26v13.78c0,.14-.12.26-.26.26ZM.62,13.88h18.08V.62H.62v13.26Z"/>
        <path class="cls-1" d="M18.97,14.5H.36c-.2,0-.36-.16-.36-.36V.36c0-.2.16-.36.36-.36h18.61c.2,0,.36.16.36.36v13.78c0,.2-.16.36-.36.36ZM.36.2c-.09,0-.16.07-.16.16v13.78c0,.09.07.16.16.16h18.61c.09,0,.16-.07.16-.16V.36c0-.09-.07-.16-.16-.16H.36ZM18.71,13.98H.62c-.05,0-.1-.04-.1-.1V.62c0-.05.04-.1.1-.1h18.08c.05,0,.1.04.1.1v13.26c0,.05-.04.1-.1.1ZM.72,13.78h17.89V.72H.72v13.06Z"/>
      </g>
      <g>
        <path class="cls-1" d="M7.27,17.4c-.14,0-.26-.12-.26-.26v-2.99c0-.14.12-.26.26-.26s.26.12.26.26v2.99c0,.14-.12.26-.26.26Z"/>
        <path class="cls-1" d="M7.27,17.5c-.2,0-.36-.16-.36-.36v-2.99c0-.2.16-.36.36-.36s.36.16.36.36v2.99c0,.2-.16.36-.36.36ZM7.27,13.98c-.09,0-.16.07-.16.16v2.99c0,.09.07.16.16.16s.16-.07.16-.16v-2.99c0-.09-.07-.16-.16-.16Z"/>
      </g>
      <g>
        <path class="cls-1" d="M12.07,17.4c-.14,0-.26-.12-.26-.26v-2.99c0-.14.12-.26.26-.26s.26.12.26.26v2.99c0,.14-.12.26-.26.26Z"/>
        <path class="cls-1" d="M12.07,17.5c-.2,0-.36-.16-.36-.36v-2.99c0-.2.16-.36.36-.36s.36.16.36.36v2.99c0,.2-.16.36-.36.36ZM12.07,13.98c-.09,0-.16.07-.16.16v2.99c0,.09.07.16.16.16s.16-.07.16-.16v-2.99c0-.09-.07-.16-.16-.16Z"/>
      </g>
      <g>
        <path class="cls-1" d="M18.69,12H.36c-.14,0-.26-.12-.26-.26s.12-.26.26-.26h18.33c.14,0,.26.12.26.26s-.12.26-.26.26Z"/>
        <path class="cls-1" d="M18.69,12.1H.36c-.2,0-.36-.16-.36-.36s.16-.36.36-.36h18.33c.2,0,.36.16.36.36s-.16.36-.36.36ZM.36,11.58c-.09,0-.16.07-.16.16s.07.16.16.16h18.33c.09,0,.16-.07.16-.16s-.07-.16-.16-.16H.36Z"/>
      </g>
      <g>
        <path class="cls-1" d="M14.34,17.64H4.95c-.14,0-.26-.12-.26-.26s.12-.26.26-.26h9.39c.14,0,.26.12.26.26s-.12.26-.26.26Z"/>
        <path class="cls-1" d="M14.34,17.74H4.95c-.2,0-.36-.16-.36-.36s.16-.36.36-.36h9.39c.2,0,.36.16.36.36s-.16.36-.36.36ZM4.95,17.21c-.09,0-.16.07-.16.16s.07.16.16.16h9.39c.09,0,.16-.07.16-.16s-.07-.16-.16-.16H4.95Z"/>
      </g>
    </g>
  </g>
</svg>