<?xml version="1.0" encoding="UTF-8"?>
<svg id="Layer_2" data-name="Layer 2" xmlns="http://www.w3.org/2000/svg" viewBox="0 0 18.64 18.36">
  <defs>
    <style>
      .cls-1 {
        fill: #1f1f1f;
      }
    </style>
  </defs>
  <g id="Object">
    <g>
      <g>
        <path class="cls-1" d="M18.53,10.78s0-.03,0-.04L15.31.28c-.03-.11-.14-.18-.25-.18H3.8c-.11,0-.21.07-.25.18L.11,10.74s0,.03,0,.04c0,.01,0,.03,0,.04v7.18c0,.14.12.26.26.26h17.92c.14,0,.26-.12.26-.26v-7.18s0-.03,0-.04ZM3.99.62h10.88l3.06,9.94h-6.25c-.14,0-.26.12-.26.26v2.98h-4.09v-2.98c0-.14-.12-.26-.26-.26H.72L3.99.62ZM18.01,17.74H.62v-6.66h6.17v2.98c0,.14.12.26.26.26h4.62c.14,0,.26-.12.26-.26v-2.98h6.08v6.66Z"/>
        <path class="cls-1" d="M18.28,18.36H.36c-.2,0-.36-.16-.36-.36v-7.18s0-.04,0-.05c0-.02,0-.04,0-.06L3.45.25c.05-.15.19-.25.34-.25h11.26c.16,0,.3.1.34.25l3.22,10.46s0,.04,0,.05l-.1.02.1-.02s0,.05,0,.05v7.18c0,.2-.16.36-.36.36ZM3.8.2c-.07,0-.13.05-.16.11L.2,10.77s0,.02,0,.03c0,0,0,.02,0,.03v7.18c0,.09.07.16.16.16h17.92c.09,0,.16-.07.16-.16v-7.18s0-.01,0-.02c0,0,0,0,0,0,0,0,0-.02,0-.03L15.22.31c-.02-.07-.08-.12-.16-.12H3.8ZM18.01,17.84H.62c-.05,0-.1-.04-.1-.1v-6.66c0-.05.04-.1.1-.1h6.17c.05,0,.1.04.1.1v2.98c0,.09.07.16.16.16h4.62c.09,0,.16-.07.16-.16v-2.98c0-.05.04-.1.1-.1h6.08c.05,0,.1.04.1.1v6.66c0,.05-.04.1-.1.1ZM.72,17.64h17.2v-6.46h-5.88v2.88c0,.2-.16.36-.36.36h-4.62c-.2,0-.36-.16-.36-.36v-2.88H.72v6.46ZM11.41,13.9h-4.09c-.05,0-.1-.04-.1-.1v-2.98c0-.09-.07-.16-.16-.16H.72s-.06-.02-.08-.04c-.02-.03-.02-.06-.01-.09L3.89.59s.05-.07.09-.07h10.88s.08.03.09.07l3.06,9.94s0,.06-.01.09c-.02.03-.05.04-.08.04h-6.25c-.09,0-.16.07-.16.16v2.98c0,.05-.04.1-.1.1ZM7.42,13.7h3.9v-2.88c0-.2.16-.36.36-.36h6.12L14.79.72H4.06L.86,10.46h6.2c.2,0,.36.16.36.36v2.88Z"/>
      </g>
      <g>
        <path class="cls-1" d="M7.14,6.58h2.12v2.19c0,.14.12.26.26.26s.26-.12.26-.26v-2.19h2.12c.14,0,.26-.12.26-.26s-.12-.26-.26-.26h-2.12v-1.85c0-.14-.12-.26-.26-.26s-.26.12-.26.26v1.85h-2.12c-.14,0-.26.12-.26.26s.12.26.26.26Z"/>
        <path class="cls-1" d="M9.52,9.13c-.2,0-.36-.16-.36-.36v-2.1h-2.02c-.2,0-.36-.16-.36-.36s.16-.36.36-.36h2.02v-1.75c0-.2.16-.36.36-.36s.36.16.36.36v1.75h2.02c.2,0,.36.16.36.36s-.16.36-.36.36h-2.02v2.1c0,.2-.16.36-.36.36ZM7.14,6.15c-.09,0-.16.07-.16.16s.07.16.16.16h2.12c.05,0,.1.04.1.1v2.19c0,.09.07.16.16.16s.16-.07.16-.16v-2.19c0-.05.04-.1.1-.1h2.12c.09,0,.16-.07.16-.16s-.07-.16-.16-.16h-2.12c-.05,0-.1-.04-.1-.1v-1.85c0-.09-.07-.16-.16-.16s-.16.07-.16.16v1.85c0,.05-.04.1-.1.1h-2.12Z"/>
      </g>
    </g>
  </g>
</svg>