<?xml version="1.0" encoding="UTF-8"?>
<svg id="Layer_2" data-name="Layer 2" xmlns="http://www.w3.org/2000/svg" viewBox="0 0 15.28 15.28">
  <defs>
    <style>
      .cls-1 {
        fill: #1f1f1f;
      }
    </style>
  </defs>
  <g id="Object">
    <g>
      <path class="cls-1" d="M15.18,14.88l-1.18-7.01c-.02-.14-.16-.24-.3-.22-.14.02-.24.16-.22.3l1.04,6.2L.55.17C.44.07.28.07.17.17c-.1.1-.1.27,0,.37l13.98,13.98-6.2-1.04c-.14-.02-.28.07-.3.22-.02.14.07.28.22.3l7.01,1.18s.03,0,.04,0c.07,0,.14-.03.19-.08.06-.06.09-.15.07-.23Z"/>
      <path class="cls-1" d="M14.92,15.28s-.04,0-.06,0l-7.01-1.18c-.2-.03-.33-.22-.3-.42.02-.09.07-.18.15-.23.08-.06.17-.08.27-.06l5.9.99L.11.62c-.07-.07-.11-.16-.11-.26S.04.17.11.11c.07-.07.16-.11.25-.11h0c.1,0,.19.04.25.11l13.76,13.76-.99-5.9c-.03-.2.1-.38.3-.42.2-.03.38.1.42.3l1.18,7.01c.02.12-.02.23-.1.31-.07.07-.16.11-.25.11ZM7.91,13.58s-.07.01-.09.03c-.04.03-.06.06-.07.11-.02.09.05.17.13.19l7.01,1.18s.11,0,.14-.05c.04-.04.05-.09.05-.14h0l-1.18-7.01c-.01-.09-.1-.15-.19-.13-.09.01-.15.1-.13.19l1.04,6.2s-.01.08-.05.1c-.04.02-.08.01-.11-.02L.48.24s-.07-.05-.12-.05h0s-.08.02-.12.05-.05.07-.05.12.02.08.05.12l13.98,13.98s.04.08.02.11c-.02.04-.06.06-.1.05l-6.2-1.04s-.02,0-.03,0Z"/>
    </g>
  </g>
</svg>