<?xml version="1.0" encoding="UTF-8"?>
<svg id="Layer_2" data-name="Layer 2" xmlns="http://www.w3.org/2000/svg" viewBox="0 0 18.16 19.59">
  <defs>
    <style>
      .cls-1 {
        fill: #1f1f1f;
      }
    </style>
  </defs>
  <g id="Object">
    <g>
      <g>
        <path class="cls-1" d="M.36.1C.22.1.1.22.1.36v1.05c0,.14.12.26.26.26s.26-.12.26-.26V.36C.62.22.51.1.36.1Z"/>
        <path class="cls-1" d="M.36,1.77c-.2,0-.36-.16-.36-.36V.36c0-.2.16-.36.36-.36s.36.16.36.36v1.05c0,.2-.16.36-.36.36ZM.36.2c-.09,0-.16.07-.16.16v1.05c0,.09.07.16.16.16s.16-.07.16-.16V.36c0-.09-.07-.16-.16-.16Z"/>
      </g>
      <g>
        <path class="cls-1" d="M.36,6.74c-.14,0-.26.12-.26.26v1.86c0,.14.12.26.26.26s.26-.12.26-.26v-1.86c0-.14-.12-.26-.26-.26Z"/>
        <path class="cls-1" d="M.36,9.22c-.2,0-.36-.16-.36-.36v-1.86c0-.2.16-.36.36-.36s.36.16.36.36v1.86c0,.2-.16.36-.36.36ZM.36,6.84c-.09,0-.16.07-.16.16v1.86c0,.09.07.16.16.16s.16-.07.16-.16v-1.86c0-.09-.07-.16-.16-.16Z"/>
      </g>
      <g>
        <path class="cls-1" d="M.36,14.19c-.14,0-.26.12-.26.26v1.86c0,.14.12.26.26.26s.26-.12.26-.26v-1.86c0-.14-.12-.26-.26-.26Z"/>
        <path class="cls-1" d="M.36,16.68c-.2,0-.36-.16-.36-.36v-1.86c0-.2.16-.36.36-.36s.36.16.36.36v1.86c0,.2-.16.36-.36.36ZM.36,14.29c-.09,0-.16.07-.16.16v1.86c0,.09.07.16.16.16s.16-.07.16-.16v-1.86c0-.09-.07-.16-.16-.16Z"/>
      </g>
      <g>
        <path class="cls-1" d="M.36,10.46c-.14,0-.26.12-.26.26v1.86c0,.14.12.26.26.26s.26-.12.26-.26v-1.86c0-.14-.12-.26-.26-.26Z"/>
        <path class="cls-1" d="M.36,12.95c-.2,0-.36-.16-.36-.36v-1.86c0-.2.16-.36.36-.36s.36.16.36.36v1.86c0,.2-.16.36-.36.36ZM.36,10.56c-.09,0-.16.07-.16.16v1.86c0,.09.07.16.16.16s.16-.07.16-.16v-1.86c0-.09-.07-.16-.16-.16Z"/>
      </g>
      <g>
        <path class="cls-1" d="M.36,3.01c-.14,0-.26.12-.26.26v1.86c0,.14.12.26.26.26s.26-.12.26-.26v-1.86c0-.14-.12-.26-.26-.26Z"/>
        <path class="cls-1" d="M.36,5.5c-.2,0-.36-.16-.36-.36v-1.86c0-.2.16-.36.36-.36s.36.16.36.36v1.86c0,.2-.16.36-.36.36ZM.36,3.11c-.09,0-.16.07-.16.16v1.86c0,.09.07.16.16.16s.16-.07.16-.16v-1.86c0-.09-.07-.16-.16-.16Z"/>
      </g>
      <g>
        <path class="cls-1" d="M.36,17.92c-.14,0-.26.12-.26.26v1.05c0,.14.12.26.26.26s.26-.12.26-.26v-1.05c0-.14-.12-.26-.26-.26Z"/>
        <path class="cls-1" d="M.36,19.59c-.2,0-.36-.16-.36-.36v-1.05c0-.2.16-.36.36-.36s.36.16.36.36v1.05c0,.2-.16.36-.36.36ZM.36,18.02c-.09,0-.16.07-.16.16v1.05c0,.09.07.16.16.16s.16-.07.16-.16v-1.05c0-.09-.07-.16-.16-.16Z"/>
      </g>
      <g>
        <path class="cls-1" d="M11.86,6.19c-.08.05-.13.13-.13.23v6.71c0,.09.05.18.13.23.04.02.09.04.13.04s.09-.01.13-.04l5.81-3.35c.08-.05.13-.13.13-.23s-.05-.18-.13-.23l-5.81-3.35c-.08-.05-.18-.05-.26,0ZM12.26,6.87l5.02,2.9-5.02,2.9v-5.8Z"/>
        <path class="cls-1" d="M11.99,13.48c-.06,0-.13-.02-.18-.05-.11-.06-.18-.18-.18-.31v-6.71c0-.13.07-.25.18-.31.11-.06.25-.06.36,0l5.81,3.35c.11.06.18.18.18.31s-.07.25-.18.31l-5.81,3.35c-.05.03-.12.05-.18.05ZM11.99,6.25s-.06,0-.08.02c-.05.03-.08.08-.08.14v6.71c0,.06.03.11.08.14.05.03.11.03.16,0l5.81-3.35c.05-.03.08-.08.08-.14s-.03-.11-.08-.14l-5.81-3.35s-.05-.02-.08-.02ZM12.26,12.77s-.03,0-.05-.01c-.03-.02-.05-.05-.05-.09v-5.8s.02-.07.05-.09c.03-.02.07-.02.1,0l5.02,2.9s.05.05.05.09-.02.07-.05.09l-5.02,2.9s-.03.01-.05.01ZM12.36,7.04v5.46l4.73-2.73-4.73-2.73Z"/>
      </g>
      <g>
        <path class="cls-1" d="M4,13.39s.09-.01.13-.04l5.81-3.35c.08-.05.13-.13.13-.23s-.05-.18-.13-.23l-5.81-3.35c-.08-.05-.18-.05-.26,0-.08.05-.13.13-.13.23v6.71c0,.09.05.18.13.23.04.02.09.04.13.04ZM4.26,6.87l5.02,2.9-5.02,2.9v-5.8Z"/>
        <path class="cls-1" d="M4,13.48c-.06,0-.13-.02-.18-.05-.11-.06-.18-.18-.18-.31v-6.71c0-.13.07-.25.18-.31.11-.06.25-.06.36,0l5.81,3.35c.11.06.18.18.18.31s-.07.25-.18.31l-5.81,3.35c-.05.03-.12.05-.18.05ZM4,6.25s-.06,0-.08.02c-.05.03-.08.08-.08.14v6.71c0,.06.03.11.08.14.05.03.11.03.16,0l5.81-3.35c.05-.03.08-.08.08-.14s-.03-.11-.08-.14l-5.81-3.35s-.05-.02-.08-.02ZM4.26,12.77s-.03,0-.05-.01c-.03-.02-.05-.05-.05-.09v-5.8s.02-.07.05-.09c.03-.02.07-.02.1,0l5.02,2.9s.05.05.05.09-.02.07-.05.09l-5.02,2.9s-.03.01-.05.01ZM4.36,7.04v5.46l4.73-2.73-4.73-2.73Z"/>
      </g>
    </g>
  </g>
</svg>