<?xml version="1.0" encoding="UTF-8"?>
<svg id="Layer_2" data-name="Layer 2" xmlns="http://www.w3.org/2000/svg" viewBox="0 0 14.96 19.5">
  <defs>
    <style>
      .cls-1 {
        fill: #1f1f1f;
      }
    </style>
  </defs>
  <g id="Object">
    <g>
      <g>
        <path class="cls-1" d="M14.6,12.36c-.14,0-.26-.12-.26-.26,0-3.73-3.08-6.77-6.86-6.77S.62,8.37.62,12.1c0,.14-.12.26-.26.26s-.26-.12-.26-.26C.1,8.08,3.41,4.81,7.48,4.81s7.38,3.27,7.38,7.29c0,.14-.12.26-.26.26Z"/>
        <path class="cls-1" d="M14.6,12.46c-.2,0-.36-.16-.36-.36,0-3.68-3.03-6.67-6.76-6.67S.72,8.42.72,12.1c0,.2-.16.36-.36.36s-.36-.16-.36-.36c0-4.08,3.36-7.39,7.48-7.39s7.48,3.32,7.48,7.39c0,.2-.16.36-.36.36ZM7.48,5.23c3.84,0,6.96,3.08,6.96,6.87,0,.09.07.16.16.16s.16-.07.16-.16c0-3.97-3.27-7.2-7.28-7.2S.2,8.13.2,12.1c0,.09.07.16.16.16s.16-.07.16-.16c0-3.79,3.12-6.87,6.96-6.87Z"/>
      </g>
      <g>
        <path class="cls-1" d="M12.21,11.84H2.77c-.14,0-.26.12-.26.26s.12.26.26.26h4.46v6.79c0,.14.12.25.26.25h2.36c.14,0,.26-.11.26-.25s-.12-.25-.26-.25h-2.1v-6.54h4.46c.14,0,.26-.12.26-.26s-.12-.26-.26-.26Z"/>
        <path class="cls-1" d="M9.85,19.5h-2.36c-.2,0-.36-.16-.36-.35v-6.69H2.77c-.2,0-.36-.16-.36-.36s.16-.36.36-.36h9.43c.2,0,.36.16.36.36s-.16.36-.36.36h-4.36v6.34h2c.2,0,.36.16.36.35s-.16.35-.36.35ZM2.77,11.94c-.09,0-.16.07-.16.16s.07.16.16.16h4.46c.05,0,.1.04.1.1v6.79c0,.09.07.15.16.15h2.36c.09,0,.16-.07.16-.15s-.07-.15-.16-.15h-2.1c-.05,0-.1-.04-.1-.1v-6.54c0-.05.04-.1.1-.1h4.46c.09,0,.16-.07.16-.16s-.07-.16-.16-.16H2.77Z"/>
      </g>
      <g>
        <path class="cls-1" d="M7.49,4.12c-.14,0-.26-.12-.26-.26V.36c0-.14.12-.26.26-.26s.26.12.26.26v3.49c0,.14-.12.26-.26.26Z"/>
        <path class="cls-1" d="M7.49,4.22c-.2,0-.36-.16-.36-.36V.36c0-.2.16-.36.36-.36s.36.16.36.36v3.49c0,.2-.16.36-.36.36ZM7.49.2c-.09,0-.16.07-.16.16v3.49c0,.09.07.16.16.16s.16-.07.16-.16V.36c0-.09-.07-.16-.16-.16Z"/>
      </g>
      <g>
        <path class="cls-1" d="M.36,6.64c-.14,0-.26-.12-.26-.26V1.67c0-.14.12-.26.26-.26s.26.12.26.26v4.71c0,.14-.12.26-.26.26Z"/>
        <path class="cls-1" d="M.36,6.74c-.2,0-.36-.16-.36-.36V1.67c0-.2.16-.36.36-.36s.36.16.36.36v4.71c0,.2-.16.36-.36.36ZM.36,1.51c-.09,0-.16.07-.16.16v4.71c0,.09.07.16.16.16s.16-.07.16-.16V1.67c0-.09-.07-.16-.16-.16Z"/>
      </g>
      <g>
        <path class="cls-1" d="M14.6,6.64c-.14,0-.26-.12-.26-.26V1.67c0-.14.12-.26.26-.26s.26.12.26.26v4.71c0,.14-.12.26-.26.26Z"/>
        <path class="cls-1" d="M14.6,6.74c-.2,0-.36-.16-.36-.36V1.67c0-.2.16-.36.36-.36s.36.16.36.36v4.71c0,.2-.16.36-.36.36ZM14.6,1.51c-.09,0-.16.07-.16.16v4.71c0,.09.07.16.16.16s.16-.07.16-.16V1.67c0-.09-.07-.16-.16-.16Z"/>
      </g>
    </g>
  </g>
</svg>