<?xml version="1.0" encoding="UTF-8"?>
<svg id="Layer_2" data-name="Layer 2" xmlns="http://www.w3.org/2000/svg" viewBox="0 0 15.02 19.43">
  <defs>
    <style>
      .cls-1 {
        fill: #1f1f1f;
      }
    </style>
  </defs>
  <g id="Object">
    <g>
      <g>
        <path class="cls-1" d="M5.28,8.53l-1.13,3.48c-.04.11,0,.23.1.29.09.07.22.07.31,0l2.96-2.15,2.96,2.15s.1.05.15.05.11-.02.15-.05c.09-.07.13-.19.1-.29l-1.13-3.48,2.96-2.15c.09-.07.13-.19.1-.29-.04-.11-.14-.18-.25-.18h-3.66l-1.13-3.48c-.04-.11-.14-.18-.25-.18s-.21.07-.25.18l-1.13,3.48h-3.66c-.11,0-.21.07-.25.18-.04.11,0,.23.1.29l2.96,2.15ZM6.32,6.43c.11,0,.21-.07.25-.18l.94-2.89.94,2.89c.04.11.14.18.25.18h3.04l-2.46,1.79c-.09.07-.13.19-.1.29l.94,2.89-2.46-1.79c-.09-.07-.22-.07-.31,0l-2.46,1.79.94-2.89c.04-.11,0-.23-.1-.29l-2.46-1.79h3.04Z"/>
        <path class="cls-1" d="M4.4,12.45c-.07,0-.15-.02-.21-.07-.13-.09-.18-.25-.13-.4l1.11-3.41-2.9-2.11c-.13-.09-.18-.25-.13-.4.05-.15.19-.25.34-.25h3.59l1.11-3.41c.05-.15.19-.25.34-.25s.29.1.34.25l1.11,3.41h3.59c.16,0,.29.1.34.25.05.15,0,.31-.13.4l-2.9,2.11,1.11,3.41c.05.15,0,.31-.13.4-.12.09-.3.09-.42,0l-2.9-2.11-2.9,2.11c-.06.05-.14.07-.21.07ZM2.47,6c-.07,0-.13.05-.16.11-.02.07,0,.14.06.18l2.96,2.15s.05.07.04.11l-1.13,3.48c-.02.07,0,.14.06.18.06.04.14.04.19,0l2.96-2.15s.08-.03.12,0l2.96,2.15c.06.04.14.04.19,0,.06-.04.08-.12.06-.18l-1.13-3.48s0-.08.04-.11l2.96-2.15c.06-.04.08-.12.06-.18-.02-.07-.08-.11-.16-.11h-3.66s-.08-.03-.09-.07l-1.13-3.48c-.02-.07-.08-.11-.16-.11s-.13.05-.16.11l-1.13,3.48s-.05.07-.09.07h-3.66ZM10.13,11.5s-.04,0-.06-.02l-2.46-1.79c-.06-.04-.13-.04-.19,0l-2.46,1.79s-.08.03-.12,0c-.03-.03-.05-.07-.04-.11l.94-2.89c.02-.07,0-.14-.06-.18l-2.46-1.79s-.05-.07-.04-.11c.01-.04.05-.07.09-.07h3.04c.07,0,.13-.05.16-.11l.94-2.89c.03-.08.16-.08.19,0l.94,2.89c.02.07.08.11.16.11h3.04s.08.03.09.07c.01.04,0,.08-.04.11l-2.46,1.79c-.06.04-.08.12-.06.18l.94,2.89s0,.08-.04.11c-.02.01-.04.02-.06.02ZM3.58,6.53l2.22,1.61c.13.09.18.25.13.4l-.85,2.61,2.22-1.61c.13-.09.3-.09.42,0l2.22,1.61-.85-2.61c-.05-.15,0-.31.13-.4l2.22-1.61h-2.74c-.16,0-.29-.1-.34-.25l-.85-2.61-.85,2.61c-.05.15-.19.25-.34.25h-2.74Z"/>
      </g>
      <g>
        <path class="cls-1" d="M14.66,19.33c-.05,0-.1-.02-.15-.05l-7-4.76L.51,19.29c-.08.05-.18.06-.27.01-.09-.05-.14-.13-.14-.23V.36C.1.22.22.1.36.1h14.3c.14,0,.26.12.26.26v18.71c0,.1-.05.19-.14.23-.04.02-.08.03-.12.03ZM7.51,13.95c.05,0,.1.02.15.05l6.74,4.58V.62H.62v17.95l6.74-4.58s.1-.05.15-.05Z"/>
        <path class="cls-1" d="M.36,19.43c-.06,0-.12-.01-.17-.04-.12-.06-.19-.18-.19-.32V.36c0-.2.16-.36.36-.36h14.3c.2,0,.36.16.36.36v18.71c0,.13-.07.26-.19.32-.12.06-.26.05-.37-.02l-6.95-4.72L.56,19.37c-.06.04-.13.06-.2.06ZM.36.2c-.09,0-.16.07-.16.16v18.71c0,.06.03.12.09.14.05.03.12.03.17,0l7-4.76s.08-.02.11,0l7,4.76s.12.04.17,0c.05-.03.09-.08.09-.14V.36c0-.09-.07-.16-.16-.16H.36ZM.62,18.67s-.03,0-.05-.01c-.03-.02-.05-.05-.05-.09V.62c0-.05.04-.1.1-.1h13.78c.05,0,.1.04.1.1v17.95s-.02.07-.05.09c-.03.02-.07.01-.1,0l-6.74-4.58c-.05-.04-.13-.04-.18,0L.68,18.65s-.04.02-.06.02ZM7.51,13.85c.07,0,.14.02.2.06l6.59,4.48V.72H.72v17.67l6.59-4.48c.06-.04.13-.06.2-.06Z"/>
      </g>
    </g>
  </g>
</svg>