<?xml version="1.0" encoding="UTF-8"?>
<svg id="Layer_2" data-name="Layer 2" xmlns="http://www.w3.org/2000/svg" viewBox="0 0 15.28 15.28">
  <defs>
    <style>
      .cls-1 {
        fill: #1f1f1f;
      }
    </style>
  </defs>
  <g id="Object">
    <g>
      <path class="cls-1" d="M15.11.17c-.06-.06-.14-.09-.23-.07l-7.01,1.18c-.14.02-.24.16-.22.3.02.14.16.24.3.22l6.2-1.04L.17,14.73c-.1.1-.1.27,0,.37.05.05.12.08.19.08s.13-.03.19-.08L14.53,1.12l-1.04,6.2c-.02.14.07.28.22.3.01,0,.03,0,.04,0,.13,0,.24-.09.26-.22L15.18.4c.01-.08-.01-.17-.07-.23Z"/>
      <path class="cls-1" d="M.36,15.28c-.1,0-.19-.04-.25-.11-.07-.07-.11-.16-.11-.26s.04-.19.11-.25L13.87.9l-5.9.99c-.2.03-.38-.1-.42-.3-.02-.09,0-.19.06-.27s.14-.13.23-.15L14.86,0c.12-.02.23.02.31.1.08.08.12.2.1.31l-1.18,7.01c-.03.19-.22.33-.42.3-.09-.02-.18-.07-.23-.15s-.08-.17-.06-.27l.99-5.9L.62,15.17c-.07.07-.16.11-.25.11ZM14.16.66s.07.02.09.05c.02.04.01.08-.02.11L.24,14.8s-.05.07-.05.12.02.08.05.12c.06.06.17.06.23,0L14.46,1.05s.08-.04.11-.02c.04.02.06.06.05.1l-1.04,6.2s0,.09.03.12c.03.04.06.06.11.07.1.02.17-.05.19-.13L15.08.39c0-.05,0-.11-.05-.14-.04-.04-.09-.06-.14-.05l-7.01,1.18s-.08.03-.11.07c-.03.04-.04.08-.03.12.01.09.1.15.19.13l6.2-1.04s.01,0,.02,0Z"/>
    </g>
  </g>
</svg>