<?xml version="1.0" encoding="UTF-8"?>
<svg id="Layer_2" data-name="Layer 2" xmlns="http://www.w3.org/2000/svg" viewBox="0 0 17.58 10.93">
  <defs>
    <style>
      .cls-1 {
        fill: #1f1f1f;
      }
    </style>
  </defs>
  <g id="Object">
    <g>
      <g>
        <path class="cls-1" d="M17.22,2.97h-2.27V.36c0-.14-.12-.26-.26-.26H.36C.22.1.1.22.1.36v10.21c0,.14.12.26.26.26h14.33c.14,0,.26-.12.26-.26v-2.45h2.27c.14,0,.26-.12.26-.26V3.24c0-.14-.12-.26-.26-.26ZM14.43,10.31H.62V.62h13.8v9.69ZM16.96,7.6h-2.01V3.5h2.01v4.11Z"/>
        <path class="cls-1" d="M14.69,10.93H.36c-.2,0-.36-.16-.36-.36V.36c0-.2.16-.36.36-.36h14.33c.2,0,.36.16.36.36v2.51h2.17c.2,0,.36.16.36.36v4.63c0,.2-.16.36-.36.36h-2.17v2.35c0,.2-.16.36-.36.36ZM.36.2c-.09,0-.16.07-.16.16v10.21c0,.09.07.16.16.16h14.33c.09,0,.16-.07.16-.16v-2.45c0-.05.04-.1.1-.1h2.27c.09,0,.16-.07.16-.16V3.24c0-.09-.07-.16-.16-.16h-2.27c-.05,0-.1-.04-.1-.1V.36c0-.09-.07-.16-.16-.16H.36ZM14.43,10.41H.62c-.05,0-.1-.04-.1-.1V.62c0-.05.04-.1.1-.1h13.8c.05,0,.1.04.1.1v9.69c0,.05-.04.1-.1.1ZM.72,10.21h13.61V.72H.72v9.49ZM16.96,7.7h-2.01c-.05,0-.1-.04-.1-.1V3.5c0-.05.04-.1.1-.1h2.01c.05,0,.1.04.1.1v4.11c0,.05-.04.1-.1.1ZM15.05,7.5h1.81v-3.91h-1.81v3.91Z"/>
      </g>
      <g>
        <path class="cls-1" d="M8.85,2.93c-.1-.1-.27-.11-.37,0l-2.36,2.27c-.08.07-.1.19-.06.29.04.1.14.16.24.16h1.74l-1.93,2c-.1.1-.1.27,0,.37.05.05.12.07.18.07s.14-.03.19-.08l2.36-2.45c.07-.08.09-.19.05-.28-.04-.1-.14-.16-.24-.16h-1.71l1.89-1.82c.1-.1.11-.27,0-.37Z"/>
        <path class="cls-1" d="M6.3,8.19c-.09,0-.18-.04-.25-.1-.07-.07-.11-.16-.11-.25,0-.1.03-.19.1-.26l1.77-1.84h-1.51c-.15,0-.28-.09-.33-.23-.06-.14-.02-.29.08-.39l2.36-2.27c.07-.07.16-.1.26-.1.1,0,.19.04.25.11.07.07.1.16.1.26,0,.1-.04.19-.11.25l-1.71,1.65h1.47c.14,0,.27.09.33.22.06.13.03.29-.07.39l-2.36,2.45c-.07.07-.16.11-.26.11ZM8.66,2.94s-.08.02-.11.05l-2.36,2.27s-.06.12-.04.18c.03.06.08.1.15.1h1.74s.07.02.09.06c.02.04,0,.08-.02.11l-1.93,2s-.05.07-.05.12c0,.04.02.08.05.11.06.06.17.06.23,0l2.36-2.45s.06-.12.03-.18c-.03-.06-.08-.1-.15-.1h-1.71s-.08-.02-.09-.06c-.02-.04,0-.08.02-.11l1.89-1.82s.05-.07.05-.11c0-.04-.02-.09-.05-.12-.03-.03-.07-.05-.12-.05Z"/>
      </g>
    </g>
  </g>
</svg>