<?xml version="1.0" encoding="UTF-8"?>
<svg id="Layer_2" data-name="Layer 2" xmlns="http://www.w3.org/2000/svg" viewBox="0 0 18.64 18.36">
  <defs>
    <style>
      .cls-1 {
        fill: #1f1f1f;
      }
    </style>
  </defs>
  <g id="Object">
    <g>
      <g>
        <path class="cls-1" d="M18.46,10.6v-.05S15.4.57,15.4.57c-.09-.28-.34-.47-.64-.47H4.08c-.28,0-.53.18-.62.45L.17,10.56v.07s-.07,6.98-.07,6.98c0,.37.3.66.66.66h17.16c.34,0,.62-.28.62-.62l-.07-7.04ZM3.99.62h10.88l3.06,9.94h-5.88c-.35,0-.63.28-.63.63v2.61h-4.09v-2.69c0-.3-.24-.55-.55-.55H.72L3.99.62ZM18.01,17.74H.62v-6.66h6.17v2.65c0,.33.26.59.59.59h3.94c.34,0,.61-.27.61-.61v-2.63h6.08v6.66Z"/>
        <path class="cls-1" d="M17.92,18.36H.76c-.42,0-.76-.34-.76-.76l.07-7.05L3.37.52c.1-.31.39-.52.71-.52h10.68c.34,0,.63.22.73.54l3.07,9.99s0,.03,0,.04v.04s.07,7.03.07,7.03c0,.4-.32.72-.72.72ZM4.08.2c-.24,0-.45.15-.53.38L.26,10.59v.04s-.07,6.97-.07,6.97c0,.31.25.56.56.56h17.16c.29,0,.52-.23.52-.52l-.07-7.04s0,0,0-.01v-.02S15.3.6,15.3.6c-.07-.24-.29-.4-.54-.4H4.08ZM18.01,17.84H.62c-.05,0-.1-.04-.1-.1v-6.66c0-.05.04-.1.1-.1h6.17c.05,0,.1.04.1.1v2.65c0,.27.22.49.49.49h3.94c.28,0,.51-.23.51-.51v-2.63c0-.05.04-.1.1-.1h6.08c.05,0,.1.04.1.1v6.66c0,.05-.04.1-.1.1ZM.72,17.64h17.2v-6.46h-5.88v2.53c0,.39-.32.71-.71.71h-3.94c-.38,0-.69-.31-.69-.69v-2.55H.72v6.46ZM11.41,13.9h-4.09c-.05,0-.1-.04-.1-.1v-2.69c0-.25-.2-.45-.45-.45H.72s-.06-.02-.08-.04c-.02-.03-.02-.06-.01-.09L3.89.59s.05-.07.09-.07h10.88s.08.03.09.07l3.06,9.94s0,.06-.01.09c-.02.03-.05.04-.08.04h-5.88c-.29,0-.53.24-.53.53v2.61c0,.05-.04.1-.1.1ZM7.42,13.7h3.9v-2.51c0-.4.33-.73.73-.73h5.75L14.79.72H4.06L.86,10.46h5.91c.36,0,.65.29.65.65v2.59Z"/>
      </g>
      <g>
        <path class="cls-1" d="M9.39,9.39c.14,0,.26-.12.26-.26V1.71c0-.14-.12-.26-.26-.26s-.26.12-.26.26v7.43c0,.14.12.26.26.26Z"/>
        <path class="cls-1" d="M9.39,9.49c-.2,0-.36-.16-.36-.36V1.71c0-.2.16-.36.36-.36s.36.16.36.36v7.43c0,.2-.16.36-.36.36ZM9.39,1.54c-.09,0-.16.07-.16.16v7.43c0,.09.07.16.16.16s.16-.07.16-.16V1.71c0-.09-.07-.16-.16-.16Z"/>
      </g>
      <g>
        <path class="cls-1" d="M9.39,12.46c.58,0,1.05-.47,1.05-1.05s-.47-1.05-1.05-1.05-1.05.47-1.05,1.05.47,1.05,1.05,1.05ZM9.39,10.89c.29,0,.52.24.52.52s-.24.52-.52.52-.52-.24-.52-.52.24-.52.52-.52Z"/>
        <path class="cls-1" d="M9.39,12.56c-.63,0-1.15-.51-1.15-1.15s.51-1.15,1.15-1.15,1.15.51,1.15,1.15-.51,1.15-1.15,1.15ZM9.39,10.46c-.52,0-.95.43-.95.95s.43.95.95.95.95-.43.95-.95-.43-.95-.95-.95ZM9.39,12.03c-.34,0-.62-.28-.62-.62s.28-.62.62-.62.62.28.62.62-.28.62-.62.62ZM9.39,10.98c-.23,0-.43.19-.43.43s.19.43.43.43.43-.19.43-.43-.19-.43-.43-.43Z"/>
      </g>
    </g>
  </g>
</svg>