<?xml version="1.0" encoding="UTF-8"?>
<svg id="Layer_2" data-name="Layer 2" xmlns="http://www.w3.org/2000/svg" viewBox="0 0 15.25 16.3">
  <defs>
    <style>
      .cls-1 {
        fill: #1f1f1f;
      }
    </style>
  </defs>
  <g id="Object">
    <g>
      <path class="cls-1" d="M7.19,16.3c-.11,0-.22-.05-.3-.14L.09,8.19c-.13-.15-.12-.37,0-.52L6.9.13c.15-.16.39-.17.56-.03.16.15.17.39.03.56L.92,7.94l6.57,7.71c.14.17.12.41-.04.55-.07.06-.16.09-.25.09Z"/>
      <path class="cls-1" d="M14.86,16.3c-.11,0-.22-.05-.3-.14l-6.8-7.98c-.13-.15-.12-.37,0-.52L14.57.13c.15-.16.39-.17.56-.03.16.15.17.39.03.56l-6.57,7.28,6.57,7.71c.14.17.12.41-.04.55-.07.06-.16.09-.25.09Z"/>
    </g>
  </g>
</svg>