<?xml version="1.0" encoding="UTF-8"?>
<svg id="Layer_2" data-name="Layer 2" xmlns="http://www.w3.org/2000/svg" viewBox="0 0 19.5 19.59">
  <defs>
    <style>
      .cls-1 {
        fill: #1f1f1f;
      }
    </style>
  </defs>
  <g id="Object">
    <g>
      <g>
        <path class="cls-1" d="M19.14,19.49H4.7c-.14,0-.26-.12-.26-.26v-6.94c0-.14.12-.26.26-.26s.26.12.26.26v6.68h13.92V.62H4.96v7.08c0,.14-.12.26-.26.26s-.26-.12-.26-.26V.36c0-.14.12-.26.26-.26h14.44c.14,0,.26.12.26.26v18.87c0,.14-.12.26-.26.26Z"/>
        <path class="cls-1" d="M19.14,19.59H4.7c-.2,0-.36-.16-.36-.36v-6.94c0-.2.16-.36.36-.36s.36.16.36.36v6.58h13.72V.72H5.06v6.98c0,.2-.16.36-.36.36s-.36-.16-.36-.36V.36c0-.2.16-.36.36-.36h14.44c.2,0,.36.16.36.36v18.87c0,.2-.16.36-.36.36ZM4.7,12.12c-.09,0-.16.07-.16.16v6.94c0,.09.07.16.16.16h14.44c.09,0,.16-.07.16-.16V.36c0-.09-.07-.16-.16-.16H4.7c-.09,0-.16.07-.16.16v7.34c0,.09.07.16.16.16s.16-.07.16-.16V.62c0-.05.04-.1.1-.1h13.92c.05,0,.1.04.1.1v18.35c0,.05-.04.1-.1.1H4.96c-.05,0-.1-.04-.1-.1v-6.68c0-.09-.07-.16-.16-.16Z"/>
      </g>
      <g>
        <path class="cls-1" d="M11.59,10.25H.36c-.14,0-.26-.12-.26-.26s.12-.26.26-.26h11.23c.14,0,.26.12.26.26s-.12.26-.26.26Z"/>
        <path class="cls-1" d="M11.59,10.35H.36c-.2,0-.36-.16-.36-.36s.16-.36.36-.36h11.23c.2,0,.36.16.36.36s-.16.36-.36.36ZM.36,9.83c-.09,0-.16.07-.16.16s.07.16.16.16h11.23c.09,0,.16-.07.16-.16s-.07-.16-.16-.16H.36Z"/>
      </g>
      <g>
        <path class="cls-1" d="M9.2,12.2c-.08,0-.16-.04-.21-.11-.08-.12-.06-.28.06-.37l2.43-1.73-2.43-1.73c-.12-.08-.15-.25-.06-.37.08-.12.25-.14.37-.06l2.73,1.94c.07.05.11.13.11.21s-.04.16-.11.21l-2.73,1.94s-.1.05-.15.05Z"/>
        <path class="cls-1" d="M9.2,12.29c-.12,0-.23-.06-.29-.15-.06-.08-.08-.17-.06-.27.02-.1.07-.18.15-.23l2.31-1.65-2.31-1.65c-.08-.06-.13-.14-.15-.23-.02-.09,0-.19.06-.27.12-.16.34-.2.5-.08l2.73,1.94c.09.07.15.18.15.29s-.06.23-.15.29l-2.73,1.94c-.06.04-.13.07-.21.07ZM9.2,7.88c-.05,0-.1.02-.13.07-.03.04-.04.08-.03.12s.03.08.07.11l2.43,1.73s.04.05.04.08-.02.06-.04.08l-2.43,1.73s-.06.06-.07.11,0,.09.03.12c.05.07.16.09.23.04l2.73-1.94s.07-.08.07-.13-.03-.1-.07-.13l-2.73-1.94s-.06-.03-.09-.03Z"/>
      </g>
    </g>
  </g>
</svg>