<?xml version="1.0" encoding="UTF-8"?>
<svg id="Layer_2" data-name="Layer 2" xmlns="http://www.w3.org/2000/svg" viewBox="0 0 15.03 14.7">
  <defs>
    <style>
      .cls-1 {
        fill: #1f1f1f;
      }
    </style>
  </defs>
  <g id="Object">
    <g>
      <path class="cls-1" d="M14.91,11.67L9.97,2.48c-.09-.16-.32-.14-.38.03l-2.2,6.6-2.22-4.45c-.08-.17-.32-.15-.38.03l-2.28,7.1s-.03.06-.05.08l-1.83,1.83V.3c0-.11-.09-.21-.21-.21h-.11C.19.1.1.19.1.3v14.09c0,.11.09.21.21.21h14.09c.11,0,.21-.09.21-.21v-.11c0-.11-.09-.21-.21-.21H.99l1.92-1.92s.04-.05.05-.08l2.08-6.48,2.22,4.44c.08.16.32.15.38-.03l2.21-6.63,4.59,8.54c.05.1.18.14.28.08l.1-.05c.1-.05.14-.18.08-.28Z"/>
      <path class="cls-1" d="M14.39,14.7H.31c-.17,0-.31-.14-.31-.3V.3c0-.17.14-.3.31-.3h.11c.17,0,.3.14.3.3v13.16l1.66-1.66s.02-.03.03-.04l2.28-7.1c.04-.12.14-.2.27-.21.12,0,.24.05.3.17l2.12,4.24,2.12-6.37c.04-.12.14-.2.26-.21.12-.01.24.05.29.16l4.94,9.19h0c.08.15.02.33-.12.41l-.1.05c-.07.04-.15.05-.23.02-.08-.02-.14-.08-.18-.15L9.87,3.62l-2.14,6.41c-.04.12-.14.2-.27.21-.13,0-.24-.06-.29-.17l-2.11-4.22-2.01,6.25s-.04.09-.07.12l-1.75,1.75h13.16c.17,0,.31.14.31.31v.11c0,.17-.14.3-.31.3ZM.31.2c-.06,0-.11.05-.11.11v14.09c0,.06.05.11.11.11h14.09c.06,0,.11-.05.11-.11v-.11c0-.06-.05-.11-.11-.11H.99s-.08-.02-.09-.06c-.02-.04,0-.08.02-.11l1.92-1.92s.02-.03.03-.04l2.08-6.48s.05-.07.09-.07c.04,0,.08.02.1.05l2.22,4.44c.03.06.09.06.1.06.02,0,.07-.01.1-.07l2.21-6.63s.05-.06.08-.07c.04,0,.08.02.09.05l4.59,8.54c.03.05.1.07.15.04l.1-.05c.05-.03.07-.09.04-.15L9.88,2.53c-.03-.06-.09-.06-.11-.06-.02,0-.07.01-.09.07l-2.2,6.6s-.05.06-.09.07c-.04,0-.08-.02-.09-.05l-2.22-4.45c-.03-.06-.09-.06-.11-.06-.02,0-.07.01-.09.07l-2.28,7.1s-.04.09-.07.12l-1.83,1.83s-.07.04-.11.02c-.04-.02-.06-.05-.06-.09V.3c0-.06-.05-.11-.11-.11h-.11Z"/>
    </g>
  </g>
</svg>