<?xml version="1.0" encoding="UTF-8"?>
<svg id="Layer_2" data-name="Layer 2" xmlns="http://www.w3.org/2000/svg" viewBox="0 0 19.45 19.2">
  <defs>
    <style>
      .cls-1 {
        fill: #1f1f1f;
      }
    </style>
  </defs>
  <g id="Object">
    <g>
      <g>
        <path class="cls-1" d="M6.56,4.72c-.1-.1-.27-.1-.37,0-.1.1-.1.27,0,.37l9.64,9.64-2.68,2.68-2.97-2.97.46-.46c.1-.1.1-.27,0-.37l-5.03-5.03c-.1-.1-.27-.1-.37,0l-.49.49-3.03-3.03,2.74-2.74c.1-.1.1-.27,0-.37-.1-.1-.27-.1-.37,0L.18,6.85c-.1.1-.1.27,0,.37l3.43,3.39c.1.1.27.1.37,0l1.46-1.46,4.66,4.66-1.52,1.52c-.1.1-.1.27,0,.37l3.34,3.34c.1.1.27.1.37,0l4.11-4.11c.1-.1.1-.27,0-.37L6.56,4.72ZM3.78,10.05L.73,7.03l.62-.62,3.03,3.03-.6.6ZM12.09,18.47l-2.97-2.97.68-.68,2.97,2.96-.68.68Z"/>
        <path class="cls-1" d="M12.09,19.2c-.09,0-.18-.04-.25-.11l-3.34-3.34c-.07-.07-.11-.16-.11-.25s.04-.19.11-.25l1.45-1.45-4.52-4.52-1.39,1.39c-.14.14-.37.14-.51,0L.11,7.29C.04,7.22,0,7.13,0,7.03c0-.1.04-.19.11-.26l3.92-3.92c.14-.14.37-.14.51,0,.07.07.11.16.11.26s-.04.19-.11.25l-2.68,2.68,2.9,2.9.42-.42c.14-.14.37-.14.51,0l5.03,5.03c.14.14.14.37,0,.51l-.39.39,2.83,2.83,2.55-2.55L6.12,5.16c-.07-.07-.11-.16-.11-.25s.04-.19.11-.26c.14-.14.37-.14.51,0h0l9.82,9.82c.14.14.14.37,0,.51l-4.11,4.11c-.07.07-.16.11-.25.11ZM5.43,9.04s.05.01.07.03l4.66,4.66s.04.1,0,.14l-1.52,1.52c-.06.06-.06.17,0,.23l3.34,3.34c.06.06.17.06.23,0l4.11-4.11c.06-.06.06-.17,0-.23L6.49,4.79h0,0c-.06-.06-.17-.06-.23,0-.03.03-.05.07-.05.12s.02.08.05.12l9.64,9.64s.04.1,0,.14l-2.68,2.68s-.1.04-.14,0l-2.96-2.97s-.04-.1,0-.14l.46-.46c.06-.06.06-.17,0-.23l-5.03-5.03c-.06-.06-.17-.06-.23,0l-.49.49s-.1.04-.14,0l-3.03-3.03s-.04-.1,0-.14l2.74-2.74s.05-.07.05-.12-.02-.08-.05-.12c-.06-.06-.17-.06-.23,0L.24,6.92s-.05.07-.05.12c0,.04.02.08.05.12l3.43,3.39c.06.06.17.06.23,0l1.46-1.46s.04-.03.07-.03ZM12.09,18.56s-.05,0-.07-.03l-2.97-2.97s-.04-.1,0-.14l.68-.68s.1-.04.14,0l2.97,2.97s.04.1,0,.14l-.68.68s-.04.03-.07.03ZM9.26,15.5l2.83,2.83.54-.54-2.83-2.83-.54.54ZM3.78,10.14s-.05,0-.07-.03L.66,7.1s-.03-.04-.03-.07.01-.05.03-.07l.62-.62s.1-.04.14,0l3.03,3.03s.03.04.03.07-.01.05-.03.07l-.6.6s-.04.03-.07.03ZM.87,7.03l2.91,2.88.47-.46-2.9-2.9-.48.48Z"/>
      </g>
      <g>
        <path class="cls-1" d="M18.9.17l-6.67,6.55v-1.73c0-.14-.12-.26-.26-.26s-.26.12-.26.26v2.36c0,.14.12.26.26.26h2.36c.14,0,.26-.12.26-.26s-.12-.26-.26-.26h-1.72L19.27.55c.1-.1.1-.27,0-.37-.1-.1-.27-.1-.37,0Z"/>
        <path class="cls-1" d="M14.33,7.71h-2.36c-.2,0-.36-.16-.36-.36v-2.36c0-.2.16-.36.36-.36s.36.16.36.36v1.5L18.83.1h0c.14-.14.37-.14.51,0,.07.07.1.16.1.26,0,.1-.04.19-.11.25l-6.49,6.37h1.48c.2,0,.36.16.36.36s-.16.36-.36.36ZM11.97,4.83c-.09,0-.16.07-.16.16v2.36c0,.09.07.16.16.16h2.36c.09,0,.16-.07.16-.16s-.07-.16-.16-.16h-1.72s-.08-.02-.09-.06c-.02-.04,0-.08.02-.11L19.2.48s.05-.07.05-.12c0-.04-.02-.09-.05-.12-.06-.06-.17-.07-.23,0l-6.67,6.55s-.07.04-.11.02c-.04-.02-.06-.05-.06-.09v-1.73c0-.09-.07-.16-.16-.16Z"/>
      </g>
    </g>
  </g>
</svg>