<?xml version="1.0" encoding="UTF-8"?>
<svg id="Layer_2" data-name="Layer 2" xmlns="http://www.w3.org/2000/svg" viewBox="0 0 19.43 19.47">
  <defs>
    <style>
      .cls-1 {
        fill: #1f1f1f;
      }
    </style>
  </defs>
  <g id="Object">
    <g>
      <path class="cls-1" d="M19.32,5.4s0-.04-.01-.05c0-.02-.01-.03-.02-.04,0-.01-.02-.03-.03-.04-.01-.01-.03-.02-.04-.03,0,0-.02-.02-.03-.02l-2.23-1.21v-1.32c0-.14-.12-.26-.26-.26h-2.65L9.84.13c-.08-.04-.17-.04-.25,0l-4.21,2.28h-2.87c-.14,0-.26.12-.26.26v1.44s0,0,0,0L.24,5.21s-.02.02-.03.02c-.01.01-.03.02-.04.03-.01.01-.02.03-.03.04,0,.01-.02.03-.02.04,0,.02,0,.04-.01.05,0,.01,0,.02,0,.03v13.68c0,.14.12.26.26.26h18.71c.14,0,.26-.12.26-.26V5.44s0-.02,0-.03ZM18.04,5.17h-1.07v-.58l1.07.58ZM9.71.66l3.23,1.75h-6.47l3.23-1.75ZM5.45,2.94h10.99v2.5s0,.03,0,.04l-6.91,6.44L2.77,5.32v-2.39h2.68ZM2.25,4.71v.46h-.85l.85-.46ZM18.81,18.85H.62V5.7h1.78l6.96,6.76c.05.05.12.07.18.07s.13-.02.18-.07l7.26-6.77h1.83v13.15Z"/>
      <path class="cls-1" d="M19.07,19.47H.36c-.2,0-.36-.16-.36-.36V5.44s0-.04,0-.05c0-.02,0-.05.02-.07,0-.02.02-.04.03-.05.02-.03.03-.05.04-.06.02-.02.03-.03.05-.05.01-.01.02-.02.04-.03l1.96-1.06v-1.38c0-.2.16-.36.36-.36h2.85L9.54.04c.11-.06.24-.06.34,0l4.19,2.27h2.63c.2,0,.36.16.36.36v1.26l2.18,1.18s.03.02.04.03c.02.02.04.03.06.05.02.02.03.04.04.06.01.02.02.04.03.06,0,.03.01.05.02.07,0,.01,0,.04,0,.05v13.68c0,.2-.16.36-.36.36ZM2.51,2.51c-.09,0-.16.07-.16.16v1.44s-.02.07-.06.09L.28,5.29s0,0-.02.02c-.01,0-.02.01-.03.02,0,0,0,.01-.01.02,0,0-.02.03-.02.03,0,0,0,.02,0,.03,0,0,0,.03,0,.03v13.67c0,.09.07.16.16.16h18.71c.09,0,.16-.07.16-.16V5.44s0-.01,0-.02c0,0,0,0,0,0h0s0-.03,0-.03l-.02-.03s-.01-.02-.02-.03c0,0-.01-.01-.02-.02,0,0-.02-.02-.02-.02l-2.22-1.21s-.05-.05-.05-.09v-1.32c0-.09-.07-.16-.16-.16h-2.65s-.03,0-.05-.01L9.79.22s-.11-.03-.16,0l-4.21,2.28s-.03.01-.05.01h-2.87ZM18.81,18.95H.62c-.05,0-.1-.04-.1-.1V5.7c0-.05.04-.1.1-.1h1.78s.05,0,.07.03l6.96,6.76c.06.06.16.06.23,0l7.26-6.77s.04-.03.07-.03h1.83c.05,0,.1.04.1.1v13.15c0,.05-.04.1-.1.1ZM.72,18.75h17.99V5.8h-1.69l-7.23,6.74c-.14.13-.36.12-.5,0L2.36,5.8H.72v12.96ZM9.54,12.01s-.05,0-.07-.03L2.7,5.4s-.03-.04-.03-.07v-2.39c0-.05.04-.1.1-.1h13.67c.05,0,.1.04.1.1v2.5s0,.02,0,.02c0,.03,0,.07-.03.09l-6.91,6.44s-.04.03-.07.03ZM2.87,5.28l6.68,6.49,6.8-6.34h0v-2.41H2.87v2.25ZM18.04,5.27h-1.07c-.05,0-.1-.04-.1-.1v-.58s.02-.07.05-.08c.03-.02.07-.02.1,0l1.07.58s.06.07.05.11c-.01.04-.05.07-.1.07ZM17.06,5.08h.59l-.59-.32v.32ZM2.25,5.27h-.85s-.08-.03-.1-.07c-.01-.04,0-.09.05-.11l.85-.46s.07-.02.1,0c.03.02.05.05.05.08v.46c0,.05-.04.1-.1.1ZM1.78,5.08h.37v-.2l-.37.2ZM12.95,2.51h-6.47s-.08-.03-.1-.07c-.01-.04,0-.09.05-.11l3.23-1.75s.06-.02.09,0l3.23,1.75s.06.07.05.11c-.01.04-.05.07-.1.07ZM6.87,2.32h5.69l-2.85-1.54-2.85,1.54Z"/>
    </g>
  </g>
</svg>