<?xml version="1.0" encoding="UTF-8"?>
<svg id="Layer_2" data-name="Layer 2" xmlns="http://www.w3.org/2000/svg" viewBox="0 0 19.43 18.88">
  <defs>
    <style>
      .cls-1 {
        fill: #1f1f1f;
      }
    </style>
  </defs>
  <g id="Object">
    <g>
      <g>
        <path class="cls-1" d="M19.07,18.78H.36c-.14,0-.26-.12-.26-.26V.36c0-.14.12-.26.26-.26h6.31c.07,0,.14.03.19.09l2.47,2.73h9.72c.14,0,.26.12.26.26v15.34c0,.14-.12.26-.26.26ZM.62,18.26h18.18V3.44h-9.58c-.07,0-.14-.03-.19-.09L6.56.62H.63v17.64Z"/>
        <path class="cls-1" d="M19.07,18.88H.36c-.2,0-.36-.16-.36-.36V.36c0-.2.16-.36.36-.36h6.31c.1,0,.2.04.27.12l2.45,2.7h9.68c.2,0,.36.16.36.36v15.34c0,.2-.16.36-.36.36ZM.36.2c-.09,0-.16.07-.16.16v18.16c0,.09.07.16.16.16h18.71c.09,0,.16-.07.16-.16V3.18c0-.09-.07-.16-.16-.16h-9.72s-.05-.01-.07-.03L6.8.25s-.08-.05-.12-.05H.36ZM18.81,18.36H.62s-.05-.01-.07-.03c-.02-.02-.03-.04-.03-.07V.62c0-.05.05-.1.1-.1h5.93s.05.01.07.03l2.47,2.73s.07.05.12.05h9.58c.05,0,.1.04.1.1v14.82c0,.05-.04.1-.1.1ZM.72,18.16h17.99V3.54h-9.48c-.1,0-.2-.04-.27-.12L6.52.72H.72v17.44Z"/>
      </g>
      <g>
        <path class="cls-1" d="M18.79,5.72H.36c-.14,0-.26-.12-.26-.26s.12-.26.26-.26h18.43c.14,0,.26.12.26.26s-.12.26-.26.26Z"/>
        <path class="cls-1" d="M18.79,5.81H.36c-.2,0-.36-.16-.36-.36s.16-.36.36-.36h18.43c.2,0,.36.16.36.36s-.16.36-.36.36ZM.36,5.29c-.09,0-.16.07-.16.16s.07.16.16.16h18.43c.09,0,.16-.07.16-.16s-.07-.16-.16-.16H.36Z"/>
      </g>
    </g>
  </g>
</svg>