<?xml version="1.0" encoding="UTF-8"?>
<svg id="Layer_2" data-name="Layer 2" xmlns="http://www.w3.org/2000/svg" viewBox="0 0 18.64 18.36">
  <defs>
    <style>
      .cls-1 {
        fill: #1f1f1f;
      }
    </style>
  </defs>
  <g id="Object">
    <g>
      <g>
        <path class="cls-1" d="M18.28,18.26H.36c-.14,0-.26-.12-.26-.26v-7.18c0-.14.12-.26.26-.26h6.7c.14,0,.26.12.26.26v2.98h4.09v-2.98c0-.14.12-.26.26-.26h6.6c.14,0,.26.12.26.26v7.18c0,.14-.12.26-.26.26ZM.62,17.74h17.39v-6.66h-6.08v2.98c0,.14-.12.26-.26.26h-4.62c-.14,0-.26-.12-.26-.26v-2.98H.62v6.66Z"/>
        <path class="cls-1" d="M18.28,18.36H.36c-.2,0-.36-.16-.36-.36v-7.18c0-.2.16-.36.36-.36h6.7c.2,0,.36.16.36.36v2.88h3.89v-2.88c0-.2.16-.36.36-.36h6.6c.2,0,.36.16.36.36v7.18c0,.2-.16.36-.36.36ZM.36,10.66c-.09,0-.16.07-.16.16v7.18c0,.09.07.16.16.16h17.92c.09,0,.16-.07.16-.16v-7.18c0-.09-.07-.16-.16-.16h-6.6c-.09,0-.16.07-.16.16v2.98c0,.05-.04.1-.1.1h-4.09c-.05,0-.1-.04-.1-.1v-2.98c0-.09-.07-.16-.16-.16H.36ZM18.01,17.84H.62c-.05,0-.1-.04-.1-.1v-6.66c0-.05.04-.1.1-.1h6.17c.05,0,.1.04.1.1v2.98c0,.09.07.16.16.16h4.62c.09,0,.16-.07.16-.16v-2.98c0-.05.04-.1.1-.1h6.08c.05,0,.1.04.1.1v6.66c0,.05-.04.1-.1.1ZM.72,17.64h17.2v-6.46h-5.88v2.88c0,.2-.16.36-.36.36h-4.62c-.2,0-.36-.16-.36-.36v-2.88H.72v6.46Z"/>
      </g>
      <g>
        <path class="cls-1" d="M.36,11.08s-.05,0-.08-.01c-.14-.05-.21-.19-.17-.33L3.55.28c.04-.11.14-.18.25-.18h11.26c.12,0,.22.07.25.19l3.22,10.46c.04.14-.04.29-.17.33-.14.04-.28-.04-.33-.17L14.87.62H3.99L.61,10.9c-.04.11-.14.18-.25.18Z"/>
        <path class="cls-1" d="M18.28,11.18c-.15,0-.3-.1-.34-.25L14.79.72H4.06L.7,10.93c-.06.18-.27.29-.45.23-.19-.06-.29-.27-.23-.45L3.45.25c.05-.15.19-.25.34-.25h11.26c.16,0,.3.1.34.25l3.22,10.46c.03.09.02.19-.03.27-.05.09-.12.15-.21.18-.03.01-.07.02-.11.02ZM3.99.52h10.88s.08.03.09.07l3.16,10.27c.03.09.12.14.2.11.04-.01.08-.04.1-.08.02-.04.02-.08.01-.12L15.22.31c-.02-.07-.08-.12-.16-.12H3.8c-.07,0-.13.05-.16.11L.2,10.77c-.03.09.02.18.1.21.08.03.18-.02.21-.1L3.89.59s.05-.07.09-.07Z"/>
      </g>
    </g>
  </g>
</svg>