<?xml version="1.0" encoding="UTF-8"?>
<svg id="Layer_2" data-name="Layer 2" xmlns="http://www.w3.org/2000/svg" viewBox="0 0 18.77 18.77">
  <defs>
    <style>
      .cls-1 {
        fill: #1f1f1f;
      }
    </style>
  </defs>
  <g id="Object">
    <g>
      <g>
        <path class="cls-1" d="M9.38,16.96c-4.18,0-7.57-3.4-7.57-7.57S5.21,1.81,9.38,1.81s7.57,3.4,7.57,7.57-3.4,7.57-7.57,7.57ZM9.38,2.33c-3.89,0-7.05,3.16-7.05,7.05s3.16,7.05,7.05,7.05,7.05-3.16,7.05-7.05-3.16-7.05-7.05-7.05Z"/>
        <path class="cls-1" d="M9.38,17.05c-4.23,0-7.67-3.44-7.67-7.67S5.15,1.71,9.38,1.71s7.67,3.44,7.67,7.67-3.44,7.67-7.67,7.67ZM9.38,1.91C5.26,1.91,1.91,5.26,1.91,9.38s3.35,7.47,7.47,7.47,7.47-3.35,7.47-7.47S13.5,1.91,9.38,1.91ZM9.38,16.53c-3.94,0-7.15-3.21-7.15-7.15s3.21-7.15,7.15-7.15,7.15,3.21,7.15,7.15-3.21,7.15-7.15,7.15ZM9.38,2.43c-3.83,0-6.95,3.12-6.95,6.95s3.12,6.95,6.95,6.95,6.95-3.12,6.95-6.95-3.12-6.95-6.95-6.95Z"/>
      </g>
      <g>
        <path class="cls-1" d="M9.38,14.58c-2.87,0-5.2-2.33-5.2-5.2s2.33-5.2,5.2-5.2,5.2,2.33,5.2,5.2-2.33,5.2-5.2,5.2ZM9.38,4.71c-2.58,0-4.68,2.1-4.68,4.68s2.1,4.68,4.68,4.68,4.68-2.1,4.68-4.68-2.1-4.68-4.68-4.68Z"/>
        <path class="cls-1" d="M9.38,14.68c-2.92,0-5.3-2.38-5.3-5.3s2.38-5.3,5.3-5.3,5.3,2.38,5.3,5.3-2.38,5.3-5.3,5.3ZM9.38,4.28c-2.81,0-5.1,2.29-5.1,5.1s2.29,5.1,5.1,5.1,5.1-2.29,5.1-5.1-2.29-5.1-5.1-5.1ZM9.38,14.16c-2.63,0-4.77-2.14-4.77-4.77s2.14-4.77,4.77-4.77,4.77,2.14,4.77,4.77-2.14,4.77-4.77,4.77ZM9.38,4.8c-2.52,0-4.58,2.05-4.58,4.58s2.05,4.58,4.58,4.58,4.58-2.05,4.58-4.58-2.05-4.58-4.58-4.58Z"/>
      </g>
      <g>
        <path class="cls-1" d="M9.38,2.33c-.14,0-.26-.12-.26-.26V.36c0-.14.12-.26.26-.26s.26.12.26.26v1.71c0,.14-.12.26-.26.26Z"/>
        <path class="cls-1" d="M9.38,2.43c-.2,0-.36-.16-.36-.36V.36c0-.2.16-.36.36-.36s.36.16.36.36v1.71c0,.2-.16.36-.36.36ZM9.38.2c-.09,0-.16.07-.16.16v1.71c0,.09.07.16.16.16s.16-.07.16-.16V.36c0-.09-.07-.16-.16-.16Z"/>
      </g>
      <g>
        <path class="cls-1" d="M9.38,18.67c-.14,0-.26-.12-.26-.26v-1.71c0-.14.12-.26.26-.26s.26.12.26.26v1.71c0,.14-.12.26-.26.26Z"/>
        <path class="cls-1" d="M9.38,18.77c-.2,0-.36-.16-.36-.36v-1.71c0-.2.16-.36.36-.36s.36.16.36.36v1.71c0,.2-.16.36-.36.36ZM9.38,16.53c-.09,0-.16.07-.16.16v1.71c0,.09.07.16.16.16s.16-.07.16-.16v-1.71c0-.09-.07-.16-.16-.16Z"/>
      </g>
      <g>
        <path class="cls-1" d="M18.41,9.65h-1.71c-.14,0-.26-.12-.26-.26s.12-.26.26-.26h1.71c.14,0,.26.12.26.26s-.12.26-.26.26Z"/>
        <path class="cls-1" d="M18.41,9.74h-1.71c-.2,0-.36-.16-.36-.36s.16-.36.36-.36h1.71c.2,0,.36.16.36.36s-.16.36-.36.36ZM16.69,9.22c-.09,0-.16.07-.16.16s.07.16.16.16h1.71c.09,0,.16-.07.16-.16s-.07-.16-.16-.16h-1.71Z"/>
      </g>
      <g>
        <path class="cls-1" d="M2.07,9.65H.36c-.14,0-.26-.12-.26-.26s.12-.26.26-.26h1.71c.14,0,.26.12.26.26s-.12.26-.26.26Z"/>
        <path class="cls-1" d="M2.07,9.74H.36c-.2,0-.36-.16-.36-.36s.16-.36.36-.36h1.71c.2,0,.36.16.36.36s-.16.36-.36.36ZM.36,9.22c-.09,0-.16.07-.16.16s.07.16.16.16h1.71c.09,0,.16-.07.16-.16s-.07-.16-.16-.16H.36Z"/>
      </g>
    </g>
  </g>
</svg>