<?xml version="1.0" encoding="UTF-8"?>
<svg id="Layer_2" data-name="Layer 2" xmlns="http://www.w3.org/2000/svg" viewBox="0 0 19.66 19.69">
  <defs>
    <style>
      .cls-1 {
        fill: #1f1f1f;
      }
    </style>
  </defs>
  <g id="Object">
    <g>
      <g>
        <path class="cls-1" d="M19.3,19.07H.36c-.14,0-.26.12-.26.26s.12.26.26.26h18.94c.14,0,.26-.12.26-.26s-.12-.26-.26-.26Z"/>
        <path class="cls-1" d="M19.3,19.69H.36c-.2,0-.36-.16-.36-.36s.16-.36.36-.36h18.93c.2,0,.36.16.36.36s-.16.36-.36.36ZM.36,19.16c-.09,0-.16.07-.16.16s.07.16.16.16h18.93c.09,0,.16-.07.16-.16s-.07-.16-.16-.16H.36Z"/>
      </g>
      <g>
        <path class="cls-1" d="M15.49,16.31c.14,0,.26-.12.26-.26V.36c0-.14-.12-.26-.26-.26h-4.72c-.14,0-.26.12-.26.26v16.61c0,.14.12.26.26.26h1.6c.14,0,.26-.12.26-.26s-.12-.26-.26-.26h-1.34V.62h4.19v15.43c0,.14.12.26.26.26Z"/>
        <path class="cls-1" d="M12.38,17.33h-1.6c-.2,0-.36-.16-.36-.36V.36c0-.2.16-.36.36-.36h4.72c.2,0,.36.16.36.36v15.69c0,.2-.16.36-.36.36s-.36-.16-.36-.36V.72h-4v15.89h1.24c.2,0,.36.16.36.36s-.16.36-.36.36ZM10.78.2c-.09,0-.16.07-.16.16v16.61c0,.09.07.16.16.16h1.6c.09,0,.16-.07.16-.16s-.07-.16-.16-.16h-1.34c-.05,0-.1-.04-.1-.1V.62c0-.05.04-.1.1-.1h4.19c.05,0,.1.04.1.1v15.43c0,.09.07.16.16.16s.16-.07.16-.16V.36c0-.09-.07-.16-.16-.16h-4.72Z"/>
      </g>
      <g>
        <path class="cls-1" d="M8.42,16.31c.14,0,.26-.12.26-.26V5.05c0-.14-.12-.26-.26-.26H3.77c-.14,0-.26.12-.26.26v11.86c0,.14.12.26.26.26h1.67c.14,0,.26-.12.26-.26s-.12-.26-.26-.26h-1.41V5.31h4.13v10.74c0,.14.12.26.26.26Z"/>
        <path class="cls-1" d="M5.44,17.26h-1.67c-.2,0-.36-.16-.36-.36V5.05c0-.2.16-.36.36-.36h4.65c.2,0,.36.16.36.36v11.01c0,.2-.16.36-.36.36s-.36-.16-.36-.36V5.41h-3.93v11.14h1.31c.2,0,.36.16.36.36s-.16.36-.36.36ZM3.77,4.88c-.09,0-.16.07-.16.16v11.86c0,.09.07.16.16.16h1.67c.09,0,.16-.07.16-.16s-.07-.16-.16-.16h-1.41c-.05,0-.1-.04-.1-.1V5.31c0-.05.04-.1.1-.1h4.13c.05,0,.1.04.1.1v10.74c0,.09.07.16.16.16s.16-.07.16-.16V5.05c0-.09-.07-.16-.16-.16H3.77Z"/>
      </g>
    </g>
  </g>
</svg>