<?xml version="1.0" encoding="UTF-8"?>
<svg id="Layer_2" data-name="Layer 2" xmlns="http://www.w3.org/2000/svg" viewBox="0 0 17.3 16.2">
  <defs>
    <style>
      .cls-1 {
        fill: #1f1f1f;
      }
    </style>
  </defs>
  <g id="Object">
    <g>
      <g>
        <path class="cls-1" d="M13.63,16.1H1.1c-.07,0-.14-.03-.19-.08-.53-.56-.82-1.89-.82-2.64,0-1.62,1.29-2.93,2.86-2.93.07,0,.14,0,.22,0,.42-1.69,1.92-2.89,3.64-2.89,1.35,0,2.57.73,3.25,1.91.24-.05.47-.07.71-.07,2.06,0,3.73,1.71,3.73,3.82,0,.72-.21,2.1-.66,2.76-.05.07-.13.12-.22.12ZM1.22,15.58h12.25c.3-.55.5-1.64.5-2.36,0-1.82-1.44-3.3-3.21-3.3-.25,0-.51.03-.78.1-.12.03-.24-.03-.3-.14-.56-1.11-1.66-1.8-2.88-1.8-1.55,0-2.89,1.14-3.18,2.71-.03.14-.16.23-.3.21-.14-.02-.26-.03-.38-.03-1.29,0-2.34,1.08-2.34,2.41,0,.68.26,1.75.6,2.2Z"/>
        <path class="cls-1" d="M13.63,16.2H1.1c-.1,0-.19-.04-.26-.11-.55-.58-.84-1.95-.84-2.71,0-1.67,1.33-3.03,2.96-3.03.05,0,.09,0,.14,0,.46-1.7,1.98-2.89,3.72-2.89,1.36,0,2.59.71,3.3,1.9.22-.04.44-.06.66-.06,2.11,0,3.83,1.76,3.83,3.92,0,.73-.22,2.13-.68,2.82-.07.1-.18.16-.3.16ZM2.96,10.54c-1.53,0-2.77,1.27-2.77,2.83,0,.73.27,2.04.79,2.58.03.03.07.05.12.05h12.52c.05,0,.11-.03.14-.07.44-.65.64-2,.64-2.71,0-2.05-1.63-3.72-3.63-3.72-.22,0-.45.02-.69.07-.04.01-.08-.01-.1-.05-.66-1.17-1.84-1.86-3.16-1.86-1.67,0-3.13,1.16-3.55,2.82-.01.05-.06.08-.1.07-.07,0-.14,0-.21,0ZM13.48,15.67H1.22s-.06-.01-.08-.04c-.37-.49-.62-1.58-.62-2.26,0-1.38,1.09-2.51,2.44-2.51.12,0,.25.01.39.04.09.02.17-.04.19-.13.3-1.62,1.67-2.79,3.27-2.79,1.25,0,2.39.71,2.96,1.86.03.07.11.1.19.08.27-.07.54-.1.8-.1,1.82,0,3.31,1.52,3.31,3.4,0,.7-.2,1.82-.51,2.4-.02.03-.05.05-.09.05ZM1.27,15.48h12.14c.28-.55.46-1.6.46-2.26,0-1.76-1.39-3.2-3.11-3.2-.24,0-.5.03-.75.1-.16.04-.34-.04-.41-.19-.54-1.08-1.61-1.75-2.79-1.75-1.51,0-2.8,1.1-3.08,2.63-.04.19-.22.32-.41.29-.13-.02-.25-.03-.36-.03-1.24,0-2.24,1.04-2.24,2.31,0,.63.24,1.64.55,2.1Z"/>
      </g>
      <g>
        <path class="cls-1" d="M7.57,4.56H3.08c-.07,0-.14-.03-.19-.08-.29-.31-.43-1-.43-1.37,0-.86.68-1.55,1.52-1.55h0c.25-.82,1-1.39,1.86-1.39.67,0,1.28.34,1.64.91.68-.1,1.33.17,1.76.69.09.11.07.28-.04.37-.11.09-.28.07-.37-.04-.34-.42-.87-.62-1.43-.48-.12.03-.24-.03-.3-.14-.25-.49-.73-.8-1.27-.8-.69,0-1.28.5-1.4,1.2-.03.14-.16.23-.3.21-.05,0-.11-.01-.16-.01-.55,0-1,.46-1,1.03,0,.28.1.71.23.93h4.37c.14,0,.26.12.26.26s-.12.26-.26.26Z"/>
        <path class="cls-1" d="M7.57,4.66H3.08c-.1,0-.19-.04-.26-.11-.32-.33-.46-1.04-.46-1.44,0-.89.69-1.61,1.55-1.65.29-.84,1.06-1.4,1.93-1.4.68,0,1.3.34,1.69.9.68-.08,1.35.19,1.79.74.13.15.1.38-.05.51-.07.06-.17.09-.26.08-.1,0-.18-.06-.24-.13-.33-.4-.82-.57-1.33-.44-.16.04-.34-.04-.41-.19-.23-.46-.68-.74-1.18-.74-.64,0-1.19.47-1.31,1.12-.04.19-.22.32-.41.29-.05,0-.09-.01-.14-.01-.5,0-.9.42-.9.93,0,.25.09.62.19.83h4.31c.2,0,.36.16.36.36s-.16.36-.36.36ZM5.84.26c-.81,0-1.52.53-1.77,1.33-.01.04-.05.07-.09.07-.79,0-1.43.65-1.43,1.45,0,.37.14,1.03.4,1.3.03.03.07.05.12.05h4.5c.09,0,.16-.07.16-.16s-.07-.16-.16-.16H3.21s-.07-.02-.08-.05c-.14-.24-.24-.7-.24-.98,0-.62.49-1.13,1.09-1.13.06,0,.12,0,.18.02.09.01.17-.05.19-.13.14-.74.77-1.28,1.5-1.28.57,0,1.09.33,1.36.85.03.07.11.1.19.08.58-.15,1.15.04,1.53.51.03.03.07.05.11.06.04,0,.09,0,.12-.04.07-.06.08-.16.02-.23-.41-.51-1.04-.75-1.67-.66-.04,0-.08-.01-.1-.04-.34-.54-.92-.86-1.55-.86Z"/>
      </g>
      <g>
        <g>
          <path class="cls-1" d="M7.61,8.18c-.11,0-.21-.07-.25-.18-.21-.62-.32-1.28-.32-1.94C7.04,3.07,9.18.56,12.13.1c.14-.02.28.08.3.22.02.14-.08.28-.22.3-2.69.42-4.65,2.71-4.65,5.44,0,.61.1,1.2.29,1.77.05.14-.03.29-.16.33-.03,0-.06.01-.08.01Z"/>
          <path class="cls-1" d="M7.61,8.28c-.15,0-.29-.1-.34-.24-.21-.63-.32-1.3-.32-1.97C6.94,3.02,9.12.47,12.12,0c.09-.02.19,0,.27.06.08.06.13.14.14.24.02.09,0,.19-.06.27-.06.08-.14.13-.24.14-2.65.41-4.57,2.66-4.57,5.34,0,.6.1,1.18.29,1.74.06.19-.04.39-.23.46-.04.01-.08.02-.12.02ZM12.17.2s-.02,0-.03,0c-2.9.45-5.01,2.92-5.01,5.86,0,.65.11,1.29.31,1.91.03.08.12.13.21.1.09-.03.13-.12.1-.21-.2-.58-.3-1.18-.3-1.8,0-2.78,1.99-5.11,4.73-5.54.04,0,.08-.03.11-.07.03-.04.04-.08.03-.12,0-.04-.03-.08-.07-.11-.03-.02-.06-.03-.1-.03Z"/>
        </g>
        <g>
          <path class="cls-1" d="M13.94,12.03c-.13,0-.24-.09-.26-.22-.02-.14.08-.28.22-.3,1.07-.16,2.06-.63,2.87-1.36.11-.1.27-.09.37.02.1.11.09.27-.02.37-.88.8-1.97,1.31-3.14,1.49-.01,0-.03,0-.04,0Z"/>
          <path class="cls-1" d="M13.94,12.13c-.18,0-.33-.13-.36-.31-.03-.2.11-.38.3-.41,1.05-.16,2.02-.62,2.82-1.34.07-.06.16-.1.26-.09.1,0,.18.05.25.12.06.07.1.16.09.26,0,.1-.05.18-.12.25-.9.81-2,1.34-3.19,1.52-.02,0-.04,0-.05,0ZM16.94,10.17s-.08.01-.11.04c-.82.74-1.83,1.22-2.92,1.39-.09.01-.15.1-.14.19.01.09.1.15.19.14,1.15-.17,2.22-.68,3.09-1.47.03-.03.05-.07.05-.11,0-.04-.01-.09-.04-.12-.03-.03-.07-.05-.11-.05,0,0,0,0,0,0Z"/>
        </g>
        <g>
          <path class="cls-1" d="M15.66,10.89c-3.33,0-6.03-2.71-6.03-6.03,0-1.74.93-3.46,2.56-4.71.11-.09.28-.07.37.05.09.11.07.28-.05.37-1.49,1.15-2.35,2.72-2.35,4.29,0,3.04,2.47,5.51,5.51,5.51.25,0,.53-.08.79-.16.15-.05.29-.09.44-.12.14-.03.28.06.31.2.03.14-.06.28-.2.31-.13.03-.26.07-.4.11-.3.09-.61.19-.94.19Z"/>
          <path class="cls-1" d="M15.66,10.99c-3.38,0-6.13-2.75-6.13-6.13,0-1.77.95-3.52,2.59-4.79.08-.06.17-.09.27-.07.1.01.18.06.24.14.12.16.09.38-.07.51-1.47,1.13-2.31,2.67-2.31,4.22,0,2.98,2.43,5.41,5.41,5.41.24,0,.5-.08.76-.16.16-.05.3-.09.44-.12.09-.02.19,0,.27.05.08.05.14.13.16.23.02.09,0,.19-.05.27-.05.08-.13.14-.23.16-.12.03-.25.07-.38.11-.32.1-.64.2-.99.2ZM12.34.2s-.07.01-.1.03c-1.6,1.23-2.52,2.92-2.52,4.63,0,3.27,2.66,5.93,5.93,5.93.32,0,.62-.09.91-.18.15-.04.28-.08.4-.11.04,0,.08-.04.1-.07.02-.04.03-.08.02-.12,0-.04-.04-.08-.07-.1-.04-.02-.08-.03-.12-.02-.13.03-.27.07-.43.12-.27.08-.55.17-.82.17-3.09,0-5.61-2.51-5.61-5.61,0-1.61.87-3.2,2.39-4.37.03-.03.06-.07.06-.11,0-.04,0-.09-.03-.12-.03-.03-.07-.06-.11-.06,0,0-.01,0-.02,0Z"/>
        </g>
      </g>
    </g>
  </g>
</svg>