<?xml version="1.0" encoding="UTF-8"?>
<svg id="Layer_2" data-name="Layer 2" xmlns="http://www.w3.org/2000/svg" viewBox="0 0 19.68 18.45">
  <defs>
    <style>
      .cls-1 {
        fill: #1f1f1f;
      }
    </style>
  </defs>
  <g id="Object">
    <g>
      <g>
        <path class="cls-1" d="M9.83,18.36h0c-.08,0-.15-.04-.2-.1L.16,6.73c-.08-.09-.08-.23,0-.33L4.89.2c.05-.07.13-.1.21-.1h9.68c.08,0,.16.04.21.11l4.54,6.29c.07.1.07.23-.01.32l-9.49,11.44c-.05.06-.12.09-.2.09ZM.69,6.56l9.14,11.13,9.15-11.04L14.64.62H5.23L.69,6.56Z"/>
        <path class="cls-1" d="M9.83,18.45h0c-.11,0-.21-.05-.28-.13L.08,6.79c-.11-.13-.11-.31,0-.45L4.81.14C4.88.05,4.99,0,5.1,0h9.68c.12,0,.22.06.29.15l4.54,6.29c.1.13.09.31-.01.44l-9.48,11.44c-.07.08-.17.13-.28.13ZM5.1.2c-.05,0-.1.02-.13.06L.23,6.46c-.05.06-.04.14,0,.2l9.47,11.53s.08.06.13.06v.1s0-.1,0-.1c.05,0,.09-.02.13-.06l9.49-11.44c.05-.06.05-.14,0-.2L14.91.26s-.08-.07-.13-.07H5.1ZM9.83,17.78h0s-.06-.01-.08-.04L.62,6.62s-.03-.09,0-.12L5.15.56s.05-.04.08-.04h9.41s.06.02.08.04l4.35,6.02s.02.09,0,.12l-9.15,11.04s-.05.04-.08.04ZM.82,6.56l9.01,10.97,9.03-10.89L14.59.72H5.27L.82,6.56Z"/>
      </g>
      <g>
        <path class="cls-1" d="M9.83,18.36c-.1,0-.2-.06-.24-.16L4.85,6.66c-.04-.09-.02-.18.03-.26L9.62.2c.09-.11.25-.14.37-.05.12.09.14.25.05.37l-4.64,6.08,4.68,11.39c.06.13,0,.29-.14.34-.03.01-.07.02-.1.02Z"/>
        <path class="cls-1" d="M9.83,18.45c-.15,0-.28-.09-.33-.22L4.76,6.7c-.05-.12-.03-.25.05-.36L9.55.14c.06-.08.14-.13.24-.14.1-.01.19.01.27.07.08.06.13.14.14.24.01.1-.01.19-.07.27l-4.61,6.04,4.66,11.34c.08.18-.01.39-.2.47-.04.02-.09.03-.14.03ZM9.83.2s-.01,0-.02,0c-.04,0-.08.03-.11.06l-4.74,6.2s-.04.11-.02.16l4.74,11.53c.03.08.13.12.21.09.08-.03.12-.13.09-.21L5.31,6.64s0-.07.01-.1L9.96.46s.04-.08.03-.12c0-.04-.03-.08-.06-.11-.03-.02-.06-.03-.1-.03Z"/>
      </g>
      <g>
        <path class="cls-1" d="M9.84,18.36s-.07,0-.1-.02c-.13-.06-.2-.21-.14-.34l4.68-11.39L9.63.52c-.09-.11-.07-.28.05-.37.12-.09.28-.07.37.05l4.74,6.2c.06.07.07.17.03.26l-4.74,11.53c-.04.1-.14.16-.24.16Z"/>
        <path class="cls-1" d="M9.84,18.45s-.09,0-.14-.03c-.18-.08-.27-.29-.2-.47l4.66-11.34L9.55.58c-.06-.08-.08-.17-.07-.27.01-.1.06-.18.14-.24.08-.06.17-.08.27-.07.1.01.18.06.24.14l4.74,6.2c.08.1.1.24.05.36l-4.74,11.53c-.06.14-.19.22-.33.22ZM9.84.2s-.07.01-.1.03c-.04.03-.06.07-.06.11,0,.04,0,.09.03.12l4.64,6.08s.03.06.01.1l-4.68,11.39c-.03.08,0,.18.09.21.08.03.18,0,.21-.09l4.74-11.53c.02-.05.01-.12-.02-.16L9.97.26s-.07-.06-.11-.06c0,0-.02,0-.02,0Z"/>
      </g>
      <g>
        <path class="cls-1" d="M19.32,6.83H.36c-.14,0-.26-.12-.26-.26s.12-.26.26-.26h18.96c.14,0,.26.12.26.26s-.12.26-.26.26Z"/>
        <path class="cls-1" d="M19.32,6.92H.36C.16,6.92,0,6.76,0,6.56s.16-.36.36-.36h18.96c.2,0,.36.16.36.36s-.16.36-.36.36ZM.36,6.4c-.09,0-.16.07-.16.16s.07.16.16.16h18.96c.09,0,.16-.07.16-.16s-.07-.16-.16-.16H.36Z"/>
      </g>
    </g>
  </g>
</svg>