<?xml version="1.0" encoding="UTF-8"?>
<svg id="Layer_2" data-name="Layer 2" xmlns="http://www.w3.org/2000/svg" viewBox="0 0 19.69 19.66">
  <defs>
    <style>
      .cls-1 {
        fill: #1f1f1f;
      }
    </style>
  </defs>
  <g id="Object">
    <g>
      <g>
        <path class="cls-1" d="M19.33.1c-.14,0-.26.12-.26.26v18.93c0,.14.12.26.26.26s.26-.12.26-.26V.36c0-.14-.12-.26-.26-.26Z"/>
        <path class="cls-1" d="M19.33,19.66c-.2,0-.36-.16-.36-.36V.36c0-.2.16-.36.36-.36s.36.16.36.36v18.94c0,.2-.16.36-.36.36ZM19.33.2c-.09,0-.16.07-.16.16v18.94c0,.09.07.16.16.16s.16-.07.16-.16V.36c0-.09-.07-.16-.16-.16Z"/>
      </g>
      <g>
        <path class="cls-1" d="M15.99,4.42c.14,0,.26-.12.26-.26s-.12-.26-.26-.26H.36c-.14,0-.26.12-.26.26v4.72c0,.14.12.26.26.26h16.61c.14,0,.26-.12.26-.26v-2.41c0-.14-.12-.26-.26-.26s-.26.12-.26.26v2.15H.62v-4.19h15.37Z"/>
        <path class="cls-1" d="M16.97,9.24H.36c-.2,0-.36-.16-.36-.36v-4.72c0-.2.16-.36.36-.36h15.63c.2,0,.36.16.36.36s-.16.36-.36.36H.72v4h15.89v-2.05c0-.2.16-.36.36-.36s.36.16.36.36v2.41c0,.2-.16.36-.36.36ZM.36,4c-.09,0-.16.07-.16.16v4.72c0,.09.07.16.16.16h16.61c.09,0,.16-.07.16-.16v-2.41c0-.09-.07-.16-.16-.16s-.16.07-.16.16v2.15c0,.05-.04.1-.1.1H.62c-.05,0-.1-.04-.1-.1v-4.19c0-.05.04-.1.1-.1h15.37c.09,0,.16-.07.16-.16s-.07-.16-.16-.16H.36Z"/>
      </g>
      <g>
        <path class="cls-1" d="M17.17,15.89v-2.41c0-.14-.12-.26-.26-.26s-.26.12-.26.26v2.15H5.31v-4.13h10.69c.14,0,.26-.12.26-.26s-.12-.26-.26-.26H5.05c-.14,0-.26.12-.26.26v4.65c0,.14.12.26.26.26h11.86c.14,0,.26-.12.26-.26Z"/>
        <path class="cls-1" d="M16.9,16.25H5.05c-.2,0-.36-.16-.36-.36v-4.65c0-.2.16-.36.36-.36h10.95c.2,0,.36.16.36.36s-.16.36-.36.36H5.41v3.93h11.14v-2.05c0-.2.16-.36.36-.36s.36.16.36.36v2.41c0,.2-.16.36-.36.36ZM5.05,11.07c-.09,0-.16.07-.16.16v4.65c0,.09.07.16.16.16h11.86c.09,0,.16-.07.16-.16v-2.41c0-.09-.07-.16-.16-.16s-.16.07-.16.16v2.15c0,.05-.04.1-.1.1H5.31c-.05,0-.1-.04-.1-.1v-4.13c0-.05.04-.1.1-.1h10.69c.09,0,.16-.07.16-.16s-.07-.16-.16-.16H5.05Z"/>
      </g>
    </g>
  </g>
</svg>