<?xml version="1.0" encoding="UTF-8"?>
<svg id="Layer_2" data-name="Layer 2" xmlns="http://www.w3.org/2000/svg" viewBox="0 0 19.03 15.14">
  <defs>
    <style>
      .cls-1 {
        fill: #1f1f1f;
      }
    </style>
  </defs>
  <g id="Object">
    <g>
      <g>
        <path class="cls-1" d="M17.85,11.19h-5.92c-.14,0-.26-.12-.26-.26s.12-.26.26-.26h5.77c.41-.73.69-2.22.69-3.19,0-2.44-1.94-4.43-4.31-4.43-.34,0-.69.05-1.05.14-.12.03-.24-.03-.3-.14-.75-1.5-2.23-2.43-3.87-2.43-2.09,0-3.89,1.53-4.27,3.64-.03.14-.16.23-.3.21-.19-.03-.35-.05-.51-.05-1.75,0-3.17,1.46-3.17,3.26,0,.95.35,2.38.84,2.99h5.76c.14,0,.26.12.26.26s-.12.26-.26.26H1.34c-.07,0-.14-.03-.19-.08C.46,10.39.1,8.66.1,7.69.1,5.6,1.76,3.9,3.79,3.9c.11,0,.23,0,.35.02C4.66,1.69,6.62.1,8.88.1c1.76,0,3.37.96,4.24,2.53.33-.07.65-.11.97-.11,2.67,0,4.84,2.22,4.84,4.96,0,.98-.3,2.77-.86,3.6-.05.07-.13.12-.22.12Z"/>
        <path class="cls-1" d="M17.85,11.29h-5.92c-.2,0-.36-.16-.36-.36s.16-.36.36-.36h5.71c.39-.73.65-2.17.65-3.09,0-2.39-1.89-4.34-4.22-4.34-.33,0-.67.05-1.02.13-.16.04-.34-.04-.41-.19-.73-1.46-2.18-2.37-3.78-2.37-2.04,0-3.8,1.5-4.18,3.56-.03.19-.22.32-.41.29-.18-.03-.34-.05-.5-.05-1.69,0-3.07,1.42-3.07,3.16,0,.88.32,2.27.79,2.89h5.71c.2,0,.36.16.36.36s-.16.36-.36.36H1.34c-.1,0-.19-.04-.26-.11-.7-.74-1.08-2.51-1.08-3.5,0-2.14,1.7-3.88,3.79-3.88.09,0,.18,0,.27.01.57-2.25,2.53-3.82,4.81-3.82,1.76,0,3.4.96,4.29,2.52.31-.06.62-.09.92-.09,2.72,0,4.94,2.27,4.94,5.06,0,.99-.3,2.81-.87,3.65-.07.1-.18.16-.3.16ZM11.94,10.77c-.09,0-.16.07-.16.16s.07.16.16.16h5.92c.05,0,.11-.03.14-.07.55-.81.84-2.58.84-3.54,0-2.68-2.13-4.86-4.74-4.86-.31,0-.63.03-.95.1-.04,0-.09-.01-.11-.05C12.18,1.15,10.59.2,8.88.2,6.66.2,4.75,1.74,4.24,3.94c-.01.05-.06.08-.11.08-.12-.01-.23-.02-.34-.02C1.81,4,.2,5.65.2,7.69c0,.96.36,2.66,1.02,3.36.03.03.07.05.12.05h5.88c.09,0,.16-.07.16-.16s-.07-.16-.16-.16H1.46s-.06-.01-.08-.04c-.51-.64-.86-2.09-.86-3.05,0-1.85,1.47-3.36,3.27-3.36.16,0,.34.02.53.05.09.02.17-.04.19-.13.4-2.16,2.23-3.72,4.37-3.72,1.67,0,3.19.95,3.95,2.48.03.07.11.1.19.09.36-.09.72-.14,1.07-.14,2.43,0,4.41,2.03,4.41,4.53,0,.96-.27,2.47-.71,3.24-.02.03-.05.05-.09.05h-5.77Z"/>
      </g>
      <g>
        <path class="cls-1" d="M9.51,14.77c-.14,0-.26-.12-.26-.26V6.5c0-.14.12-.26.26-.26s.26.12.26.26v8.01c0,.14-.12.26-.26.26Z"/>
        <path class="cls-1" d="M9.51,14.87c-.2,0-.36-.16-.36-.36V6.5c0-.2.16-.36.36-.36s.36.16.36.36v8.01c0,.2-.16.36-.36.36ZM9.51,6.34c-.09,0-.16.07-.16.16v8.01c0,.09.07.16.16.16s.16-.07.16-.16V6.5c0-.09-.07-.16-.16-.16Z"/>
      </g>
      <g>
        <path class="cls-1" d="M9.51,15.04c-.08,0-.16-.04-.21-.11l-1.61-2.25c-.08-.12-.06-.28.06-.37.12-.08.28-.06.37.06l1.39,1.96,1.39-1.96c.08-.12.25-.15.37-.06.12.08.15.25.06.37l-1.61,2.25c-.05.07-.13.11-.21.11Z"/>
        <path class="cls-1" d="M9.51,15.14c-.12,0-.23-.06-.29-.15l-1.61-2.25c-.06-.08-.08-.17-.06-.27.02-.09.07-.18.15-.23.16-.12.39-.08.5.08l1.31,1.84,1.31-1.84c.12-.16.34-.2.5-.08.08.06.13.14.15.23.02.09,0,.19-.06.27l-1.61,2.25c-.07.09-.18.15-.29.15ZM7.91,12.36s-.07.01-.09.03c-.04.03-.06.06-.07.11,0,.04,0,.09.03.12l1.61,2.25c.06.09.21.09.27,0l1.61-2.25s.04-.08.03-.12c0-.04-.03-.08-.07-.11-.07-.05-.18-.04-.23.04l-1.39,1.95c-.04.05-.12.05-.16,0l-1.39-1.96s-.08-.07-.13-.07Z"/>
      </g>
    </g>
  </g>
</svg>