<?xml version="1.0" encoding="UTF-8"?>
<svg id="Layer_2" data-name="Layer 2" xmlns="http://www.w3.org/2000/svg" viewBox="0 0 19.59 19.55">
  <defs>
    <style>
      .cls-1 {
        fill: #1f1f1f;
      }
    </style>
  </defs>
  <g id="Object">
    <g>
      <path class="cls-1" d="M19.08,9.36h-4.17v-3.83c0-.23.04-.58-.41-.58h-4.57v-.58h0V.57c0-.26-.21-.48-.48-.48H.52C.29.1.1.29.1.52v8.96c0,.25.2.45.45.45h4.27v4.5c0,.24.19.43.43.43h4.15v4.17c0,.23.18.41.41.41h9.27c.23,0,.41-.18.41-.41v-9.27c0-.23-.18-.41-.41-.41ZM.62.62h8.78l-.02,8.78h-4.56s0,0,0,0H.62V.62ZM9.66,14.34h-4.32v-4.39h4.08c.28,0,.5-.23.5-.5v-3.9h0v-.07h4.45v8.87h-4.72ZM18.97,18.93h-9.04v-4.06h4.57c.23,0,.41-.18.41-.41v-4.52s4.06,0,4.06,0v9Z"/>
      <path class="cls-1" d="M19.08,19.55h-9.27c-.28,0-.51-.23-.51-.51v-4.08h-4.06c-.29,0-.53-.24-.53-.53v-4.41H.55c-.3,0-.55-.25-.55-.55V.52C0,.23.23,0,.52,0h8.93c.32,0,.58.26.58.58v3.78s0,.01,0,.02v.48h4.47c.16,0,.29.04.38.13.14.14.13.35.13.5v.05s0,3.73,0,3.73h4.08c.28,0,.51.23.51.51v9.27c0,.28-.23.51-.51.51ZM.52.2C.34.2.2.34.2.52v8.96c0,.19.16.35.35.35h4.27c.05,0,.1.04.1.1v4.5c0,.18.15.33.33.33h4.15c.05,0,.1.04.1.1v4.17c0,.17.14.31.31.31h9.27c.17,0,.31-.14.31-.31v-9.27c0-.17-.14-.31-.31-.31h-4.17c-.05,0-.1-.04-.1-.1v-3.88c0-.13,0-.28-.08-.36-.05-.05-.13-.07-.24-.07h-4.57c-.05,0-.1-.04-.1-.1v-.56s0-.01,0-.02V.58c0-.21-.17-.38-.38-.38H.52ZM18.97,19.02h-9.04c-.05,0-.1-.04-.1-.1v-4.06c0-.05.04-.1.1-.1h4.57c.17,0,.31-.14.31-.31v-4.52c0-.05.04-.1.1-.1h4.06c.05,0,.1.04.1.1v9c0,.05-.04.1-.1.1ZM10.02,18.83h8.85v-8.8h-3.87v4.43c0,.28-.23.51-.51.51h-4.47v3.87ZM14.38,14.44H5.34c-.05,0-.1-.04-.1-.1v-4.39c0-.05.04-.1.1-.1h4.08c.22,0,.4-.18.4-.41v-3.9s0-.01,0-.02v-.05c0-.05.04-.1.1-.1h4.45c.05,0,.1.04.1.1v8.87c0,.05-.04.1-.1.1ZM5.44,14.24h8.84V5.57h-4.26v3.87c0,.33-.27.6-.6.6h-3.98v4.2ZM9.38,9.5H.62c-.05,0-.1-.04-.1-.1V.62c0-.05.04-.1.1-.1h8.78s.05.01.07.03.03.04.03.07l-.02,8.78c0,.05-.04.1-.1.1ZM.72,9.3h8.56s.02-8.58.02-8.58H.72v8.58Z"/>
    </g>
  </g>
</svg>