<?xml version="1.0" encoding="UTF-8"?>
<svg id="Layer_2" data-name="Layer 2" xmlns="http://www.w3.org/2000/svg" viewBox="0 0 19.85 19.46">
  <defs>
    <style>
      .cls-1 {
        fill: #1f1f1f;
      }
    </style>
  </defs>
  <g id="Object">
    <g>
      <path class="cls-1" d="M7.7,17.13c.14,0,.26-.12.26-.26v-6.94h1.57v9.17c0,.14.12.26.26.26h4.85c.14,0,.26-.12.26-.26v-9.3h4.59c.14,0,.26-.12.26-.26s-.12-.26-.26-.26h-4.59V.36c0-.14-.12-.26-.26-.26h-4.85c-.14,0-.26.12-.26.26v9.04h-1.57v-4.94c0-.14-.12-.26-.26-.26s-.26.12-.26.26v12.15H3.11V2.85h2.89c.14,0,.26-.12.26-.26s-.12-.26-.26-.26h-3.15c-.14,0-.26.12-.26.26v6.81H.36c-.14,0-.26.12-.26.26s.12.26.26.26h2.23v6.95c0,.14.12.26.26.26h4.85ZM10.06,9.66V.62h4.32v18.21h-4.32v-9.17Z"/>
      <path class="cls-1" d="M14.64,19.46h-4.85c-.2,0-.36-.16-.36-.36v-9.07h-1.38v6.85c0,.2-.16.36-.36.36H2.85c-.2,0-.36-.16-.36-.36v-6.85H.36c-.2,0-.36-.16-.36-.36s.16-.36.36-.36h2.13V2.59c0-.2.16-.36.36-.36h3.15c.2,0,.36.16.36.36s-.16.36-.36.36h-2.79v13.56h4.13V4.46c0-.2.16-.36.36-.36s.36.16.36.36v4.84h1.38V.36c0-.2.16-.36.36-.36h4.85c.2,0,.36.16.36.36v8.81h4.49c.2,0,.36.16.36.36s-.16.36-.36.36h-4.49v9.21c0,.2-.16.36-.36.36ZM7.96,9.83h1.57c.05,0,.1.04.1.1v9.17c0,.09.07.16.16.16h4.85c.09,0,.16-.07.16-.16v-9.3c0-.05.04-.1.1-.1h4.59c.09,0,.16-.07.16-.16s-.07-.16-.16-.16h-4.59c-.05,0-.1-.04-.1-.1V.36c0-.09-.07-.16-.16-.16h-4.85c-.09,0-.16.07-.16.16v9.04c0,.05-.04.1-.1.1h-1.57c-.05,0-.1-.04-.1-.1v-4.94c0-.09-.07-.16-.16-.16s-.16.07-.16.16v12.15c0,.05-.04.1-.1.1H3.11c-.05,0-.1-.04-.1-.1V2.85c0-.05.04-.1.1-.1h2.89c.09,0,.16-.07.16-.16s-.07-.16-.16-.16h-3.15c-.09,0-.16.07-.16.16v6.81c0,.05-.04.1-.1.1H.36c-.09,0-.16.07-.16.16s.07.16.16.16h2.23c.05,0,.1.04.1.1v6.95c0,.09.07.16.16.16h4.85c.09,0,.16-.07.16-.16v-6.94c0-.05.04-.1.1-.1ZM14.38,18.93h-4.32c-.05,0-.1-.04-.1-.1V.62c0-.05.04-.1.1-.1h4.32c.05,0,.1.04.1.1v18.21c0,.05-.04.1-.1.1ZM10.16,18.74h4.13V.72h-4.13v18.02Z"/>
    </g>
  </g>
</svg>