<?xml version="1.0" encoding="UTF-8"?>
<svg id="Layer_2" data-name="Layer 2" xmlns="http://www.w3.org/2000/svg" viewBox="0 0 16.3 15.25">
  <defs>
    <style>
      .cls-1 {
        fill: #1f1f1f;
      }
    </style>
  </defs>
  <g id="Object">
    <g>
      <path class="cls-1" d="M7.93,15.25c-.09,0-.19-.03-.26-.1L.13,8.36c-.16-.15-.17-.39-.03-.56.15-.16.39-.17.56-.03l7.28,6.57,7.71-6.57c.17-.14.41-.12.55.04.14.17.12.41-.04.55l-7.98,6.8c-.07.06-.16.09-.25.09Z"/>
      <path class="cls-1" d="M7.93,7.58c-.09,0-.19-.03-.26-.1L.13.69C-.03.54-.04.29.1.13.25-.03.5-.04.66.1l7.28,6.57L15.65.09c.17-.14.41-.12.55.04.14.17.12.41-.04.55l-7.98,6.8c-.07.06-.16.09-.25.09Z"/>
    </g>
  </g>
</svg>