<?xml version="1.0" encoding="UTF-8"?>
<svg id="Layer_2" data-name="Layer 2" xmlns="http://www.w3.org/2000/svg" viewBox="0 0 18.64 13.07">
  <defs>
    <style>
      .cls-1 {
        fill: #1f1f1f;
      }
    </style>
  </defs>
  <g id="Object">
    <g>
      <g>
        <path class="cls-1" d="M12.25,3.5H.36c-.14,0-.26-.12-.26-.26s.12-.26.26-.26h11.89c.14,0,.26.12.26.26s-.12.26-.26.26Z"/>
        <path class="cls-1" d="M12.25,3.59H.36c-.2,0-.36-.16-.36-.36s.16-.36.36-.36h11.89c.2,0,.36.16.36.36s-.16.36-.36.36ZM.36,3.07c-.09,0-.16.07-.16.16s.07.16.16.16h11.89c.09,0,.16-.07.16-.16s-.07-.16-.16-.16H.36Z"/>
      </g>
      <g>
        <path class="cls-1" d="M12.25,8.23H.36c-.14,0-.26-.12-.26-.26s.12-.26.26-.26h11.89c.14,0,.26.12.26.26s-.12.26-.26.26Z"/>
        <path class="cls-1" d="M12.25,8.33H.36c-.2,0-.36-.16-.36-.36s.16-.36.36-.36h11.89c.2,0,.36.16.36.36s-.16.36-.36.36ZM.36,7.81c-.09,0-.16.07-.16.16s.07.16.16.16h11.89c.09,0,.16-.07.16-.16s-.07-.16-.16-.16H.36Z"/>
      </g>
      <g>
        <path class="cls-1" d="M12.25,12.97H.36c-.14,0-.26-.12-.26-.26s.12-.26.26-.26h11.89c.14,0,.26.12.26.26s-.12.26-.26.26Z"/>
        <path class="cls-1" d="M12.25,13.07H.36c-.2,0-.36-.16-.36-.36s.16-.36.36-.36h11.89c.2,0,.36.16.36.36s-.16.36-.36.36ZM.36,12.55c-.09,0-.16.07-.16.16s.07.16.16.16h11.89c.09,0,.16-.07.16-.16s-.07-.16-.16-.16H.36Z"/>
      </g>
      <g>
        <path class="cls-1" d="M15.44,8.23h-.69c-.14,0-.26-.12-.26-.26s.12-.26.26-.26h.69c.14,0,.26.12.26.26s-.12.26-.26.26Z"/>
        <path class="cls-1" d="M15.44,8.33h-.69c-.2,0-.36-.16-.36-.36s.16-.36.36-.36h.69c.2,0,.36.16.36.36s-.16.36-.36.36ZM14.76,7.81c-.09,0-.16.07-.16.16s.07.16.16.16h.69c.09,0,.16-.07.16-.16s-.07-.16-.16-.16h-.69Z"/>
      </g>
      <g>
        <path class="cls-1" d="M15.44,12.97h-.69c-.14,0-.26-.12-.26-.26s.12-.26.26-.26h.69c.14,0,.26.12.26.26s-.12.26-.26.26Z"/>
        <path class="cls-1" d="M15.44,13.07h-.69c-.2,0-.36-.16-.36-.36s.16-.36.36-.36h.69c.2,0,.36.16.36.36s-.16.36-.36.36ZM14.76,12.55c-.09,0-.16.07-.16.16s.07.16.16.16h.69c.09,0,.16-.07.16-.16s-.07-.16-.16-.16h-.69Z"/>
      </g>
      <g>
        <path class="cls-1" d="M15.21,3.67c-.06,0-.13-.02-.18-.07l-.69-.65c-.11-.1-.11-.26-.01-.37.1-.11.26-.11.37-.01l.51.48L18.09.17c.1-.1.27-.1.37,0,.1.1.1.27,0,.37l-3.07,3.05c-.05.05-.12.08-.18.08Z"/>
        <path class="cls-1" d="M15.21,3.77c-.09,0-.18-.03-.25-.1l-.69-.65c-.15-.14-.15-.36-.02-.51.07-.07.15-.11.25-.11.1,0,.19.03.26.1l.44.41L18.02.1c.07-.07.16-.1.25-.1.1,0,.19.04.26.11.07.07.11.16.1.26,0,.1-.04.19-.11.25l-3.07,3.05c-.07.07-.16.1-.25.1ZM14.51,2.6h0s-.08.02-.11.05c-.06.07-.06.17,0,.23l.69.65c.06.06.17.06.23,0l3.07-3.05s.05-.07.05-.12c0-.04-.02-.08-.05-.12-.03-.03-.07-.05-.12-.05h0s-.08.02-.12.05l-2.89,2.87s-.1.04-.14,0l-.51-.48s-.07-.04-.11-.04Z"/>
      </g>
    </g>
  </g>
</svg>