<?xml version="1.0" encoding="UTF-8"?>
<svg id="Layer_2" data-name="Layer 2" xmlns="http://www.w3.org/2000/svg" viewBox="0 0 23.03 19.26">
  <defs>
    <style>
      .cls-1 {
        fill: #1f1f1f;
      }
    </style>
  </defs>
  <g id="Object">
    <g>
      <g>
        <path class="cls-1" d="M19.91,3.66s-.05,0-.07,0L11.59,1.31,3.35,3.65c-.14.04-.28-.04-.32-.18-.04-.14.04-.28.18-.32L11.52.78s.1-.01.14,0l8.31,2.36c.14.04.22.18.18.32-.03.12-.14.19-.25.19Z"/>
        <path class="cls-1" d="M3.28,3.75c-.06,0-.12-.02-.17-.05-.09-.05-.15-.12-.17-.22-.03-.09-.02-.19.03-.27.05-.08.12-.14.22-.17L11.5.69c.06-.02.13-.02.2,0l8.31,2.36c.09.03.17.09.22.17.05.08.06.18.03.27-.05.19-.26.3-.45.25L11.59,1.41,3.38,3.74s-.07.01-.1.01ZM11.59.87s-.03,0-.04,0L3.24,3.24s-.08.04-.1.08c-.02.04-.03.08-.01.12.01.04.04.08.08.1.04.02.08.03.12.01L11.57,1.21s.04,0,.05,0l8.24,2.34c.08.02.18-.03.2-.11.01-.04,0-.09-.01-.12-.02-.04-.06-.07-.1-.08L11.64.88s-.03,0-.04,0Z"/>
      </g>
      <g>
        <path class="cls-1" d="M11.59,6.28s-.05,0-.08-.01L3.2,3.73c-.14-.04-.22-.19-.17-.33.04-.14.19-.22.33-.17l8.24,2.51,8.24-2.51c.14-.04.28.04.33.17.04.14-.04.28-.17.33l-8.31,2.53s-.05.01-.08.01Z"/>
        <path class="cls-1" d="M11.59,6.38s-.07,0-.1-.02L3.18,3.83c-.19-.06-.3-.26-.24-.45.06-.19.26-.3.45-.24l8.21,2.5,8.21-2.5c.19-.06.39.05.45.24.06.19-.05.39-.24.45l-8.31,2.53s-.07.02-.1.02ZM3.28,3.32c-.07,0-.14.05-.16.12-.03.09.02.18.11.2l8.31,2.53s.06,0,.1,0l8.31-2.53c.09-.03.14-.12.11-.2-.03-.09-.12-.14-.2-.11l-8.24,2.51s-.04,0-.06,0L3.33,3.32s-.03,0-.05,0Z"/>
      </g>
      <g>
        <path class="cls-1" d="M11.59,19.17s-.06,0-.08-.01l-8.31-2.8c-.11-.04-.18-.14-.18-.25V5.95c0-.14.12-.26.26-.26s.26.12.26.26v9.97l8.06,2.71,8.05-2.28V6.08c0-.14.12-.26.26-.26s.26.12.26.26v10.47c0,.12-.08.22-.19.25l-8.31,2.36s-.05,0-.07,0Z"/>
        <path class="cls-1" d="M11.59,19.26s-.08,0-.11-.02l-8.31-2.8c-.15-.05-.25-.19-.25-.34V5.95c0-.2.16-.36.36-.36s.36.16.36.36v9.9l7.96,2.68,7.94-2.25V6.08c0-.2.16-.36.36-.36s.36.16.36.36v10.47c0,.16-.11.3-.26.35l-8.31,2.36s-.07.01-.1.01ZM3.28,5.79c-.09,0-.16.07-.16.16v10.16c0,.07.05.13.11.16l8.31,2.8s.07.01.1,0l8.31-2.36c.07-.02.12-.08.12-.16V6.08c0-.09-.07-.16-.16-.16s-.16.07-.16.16v10.27s-.03.08-.07.09l-8.05,2.28s-.04,0-.06,0l-8.06-2.71s-.07-.05-.07-.09V5.95c0-.09-.07-.16-.16-.16Z"/>
      </g>
      <g>
        <path class="cls-1" d="M11.59,19.17c-.14,0-.26-.12-.26-.26V6.01c0-.14.12-.26.26-.26s.26.12.26.26v12.89c0,.14-.12.26-.26.26Z"/>
        <path class="cls-1" d="M11.59,19.26c-.2,0-.36-.16-.36-.36V6.01c0-.2.16-.36.36-.36s.36.16.36.36v12.89c0,.2-.16.36-.36.36ZM11.59,5.85c-.09,0-.16.07-.16.16v12.89c0,.09.07.16.16.16s.16-.07.16-.16V6.01c0-.09-.07-.16-.16-.16Z"/>
      </g>
      <g>
        <path class="cls-1" d="M3.56,3.83s-.05,0-.07-.01l-2.91-.85c-.11-.03-.19-.14-.19-.25,0-.12.08-.22.19-.25L9.03.11s.09-.01.14,0l2.5.67c.14.04.22.18.18.32-.04.14-.18.22-.32.18l-2.43-.66L1.61,2.72l2.03.59c.14.04.22.19.18.32-.03.11-.14.19-.25.19Z"/>
        <path class="cls-1" d="M3.56,3.93s-.07,0-.1-.01l-2.91-.85c-.15-.05-.26-.19-.26-.35,0-.16.11-.3.26-.34L9,.01c.06-.02.13-.02.19,0l2.5.68c.19.05.31.25.25.44-.05.19-.25.3-.44.25l-2.4-.65L1.97,2.73l1.7.49c.19.06.3.26.25.45-.04.15-.19.26-.35.26ZM9.1.2s-.03,0-.04,0L.61,2.56c-.07.02-.12.08-.12.16,0,.07.05.14.12.16l2.91.85c.09.03.18-.03.2-.11.03-.09-.02-.18-.11-.2l-2.03-.59s-.07-.05-.07-.09c0-.04.03-.08.07-.09L9.07.54s.03,0,.05,0l2.43.66c.09.02.18-.03.2-.12.02-.09-.03-.18-.12-.2l-2.5-.67s-.03,0-.04,0Z"/>
      </g>
      <g>
        <path class="cls-1" d="M19.63,3.83c-.11,0-.22-.07-.25-.19-.04-.14.04-.28.18-.32l2.03-.59L14.09.63l-2.43.66c-.14.04-.28-.04-.32-.18-.04-.14.05-.28.18-.32L14.02.11s.09-.01.14,0l8.44,2.36c.11.03.19.13.19.25,0,.12-.08.22-.19.25l-2.91.85s-.05.01-.07.01Z"/>
        <path class="cls-1" d="M19.63,3.93c-.16,0-.3-.11-.35-.26-.06-.19.05-.39.25-.45l1.7-.49-7.13-1.99-2.4.65c-.19.05-.39-.06-.44-.25-.05-.19.06-.39.25-.44L14,.01c.06-.02.13-.02.19,0l8.44,2.36c.15.04.26.18.26.34,0,.16-.11.3-.26.35l-2.91.85s-.07.01-.1.01ZM14.09.53s.02,0,.03,0l7.49,2.09s.07.05.07.09c0,.04-.03.08-.07.09l-2.03.59c-.09.03-.14.12-.11.2.02.08.12.14.2.11l2.91-.85c.07-.02.12-.09.12-.16,0-.07-.05-.14-.12-.16L14.14.2s-.06,0-.09,0l-2.5.67c-.09.02-.14.11-.12.2.02.09.11.14.2.12l2.43-.66s.02,0,.03,0Z"/>
      </g>
      <g>
        <path class="cls-1" d="M8.63,8.15s-.06,0-.09-.02L.27,5.1c-.1-.04-.17-.13-.17-.24,0-.11.06-.2.15-.25l3.2-1.46c.13-.06.29,0,.35.13.06.13,0,.29-.13.35l-2.62,1.2,7.56,2.78,2.84-1.47c.13-.07.29-.02.35.11.07.13.02.29-.11.35l-2.94,1.52s-.08.03-.12.03Z"/>
        <path class="cls-1" d="M8.63,8.25s-.08,0-.12-.02L.24,5.19c-.14-.05-.23-.18-.24-.32,0-.15.08-.28.21-.34l3.2-1.46c.09-.04.18-.04.28-.01.09.03.16.1.2.19.08.18,0,.4-.18.48l-2.41,1.1,7.3,2.68,2.8-1.45c.18-.09.39-.02.49.15.09.18.02.39-.15.49l-2.94,1.52c-.05.03-.11.04-.17.04ZM3.56,3.23s-.05,0-.07.01L.29,4.71c-.06.03-.1.09-.1.16,0,.07.04.12.11.15l8.27,3.04s.09.01.13,0l2.94-1.52c.08-.04.11-.14.07-.22-.04-.08-.14-.11-.22-.07l-2.84,1.47s-.05.01-.08,0L1.02,4.92s-.06-.05-.06-.09c0-.04.02-.08.06-.09l2.62-1.2c.08-.04.12-.14.08-.22-.03-.06-.09-.1-.15-.1Z"/>
      </g>
      <g>
        <path class="cls-1" d="M14.4,8.15s-.08,0-.12-.03l-2.94-1.52c-.13-.07-.18-.22-.11-.35.07-.13.22-.18.35-.11l2.84,1.47,7.56-2.78-2.62-1.2c-.13-.06-.19-.22-.13-.35.06-.13.22-.19.35-.13l3.2,1.46c.1.04.16.14.15.25s-.07.2-.17.24l-8.27,3.04s-.06.02-.09.02Z"/>
        <path class="cls-1" d="M14.4,8.25c-.06,0-.11-.01-.17-.04l-2.94-1.52c-.18-.09-.25-.31-.15-.49.09-.18.31-.25.49-.16l2.8,1.45,7.3-2.68-2.41-1.1c-.18-.08-.26-.3-.18-.48.08-.18.3-.26.48-.18l3.2,1.46c.13.06.22.19.21.34,0,.15-.1.27-.24.32l-8.27,3.04s-.08.02-.12.02ZM11.46,6.21c-.06,0-.12.03-.14.09-.04.08,0,.18.07.22l2.94,1.52s.09.02.13,0l8.27-3.04c.06-.02.1-.08.11-.15,0-.07-.04-.13-.1-.16l-3.2-1.46c-.08-.04-.18,0-.22.08-.04.08,0,.18.08.22l2.62,1.2s.06.05.06.09c0,.04-.03.07-.06.09l-7.56,2.78s-.05,0-.08,0l-2.84-1.47s-.05-.02-.08-.02Z"/>
      </g>
    </g>
  </g>
</svg>