<?xml version="1.0" encoding="UTF-8"?>
<svg id="Layer_2" data-name="Layer 2" xmlns="http://www.w3.org/2000/svg" viewBox="0 0 18.99 19.17">
  <defs>
    <style>
      .cls-1 {
        fill: #1f1f1f;
      }
    </style>
  </defs>
  <g id="Object">
    <g>
      <g>
        <g>
          <path class="cls-1" d="M4.71,19.07H.41c-.14,0-.26-.12-.26-.26v-9.5c0-.14.12-.26.26-.26h4.3c.14,0,.26.12.26.26v9.5c0,.14-.12.26-.26.26ZM.67,18.55h3.78v-8.98H.67v8.98Z"/>
          <path class="cls-1" d="M4.71,19.17H.41c-.2,0-.36-.16-.36-.36v-9.5c0-.2.16-.36.36-.36h4.3c.2,0,.36.16.36.36v9.5c0,.2-.16.36-.36.36ZM.41,9.15c-.09,0-.16.07-.16.16v9.5c0,.09.07.16.16.16h4.3c.09,0,.16-.07.16-.16v-9.5c0-.09-.07-.16-.16-.16H.41ZM4.45,18.65H.67c-.05,0-.1-.04-.1-.1v-8.98c0-.05.04-.1.1-.1h3.78c.05,0,.1.04.1.1v8.98c0,.05-.04.1-.1.1ZM.77,18.45h3.58v-8.78H.77v8.78Z"/>
        </g>
        <g>
          <path class="cls-1" d="M11.75,19.07h-4.3c-.14,0-.26-.12-.26-.26V4.85c0-.14.12-.26.26-.26h4.3c.14,0,.26.12.26.26v13.96c0,.14-.12.26-.26.26ZM7.71,18.55h3.78V5.11h-3.78v13.44Z"/>
          <path class="cls-1" d="M11.75,19.17h-4.3c-.2,0-.36-.16-.36-.36V4.85c0-.2.16-.36.36-.36h4.3c.2,0,.36.16.36.36v13.96c0,.2-.16.36-.36.36ZM7.45,4.68c-.09,0-.16.07-.16.16v13.96c0,.09.07.16.16.16h4.3c.09,0,.16-.07.16-.16V4.85c0-.09-.07-.16-.16-.16h-4.3ZM11.49,18.65h-3.78c-.05,0-.1-.04-.1-.1V5.11c0-.05.04-.1.1-.1h3.78c.05,0,.1.04.1.1v13.44c0,.05-.04.1-.1.1ZM7.81,18.45h3.58V5.21h-3.58v13.24Z"/>
        </g>
        <g>
          <path class="cls-1" d="M18.63,19.07h-4.3c-.14,0-.26-.12-.26-.26V.36c0-.14.12-.26.26-.26h4.3c.14,0,.26.12.26.26v18.45c0,.14-.12.26-.26.26ZM14.59,18.55h3.78V.62h-3.78v17.93Z"/>
          <path class="cls-1" d="M18.63,19.17h-4.3c-.2,0-.36-.16-.36-.36V.36c0-.2.16-.36.36-.36h4.3c.2,0,.36.16.36.36v18.45c0,.2-.16.36-.36.36ZM14.33.2c-.09,0-.16.07-.16.16v18.45c0,.09.07.16.16.16h4.3c.09,0,.16-.07.16-.16V.36c0-.09-.07-.16-.16-.16h-4.3ZM18.37,18.65h-3.78c-.05,0-.1-.04-.1-.1V.62c0-.05.04-.1.1-.1h3.78c.05,0,.1.04.1.1v17.93c0,.05-.04.1-.1.1ZM14.69,18.45h3.58V.72h-3.58v17.73Z"/>
        </g>
      </g>
      <g>
        <path class="cls-1" d="M6.97.49c0,.14.12.26.26.26h1.55L.2,7.11c-.12.09-.14.25-.05.37.09.12.25.14.37.05L9.28,1.04v1.75c0,.14.12.26.26.26s.26-.12.26-.26V.49c0-.14-.12-.26-.26-.26h-2.31c-.14,0-.26.12-.26.26Z"/>
        <path class="cls-1" d="M.36,7.68c-.11,0-.22-.05-.29-.15-.12-.16-.08-.39.07-.5L8.48.85h-1.25c-.2,0-.36-.16-.36-.36s.16-.36.36-.36h2.31c.2,0,.36.16.36.36v2.29c0,.2-.16.36-.36.36s-.36-.16-.36-.36v-1.55L.57,7.61c-.06.05-.14.07-.21.07ZM7.23.33c-.09,0-.16.07-.16.16s.07.16.16.16h1.55s.08.03.09.07c.01.04,0,.08-.03.11L.26,7.19c-.07.05-.09.16-.03.23.05.07.16.09.23.03L9.22.96s.07-.03.1,0c.03.02.05.05.05.09v1.75c0,.09.07.16.16.16s.16-.07.16-.16V.49c0-.09-.07-.16-.16-.16h-2.31Z"/>
      </g>
    </g>
  </g>
</svg>