<?xml version="1.0" encoding="UTF-8"?>
<svg id="Layer_2" data-name="Layer 2" xmlns="http://www.w3.org/2000/svg" viewBox="0 0 11.81 19.15">
  <defs>
    <style>
      .cls-1 {
        fill: #1f1f1f;
      }
    </style>
  </defs>
  <g id="Object">
    <g>
      <g>
        <path class="cls-1" d="M2.46.49v4.19h1.1c.47,0,.85.38.85.85v6.14c0,.14-.12.26-.26.26s-.26-.12-.26-.26v-6.41s-.02-.06-.06-.06H.62v8.91h2.18c.14,0,.26.12.26.26s-.12.26-.26.26h-.35v4.02c0,.14-.12.26-.26.26s-.26-.12-.26-.26v-4.02h-.99c-.47,0-.85-.38-.85-.85V5.53c0-.47.38-.85.85-.85h.99V.49c0-.14.12-.26.26-.26s.26.12.26.26Z"/>
        <path class="cls-1" d="M2.2,19.02c-.2,0-.36-.16-.36-.36v-3.92h-.89c-.52,0-.95-.42-.95-.95V5.53c0-.52.42-.95.95-.95h.89V.49c0-.2.16-.36.36-.36s.36.16.36.36v4.09h1c.52,0,.95.42.95.95v6.14c0,.2-.16.36-.36.36s-.36-.16-.36-.36v-6.37H.72v8.71h2.08c.2,0,.36.16.36.36s-.16.36-.36.36h-.25v3.92c0,.2-.16.36-.36.36ZM.95,4.78c-.41,0-.75.34-.75.75v8.26c0,.41.34.75.75.75h.99c.05,0,.1.04.1.1v4.02c0,.09.07.16.16.16s.16-.07.16-.16v-4.02c0-.05.04-.1.1-.1h.35c.09,0,.16-.07.16-.16s-.07-.16-.16-.16H.62c-.05,0-.1-.04-.1-.1V5.21c0-.05.04-.1.1-.1h3.2c.08,0,.15.07.15.15v6.41c0,.09.07.16.16.16s.16-.07.16-.16v-6.14c0-.41-.34-.75-.75-.75h-1.1c-.05,0-.1-.04-.1-.1V.49c0-.09-.07-.16-.16-.16s-.16.07-.16.16v4.19c0,.05-.04.1-.1.1h-.99Z"/>
      </g>
      <g>
        <path class="cls-1" d="M9.27,18.79v-1.89h-.92c-.42,0-.75-.34-.75-.75V3.16c0-.42.34-.75.75-.75h.92V.36c0-.14.12-.26.26-.26s.26.12.26.26v2.04h1.17c.42,0,.75.34.75.75v10.88c0,.14-.12.26-.26.26s-.26-.12-.26-.26V2.93h-3.08v13.45h1.89c.14,0,.26.12.26.26s-.12.26-.26.26h-.22v1.89c0,.14-.12.26-.26.26s-.26-.12-.26-.26Z"/>
        <path class="cls-1" d="M9.53,19.15c-.2,0-.36-.16-.36-.36v-1.79h-.83c-.47,0-.85-.38-.85-.85V3.16c0-.47.38-.85.85-.85h.83V.36c0-.2.16-.36.36-.36s.36.16.36.36v1.95h1.07c.47,0,.85.38.85.85v10.88c0,.2-.16.36-.36.36s-.36-.16-.36-.36V3.03h-2.88v13.25h1.8c.2,0,.36.16.36.36s-.16.36-.36.36h-.12v1.79c0,.2-.16.36-.36.36ZM8.35,2.5c-.36,0-.65.29-.65.66v12.99c0,.36.29.65.65.65h.92c.05,0,.1.04.1.1v1.89c0,.09.07.16.16.16s.16-.07.16-.16v-1.89c0-.05.04-.1.1-.1h.22c.09,0,.16-.07.16-.16s-.07-.16-.16-.16h-1.89c-.05,0-.1-.04-.1-.1V2.93c0-.05.04-.1.1-.1h3.08c.05,0,.1.04.1.1v11.1c0,.09.07.16.16.16s.16-.07.16-.16V3.16c0-.36-.29-.66-.65-.66h-1.17c-.05,0-.1-.04-.1-.1V.36c0-.09-.07-.16-.16-.16s-.16.07-.16.16v2.04c0,.05-.04.1-.1.1h-.92Z"/>
      </g>
    </g>
  </g>
</svg>