<?xml version="1.0" encoding="UTF-8"?>
<svg id="Layer_2" data-name="Layer 2" xmlns="http://www.w3.org/2000/svg" viewBox="0 0 8.75 19.62">
  <defs>
    <style>
      .cls-1 {
        fill: #1f1f1f;
      }
    </style>
  </defs>
  <g id="Object">
    <g>
      <g>
        <path class="cls-1" d="M3.05,1.9l.91-.91v8.9c0,.14.12.26.26.26h0c.14,0,.26-.12.26-.26V.99l.91.91c.1.1.27.1.37,0,.1-.1.1-.27,0-.37L4.41.17c-.1-.1-.27-.1-.37,0l-1.36,1.36c-.1.1-.1.27,0,.37s.27.1.37,0Z"/>
        <path class="cls-1" d="M4.22,10.26c-.2,0-.36-.16-.36-.36V1.23l-.74.74c-.14.14-.37.14-.51,0-.07-.07-.11-.16-.11-.26s.04-.19.11-.25L3.97.11c.14-.14.37-.14.51,0l1.36,1.36c.14.14.14.37,0,.51-.14.14-.37.14-.51,0l-.74-.74v8.67c0,.2-.16.36-.36.36ZM3.96.89s.03,0,.04,0c.04.02.06.05.06.09v8.91c0,.09.07.16.16.16s.16-.07.16-.16V.99s.02-.08.06-.09c.04-.01.08,0,.11.02l.91.91c.06.06.17.06.23,0s.06-.17,0-.23L4.34.24c-.06-.06-.17-.06-.23,0l-1.36,1.36s-.05.07-.05.12.02.09.05.12c.06.06.17.06.23,0l.91-.91s.04-.03.07-.03Z"/>
      </g>
      <g>
        <path class="cls-1" d="M8.32,4.88h-2.49c-.14,0-.26.12-.26.26s.12.26.26.26h2.29v11.13H.62V5.41h1.95c.14,0,.26-.12.26-.26s-.12-.26-.26-.26H.67c-.32,0-.58.26-.58.58v13.45c0,.34.27.61.61.61h7.33c.34,0,.61-.27.61-.61V5.21c0-.18-.15-.33-.33-.33ZM8.12,19H.62v-1.93h7.5v1.93Z"/>
        <path class="cls-1" d="M8.04,19.62H.71c-.39,0-.71-.32-.71-.71V5.46c0-.37.3-.67.67-.67h1.89c.2,0,.36.16.36.36s-.16.36-.36.36H.72v10.94h7.3V5.5h-2.19c-.2,0-.36-.16-.36-.36s.16-.36.36-.36h2.49c.23,0,.43.19.43.43v13.7c0,.39-.32.71-.71.71ZM.67,4.98c-.26,0-.48.21-.48.48v13.45c0,.28.23.51.51.51h7.33c.28,0,.51-.23.51-.51V5.21c0-.13-.1-.23-.23-.23h-2.49c-.09,0-.16.07-.16.16s.07.16.16.16h2.29c.05,0,.1.04.1.1v11.13c0,.05-.04.1-.1.1H.62c-.05,0-.1-.04-.1-.1V5.41c0-.05.04-.1.1-.1h1.95c.09,0,.16-.07.16-.16s-.07-.16-.16-.16H.67ZM8.12,19.09H.62c-.05,0-.1-.04-.1-.1v-1.93c0-.05.04-.1.1-.1h7.5c.05,0,.1.04.1.1v1.93c0,.05-.04.1-.1.1ZM.72,18.9h7.3v-1.74H.72v1.74Z"/>
      </g>
      <g>
        <path class="cls-1" d="M3.8,18.29h1.14c.14,0,.26-.12.26-.26s-.12-.26-.26-.26h-1.14c-.14,0-.26.12-.26.26s.12.26.26.26Z"/>
        <path class="cls-1" d="M4.94,18.39h-1.14c-.2,0-.36-.16-.36-.36s.16-.36.36-.36h1.14c.2,0,.36.16.36.36s-.16.36-.36.36ZM3.8,17.86c-.09,0-.16.07-.16.16s.07.16.16.16h1.14c.09,0,.16-.07.16-.16s-.07-.16-.16-.16h-1.14Z"/>
      </g>
    </g>
  </g>
</svg>