<?xml version="1.0" encoding="UTF-8"?>
<svg id="Layer_2" data-name="Layer 2" xmlns="http://www.w3.org/2000/svg" viewBox="0 0 19.68 17.17">
  <defs>
    <style>
      .cls-1 {
        fill: #1f1f1f;
      }
    </style>
  </defs>
  <g id="Object">
    <g>
      <path class="cls-1" d="M9.58,2.53H2.72c-.14,0-.26.12-.26.26v9.41c0,.14.12.26.26.26h6.46l-4.37,4.14c-.1.1-.11.27,0,.37.1.11.27.11.37,0l4.41-4.18v3.99c0,.14.12.26.26.26s.26-.12.26-.26v-3.98l4.31,4.17c.05.05.12.07.18.07s.14-.03.19-.08c.1-.1.1-.27,0-.37l-4.28-4.15h6.38c.14,0,.26-.12.26-.26V2.8c0-.14-.12-.26-.26-.26h-6.77V.62h9.22c.14,0,.26-.12.26-.26s-.12-.26-.26-.26H.36C.22.1.1.22.1.36s.12.26.26.26h9.22v1.91ZM16.6,3.06v8.89H2.99V3.06h13.62Z"/>
      <path class="cls-1" d="M4.99,17.17s0,0,0,0c-.1,0-.19-.04-.25-.11-.14-.14-.13-.37.01-.51l4.19-3.98H2.72c-.2,0-.36-.16-.36-.36V2.8c0-.2.16-.36.36-.36h6.75V.72H.36c-.2,0-.36-.16-.36-.36s.16-.36.36-.36h18.96c.2,0,.36.16.36.36s-.16.36-.36.36h-9.12v1.71h6.67c.2,0,.36.16.36.36v9.41c0,.2-.16.36-.36.36h-6.14l4.11,3.98c.14.14.15.37,0,.51-.13.14-.37.14-.51,0l-4.14-4.01v3.75c0,.2-.16.36-.36.36s-.36-.16-.36-.36v-3.76l-4.24,4.02c-.07.06-.15.1-.25.1ZM2.72,2.63c-.09,0-.16.07-.16.16v9.41c0,.09.07.16.16.16h6.46s.08.02.09.06c.01.04,0,.08-.02.11l-4.37,4.14c-.07.06-.07.17,0,.23.03.03.07.05.11.05.04,0,.09-.02.12-.05l4.41-4.18s.07-.03.11-.02c.04.02.06.05.06.09v3.99c0,.09.07.16.16.16s.16-.07.16-.16v-3.98s.02-.07.06-.09c.04-.02.08,0,.11.02l4.31,4.17c.06.06.17.06.23,0,.06-.06.06-.17,0-.23l-4.28-4.15s-.04-.07-.02-.11.05-.06.09-.06h6.38c.09,0,.16-.07.16-.16V2.8c0-.09-.07-.16-.16-.16h-6.77c-.05,0-.1-.04-.1-.1V.62c0-.05.04-.1.1-.1h9.22c.09,0,.16-.07.16-.16s-.07-.16-.16-.16H.36c-.09,0-.16.07-.16.16s.07.16.16.16h9.22c.05,0,.1.04.1.1v1.91c0,.05-.04.1-.1.1H2.72ZM16.6,12.04H2.99c-.05,0-.1-.04-.1-.1V3.06c0-.05.04-.1.1-.1h13.62c.05,0,.1.04.1.1v8.89c0,.05-.04.1-.1.1ZM3.08,11.85h13.42V3.16H3.08v8.69Z"/>
    </g>
  </g>
</svg>