<?xml version="1.0" encoding="UTF-8"?>
<svg id="Layer_2" data-name="Layer 2" xmlns="http://www.w3.org/2000/svg" viewBox="0 0 12.59 15.44">
  <defs>
    <style>
      .cls-1 {
        fill: #1f1f1f;
      }
    </style>
  </defs>
  <g id="Object">
    <g>
      <g>
        <path class="cls-1" d="M.1.36v14.72c0,.14.12.26.26.26h8.56s.07,0,.1-.02c.02,0,.03-.02.04-.03.01,0,.03-.01.04-.03h0s0,0,0,0l3.3-3.19c.05-.05.08-.12.08-.19V.36c0-.14-.12-.26-.26-.26H.36C.22.1.1.22.1.36ZM9.18,14.46v-2.31h2.4l-2.4,2.31ZM.62.62h11.35v11h-3.05c-.14,0-.26.12-.26.26v2.93H.62V.62Z"/>
        <path class="cls-1" d="M8.92,15.44H.36c-.2,0-.36-.16-.36-.36V.36c0-.2.16-.36.36-.36h11.87c.2,0,.36.16.36.36v11.53c0,.1-.04.19-.11.26l-3.3,3.19s-.04.03-.05.04c-.03.02-.05.03-.07.04-.04.02-.09.03-.14.03ZM9.01,15.21l.07.07-.04-.09,3.31-3.19s.05-.07.05-.12V.36c0-.09-.07-.16-.16-.16H.36c-.09,0-.16.07-.16.16v14.72c0,.09.07.16.16.16h8.56s.04,0,.06-.01c0,0,.03-.02.03-.02ZM8.66,14.91H.62c-.05,0-.1-.04-.1-.1V.62c0-.05.04-.1.1-.1h11.35c.05,0,.1.04.1.1v11c0,.05-.04.1-.1.1h-3.05c-.09,0-.16.07-.16.16v2.93c0,.05-.04.1-.1.1ZM.72,14.72h7.84v-2.83c0-.2.16-.36.36-.36h2.95V.72H.72v14ZM9.18,14.56s-.03,0-.04,0c-.04-.02-.06-.05-.06-.09v-2.31c0-.05.04-.1.1-.1h2.4s.08.02.09.06c.02.04,0,.08-.02.11l-2.4,2.31s-.04.03-.07.03ZM9.28,12.25v1.98l2.06-1.98h-2.06Z"/>
      </g>
      <g>
        <path class="cls-1" d="M8.78,6.42c0-.14-.12-.26-.26-.26H3.6c-.14,0-.26.12-.26.26s.12.26.26.26h4.91c.14,0,.26-.12.26-.26Z"/>
        <path class="cls-1" d="M8.52,6.78H3.6c-.2,0-.36-.16-.36-.36s.16-.36.36-.36h4.91c.2,0,.36.16.36.36s-.16.36-.36.36ZM3.6,6.26c-.09,0-.16.07-.16.16s.07.16.16.16h4.91c.09,0,.16-.07.16-.16s-.07-.16-.16-.16H3.6Z"/>
      </g>
    </g>
  </g>
</svg>