<?xml version="1.0" encoding="UTF-8"?>
<svg id="Layer_2" data-name="Layer 2" xmlns="http://www.w3.org/2000/svg" viewBox="0 0 19.55 15.48">
  <defs>
    <style>
      .cls-1 {
        fill: #1f1f1f;
      }
    </style>
  </defs>
  <g id="Object">
    <g>
      <g>
        <path class="cls-1" d="M19.39,13.15c-.06-.12-.2-.18-.32-.14-.11.03-.22.07-.33.1-.34.11-.7.22-1.04.22-3.95,0-7.17-3.21-7.17-7.17,0-1.91.97-3.81,2.67-5.27.22-.19.25-.51.07-.73h0s-.05.04-.08.07l-.02-.12c-3.13.49-5.63,2.86-6.31,5.93-.03.14.07.28.21.31h0c.14.03.27-.07.3-.2.58-2.62,2.59-4.69,5.17-5.37-1.62,1.52-2.53,3.44-2.53,5.38,0,4.24,3.45,7.69,7.69,7.69.14,0,.28-.02.42-.04-1.12.69-2.41,1.06-3.75,1.06-.99,0-1.95-.2-2.84-.59-.13-.06-.28,0-.34.12h0c-.06.13,0,.3.13.35.97.42,1.99.63,3.06.63,1.84,0,3.6-.65,4.99-1.84.1-.08.12-.23.06-.34l-.03-.06Z"/>
        <path class="cls-1" d="M14.37,15.48c-1.08,0-2.12-.22-3.1-.64-.09-.04-.16-.11-.19-.2-.03-.09-.03-.2.01-.28.08-.17.29-.25.47-.17.89.38,1.83.58,2.81.58,1.16,0,2.29-.28,3.31-.82-4.28-.01-7.77-3.5-7.77-7.79,0-1.85.81-3.68,2.28-5.18-2.39.77-4.18,2.72-4.73,5.18-.04.19-.22.32-.42.28-.1-.02-.18-.08-.24-.16-.05-.08-.07-.18-.05-.27C7.45,2.91,10.02.49,13.15,0c.04-.01.08.02.1.05.03,0,.07,0,.09.04.21.27.17.65-.09.87-1.67,1.44-2.63,3.33-2.63,5.19,0,3.9,3.17,7.07,7.07,7.07.32,0,.67-.11,1.01-.21.11-.03.22-.07.34-.1.17-.05.36.03.44.19l.03.06c.08.16.04.35-.09.46-1.41,1.2-3.2,1.87-5.06,1.87ZM11.41,14.35c-.06,0-.12.03-.15.09-.02.04-.02.09,0,.13.02.04.05.07.08.09.95.41,1.97.62,3.02.62,1.81,0,3.56-.65,4.93-1.82.06-.05.08-.15.04-.22l-.03-.06h0c-.04-.08-.13-.11-.21-.09-.11.03-.22.07-.33.1-.35.11-.71.22-1.07.22-4.01,0-7.26-3.26-7.26-7.26,0-1.92.98-3.87,2.7-5.34.15-.13.19-.34.11-.51-.03.02-.06.02-.09.01-.03-.01-.06-.04-.06-.08v-.02c-3.02.51-5.48,2.85-6.14,5.84,0,.04,0,.08.02.12.02.04.06.06.11.07.09.02.17-.04.19-.13.59-2.66,2.6-4.75,5.24-5.44.04-.01.09,0,.11.05.02.04.01.09-.02.12-1.61,1.51-2.5,3.4-2.5,5.31,0,4.19,3.41,7.59,7.59,7.59.12,0,.24-.01.4-.04.05,0,.09.02.11.06.02.04,0,.09-.04.12-1.14.7-2.46,1.07-3.8,1.07-1,0-1.97-.2-2.88-.59-.02,0-.05-.01-.07-.01Z"/>
      </g>
      <g>
        <rect class="cls-1" x=".1" y="10.49" width="9.81" height=".52" rx=".26" ry=".26"/>
        <path class="cls-1" d="M9.64,11.12H.36c-.2,0-.36-.16-.36-.36s.16-.36.36-.36h9.28c.2,0,.36.16.36.36s-.16.36-.36.36ZM.36,10.59c-.09,0-.16.07-.16.16s.07.16.16.16h9.28c.09,0,.16-.07.16-.16s-.07-.16-.16-.16H.36Z"/>
      </g>
      <g>
        <rect class="cls-1" x="3.04" y="7.7" width="5.43" height=".52" rx=".26" ry=".26"/>
        <path class="cls-1" d="M8.21,8.33H3.3c-.2,0-.36-.16-.36-.36s.16-.36.36-.36h4.91c.2,0,.36.16.36.36s-.16.36-.36.36ZM3.3,7.8c-.09,0-.16.07-.16.16s.07.16.16.16h4.91c.09,0,.16-.07.16-.16s-.07-.16-.16-.16H3.3Z"/>
      </g>
      <g>
        <rect class="cls-1" x="3.12" y="13.29" width="6.79" height=".52" rx=".26" ry=".26"/>
        <path class="cls-1" d="M9.64,13.91H3.38c-.2,0-.36-.16-.36-.36s.16-.36.36-.36h6.27c.2,0,.36.16.36.36s-.16.36-.36.36ZM3.38,13.38c-.09,0-.16.07-.16.16s.07.16.16.16h6.27c.09,0,.16-.07.16-.16s-.07-.16-.16-.16H3.38Z"/>
      </g>
    </g>
  </g>
</svg>