<?xml version="1.0" encoding="UTF-8"?>
<svg id="Layer_2" data-name="Layer 2" xmlns="http://www.w3.org/2000/svg" viewBox="0 0 20.05 19.5">
  <defs>
    <style>
      .cls-1 {
        fill: #1f1f1f;
      }
    </style>
  </defs>
  <g id="Object">
    <g>
      <g>
        <path class="cls-1" d="M19.87,9.25c-.1-.1-.27-.1-.37,0l-2.43,2.43-6.59-6.62L14.99.55c.1-.1.1-.27,0-.37-.1-.1-.27-.1-.37,0l-4.51,4.51-2.11-2.12c-.1-.1-.27-.1-.37,0-.1.1-.1.27,0,.37l2.11,2.12-6.91,6.91c-.1.1-.1.25-.02.35.02.03,2.17,2.69-.08,6.69,0,0,0,.01,0,.02,0,.01,0,.02-.01.03,0,.02-.01.04-.01.06,0,.01,0,.02,0,.03,0,.02,0,.04.01.07,0,0,0,.02,0,.03.01.03.03.05.05.08,0,0,0,0,0,0,0,0,0,0,0,0,.02.02.04.03.05.04.01,0,.02.02.03.02.03.01.07.02.1.02h0s.07,0,.11-.02c0,0,0,0,0,0,.04-.02,4.02-1.92,6.84-.09.1.07.24.05.33-.03l6.83-6.83,2.13,2.14c.05.05.12.08.19.08s.13-.03.18-.08c.1-.1.1-.27,0-.37l-2.13-2.14,2.43-2.43c.1-.1.1-.27,0-.37ZM10.02,18.73c-2.07-1.22-4.55-.75-5.99-.29l5.49-5.45c.19.13.41.19.64.19.31,0,.59-.12.81-.34s.34-.5.34-.81-.12-.59-.34-.81c-.22-.22-.5-.34-.81-.34s-.59.12-.81.34c-.22.22-.34.5-.34.81,0,.2.06.4.16.57l-5.35,5.31c.6-1.64.53-2.99.32-3.91-.21-.9-.57-1.53-.77-1.83l6.75-6.75,6.59,6.62-6.68,6.68ZM9.53,12.04c0-.17.06-.32.18-.44.12-.12.27-.18.44-.18s.32.06.44.18c.12.12.18.27.18.44s-.06.32-.18.44c-.18.18-.46.22-.69.13l.18-.18c.1-.1.1-.27,0-.37-.1-.1-.27-.1-.37,0l-.16.16c-.02-.06-.03-.11-.03-.17Z"/>
        <path class="cls-1" d="M2.96,19.5s-.1,0-.14-.03c0,0-.03-.02-.04-.02-.03-.02-.05-.03-.08-.05,0,0,0,0,0,0-.03-.03-.05-.07-.07-.1,0,0,0-.03-.01-.03-.01-.03-.02-.06-.02-.09,0-.01,0-.03,0-.04,0-.03,0-.06.02-.09,0-.02,0-.03.02-.04,0,0,0-.02.01-.03,2.21-3.92.12-6.55.09-6.58-.12-.14-.11-.35.02-.48l6.84-6.84-2.04-2.05c-.14-.14-.14-.37,0-.51.07-.07.16-.11.25-.11h0c.1,0,.19.04.25.11l2.04,2.05L14.55.11c.07-.07.16-.11.25-.11h0c.1,0,.19.04.25.11.07.07.11.16.11.25s-.04.19-.11.25l-4.45,4.45,6.45,6.48,2.36-2.36c.14-.14.37-.14.51,0,.14.14.14.37,0,.51l-2.36,2.36,2.06,2.07c.07.07.11.16.11.25,0,.1-.04.19-.11.25-.14.14-.37.14-.51,0l-2.06-2.07-6.76,6.76c-.12.12-.31.14-.45.05-2.78-1.8-6.71.08-6.75.1,0,0-.01,0-.02,0-.05.02-.09.03-.14.03ZM2.83,19.25s.03.02.03.02c.02.01.03.02.04.02.04.02.08.02.13,0,0,0,.01,0,.02,0,.21-.1,4.12-1.9,6.93-.08.06.04.15.03.2-.02l6.83-6.83s.04-.03.07-.03h0s.05.01.07.03l2.13,2.14c.06.06.17.06.23,0,.03-.03.05-.07.05-.12,0-.04-.02-.09-.05-.12l-2.13-2.14s-.04-.1,0-.14l2.43-2.43c.06-.06.06-.17,0-.23-.06-.06-.17-.06-.23,0l-2.43,2.43s-.04.03-.07.03h0s-.05-.01-.07-.03l-6.59-6.62s-.04-.1,0-.14L14.92.48s.05-.07.05-.12-.02-.08-.05-.12c-.03-.03-.07-.05-.12-.05h0s-.09.02-.12.05l-4.51,4.51s-.04.03-.07.03h0s-.05-.01-.07-.03l-2.11-2.12s-.07-.05-.12-.05h0s-.08.02-.12.05c-.06.06-.06.17,0,.23l2.11,2.12s.04.1,0,.14l-6.91,6.91c-.06.06-.06.15-.01.22.02.03,2.21,2.75-.07,6.8v.03s-.02.03-.02.04c0,.03,0,.05,0,.06.01.03.02.05.03.06ZM10.02,18.83s-.03,0-.05-.01c-2.07-1.22-4.59-.7-5.91-.28-.04.01-.09,0-.11-.04-.02-.04-.02-.09.01-.12l5.49-5.45s.09-.04.12-.01c.4.27.98.21,1.32-.13.2-.2.31-.46.31-.74s-.11-.54-.31-.74c-.2-.2-.46-.31-.74-.31s-.54.11-.74.31c-.2.2-.31.46-.31.74,0,.18.05.35.14.52.02.04.02.09-.02.12l-5.35,5.31s-.08.04-.12.01c-.04-.02-.06-.07-.04-.12.61-1.65.51-3.01.31-3.85-.21-.89-.56-1.51-.76-1.8-.03-.04-.02-.09.01-.12l6.75-6.75s.04-.03.07-.03h0s.05.01.07.03l6.59,6.62s.04.1,0,.14l-6.68,6.68s-.04.03-.07.03ZM6.96,17.86c1,0,2.06.19,3.04.75l6.56-6.56-6.45-6.48-6.62,6.62c.21.32.54.94.74,1.8.19.8.29,2.04-.18,3.56l5-4.97c-.09-.18-.13-.36-.13-.55,0-.33.13-.65.36-.88.24-.24.55-.36.88-.36s.65.13.88.36c.24.24.36.55.36.88s-.13.65-.36.88c-.24.23-.55.36-.88.36-.22,0-.43-.06-.62-.17l-5.16,5.12c.69-.19,1.61-.38,2.58-.38ZM10.16,12.75c-.1,0-.19-.02-.28-.06-.03-.01-.05-.04-.06-.07,0-.03,0-.07.03-.09l.18-.18c.06-.06.06-.17,0-.23-.03-.03-.07-.05-.12-.05h0s-.08.02-.12.05l-.16.16s-.06.03-.09.03c-.03,0-.06-.03-.07-.07-.02-.07-.03-.14-.03-.2,0-.19.08-.37.21-.51.27-.27.75-.27,1.02,0,.14.14.21.32.21.51s-.07.37-.21.51c-.13.13-.32.2-.51.2ZM10.1,12.55c.16.01.32-.04.42-.14.1-.1.15-.23.15-.37s-.05-.27-.15-.37c-.2-.2-.54-.2-.74,0-.09.09-.14.21-.15.34l.02-.02c.07-.07.16-.1.25-.1h0c.1,0,.19.04.25.11.14.14.14.37,0,.51l-.06.06Z"/>
      </g>
      <g>
        <path class="cls-1" d="M2.96,7.56c.14,0,.26-.12.26-.26v-2.14h2.03c.14,0,.26-.12.26-.26s-.12-.26-.26-.26h-2.03v-2.01c0-.14-.12-.26-.26-.26s-.26.12-.26.26v2.01H.36c-.14,0-.26.12-.26.26s.12.26.26.26h2.33v2.14c0,.14.12.26.26.26Z"/>
        <path class="cls-1" d="M2.96,7.66c-.2,0-.36-.16-.36-.36v-2.04H.36c-.2,0-.36-.16-.36-.36s.16-.36.36-.36h2.24v-1.91c0-.2.16-.36.36-.36s.36.16.36.36v1.91h1.94c.2,0,.36.16.36.36s-.16.36-.36.36h-1.94v2.04c0,.2-.16.36-.36.36ZM.36,4.73c-.09,0-.16.07-.16.16s.07.16.16.16h2.33c.05,0,.1.04.1.1v2.14c0,.09.07.16.16.16s.16-.07.16-.16v-2.14c0-.05.04-.1.1-.1h2.03c.09,0,.16-.07.16-.16s-.07-.16-.16-.16h-2.03c-.05,0-.1-.04-.1-.1v-2.01c0-.09-.07-.16-.16-.16s-.16.07-.16.16v2.01c0,.05-.04.1-.1.1H.36Z"/>
      </g>
    </g>
  </g>
</svg>