<?xml version="1.0" encoding="UTF-8"?>
<svg id="Layer_2" data-name="Layer 2" xmlns="http://www.w3.org/2000/svg" viewBox="0 0 19.43 17.67">
  <defs>
    <style>
      .cls-1 {
        fill: #1f1f1f;
      }
    </style>
  </defs>
  <g id="Object">
    <g>
      <g>
        <path class="cls-1" d="M.36.1s0,0,0,0c-.02,0-.04,0-.06.01-.01,0-.03,0-.04,0-.01,0-.02.02-.03.02-.02.01-.04.02-.05.04,0,0,0,0,0,0,0,0-.01.02-.02.03-.01.02-.02.03-.03.05,0,.02,0,.04-.01.06,0,.01,0,.02,0,.04v13.68c0,.14.12.26.26.26h10.18c.14,0,.26-.12.26-.26s-.12-.26-.26-.26H.62V.96l8.91,8.24c.05.05.11.07.18.07s.13-.02.18-.07L18.81.96v12.82h-.85c-.14,0-.26.12-.26.26s.12.26.26.26h1.11c.14,0,.26-.12.26-.26V.36s0-.02,0-.04c0-.02,0-.04-.01-.06s-.02-.03-.03-.05c0-.01-.01-.02-.02-.03,0,0,0,0,0,0-.01-.01-.03-.02-.05-.04-.01,0-.02-.02-.03-.02-.01,0-.03,0-.04,0-.02,0-.04-.01-.06-.01,0,0,0,0,0,0H.36ZM9.71,8.65L1.03.62h17.37l-8.68,8.02Z"/>
        <path class="cls-1" d="M19.07,14.4h-1.11c-.2,0-.36-.16-.36-.36s.16-.36.36-.36h.75V1.18l-8.75,8.08c-.13.12-.36.12-.49,0L.72,1.18v12.49h9.82c.2,0,.36.16.36.36s-.16.36-.36.36H.36c-.2,0-.36-.16-.36-.36V.36s0-.04,0-.05c0-.03,0-.06.02-.08.01-.03.03-.05.04-.06.01-.02.02-.03.03-.05,0,0,.01-.01.02-.01.02-.02.03-.03.05-.03,0,0,.05-.03.06-.04.02,0,.04-.01.05-.01.03,0,.06-.02.09-.02h0s18.71,0,18.71,0c0,0,.01,0,.02,0,.03,0,.05,0,.07.01,0,0,.06.01.06.02.02,0,.03.02.04.03.03.02.05.03.07.06.02.02.03.04.03.05.02.03.03.05.04.07.01.03.01.05.02.07,0,0,0,.05,0,.06v13.68c0,.2-.16.36-.36.36ZM17.96,13.87c-.09,0-.16.07-.16.16s.07.16.16.16h1.11c.09,0,.16-.07.16-.16V.36s0-.01,0-.02c0-.02,0-.03,0-.04,0,0,0-.01-.01-.02,0,0-.02-.03-.02-.03,0,0,0,0,0,0,0,0-.03-.02-.03-.02h-.02s-.02-.02-.03-.02c-.05-.01-.05,0-.06-.01H.37s-.01,0-.04.01l-.06.02s-.03.02-.03.02h0s-.01.02-.01.02c-.01.02-.02.03-.02.03,0,0,0,.04,0,.04,0,0,0,.02,0,.03v13.67c0,.09.07.16.16.16h10.18c.09,0,.16-.07.16-.16s-.07-.16-.16-.16H.62c-.05,0-.1-.04-.1-.1V.96s.02-.07.06-.09c.04-.02.08,0,.11.02l8.91,8.24c.06.06.16.06.22,0L18.74.89s.07-.03.11-.02c.04.02.06.05.06.09v12.82c0,.05-.04.1-.1.1h-.85ZM.17.18h0,0ZM9.71,8.74s-.05,0-.07-.03L.96.69s-.04-.07-.02-.11c.01-.04.05-.06.09-.06h17.37s.08.02.09.06c.01.04,0,.08-.02.11l-8.68,8.02s-.04.03-.07.03ZM1.28.72l8.43,7.79L18.15.72H1.28Z"/>
      </g>
      <g>
        <g>
          <path class="cls-1" d="M14.22,17.47c-1.96,0-3.55-1.59-3.55-3.55s1.59-3.55,3.55-3.55,3.55,1.59,3.55,3.55-1.59,3.55-3.55,3.55ZM14.22,10.57c-1.85,0-3.35,1.5-3.35,3.35s1.5,3.35,3.35,3.35,3.35-1.5,3.35-3.35-1.5-3.35-3.35-3.35Z"/>
          <path class="cls-1" d="M14.22,17.57c-2.01,0-3.64-1.63-3.64-3.64s1.63-3.65,3.64-3.65,3.65,1.64,3.65,3.65-1.64,3.64-3.65,3.64ZM14.22,10.67c-1.8,0-3.26,1.46-3.26,3.26s1.46,3.26,3.26,3.26,3.26-1.46,3.26-3.26-1.46-3.26-3.26-3.26Z"/>
        </g>
        <g>
          <path class="cls-1" d="M14.22,17.57c-2.01,0-3.65-1.64-3.65-3.64s1.64-3.64,3.65-3.64,3.64,1.63,3.64,3.64-1.64,3.64-3.64,3.64ZM14.22,10.67c-1.8,0-3.26,1.46-3.26,3.26s1.46,3.26,3.26,3.26,3.26-1.46,3.26-3.26-1.46-3.26-3.26-3.26Z"/>
          <path class="cls-1" d="M14.22,17.67c-2.06,0-3.74-1.68-3.74-3.74s1.68-3.74,3.74-3.74,3.74,1.68,3.74,3.74-1.68,3.74-3.74,3.74ZM14.22,10.38c-1.96,0-3.55,1.59-3.55,3.55s1.59,3.55,3.55,3.55,3.55-1.59,3.55-3.55-1.59-3.55-3.55-3.55ZM14.22,17.28c-1.85,0-3.35-1.5-3.35-3.35s1.5-3.35,3.35-3.35,3.35,1.5,3.35,3.35-1.5,3.35-3.35,3.35ZM14.22,10.77c-1.74,0-3.16,1.42-3.16,3.16s1.42,3.16,3.16,3.16,3.16-1.42,3.16-3.16-1.42-3.16-3.16-3.16Z"/>
        </g>
      </g>
      <g>
        <g>
          <path class="cls-1" d="M13.29,15.35s-.04,0-.06-.02l-.7-.66s-.04-.09,0-.12c.03-.03.09-.04.12,0l.64.6,2.5-2.48s.09-.03.12,0,.03.09,0,.12l-2.56,2.54s-.04.02-.06.02Z"/>
          <path class="cls-1" d="M13.29,15.44s-.09-.02-.13-.05l-.7-.66c-.07-.07-.08-.19,0-.26.07-.07.19-.08.26,0l.57.54,2.43-2.41c.07-.07.19-.07.26,0,.07.07.07.19,0,.26l-2.56,2.54s-.08.05-.13.05ZM13.28,15.25h0,0ZM13.3,15.25h0,0ZM13.29,15.24h0s0,0,0,0h0ZM15.78,12.66l.05.05-.05-.05Z"/>
        </g>
        <g>
          <path class="cls-1" d="M13.29,15.44s-.09-.02-.13-.05l-.7-.66s-.06-.08-.06-.13c0-.05.02-.1.05-.13.07-.07.19-.08.26,0l.57.54,2.43-2.41s.08-.05.13-.05h0s.1.02.13.05c.07.07.07.19,0,.26l-2.56,2.54s-.08.05-.13.05ZM15.78,12.66l.05.05-.05-.05Z"/>
          <path class="cls-1" d="M13.29,15.54c-.07,0-.14-.03-.19-.08l-.7-.66c-.06-.05-.09-.12-.09-.2,0-.08.02-.15.08-.2.11-.11.29-.12.4-.01l.5.47,2.36-2.35c.11-.11.29-.11.4,0,.11.11.11.29,0,.4l-2.56,2.54c-.05.05-.12.08-.2.08ZM12.59,14.52s-.05,0-.06.03c-.02.02-.02.04-.02.06,0,.02.01.04.03.06l.7.66s.09.03.12,0l2.56-2.54s0,0,0-.01c0,0,0,0,0,.01-.04.04-.1.04-.14,0l-.05-.05h0l-2.36,2.34s-.1.04-.14,0l-.57-.54s-.04-.02-.06-.02Z"/>
        </g>
      </g>
    </g>
  </g>
</svg>