<?xml version="1.0" encoding="UTF-8"?>
<svg id="Layer_2" data-name="Layer 2" xmlns="http://www.w3.org/2000/svg" viewBox="0 0 19.72 19.98">
  <defs>
    <style>
      .cls-1 {
        fill: #1f1f1f;
      }
    </style>
  </defs>
  <g id="Object">
    <g>
      <g>
        <path class="cls-1" d="M19.36.1h-2.36c-.14,0-.26.12-.26.26v2.36s.01.08.03.12l-4.44,4.44s-.08-.03-.12-.03h-4.85c-.14,0-.26.12-.26.26v4.74l-4.09,4.34H.36c-.14,0-.26.12-.26.26v2.77c0,.14.12.26.26.26h2.77c.14,0,.26-.12.26-.26v-2.66l4.09-4.34h4.74c.14,0,.26-.12.26-.26v-4.48l4.71-4.71c.05-.05.08-.12.08-.19h2.1c.14,0,.26-.12.26-.26V.36c0-.14-.12-.26-.26-.26ZM2.87,19.36H.62v-2.24h2.24v2.24ZM11.95,12.1h-4.32v-4.32h4.32v4.32ZM19.1,2.46h-1.83V.62h1.83v1.83Z"/>
        <path class="cls-1" d="M3.13,19.98H.36c-.2,0-.36-.16-.36-.36v-2.77c0-.2.16-.36.36-.36h2.61l4.03-4.28v-4.71c0-.2.16-.36.36-.36h4.85s.06,0,.1.02l4.35-4.35s-.02-.06-.02-.1V.36c0-.2.16-.36.36-.36h2.36c.2,0,.36.16.36.36v2.36c0,.2-.16.36-.36.36h-2.01c-.02.06-.05.11-.09.16l-4.68,4.68v4.44c0,.2-.16.36-.36.36h-4.69l-4.03,4.28v2.63c0,.2-.16.36-.36.36ZM.36,16.69c-.09,0-.16.07-.16.16v2.77c0,.09.07.16.16.16h2.77c.09,0,.16-.07.16-.16v-2.66s0-.05.03-.07l4.09-4.34s.04-.03.07-.03h4.74c.09,0,.16-.07.16-.16v-4.48s.01-.05.03-.07l4.71-4.71s.05-.07.05-.12c0-.05.04-.1.1-.1h2.1c.09,0,.16-.07.16-.16V.36c0-.09-.07-.16-.16-.16h-2.36c-.09,0-.16.07-.16.16v2.36s0,.05.02.07c.02.04.01.08-.02.12l-4.44,4.44s-.08.04-.12.02c-.03-.01-.05-.02-.07-.02h-4.85c-.09,0-.16.07-.16.16v4.74s0,.05-.03.07l-4.09,4.34s-.04.03-.07.03H.36ZM2.87,19.46H.62c-.05,0-.1-.04-.1-.1v-2.24c0-.05.04-.1.1-.1h2.24c.05,0,.1.04.1.1v2.24c0,.05-.04.1-.1.1ZM.72,19.26h2.05v-2.05H.72v2.05ZM11.95,12.19h-4.32c-.05,0-.1-.04-.1-.1v-4.32c0-.05.04-.1.1-.1h4.32c.05,0,.1.04.1.1v4.32c0,.05-.04.1-.1.1ZM7.72,12h4.13v-4.13h-4.13v4.13ZM19.1,2.56h-1.83c-.05,0-.1-.04-.1-.1V.62c0-.05.04-.1.1-.1h1.83c.05,0,.1.04.1.1v1.83c0,.05-.04.1-.1.1ZM17.36,2.36h1.64V.72h-1.64v1.64Z"/>
      </g>
      <g>
        <path class="cls-1" d="M8.58,10.43h2.42c.14,0,.26-.12.26-.26s-.12-.26-.26-.26h-2.42c-.14,0-.26.12-.26.26s.12.26.26.26Z"/>
        <path class="cls-1" d="M11,10.52h-2.42c-.2,0-.36-.16-.36-.36s.16-.36.36-.36h2.42c.2,0,.36.16.36.36s-.16.36-.36.36ZM8.58,10c-.09,0-.16.07-.16.16s.07.16.16.16h2.42c.09,0,.16-.07.16-.16s-.07-.16-.16-.16h-2.42Z"/>
      </g>
    </g>
  </g>
</svg>