<?xml version="1.0" encoding="UTF-8"?>
<svg id="Layer_2" data-name="Layer 2" xmlns="http://www.w3.org/2000/svg" viewBox="0 0 8.75 19.14">
  <defs>
    <style>
      .cls-1 {
        fill: #1f1f1f;
      }
    </style>
  </defs>
  <g id="Object">
    <g>
      <g>
        <path class="cls-1" d="M2.83,8.72l1.36,1.36c.1.1.27.1.37,0l1.36-1.36c.1-.1.1-.27,0-.37-.1-.1-.27-.1-.37,0l-.91.91V.36c0-.14-.12-.26-.26-.26h0c-.14,0-.26.12-.26.26v8.91l-.91-.91c-.1-.1-.27-.1-.37,0-.1.1-.1.27,0,.37Z"/>
        <path class="cls-1" d="M4.37,10.26c-.09,0-.18-.04-.25-.11l-1.36-1.36c-.07-.07-.11-.16-.11-.25s.04-.19.11-.26c.14-.14.37-.14.51,0l.74.74V.36c0-.2.16-.36.36-.36s.36.16.36.36v8.67l.74-.74c.14-.14.37-.14.51,0,.07.07.11.16.11.26s-.04.19-.11.25l-1.36,1.36c-.07.07-.16.11-.25.11ZM3.01,8.38s-.08.02-.12.05c-.03.03-.05.07-.05.12s.02.08.05.12h0l1.36,1.36c.06.06.17.06.23,0l1.36-1.36s.05-.07.05-.12-.02-.08-.05-.12c-.06-.06-.17-.06-.23,0l-.91.91s-.07.04-.11.02c-.04-.02-.06-.05-.06-.09V.36c0-.09-.07-.16-.16-.16s-.16.07-.16.16v8.9s-.02.08-.06.09c-.04.01-.08,0-.11-.02l-.91-.91s-.07-.05-.12-.05Z"/>
      </g>
      <g>
        <path class="cls-1" d="M8.32,4.41h-2.28c-.14,0-.26.12-.26.26s.12.26.26.26h2.08v11.13H.62V4.93h1.95c.14,0,.26-.12.26-.26s-.12-.26-.26-.26H.67c-.32,0-.58.26-.58.58v13.45c0,.34.27.61.61.61h7.33c.34,0,.61-.27.61-.61V4.74c0-.18-.15-.33-.33-.33ZM8.12,18.52H.62v-1.93h7.5v1.93Z"/>
        <path class="cls-1" d="M8.04,19.14H.71c-.39,0-.71-.32-.71-.71V4.98c0-.37.3-.67.67-.67h1.89c.2,0,.36.16.36.36s-.16.36-.36.36H.72v10.94h7.3V5.03h-1.98c-.2,0-.36-.16-.36-.36s.16-.36.36-.36h2.28c.23,0,.43.19.43.43v13.7c0,.39-.32.71-.71.71ZM.67,4.51c-.26,0-.48.21-.48.48v13.45c0,.28.23.51.51.51h7.33c.28,0,.51-.23.51-.51V4.74c0-.13-.1-.23-.23-.23h-2.28c-.09,0-.16.07-.16.16s.07.16.16.16h2.08c.05,0,.1.04.1.1v11.13c0,.05-.04.1-.1.1H.62c-.05,0-.1-.04-.1-.1V4.93c0-.05.04-.1.1-.1h1.95c.09,0,.16-.07.16-.16s-.07-.16-.16-.16H.67ZM8.12,18.62H.62c-.05,0-.1-.04-.1-.1v-1.93c0-.05.04-.1.1-.1h7.5c.05,0,.1.04.1.1v1.93c0,.05-.04.1-.1.1ZM.72,18.42h7.3v-1.74H.72v1.74Z"/>
      </g>
      <g>
        <path class="cls-1" d="M3.8,17.81h1.14c.14,0,.26-.12.26-.26s-.12-.26-.26-.26h-1.14c-.14,0-.26.12-.26.26s.12.26.26.26Z"/>
        <path class="cls-1" d="M4.94,17.91h-1.14c-.2,0-.36-.16-.36-.36s.16-.36.36-.36h1.14c.2,0,.36.16.36.36s-.16.36-.36.36ZM3.8,17.39c-.09,0-.16.07-.16.16s.07.16.16.16h1.14c.09,0,.16-.07.16-.16s-.07-.16-.16-.16h-1.14Z"/>
      </g>
    </g>
  </g>
</svg>