<?xml version="1.0" encoding="UTF-8"?>
<svg id="Layer_2" data-name="Layer 2" xmlns="http://www.w3.org/2000/svg" viewBox="0 0 19.43 17.84">
  <defs>
    <style>
      .cls-1 {
        fill: #1f1f1f;
      }
    </style>
  </defs>
  <g id="Object">
    <g>
      <g>
        <path class="cls-1" d="M19.32.32s0-.04-.01-.06c0-.02-.02-.03-.03-.05,0-.01-.01-.02-.02-.03,0,0,0,0,0,0-.01-.01-.03-.02-.05-.04-.01,0-.02-.02-.03-.02-.01,0-.03,0-.04,0-.02,0-.04-.01-.06-.01,0,0,0,0,0,0H.36s0,0,0,0c-.02,0-.04,0-.06.01-.01,0-.03,0-.04,0-.01,0-.02.02-.03.02-.02.01-.04.02-.05.04,0,0,0,0,0,0,0,0-.01.02-.02.03-.01.02-.02.03-.03.05,0,.02,0,.04-.01.06,0,.01,0,.02,0,.04v13.68c0,.14.12.26.26.26h9.11c.16,1.92,1.77,3.44,3.73,3.44s3.57-1.52,3.73-3.44h2.15c.14,0,.26-.12.26-.26V.36s0-.02,0-.04ZM18.4.62l-8.68,8.02L1.03.62h17.37ZM13.19,17.21c-1.77,0-3.22-1.44-3.22-3.22s1.44-3.22,3.22-3.22,3.22,1.44,3.22,3.22-1.44,3.22-3.22,3.22ZM18.81,13.78h-1.88c-.12-1.96-1.74-3.52-3.73-3.52s-3.61,1.56-3.73,3.52H.62V.96l8.91,8.24c.05.05.11.07.18.07s.13-.02.18-.07L18.81.96v12.82Z"/>
        <path class="cls-1" d="M13.19,17.84c-1.95,0-3.61-1.5-3.82-3.44H.36c-.2,0-.36-.16-.36-.36V.36s0-.04,0-.05c0-.03,0-.06.02-.08.01-.03.02-.05.04-.06.01-.02.02-.03.03-.05,0,0,.01-.01.02-.02,0,0,.03-.02.04-.03.02-.02.04-.03.05-.03.02,0,.04-.01.05-.01.03,0,.06-.02.09-.02h18.72s.01,0,.02,0c.03,0,.05,0,.07.01.02,0,.04,0,.06.02.02,0,.03.02.04.03.03.02.05.03.07.05.02.02.03.04.03.05.02.02.03.04.04.07.01.03.01.05.02.07l-.1.03.1-.02s0,.05,0,.05v13.68c0,.2-.16.36-.36.36h-2.06c-.2,1.93-1.86,3.44-3.82,3.44ZM.24.25s-.01.02-.01.02c-.01.02-.02.03-.02.03,0,0,0,.02,0,.03,0,.02,0,.03,0,.04v13.67c0,.09.07.16.16.16h9.11c.05,0,.09.04.1.09.15,1.88,1.75,3.35,3.63,3.35s3.48-1.47,3.63-3.35c0-.05.05-.09.1-.09h2.15c.09,0,.16-.07.16-.16V.36s0-.01,0-.02h0s0-.01,0-.01c0-.03-.01-.04-.02-.04,0,0-.01-.02-.02-.03,0,0-.02-.01-.02-.01l-.03-.02h-.03s-.04-.02-.05-.02H.37s-.01,0-.04,0c0,0-.03,0-.03,0,0,0-.02.01-.02.01-.02.01-.03.02-.03.02h0ZM13.19,17.31c-1.83,0-3.32-1.49-3.32-3.32s1.49-3.32,3.32-3.32,3.32,1.49,3.32,3.32-1.49,3.32-3.32,3.32ZM13.19,10.88c-1.72,0-3.12,1.4-3.12,3.12s1.4,3.12,3.12,3.12,3.12-1.4,3.12-3.12-1.4-3.12-3.12-3.12ZM18.81,13.87h-1.88c-.05,0-.09-.04-.1-.09-.11-1.92-1.71-3.43-3.63-3.43s-3.52,1.51-3.63,3.43c0,.05-.05.09-.1.09H.62c-.05,0-.1-.04-.1-.1V.96s.02-.07.06-.09c.04-.01.08,0,.11.02l8.91,8.24c.06.06.16.06.22,0L18.74.89s.07-.03.11-.02c.04.02.06.05.06.09v12.82c0,.05-.04.1-.1.1ZM17.01,13.68h1.69V1.18l-8.75,8.08c-.13.12-.35.12-.49,0L.72,1.18v12.49h8.65c.16-1.98,1.83-3.52,3.82-3.52s3.66,1.54,3.82,3.52ZM9.71,8.74s-.05,0-.07-.03L.96.69s-.04-.07-.02-.11c.01-.04.05-.06.09-.06h17.37s.08.02.09.06c.01.04,0,.08-.02.11l-8.68,8.02s-.04.03-.07.03ZM1.28.72l8.43,7.79L18.15.72H1.28Z"/>
      </g>
      <g>
        <path class="cls-1" d="M14.88,12.41l-2.62,2.62-.75-.75c-.1-.1-.27-.1-.37,0-.1.1-.1.27,0,.37l.94.94s.12.08.19.08.14-.03.19-.08l2.81-2.81c.1-.1.1-.27,0-.37s-.27-.1-.37,0Z"/>
        <path class="cls-1" d="M12.26,15.76c-.1,0-.19-.04-.25-.11l-.94-.94c-.14-.14-.14-.37,0-.51.14-.14.37-.14.51,0l.68.68,2.55-2.55c.14-.14.37-.14.51,0,.14.14.14.37,0,.51l-2.81,2.81c-.07.07-.16.11-.25.11ZM11.32,14.3s-.08.02-.12.05c-.06.06-.06.17,0,.23l.94.94c.06.06.17.06.23,0l2.81-2.81c.06-.06.06-.17,0-.23-.06-.06-.17-.06-.23,0l-2.62,2.62s-.1.04-.14,0l-.75-.75s-.07-.05-.12-.05Z"/>
      </g>
    </g>
  </g>
</svg>