<?xml version="1.0" encoding="UTF-8"?>
<svg id="Layer_2" data-name="Layer 2" xmlns="http://www.w3.org/2000/svg" viewBox="0 0 19.5 19.5">
  <defs>
    <style>
      .cls-1 {
        fill: #1f1f1f;
      }
    </style>
  </defs>
  <g id="Object">
    <g>
      <g>
        <path class="cls-1" d="M9.75,19.4C4.43,19.4.1,15.07.1,9.75S4.43.1,9.75.1s9.65,4.33,9.65,9.65-4.33,9.65-9.65,9.65ZM9.75.62C4.72.62.62,4.72.62,9.75s4.1,9.13,9.13,9.13,9.13-4.1,9.13-9.13S14.79.62,9.75.62Z"/>
        <path class="cls-1" d="M9.75,19.5C4.37,19.5,0,15.13,0,9.75S4.37,0,9.75,0s9.75,4.37,9.75,9.75-4.37,9.75-9.75,9.75ZM9.75.2C4.48.2.2,4.48.2,9.75s4.29,9.55,9.55,9.55,9.55-4.29,9.55-9.55S15.02.2,9.75.2ZM9.75,18.98C4.66,18.98.52,14.84.52,9.75S4.66.52,9.75.52s9.23,4.14,9.23,9.23-4.14,9.23-9.23,9.23ZM9.75.72C4.77.72.72,4.77.72,9.75s4.05,9.03,9.03,9.03,9.03-4.05,9.03-9.03S14.73.72,9.75.72Z"/>
      </g>
      <g>
        <g>
          <path class="cls-1" d="M8.61,14.39h-2.45c-.14,0-.26-.12-.26-.26V5.38c0-.14.12-.26.26-.26h2.45c.14,0,.26.12.26.26v8.75c0,.14-.12.26-.26.26ZM6.43,13.87h1.92V5.64h-1.92v8.23Z"/>
          <path class="cls-1" d="M8.61,14.49h-2.45c-.2,0-.36-.16-.36-.36V5.38c0-.2.16-.36.36-.36h2.45c.2,0,.36.16.36.36v8.75c0,.2-.16.36-.36.36ZM6.17,5.21c-.09,0-.16.07-.16.16v8.75c0,.09.07.16.16.16h2.45c.09,0,.16-.07.16-.16V5.38c0-.09-.07-.16-.16-.16h-2.45ZM8.35,13.96h-1.92c-.05,0-.1-.04-.1-.1V5.64c0-.05.04-.1.1-.1h1.92c.05,0,.1.04.1.1v8.23c0,.05-.04.1-.1.1ZM6.53,13.77h1.73V5.74h-1.73v8.03Z"/>
        </g>
        <g>
          <path class="cls-1" d="M13.34,14.39h-2.45c-.14,0-.26-.12-.26-.26V5.38c0-.14.12-.26.26-.26h2.45c.14,0,.26.12.26.26v8.75c0,.14-.12.26-.26.26ZM11.15,13.87h1.92V5.64h-1.92v8.23Z"/>
          <path class="cls-1" d="M13.34,14.49h-2.45c-.2,0-.36-.16-.36-.36V5.38c0-.2.16-.36.36-.36h2.45c.2,0,.36.16.36.36v8.75c0,.2-.16.36-.36.36ZM10.89,5.21c-.09,0-.16.07-.16.16v8.75c0,.09.07.16.16.16h2.45c.09,0,.16-.07.16-.16V5.38c0-.09-.07-.16-.16-.16h-2.45ZM13.07,13.96h-1.92c-.05,0-.1-.04-.1-.1V5.64c0-.05.04-.1.1-.1h1.92c.05,0,.1.04.1.1v8.23c0,.05-.04.1-.1.1ZM11.25,13.77h1.73V5.74h-1.73v8.03Z"/>
        </g>
      </g>
    </g>
  </g>
</svg>