<?xml version="1.0" encoding="UTF-8"?>
<svg id="Layer_2" data-name="Layer 2" xmlns="http://www.w3.org/2000/svg" viewBox="0 0 9.98 19.5">
  <defs>
    <style>
      .cls-1 {
        fill: #1f1f1f;
      }
    </style>
  </defs>
  <g id="Object">
    <g>
      <g>
        <path class="cls-1" d="M9.62,19.4c.14,0,.26-.12.26-.26V7.17c0-.05-.02-.1-.05-.15L5.21.21c-.05-.07-.13-.11-.22-.11-.09,0-.17.05-.22.12L.18,7.25s-.04.09-.04.14l-.04,11.75c0,.07.03.14.08.19.05.05.12.08.19.08h9.26ZM.67,7.47L4.99.83l4.36,6.42v11.63H.62l.04-11.41Z"/>
        <path class="cls-1" d="M9.62,19.5H.36c-.1,0-.19-.04-.26-.11C.04,19.33,0,19.24,0,19.14L.04,7.39c0-.07.02-.14.06-.2L4.69.16c.07-.1.18-.16.3-.16.13,0,.24.06.3.16l4.63,6.81c.04.06.06.13.06.2v11.97c0,.2-.16.36-.36.36ZM4.99.2c-.05,0-.1.03-.13.07L.27,7.3s-.03.06-.03.09l-.04,11.75s.02.09.05.12c.03.03.07.05.12.05h9.26c.09,0,.16-.07.16-.16V7.17s0-.06-.03-.09L5.13.27s-.08-.07-.14-.07ZM9.36,18.98H.62s-.05-.01-.07-.03c-.02-.02-.03-.04-.03-.07l.04-11.41s0-.04.02-.05L4.91.78s.05-.04.08-.04h0s.06.02.08.04l4.36,6.42s.02.04.02.06v11.63c0,.05-.04.1-.1.1ZM.72,18.78h8.54V7.29L5,1.01.76,7.5l-.04,11.28Z"/>
      </g>
      <g>
        <path class="cls-1" d="M4.99,5.34c-1.18,0-2.14.96-2.14,2.14s.96,2.14,2.14,2.14,2.14-.96,2.14-2.14-.96-2.14-2.14-2.14ZM4.99,9.1c-.89,0-1.62-.73-1.62-1.62s.73-1.62,1.62-1.62,1.62.72,1.62,1.62-.72,1.62-1.62,1.62Z"/>
        <path class="cls-1" d="M4.99,9.72c-1.23,0-2.24-1-2.24-2.24s1-2.24,2.24-2.24,2.24,1,2.24,2.24-1,2.24-2.24,2.24ZM4.99,5.44c-1.13,0-2.04.92-2.04,2.04s.92,2.04,2.04,2.04,2.04-.92,2.04-2.04-.92-2.04-2.04-2.04ZM4.99,9.19c-.95,0-1.71-.77-1.71-1.71s.77-1.71,1.71-1.71,1.71.77,1.71,1.71-.77,1.71-1.71,1.71ZM4.99,5.96c-.84,0-1.52.68-1.52,1.52s.68,1.52,1.52,1.52,1.52-.68,1.52-1.52-.68-1.52-1.52-1.52Z"/>
      </g>
    </g>
  </g>
</svg>