<?xml version="1.0" encoding="UTF-8"?>
<svg id="Layer_2" data-name="Layer 2" xmlns="http://www.w3.org/2000/svg" viewBox="0 0 17.58 10.93">
  <defs>
    <style>
      .cls-1 {
        fill: #1f1f1f;
      }
    </style>
  </defs>
  <g id="Object">
    <g>
      <g>
        <path class="cls-1" d="M17.22,2.97h-2.27V.36c0-.14-.12-.26-.26-.26H.36C.22.1.1.22.1.36v10.21c0,.14.12.26.26.26h14.33c.14,0,.26-.12.26-.26v-2.45h2.27c.14,0,.26-.12.26-.26V3.24c0-.14-.12-.26-.26-.26ZM14.43,10.31H.62V.62h13.8v9.69ZM16.96,7.6h-2.01V3.5h2.01v4.11Z"/>
        <path class="cls-1" d="M14.69,10.93H.36c-.2,0-.36-.16-.36-.36V.36c0-.2.16-.36.36-.36h14.33c.2,0,.36.16.36.36v2.51h2.17c.2,0,.36.16.36.36v4.63c0,.2-.16.36-.36.36h-2.17v2.35c0,.2-.16.36-.36.36ZM.36.2c-.09,0-.16.07-.16.16v10.21c0,.09.07.16.16.16h14.33c.09,0,.16-.07.16-.16v-2.45c0-.05.04-.1.1-.1h2.27c.09,0,.16-.07.16-.16V3.24c0-.09-.07-.16-.16-.16h-2.27c-.05,0-.1-.04-.1-.1V.36c0-.09-.07-.16-.16-.16H.36ZM14.43,10.41H.62c-.05,0-.1-.04-.1-.1V.62c0-.05.04-.1.1-.1h13.8c.05,0,.1.04.1.1v9.69c0,.05-.04.1-.1.1ZM.72,10.21h13.61V.72H.72v9.49ZM16.96,7.7h-2.01c-.05,0-.1-.04-.1-.1V3.5c0-.05.04-.1.1-.1h2.01c.05,0,.1.04.1.1v4.11c0,.05-.04.1-.1.1ZM15.05,7.5h1.81v-3.91h-1.81v3.91Z"/>
      </g>
      <g>
        <path class="cls-1" d="M12.02,4.46h-.85v-1.22c0-.14-.12-.26-.26-.26h-3.67c-.14,0-.26.12-.26.26v2.05H2.7c-.14,0-.26.12-.26.26s.12.26.26.26h4.54c.14,0,.26-.12.26-.26v-2.05h3.14v4.11h-3.14v-2.24c0-.14-.12-.26-.26-.26s-.26.12-.26.26v2.51c0,.14.12.26.26.26h3.67c.14,0,.26-.12.26-.26v-1.31h.85c.14,0,.26-.12.26-.26v-1.57c0-.14-.12-.26-.26-.26ZM11.17,4.98h.59v1.05h-.59v-1.05Z"/>
        <path class="cls-1" d="M10.91,8.23h-3.67c-.2,0-.36-.16-.36-.36v-1.95H2.7c-.2,0-.36-.16-.36-.36s.16-.36.36-.36h4.18v-1.95c0-.2.16-.36.36-.36h3.67c.2,0,.36.16.36.36v1.12h.75c.2,0,.36.16.36.36v1.57c0,.2-.16.36-.36.36h-.75v1.21c0,.2-.16.36-.36.36ZM7.08,5.91v1.95c0,.09.07.16.16.16h3.67c.09,0,.16-.07.16-.16v-1.31c0-.05.04-.1.1-.1h.85c.09,0,.16-.07.16-.16v-1.57c0-.09-.07-.16-.16-.16h-.85c-.05,0-.1-.04-.1-.1v-1.22c0-.09-.07-.16-.16-.16h-3.67c-.09,0-.16.07-.16.16v1.8c.1-.05.23-.05.33,0v-1.54c0-.05.04-.1.1-.1h3.14c.05,0,.1.04.1.1v4.11c0,.05-.04.1-.1.1h-3.14c-.05,0-.1-.04-.1-.1v-1.73s-.1.04-.16.04h-.16ZM7.6,7.5h2.95v-3.91h-2.95v3.91ZM7.08,5.71h.16c.09,0,.16-.07.16-.16v-.19c0-.09-.07-.16-.16-.16s-.16.07-.16.16v.36ZM2.7,5.39c-.09,0-.16.07-.16.16s.07.16.16.16h4.18v-.33H2.7ZM11.76,6.13h-.59c-.05,0-.1-.04-.1-.1v-1.05c0-.05.04-.1.1-.1h.59c.05,0,.1.04.1.1v1.05c0,.05-.04.1-.1.1ZM11.27,5.93h.39v-.85h-.39v.85Z"/>
      </g>
    </g>
  </g>
</svg>