<?xml version="1.0" encoding="UTF-8"?>
<svg id="Layer_2" data-name="Layer 2" xmlns="http://www.w3.org/2000/svg" viewBox="0 0 17.59 17.59">
  <defs>
    <style>
      .cls-1 {
        fill: #1f1f1f;
      }
    </style>
  </defs>
  <g id="Object">
    <g>
      <g>
        <path class="cls-1" d="M16.89,17.15c-.07,0-.13-.03-.19-.08L.52.89c-.1-.1-.1-.27,0-.37s.27-.1.37,0l16.18,16.18c.1.1.1.27,0,.37-.05.05-.12.08-.19.08Z"/>
        <path class="cls-1" d="M16.89,17.25c-.1,0-.19-.04-.25-.11L.45.96c-.14-.14-.14-.37,0-.51.14-.14.37-.14.51,0l16.18,16.18c.14.14.14.37,0,.51-.07.07-.16.11-.25.11ZM.71.54s-.08.02-.12.05c-.06.06-.06.17,0,.23l16.18,16.18c.06.06.17.06.23,0,.06-.06.06-.17,0-.23L.82.59s-.07-.05-.12-.05Z"/>
      </g>
      <g>
        <path class="cls-1" d="M.71,17.15c-.07,0-.13-.03-.19-.08-.1-.1-.1-.27,0-.37L16.7.52c.1-.1.27-.1.37,0s.1.27,0,.37L.89,17.07c-.05.05-.12.08-.19.08Z"/>
        <path class="cls-1" d="M.71,17.25c-.1,0-.19-.04-.25-.11-.14-.14-.14-.37,0-.51L16.63.45c.14-.14.37-.14.51,0,.14.14.14.37,0,.51L.96,17.14c-.07.07-.16.11-.25.11ZM16.89.54s-.08.02-.12.05L.59,16.77c-.06.06-.06.17,0,.23.06.06.17.06.23,0L17,.82c.06-.06.06-.17,0-.23-.03-.03-.07-.05-.12-.05Z"/>
      </g>
      <g>
        <path class="cls-1" d="M16.55,4.65s-.03,0-.04,0c-.14-.02-.24-.16-.22-.3l.62-3.67-3.67.62c-.14.02-.28-.07-.3-.22-.02-.14.07-.28.22-.3L17.19.1c.08-.01.17.01.23.07.06.06.09.15.07.23l-.68,4.03c-.02.13-.13.22-.26.22Z"/>
        <path class="cls-1" d="M16.55,4.75s-.04,0-.06,0c-.09-.02-.18-.07-.23-.15s-.08-.17-.06-.27l.59-3.53-3.53.59c-.2.03-.38-.1-.42-.3-.03-.2.1-.38.3-.42L17.17,0c.11-.02.23.02.31.1.08.08.12.2.1.31l-.68,4.03c-.03.17-.18.3-.36.3ZM16.91.58s.05.01.07.03c.02.02.03.05.03.09l-.62,3.67s0,.09.03.12c.03.04.06.06.11.07.1.02.17-.05.19-.13l.68-4.03c0-.05,0-.11-.05-.14-.04-.04-.09-.06-.14-.05l-4.03.68c-.09.01-.15.1-.13.19.01.09.1.15.19.13l3.67-.62s.01,0,.02,0Z"/>
      </g>
      <g>
        <path class="cls-1" d="M.36,17.49c-.07,0-.14-.03-.19-.08-.06-.06-.09-.15-.07-.23l.68-4.03c.02-.14.16-.24.3-.22.14.02.24.16.22.3l-.62,3.67,3.67-.62c.14-.02.28.07.3.22.02.14-.07.28-.22.3l-4.03.68s-.03,0-.04,0Z"/>
        <path class="cls-1" d="M.36,17.59c-.1,0-.19-.04-.25-.11-.08-.08-.12-.2-.1-.31l.68-4.03c.02-.09.07-.18.15-.23.08-.06.17-.08.27-.06.09.02.18.07.23.15.06.08.08.17.06.27l-.59,3.53,3.53-.59c.19-.03.38.1.42.3.03.2-.1.38-.3.42l-4.03.68s-.04,0-.06,0ZM1.04,13.03s-.07.01-.09.03c-.04.03-.06.06-.07.11l-.68,4.03c0,.05,0,.11.05.14.04.04.09.06.14.05l4.03-.68c.09-.01.15-.1.13-.19-.01-.09-.1-.15-.19-.13l-3.67.62s-.06,0-.09-.03c-.02-.02-.03-.05-.03-.09l.62-3.67c.01-.09-.05-.17-.13-.19,0,0-.02,0-.03,0Z"/>
      </g>
      <g>
        <path class="cls-1" d="M17.1,17.36s-.03,0-.04,0l-4.03-.68c-.14-.02-.24-.16-.22-.3.02-.14.16-.24.3-.22l3.67.62-.62-3.67c-.02-.14.07-.28.22-.3.14-.02.28.07.3.22l.68,4.03c.01.08-.01.17-.07.23-.05.05-.12.08-.19.08Z"/>
        <path class="cls-1" d="M17.1,17.46s-.04,0-.06,0l-4.03-.68c-.2-.03-.33-.22-.3-.42.03-.2.22-.33.41-.3l3.53.59-.59-3.53c-.02-.1,0-.19.06-.27s.14-.13.23-.15c.19-.03.38.1.41.3l.68,4.03c.02.11-.02.23-.1.31-.07.07-.16.11-.25.11ZM13.07,16.26c-.08,0-.15.06-.16.14-.01.09.05.17.13.19l4.03.68c.06.01.11,0,.14-.05.04-.04.05-.09.05-.14l-.68-4.03c-.02-.09-.1-.15-.19-.13-.04,0-.08.03-.11.07-.03.04-.04.08-.03.12l.62,3.67s0,.06-.03.09c-.02.02-.05.03-.09.03l-3.67-.62s-.02,0-.03,0Z"/>
      </g>
      <g>
        <path class="cls-1" d="M1.09,4.71c-.13,0-.24-.09-.26-.22L.16.46c-.01-.08.01-.17.07-.23.06-.06.14-.09.23-.07l4.03.68c.14.02.24.16.22.3-.02.14-.16.24-.3.22L.74.74l.62,3.67c.02.14-.07.28-.22.3-.01,0-.03,0-.04,0Z"/>
        <path class="cls-1" d="M1.09,4.81c-.18,0-.33-.13-.36-.3L.06.48c-.02-.11.02-.23.1-.31.08-.08.2-.12.31-.1l4.03.68c.2.03.33.22.3.41-.03.2-.22.33-.41.3L.86.86l.59,3.53c.03.2-.1.38-.3.42-.02,0-.04,0-.06,0ZM.42.25s-.09.02-.12.05c-.04.04-.05.09-.05.14l.68,4.03c.01.09.1.15.19.13.09-.01.15-.1.13-.19L.64.75s0-.06.03-.09c.02-.02.05-.03.09-.03l3.67.62c.09.02.17-.05.19-.13,0-.04,0-.09-.03-.12-.03-.04-.06-.06-.11-.07L.44.25s-.02,0-.03,0Z"/>
      </g>
    </g>
  </g>
</svg>