<?xml version="1.0" encoding="UTF-8"?>
<svg id="Layer_2" data-name="Layer 2" xmlns="http://www.w3.org/2000/svg" viewBox="0 0 19.03 17.17">
  <defs>
    <style>
      .cls-1 {
        fill: #1f1f1f;
      }
    </style>
  </defs>
  <g id="Object">
    <g>
      <path class="cls-1" d="M18.67.1H.36C.22.1.1.22.1.36s.12.26.26.26h8.56v1.76H2.3c-.14,0-.26.12-.26.26v9.43c0,.14.12.26.26.26l6.33.03-4.38,4.24c-.1.1-.11.27,0,.37.05.05.12.08.19.08s.13-.02.18-.07l4.31-4.17v3.98c0,.14.12.26.26.26s.26-.12.26-.26v-3.99l4.41,4.18c.1.1.27.1.37,0,.1-.1.1-.27,0-.37l-4.47-4.24,5.53-.03h1.31c.14,0,.26-.12.26-.26V2.65c0-.14-.12-.26-.26-.26h-7.14V.62h9.23c.14,0,.26-.12.26-.26s-.12-.26-.26-.26ZM16.32,2.91v8.91h-.91s0,0,0,0h-.99l-2.35-4.57c-.04-.07-.11-.13-.19-.14-.08-.01-.17.02-.23.07l-2.17,2.2-4.5-4.53c-.1-.1-.27-.1-.37,0-.1.1-.1.27,0,.37l4.68,4.72s.12.08.19.08h0c.07,0,.14-.03.19-.08l2.1-2.13,2.06,4.01H2.56V2.91h13.76Z"/>
      <path class="cls-1" d="M14.03,17.17c-.09,0-.18-.03-.25-.1l-4.24-4.02v3.76c0,.2-.16.36-.36.36s-.36-.16-.36-.36v-3.75l-4.14,4.01c-.14.13-.38.13-.51,0-.14-.14-.13-.37,0-.51l4.21-4.07-6.09-.03c-.2,0-.36-.16-.36-.36V2.65c0-.2.16-.36.36-.36h6.52V.72H.36c-.2,0-.36-.16-.36-.36s.16-.36.36-.36h18.31c.2,0,.36.16.36.36s-.16.36-.36.36h-9.13v1.57h7.04c.2,0,.36.16.36.36v9.43c0,.2-.16.36-.36.36h-1.31l-5.28.03,4.29,4.07c.14.14.15.37.01.51-.07.07-.16.11-.25.11h0ZM9.44,12.72s.05,0,.07.03l4.41,4.18s.08.04.12.05c.04,0,.08-.02.11-.05.06-.07.06-.17,0-.23l-4.47-4.24s-.04-.07-.02-.11c.01-.04.05-.06.09-.06l6.84-.03c.09,0,.16-.07.16-.16V2.65c0-.09-.07-.16-.16-.16h-7.14c-.05,0-.1-.04-.1-.1V.62c0-.05.04-.1.1-.1h9.23c.09,0,.16-.07.16-.16s-.07-.16-.16-.16H.36c-.09,0-.16.07-.16.16s.07.16.16.16h8.56c.05,0,.1.04.1.1v1.76c0,.05-.04.1-.1.1H2.3c-.09,0-.16.07-.16.16v9.43c0,.09.07.16.16.16l6.33.03s.08.02.09.06c.02.04,0,.08-.02.11l-4.38,4.24c-.06.06-.07.17,0,.23.06.06.17.06.23,0l4.31-4.17s.07-.04.11-.02c.04.02.06.05.06.09v3.98c0,.09.07.16.16.16s.16-.07.16-.16v-3.99s.02-.07.06-.09c.01,0,.03,0,.04,0ZM16.32,11.92h-.91s0,0-.01,0h-.98s-.07-.02-.09-.05l-2.35-4.57s-.07-.08-.12-.09c-.05,0-.1,0-.14.05l-2.17,2.2s-.04.03-.07.03h0s-.05-.01-.07-.03l-4.5-4.53s-.07-.05-.12-.05h0s-.08.02-.12.05c-.03.03-.05.07-.05.12,0,.04.02.08.05.12l4.68,4.72c.06.06.17.06.23,0l2.1-2.13s.05-.03.08-.03c.03,0,.06.02.07.05l2.06,4.01s.01.07,0,.1c-.02.03-.05.05-.08.05H2.56c-.05,0-.1-.04-.1-.1V2.91c0-.05.04-.1.1-.1h13.76c.05,0,.1.04.1.1v8.91c0,.05-.04.1-.1.1ZM15.42,11.72h.8V3.01H2.66v8.71h11.01l-1.93-3.75-2.01,2.04c-.14.14-.38.14-.51,0l-4.68-4.72c-.07-.07-.11-.16-.1-.26,0-.1.04-.19.11-.25.07-.07.16-.1.25-.1,0,0,0,0,0,0,.1,0,.19.04.25.11l4.43,4.46,2.1-2.13c.08-.08.2-.12.31-.1.11.02.21.09.27.19l2.32,4.52h.93s0,0,.01,0Z"/>
    </g>
  </g>
</svg>