<?xml version="1.0" encoding="UTF-8"?>
<svg id="Layer_2" data-name="Layer 2" xmlns="http://www.w3.org/2000/svg" viewBox="0 0 14.75 19.14">
  <defs>
    <style>
      .cls-1 {
        fill: #1f1f1f;
      }
    </style>
  </defs>
  <g id="Object">
    <g>
      <path class="cls-1" d="M7.17,19.04c-1.4,0-2.79-.35-3.95-1.06C1.11,16.69,0,14.41.11,11.57.35,5.16,6.01.91,7.02.2c.1-.07.21-.1.33-.1h0c.08,0,.16.03.23.09.4.33,1.95,1.66,3.48,3.51,1.64,1.99,3.6,5.02,3.6,8.14,0,2.72-1.25,4.92-3.53,6.19-1.2.67-2.58,1.01-3.95,1.01ZM7.3.64C6.3,1.34.86,5.45.63,11.59c-.1,2.64.92,4.75,2.87,5.95,2.13,1.3,5.09,1.32,7.37.04,2.1-1.18,3.26-3.22,3.26-5.73C14.13,6.61,8.31,1.49,7.3.64Z"/>
      <path class="cls-1" d="M7.17,19.14c-1.46,0-2.84-.37-4-1.08C1.02,16.75-.1,14.44,0,11.57.25,5.15,5.84.9,6.96.11c.11-.08.25-.12.39-.11.11,0,.21.04.29.11.43.36,1.97,1.68,3.49,3.52,1.65,2,3.62,5.05,3.62,8.21,0,2.75-1.27,4.98-3.58,6.28-1.19.67-2.58,1.02-4,1.02ZM7.32.2c-.09,0-.18.03-.25.08C5.97,1.05.44,5.25.2,11.57c-.11,2.8.99,5.05,3.07,6.32,1.12.69,2.47,1.05,3.89,1.05s2.74-.35,3.9-1c2.24-1.26,3.48-3.43,3.48-6.11,0-3.09-1.94-6.1-3.58-8.08-1.51-1.83-3.03-3.14-3.46-3.5-.05-.04-.11-.06-.17-.07,0,0-.01,0-.02,0ZM7.17,18.62c-1.32,0-2.63-.33-3.72-1-1.98-1.21-3.02-3.35-2.92-6.03C.76,5.43,6.16,1.32,7.24.56c.04-.03.09-.02.12,0,1.15.96,6.86,6.03,6.86,11.28,0,2.56-1.18,4.62-3.31,5.82-1.14.64-2.45.96-3.74.96ZM7.29.76C6.1,1.62.95,5.64.73,11.59c-.1,2.6.9,4.68,2.82,5.86,2.1,1.28,5.02,1.3,7.27.04,2.07-1.16,3.21-3.17,3.21-5.65,0-2.19-1.01-4.6-3.01-7.19-1.52-1.96-3.17-3.42-3.72-3.89Z"/>
    </g>
  </g>
</svg>