<?xml version="1.0" encoding="UTF-8"?>
<svg id="Layer_2" data-name="Layer 2" xmlns="http://www.w3.org/2000/svg" viewBox="0 0 12.45 17.36">
  <defs>
    <style>
      .cls-1 {
        fill: #1f1f1f;
      }
    </style>
  </defs>
  <g id="Object">
    <g>
      <g>
        <path class="cls-1" d="M10.12,17.26c-4.08,0-7.4-3.31-7.4-7.39,0-3.78,2.9-7.02,6.67-7.38.92-.09,1.83-.01,2.7.23.14.04.22.19.18.33h0c-.04.14-.18.21-.32.17-.87-.24-1.78-.3-2.69-.19-3.42.43-6.03,3.42-6,6.87.03,3.77,3.1,6.83,6.88,6.83.64,0,1.28-.09,1.89-.26.14-.04.28.03.32.17h0c.05.14-.03.29-.17.33-.66.19-1.35.29-2.04.29Z"/>
        <path class="cls-1" d="M10.12,17.36c-4.13,0-7.49-3.36-7.5-7.49,0-3.83,2.96-7.11,6.76-7.48.93-.09,1.85-.01,2.73.23.09.03.17.09.22.17.05.09.06.19.03.28-.06.19-.25.29-.44.24-.86-.23-1.75-.3-2.65-.19-3.34.42-5.94,3.39-5.92,6.77.03,3.71,3.07,6.73,6.78,6.73.63,0,1.26-.09,1.87-.26.19-.05.38.05.44.23.03.09.02.2-.02.28-.05.09-.12.15-.22.18-.67.19-1.37.29-2.07.29ZM10.12,2.55c-.24,0-.49.01-.73.04-3.7.36-6.59,3.56-6.58,7.29,0,4.02,3.29,7.29,7.31,7.29.69,0,1.36-.09,2.02-.28.04-.01.08-.04.1-.08.02-.04.03-.09.01-.13-.03-.08-.12-.13-.2-.1-.62.18-1.27.27-1.92.27-3.82,0-6.95-3.11-6.98-6.93-.02-3.48,2.65-6.54,6.09-6.97.92-.12,1.84-.05,2.73.19.09.02.18-.02.2-.11.01-.04,0-.09-.01-.13-.02-.04-.06-.07-.1-.08-.63-.17-1.28-.26-1.94-.26Z"/>
      </g>
      <g>
        <path class="cls-1" d="M2.03,3.2C.89,3.46-.12,2.46.14,1.31.27.73.73.27,1.31.14c1.15-.26,2.15.75,1.89,1.89-.13.58-.59,1.04-1.17,1.17ZM1.96.66c-.8-.21-1.51.5-1.3,1.29.09.35.38.63.73.73.8.21,1.51-.5,1.3-1.29-.09-.35-.38-.63-.73-.73Z"/>
        <path class="cls-1" d="M1.67,3.34c-.44,0-.87-.17-1.18-.49C.08,2.44-.09,1.86.04,1.29.18.67.67.18,1.29.04c.57-.13,1.15.04,1.56.45.41.41.57.99.45,1.56-.14.62-.63,1.11-1.25,1.25-.13.03-.25.04-.38.04ZM1.67.2c-.11,0-.22.01-.34.04C.79.35.35.79.23,1.33c-.11.5.03,1.02.39,1.38.36.36.88.51,1.38.39h0c.54-.12.98-.56,1.1-1.1.11-.5-.03-1.02-.39-1.38-.28-.28-.66-.43-1.05-.43ZM1.67,2.82c-.1,0-.21-.01-.31-.04-.38-.1-.69-.41-.8-.8-.11-.41,0-.83.3-1.12.29-.29.71-.4,1.12-.29.38.1.69.41.8.8.11.41,0,.83-.3,1.12-.22.22-.51.34-.81.34ZM1.67.72c-.25,0-.49.1-.67.28-.24.24-.33.59-.24.93.08.32.34.57.66.66.34.09.69,0,.93-.24.24-.24.33-.59.24-.93-.08-.32-.34-.57-.66-.66h0c-.09-.02-.17-.03-.26-.03Z"/>
      </g>
    </g>
  </g>
</svg>