<?xml version="1.0" encoding="UTF-8"?>
<svg id="Layer_2" data-name="Layer 2" xmlns="http://www.w3.org/2000/svg" viewBox="0 0 18.16 19.59">
  <defs>
    <style>
      .cls-1 {
        fill: #1f1f1f;
      }
    </style>
  </defs>
  <g id="Object">
    <g>
      <g>
        <path class="cls-1" d="M17.8,19.49c.14,0,.26-.12.26-.26v-1.05c0-.14-.12-.26-.26-.26s-.26.12-.26.26v1.05c0,.14.12.26.26.26Z"/>
        <path class="cls-1" d="M17.8,19.59c-.2,0-.36-.16-.36-.36v-1.05c0-.2.16-.36.36-.36s.36.16.36.36v1.05c0,.2-.16.36-.36.36ZM17.8,18.02c-.09,0-.16.07-.16.16v1.05c0,.09.07.16.16.16s.16-.07.16-.16v-1.05c0-.09-.07-.16-.16-.16Z"/>
      </g>
      <g>
        <path class="cls-1" d="M17.8,12.85c.14,0,.26-.12.26-.26v-1.86c0-.14-.12-.26-.26-.26s-.26.12-.26.26v1.86c0,.14.12.26.26.26Z"/>
        <path class="cls-1" d="M17.8,12.95c-.2,0-.36-.16-.36-.36v-1.86c0-.2.16-.36.36-.36s.36.16.36.36v1.86c0,.2-.16.36-.36.36ZM17.8,10.56c-.09,0-.16.07-.16.16v1.86c0,.09.07.16.16.16s.16-.07.16-.16v-1.86c0-.09-.07-.16-.16-.16Z"/>
      </g>
      <g>
        <path class="cls-1" d="M17.8,5.4c.14,0,.26-.12.26-.26v-1.86c0-.14-.12-.26-.26-.26s-.26.12-.26.26v1.86c0,.14.12.26.26.26Z"/>
        <path class="cls-1" d="M17.8,5.5c-.2,0-.36-.16-.36-.36v-1.86c0-.2.16-.36.36-.36s.36.16.36.36v1.86c0,.2-.16.36-.36.36ZM17.8,3.11c-.09,0-.16.07-.16.16v1.86c0,.09.07.16.16.16s.16-.07.16-.16v-1.86c0-.09-.07-.16-.16-.16Z"/>
      </g>
      <g>
        <path class="cls-1" d="M17.8,9.13c.14,0,.26-.12.26-.26v-1.86c0-.14-.12-.26-.26-.26s-.26.12-.26.26v1.86c0,.14.12.26.26.26Z"/>
        <path class="cls-1" d="M17.8,9.22c-.2,0-.36-.16-.36-.36v-1.86c0-.2.16-.36.36-.36s.36.16.36.36v1.86c0,.2-.16.36-.36.36ZM17.8,6.84c-.09,0-.16.07-.16.16v1.86c0,.09.07.16.16.16s.16-.07.16-.16v-1.86c0-.09-.07-.16-.16-.16Z"/>
      </g>
      <g>
        <path class="cls-1" d="M17.8,16.58c.14,0,.26-.12.26-.26v-1.86c0-.14-.12-.26-.26-.26s-.26.12-.26.26v1.86c0,.14.12.26.26.26Z"/>
        <path class="cls-1" d="M17.8,16.68c-.2,0-.36-.16-.36-.36v-1.86c0-.2.16-.36.36-.36s.36.16.36.36v1.86c0,.2-.16.36-.36.36ZM17.8,14.29c-.09,0-.16.07-.16.16v1.86c0,.09.07.16.16.16s.16-.07.16-.16v-1.86c0-.09-.07-.16-.16-.16Z"/>
      </g>
      <g>
        <path class="cls-1" d="M17.8,1.67c.14,0,.26-.12.26-.26V.36c0-.14-.12-.26-.26-.26s-.26.12-.26.26v1.05c0,.14.12.26.26.26Z"/>
        <path class="cls-1" d="M17.8,1.77c-.2,0-.36-.16-.36-.36V.36c0-.2.16-.36.36-.36s.36.16.36.36v1.05c0,.2-.16.36-.36.36ZM17.8.2c-.09,0-.16.07-.16.16v1.05c0,.09.07.16.16.16s.16-.07.16-.16V.36c0-.09-.07-.16-.16-.16Z"/>
      </g>
      <g>
        <path class="cls-1" d="M6.3,13.4c.08-.05.13-.13.13-.23v-6.71c0-.09-.05-.18-.13-.23-.04-.02-.09-.03-.13-.03s-.09.01-.13.03L.23,9.59c-.08.05-.13.13-.13.23s.05.18.13.23l5.81,3.35c.08.05.18.05.26,0ZM5.91,12.72L.88,9.82l5.02-2.9v5.8Z"/>
        <path class="cls-1" d="M6.17,13.53c-.06,0-.12-.02-.18-.05L.18,10.13c-.11-.06-.18-.18-.18-.31s.07-.25.18-.31l5.81-3.35c.11-.06.25-.06.36,0,.11.06.18.18.18.31v6.71c0,.13-.07.25-.18.31-.06.03-.12.05-.18.05ZM6.17,6.3s-.06,0-.08.02L.28,9.68c-.05.03-.08.08-.08.14s.03.11.08.14l5.81,3.35c.05.03.11.03.16,0,.05-.03.08-.08.08-.14v-6.71c0-.06-.03-.11-.08-.14-.02-.01-.05-.02-.08-.02ZM5.91,12.82s-.03,0-.05-.01L.84,9.91s-.05-.05-.05-.09.02-.07.05-.09l5.02-2.9s.07-.02.1,0c.03.02.05.05.05.09v5.8s-.02.07-.05.09c-.02,0-.03.01-.05.01ZM1.08,9.82l4.73,2.73v-5.46l-4.73,2.73Z"/>
      </g>
      <g>
        <path class="cls-1" d="M14.16,6.2s-.09.01-.13.03l-5.81,3.35c-.08.05-.13.13-.13.23s.05.18.13.23l5.81,3.35c.08.05.18.05.26,0,.08-.05.13-.13.13-.23v-6.71c0-.09-.05-.18-.13-.23-.04-.02-.09-.03-.13-.03ZM13.9,12.72l-5.02-2.9,5.02-2.9v5.8Z"/>
        <path class="cls-1" d="M14.16,13.53c-.06,0-.12-.02-.18-.05l-5.81-3.35c-.11-.06-.18-.18-.18-.31s.07-.25.18-.31l5.81-3.35c.11-.06.25-.06.36,0,.11.06.18.18.18.31v6.71c0,.13-.07.25-.18.31-.06.03-.12.05-.18.05ZM14.16,6.3s-.06,0-.08.02l-5.81,3.35c-.05.03-.08.08-.08.14s.03.11.08.14l5.81,3.35c.05.03.11.03.16,0,.05-.03.08-.08.08-.14v-6.71c0-.06-.03-.11-.08-.14-.02-.01-.05-.02-.08-.02ZM13.9,12.82s-.03,0-.05-.01l-5.02-2.9s-.05-.05-.05-.09.02-.07.05-.09l5.02-2.9s.07-.02.1,0c.03.02.05.05.05.09v5.8s-.02.07-.05.09c-.02,0-.03.01-.05.01ZM9.07,9.82l4.73,2.73v-5.46l-4.73,2.73Z"/>
      </g>
    </g>
  </g>
</svg>