<?xml version="1.0" encoding="UTF-8"?>
<svg id="Layer_2" data-name="Layer 2" xmlns="http://www.w3.org/2000/svg" viewBox="0 0 19.09 19.16">
  <defs>
    <style>
      .cls-1 {
        fill: #1f1f1f;
      }
    </style>
  </defs>
  <g id="Object">
    <g>
      <g>
        <path class="cls-1" d="M18.73,13.92h-1.95v-.56c0-.14-.12-.26-.26-.26s-.26.12-.26.26v.56h-2.15c-.14,0-.26.12-.26.26v2.11h-1.83c-.14,0-.26.12-.26.26s.12.26.26.26h1.83v1.99c0,.14.12.26.26.26h4.62c.14,0,.26-.12.26-.26v-4.62c0-.14-.12-.26-.26-.26ZM18.46,18.54h-4.1v-4.1h4.1v4.1Z"/>
        <path class="cls-1" d="M18.73,19.16h-4.62c-.2,0-.36-.16-.36-.36v-1.89h-1.74c-.2,0-.36-.16-.36-.36s.16-.36.36-.36h1.74v-2.01c0-.2.16-.36.36-.36h2.05v-.46c0-.2.16-.36.36-.36s.36.16.36.36v.46h1.85c.2,0,.36.16.36.36v4.62c0,.2-.16.36-.36.36ZM12.01,16.39c-.09,0-.16.07-.16.16s.07.16.16.16h1.83c.05,0,.1.04.1.1v1.99c0,.09.07.16.16.16h4.62c.09,0,.16-.07.16-.16v-4.62c0-.09-.07-.16-.16-.16h-1.95c-.05,0-.1-.04-.1-.1v-.56c0-.09-.07-.16-.16-.16s-.16.07-.16.16v.56c0,.05-.04.1-.1.1h-2.15c-.09,0-.16.07-.16.16v2.11c0,.05-.04.1-.1.1h-1.83ZM18.46,18.64h-4.1c-.05,0-.1-.04-.1-.1v-4.1c0-.05.04-.1.1-.1h4.1c.05,0,.1.04.1.1v4.1c0,.05-.04.1-.1.1ZM14.47,18.44h3.9v-3.9h-3.9v3.9Z"/>
      </g>
      <g>
        <path class="cls-1" d="M18.73.1h-4.62c-.14,0-.26.12-.26.26v1.99h-.48c-.14,0-.26.12-.26.26s.12.26.26.26h.48v2.11c0,.14.12.26.26.26h2.15v1.83c0,.14.12.26.26.26s.26-.12.26-.26v-1.83h1.95c.14,0,.26-.12.26-.26V.36c0-.14-.12-.26-.26-.26ZM18.46,4.72h-1.95s0,0,0,0h0s-2.15,0-2.15,0V.62h4.1v4.1Z"/>
        <path class="cls-1" d="M16.51,7.44c-.2,0-.36-.16-.36-.36v-1.74h-2.05c-.2,0-.36-.16-.36-.36v-2.01h-.38c-.2,0-.36-.16-.36-.36s.16-.36.36-.36h.38V.36c0-.2.16-.36.36-.36h4.62c.2,0,.36.16.36.36v4.62c0,.2-.16.36-.36.36h-1.85v1.74c0,.2-.16.36-.36.36ZM13.37,2.45c-.09,0-.16.07-.16.16s.07.16.16.16h.48c.05,0,.1.04.1.1v2.11c0,.09.07.16.16.16h2.15c.05,0,.1.04.1.1v1.83c0,.09.07.16.16.16s.16-.07.16-.16v-1.83c0-.05.04-.1.1-.1h1.95c.09,0,.16-.07.16-.16V.36c0-.09-.07-.16-.16-.16h-4.62c-.09,0-.16.07-.16.16v1.99c0,.05-.04.1-.1.1h-.48ZM18.46,4.82h-4.1c-.05,0-.1-.04-.1-.1V.62c0-.05.04-.1.1-.1h4.1c.05,0,.1.04.1.1v4.1c0,.05-.04.1-.1.1ZM14.47,4.62h3.9V.72h-3.9v3.9Z"/>
      </g>
      <g>
        <path class="cls-1" d="M9.91,16.29h-2.1c-.14,0-.26.12-.26.26s.12.26.26.26h2.1c.14,0,.26-.12.26-.26s-.12-.26-.26-.26Z"/>
        <path class="cls-1" d="M9.91,16.91h-2.1c-.2,0-.36-.16-.36-.36s.16-.36.36-.36h2.1c.2,0,.36.16.36.36s-.16.36-.36.36ZM7.82,16.39c-.09,0-.16.07-.16.16s.07.16.16.16h2.1c.09,0,.16-.07.16-.16s-.07-.16-.16-.16h-2.1Z"/>
      </g>
      <g>
        <path class="cls-1" d="M5.72,16.29h-.48v-2.37h-2.41v-1.83c0-.14-.12-.26-.26-.26s-.26.12-.26.26v1.83H.1v5.14h5.14v-2.25h.48c.14,0,.26-.12.26-.26s-.12-.26-.26-.26Z"/>
        <path class="cls-1" d="M5.24,19.16H.1c-.05,0-.1-.04-.1-.1v-5.14c0-.05.04-.1.1-.1h2.11v-1.74c0-.2.16-.36.36-.36s.36.16.36.36v1.74h2.31c.05,0,.1.04.1.1v2.27h.38c.2,0,.36.16.36.36s-.16.36-.36.36h-.38v2.15c0,.05-.04.1-.1.1ZM.2,18.97h4.95v-2.15c0-.05.04-.1.1-.1h.48c.09,0,.16-.07.16-.16s-.07-.16-.16-.16h-.48c-.05,0-.1-.04-.1-.1v-2.27h-2.31c-.05,0-.1-.04-.1-.1v-1.83c0-.09-.07-.16-.16-.16s-.16.07-.16.16v1.83c0,.05-.04.1-.1.1H.2v4.95Z"/>
      </g>
      <g>
        <path class="cls-1" d="M16.51,11.53c.14,0,.26-.12.26-.26v-2.1c0-.14-.12-.26-.26-.26s-.26.12-.26.26v2.1c0,.14.12.26.26.26Z"/>
        <path class="cls-1" d="M16.51,11.63c-.2,0-.36-.16-.36-.36v-2.1c0-.2.16-.36.36-.36s.36.16.36.36v2.1c0,.2-.16.36-.36.36ZM16.51,9.01c-.09,0-.16.07-.16.16v2.1c0,.09.07.16.16.16s.16-.07.16-.16v-2.1c0-.09-.07-.16-.16-.16Z"/>
      </g>
      <g>
        <path class="cls-1" d="M11.27,2.35h-2.1c-.14,0-.26.12-.26.26s.12.26.26.26h2.1c.14,0,.26-.12.26-.26s-.12-.26-.26-.26Z"/>
        <path class="cls-1" d="M11.27,2.97h-2.1c-.2,0-.36-.16-.36-.36s.16-.36.36-.36h2.1c.2,0,.36.16.36.36s-.16.36-.36.36ZM9.17,2.45c-.09,0-.16.07-.16.16s.07.16.16.16h2.1c.09,0,.16-.07.16-.16s-.07-.16-.16-.16h-2.1Z"/>
      </g>
      <g>
        <path class="cls-1" d="M7.08,2.35h-1.83V.36c0-.14-.12-.26-.26-.26H.36C.22.1.1.22.1.36v4.62c0,.14.12.26.26.26h1.95v.56c0,.14.12.26.26.26s.26-.12.26-.26v-.56h2.15c.14,0,.26-.12.26-.26v-2.11h1.83c.14,0,.26-.12.26-.26s-.12-.26-.26-.26ZM4.72,4.72h-2.15s0,0,0,0c0,0,0,0,0,0H.62V.62h4.1v4.1Z"/>
        <path class="cls-1" d="M2.57,6.16c-.2,0-.36-.16-.36-.36v-.46H.36c-.2,0-.36-.16-.36-.36V.36c0-.2.16-.36.36-.36h4.62c.2,0,.36.16.36.36v1.89h1.74c.2,0,.36.16.36.36s-.16.36-.36.36h-1.74v2.01c0,.2-.16.36-.36.36h-2.05v.46c0,.2-.16.36-.36.36ZM.36.2c-.09,0-.16.07-.16.16v4.62c0,.09.07.16.16.16h1.95c.05,0,.1.04.1.1v.56c0,.09.07.16.16.16s.16-.07.16-.16v-.56c0-.05.04-.1.1-.1h2.15c.09,0,.16-.07.16-.16v-2.11c0-.05.04-.1.1-.1h1.83c.09,0,.16-.07.16-.16s-.07-.16-.16-.16h-1.83c-.05,0-.1-.04-.1-.1V.36c0-.09-.07-.16-.16-.16H.36ZM4.72,4.82H.62c-.05,0-.1-.04-.1-.1V.62c0-.05.04-.1.1-.1h4.1c.05,0,.1.04.1.1v4.1c0,.05-.04.1-.1.1ZM.72,4.62h3.9V.72H.72v3.9Z"/>
      </g>
      <g>
        <path class="cls-1" d="M2.57,10.25c.14,0,.26-.12.26-.26v-2.1c0-.14-.12-.26-.26-.26s-.26.12-.26.26v2.1c0,.14.12.26.26.26Z"/>
        <path class="cls-1" d="M2.57,10.35c-.2,0-.36-.16-.36-.36v-2.1c0-.2.16-.36.36-.36s.36.16.36.36v2.1c0,.2-.16.36-.36.36ZM2.57,7.73c-.09,0-.16.07-.16.16v2.1c0,.09.07.16.16.16s.16-.07.16-.16v-2.1c0-.09-.07-.16-.16-.16Z"/>
      </g>
    </g>
  </g>
</svg>