<?xml version="1.0" encoding="UTF-8"?>
<svg id="Layer_2" data-name="Layer 2" xmlns="http://www.w3.org/2000/svg" viewBox="0 0 19.29 17.3">
  <defs>
    <style>
      .cls-1 {
        fill: #1f1f1f;
      }
    </style>
  </defs>
  <g id="Object">
    <g>
      <g>
        <path class="cls-1" d="M6.07,12.51c-.07,0-.14-.03-.19-.08-.1-.1-.1-.27,0-.37,1.02-.97,2.35-1.5,3.76-1.5s2.73.53,3.75,1.49c.11.1.11.27.01.37-.1.11-.27.11-.37.01-.92-.87-2.12-1.35-3.39-1.35s-2.48.48-3.4,1.36c-.05.05-.12.07-.18.07Z"/>
        <path class="cls-1" d="M6.07,12.61c-.1,0-.19-.04-.26-.11-.07-.07-.1-.16-.1-.26,0-.1.04-.19.11-.25,1.04-.99,2.4-1.53,3.83-1.53s2.78.54,3.82,1.52c.07.07.11.16.11.25,0,.1-.03.19-.1.26-.14.14-.36.15-.51.01-.9-.85-2.08-1.32-3.32-1.32s-2.43.47-3.33,1.33c-.07.06-.16.1-.25.1ZM9.65,10.66c-1.38,0-2.69.52-3.69,1.47-.03.03-.05.07-.05.11,0,.04.01.09.05.12.06.06.17.07.23,0,.94-.89,2.17-1.38,3.47-1.38s2.52.49,3.46,1.37c.07.06.17.06.23,0,.03-.03.05-.07.04-.12,0-.04-.02-.08-.05-.11-1-.94-2.31-1.46-3.68-1.46Z"/>
      </g>
      <g>
        <path class="cls-1" d="M3.66,9.89c-.07,0-.14-.03-.19-.08-.1-.1-.1-.27,0-.37,1.67-1.59,3.87-2.47,6.17-2.47s4.48.87,6.15,2.45c.11.1.11.27.01.37-.1.1-.26.11-.37.01-1.57-1.49-3.63-2.3-5.79-2.3s-4.24.82-5.81,2.32c-.05.05-.12.07-.18.07Z"/>
        <path class="cls-1" d="M3.66,9.99c-.1,0-.19-.04-.26-.11-.07-.07-.1-.16-.1-.26,0-.1.04-.19.11-.25,1.69-1.61,3.91-2.49,6.24-2.49s4.53.88,6.22,2.47c.07.07.11.16.11.25,0,.1-.03.19-.1.26-.14.14-.36.15-.51.01-1.55-1.47-3.59-2.28-5.73-2.28s-4.19.81-5.75,2.29c-.07.06-.16.1-.25.1ZM9.66,7.07c-2.28,0-4.45.87-6.11,2.44-.03.03-.05.07-.05.11,0,.04.01.09.05.12.06.06.17.07.23,0,1.59-1.51,3.68-2.35,5.88-2.35s4.27.83,5.86,2.33c.07.06.17.06.23,0,.03-.03.05-.07.04-.12,0-.04-.02-.08-.05-.11-1.65-1.56-3.81-2.42-6.09-2.42Z"/>
      </g>
      <g>
        <path class="cls-1" d="M2,7.12c-.07,0-.14-.03-.19-.08-.1-.1-.1-.27,0-.37,2.12-2.02,4.91-3.13,7.84-3.13s5.7,1.1,7.82,3.11c.11.1.11.27.01.37-.1.1-.27.11-.37.01-2.02-1.91-4.67-2.96-7.46-2.96s-5.45,1.06-7.48,2.99c-.05.05-.12.07-.18.07Z"/>
        <path class="cls-1" d="M2,7.21c-.1,0-.19-.04-.26-.11-.07-.07-.1-.16-.1-.26,0-.1.04-.19.11-.25,2.14-2.04,4.95-3.16,7.91-3.16s5.74,1.11,7.88,3.13c.07.07.11.16.11.25,0,.1-.03.19-.1.26-.14.14-.37.15-.51.01-2-1.89-4.63-2.94-7.39-2.94s-5.41,1.05-7.41,2.96c-.07.06-.16.1-.25.1ZM9.66,3.63c-2.91,0-5.67,1.1-7.77,3.1-.03.03-.05.07-.05.11,0,.04.01.09.05.12.06.06.17.07.23,0,2.04-1.94,4.73-3.01,7.55-3.01s5.48,1.06,7.52,2.99c.07.06.17.06.23,0,.03-.03.05-.07.04-.12,0-.04-.02-.08-.05-.11-2.1-1.99-4.85-3.08-7.75-3.08Z"/>
      </g>
      <g>
        <path class="cls-1" d="M.36,4.34c-.07,0-.14-.03-.19-.08-.1-.1-.1-.27,0-.37C2.75,1.44,6.12.1,9.66.1s6.89,1.33,9.45,3.76c.11.1.11.27.01.37-.1.11-.27.11-.37.01C16.29,1.91,13.06.62,9.66.62S3.01,1.92.54,4.27c-.05.05-.12.07-.18.07Z"/>
        <path class="cls-1" d="M.36,4.44c-.1,0-.19-.04-.26-.11-.07-.07-.1-.16-.1-.26,0-.1.04-.19.11-.25C2.7,1.35,6.09,0,9.66,0s6.94,1.34,9.52,3.78c.07.07.11.16.11.25,0,.1-.03.19-.1.26-.14.14-.36.15-.51.01C16.24,1.99,13.03.72,9.66.72S3.06,2.01.61,4.34c-.07.06-.16.1-.25.1ZM9.66.2C6.14.2,2.8,1.53.25,3.96c-.03.03-.05.07-.05.11,0,.04.01.09.05.12.06.06.17.07.23,0C2.96,1.83,6.23.52,9.66.52s6.67,1.29,9.16,3.64c.07.06.17.06.23,0,.03-.03.05-.07.04-.12,0-.04-.02-.08-.05-.11C16.5,1.52,13.17.2,9.66.2Z"/>
      </g>
      <g>
        <path class="cls-1" d="M9.65,17.2c-.97,0-1.75-.79-1.75-1.75s.79-1.75,1.75-1.75,1.75.79,1.75,1.75-.79,1.75-1.75,1.75ZM9.65,14.22c-.68,0-1.23.55-1.23,1.23s.55,1.23,1.23,1.23,1.23-.55,1.23-1.23-.55-1.23-1.23-1.23Z"/>
        <path class="cls-1" d="M9.65,17.3c-1.02,0-1.85-.83-1.85-1.85s.83-1.85,1.85-1.85,1.85.83,1.85,1.85-.83,1.85-1.85,1.85ZM9.65,13.8c-.91,0-1.65.74-1.65,1.65s.74,1.65,1.65,1.65,1.65-.74,1.65-1.65-.74-1.65-1.65-1.65ZM9.65,16.78c-.73,0-1.33-.6-1.33-1.33s.59-1.33,1.33-1.33,1.33.6,1.33,1.33-.6,1.33-1.33,1.33ZM9.65,14.32c-.62,0-1.13.51-1.13,1.13s.51,1.13,1.13,1.13,1.13-.51,1.13-1.13-.51-1.13-1.13-1.13Z"/>
      </g>
    </g>
  </g>
</svg>