<?xml version="1.0" encoding="UTF-8"?>
<svg id="Layer_2" data-name="Layer 2" xmlns="http://www.w3.org/2000/svg" viewBox="0 0 19.24 19.59">
  <defs>
    <style>
      .cls-1 {
        fill: #1f1f1f;
      }
    </style>
  </defs>
  <g id="Object">
    <g>
      <g>
        <g>
          <path class="cls-1" d="M9.88.36c0-.14-.12-.26-.26-.26s-.26.12-.26.26v1.05c0,.14.12.26.26.26s.26-.12.26-.26V.36Z"/>
          <path class="cls-1" d="M9.62,1.77c-.2,0-.36-.16-.36-.36V.36c0-.2.16-.36.36-.36s.36.16.36.36v1.05c0,.2-.16.36-.36.36ZM9.62.2c-.09,0-.16.07-.16.16v1.05c0,.09.07.16.16.16s.16-.07.16-.16V.36c0-.09-.07-.16-.16-.16Z"/>
        </g>
        <g>
          <path class="cls-1" d="M9.88,3.27c0-.14-.12-.26-.26-.26s-.26.12-.26.26v1.86c0,.14.12.26.26.26s.26-.12.26-.26v-1.86Z"/>
          <path class="cls-1" d="M9.62,5.5c-.2,0-.36-.16-.36-.36v-1.86c0-.2.16-.36.36-.36s.36.16.36.36v1.86c0,.2-.16.36-.36.36ZM9.62,3.11c-.09,0-.16.07-.16.16v1.86c0,.09.07.16.16.16s.16-.07.16-.16v-1.86c0-.09-.07-.16-.16-.16Z"/>
        </g>
        <g>
          <path class="cls-1" d="M9.88,14.45c0-.14-.12-.26-.26-.26s-.26.12-.26.26v1.86c0,.14.12.26.26.26s.26-.12.26-.26v-1.86Z"/>
          <path class="cls-1" d="M9.62,16.68c-.2,0-.36-.16-.36-.36v-1.86c0-.2.16-.36.36-.36s.36.16.36.36v1.86c0,.2-.16.36-.36.36ZM9.62,14.29c-.09,0-.16.07-.16.16v1.86c0,.09.07.16.16.16s.16-.07.16-.16v-1.86c0-.09-.07-.16-.16-.16Z"/>
        </g>
        <g>
          <path class="cls-1" d="M9.88,10.73c0-.14-.12-.26-.26-.26s-.26.12-.26.26v1.86c0,.14.12.26.26.26s.26-.12.26-.26v-1.86Z"/>
          <path class="cls-1" d="M9.62,12.95c-.2,0-.36-.16-.36-.36v-1.86c0-.2.16-.36.36-.36s.36.16.36.36v1.86c0,.2-.16.36-.36.36ZM9.62,10.56c-.09,0-.16.07-.16.16v1.86c0,.09.07.16.16.16s.16-.07.16-.16v-1.86c0-.09-.07-.16-.16-.16Z"/>
        </g>
        <g>
          <path class="cls-1" d="M9.88,7c0-.14-.12-.26-.26-.26s-.26.12-.26.26v1.86c0,.14.12.26.26.26s.26-.12.26-.26v-1.86Z"/>
          <path class="cls-1" d="M9.62,9.22c-.2,0-.36-.16-.36-.36v-1.86c0-.2.16-.36.36-.36s.36.16.36.36v1.86c0,.2-.16.36-.36.36ZM9.62,6.84c-.09,0-.16.07-.16.16v1.86c0,.09.07.16.16.16s.16-.07.16-.16v-1.86c0-.09-.07-.16-.16-.16Z"/>
        </g>
        <g>
          <path class="cls-1" d="M9.62,17.92c-.14,0-.26.12-.26.26v1.05c0,.14.12.26.26.26s.26-.12.26-.26v-1.05c0-.14-.12-.26-.26-.26Z"/>
          <path class="cls-1" d="M9.62,19.59c-.2,0-.36-.16-.36-.36v-1.05c0-.2.16-.36.36-.36s.36.16.36.36v1.05c0,.2-.16.36-.36.36ZM9.62,18.02c-.09,0-.16.07-.16.16v1.05c0,.09.07.16.16.16s.16-.07.16-.16v-1.05c0-.09-.07-.16-.16-.16Z"/>
        </g>
      </g>
      <g>
        <g>
          <path class="cls-1" d="M6.17,13.39s.09-.01.13-.04c.08-.05.13-.13.13-.23v-6.71c0-.09-.05-.18-.13-.23-.08-.05-.18-.05-.26,0L.23,9.54c-.08.05-.13.13-.13.23s.05.18.13.23l5.81,3.35s.09.04.13.04ZM5.91,12.67L.88,9.77l5.02-2.9v5.8Z"/>
          <path class="cls-1" d="M6.17,13.48c-.06,0-.13-.02-.18-.05L.18,10.08c-.11-.06-.18-.18-.18-.31s.07-.25.18-.31l5.81-3.35c.11-.06.25-.06.36,0,.11.06.18.18.18.31v6.71c0,.13-.07.25-.18.31-.05.03-.12.05-.18.05ZM6.17,6.25s-.06,0-.08.02L.28,9.63c-.05.03-.08.08-.08.14s.03.11.08.14l5.81,3.35s.11.03.16,0c.05-.03.08-.08.08-.14v-6.71c0-.06-.03-.11-.08-.14-.03-.01-.05-.02-.08-.02ZM5.91,12.77s-.03,0-.05-.01L.84,9.86s-.05-.05-.05-.09.02-.07.05-.09l5.02-2.9s.07-.02.1,0c.03.02.05.05.05.09v5.8s-.02.07-.05.09c-.02,0-.03.01-.05.01ZM1.08,9.77l4.73,2.73v-5.46l-4.73,2.73Z"/>
        </g>
        <g>
          <path class="cls-1" d="M19.01,9.54l-5.81-3.35c-.08-.05-.18-.05-.26,0-.08.05-.13.13-.13.23v6.71c0,.09.05.18.13.23.04.02.09.04.13.04s.09-.01.13-.04l5.81-3.35c.08-.05.13-.13.13-.23s-.05-.18-.13-.23ZM13.33,12.67v-5.8l5.02,2.9-5.02,2.9Z"/>
          <path class="cls-1" d="M13.07,13.48c-.06,0-.13-.02-.18-.05-.11-.06-.18-.18-.18-.31v-6.71c0-.13.07-.25.18-.31.11-.06.25-.06.36,0l5.81,3.35c.11.06.18.18.18.31s-.07.25-.18.31l-5.81,3.35c-.05.03-.12.05-.18.05ZM13.07,6.25s-.06,0-.08.02c-.05.03-.08.08-.08.14v6.71c0,.06.03.11.08.14.05.03.11.03.16,0l5.81-3.35c.05-.03.08-.08.08-.14s-.03-.11-.08-.14h0l-5.81-3.35s-.05-.02-.08-.02ZM13.33,12.77s-.03,0-.05-.01c-.03-.02-.05-.05-.05-.09v-5.8s.02-.07.05-.09c.03-.02.07-.02.1,0l5.02,2.9s.05.05.05.09-.02.07-.05.09l-5.02,2.9s-.03.01-.05.01ZM13.43,7.04v5.46l4.73-2.73-4.73-2.73Z"/>
        </g>
      </g>
    </g>
  </g>
</svg>