<?xml version="1.0" encoding="UTF-8"?>
<svg id="Layer_2" data-name="Layer 2" xmlns="http://www.w3.org/2000/svg" viewBox="0 0 19.63 19.68">
  <defs>
    <style>
      .cls-1 {
        fill: #1f1f1f;
      }
    </style>
  </defs>
  <g id="Object">
    <g>
      <g>
        <path class="cls-1" d="M4.95.1H.36C.22.1.1.22.1.36v4.5c0,.14.12.26.26.26s.26-.12.26-.26V.62h4.32c.14,0,.26-.12.26-.26s-.12-.26-.26-.26Z"/>
        <path class="cls-1" d="M.36,5.22c-.2,0-.36-.16-.36-.36V.36c0-.2.16-.36.36-.36h4.59c.2,0,.36.16.36.36s-.16.36-.36.36H.72v4.14c0,.2-.16.36-.36.36ZM.36.2c-.09,0-.16.07-.16.16v4.5c0,.09.07.16.16.16s.16-.07.16-.16V.62c0-.05.04-.1.1-.1h4.32c.09,0,.16-.07.16-.16s-.07-.16-.16-.16H.36Z"/>
      </g>
      <g>
        <path class="cls-1" d="M19.27.14h-4.5c-.14,0-.26.12-.26.26s.12.26.26.26h4.24v4.32c0,.14.12.26.26.26s.26-.12.26-.26V.4c0-.14-.12-.26-.26-.26Z"/>
        <path class="cls-1" d="M19.27,5.35c-.2,0-.36-.16-.36-.36V.76h-4.14c-.2,0-.36-.16-.36-.36s.16-.36.36-.36h4.5c.2,0,.36.16.36.36v4.59c0,.2-.16.36-.36.36ZM14.77.24c-.09,0-.16.07-.16.16s.07.16.16.16h4.24c.05,0,.1.04.1.1v4.32c0,.09.07.16.16.16s.16-.07.16-.16V.4c0-.09-.07-.16-.16-.16h-4.5Z"/>
      </g>
      <g>
        <path class="cls-1" d="M19.27,14.56c-.14,0-.26.12-.26.26v4.24h-4.32c-.14,0-.26.12-.26.26s.12.26.26.26h4.59c.14,0,.26-.12.26-.26v-4.5c0-.14-.12-.26-.26-.26Z"/>
        <path class="cls-1" d="M19.27,19.68h-4.59c-.2,0-.36-.16-.36-.36s.16-.36.36-.36h4.23v-4.14c0-.2.16-.36.36-.36s.36.16.36.36v4.5c0,.2-.16.36-.36.36ZM14.69,19.15c-.09,0-.16.07-.16.16s.07.16.16.16h4.59c.09,0,.16-.07.16-.16v-4.5c0-.09-.07-.16-.16-.16s-.16.07-.16.16v4.24c0,.05-.04.1-.1.1h-4.32Z"/>
      </g>
      <g>
        <path class="cls-1" d="M4.86,19.01H.62v-4.32c0-.14-.12-.26-.26-.26s-.26.12-.26.26v4.59c0,.14.12.26.26.26h4.5c.14,0,.26-.12.26-.26s-.12-.26-.26-.26Z"/>
        <path class="cls-1" d="M4.86,19.63H.36c-.2,0-.36-.16-.36-.36v-4.59c0-.2.16-.36.36-.36s.36.16.36.36v4.23h4.14c.2,0,.36.16.36.36s-.16.36-.36.36ZM.36,14.52c-.09,0-.16.07-.16.16v4.59c0,.09.07.16.16.16h4.5c.09,0,.16-.07.16-.16s-.07-.16-.16-.16H.62c-.05,0-.1-.04-.1-.1v-4.32c0-.09-.07-.16-.16-.16Z"/>
      </g>
    </g>
  </g>
</svg>