<?xml version="1.0" encoding="UTF-8"?>
<svg id="Layer_2" data-name="Layer 2" xmlns="http://www.w3.org/2000/svg" viewBox="0 0 12.95 19.15">
  <defs>
    <style>
      .cls-1 {
        fill: #1f1f1f;
      }
    </style>
  </defs>
  <g id="Object">
    <g>
      <g>
        <path class="cls-1" d="M5.36,14.06V2.94c0-.34-.27-.61-.61-.61H1.8c-.31,0-.57.25-.57.57v13.31c0,.34.28.62.62.62h1.39c.14,0,.26-.12.26-.26h0c0-.14-.12-.26-.26-.26h-1.48V2.85h3.08v11.21c0,.14.12.26.26.26h0c.14,0,.26-.12.26-.26Z"/>
        <path class="cls-1" d="M3.24,16.92h-1.39c-.4,0-.72-.32-.72-.72V2.89c0-.37.3-.66.66-.66h2.95c.39,0,.71.32.71.71v11.13c0,.2-.16.36-.36.36s-.36-.16-.36-.36V2.95H1.86v13.25h1.38c.2,0,.36.16.36.36s-.16.36-.36.36ZM1.8,2.43c-.26,0-.47.21-.47.47v13.31c0,.29.23.52.52.52h1.39c.09,0,.16-.07.16-.16s-.07-.16-.16-.16h-1.48c-.05,0-.1-.04-.1-.1V2.85c0-.05.04-.1.1-.1h3.08c.05,0,.1.04.1.1v11.21c0,.09.07.16.16.16s.16-.07.16-.16V2.94c0-.28-.23-.51-.51-.51H1.8Z"/>
      </g>
      <g>
        <path class="cls-1" d="M12.85,11.63v-6.48c0-.31-.25-.55-.55-.55h-3.2c-.31,0-.55.25-.55.55v8.85c0,.31.25.55.55.55h1.17c.14,0,.26-.12.26-.26h0c0-.14-.12-.26-.26-.26h-1.2V5.12h3.25v6.51c0,.14.12.26.26.26h0c.14,0,.26-.12.26-.26Z"/>
        <path class="cls-1" d="M10.27,14.65h-1.17c-.36,0-.65-.29-.65-.65V5.15c0-.36.29-.65.65-.65h3.2c.36,0,.65.29.65.65v6.48c0,.2-.16.36-.36.36s-.36-.16-.36-.36v-6.41h-3.06v8.71h1.1c.2,0,.36.16.36.36s-.16.36-.36.36ZM9.1,4.7c-.25,0-.46.2-.46.46v8.85c0,.25.2.46.46.46h1.17c.09,0,.16-.07.16-.16s-.07-.16-.16-.16h-1.2c-.05,0-.1-.04-.1-.1V5.12c0-.05.04-.1.1-.1h3.25c.05,0,.1.04.1.1v6.51c0,.09.07.16.16.16s.16-.07.16-.16v-6.48c0-.25-.2-.46-.46-.46h-3.2Z"/>
      </g>
      <g>
        <path class="cls-1" d="M7.78,18.66V.49c0-.14-.12-.26-.26-.26h0c-.14,0-.26.12-.26.26v18.17c0,.14.12.26.26.26h0c.14,0,.26-.12.26-.26Z"/>
        <path class="cls-1" d="M7.52,19.02c-.2,0-.36-.16-.36-.36V.49c0-.2.16-.36.36-.36s.36.16.36.36v18.17c0,.2-.16.36-.36.36ZM7.52.33c-.09,0-.16.07-.16.16v18.17c0,.09.07.16.16.16s.16-.07.16-.16V.49c0-.09-.07-.16-.16-.16Z"/>
      </g>
      <g>
        <path class="cls-1" d="M.62,18.79V.36C.62.22.51.1.36.1H.36C.22.1.1.22.1.36v18.43c0,.14.12.26.26.26H.36c.14,0,.26-.12.26-.26Z"/>
        <path class="cls-1" d="M.36,19.15c-.2,0-.36-.16-.36-.36V.36c0-.2.16-.36.36-.36s.36.16.36.36v18.43c0,.2-.16.36-.36.36ZM.36.2c-.09,0-.16.07-.16.16v18.43c0,.09.07.16.16.16s.16-.07.16-.16V.36c0-.09-.07-.16-.16-.16Z"/>
      </g>
    </g>
  </g>
</svg>