<?xml version="1.0" encoding="UTF-8"?>
<svg id="Layer_2" data-name="Layer 2" xmlns="http://www.w3.org/2000/svg" viewBox="0 0 19.08 9.92">
  <defs>
    <style>
      .cls-1 {
        fill: #1f1f1f;
      }
    </style>
  </defs>
  <g id="Object">
    <g>
      <g>
        <path class="cls-1" d="M9.54,3.58c-3.29,0-5.97,2.68-5.97,5.97v.26h11.95v-.26c0-3.29-2.68-5.97-5.97-5.97ZM4.1,9.29c.14-2.88,2.53-5.19,5.44-5.19s5.31,2.3,5.44,5.19H4.1Z"/>
        <path class="cls-1" d="M15.52,9.92H3.57c-.05,0-.1-.04-.1-.1v-.26c0-3.35,2.72-6.07,6.07-6.07s6.07,2.72,6.07,6.07v.26c0,.05-.04.1-.1.1ZM3.66,9.72h11.75v-.16c0-3.24-2.64-5.88-5.88-5.88s-5.88,2.64-5.88,5.88v.16ZM14.98,9.39H4.1s-.05-.01-.07-.03c-.02-.02-.03-.05-.03-.07.14-2.96,2.58-5.28,5.54-5.28s5.4,2.32,5.54,5.28c0,.03,0,.05-.03.07-.02.02-.04.03-.07.03ZM4.2,9.19h10.68c-.19-2.81-2.51-4.99-5.34-4.99s-5.15,2.18-5.34,4.99Z"/>
      </g>
      <g>
        <g>
          <path class="cls-1" d="M9.28.36v2.08c0,.14.12.26.26.26s.26-.12.26-.26V.36c0-.14-.12-.26-.26-.26s-.26.12-.26.26Z"/>
          <path class="cls-1" d="M9.54,2.8c-.2,0-.36-.16-.36-.36V.36c0-.2.16-.36.36-.36s.36.16.36.36v2.08c0,.2-.16.36-.36.36ZM9.54.2c-.09,0-.16.07-.16.16v2.08c0,.09.07.16.16.16s.16-.07.16-.16V.36c0-.09-.07-.16-.16-.16Z"/>
        </g>
        <g>
          <path class="cls-1" d="M15.85,2.86l-1.47,1.47c-.1.1-.1.27,0,.37.05.05.12.08.19.08s.13-.03.19-.08l1.47-1.47c.1-.1.1-.27,0-.37-.1-.1-.27-.1-.37,0Z"/>
          <path class="cls-1" d="M14.56,4.88c-.1,0-.19-.04-.25-.11-.14-.14-.14-.37,0-.51l1.47-1.47c.14-.14.37-.14.51,0,.14.14.14.37,0,.51l-1.47,1.47c-.07.07-.16.11-.25.11ZM16.03,2.89s-.08.02-.12.05l-1.47,1.47c-.06.06-.06.17,0,.23.06.06.17.06.23,0l1.47-1.47s.05-.07.05-.12-.02-.09-.05-.12c-.03-.03-.07-.05-.12-.05Z"/>
        </g>
        <g>
          <path class="cls-1" d="M18.72,9.28h-2.08c-.14,0-.26.12-.26.26s.12.26.26.26h2.08c.14,0,.26-.12.26-.26s-.12-.26-.26-.26Z"/>
          <path class="cls-1" d="M18.72,9.9h-2.08c-.2,0-.36-.16-.36-.36s.16-.36.36-.36h2.08c.2,0,.36.16.36.36s-.16.36-.36.36ZM16.64,9.38c-.09,0-.16.07-.16.16s.07.16.16.16h2.08c.09,0,.16-.07.16-.16s-.07-.16-.16-.16h-2.08Z"/>
        </g>
        <g>
          <path class="cls-1" d="M2.44,9.28H.36c-.14,0-.26.12-.26.26s.12.26.26.26h2.08c.14,0,.26-.12.26-.26s-.12-.26-.26-.26Z"/>
          <path class="cls-1" d="M2.44,9.9H.36c-.2,0-.36-.16-.36-.36s.16-.36.36-.36h2.08c.2,0,.36.16.36.36s-.16.36-.36.36ZM.36,9.38c-.09,0-.16.07-.16.16s.07.16.16.16h2.08c.09,0,.16-.07.16-.16s-.07-.16-.16-.16H.36Z"/>
        </g>
        <g>
          <path class="cls-1" d="M4.52,4.78c.07,0,.13-.03.19-.08.1-.1.1-.27,0-.37l-1.47-1.47c-.1-.1-.27-.1-.37,0s-.1.27,0,.37l1.47,1.47c.05.05.12.08.19.08Z"/>
          <path class="cls-1" d="M4.52,4.88c-.1,0-.19-.04-.25-.11l-1.47-1.47c-.14-.14-.14-.37,0-.51.14-.14.37-.14.51,0l1.47,1.47c.14.14.14.37,0,.51-.07.07-.16.11-.25.11ZM3.05,2.89s-.08.02-.12.05c-.03.03-.05.07-.05.12s.02.08.05.12l1.47,1.47c.06.06.17.06.23,0,.06-.06.06-.17,0-.23l-1.47-1.47s-.07-.05-.12-.05Z"/>
        </g>
      </g>
    </g>
  </g>
</svg>