<?xml version="1.0" encoding="UTF-8"?>
<svg id="Layer_2" data-name="Layer 2" xmlns="http://www.w3.org/2000/svg" viewBox="0 0 19.5 19.5">
  <defs>
    <style>
      .cls-1 {
        fill: #1f1f1f;
      }
    </style>
  </defs>
  <g id="Object">
    <g>
      <g>
        <path class="cls-1" d="M9.75,19.4C4.43,19.4.1,15.07.1,9.75S4.43.1,9.75.1s9.65,4.33,9.65,9.65-4.33,9.65-9.65,9.65ZM9.75.62C4.72.62.62,4.72.62,9.75s4.1,9.13,9.13,9.13,9.13-4.1,9.13-9.13S14.79.62,9.75.62Z"/>
        <path class="cls-1" d="M9.75,19.5C4.37,19.5,0,15.13,0,9.75S4.37,0,9.75,0s9.75,4.37,9.75,9.75-4.37,9.75-9.75,9.75ZM9.75.2C4.48.2.2,4.48.2,9.75s4.29,9.55,9.55,9.55,9.55-4.29,9.55-9.55S15.02.2,9.75.2ZM9.75,18.98C4.66,18.98.52,14.84.52,9.75S4.66.52,9.75.52s9.23,4.14,9.23,9.23-4.14,9.23-9.23,9.23ZM9.75.72C4.77.72.72,4.77.72,9.75s4.05,9.03,9.03,9.03,9.03-4.05,9.03-9.03S14.73.72,9.75.72Z"/>
      </g>
      <g>
        <path class="cls-1" d="M9.94,14.15c-.06,0-.12-.02-.17-.06l-4.83-4.14c-.06-.05-.09-.12-.09-.2s.03-.15.09-.2l4.83-4.14c.08-.07.19-.08.28-.04.09.04.15.14.15.24v8.28c0,.1-.06.2-.15.24-.04.02-.07.02-.11.02ZM5.51,9.75l4.16,3.57v-7.14l-4.16,3.57Z"/>
        <path class="cls-1" d="M9.94,14.25c-.09,0-.17-.03-.23-.09l-4.83-4.14c-.08-.07-.13-.17-.13-.27s.05-.21.13-.27l4.83-4.14c.11-.09.26-.11.38-.05.13.06.21.19.21.33v8.28c0,.14-.08.27-.21.33-.05.02-.1.03-.15.03ZM9.94,5.45s-.08.01-.11.04l-4.83,4.14s-.06.08-.06.12.02.09.06.12l4.83,4.14s.12.05.18.02c.06-.03.1-.08.1-.15V5.61c0-.06-.04-.12-.1-.15-.02-.01-.05-.02-.07-.02ZM9.68,13.42s-.05,0-.06-.02l-4.16-3.57s-.03-.05-.03-.07.01-.06.03-.07l4.16-3.57s.07-.03.1-.01c.04.02.06.05.06.09v7.14s-.02.07-.06.09c-.01,0-.03,0-.04,0ZM5.66,9.75l3.91,3.36v-6.71l-3.91,3.36Z"/>
      </g>
      <g>
        <path class="cls-1" d="M12.2,14.39c-.14,0-.26-.12-.26-.26V5.61c0-.14.12-.26.26-.26s.26.12.26.26v8.52c0,.14-.12.26-.26.26Z"/>
        <path class="cls-1" d="M12.2,14.49c-.2,0-.36-.16-.36-.36V5.61c0-.2.16-.36.36-.36s.36.16.36.36v8.52c0,.2-.16.36-.36.36ZM12.2,5.45c-.09,0-.16.07-.16.16v8.52c0,.09.07.16.16.16s.16-.07.16-.16V5.61c0-.09-.07-.16-.16-.16Z"/>
      </g>
    </g>
  </g>
</svg>