<?xml version="1.0" encoding="UTF-8"?>
<svg id="Layer_2" data-name="Layer 2" xmlns="http://www.w3.org/2000/svg" viewBox="0 0 17.03 15.44">
  <defs>
    <style>
      .cls-1 {
        fill: #1f1f1f;
      }
    </style>
  </defs>
  <g id="Object">
    <g>
      <path class="cls-1" d="M16.89,6.52c.08-.12.04-.28-.08-.36l-2.29-1.48c-.12-.08-.28-.04-.36.07l-1.67,2.49v-3.68c0-.07-.03-.14-.08-.19L9.1.17s-.11-.07-.18-.07H.36C.22.1.1.22.1.36v14.72c0,.14.12.26.26.26h11.87c.14,0,.26-.12.26-.26v-1.58s0-.07-.02-.1v-.09l4.42-6.78ZM9.18.98l2.4,2.31h-2.14c-.14,0-.26-.12-.26-.26V.98ZM11.97,13.89v.93H.62V.62h8.04v2.93c0,.14.12.26.26.26h2.81s.05,0,.07-.01h.17v3.28h0v.93l-2.4,3.57s-.04.08-.04.12l-.2,2.16c-.01.17.13.3.29.28l2.35-.26ZM12.09,12.92h-.02v.02l-.22.33c-.04.07-.11.11-.19.12l-1.47.16c-.16.02-.31-.12-.29-.28l.13-1.39s.02-.09.04-.12l4.24-6.29c.08-.12.24-.15.36-.07l1.42.92c.12.08.16.24.08.36l-4.07,6.25Z"/>
      <path class="cls-1" d="M12.23,15.44H.36c-.2,0-.36-.16-.36-.36V.36c0-.2.16-.36.36-.36h8.56c.09,0,.18.04.25.1l3.31,3.19c.07.07.11.16.11.26v3.36l1.49-2.22c.11-.16.33-.21.49-.1l2.29,1.48c.08.05.14.13.16.23.02.09,0,.19-.05.27l-4.41,6.76v.04s.02.08.02.12v1.58c0,.2-.16.36-.36.36ZM.36.2c-.09,0-.16.07-.16.16v14.72c0,.09.07.16.16.16h11.87c.09,0,.16-.07.16-.16v-1.58s0-.04-.01-.06c0-.01,0-.03,0-.04v-.09s0-.04.02-.05l4.42-6.78h0s.03-.08.02-.12c0-.04-.03-.08-.07-.1l-2.29-1.48c-.07-.05-.18-.03-.22.05l-1.67,2.49s-.07.05-.11.04c-.04-.01-.07-.05-.07-.09v-3.68s-.02-.09-.05-.12L9.04.24s-.07-.05-.11-.05H.36ZM11.97,14.91H.62c-.05,0-.1-.04-.1-.1V.62c0-.05.04-.1.1-.1h8.04c.05,0,.1.04.1.1v2.93c0,.09.07.16.16.16h2.81s.03,0,.04,0c0,0,.02,0,.03,0h.17c.05,0,.1.04.1.1v4.21s0,.04-.02.05l-2.4,3.57s-.02.05-.03.08l-.2,2.16s.01.1.05.13c.03.03.08.05.13.05l2.35-.26s.06,0,.08.02.03.05.03.07v.93c0,.05-.04.1-.1.1ZM.72,14.72h11.15v-.72l-2.24.25c-.11,0-.21-.02-.29-.1-.08-.08-.12-.18-.11-.29l.2-2.16c0-.06.03-.12.06-.17l2.38-3.54V3.9h-.05s-.06.01-.08.01h-2.81c-.2,0-.36-.16-.36-.36V.72H.72v14ZM10.17,13.66c-.09,0-.18-.04-.25-.1-.08-.08-.12-.18-.11-.29l.13-1.39c0-.06.03-.12.06-.17l4.24-6.29c.11-.16.33-.21.49-.1l1.42.92c.08.05.14.13.16.23.02.09,0,.19-.05.27l-4.07,6.25s0,0-.01.01c0,0,0,0,0,.01l-.21.33c-.06.09-.16.15-.26.16l-1.48.16s-.03,0-.04,0ZM14.53,5.45c-.05,0-.1.03-.14.07l-4.24,6.29s-.03.05-.03.08l-.13,1.39s.01.1.05.13c.04.03.08.05.13.05l1.47-.16s.09-.03.12-.07l.21-.32s.02-.05.04-.06l4.06-6.22s.03-.08.02-.12c0-.04-.03-.08-.07-.1l-1.42-.92s-.06-.03-.09-.03ZM12.09,12.92h0,0ZM11.58,3.39h-2.14c-.2,0-.36-.16-.36-.36V.98s.02-.08.06-.09c.04-.02.08,0,.11.02l2.4,2.31s.04.07.02.11c-.02.04-.05.06-.09.06ZM9.28,1.21v1.82c0,.09.07.16.16.16h1.89l-2.06-1.98Z"/>
    </g>
  </g>
</svg>