<?xml version="1.0" encoding="UTF-8"?>
<svg id="Layer_2" data-name="Layer 2" xmlns="http://www.w3.org/2000/svg" viewBox="0 0 19.22 19.06">
  <defs>
    <style>
      .cls-1 {
        fill: #1f1f1f;
      }
    </style>
  </defs>
  <g id="Object">
    <g>
      <g>
        <path class="cls-1" d="M2.63,12.15C1.23,12.15.1,11.01.1,9.62s1.13-2.53,2.53-2.53,2.53,1.13,2.53,2.53-1.13,2.53-2.53,2.53ZM2.63,7.61c-1.1,0-2,.9-2,2s.9,2,2,2,2-.9,2-2-.9-2-2-2Z"/>
        <path class="cls-1" d="M2.63,12.24c-1.45,0-2.63-1.18-2.63-2.63s1.18-2.63,2.63-2.63,2.63,1.18,2.63,2.63-1.18,2.63-2.63,2.63ZM2.63,7.19c-1.34,0-2.43,1.09-2.43,2.43s1.09,2.43,2.43,2.43,2.43-1.09,2.43-2.43-1.09-2.43-2.43-2.43ZM2.63,11.72c-1.16,0-2.1-.94-2.1-2.1s.94-2.1,2.1-2.1,2.1.94,2.1,2.1-.94,2.1-2.1,2.1ZM2.63,7.71c-1.05,0-1.91.85-1.91,1.91s.85,1.91,1.91,1.91,1.91-.85,1.91-1.91-.86-1.91-1.91-1.91Z"/>
      </g>
      <g>
        <path class="cls-1" d="M16.59,5.15c-1.39,0-2.53-1.13-2.53-2.53S15.2.1,16.59.1s2.53,1.13,2.53,2.53-1.13,2.53-2.53,2.53ZM16.59.62c-1.1,0-2,.9-2,2s.9,2,2,2,2-.9,2-2-.9-2-2-2Z"/>
        <path class="cls-1" d="M16.59,5.25c-1.45,0-2.63-1.18-2.63-2.63s1.18-2.63,2.63-2.63,2.63,1.18,2.63,2.63-1.18,2.63-2.63,2.63ZM16.59.2c-1.34,0-2.43,1.09-2.43,2.43s1.09,2.43,2.43,2.43,2.43-1.09,2.43-2.43S17.93.2,16.59.2ZM16.59,4.73c-1.16,0-2.1-.94-2.1-2.1s.94-2.1,2.1-2.1,2.1.94,2.1,2.1-.94,2.1-2.1,2.1ZM16.59.72c-1.05,0-1.91.86-1.91,1.91s.85,1.91,1.91,1.91,1.91-.85,1.91-1.91-.86-1.91-1.91-1.91Z"/>
      </g>
      <g>
        <path class="cls-1" d="M16.59,18.96c-1.39,0-2.53-1.13-2.53-2.53s1.13-2.53,2.53-2.53,2.53,1.13,2.53,2.53-1.13,2.53-2.53,2.53ZM16.59,14.43c-1.1,0-2,.9-2,2s.9,2,2,2,2-.9,2-2-.9-2-2-2Z"/>
        <path class="cls-1" d="M16.59,19.06c-1.45,0-2.63-1.18-2.63-2.63s1.18-2.63,2.63-2.63,2.63,1.18,2.63,2.63-1.18,2.63-2.63,2.63ZM16.59,14c-1.34,0-2.43,1.09-2.43,2.43s1.09,2.43,2.43,2.43,2.43-1.09,2.43-2.43-1.09-2.43-2.43-2.43ZM16.59,18.53c-1.16,0-2.1-.94-2.1-2.1s.94-2.1,2.1-2.1,2.1.94,2.1,2.1-.94,2.1-2.1,2.1ZM16.59,14.53c-1.05,0-1.91.85-1.91,1.91s.85,1.91,1.91,1.91,1.91-.86,1.91-1.91-.86-1.91-1.91-1.91Z"/>
      </g>
      <g>
        <path class="cls-1" d="M4.65,8.87c-.1,0-.19-.05-.23-.14-.06-.13-.01-.29.12-.35L14.45,3.41c.13-.07.29-.01.35.12.06.13.01.29-.12.35l-9.92,4.96s-.08.03-.12.03Z"/>
        <path class="cls-1" d="M4.65,8.96c-.14,0-.26-.08-.32-.2-.09-.18-.02-.39.16-.48L14.41,3.32c.09-.04.18-.05.27-.02.09.03.17.09.21.18.09.18.02.39-.16.48l-9.92,4.96c-.05.03-.1.04-.16.04ZM14.57,3.48s-.05,0-.07.02l-9.92,4.96s-.07.05-.08.09c-.01.04-.01.09,0,.12.04.08.14.11.22.07L14.64,3.79s.07-.05.08-.09c.01-.04.01-.09,0-.12-.02-.04-.05-.07-.1-.08-.02,0-.03,0-.05,0Z"/>
      </g>
      <g>
        <path class="cls-1" d="M14.56,15.7s-.08,0-.11-.03l-9.81-4.79c-.13-.06-.18-.22-.12-.35.06-.13.22-.18.35-.12l9.81,4.79c.13.06.18.22.12.35-.05.09-.14.15-.24.15Z"/>
        <path class="cls-1" d="M14.56,15.8c-.06,0-.11-.01-.16-.04l-9.81-4.79c-.09-.04-.15-.12-.18-.21-.03-.09-.03-.19.02-.28.09-.18.3-.25.48-.17l9.82,4.79c.09.04.15.12.18.21s.03.19-.02.28c-.06.12-.19.2-.32.2ZM4.74,10.49c-.06,0-.12.03-.15.09-.02.04-.02.08,0,.13.01.04.04.07.08.09l9.81,4.79c.08.04.18,0,.22-.08.02-.04.02-.08,0-.13s-.04-.07-.08-.09l-9.81-4.79s-.05-.02-.07-.02Z"/>
      </g>
    </g>
  </g>
</svg>