<?xml version="1.0" encoding="UTF-8"?>
<svg id="Layer_2" data-name="Layer 2" xmlns="http://www.w3.org/2000/svg" viewBox="0 0 19.16 19.09">
  <defs>
    <style>
      .cls-1 {
        fill: #1f1f1f;
      }
    </style>
  </defs>
  <g id="Object">
    <g>
      <g>
        <path class="cls-1" d="M18.8.1h-4.62c-.14,0-.26.12-.26.26v1.95h-.56c-.14,0-.26.12-.26.26s.12.26.26.26h.56v2.15c0,.14.12.26.26.26h2.11v1.83c0,.14.12.26.26.26s.26-.12.26-.26v-1.83h1.99c.14,0,.26-.12.26-.26V.36c0-.14-.12-.26-.26-.26Z"/>
        <path class="cls-1" d="M16.55,7.44c-.2,0-.36-.16-.36-.36v-1.74h-2.01c-.2,0-.36-.16-.36-.36v-2.05h-.46c-.2,0-.36-.16-.36-.36s.16-.36.36-.36h.46V.36c0-.2.16-.36.36-.36h4.62c.2,0,.36.16.36.36v4.62c0,.2-.16.36-.36.36h-1.89v1.74c0,.2-.16.36-.36.36ZM13.37,2.41c-.09,0-.16.07-.16.16s.07.16.16.16h.56c.05,0,.1.04.1.1v2.15c0,.09.07.16.16.16h2.11c.05,0,.1.04.1.1v1.83c0,.09.07.16.16.16s.16-.07.16-.16v-1.83c0-.05.04-.1.1-.1h1.99c.09,0,.16-.07.16-.16V.36c0-.09-.07-.16-.16-.16h-4.62c-.09,0-.16.07-.16.16v1.95c0,.05-.04.1-.1.1h-.56Z"/>
      </g>
      <g>
        <path class="cls-1" d="M16.82,13.37c0-.14-.12-.26-.26-.26s-.26.12-.26.26v.48h-2.37v2.41h-1.83c-.14,0-.26.12-.26.26s.12.26.26.26h1.83v2.21h5.14v-5.14h-2.25v-.48ZM18.54,14.37v4.1h-4.1v-4.1h2.11s0,0,0,0h1.99Z"/>
        <path class="cls-1" d="M19.07,19.09h-5.14c-.05,0-.1-.04-.1-.1v-2.11h-1.74c-.2,0-.36-.16-.36-.36s.16-.36.36-.36h1.74v-2.31c0-.05.04-.1.1-.1h2.27v-.38c0-.2.16-.36.36-.36s.36.16.36.36v.38h2.15c.05,0,.1.04.1.1v5.14c0,.05-.04.1-.1.1ZM14.02,18.89h4.95v-4.95h-2.15c-.05,0-.1-.04-.1-.1v-.48c0-.09-.07-.16-.16-.16s-.16.07-.16.16v.48c0,.05-.04.1-.1.1h-2.27v2.31c0,.05-.04.1-.1.1h-1.83c-.09,0-.16.07-.16.16s.07.16.16.16h1.83c.05,0,.1.04.1.1v2.11ZM18.54,18.56h-4.1c-.05,0-.1-.04-.1-.1v-4.1c0-.05.04-.1.1-.1h4.1s.05.01.07.03c.02.02.03.04.03.07v4.1c0,.05-.04.1-.1.1ZM14.55,18.36h3.9v-3.9h-1.89s0,0,0,0h-2.01v3.9Z"/>
      </g>
      <g>
        <path class="cls-1" d="M16.55,11.53c.14,0,.26-.12.26-.26v-2.1c0-.14-.12-.26-.26-.26s-.26.12-.26.26v2.1c0,.14.12.26.26.26Z"/>
        <path class="cls-1" d="M16.55,11.63c-.2,0-.36-.16-.36-.36v-2.1c0-.2.16-.36.36-.36s.36.16.36.36v2.1c0,.2-.16.36-.36.36ZM16.55,9.01c-.09,0-.16.07-.16.16v2.1c0,.09.07.16.16.16s.16-.07.16-.16v-2.1c0-.09-.07-.16-.16-.16Z"/>
      </g>
      <g>
        <path class="cls-1" d="M11.27,2.31h-2.1c-.14,0-.26.12-.26.26s.12.26.26.26h2.1c.14,0,.26-.12.26-.26s-.12-.26-.26-.26Z"/>
        <path class="cls-1" d="M11.27,2.93h-2.1c-.2,0-.36-.16-.36-.36s.16-.36.36-.36h2.1c.2,0,.36.16.36.36s-.16.36-.36.36ZM9.17,2.41c-.09,0-.16.07-.16.16s.07.16.16.16h2.1c.09,0,.16-.07.16-.16s-.07-.16-.16-.16h-2.1Z"/>
      </g>
      <g>
        <path class="cls-1" d="M7.08,2.31h-1.83V.36c0-.14-.12-.26-.26-.26H.36C.22.1.1.22.1.36v4.62c0,.14.12.26.26.26h1.99v.48c0,.14.12.26.26.26s.26-.12.26-.26v-.48h2.11c.14,0,.26-.12.26-.26v-2.15h1.83c.14,0,.26-.12.26-.26s-.12-.26-.26-.26ZM4.72,2.57h0s0,0,0,0v2.15H.62V.62h4.1v1.95Z"/>
        <path class="cls-1" d="M2.61,6.08c-.2,0-.36-.16-.36-.36v-.38H.36c-.2,0-.36-.16-.36-.36V.36c0-.2.16-.36.36-.36h4.62c.2,0,.36.16.36.36v1.85h1.74c.2,0,.36.16.36.36s-.16.36-.36.36h-1.74v2.05c0,.2-.16.36-.36.36h-2.01v.38c0,.2-.16.36-.36.36ZM.36.2c-.09,0-.16.07-.16.16v4.62c0,.09.07.16.16.16h1.99c.05,0,.1.04.1.1v.48c0,.09.07.16.16.16s.16-.07.16-.16v-.48c0-.05.04-.1.1-.1h2.11c.09,0,.16-.07.16-.16v-2.15c0-.05.04-.1.1-.1h1.83c.09,0,.16-.07.16-.16s-.07-.16-.16-.16h-1.83c-.05,0-.1-.04-.1-.1V.36c0-.09-.07-.16-.16-.16H.36ZM4.72,4.82H.62c-.05,0-.1-.04-.1-.1V.62c0-.05.04-.1.1-.1h4.1c.05,0,.1.04.1.1v1.95h0v2.15c0,.05-.04.1-.1.1ZM.72,4.62h3.9v-2.04s0,0,0-.01V.72H.72v3.9ZM4.72,2.57h0,0Z"/>
      </g>
      <g>
        <path class="cls-1" d="M2.61,10.17c.14,0,.26-.12.26-.26v-2.1c0-.14-.12-.26-.26-.26s-.26.12-.26.26v2.1c0,.14.12.26.26.26Z"/>
        <path class="cls-1" d="M2.61,10.27c-.2,0-.36-.16-.36-.36v-2.1c0-.2.16-.36.36-.36s.36.16.36.36v2.1c0,.2-.16.36-.36.36ZM2.61,7.65c-.09,0-.16.07-.16.16v2.1c0,.09.07.16.16.16s.16-.07.16-.16v-2.1c0-.09-.07-.16-.16-.16Z"/>
      </g>
      <g>
        <path class="cls-1" d="M9.99,16.25h-2.1c-.14,0-.26.12-.26.26s.12.26.26.26h2.1c.14,0,.26-.12.26-.26s-.12-.26-.26-.26Z"/>
        <path class="cls-1" d="M9.99,16.87h-2.1c-.2,0-.36-.16-.36-.36s.16-.36.36-.36h2.1c.2,0,.36.16.36.36s-.16.36-.36.36ZM7.89,16.35c-.09,0-.16.07-.16.16s.07.16.16.16h2.1c.09,0,.16-.07.16-.16s-.07-.16-.16-.16h-2.1Z"/>
      </g>
      <g>
        <path class="cls-1" d="M5.8,16.25h-.56v-2.15c0-.14-.12-.26-.26-.26h-2.11v-1.83c0-.14-.12-.26-.26-.26s-.26.12-.26.26v1.83H.36c-.14,0-.26.12-.26.26v4.62c0,.14.12.26.26.26h4.62c.14,0,.26-.12.26-.26v-1.95h.56c.14,0,.26-.12.26-.26s-.12-.26-.26-.26ZM4.72,16.51h0s0,0,0,0v1.95H.62v-4.1h1.99s0,0,0,0h2.11v2.15Z"/>
        <path class="cls-1" d="M4.98,19.09H.36c-.2,0-.36-.16-.36-.36v-4.62c0-.2.16-.36.36-.36h1.89v-1.74c0-.2.16-.36.36-.36s.36.16.36.36v1.74h2.01c.2,0,.36.16.36.36v2.05h.46c.2,0,.36.16.36.36s-.16.36-.36.36h-.46v1.85c0,.2-.16.36-.36.36ZM.36,13.94c-.09,0-.16.07-.16.16v4.62c0,.09.07.16.16.16h4.62c.09,0,.16-.07.16-.16v-1.95c0-.05.04-.1.1-.1h.56c.09,0,.16-.07.16-.16s-.07-.16-.16-.16h-.56c-.05,0-.1-.04-.1-.1v-2.15c0-.09-.07-.16-.16-.16h-2.11c-.05,0-.1-.04-.1-.1v-1.83c0-.09-.07-.16-.16-.16s-.16.07-.16.16v1.83c0,.05-.04.1-.1.1H.36ZM4.72,18.56H.62c-.05,0-.1-.04-.1-.1v-4.1c0-.05.04-.1.1-.1h4.1c.05,0,.1.04.1.1v2.15h0v1.95c0,.05-.04.1-.1.1ZM.72,18.36h3.9v-1.84s0,0,0,0h0v-2.05H.72v3.9Z"/>
      </g>
    </g>
  </g>
</svg>