<?xml version="1.0" encoding="UTF-8"?>
<svg id="Layer_2" data-name="Layer 2" xmlns="http://www.w3.org/2000/svg" viewBox="0 0 19.33 19.39">
  <defs>
    <style>
      .cls-1 {
        fill: #1f1f1f;
      }
    </style>
  </defs>
  <g id="Object">
    <g>
      <g>
        <path class="cls-1" d="M13.48,17.85c.08.08.22.08.3,0l1.55-1.65c.08-.08.07-.21,0-.29-.08-.08-.21-.07-.29,0l-1.2,1.27v-2.92c0-.11-.09-.21-.21-.21s-.21.09-.21.21v2.94l-1.35-1.39c-.08-.08-.21-.08-.29,0h0c-.08.08-.08.21,0,.29l1.71,1.75Z"/>
        <path class="cls-1" d="M13.63,18.01c-.08,0-.16-.03-.22-.09h0l-1.71-1.75c-.06-.06-.09-.13-.09-.22,0-.08.03-.16.09-.21.12-.12.31-.11.43,0l1.18,1.22v-2.69c0-.17.14-.3.3-.3s.3.14.3.3v2.68l1.03-1.09c.11-.12.31-.13.43-.01.12.11.13.31.01.43l-1.55,1.65c-.06.06-.13.09-.22.1h0ZM13.55,17.79s.05.03.08.03h0s.06-.01.08-.03l1.55-1.65s.04-.11,0-.15c-.04-.04-.11-.04-.15,0l-1.2,1.27s-.07.04-.11.02c-.04-.01-.06-.05-.06-.09v-2.92c0-.06-.05-.11-.11-.11s-.11.05-.11.11v2.94s-.02.08-.06.09c-.04.02-.08,0-.11-.02l-1.35-1.39s-.06-.04-.08-.03c-.03,0-.05.01-.07.03-.04.04-.04.11,0,.15l1.71,1.75Z"/>
      </g>
      <g>
        <g>
          <path class="cls-1" d="M18.97,4.64h-3.23V.72c0-.34-.28-.62-.62-.62H3.95c-.34,0-.62.28-.62.62v3.92H.36c-.14,0-.26.12-.26.26s.12.26.26.26h2.97v.7c0,.14.12.26.26.26s.26-.12.26-.26v-.7h11.36v.7c0,.14.12.26.26.26s.26-.12.26-.26v-.7h3.23c.14,0,.26-.12.26-.26s-.12-.26-.26-.26ZM15.21,4.64H3.85V.62h11.36v4.02Z"/>
          <path class="cls-1" d="M15.47,6.22c-.2,0-.36-.16-.36-.36v-.6H3.95v.6c0,.2-.16.36-.36.36s-.36-.16-.36-.36v-.6H.36c-.2,0-.36-.16-.36-.36s.16-.36.36-.36h2.87V.72c0-.4.32-.72.72-.72h11.17c.4,0,.72.32.72.72v3.83h3.13c.2,0,.36.16.36.36s-.16.36-.36.36h-3.13v.6c0,.2-.16.36-.36.36ZM3.85,5.07h11.36c.05,0,.1.04.1.1v.7c0,.09.07.16.16.16s.16-.07.16-.16v-.7c0-.05.04-.1.1-.1h3.23c.09,0,.16-.07.16-.16s-.07-.16-.16-.16h-3.23c-.05,0-.1-.04-.1-.1V.72c0-.29-.23-.52-.52-.52H3.95c-.29,0-.52.23-.52.52v3.92c0,.05-.04.1-.1.1H.36c-.09,0-.16.07-.16.16s.07.16.16.16h2.97c.05,0,.1.04.1.1v.7c0,.09.07.16.16.16s.16-.07.16-.16v-.7c0-.05.04-.1.1-.1ZM15.21,4.74H3.85c-.05,0-.1-.04-.1-.1V.62c0-.05.04-.1.1-.1h11.36c.05,0,.1.04.1.1v4.02c0,.05-.04.1-.1.1ZM3.95,4.54h11.16V.72H3.95v3.82Z"/>
        </g>
        <g>
          <path class="cls-1" d="M16.87,7.35c-.14-.05-.29.02-.33.16l-1.96,5.36c-.35-.13-.73-.2-1.13-.2-1.19,0-2.24.63-2.82,1.58h-5.54l-2.38-6.74c-.05-.14-.2-.21-.33-.16s-.21.2-.16.33l2.45,6.92c.04.1.14.17.25.17h5.46c-.15.37-.23.78-.23,1.21,0,1.83,1.49,3.31,3.31,3.31s3.31-1.49,3.31-3.31c0-1.24-.69-2.33-1.7-2.89l1.97-5.41c.05-.14-.02-.29-.16-.33ZM16.23,15.98c0,1.54-1.25,2.79-2.79,2.79s-2.79-1.25-2.79-2.79,1.25-2.79,2.79-2.79,2.79,1.25,2.79,2.79Z"/>
          <path class="cls-1" d="M13.44,19.39c-1.88,0-3.41-1.53-3.41-3.41,0-.38.06-.75.19-1.11h-5.32c-.15,0-.29-.1-.34-.24l-2.45-6.92c-.03-.09-.03-.19.01-.28.04-.09.11-.15.2-.18.09-.03.19-.03.28.01.09.04.15.11.18.2l2.36,6.68h5.41c.63-.99,1.7-1.58,2.87-1.58.36,0,.72.06,1.07.18l1.93-5.27c.03-.09.1-.16.18-.2.09-.04.18-.05.28-.01h0c.09.03.16.1.21.18.04.09.05.18.01.28l-1.95,5.33c1.04.61,1.68,1.73,1.68,2.94,0,1.88-1.53,3.41-3.41,3.41ZM2.46,7.43s-.04,0-.05,0c-.04.01-.07.04-.09.08-.02.04-.02.08,0,.13l2.45,6.92c.02.07.09.11.15.11h5.46s.06.02.08.04c.02.03.02.06.01.09-.15.38-.22.77-.22,1.17,0,1.77,1.44,3.22,3.22,3.22s3.22-1.44,3.22-3.22c0-1.16-.63-2.24-1.65-2.81-.04-.02-.06-.07-.04-.12l1.98-5.41c.03-.08-.02-.18-.1-.21h0s-.09-.01-.12,0c-.04.02-.07.05-.08.09l-1.96,5.36s-.03.04-.05.06c-.02.01-.05.01-.08,0-.36-.13-.73-.2-1.1-.2-1.12,0-2.14.57-2.74,1.53-.02.03-.05.05-.08.05h-5.54s-.08-.03-.09-.07l-2.38-6.74s-.04-.07-.08-.09c-.02-.01-.05-.02-.07-.02ZM13.44,18.87c-1.59,0-2.89-1.3-2.89-2.89s1.3-2.89,2.89-2.89,2.89,1.3,2.89,2.89-1.3,2.89-2.89,2.89ZM13.44,13.29c-1.48,0-2.69,1.21-2.69,2.69s1.21,2.69,2.69,2.69,2.69-1.21,2.69-2.69-1.21-2.69-2.69-2.69Z"/>
        </g>
        <g>
          <path class="cls-1" d="M7.52,11.89v-4.37c0-.14-.12-.26-.26-.26s-.26.12-.26.26v4.37c0,.14.12.26.26.26s.26-.12.26-.26Z"/>
          <path class="cls-1" d="M7.26,12.25c-.2,0-.36-.16-.36-.36v-4.37c0-.2.16-.36.36-.36s.36.16.36.36v4.37c0,.2-.16.36-.36.36ZM7.26,7.36c-.09,0-.16.07-.16.16v4.37c0,.09.07.16.16.16s.16-.07.16-.16v-4.37c0-.09-.07-.16-.16-.16Z"/>
        </g>
        <g>
          <path class="cls-1" d="M9.88,9.53v-2.01c0-.14-.12-.26-.26-.26s-.26.12-.26.26v2.01c0,.14.12.26.26.26s.26-.12.26-.26Z"/>
          <path class="cls-1" d="M9.62,9.89c-.2,0-.36-.16-.36-.36v-2.01c0-.2.16-.36.36-.36s.36.16.36.36v2.01c0,.2-.16.36-.36.36ZM9.62,7.36c-.09,0-.16.07-.16.16v2.01c0,.09.07.16.16.16s.16-.07.16-.16v-2.01c0-.09-.07-.16-.16-.16Z"/>
        </g>
        <g>
          <path class="cls-1" d="M12.24,12.07v-4.54c0-.14-.12-.26-.26-.26s-.26.12-.26.26v4.54c0,.14.12.26.26.26s.26-.12.26-.26Z"/>
          <path class="cls-1" d="M11.98,12.43c-.2,0-.36-.16-.36-.36v-4.54c0-.2.16-.36.36-.36s.36.16.36.36v4.54c0,.2-.16.36-.36.36ZM11.98,7.36c-.09,0-.16.07-.16.16v4.54c0,.09.07.16.16.16s.16-.07.16-.16v-4.54c0-.09-.07-.16-.16-.16Z"/>
        </g>
      </g>
    </g>
  </g>
</svg>