<?xml version="1.0" encoding="UTF-8"?>
<svg id="Layer_2" data-name="Layer 2" xmlns="http://www.w3.org/2000/svg" viewBox="0 0 19.43 19.2">
  <defs>
    <style>
      .cls-1 {
        fill: #1f1f1f;
      }
    </style>
  </defs>
  <g id="Object">
    <g>
      <g>
        <path class="cls-1" d="M.36.1C.22.1.1.22.1.36v18.47c0,.14.12.26.26.26h18.71c.14,0,.26-.12.26-.26V.36c0-.14-.12-.26-.26-.26H.36ZM18.81,18.57H.62V.62h18.18v17.95Z"/>
        <path class="cls-1" d="M19.07,19.2H.36c-.2,0-.36-.16-.36-.36V.36c0-.2.16-.36.36-.36h18.71c.2,0,.36.16.36.36v18.47c0,.2-.16.36-.36.36ZM.36.2c-.09,0-.16.07-.16.16v18.47c0,.09.07.16.16.16h18.71c.09,0,.16-.07.16-.16V.36c0-.09-.07-.16-.16-.16H.36ZM18.81,18.67H.62c-.05,0-.1-.04-.1-.1V.62c0-.05.04-.1.1-.1h18.18c.05,0,.1.04.1.1v17.95c0,.05-.04.1-.1.1ZM.72,18.47h17.99V.72H.72v17.75Z"/>
      </g>
      <g>
        <path class="cls-1" d="M2.92,4.98h13.65c.14,0,.26-.12.26-.26s-.12-.26-.26-.26H2.92c-.14,0-.26.12-.26.26s.12.26.26.26Z"/>
        <path class="cls-1" d="M16.57,5.08H2.92c-.2,0-.36-.16-.36-.36s.16-.36.36-.36h13.65c.2,0,.36.16.36.36s-.16.36-.36.36ZM2.92,4.55c-.09,0-.16.07-.16.16s.07.16.16.16h13.65c.09,0,.16-.07.16-.16s-.07-.16-.16-.16H2.92Z"/>
      </g>
      <g>
        <path class="cls-1" d="M16.51,7.34c.14,0,.26-.12.26-.26s-.12-.26-.26-.26H2.94c-.14,0-.26.12-.26.26s.12.26.26.26h13.57Z"/>
        <path class="cls-1" d="M16.51,7.44H2.94c-.2,0-.36-.16-.36-.36s.16-.36.36-.36h13.57c.2,0,.36.16.36.36s-.16.36-.36.36ZM2.94,6.91c-.09,0-.16.07-.16.16s.07.16.16.16h13.57c.09,0,.16-.07.16-.16s-.07-.16-.16-.16H2.94Z"/>
      </g>
      <g>
        <path class="cls-1" d="M2.95,9.7h13.59c.14,0,.26-.12.26-.26s-.12-.26-.26-.26H2.95c-.14,0-.26.12-.26.26s.12.26.26.26Z"/>
        <path class="cls-1" d="M16.54,9.8H2.95c-.2,0-.36-.16-.36-.36s.16-.36.36-.36h13.59c.2,0,.36.16.36.36s-.16.36-.36.36ZM2.95,9.27c-.09,0-.16.07-.16.16s.07.16.16.16h13.59c.09,0,.16-.07.16-.16s-.07-.16-.16-.16H2.95Z"/>
      </g>
      <g>
        <path class="cls-1" d="M9.84,13.89H2.77c-.14,0-.26.12-.26.26s.12.26.26.26h7.07c.14,0,.26-.12.26-.26s-.12-.26-.26-.26Z"/>
        <path class="cls-1" d="M9.84,14.51H2.77c-.2,0-.36-.16-.36-.36s.16-.36.36-.36h7.07c.2,0,.36.16.36.36s-.16.36-.36.36ZM2.77,13.99c-.09,0-.16.07-.16.16s.07.16.16.16h7.07c.09,0,.16-.07.16-.16s-.07-.16-.16-.16H2.77Z"/>
      </g>
      <g>
        <path class="cls-1" d="M2.77,12.06h13.81c.14,0,.26-.12.26-.26s-.12-.26-.26-.26H2.77c-.14,0-.26.12-.26.26s.12.26.26.26Z"/>
        <path class="cls-1" d="M16.58,12.15H2.77c-.2,0-.36-.16-.36-.36s.16-.36.36-.36h13.81c.2,0,.36.16.36.36s-.16.36-.36.36ZM2.77,11.63c-.09,0-.16.07-.16.16s.07.16.16.16h13.81c.09,0,.16-.07.16-.16s-.07-.16-.16-.16H2.77Z"/>
      </g>
    </g>
  </g>
</svg>