<?xml version="1.0" encoding="UTF-8"?>
<svg id="Layer_2" data-name="Layer 2" xmlns="http://www.w3.org/2000/svg" viewBox="0 0 19.59 19.59">
  <defs>
    <style>
      .cls-1 {
        fill: #1f1f1f;
      }
    </style>
  </defs>
  <g id="Object">
    <g>
      <path class="cls-1" d="M19.23.1h-4.54s-.51,0-.51,0h0s-13.81,0-13.81,0C.22.1.1.22.1.36v18.87c0,.14.12.26.26.26h18.87c.14,0,.26-.12.26-.26V.36c0-.14-.12-.26-.26-.26ZM.62,18.97V.62h13.54v18.24s0,.07.02.1H.62ZM18.97,18.97h-4.3s.02-.07.02-.1V.62h4.28v18.35Z"/>
      <path class="cls-1" d="M19.23,19.59H.36c-.2,0-.36-.16-.36-.36V.36C0,.16.16,0,.36,0h13.81s.02,0,.02,0h.49s.02,0,.02,0h4.52c.2,0,.36.16.36.36v18.87c0,.2-.16.36-.36.36ZM.36.2c-.09,0-.16.07-.16.16v18.87c0,.09.07.16.16.16h18.87c.09,0,.16-.07.16-.16V.36c0-.09-.07-.16-.16-.16h-4.54s-.01,0-.02,0h-.49s-.02,0-.03,0H.36ZM18.97,19.07h-4.3s-.06-.02-.08-.04c-.02-.03-.02-.06,0-.09,0-.02.01-.04.01-.06V.62c0-.05.04-.1.1-.1h4.28c.05,0,.1.04.1.1v18.35c0,.05-.04.1-.1.1ZM14.79,18.87h4.08V.72h-4.08v18.14h0ZM14.19,19.07H.62c-.05,0-.1-.04-.1-.1V.62c0-.05.04-.1.1-.1h13.54c.05,0,.1.04.1.1v18.24s0,.04.01.06c.01.03.01.07,0,.09-.02.03-.05.04-.08.04ZM.72,18.87h13.34V.72H.72v18.15Z"/>
    </g>
  </g>
</svg>