<?xml version="1.0" encoding="UTF-8"?>
<svg id="Layer_2" data-name="Layer 2" xmlns="http://www.w3.org/2000/svg" viewBox="0 0 19.15 12.95">
  <defs>
    <style>
      .cls-1 {
        fill: #1f1f1f;
      }
    </style>
  </defs>
  <g id="Object">
    <g>
      <g>
        <path class="cls-1" d="M14.06,5.36H2.94c-.34,0-.61-.27-.61-.61V1.8c0-.31.25-.57.57-.57h13.31c.34,0,.62.28.62.62v1.39c0,.14-.12.26-.26.26h0c-.14,0-.26-.12-.26-.26v-1.48H2.85v3.08h11.21c.14,0,.26.12.26.26h0c0,.14-.12.26-.26.26Z"/>
        <path class="cls-1" d="M14.06,5.46H2.94c-.39,0-.71-.32-.71-.71V1.8c0-.37.3-.66.66-.66h13.31c.4,0,.72.32.72.72v1.39c0,.2-.16.36-.36.36s-.36-.16-.36-.36v-1.38H2.95v2.88h11.11c.2,0,.36.16.36.36s-.16.36-.36.36ZM2.89,1.33c-.26,0-.47.21-.47.47v2.95c0,.28.23.51.51.51h11.12c.09,0,.16-.07.16-.16s-.07-.16-.16-.16H2.85c-.05,0-.1-.04-.1-.1V1.76c0-.05.04-.1.1-.1h13.45c.05,0,.1.04.1.1v1.48c0,.09.07.16.16.16s.16-.07.16-.16v-1.39c0-.29-.23-.52-.52-.52H2.89Z"/>
      </g>
      <g>
        <path class="cls-1" d="M11.63,12.85h-6.48c-.31,0-.55-.25-.55-.55v-3.19c0-.31.25-.55.55-.55h8.85c.31,0,.55.25.55.55v1.17c0,.14-.12.26-.26.26h0c-.14,0-.26-.12-.26-.26v-1.2H5.12v3.25h6.51c.14,0,.26.12.26.26h0c0,.14-.12.26-.26.26Z"/>
        <path class="cls-1" d="M11.63,12.95h-6.48c-.36,0-.65-.29-.65-.65v-3.2c0-.36.29-.65.65-.65h8.85c.36,0,.65.29.65.65v1.17c0,.2-.16.36-.36.36s-.36-.16-.36-.36v-1.1H5.22v3.06h6.41c.2,0,.36.16.36.36s-.16.36-.36.36ZM5.15,8.65c-.25,0-.46.2-.46.46v3.2c0,.25.2.46.46.46h6.48c.09,0,.16-.07.16-.16s-.07-.16-.16-.16h-6.51c-.05,0-.1-.04-.1-.1v-3.25c0-.05.04-.1.1-.1h8.91c.05,0,.1.04.1.1v1.2c0,.09.07.16.16.16s.16-.07.16-.16v-1.17c0-.25-.2-.46-.46-.46H5.15Z"/>
      </g>
      <g>
        <path class="cls-1" d="M18.66,7.78H.49c-.14,0-.26-.12-.26-.26H.23c0-.14.12-.26.26-.26h18.17c.14,0,.26.12.26.26h0c0,.14-.12.26-.26.26Z"/>
        <path class="cls-1" d="M18.66,7.88H.49c-.2,0-.36-.16-.36-.36s.16-.36.36-.36h18.17c.2,0,.36.16.36.36s-.16.36-.36.36ZM.49,7.36c-.09,0-.16.07-.16.16s.07.16.16.16h18.17c.09,0,.16-.07.16-.16s-.07-.16-.16-.16H.49Z"/>
      </g>
      <g>
        <path class="cls-1" d="M18.79.62H.36C.22.62.1.51.1.36H.1C.1.22.22.1.36.1h18.43c.14,0,.26.12.26.26h0c0,.14-.12.26-.26.26Z"/>
        <path class="cls-1" d="M18.79.72H.36c-.2,0-.36-.16-.36-.36s.16-.36.36-.36h18.43c.2,0,.36.16.36.36s-.16.36-.36.36ZM.36.2c-.09,0-.16.07-.16.16s.07.16.16.16h18.43c.09,0,.16-.07.16-.16s-.07-.16-.16-.16H.36Z"/>
      </g>
    </g>
  </g>
</svg>