<?xml version="1.0" encoding="UTF-8"?>
<svg id="Layer_2" data-name="Layer 2" xmlns="http://www.w3.org/2000/svg" viewBox="0 0 15.02 19.43">
  <defs>
    <style>
      .cls-1 {
        fill: #1f1f1f;
      }
    </style>
  </defs>
  <g id="Object">
    <g>
      <path class="cls-1" d="M14.66,19.33c-.05,0-.1-.02-.15-.05l-7-4.76L.51,19.29c-.08.05-.18.06-.27.01-.09-.05-.14-.13-.14-.23V.36C.1.22.22.1.36.1h14.3c.14,0,.26.12.26.26v18.71c0,.1-.05.19-.14.23-.04.02-.08.03-.12.03ZM7.51,13.95c.05,0,.1.02.15.05l6.74,4.58V.62H.62v17.95l6.74-4.58s.1-.05.15-.05Z"/>
      <path class="cls-1" d="M.36,19.43c-.06,0-.12-.01-.17-.04-.12-.06-.19-.18-.19-.32V.36c0-.2.16-.36.36-.36h14.3c.2,0,.36.16.36.36v18.71c0,.13-.07.26-.19.32-.11.06-.26.05-.37-.02l-6.95-4.72L.56,19.37c-.06.04-.13.06-.2.06ZM7.51,14.43s.04,0,.06.02l7,4.76s.12.04.17,0c.05-.03.09-.08.09-.14V.36c0-.09-.07-.16-.16-.16H.36c-.09,0-.16.07-.16.16v18.71c0,.06.03.12.09.14.05.03.12.03.17,0l7-4.76s.04-.02.06-.02ZM14.4,18.67s-.04,0-.06-.02l-6.74-4.58c-.05-.04-.13-.04-.18,0L.68,18.65s-.07.02-.1,0c-.03-.02-.05-.05-.05-.09V.62c0-.05.04-.1.1-.1h13.78c.05,0,.1.04.1.1v17.95s-.02.07-.05.09c-.01,0-.03.01-.05.01ZM7.51,13.85c.07,0,.14.02.2.06l6.59,4.48V.72H.72v17.67l6.59-4.48c.06-.04.13-.06.2-.06Z"/>
    </g>
  </g>
</svg>