<?xml version="1.0" encoding="UTF-8"?>
<svg id="Layer_2" data-name="Layer 2" xmlns="http://www.w3.org/2000/svg" viewBox="0 0 19.03 14.36">
  <defs>
    <style>
      .cls-1 {
        fill: #1f1f1f;
      }
    </style>
  </defs>
  <g id="Object">
    <g>
      <path class="cls-1" d="M18.63,9.68c.18-.72.3-1.57.3-2.2,0-2.73-2.17-4.96-4.84-4.96-.32,0-.64.04-.97.11C12.25,1.06,10.64.1,8.88.1,6.62.1,4.66,1.69,4.14,3.92c-.12-.01-.24-.02-.35-.02C1.76,3.9.1,5.6.1,7.69c0,.97.37,2.71,1.05,3.43.05.05.12.08.19.08h3.08c-.01.1-.02.21-.02.32,0,.76.29,2.1.82,2.66.05.05.12.08.19.08h12.63c.09,0,.17-.04.22-.12.45-.67.66-2.06.66-2.79,0-.57-.12-1.1-.34-1.59.02-.02.03-.05.04-.08ZM1.46,10.67c-.48-.6-.84-2.03-.84-2.99,0-1.8,1.42-3.26,3.17-3.26.16,0,.32.02.51.05.14.02.28-.07.3-.21.39-2.11,2.18-3.64,4.27-3.64,1.63,0,3.11.93,3.87,2.43.06.11.18.17.3.14.35-.09.71-.14,1.05-.14,2.38,0,4.31,1.99,4.31,4.43,0,.46-.07,1.07-.18,1.63-.68-.97-1.8-1.61-3.06-1.61-.23,0-.47.02-.71.07-.68-1.19-1.92-1.93-3.27-1.93-1.74,0-3.25,1.21-3.67,2.92-.08,0-.15,0-.22,0-1.31,0-2.41.89-2.77,2.11H1.46ZM5.05,10.75c.31-.97,1.2-1.67,2.24-1.67.12,0,.24.01.38.03.14.02.28-.07.3-.21.29-1.58,1.64-2.73,3.21-2.73,1.23,0,2.34.7,2.9,1.82.06.11.18.17.3.14.27-.07.53-.1.78-.1,1.79,0,3.24,1.49,3.24,3.33,0,.72-.2,1.82-.51,2.38H5.53c-.35-.46-.61-1.53-.61-2.22,0-.11.01-.23.03-.34.03-.22.1-.43.1-.43Z"/>
      <path class="cls-1" d="M18.05,14.36H5.41c-.1,0-.19-.04-.26-.11-.55-.58-.85-1.96-.85-2.73,0-.07,0-.14,0-.22H1.34c-.1,0-.19-.04-.26-.11-.7-.74-1.08-2.51-1.08-3.5,0-2.14,1.7-3.88,3.79-3.88.09,0,.18,0,.27.01.57-2.25,2.53-3.82,4.81-3.82,1.76,0,3.4.96,4.29,2.52.31-.06.62-.09.92-.09,2.72,0,4.94,2.27,4.94,5.06,0,.64-.12,1.5-.3,2.23h0s-.01.04-.02.06c.22.5.33,1.04.33,1.58,0,.74-.22,2.15-.68,2.84-.07.1-.18.16-.3.16ZM3.79,4C1.81,4,.2,5.65.2,7.69c0,.96.36,2.66,1.02,3.36.03.03.07.05.12.05h3.08s.05.01.07.03c.02.02.03.05.02.08-.01.1-.02.21-.02.31,0,.74.28,2.05.79,2.6.03.03.07.05.12.05h12.63c.05,0,.11-.03.14-.07.44-.66.65-2.02.65-2.73,0-.53-.11-1.05-.33-1.55-.01-.03-.01-.07,0-.1.01-.02.02-.04.03-.05.18-.71.3-1.55.3-2.18,0-2.68-2.13-4.86-4.74-4.86-.31,0-.63.03-.95.1-.04,0-.09-.01-.11-.05C12.18,1.15,10.59.2,8.88.2,6.66.2,4.75,1.74,4.24,3.94c-.01.05-.05.08-.11.08-.12-.01-.23-.02-.34-.02ZM18.63,9.68h0,0ZM17.9,13.83H5.53s-.06-.01-.08-.04c-.37-.49-.63-1.59-.63-2.28,0-.11,0-.22.03-.35.03-.22.09-.43.1-.44.33-1.04,1.27-1.74,2.34-1.74.12,0,.25.01.4.04.09.01.17-.04.19-.13.3-1.63,1.69-2.81,3.3-2.81,1.26,0,2.41.72,2.99,1.88.03.07.11.1.19.09.27-.07.55-.11.81-.11,1.84,0,3.34,1.54,3.34,3.43,0,.71-.2,1.84-.52,2.43-.02.03-.05.05-.09.05ZM5.58,13.63h12.25c.28-.56.47-1.61.47-2.28,0-1.78-1.41-3.23-3.14-3.23-.25,0-.5.03-.76.1-.16.04-.34-.04-.41-.19-.55-1.09-1.63-1.77-2.81-1.77-1.52,0-2.83,1.12-3.11,2.65-.04.19-.22.32-.41.29-.13-.02-.25-.03-.37-.03-.98,0-1.84.64-2.15,1.6,0,0,0,0,0,0,0,0-.07.2-.09.41-.02.12-.02.23-.02.32,0,.64.24,1.66.56,2.12ZM5.05,10.75h0,0ZM4.52,10.77H1.46s-.06-.01-.08-.04c-.51-.64-.86-2.09-.86-3.05,0-1.85,1.47-3.36,3.27-3.36.16,0,.34.02.53.05.09.01.17-.04.19-.13.4-2.16,2.23-3.72,4.37-3.72,1.67,0,3.19.95,3.95,2.48.03.07.11.1.19.08.36-.09.72-.14,1.07-.14,2.43,0,4.41,2.03,4.41,4.53,0,.46-.07,1.07-.19,1.65,0,.04-.04.07-.08.08-.04,0-.08,0-.1-.04-.69-.98-1.8-1.57-2.97-1.57-.23,0-.46.02-.69.07-.04,0-.08-.01-.11-.05-.67-1.18-1.86-1.88-3.19-1.88-1.69,0-3.16,1.17-3.58,2.84-.01.05-.05.08-.1.07-.07,0-.14,0-.21,0-1.22,0-2.32.84-2.67,2.04-.01.04-.05.07-.09.07ZM1.51,10.57h2.94c.4-1.25,1.55-2.12,2.84-2.12.05,0,.1,0,.14,0,.47-1.72,1.99-2.91,3.75-2.91,1.38,0,2.61.71,3.32,1.92.22-.04.45-.06.66-.06,1.16,0,2.27.55,3,1.47.09-.5.14-1,.14-1.39,0-2.39-1.89-4.34-4.22-4.34-.33,0-.67.05-1.02.13-.16.04-.34-.04-.41-.19-.73-1.46-2.18-2.37-3.78-2.37-2.04,0-3.8,1.5-4.18,3.56-.04.19-.22.32-.41.29-.18-.03-.34-.05-.5-.05-1.69,0-3.07,1.42-3.07,3.16,0,.88.32,2.27.79,2.89Z"/>
    </g>
  </g>
</svg>