<?xml version="1.0" encoding="UTF-8"?>
<svg id="Layer_2" data-name="Layer 2" xmlns="http://www.w3.org/2000/svg" viewBox="0 0 17.58 10.93">
  <defs>
    <style>
      .cls-1 {
        fill: #1f1f1f;
      }
    </style>
  </defs>
  <g id="Object">
    <g>
      <g>
        <path class="cls-1" d="M17.22,2.97h-2.27V.36c0-.14-.12-.26-.26-.26H.36C.22.1.1.22.1.36v10.21c0,.14.12.26.26.26h14.33c.14,0,.26-.12.26-.26v-2.45h2.27c.14,0,.26-.12.26-.26V3.24c0-.14-.12-.26-.26-.26ZM14.42,10.31H.62V.62h13.8v9.69ZM16.96,7.6h-2.01V3.5h2.01v4.11Z"/>
        <path class="cls-1" d="M14.69,10.93H.36c-.2,0-.36-.16-.36-.36V.36c0-.2.16-.36.36-.36h14.33c.2,0,.36.16.36.36v2.52h2.17c.2,0,.36.16.36.36v4.63c0,.2-.16.36-.36.36h-2.17v2.35c0,.2-.16.36-.36.36ZM.36.2c-.09,0-.16.07-.16.16v10.21c0,.09.07.16.16.16h14.33c.09,0,.16-.07.16-.16v-2.45c0-.05.04-.1.1-.1h2.27c.09,0,.16-.07.16-.16V3.24c0-.09-.07-.16-.16-.16h-2.27c-.05,0-.1-.04-.1-.1V.36c0-.09-.07-.16-.16-.16H.36ZM14.42,10.41H.62c-.05,0-.1-.04-.1-.1V.62c0-.05.04-.1.1-.1h13.8c.05,0,.1.04.1.1v9.69c0,.05-.04.1-.1.1ZM.72,10.21h13.61V.72H.72v9.49ZM16.96,7.7h-2.01c-.05,0-.1-.04-.1-.1V3.5c0-.05.04-.1.1-.1h2.01c.05,0,.1.04.1.1v4.1c0,.05-.04.1-.1.1ZM15.05,7.5h1.81v-3.91h-1.81v3.91Z"/>
      </g>
      <g>
        <path class="cls-1" d="M2.89,2.19c-.14,0-.26.12-.26.26v5.94c0,.14.12.26.26.26s.26-.12.26-.26V2.45c0-.14-.12-.26-.26-.26Z"/>
        <path class="cls-1" d="M2.89,8.75c-.2,0-.36-.16-.36-.36V2.45c0-.2.16-.36.36-.36s.36.16.36.36v5.94c0,.2-.16.36-.36.36ZM2.89,2.28c-.09,0-.16.07-.16.16v5.94c0,.09.07.16.16.16s.16-.07.16-.16V2.45c0-.09-.07-.16-.16-.16Z"/>
      </g>
      <g>
        <path class="cls-1" d="M5.34,2.73c-.14,0-.26.12-.26.26v4.61c0,.14.12.26.26.26s.26-.12.26-.26V2.99c0-.14-.12-.26-.26-.26Z"/>
        <path class="cls-1" d="M5.34,7.96c-.2,0-.36-.16-.36-.36V2.99c0-.2.16-.36.36-.36s.36.16.36.36v4.61c0,.2-.16.36-.36.36ZM5.34,2.83c-.09,0-.16.07-.16.16v4.61c0,.09.07.16.16.16s.16-.07.16-.16V2.99c0-.09-.07-.16-.16-.16Z"/>
      </g>
    </g>
  </g>
</svg>