<?xml version="1.0" encoding="UTF-8"?>
<svg id="Layer_2" data-name="Layer 2" xmlns="http://www.w3.org/2000/svg" viewBox="0 0 19.79 17.76">
  <defs>
    <style>
      .cls-1 {
        fill: #1f1f1f;
      }
    </style>
  </defs>
  <g id="Object">
    <g>
      <g>
        <path class="cls-1" d="M.36.62h4.77l2.31,11.43v4.95c0,.14.12.26.26.26h6.88c.14,0,.26-.12.26-.26s-.12-.26-.26-.26h-6.62v-4.46h7.15c.09,0,.17-.05.22-.12l4.25-6.81c.05-.08.05-.18,0-.27-.05-.08-.13-.14-.23-.14H6.53L5.6.31c-.02-.12-.13-.21-.26-.21H.36C.22.1.1.22.1.36s.12.26.26.26ZM15.3,5.47h3.59l-1.03,1.65s-.02,0-.04,0h-2.53v-1.64ZM15.3,7.63h2.24l-1.31,2.1h-.93v-2.1ZM15.3,10.25h.61l-.61.97v-.97ZM7.51,9.77l-.43-2.14h3.63v2.1h-3.07s-.09.02-.13.04ZM11.24,5.47h3.54v1.64h-3.54v-1.64ZM11.24,7.63h3.54v2.1h-3.54v-2.1ZM11.24,11.71v-1.46h3.54v1.51h-3.55s0-.03,0-.05ZM7.91,11.76l-.31-1.51s.02,0,.04,0h3.07v1.46s0,.03,0,.05h-2.81ZM10.71,5.47v1.64h-3.74l-.33-1.64h4.07Z"/>
        <path class="cls-1" d="M14.58,17.36h-6.88c-.2,0-.36-.16-.36-.36v-4.95L5.04.72H.36c-.2,0-.36-.16-.36-.36s.16-.36.36-.36h4.98c.17,0,.32.12.35.29l.92,4.56h12.75c.13,0,.25.07.32.19.06.11.06.25,0,.37l-4.25,6.81c-.07.11-.18.17-.31.17h-7.05v4.26h6.52c.2,0,.36.16.36.36s-.16.36-.36.36ZM.36.2c-.09,0-.16.07-.16.16s.07.16.16.16h4.77s.09.03.1.08l2.31,11.43v4.97c0,.09.08.16.17.16h6.88c.09,0,.16-.07.16-.16s-.07-.16-.16-.16h-6.62c-.05,0-.1-.04-.1-.1v-4.46c0-.05.04-.1.1-.1h7.15c.06,0,.11-.03.14-.08l4.25-6.81c.03-.05.03-.11,0-.17-.03-.05-.08-.08-.14-.08H6.53s-.09-.03-.1-.08L5.5.33c-.02-.08-.08-.13-.16-.13H.36ZM14.77,11.86h-3.55s-.06-.01-.08-.04-.03-.05-.02-.08l.1-.02h-.09s0-.01,0-.01v-1.46c0-.05.04-.1.1-.1h3.54c.05,0,.1.04.1.1v1.51c0,.05-.04.1-.1.1ZM11.33,11.66h3.34v-1.31h-3.34v1.31ZM10.72,11.86h-2.81s-.09-.03-.1-.08l-.31-1.51s0-.06.02-.09c.02-.02.05-.04.09-.03,0,0,.02,0,.03,0h3.06c.05,0,.1.04.1.1v1.46s0,.03,0,.03c0,.03,0,.06-.02.08-.02.02-.05.04-.08.04ZM7.99,11.66h2.62v-1.31h-2.89l.27,1.31ZM15.3,11.32s-.02,0-.03,0c-.04-.01-.07-.05-.07-.09v-.97c0-.05.04-.1.1-.1h.61s.07.02.09.05.02.07,0,.1l-.61.97s-.05.05-.08.05ZM15.4,10.35v.53l.33-.53h-.33ZM7.51,9.87s-.03,0-.04,0c-.03-.01-.05-.04-.06-.07l-.43-2.14s0-.06.02-.08.05-.04.08-.04h3.63c.05,0,.1.04.1.1v2.1c0,.05-.04.1-.1.1h-3.07s-.05,0-.08.03c-.02,0-.03.01-.05.01ZM7.2,7.73l.39,1.91s.04,0,.06,0h2.97v-1.9h-3.42ZM16.23,9.83h-.93c-.05,0-.1-.04-.1-.1v-2.1c0-.05.04-.1.1-.1h2.24s.07.02.09.05.02.07,0,.1l-1.31,2.1s-.05.05-.08.05ZM15.4,9.63h.78l1.19-1.9h-1.97v1.9ZM14.77,9.83h-3.54c-.05,0-.1-.04-.1-.1v-2.1c0-.05.04-.1.1-.1h3.54c.05,0,.1.04.1.1v2.1c0,.05-.04.1-.1.1ZM11.33,9.63h3.34v-1.9h-3.34v1.9ZM17.86,7.21s0,0-.01,0c0,0-.02,0-.03,0h-2.53c-.05,0-.1-.04-.1-.1v-1.64c0-.05.04-.1.1-.1h3.59s.07.02.09.05c.02.03.02.07,0,.1l-1.03,1.65s-.05.05-.08.05ZM15.4,7.01h2.42l.9-1.44h-3.32v1.44ZM14.77,7.21h-3.54c-.05,0-.1-.04-.1-.1v-1.64c0-.05.04-.1.1-.1h3.54c.05,0,.1.04.1.1v1.64c0,.05-.04.1-.1.1ZM11.33,7.01h3.34v-1.44h-3.34v1.44ZM10.71,7.21h-3.74s-.09-.03-.1-.08l-.33-1.64s0-.06.02-.08c.02-.02.05-.04.08-.04h4.07c.05,0,.1.04.1.1v1.64c0,.05-.04.1-.1.1ZM7.05,7.01h3.56v-1.44h-3.85l.29,1.44Z"/>
      </g>
      <g>
        <path class="cls-1" d="M17,17.66c.14,0,.26-.12.26-.26v-2.16h2.16c.14,0,.26-.12.26-.26s-.12-.26-.26-.26h-2.16v-2.1c0-.14-.12-.26-.26-.26s-.26.12-.26.26v2.1h-2.16c-.14,0-.26.12-.26.26s.12.26.26.26h2.16v2.16c0,.14.12.26.26.26Z"/>
        <path class="cls-1" d="M17,17.76c-.2,0-.36-.16-.36-.36v-2.06h-2.06c-.2,0-.36-.16-.36-.36s.16-.36.36-.36h2.06v-2c0-.2.16-.36.36-.36s.36.16.36.36v2h2.06c.2,0,.36.16.36.36s-.16.36-.36.36h-2.06v2.06c0,.2-.16.36-.36.36ZM14.58,14.81c-.09,0-.16.07-.16.16s.07.16.16.16h2.16c.05,0,.1.04.1.1v2.16c0,.09.07.16.16.16s.16-.07.16-.16v-2.16c0-.05.04-.1.1-.1h2.16c.09,0,.16-.07.16-.16s-.07-.16-.16-.16h-2.16c-.05,0-.1-.04-.1-.1v-2.1c0-.09-.07-.16-.16-.16s-.16.07-.16.16v2.1c0,.05-.04.1-.1.1h-2.16Z"/>
      </g>
    </g>
  </g>
</svg>