<?xml version="1.0" encoding="UTF-8"?>
<svg id="Layer_2" data-name="Layer 2" xmlns="http://www.w3.org/2000/svg" viewBox="0 0 19.43 18.51">
  <defs>
    <style>
      .cls-1 {
        fill: #1f1f1f;
      }
    </style>
  </defs>
  <g id="Object">
    <g>
      <path class="cls-1" d="M3.93,18.42c-.05,0-.11-.02-.15-.05-.09-.07-.13-.19-.1-.29l2.15-6.62L.21,7.37c-.09-.07-.13-.19-.1-.29.03-.11.14-.18.25-.18h6.96L9.47.28c.04-.11.14-.18.25-.18s.21.07.25.18l2.15,6.62h6.96c.11,0,.21.07.25.18s0,.23-.1.29l-5.63,4.09,2.15,6.62c.03.11,0,.23-.1.29-.09.07-.22.07-.31,0l-5.63-4.09-5.63,4.09s-.1.05-.15.05ZM1.17,7.42l5.13,3.73c.09.07.13.19.1.29l-1.96,6.03,5.13-3.73c.09-.07.22-.07.31,0l5.13,3.73-1.96-6.03c-.04-.11,0-.23.1-.29l5.13-3.73h-6.34c-.11,0-.21-.07-.25-.18l-1.96-6.03-1.96,6.03c-.04.11-.14.18-.25.18H1.17Z"/>
      <path class="cls-1" d="M3.93,18.51c-.08,0-.15-.02-.21-.07-.13-.09-.18-.25-.13-.4l2.13-6.55L.15,7.45c-.13-.09-.18-.25-.13-.4.05-.15.19-.25.34-.25h6.88L9.37.25c.05-.15.19-.25.34-.25s.29.1.34.25l2.13,6.55h6.88c.16,0,.29.1.34.25s0,.31-.13.4l-5.57,4.05,2.13,6.55c.05.15,0,.31-.13.4-.13.09-.3.09-.42,0l-5.57-4.05-5.57,4.05c-.06.05-.14.07-.21.07ZM.36,6.99c-.07,0-.13.05-.16.11-.02.07,0,.14.06.18l5.63,4.09s.05.07.04.11l-2.15,6.62c-.02.07,0,.14.06.18.06.04.14.04.19,0l5.63-4.09s.08-.02.12,0l5.63,4.09c.06.04.13.04.19,0,.06-.04.08-.12.06-.18l-2.15-6.62s0-.08.04-.11l5.63-4.09c.06-.04.08-.12.06-.18-.02-.07-.08-.11-.16-.11h-6.96s-.08-.03-.09-.07L9.87.31c-.02-.07-.08-.11-.16-.11s-.13.05-.16.11l-2.15,6.62s-.05.07-.09.07H.36ZM15,17.57s-.04,0-.06-.02l-5.13-3.73c-.06-.04-.13-.04-.19,0l-5.13,3.73s-.08.03-.12,0c-.03-.02-.05-.07-.04-.11l1.96-6.03c.02-.07,0-.14-.06-.18L1.11,7.5s-.05-.07-.04-.11c.01-.04.05-.07.09-.07h6.34c.07,0,.13-.05.16-.11l1.96-6.03c.03-.08.16-.08.19,0l1.96,6.03c.02.07.08.11.16.11h6.34s.08.03.09.07c.01.04,0,.08-.04.11l-5.13,3.73c-.06.04-.08.12-.06.18l1.96,6.03s0,.08-.04.11c-.02.01-.04.02-.06.02ZM1.47,7.52l4.88,3.55c.13.09.18.25.13.4l-1.87,5.74,4.88-3.55c.13-.09.3-.09.42,0l4.88,3.55-1.87-5.74c-.05-.15,0-.31.13-.4l4.88-3.55h-6.04c-.16,0-.29-.1-.34-.25l-1.87-5.74-1.87,5.74c-.05.15-.19.25-.34.25H1.47Z"/>
    </g>
  </g>
</svg>