<?xml version="1.0" encoding="UTF-8"?>
<svg id="Layer_2" data-name="Layer 2" xmlns="http://www.w3.org/2000/svg" viewBox="0 0 18.84 14.84">
  <defs>
    <style>
      .cls-1 {
        fill: #1f1f1f;
      }
    </style>
  </defs>
  <g id="Object">
    <g>
      <g>
        <path class="cls-1" d="M3.24,10.04H.36c-.14,0-.26-.12-.26-.26v-5.33c0-.14.12-.26.26-.26h2.88c.14,0,.26.12.26.26v5.33c0,.14-.12.26-.26.26ZM.62,9.51h2.36v-4.8H.62v4.8Z"/>
        <path class="cls-1" d="M3.24,10.14H.36c-.2,0-.36-.16-.36-.36v-5.33c0-.2.16-.36.36-.36h2.88c.2,0,.36.16.36.36v5.33c0,.2-.16.36-.36.36ZM.36,4.28c-.09,0-.16.07-.16.16v5.33c0,.09.07.16.16.16h2.88c.09,0,.16-.07.16-.16v-5.33c0-.09-.07-.16-.16-.16H.36ZM2.98,9.61H.62c-.05,0-.1-.04-.1-.1v-4.8c0-.05.04-.1.1-.1h2.36c.05,0,.1.04.1.1v4.8c0,.05-.04.1-.1.1ZM.72,9.41h2.16v-4.61H.72v4.61Z"/>
      </g>
      <g>
        <path class="cls-1" d="M11.59,14.74s-.09-.01-.13-.03L3.12,10.02c-.13-.07-.17-.23-.1-.36s.23-.17.36-.1l7.95,4.47V.78l-7.97,3.92c-.13.06-.29.01-.35-.12-.06-.13-.01-.29.12-.35L11.47.13c.08-.04.18-.04.25.01.08.05.12.13.12.22v14.12c0,.09-.05.18-.13.23-.04.02-.09.04-.13.04Z"/>
        <path class="cls-1" d="M11.59,14.84c-.06,0-.12-.02-.18-.05L3.07,10.11c-.17-.1-.24-.32-.14-.49.05-.08.12-.14.22-.17.09-.03.19-.01.27.03l7.81,4.38V.94l-7.82,3.85c-.18.09-.39.01-.48-.16-.09-.18-.01-.39.16-.48L11.43.04c.11-.05.24-.05.35.02.11.07.17.18.17.31v14.12c0,.13-.07.25-.18.31-.05.03-.12.05-.18.05ZM3.24,9.63s-.03,0-.04,0c-.04.01-.08.04-.1.08-.04.08-.02.18.06.22l8.34,4.68s.11.03.16,0c.05-.03.08-.08.08-.14V.36c0-.06-.03-.11-.08-.14-.05-.03-.11-.03-.16,0L3.17,4.32c-.08.04-.11.14-.07.22.04.08.14.11.22.07L11.28.69s.07-.01.1,0c.03.02.05.05.05.08v13.25s-.02.07-.05.08c-.03.02-.07.02-.1,0l-7.95-4.47s-.05-.02-.08-.02Z"/>
      </g>
      <g>
        <path class="cls-1" d="M13.77,9.73c-.07,0-.13-.03-.19-.08-.1-.1-.1-.27,0-.37l4.72-4.72c.1-.1.27-.1.37,0s.1.27,0,.37l-4.72,4.72c-.05.05-.12.08-.19.08Z"/>
        <path class="cls-1" d="M13.77,9.83c-.1,0-.19-.04-.25-.11-.14-.14-.14-.37,0-.51l4.72-4.72c.14-.14.37-.14.51,0,.14.14.14.37,0,.51l-4.72,4.72c-.07.07-.16.11-.26.11ZM18.48,4.59s-.08.02-.12.05l-4.72,4.72c-.06.06-.06.17,0,.23.06.06.17.06.23,0l4.72-4.72c.06-.06.06-.17,0-.23-.03-.03-.07-.05-.12-.05Z"/>
      </g>
      <g>
        <path class="cls-1" d="M18.48,9.73c-.07,0-.13-.03-.19-.08l-4.72-4.72c-.1-.1-.1-.27,0-.37.1-.1.27-.1.37,0l4.72,4.72c.1.1.1.27,0,.37-.05.05-.12.08-.19.08Z"/>
        <path class="cls-1" d="M18.48,9.83c-.1,0-.19-.04-.25-.11l-4.72-4.72c-.14-.14-.14-.37,0-.51.14-.14.37-.14.51,0l4.72,4.72c.14.14.14.37,0,.51-.07.07-.16.11-.25.11ZM13.77,4.59s-.08.02-.12.05c-.06.06-.06.17,0,.23l4.72,4.72c.06.06.17.06.23,0,.06-.06.06-.17,0-.23l-4.72-4.72s-.07-.05-.12-.05Z"/>
      </g>
    </g>
  </g>
</svg>