<?xml version="1.0" encoding="UTF-8"?>
<svg id="Layer_2" data-name="Layer 2" xmlns="http://www.w3.org/2000/svg" viewBox="0 0 19.59 19.59">
  <defs>
    <style>
      .cls-1 {
        fill: #1f1f1f;
      }
    </style>
  </defs>
  <g id="Object">
    <g>
      <path class="cls-1" d="M.36.1C.22.1.1.22.1.36v18.87c0,.14.12.26.26.26h18.87c.14,0,.26-.12.26-.26V.36c0-.14-.12-.26-.26-.26H.36ZM9.8,18.97H.62V7.61s0,0,0,0h9.17v11.36ZM18.97,18.97h-8.65V7.61h8.65v11.36ZM18.97,7.09H.62s0,0,0,0V.62h18.35v6.46Z"/>
      <path class="cls-1" d="M19.23,19.59H.36c-.2,0-.36-.16-.36-.36V.36c0-.2.16-.36.36-.36h18.87c.2,0,.36.16.36.36v18.87c0,.2-.16.36-.36.36ZM.36.2c-.09,0-.16.07-.16.16v18.87c0,.09.07.16.16.16h18.87c.09,0,.16-.07.16-.16V.36c0-.09-.07-.16-.16-.16H.36ZM18.97,19.07h-8.65c-.05,0-.1-.04-.1-.1V7.61c0-.05.04-.1.1-.1h8.65c.05,0,.1.04.1.1v11.36c0,.05-.04.1-.1.1ZM10.42,18.87h8.45V7.71h-8.45v11.16ZM9.8,19.07H.62c-.05,0-.1-.04-.1-.1V7.61c0-.06.06-.11.12-.1h9.15c.05,0,.1.04.1.1v11.36c0,.05-.04.1-.1.1ZM.72,18.87h8.98V7.71H.72v11.16ZM18.97,7.19H.62c-.05,0-.1-.04-.1-.1V.62c0-.05.04-.1.1-.1h18.35c.05,0,.1.04.1.1v6.46c0,.05-.04.1-.1.1ZM.72.72v6.27h18.15V.72H.72Z"/>
    </g>
  </g>
</svg>