<?xml version="1.0" encoding="UTF-8"?>
<svg id="Layer_2" data-name="Layer 2" xmlns="http://www.w3.org/2000/svg" viewBox="0 0 19.5 19.5">
  <defs>
    <style>
      .cls-1 {
        fill: #1f1f1f;
      }
    </style>
  </defs>
  <g id="Object">
    <g>
      <g>
        <path class="cls-1" d="M9.76,19.41c-.27,0-.54-.01-.81-.03-2.57-.21-4.9-1.41-6.57-3.38C.72,14.02-.08,11.52.13,8.95c.21-2.57,1.41-4.9,3.38-6.57C5.48.72,7.98-.08,10.55.13c2.57.21,4.9,1.41,6.57,3.38,1.67,1.97,2.47,4.47,2.25,7.04-.16,1.88-.85,3.65-2,5.13-.09.11-.25.13-.37.05-.11-.09-.13-.25-.05-.37,1.09-1.4,1.74-3.07,1.89-4.85.2-2.43-.56-4.79-2.13-6.65-1.58-1.86-3.78-3-6.21-3.2-2.43-.2-4.79.56-6.65,2.13-1.86,1.58-3,3.78-3.2,6.21-.2,2.43.56,4.79,2.13,6.65,1.58,1.86,3.78,3,6.21,3.2,2.36.2,4.68-.52,6.52-2.02.11-.09.28-.07.37.04.09.11.07.28-.04.37-1.73,1.41-3.87,2.17-6.08,2.17Z"/>
        <path class="cls-1" d="M9.76,19.5c-.27,0-.55-.01-.82-.03-2.6-.22-4.95-1.43-6.64-3.42C.63,14.07-.18,11.54.03,8.95.25,6.35,1.46,3.99,3.45,2.31,5.44.63,7.97-.18,10.56.03c2.6.22,4.95,1.43,6.64,3.42,1.68,1.99,2.49,4.51,2.28,7.11-.16,1.9-.86,3.69-2.02,5.18-.12.16-.35.18-.51.06-.16-.12-.19-.35-.06-.51,1.08-1.38,1.72-3.04,1.87-4.8.2-2.4-.55-4.74-2.11-6.58-1.56-1.84-3.74-2.96-6.15-3.16-2.4-.2-4.74.55-6.58,2.11-1.84,1.56-2.96,3.74-3.16,6.15-.2,2.4.55,4.74,2.11,6.58,1.56,1.84,3.74,2.96,6.15,3.16,2.34.2,4.63-.51,6.45-2,.15-.13.38-.1.51.05.13.15.1.38-.05.51-1.73,1.41-3.92,2.19-6.15,2.19ZM9.73.2C7.48.2,5.32.99,3.58,2.46,1.63,4.11.44,6.42.23,8.96c-.21,2.54.58,5.02,2.23,6.96,1.65,1.95,3.96,3.14,6.5,3.35,2.46.2,4.92-.56,6.82-2.11.07-.06.08-.16.02-.23-.06-.07-.16-.08-.23-.02-1.86,1.52-4.2,2.24-6.59,2.04-2.46-.2-4.69-1.35-6.28-3.23-1.59-1.88-2.36-4.27-2.15-6.73.2-2.46,1.35-4.69,3.23-6.28C5.67,1.12,8.06.36,10.51.56c2.46.2,4.69,1.35,6.28,3.23,1.59,1.88,2.36,4.27,2.15,6.73-.15,1.79-.81,3.49-1.91,4.9-.06.07-.04.17.03.23.07.06.17.04.23-.03,1.14-1.46,1.82-3.22,1.98-5.08.21-2.54-.58-5.02-2.23-6.96C15.39,1.63,13.09.44,10.54.23c-.27-.02-.54-.03-.81-.03Z"/>
      </g>
      <g>
        <path class="cls-1" d="M9.75,12.04c-.06,0-.13,0-.19,0-1.26-.1-2.19-1.21-2.09-2.47.1-1.26,1.21-2.2,2.47-2.09,1.26.1,2.19,1.21,2.09,2.47-.1,1.19-1.1,2.1-2.27,2.1ZM9.75,7.99c-.42,0-.81.15-1.13.42-.36.3-.58.73-.62,1.2-.08.97.64,1.82,1.61,1.9.47.04.92-.11,1.28-.41.36-.3.58-.73.62-1.2.08-.97-.64-1.82-1.61-1.9-.05,0-.1,0-.15,0Z"/>
        <path class="cls-1" d="M9.75,12.14c-.07,0-.13,0-.2,0-1.31-.11-2.29-1.26-2.18-2.57.05-.64.35-1.21.84-1.63.49-.41,1.1-.6,1.73-.55.63.05,1.21.35,1.62.84s.61,1.1.56,1.74c-.1,1.23-1.14,2.19-2.37,2.19ZM9.74,7.56c-.51,0-1,.18-1.4.51-.45.38-.72.91-.77,1.49-.1,1.2.8,2.26,2,2.36,1.2.1,2.26-.81,2.36-2,.05-.58-.13-1.15-.51-1.59-.38-.45-.91-.72-1.49-.77-.06,0-.13,0-.19,0ZM9.75,11.61c-.05,0-.1,0-.16,0-1.02-.09-1.78-.98-1.7-2.01.04-.49.27-.94.65-1.26.38-.32.86-.48,1.35-.43,1.02.09,1.78.98,1.7,2.01-.04.49-.27.94-.65,1.27-.34.29-.76.44-1.2.44ZM9.75,8.09c-.39,0-.77.14-1.07.39-.34.29-.55.69-.58,1.13-.08.91.61,1.72,1.52,1.79.44.04.87-.1,1.21-.39.34-.29.55-.69.58-1.13.08-.91-.61-1.72-1.52-1.79-.05,0-.09,0-.14,0Z"/>
      </g>
      <g>
        <path class="cls-1" d="M5.53,9.66s-.01,0-.02,0c-.14-.01-.25-.14-.24-.28.1-1.2.66-2.28,1.58-3.06.92-.78,2.08-1.15,3.28-1.05.14.01.25.14.24.28-.01.14-.14.26-.28.24-2.17-.17-4.11,1.45-4.29,3.63-.01.14-.13.24-.26.24Z"/>
        <path class="cls-1" d="M5.53,9.76s-.03,0-.03,0c-.09,0-.18-.05-.24-.13-.06-.07-.09-.17-.08-.26.1-1.22.67-2.33,1.61-3.13.94-.8,2.13-1.18,3.35-1.07.2.02.35.19.33.39,0,.1-.06.19-.13.25-.07.06-.16.09-.26.08-2.12-.17-4,1.42-4.18,3.54-.02.19-.17.33-.36.33ZM9.74,5.35c-1.03,0-2.03.36-2.83,1.04-.9.76-1.44,1.82-1.54,2.99,0,.04,0,.09.04.12s.07.05.11.06v.1s.01-.1.01-.1c.08,0,.16-.07.16-.15.19-2.23,2.16-3.9,4.39-3.72.05,0,.08,0,.12-.03.03-.03.06-.07.06-.12,0-.09-.06-.17-.15-.18-.13-.01-.25-.02-.38-.02Z"/>
      </g>
      <g>
        <path class="cls-1" d="M3.03,9.46s-.01,0-.02,0c-.14-.01-.25-.14-.24-.28.32-3.85,3.71-6.72,7.57-6.41.14.01.25.14.24.28-.01.14-.14.25-.28.24-3.56-.3-6.7,2.36-7,5.93-.01.14-.13.24-.26.24Z"/>
        <path class="cls-1" d="M3.03,9.56s-.03,0-.03,0c-.2-.02-.34-.19-.33-.39.32-3.9,3.76-6.82,7.67-6.5.2.02.35.19.33.39-.02.2-.19.34-.39.33-1.7-.14-3.35.39-4.65,1.49-1.3,1.1-2.1,2.65-2.24,4.35-.02.19-.17.33-.36.33ZM9.75,2.84c-3.56,0-6.59,2.74-6.89,6.34,0,.09.06.17.15.18v.1s.01-.1.01-.1c.08,0,.16-.07.16-.15.15-1.75.97-3.34,2.31-4.48,1.34-1.14,3.05-1.68,4.8-1.54.09.01.17-.06.18-.15,0-.09-.06-.17-.15-.18-.19-.02-.38-.02-.57-.02Z"/>
      </g>
      <g>
        <path class="cls-1" d="M15.77,11.86c-.14,0-.26-.12-.26-.26v-.51c0-.14.12-.26.26-.26s.26.12.26.26v.51c0,.14-.12.26-.26.26Z"/>
        <path class="cls-1" d="M15.77,11.96c-.2,0-.36-.16-.36-.36v-.51c0-.2.16-.36.36-.36s.36.16.36.36v.51c0,.2-.16.36-.36.36ZM15.77,10.93c-.09,0-.16.07-.16.16v.51c0,.09.07.16.16.16s.16-.07.16-.16v-.51c0-.09-.07-.16-.16-.16Z"/>
      </g>
      <g>
        <path class="cls-1" d="M15.77,19.07c-.14,0-.26-.12-.26-.26v-4.51c0-.14.12-.26.26-.26s.26.12.26.26v4.51c0,.14-.12.26-.26.26Z"/>
        <path class="cls-1" d="M15.77,19.17c-.2,0-.36-.16-.36-.36v-4.51c0-.2.16-.36.36-.36s.36.16.36.36v4.51c0,.2-.16.36-.36.36ZM15.77,14.14c-.09,0-.16.07-.16.16v4.51c0,.09.07.16.16.16s.16-.07.16-.16v-4.51c0-.09-.07-.16-.16-.16Z"/>
      </g>
      <g>
        <path class="cls-1" d="M16.22,14.57h-.89c-.34,0-.62-.28-.62-.62v-1.86c0-.34.28-.62.62-.62h.89c.34,0,.62.28.62.62v1.86c0,.34-.28.62-.62.62ZM15.33,12c-.05,0-.09.04-.09.09v1.86c0,.05.04.09.09.09h.89c.05,0,.09-.04.09-.09v-1.86c0-.05-.04-.09-.09-.09h-.89Z"/>
        <path class="cls-1" d="M16.22,14.67h-.89c-.39,0-.72-.32-.72-.72v-1.86c0-.39.32-.72.72-.72h.89c.39,0,.72.32.72.72v1.86c0,.39-.32.72-.72.72ZM15.33,11.58c-.29,0-.52.23-.52.52v1.86c0,.29.23.52.52.52h.89c.29,0,.52-.23.52-.52v-1.86c0-.29-.23-.52-.52-.52h-.89ZM16.22,14.14h-.89c-.11,0-.19-.09-.19-.19v-1.86c0-.11.09-.19.19-.19h.89c.11,0,.19.09.19.19v1.86c0,.11-.09.19-.19.19ZM15.33,12.1v1.85h.89s0-1.86,0-1.86h-.88Z"/>
      </g>
    </g>
  </g>
</svg>