<?xml version="1.0" encoding="UTF-8"?>
<svg id="Layer_2" data-name="Layer 2" xmlns="http://www.w3.org/2000/svg" viewBox="0 0 13.79 19.42">
  <defs>
    <style>
      .cls-1 {
        fill: #1f1f1f;
      }
    </style>
  </defs>
  <g id="Object">
    <g>
      <g>
        <path class="cls-1" d="M13.16,4.68h-7.49c-.29,0-.53.24-.53.53v6.54H.62V.62h7.5v2.81c0,.14.12.26.26.26s.26-.12.26-.26V.36c0-.14-.12-.26-.26-.26H.36C.22.1.1.22.1.36v14.11c0,.14.12.26.26.26h4.67s.11,0,.11,0v4.06c0,.29.24.53.53.53h7.49c.29,0,.53-.24.53-.53V5.21c0-.29-.24-.53-.53-.53ZM13.17,5.21v11.13h-7.5V5.21h7.5ZM.62,14.21v-1.93h4.52v.7h-1.34c-.14,0-.26.12-.26.26s.12.26.26.26h1.34v.72H.62ZM5.67,18.8v-1.93h7.5v1.93h-7.5Z"/>
        <path class="cls-1" d="M13.16,19.42h-7.49c-.35,0-.63-.28-.63-.63v-3.96s-.01,0-.02,0H.36c-.2,0-.36-.16-.36-.36V.36c0-.2.16-.36.36-.36h8.03c.2,0,.36.16.36.36v3.07c0,.2-.16.36-.36.36s-.36-.16-.36-.36V.72H.72v10.94h4.32v-6.44c0-.35.28-.63.63-.63h7.49c.35,0,.63.28.63.63v13.58c0,.35-.28.63-.63.63ZM5.14,14.63s.05,0,.07.03c.02.02.03.04.03.07v4.06c0,.24.19.43.43.43h7.49c.24,0,.43-.19.43-.43V5.21c0-.24-.19-.43-.43-.43h-7.49c-.24,0-.43.19-.43.43v6.54c0,.05-.04.1-.1.1H.62c-.05,0-.1-.04-.1-.1V.62c0-.05.04-.1.1-.1h7.5c.05,0,.1.04.1.1v2.81c0,.09.07.16.16.16s.16-.07.16-.16V.36c0-.09-.07-.16-.16-.16H.36c-.09,0-.16.07-.16.16v14.11c0,.09.07.16.16.16h4.67s.11,0,.11,0c0,0,0,0,0,0ZM13.17,18.9h-7.5c-.05,0-.1-.04-.1-.1v-1.93c0-.05.04-.1.1-.1h7.5c.05,0,.1.04.1.1v1.93c0,.05-.04.1-.1.1ZM5.77,18.7h7.3v-1.74h-7.3v1.74ZM13.17,16.44h-7.5c-.05,0-.1-.04-.1-.1V5.21c0-.05.04-.1.1-.1h7.5c.05,0,.1.04.1.1v11.13c0,.05-.04.1-.1.1ZM5.77,16.24h7.3V5.31h-7.3v10.94ZM5.14,14.32H.62c-.05,0-.1-.05-.1-.11v-1.93c0-.05.04-.1.1-.1h4.52c.05,0,.1.04.1.1v.7c0,.05-.04.1-.1.1h-1.34c-.09,0-.16.07-.16.16s.07.16.16.16h1.34c.05,0,.1.04.1.1v.72s-.01.05-.03.07-.04.03-.07.03ZM.72,14.11h4.32s0-.51,0-.51h-1.24c-.2,0-.36-.16-.36-.36s.16-.36.36-.36h1.24v-.5H.72v1.74Z"/>
      </g>
      <g>
        <path class="cls-1" d="M9.99,17.57h-1.14c-.14,0-.26.12-.26.26s.12.26.26.26h1.14c.14,0,.26-.12.26-.26s-.12-.26-.26-.26Z"/>
        <path class="cls-1" d="M9.99,18.19h-1.14c-.2,0-.36-.16-.36-.36s.16-.36.36-.36h1.14c.2,0,.36.16.36.36s-.16.36-.36.36ZM8.85,17.66c-.09,0-.16.07-.16.16s.07.16.16.16h1.14c.09,0,.16-.07.16-.16s-.07-.16-.16-.16h-1.14Z"/>
      </g>
    </g>
  </g>
</svg>