<?xml version="1.0" encoding="UTF-8"?>
<svg id="Layer_2" data-name="Layer 2" xmlns="http://www.w3.org/2000/svg" viewBox="0 0 15.18 18.43">
  <defs>
    <style>
      .cls-1 {
        fill: #1f1f1f;
      }
    </style>
  </defs>
  <g id="Object">
    <g>
      <g>
        <g>
          <path class="cls-1" d="M8.48,6.79l-.47-.85c-.1-.18,0-.41.21-.45l.96-.19c.14-.03.28.06.31.21h0c.03.14-.06.28-.21.31l-.67.13.33.6c.07.13.02.29-.1.36h0c-.13.07-.29.02-.36-.1Z"/>
          <path class="cls-1" d="M8.71,7.02c-.13,0-.25-.07-.32-.19h0l-.47-.85c-.06-.11-.07-.25-.01-.37.06-.12.16-.2.29-.23l.96-.19c.09-.02.19,0,.27.05.08.05.13.13.15.23.04.19-.09.38-.28.42l-.53.11.26.48c.05.08.06.18.03.27-.03.09-.09.17-.17.22-.06.03-.11.05-.17.05ZM8.56,6.74c.04.08.14.11.22.06.04-.02.07-.06.08-.1.01-.04,0-.09-.01-.12l-.33-.59s-.02-.06,0-.09c.01-.03.04-.05.07-.06l.67-.13s.08-.03.1-.07c.02-.04.03-.08.02-.12,0-.04-.03-.08-.07-.1-.04-.02-.08-.03-.12-.02l-.96.19c-.07.01-.12.06-.15.12-.03.06-.03.13,0,.19l.47.85Z"/>
        </g>
        <g>
          <path class="cls-1" d="M5.74,12.94h0c-.03-.14.06-.28.21-.31l.32-.06c.17-.03.26-.23.18-.38l-.16-.28c-.07-.13-.02-.29.1-.36h0c.13-.07.29-.02.36.1l.42.77c.12.23,0,.51-.26.56l-.86.17c-.14.03-.28-.06-.31-.21Z"/>
          <path class="cls-1" d="M6,13.25c-.17,0-.32-.12-.35-.29h0c-.04-.19.09-.38.28-.42l.32-.06c.05-.01.09-.04.12-.09.02-.05.02-.1,0-.15l-.16-.28c-.05-.08-.06-.18-.03-.27.03-.09.09-.17.17-.22.08-.05.18-.06.27-.03.09.03.17.09.22.17l.42.77c.07.13.08.29.02.43-.06.14-.19.24-.34.27l-.86.17s-.05,0-.07,0ZM5.84,12.92c.02.09.1.15.19.13l.86-.17c.09-.02.16-.08.2-.16s.03-.18,0-.25l-.42-.77s-.06-.07-.1-.08c-.04-.01-.09,0-.12.01-.08.04-.11.14-.06.22l.16.28c.06.1.06.22.01.33-.05.11-.14.18-.26.2l-.32.06c-.09.02-.15.1-.13.19h0Z"/>
        </g>
        <g>
          <path class="cls-1" d="M6.93,12.9c-.73-.13-1.4-.47-1.94-.99-.94-.91-1.35-2.23-1.04-3.57.08-.33.2-.65.37-.95.53-.92,1.36-1.54,2.33-1.79.15-.04.3.06.33.21h0c.02.13-.06.26-.19.3-.58.15-1.1.45-1.52.88-.6.62-.92,1.43-.9,2.29s.36,1.66.98,2.26c.46.44,1.04.74,1.67.85l-.09.52Z"/>
          <path class="cls-1" d="M6.93,13s-.01,0-.02,0c-.75-.13-1.44-.49-1.99-1.02-.98-.94-1.38-2.31-1.07-3.67.08-.34.21-.67.38-.97.54-.93,1.39-1.58,2.39-1.84.1-.02.2,0,.29.05.09.05.14.14.16.24.03.18-.08.36-.26.41-.56.14-1.07.44-1.47.85-.58.6-.89,1.39-.87,2.22s.35,1.61.95,2.19c.45.43,1,.72,1.61.83.05,0,.09.06.08.11l-.09.52s-.02.05-.04.06c-.02.01-.04.02-.06.02ZM6.72,5.69s-.03,0-.04,0c-.95.25-1.76.87-2.27,1.75-.17.29-.29.6-.36.92-.29,1.29.09,2.59,1.02,3.48.5.48,1.11.81,1.79.95l.06-.32c-.61-.13-1.17-.42-1.62-.86-.64-.61-1-1.44-1.01-2.33-.02-.89.31-1.72.93-2.36.43-.44.97-.76,1.56-.91.08-.02.13-.1.11-.18,0-.05-.03-.08-.07-.11-.03-.02-.06-.03-.09-.03Z"/>
        </g>
        <g>
          <path class="cls-1" d="M8.2,12.63h0c-.02-.13.06-.26.19-.3.58-.15,1.1-.45,1.52-.88.6-.62.92-1.43.9-2.29-.02-.86-.36-1.66-.98-2.26-.46-.44-1.04-.74-1.67-.85l.09-.52c.73.13,1.4.47,1.94.99.94.91,1.35,2.23,1.04,3.57-.07.33-.2.65-.37.95-.53.92-1.36,1.54-2.33,1.79-.15.04-.3-.06-.33-.21Z"/>
          <path class="cls-1" d="M8.46,12.94c-.07,0-.14-.02-.2-.06-.09-.05-.14-.14-.16-.24h0c-.03-.18.08-.36.26-.41.56-.14,1.07-.44,1.47-.85.58-.6.89-1.39.87-2.22-.01-.83-.35-1.61-.95-2.19-.45-.43-1.01-.72-1.61-.83-.05,0-.09-.06-.08-.11l.09-.52s.02-.05.04-.06c.02-.01.05-.02.07-.02.75.13,1.44.49,1.99,1.02.98.94,1.38,2.31,1.07,3.67-.08.34-.21.67-.38.97-.54.93-1.39,1.58-2.39,1.84-.03,0-.06.01-.09.01ZM8.3,12.61s.03.08.07.11c.04.03.09.03.13.02.95-.25,1.76-.87,2.27-1.75.17-.29.29-.59.36-.92.29-1.29-.09-2.59-1.02-3.48-.5-.48-1.12-.81-1.79-.95l-.06.32c.61.13,1.17.42,1.62.86.64.61,1,1.44,1.01,2.33.02.89-.31,1.72-.93,2.36-.43.44-.97.76-1.56.91-.08.02-.13.1-.11.18h0Z"/>
        </g>
      </g>
      <g>
        <path class="cls-1" d="M7.12,18.19L.5,13.79c-.25-.17-.4-.44-.4-.74V2.33c0-.41.25-.78.63-.92l.07-.03c4.37-1.71,9.22-1.71,13.59,0l.29.11c.13.05.2.2.15.34h0c-.05.13-.2.2-.34.15l-.19-.07c-4.31-1.68-9.09-1.68-13.4,0h0c-.16.06-.27.22-.27.39v10.72c0,.14.07.27.19.35l6.55,4.35c.14.09.32.09.47,0l6.55-4.35c.12-.08.19-.21.19-.35v-5.71c0-.14.12-.26.26-.26h0c.14,0,.26.12.26.26v5.71c0,.31-.16.61-.42.78l-6.61,4.39c-.28.19-.65.19-.93,0Z"/>
        <path class="cls-1" d="M7.59,18.43c-.18,0-.36-.05-.52-.16L.44,13.87c-.28-.18-.44-.49-.44-.83V2.33c0-.45.27-.85.69-1.02l.07-.03c4.4-1.72,9.26-1.72,13.66,0l.29.11c.09.04.16.1.2.19.04.09.04.19,0,.28-.07.18-.28.28-.47.2l-.19-.07c-4.3-1.68-9.03-1.68-13.33,0-.12.05-.21.17-.21.3v10.72c0,.11.05.21.14.27l6.55,4.35c.11.07.25.07.36,0l6.55-4.35c.09-.06.14-.16.14-.27v-5.71c0-.2.16-.36.36-.36s.36.16.36.36v5.71c0,.35-.17.67-.46.87l-6.61,4.39c-.16.1-.34.16-.52.16ZM7.59.2C5.3.2,3.01.62.83,1.47l-.07.03c-.35.13-.57.46-.57.83v10.72c0,.27.13.51.35.66l6.63,4.4h0c.25.17.57.17.82,0l6.61-4.39c.24-.16.38-.42.38-.7v-5.71c0-.09-.07-.16-.16-.16s-.16.07-.16.16v5.71c0,.17-.09.34-.23.43l-6.55,4.35c-.17.12-.4.12-.57,0L.76,13.45c-.15-.1-.23-.26-.23-.43V2.3c0-.22.13-.41.33-.48,4.34-1.7,9.13-1.7,13.47,0l.19.07c.08.03.18,0,.21-.09.02-.04.02-.09,0-.13-.02-.04-.05-.07-.09-.09l-.29-.11C12.17.62,9.88.2,7.59.2Z"/>
      </g>
    </g>
  </g>
</svg>