<?xml version="1.0" encoding="UTF-8"?>
<svg id="Layer_2" data-name="Layer 2" xmlns="http://www.w3.org/2000/svg" viewBox="0 0 14.72 14.7">
  <defs>
    <style>
      .cls-1 {
        fill: #1f1f1f;
      }
    </style>
  </defs>
  <g id="Object">
    <g>
      <path class="cls-1" d="M11.22,7.2c2.06-2.87,3.03-5.52,3.39-6.36.06-.14,0-.29-.15-.34h0c-.13-.05-.28,0-.34.14-.75,1.75-5.43,12.52-13.22,13.16-.15.01-.28-.11-.28-.26V.36C.62.22.51.1.36.1H.36C.22.1.1.22.1.36v13.98c0,.14.12.26.26.26h13.98c.14,0,.26-.12.26-.26h0c0-.14-.12-.26-.26-.26H2.37c3.1-.75,6.13-3.09,8.85-6.88Z"/>
      <path class="cls-1" d="M14.34,14.7H.36c-.2,0-.36-.16-.36-.36V.36c0-.2.16-.36.36-.36s.36.16.36.36v13.17s.02.09.05.12c.03.03.08.05.12.04C8.14,13.09,12.78,3.51,14.03.59c.08-.18.28-.26.46-.19.09.04.16.11.2.2.04.09.04.19,0,.28-.04.1-.09.21-.15.35-.46,1.13-1.42,3.48-3.25,6.03h0c-2.51,3.49-5.34,5.8-8.22,6.72h11.26c.2,0,.36.16.36.36s-.16.36-.36.36ZM.36.2c-.09,0-.16.07-.16.16v13.98c0,.09.07.16.16.16h13.98c.09,0,.16-.07.16-.16s-.07-.16-.16-.16H2.37s-.09-.04-.1-.09c0-.05.03-.1.07-.11,3.07-.74,6.11-3.11,8.79-6.84h0c1.82-2.53,2.77-4.87,3.23-5.99.06-.14.11-.26.15-.36.02-.04.02-.09,0-.13-.02-.04-.05-.07-.09-.09-.08-.03-.18,0-.21.09-1.26,2.95-5.95,12.61-13.3,13.22-.1,0-.2-.03-.27-.09-.07-.07-.12-.17-.12-.27V.36c0-.09-.07-.16-.16-.16ZM11.22,7.2h0,0Z"/>
    </g>
  </g>
</svg>