<?xml version="1.0" encoding="UTF-8"?>
<svg id="Layer_2" data-name="Layer 2" xmlns="http://www.w3.org/2000/svg" viewBox="0 0 19.43 19.2">
  <defs>
    <style>
      .cls-1 {
        fill: #1f1f1f;
      }
    </style>
  </defs>
  <g id="Object">
    <g>
      <g>
        <g>
          <path class="cls-1" d="M.1.36v18.47c0,.14.12.26.26.26h18.71c.14,0,.26-.12.26-.26V.36c0-.14-.12-.26-.26-.26H.36C.22.1.1.22.1.36ZM.62.62h18.18v3.3H.62V.62ZM.62,4.44h18.18v14.13H.62V4.44Z"/>
          <path class="cls-1" d="M19.07,19.2H.36c-.2,0-.36-.16-.36-.36V.36c0-.2.16-.36.36-.36h18.71c.2,0,.36.16.36.36v18.47c0,.2-.16.36-.36.36ZM.36.2c-.09,0-.16.07-.16.16v18.47c0,.09.07.16.16.16h18.71c.09,0,.16-.07.16-.16V.36c0-.09-.07-.16-.16-.16H.36ZM18.81,18.67H.62c-.05,0-.1-.04-.1-.1V4.44c0-.05.04-.1.1-.1h18.18c.05,0,.1.04.1.1v14.13c0,.05-.04.1-.1.1ZM.72,18.47h17.99V4.54H.72v13.93ZM18.81,4.02H.62c-.05,0-.1-.04-.1-.1V.62c0-.05.04-.1.1-.1h18.18c.05,0,.1.04.1.1v3.3c0,.05-.04.1-.1.1ZM.72,3.82h17.99V.72H.72v3.1Z"/>
        </g>
        <g>
          <path class="cls-1" d="M2.19,1.43c-.48,0-.86.39-.86.86s.39.86.86.86.86-.39.86-.86-.39-.86-.86-.86ZM2.19,2.63c-.19,0-.34-.15-.34-.34s.15-.34.34-.34.34.15.34.34-.15.34-.34.34Z"/>
          <path class="cls-1" d="M2.19,3.26c-.53,0-.96-.43-.96-.96s.43-.96.96-.96.96.43.96.96-.43.96-.96.96ZM2.19,1.53c-.42,0-.76.34-.76.76s.34.76.76.76.76-.34.76-.76-.34-.76-.76-.76ZM2.19,2.73c-.24,0-.44-.2-.44-.44s.2-.44.44-.44.44.2.44.44-.2.44-.44.44ZM2.19,2.06c-.13,0-.24.11-.24.24s.11.24.24.24.24-.11.24-.24-.11-.24-.24-.24Z"/>
        </g>
        <g>
          <path class="cls-1" d="M4.37,1.43c-.48,0-.86.39-.86.86s.39.86.86.86.86-.39.86-.86-.39-.86-.86-.86ZM4.37,2.63c-.19,0-.34-.15-.34-.34s.15-.34.34-.34.34.15.34.34-.15.34-.34.34Z"/>
          <path class="cls-1" d="M4.37,3.26c-.53,0-.96-.43-.96-.96s.43-.96.96-.96.96.43.96.96-.43.96-.96.96ZM4.37,1.53c-.42,0-.76.34-.76.76s.34.76.76.76.76-.34.76-.76-.34-.76-.76-.76ZM4.37,2.73c-.24,0-.44-.2-.44-.44s.2-.44.44-.44.44.2.44.44-.2.44-.44.44ZM4.37,2.06c-.13,0-.24.11-.24.24s.11.24.24.24.24-.11.24-.24-.11-.24-.24-.24Z"/>
        </g>
        <g>
          <path class="cls-1" d="M6.55,1.43c-.48,0-.86.39-.86.86s.39.86.86.86.86-.39.86-.86-.39-.86-.86-.86ZM6.55,2.63c-.19,0-.34-.15-.34-.34s.15-.34.34-.34.34.15.34.34-.15.34-.34.34Z"/>
          <path class="cls-1" d="M6.55,3.26c-.53,0-.96-.43-.96-.96s.43-.96.96-.96.96.43.96.96-.43.96-.96.96ZM6.55,1.53c-.42,0-.76.34-.76.76s.34.76.76.76.76-.34.76-.76-.34-.76-.76-.76ZM6.55,2.73c-.24,0-.44-.2-.44-.44s.2-.44.44-.44.44.2.44.44-.2.44-.44.44ZM6.55,2.06c-.13,0-.24.11-.24.24s.11.24.24.24.24-.11.24-.24-.11-.24-.24-.24Z"/>
        </g>
      </g>
      <g>
        <g>
          <path class="cls-1" d="M11.51,13.12s-.07-.01-.09-.04l-3.58-3.58c-.05-.05-.05-.13,0-.19s.13-.05.19,0l3.58,3.58c.05.05.05.13,0,.19-.03.03-.06.04-.09.04Z"/>
          <path class="cls-1" d="M11.51,13.21c-.06,0-.12-.02-.16-.07l-3.58-3.58c-.09-.09-.09-.23,0-.32.09-.09.23-.09.32,0l3.58,3.58c.09.09.09.24,0,.32-.04.04-.1.07-.16.07ZM7.92,9.37s-.02,0-.02,0c-.01.01-.01.03,0,.05l3.58,3.58s.03.02.05,0c.01-.01.01-.03,0-.05l-3.58-3.58s-.01,0-.02,0Z"/>
        </g>
        <g>
          <path class="cls-1" d="M7.92,13.06s-.07-.01-.09-.04c-.05-.05-.05-.13,0-.19l3.58-3.58c.05-.05.13-.05.19,0,.05.05.05.13,0,.19l-3.58,3.58s-.06.04-.09.04Z"/>
          <path class="cls-1" d="M7.92,13.16c-.06,0-.12-.02-.16-.07-.09-.09-.09-.23,0-.32l3.58-3.58c.09-.09.23-.09.32,0,.09.09.09.23,0,.32l-3.58,3.58s-.1.07-.16.07ZM11.51,9.32s-.02,0-.02,0l-3.58,3.58s-.01.03,0,.05c.02.02.03.02.05,0l3.58-3.58s.01-.03,0-.05c0,0-.01,0-.02,0Z"/>
        </g>
      </g>
    </g>
  </g>
</svg>