<?xml version="1.0" encoding="UTF-8"?>
<svg id="Layer_2" data-name="Layer 2" xmlns="http://www.w3.org/2000/svg" viewBox="0 0 7.45 19.55">
  <defs>
    <style>
      .cls-1 {
        fill: #1f1f1f;
      }
    </style>
  </defs>
  <g id="Object">
    <g>
      <g>
        <path class="cls-1" d="M5.09,12.46l.04-12.12c0-.13-.11-.24-.24-.24h-2.23c-.13,0-.24.11-.24.24h0s0,.01,0,.01v12.09c-1.57.61-2.55,2.23-2.28,3.97.25,1.6,1.59,2.86,3.2,3.02,2.17.22,4.01-1.48,4.01-3.61,0-1.48-.91-2.81-2.27-3.36ZM3.73,18.92c-1.71,0-3.1-1.39-3.1-3.1,0-1.35,1.04-2.65,2.31-2.95l-.02-.03.04.03V.63h1.66s0,12.17,0,12.17c1.25.43,2.22,1.7,2.22,3.02,0,1.71-1.39,3.1-3.1,3.1Z"/>
        <path class="cls-1" d="M3.73,19.55c-.13,0-.26,0-.39-.02-1.65-.17-3.03-1.47-3.29-3.1-.28-1.74.66-3.4,2.27-4.05V.35s0-.03,0-.04c.02-.18.16-.31.33-.31h2.23c.09,0,.17.03.24.1.06.06.1.15.1.24l-.04,12.05c1.38.59,2.27,1.92,2.27,3.43,0,1.05-.45,2.06-1.23,2.77-.69.63-1.57.96-2.49.96ZM2.52.37v12.07s-.03.08-.06.09C.89,13.13-.02,14.72.24,16.39c.24,1.54,1.56,2.78,3.12,2.94,1.01.1,1.98-.21,2.73-.89.74-.67,1.17-1.62,1.17-2.62,0-1.45-.87-2.73-2.21-3.27-.04-.02-.06-.05-.06-.09l.04-12.12s-.01-.07-.04-.1c-.03-.03-.06-.04-.1-.04h-2.23c-.08,0-.14.06-.14.14,0,.01,0,.02,0,.03ZM3.73,19.02c-1.77,0-3.2-1.44-3.2-3.2,0-1.34,1.02-2.67,2.29-3.02,0-.01.01-.02.02-.03,0,0,0,0,.01,0V.63c0-.05.04-.1.1-.1h1.66s0,0,0,0c.03,0,.05.01.07.03s.03.04.03.07v12.1c1.28.48,2.23,1.79,2.23,3.09,0,1.77-1.44,3.2-3.2,3.2ZM2.98,12.95s-.02,0-.03.01c-1.23.29-2.23,1.57-2.23,2.86,0,1.66,1.35,3.01,3.01,3.01s3.01-1.35,3.01-3.01c0-1.24-.93-2.5-2.16-2.93-.04-.01-.07-.05-.07-.09V.72s-1.47,0-1.47,0v12.13s-.02.07-.05.09c0,0,0,0-.01,0Z"/>
      </g>
      <g>
        <path class="cls-1" d="M5.94,15.56c-.13,0-.25.1-.26.23-.13,1.32-1.4,1.75-1.93,1.87-.13.03-.22.15-.2.29h0c.02.15.16.26.31.23.89-.2,2.19-.86,2.34-2.32.02-.15-.11-.29-.26-.29Z"/>
        <path class="cls-1" d="M3.81,18.28c-.07,0-.14-.02-.2-.06-.08-.06-.14-.15-.15-.25-.02-.19.09-.36.27-.4.52-.12,1.73-.53,1.86-1.78.02-.18.17-.32.36-.32.1,0,.2.04.27.12.07.08.1.18.09.28-.15,1.41-1.34,2.17-2.42,2.41-.03,0-.05,0-.08,0ZM5.94,15.66c-.08,0-.15.06-.16.14-.14,1.38-1.45,1.83-2.01,1.95-.08.02-.13.1-.12.18,0,.05.03.09.07.12.04.03.08.03.12.03,1-.22,2.13-.93,2.26-2.24,0-.05-.01-.09-.04-.13-.03-.03-.08-.06-.12-.06Z"/>
      </g>
    </g>
  </g>
</svg>