<?xml version="1.0" encoding="UTF-8"?>
<svg id="Layer_2" data-name="Layer 2" xmlns="http://www.w3.org/2000/svg" viewBox="0 0 8.97 19.36">
  <defs>
    <style>
      .cls-1 {
        fill: #1f1f1f;
      }
    </style>
  </defs>
  <g id="Object">
    <g>
      <path class="cls-1" d="M8.75,12.9c-.12-.08-.28-.05-.36.07l-3.49,5.18V.36c0-.14-.12-.26-.26-.26s-.26.12-.26.26v17.86L.57,13.17c-.09-.12-.25-.14-.37-.05-.12.09-.14.25-.05.37l4.27,5.68s0,0,.01.01c.02.02.04.04.06.05,0,0,.02.01.03.02.03.02.07.03.11.03h0s.06,0,.09-.02c0,0,.01,0,.02,0,.03-.01.05-.03.07-.05,0,0,0,0,0-.01,0,0,.02-.02.03-.03l3.97-5.89c.08-.12.05-.28-.07-.36Z"/>
      <path class="cls-1" d="M4.64,19.36c-.06,0-.11-.01-.16-.04,0,0-.03-.02-.03-.02-.03-.02-.06-.04-.09-.07L.07,13.54c-.12-.16-.09-.39.07-.5.08-.06.17-.08.27-.07.1.01.18.06.24.14l3.62,4.82V.36c0-.2.16-.36.36-.36s.36.16.36.36v17.47l3.32-4.91c.11-.16.34-.21.5-.1.08.05.13.14.15.23.02.09,0,.19-.06.27l-3.97,5.89s-.02.02-.03.04c0,0-.02.02-.02.02-.03.03-.06.05-.1.07,0,0-.02,0-.02,0-.04.02-.08.02-.12.02h0ZM4.49,19.09s.01.01.01.01c0,.01.02.02.04.03,0,0,.02.01.02.01.04.02.08.02.12,0,.03-.01.04-.02.06-.03l.1.03-.08-.06,3.97-5.89s.03-.08.03-.12c0-.04-.03-.08-.07-.1-.07-.05-.18-.03-.23.04l-3.49,5.18s-.07.05-.11.04c-.04-.01-.07-.05-.07-.09V.36c0-.09-.07-.16-.16-.16s-.16.07-.16.16v17.86s-.03.08-.07.09c-.04.01-.08,0-.11-.03L.49,13.23s-.06-.06-.11-.06c-.04,0-.09,0-.12.03-.04.03-.06.06-.06.11,0,.04,0,.09.03.12l4.26,5.67Z"/>
    </g>
  </g>
</svg>