<?xml version="1.0" encoding="UTF-8"?>
<svg id="Layer_2" data-name="Layer 2" xmlns="http://www.w3.org/2000/svg" viewBox="0 0 12.78 19.5">
  <defs>
    <style>
      .cls-1 {
        fill: #1f1f1f;
      }
    </style>
  </defs>
  <g id="Object">
    <g>
      <path class="cls-1" d="M12.03,2.11h-1.98V.36c0-.14-.12-.26-.26-.26s-.26.12-.26.26v1.75h-1.75V.36c0-.14-.12-.26-.26-.26s-.26.12-.26.26v1.75h-1.83s0,0,0,0V.36c0-.14-.12-.26-.26-.26s-.26.12-.26.26v1.75h-1.92V.36c0-.14-.12-.26-.26-.26s-.26.12-.26.26v1.75H.74c-.36,0-.65.29-.65.65v16.01c0,.36.29.65.65.65h11.29c.36,0,.65-.29.65-.65V2.75c0-.36-.29-.65-.65-.65ZM12.15,18.88H.62V2.63h1.83v1.83c0,.14.12.26.26.26s.26-.12.26-.26v-1.83h1.92v1.83c0,.14.12.26.26.26s.26-.12.26-.26v-1.83h1.83v1.75c0,.14.12.26.26.26s.26-.12.26-.26v-1.75h1.75v1.92c0,.14.12.26.26.26s.26-.12.26-.26v-1.92h2.1v16.25Z"/>
      <path class="cls-1" d="M12.03,19.5H.74c-.41,0-.74-.33-.74-.74V2.75c0-.41.33-.74.74-.74h1.61V.36c0-.2.16-.36.36-.36s.36.16.36.36v1.65h1.73V.36c0-.2.16-.36.36-.36s.36.16.36.36v1.65h1.64V.36c0-.2.16-.36.36-.36s.36.16.36.36v1.65h1.55V.36c0-.2.16-.36.36-.36s.36.16.36.36v1.65h1.88c.41,0,.74.33.74.74v16.01c0,.41-.33.74-.74.74ZM.74,2.21c-.3,0-.55.25-.55.55v16.01c0,.3.25.55.55.55h11.29c.3,0,.55-.25.55-.55V2.75c0-.3-.25-.55-.55-.55h-1.98c-.05,0-.1-.04-.1-.1V.36c0-.09-.07-.16-.16-.16s-.16.07-.16.16v1.75c0,.05-.04.1-.1.1h-1.75c-.05,0-.1-.04-.1-.1V.36c0-.09-.07-.16-.16-.16s-.16.07-.16.16v1.75c0,.05-.04.1-.1.1h-1.83c-.05,0-.1-.05-.1-.1V.36c0-.09-.07-.16-.16-.16s-.16.07-.16.16v1.75c0,.05-.04.1-.1.1h-1.92c-.05,0-.1-.04-.1-.1V.36c0-.09-.07-.16-.16-.16s-.16.07-.16.16v1.75c0,.05-.04.1-.1.1H.74ZM12.15,18.98H.62c-.05,0-.1-.04-.1-.1V2.63c0-.05.04-.1.1-.1h1.83c.05,0,.1.04.1.1v1.83c0,.09.07.16.16.16s.16-.07.16-.16v-1.83c0-.05.04-.1.1-.1h1.92c.05,0,.1.04.1.1v1.83c0,.09.07.16.16.16s.16-.07.16-.16v-1.83c0-.05.04-.1.1-.1h1.83c.05,0,.1.04.1.1v1.75c0,.09.07.16.16.16s.16-.07.16-.16v-1.75c0-.05.04-.1.1-.1h1.75c.05,0,.1.04.1.1v1.92c0,.09.07.16.16.16s.16-.07.16-.16v-1.92c0-.05.04-.1.1-.1h2.1c.05,0,.1.04.1.1v16.25c0,.05-.04.1-.1.1ZM.72,18.78h11.33V2.73h-1.9v1.82c0,.2-.16.36-.36.36s-.36-.16-.36-.36v-1.82h-1.55v1.65c0,.2-.16.36-.36.36s-.36-.16-.36-.36v-1.65h-1.64v1.74c0,.2-.16.36-.36.36s-.36-.16-.36-.36v-1.74h-1.73v1.74c0,.2-.16.36-.36.36s-.36-.16-.36-.36v-1.74H.72v16.05Z"/>
    </g>
  </g>
</svg>