<?xml version="1.0" encoding="UTF-8"?>
<svg id="Layer_2" data-name="Layer 2" xmlns="http://www.w3.org/2000/svg" viewBox="0 0 12.59 15.44">
  <defs>
    <style>
      .cls-1 {
        fill: #1f1f1f;
      }
    </style>
  </defs>
  <g id="Object">
    <g>
      <g>
        <path class="cls-1" d="M12.23,15.34c.14,0,.26-.12.26-.26V3.55c0-.07-.03-.14-.08-.19L9.11.18h0s0,0,0,0c-.01-.01-.03-.02-.04-.03-.01,0-.03-.02-.04-.03-.03-.01-.07-.02-.1-.02H.36C.22.1.1.22.1.36v14.72c0,.14.12.26.26.26h11.87ZM9.18.98l2.4,2.31h-2.4V.98ZM.62.62h8.04v2.93c0,.14.12.26.26.26h3.05v11H.62V.62Z"/>
        <path class="cls-1" d="M12.23,15.44H.36c-.2,0-.36-.16-.36-.36V.36c0-.2.16-.36.36-.36h8.56s.09,0,.14.03c.02,0,.04.02.05.03.03.02.04.03.06.04l3.31,3.19c.07.07.11.16.11.26v11.53c0,.2-.16.36-.36.36ZM.36.2c-.09,0-.16.07-.16.16v14.72c0,.09.07.16.16.16h11.87c.09,0,.16-.07.16-.16V3.55s-.02-.09-.05-.12L9.04.25s-.03-.02-.03-.02l-.03-.02s-.04-.01-.06-.01H.36ZM11.97,14.91H.62c-.05,0-.1-.04-.1-.1V.62c0-.05.04-.1.1-.1h8.04c.05,0,.1.04.1.1v2.93c0,.09.07.16.16.16h3.05c.05,0,.1.04.1.1v11c0,.05-.04.1-.1.1ZM.72,14.72h11.15V3.91h-2.95c-.2,0-.36-.16-.36-.36V.72H.72v14ZM11.58,3.39h-2.4c-.05,0-.1-.04-.1-.1V.98s.02-.08.06-.09c.04-.02.08,0,.11.02l2.4,2.31s.04.07.02.11c-.02.04-.05.06-.09.06ZM9.28,3.19h2.05l-2.05-1.98v1.98Z"/>
      </g>
      <g>
        <path class="cls-1" d="M8.2,6.58l-3.21,3.21-.56-.82c-.08-.12-.24-.15-.36-.07-.12.08-.15.24-.07.36l.74,1.08c.04.06.11.11.19.11,0,0,.02,0,.02,0,.07,0,.14-.03.19-.08l3.43-3.43c.1-.1.1-.27,0-.37-.1-.1-.27-.1-.37,0Z"/>
        <path class="cls-1" d="M4.95,10.55s-.02,0-.03,0c-.11,0-.2-.07-.26-.16l-.74-1.08c-.11-.16-.07-.39.09-.5.16-.11.39-.07.5.09l.49.72,3.12-3.13h0c.14-.14.37-.14.51,0,.14.14.14.37,0,.51l-3.43,3.43c-.07.07-.16.11-.25.11ZM4.21,8.95s-.06,0-.09.03c-.07.05-.09.15-.04.23l.74,1.08s.07.07.12.07h0c.06,0,.1-.02.13-.05l3.43-3.43c.06-.06.06-.17,0-.23-.06-.06-.17-.06-.23,0l-3.21,3.21s-.05.03-.08.03c-.03,0-.06-.02-.07-.04l-.56-.82s-.08-.07-.14-.07Z"/>
      </g>
    </g>
  </g>
</svg>