<?xml version="1.0" encoding="UTF-8"?>
<svg id="Layer_2" data-name="Layer 2" xmlns="http://www.w3.org/2000/svg" viewBox="0 0 19.5 19.5">
  <defs>
    <style>
      .cls-1 {
        fill: #1f1f1f;
      }
    </style>
  </defs>
  <g id="Object">
    <g>
      <g>
        <path class="cls-1" d="M9.75,19.4C4.43,19.4.1,15.07.1,9.75S4.43.1,9.75.1s9.65,4.33,9.65,9.65-4.33,9.65-9.65,9.65ZM9.75.62C4.72.62.62,4.72.62,9.75s4.1,9.13,9.13,9.13,9.13-4.1,9.13-9.13S14.79.62,9.75.62Z"/>
        <path class="cls-1" d="M9.75,19.5C4.37,19.5,0,15.13,0,9.75S4.37,0,9.75,0s9.75,4.37,9.75,9.75-4.37,9.75-9.75,9.75ZM9.75.2C4.48.2.2,4.48.2,9.75s4.29,9.55,9.56,9.55,9.55-4.29,9.55-9.55S15.02.2,9.75.2ZM9.75,18.98C4.66,18.98.52,14.84.52,9.75S4.66.52,9.75.52s9.23,4.14,9.23,9.23-4.14,9.23-9.23,9.23ZM9.75.72C4.77.72.72,4.77.72,9.75s4.05,9.03,9.03,9.03,9.03-4.05,9.03-9.03S14.73.72,9.75.72Z"/>
      </g>
      <g>
        <path class="cls-1" d="M9.72,19.31c-.13,0-.24-.09-.26-.22-.02-.14.07-.28.21-.3,3.72-.64,6.52-4.52,6.52-9.04S13.55,1.52,9.91.76c-.14-.03-.23-.17-.2-.31.03-.14.17-.23.31-.2,3.88.82,6.7,4.81,6.7,9.5s-2.99,8.87-6.95,9.55c-.02,0-.03,0-.04,0Z"/>
        <path class="cls-1" d="M9.72,19.41c-.18,0-.33-.13-.36-.3-.02-.09,0-.19.06-.27.06-.08.14-.13.23-.15,3.67-.63,6.44-4.47,6.44-8.94S13.49,1.61,9.89.86c-.19-.04-.32-.23-.28-.43.02-.09.08-.18.16-.23.08-.05.18-.07.27-.05,3.93.83,6.78,4.86,6.78,9.6s-3.02,8.96-7.04,9.65c-.02,0-.04,0-.06,0ZM9.96.34s-.06,0-.09.03c-.04.02-.06.06-.07.1-.02.09.04.18.13.19,3.69.77,6.36,4.6,6.36,9.09s-2.84,8.49-6.6,9.13c-.04,0-.08.03-.11.07-.03.04-.04.08-.03.12.02.09.1.15.19.13,3.92-.67,6.87-4.74,6.87-9.46S13.83,1.15,10,.34c-.01,0-.02,0-.03,0Z"/>
      </g>
      <g>
        <path class="cls-1" d="M9.75,19.31s-.03,0-.04,0c-3.95-.68-6.92-4.79-6.92-9.55S5.59,1.06,9.45.25c.14-.03.28.06.31.2.03.14-.06.28-.2.31-3.62.77-6.25,4.55-6.25,8.99s2.79,8.4,6.49,9.04c.14.02.24.16.21.3-.02.13-.13.22-.26.22Z"/>
        <path class="cls-1" d="M9.75,19.41s-.04,0-.06,0c-3.99-.69-7-4.84-7-9.65S5.52.98,9.43.15c.19-.04.39.08.43.28.04.19-.08.39-.28.43-3.58.76-6.18,4.5-6.18,8.9s2.75,8.31,6.41,8.94c.2.03.33.22.29.42-.03.17-.18.3-.35.3ZM9.51.34s-.02,0-.04,0c-3.82.81-6.59,4.76-6.59,9.41s2.94,8.79,6.84,9.46c.11.02.17-.05.19-.13,0-.04,0-.09-.03-.12-.03-.04-.06-.06-.11-.07-3.75-.64-6.57-4.57-6.57-9.13S5.87,1.44,9.54.66c.04,0,.08-.03.1-.07.02-.04.03-.08.02-.12-.02-.08-.08-.13-.16-.13Z"/>
      </g>
      <g>
        <path class="cls-1" d="M9.75,6.25c-2.58,0-5-1-6.83-2.83l.37-.37c1.72,1.72,4.02,2.67,6.46,2.67s4.79-.97,6.52-2.74l.37.37c-1.83,1.87-4.28,2.89-6.89,2.89Z"/>
        <path class="cls-1" d="M9.75,6.35c-2.6,0-5.05-1.01-6.9-2.86-.04-.04-.04-.1,0-.14l.37-.37s.1-.04.14,0c1.71,1.71,3.97,2.65,6.39,2.65s4.73-.96,6.45-2.71c.04-.04.1-.04.14,0l.37.37s.03.04.03.07c0,.03-.01.05-.03.07-1.85,1.88-4.32,2.92-6.96,2.92ZM3.07,3.43c1.8,1.76,4.17,2.73,6.69,2.73s4.95-.99,6.75-2.79l-.23-.23c-1.74,1.74-4.05,2.7-6.52,2.7s-4.72-.93-6.45-2.63l-.23.23Z"/>
      </g>
      <g>
        <path class="cls-1" d="M3.23,16.51l-.37-.37c1.83-1.87,4.28-2.9,6.89-2.9s5,1,6.83,2.83l-.37.37c-1.72-1.72-4.02-2.67-6.46-2.67s-4.79.97-6.52,2.74Z"/>
        <path class="cls-1" d="M3.23,16.61s-.05-.01-.07-.03l-.37-.37s-.04-.1,0-.14c1.85-1.89,4.32-2.92,6.96-2.92s5.05,1.01,6.9,2.86c.04.04.04.1,0,.14l-.37.37s-.1.04-.14,0c-1.71-1.71-3.97-2.65-6.39-2.65s-4.74.96-6.45,2.71c-.02.02-.04.03-.07.03h0ZM3,16.14l.23.23c1.74-1.74,4.05-2.7,6.52-2.7s4.72.93,6.45,2.63l.23-.23c-1.8-1.76-4.17-2.73-6.69-2.73s-4.95.99-6.75,2.8Z"/>
      </g>
      <g>
        <rect class="cls-1" x=".36" y="9.49" width="18.78" height=".52"/>
        <path class="cls-1" d="M19.14,10.11H.36c-.05,0-.1-.04-.1-.1v-.52c0-.05.04-.1.1-.1h18.78c.05,0,.1.04.1.1v.52c0,.05-.04.1-.1.1ZM.46,9.92h18.59v-.33H.46v.33Z"/>
      </g>
      <g>
        <path class="cls-1" d="M9.75,19.4c-.14,0-.26-.12-.26-.26V.36c0-.14.12-.26.26-.26s.26.12.26.26v18.78c0,.14-.12.26-.26.26Z"/>
        <path class="cls-1" d="M9.75,19.5c-.2,0-.36-.16-.36-.36V.36c0-.2.16-.36.36-.36s.36.16.36.36v18.78c0,.2-.16.36-.36.36ZM9.75.2c-.09,0-.16.07-.16.16v18.78c0,.09.07.16.16.16s.16-.07.16-.16V.36c0-.09-.07-.16-.16-.16Z"/>
      </g>
    </g>
  </g>
</svg>