<?xml version="1.0" encoding="UTF-8"?>
<svg id="Layer_2" data-name="Layer 2" xmlns="http://www.w3.org/2000/svg" viewBox="0 0 19.46 19.27">
  <defs>
    <style>
      .cls-1 {
        fill: #1f1f1f;
      }
    </style>
  </defs>
  <g id="Object">
    <g>
      <path class="cls-1" d="M.36,19.17h18.74c.14,0,.26-.12.26-.26V.36c0-.14-.12-.26-.26-.26H.36C.22.1.1.22.1.36v18.55c0,.14.12.26.26.26ZM10.05.62h8.79v18.02h-8.79V.62ZM.62.62h8.9v18.02H.62V.62Z"/>
      <path class="cls-1" d="M19.1,19.27H.36c-.2,0-.36-.16-.36-.36V.36c0-.2.16-.36.36-.36h18.74c.2,0,.36.16.36.36v18.55c0,.2-.16.36-.36.36ZM.36.2c-.09,0-.16.07-.16.16v18.55c0,.09.07.16.16.16h18.74c.09,0,.16-.07.16-.16V.36c0-.09-.07-.16-.16-.16H.36ZM18.84,18.74h-8.79c-.05,0-.1-.04-.1-.1V.62c0-.05.04-.1.1-.1h8.79c.05,0,.1.04.1.1v18.02c0,.05-.04.1-.1.1ZM10.15,18.55h8.59V.72h-8.59v17.83ZM9.53,18.74H.62c-.05,0-.1-.04-.1-.1V.62c0-.05.04-.1.1-.1h8.9c.05,0,.1.04.1.1v18.02c0,.05-.04.1-.1.1ZM.72,18.55h8.71V.72H.72v17.83Z"/>
    </g>
  </g>
</svg>