<?xml version="1.0" encoding="UTF-8"?>
<svg id="Layer_2" data-name="Layer 2" xmlns="http://www.w3.org/2000/svg" viewBox="0 0 11.6 18.96">
  <defs>
    <style>
      .cls-1 {
        fill: #1f1f1f;
      }
    </style>
  </defs>
  <g id="Object">
    <g>
      <g>
        <path class="cls-1" d="M10.73,12.81H.87c-.28,0-.53-.14-.67-.39-.14-.24-.14-.53,0-.77l2.14-3.68V2.18l-.47-.91c-.15-.23-.17-.52-.04-.76.13-.25.38-.4.67-.4h6.61c.28,0,.53.15.66.4.13.24.11.53-.04.76l-.48.94v5.77l2.14,3.68c.14.24.14.53,0,.77-.14.24-.39.39-.67.39ZM2.5.62c-.12,0-.18.09-.2.12-.02.04-.06.13.02.23,0,0,.01.02.02.03l.51.98s.03.08.03.12v5.93s-.01.09-.04.13l-2.18,3.74c-.06.11-.02.21,0,.24.02.04.08.12.21.12h9.86c.13,0,.19-.09.21-.12.02-.04.06-.13,0-.24l-2.18-3.74s-.04-.09-.04-.13V2.14s0-.08.03-.12l.52-1.01s.01-.02.02-.03c.07-.1.03-.2.01-.23-.02-.04-.08-.12-.2-.12H2.5Z"/>
        <path class="cls-1" d="M10.73,12.91H.87c-.31,0-.6-.16-.75-.43-.16-.27-.16-.6,0-.87l2.13-3.66V2.2l-.46-.89c-.17-.25-.18-.58-.04-.85.15-.28.44-.46.75-.46h6.61c.32,0,.6.17.75.45.14.27.13.6-.04.86l-.47.91v5.72l2.13,3.66c.16.27.16.6,0,.87-.16.27-.44.43-.75.43ZM2.5.2c-.24,0-.47.13-.58.35-.11.21-.1.46.04.66l.48.92s.01.03.01.04v5.8s0,.03-.01.05L.29,11.7c-.12.21-.12.46,0,.67.12.21.34.34.58.34h9.86c.24,0,.46-.13.58-.34.12-.21.12-.46,0-.67l-2.14-3.68s-.01-.03-.01-.05V2.2s0-.03.01-.04l.48-.94c.13-.21.15-.46.04-.67-.11-.22-.33-.35-.58-.35H2.5ZM10.73,12.38H.87c-.12,0-.24-.06-.3-.17-.03-.05-.09-.19,0-.34l2.18-3.74s.02-.05.02-.08V2.11s0-.05-.02-.08l-.51-.98c-.11-.16-.06-.3-.03-.35.02-.04.1-.17.29-.17h6.61c.12,0,.23.06.29.17.06.11.05.23-.02.34l-.53,1.03s-.02.05-.02.07v5.9s0,.06.02.08l2.18,3.74c.09.15.03.29,0,.34-.06.11-.17.17-.3.17ZM2.5.72c-.07,0-.1.04-.11.07-.02.03-.03.08,0,.13,0,.01.02.03.03.04l.51.98c.03.05.04.11.04.17v5.93c0,.06-.02.13-.05.18l-2.18,3.74c-.04.06-.02.12,0,.15.02.03.05.07.13.07h9.86c.07,0,.11-.05.13-.07.02-.03.04-.08,0-.15l-2.18-3.74c-.03-.05-.05-.12-.05-.18V2.14c0-.06.01-.11.04-.16l.52-1.01s.02-.03.02-.04c.04-.05.02-.1,0-.13-.02-.03-.05-.07-.11-.07H2.5Z"/>
      </g>
      <g>
        <path class="cls-1" d="M5.8,18.86c-.14,0-.26-.12-.26-.26v-6.05c0-.14.12-.26.26-.26s.26.12.26.26v6.05c0,.14-.12.26-.26.26Z"/>
        <path class="cls-1" d="M5.8,18.96c-.2,0-.36-.16-.36-.36v-6.05c0-.2.16-.36.36-.36s.36.16.36.36v6.05c0,.2-.16.36-.36.36ZM5.8,12.38c-.09,0-.16.07-.16.16v6.05c0,.09.07.16.16.16s.16-.07.16-.16v-6.05c0-.09-.07-.16-.16-.16Z"/>
      </g>
    </g>
  </g>
</svg>