<?xml version="1.0" encoding="UTF-8"?>
<svg id="Layer_2" data-name="Layer 2" xmlns="http://www.w3.org/2000/svg" viewBox="0 0 19.08 3.53">
  <defs>
    <style>
      .cls-1 {
        fill: #1f1f1f;
      }
    </style>
  </defs>
  <g id="Object">
    <g>
      <g>
        <path class="cls-1" d="M1.76,3.43C.85,3.43.1,2.68.1,1.76S.85.1,1.76.1s1.67.75,1.67,1.67-.75,1.67-1.67,1.67ZM1.76.62c-.63,0-1.14.51-1.14,1.14s.51,1.14,1.14,1.14,1.14-.51,1.14-1.14-.51-1.14-1.14-1.14Z"/>
        <path class="cls-1" d="M1.76,3.53c-.97,0-1.76-.79-1.76-1.76S.79,0,1.76,0s1.76.79,1.76,1.76-.79,1.76-1.76,1.76ZM1.76.2C.9.2.2.9.2,1.76s.7,1.57,1.57,1.57,1.57-.7,1.57-1.57S2.63.2,1.76.2ZM1.76,3c-.68,0-1.24-.56-1.24-1.24S1.08.52,1.76.52s1.24.56,1.24,1.24-.56,1.24-1.24,1.24ZM1.76.72c-.58,0-1.04.47-1.04,1.04s.47,1.04,1.04,1.04,1.04-.47,1.04-1.04-.47-1.04-1.04-1.04Z"/>
      </g>
      <g>
        <path class="cls-1" d="M17.32,3.43c-.92,0-1.67-.75-1.67-1.67s.75-1.67,1.67-1.67,1.67.75,1.67,1.67-.75,1.67-1.67,1.67ZM17.32.62c-.63,0-1.14.51-1.14,1.14s.51,1.14,1.14,1.14,1.14-.51,1.14-1.14-.51-1.14-1.14-1.14Z"/>
        <path class="cls-1" d="M17.32,3.53c-.97,0-1.76-.79-1.76-1.76s.79-1.76,1.76-1.76,1.76.79,1.76,1.76-.79,1.76-1.76,1.76ZM17.32.2c-.86,0-1.57.7-1.57,1.57s.7,1.57,1.57,1.57,1.57-.7,1.57-1.57-.7-1.57-1.57-1.57ZM17.32,3c-.68,0-1.24-.56-1.24-1.24s.56-1.24,1.24-1.24,1.24.56,1.24,1.24-.56,1.24-1.24,1.24ZM17.32.72c-.58,0-1.04.47-1.04,1.04s.47,1.04,1.04,1.04,1.04-.47,1.04-1.04-.47-1.04-1.04-1.04Z"/>
      </g>
      <g>
        <path class="cls-1" d="M9.54,3.43c-.92,0-1.67-.75-1.67-1.67S8.62.1,9.54.1s1.67.75,1.67,1.67-.75,1.67-1.67,1.67ZM9.54.62c-.63,0-1.14.51-1.14,1.14s.51,1.14,1.14,1.14,1.14-.51,1.14-1.14-.51-1.14-1.14-1.14Z"/>
        <path class="cls-1" d="M9.54,3.53c-.97,0-1.76-.79-1.76-1.76s.79-1.76,1.76-1.76,1.76.79,1.76,1.76-.79,1.76-1.76,1.76ZM9.54.2c-.86,0-1.57.7-1.57,1.57s.7,1.57,1.57,1.57,1.57-.7,1.57-1.57-.7-1.57-1.57-1.57ZM9.54,3c-.68,0-1.24-.56-1.24-1.24s.56-1.24,1.24-1.24,1.24.56,1.24,1.24-.56,1.24-1.24,1.24ZM9.54.72c-.58,0-1.04.47-1.04,1.04s.47,1.04,1.04,1.04,1.04-.47,1.04-1.04-.47-1.04-1.04-1.04Z"/>
      </g>
    </g>
  </g>
</svg>