<?xml version="1.0" encoding="UTF-8"?>
<svg id="Layer_2" data-name="Layer 2" xmlns="http://www.w3.org/2000/svg" viewBox="0 0 19.33 14.87">
  <defs>
    <style>
      .cls-1 {
        fill: #1f1f1f;
      }
    </style>
  </defs>
  <g id="Object">
    <g>
      <g>
        <path class="cls-1" d="M18.97,4.64h-3.23V.72c0-.34-.28-.62-.62-.62H3.95c-.34,0-.62.28-.62.62v3.92H.36c-.14,0-.26.12-.26.26s.12.26.26.26h2.97v.52c0,.14.12.26.26.26s.26-.12.26-.26v-.52h11.36v.53c0,.14.12.26.26.26s.26-.12.26-.26v-.53h3.23c.14,0,.26-.12.26-.26s-.12-.26-.26-.26ZM3.85,4.64V.62h11.36v4.02H3.85Z"/>
        <path class="cls-1" d="M15.47,6.06c-.2,0-.36-.16-.36-.36v-.43H3.95v.43c0,.2-.16.36-.36.36s-.36-.16-.36-.36v-.43H.36c-.2,0-.36-.16-.36-.36s.16-.36.36-.36h2.87V.72c0-.4.32-.72.72-.72h11.17c.4,0,.72.32.72.72v3.83h3.13c.2,0,.36.16.36.36s-.16.36-.36.36h-3.13v.43c0,.2-.16.36-.36.36ZM3.85,5.07h11.36c.05,0,.1.04.1.1v.53c0,.09.07.16.16.16s.16-.07.16-.16v-.53c0-.05.04-.1.1-.1h3.23c.09,0,.16-.07.16-.16s-.07-.16-.16-.16h-3.23c-.05,0-.1-.04-.1-.1V.72c0-.29-.23-.52-.52-.52H3.95c-.29,0-.52.23-.52.52v3.92c0,.05-.04.1-.1.1H.36c-.09,0-.16.07-.16.16s.07.16.16.16h2.97c.05,0,.1.04.1.1v.52c0,.09.07.16.16.16s.16-.07.16-.16v-.52c0-.05.04-.1.1-.1ZM15.21,4.74H3.85c-.05,0-.1-.04-.1-.1V.62c0-.05.04-.1.1-.1h11.36c.05,0,.1.04.1.1v4.02c0,.05-.04.1-.1.1ZM3.95,4.54h11.16V.72H3.95v3.82Z"/>
      </g>
      <g>
        <path class="cls-1" d="M15.54,11.9l1.49-4.22c.05-.14-.02-.29-.16-.33-.14-.05-.29.02-.33.16l-1.49,4.22c-.05.14.02.29.16.33.14.05.29-.02.33-.16Z"/>
        <path class="cls-1" d="M15.29,12.18s-.08,0-.12-.02c-.09-.03-.16-.1-.2-.18-.04-.09-.05-.18-.01-.28l1.49-4.22c.07-.19.27-.29.46-.22.09.03.16.1.21.18.04.09.05.18.01.28l-1.49,4.22h0c-.05.15-.19.24-.34.24ZM16.78,7.43c-.07,0-.13.04-.15.11l-1.49,4.22s-.01.09,0,.13c.02.04.05.07.09.08.08.03.18-.01.21-.1l1.49-4.22s.01-.09,0-.13c-.02-.04-.05-.07-.09-.08-.02,0-.04,0-.05,0ZM15.54,11.9h0,0Z"/>
      </g>
      <g>
        <path class="cls-1" d="M9.16,14.25h-4.07l-2.38-6.74c-.05-.14-.2-.21-.33-.16s-.21.2-.16.33l2.45,6.92c.04.1.14.17.25.17h4.26c.14,0,.26-.12.26-.26h0c0-.14-.12-.26-.26-.26Z"/>
        <path class="cls-1" d="M9.16,14.87h-4.26c-.15,0-.29-.1-.34-.24l-2.45-6.92c-.03-.09-.03-.19.01-.28.04-.09.11-.15.21-.18.19-.07.39.03.46.22l2.36,6.68h4c.2,0,.36.16.36.36s-.16.36-.36.36ZM2.46,7.43s-.04,0-.05,0c-.04.01-.07.04-.09.08-.02.04-.02.08,0,.13l2.45,6.92c.02.07.09.11.15.11h4.26c.09,0,.16-.07.16-.16s-.07-.16-.16-.16h-4.07s-.08-.03-.09-.07l-2.38-6.74s-.04-.07-.08-.09c-.02-.01-.05-.02-.07-.02Z"/>
      </g>
      <g>
        <path class="cls-1" d="M7.52,11.89v-4.37c0-.14-.12-.26-.26-.26s-.26.12-.26.26v4.37c0,.14.12.26.26.26s.26-.12.26-.26Z"/>
        <path class="cls-1" d="M7.26,12.25c-.2,0-.36-.16-.36-.36v-4.37c0-.2.16-.36.36-.36s.36.16.36.36v4.37c0,.2-.16.36-.36.36ZM7.26,7.36c-.09,0-.16.07-.16.16v4.37c0,.09.07.16.16.16s.16-.07.16-.16v-4.37c0-.09-.07-.16-.16-.16Z"/>
      </g>
      <g>
        <path class="cls-1" d="M9.62,7.26c-.14,0-.26.12-.26.26v2.01c0,.14.12.26.26.26s.26-.12.26-.26v-2.01c0-.14-.12-.26-.26-.26Z"/>
        <path class="cls-1" d="M9.62,9.89c-.2,0-.36-.16-.36-.36v-2.01c0-.2.16-.36.36-.36s.36.16.36.36v2.01c0,.2-.16.36-.36.36ZM9.62,7.36c-.09,0-.16.07-.16.16v2.01c0,.09.07.16.16.16s.16-.07.16-.16v-2.01c0-.09-.07-.16-.16-.16Z"/>
      </g>
      <g>
        <path class="cls-1" d="M11.98,7.26c-.14,0-.26.12-.26.26v4.54c0,.14.12.26.26.26s.26-.12.26-.26v-4.54c0-.14-.12-.26-.26-.26Z"/>
        <path class="cls-1" d="M11.98,12.43c-.2,0-.36-.16-.36-.36v-4.54c0-.2.16-.36.36-.36s.36.16.36.36v4.54c0,.2-.16.36-.36.36ZM11.98,7.36c-.09,0-.16.07-.16.16v4.54c0,.09.07.16.16.16s.16-.07.16-.16v-4.54c0-.09-.07-.16-.16-.16Z"/>
      </g>
    </g>
  </g>
</svg>