<?xml version="1.0" encoding="UTF-8"?>
<svg id="Layer_2" data-name="Layer 2" xmlns="http://www.w3.org/2000/svg" viewBox="0 0 8.97 19.37">
  <defs>
    <style>
      .cls-1 {
        fill: #1f1f1f;
      }
    </style>
  </defs>
  <g id="Object">
    <g>
      <path class="cls-1" d="M8.81,5.88L4.54.21s-.01-.01-.02-.02c0,0,0,0-.01-.01-.02-.02-.05-.04-.07-.05,0,0,0,0-.01,0-.03-.01-.06-.02-.09-.02,0,0,0,0,0,0,0,0,0,0,0,0h0s-.06,0-.09.02c0,0-.01,0-.02,0-.03.01-.05.03-.07.05,0,0,0,0,0,.01,0,0-.02.02-.03.03L.14,6.11c-.08.12-.05.28.07.36.05.03.1.04.15.04.08,0,.17-.04.22-.12L4.07,1.22v17.79c0,.14.12.26.26.26s.26-.12.26-.26V1.15l3.8,5.05c.09.12.25.14.37.05.12-.09.14-.25.05-.37Z"/>
      <path class="cls-1" d="M4.33,19.37c-.2,0-.36-.16-.36-.36V1.54L.66,6.45c-.11.16-.34.21-.5.1-.08-.05-.13-.14-.15-.23-.02-.09,0-.19.06-.27L4.04.16s.02-.02.03-.03l.09.05-.07-.07s.06-.05.1-.07c0,0,.02,0,.03-.01.04-.01.08-.02.12-.02.02,0,.02,0,.03,0,.04,0,.07.01.11.02.05.02.09.04.12.07,0,0,.02.02.02.02,0,0,.02.02.03.03l4.27,5.68c.12.16.09.39-.07.5-.08.06-.17.08-.27.07-.1-.01-.18-.06-.24-.14L4.69,1.44v17.57c0,.2-.16.36-.36.36ZM4.07,1.12s.02,0,.03,0c.04.01.07.05.07.09v17.79c0,.09.07.16.16.16s.16-.07.16-.16V1.15s.03-.08.07-.09c.04-.01.08,0,.11.03l3.8,5.05s.06.06.11.06c.04,0,.09,0,.12-.03.04-.03.06-.06.06-.11,0-.04,0-.09-.03-.12h0L4.47.27l.06-.08-.08.06s-.03-.02-.05-.03c-.03-.01-.05-.01-.07-.01-.02,0-.03,0-.05.01-.03.01-.04.02-.06.03l-.1-.03.08.06L.22,6.16s-.03.08-.03.12c0,.04.03.08.07.1.07.05.18.03.23-.04L3.99,1.17s.05-.04.08-.04Z"/>
    </g>
  </g>
</svg>