<?xml version="1.0" encoding="UTF-8"?>
<svg id="Layer_2" data-name="Layer 2" xmlns="http://www.w3.org/2000/svg" viewBox="0 0 19.73 19.52">
  <defs>
    <style>
      .cls-1 {
        fill: #1f1f1f;
      }
    </style>
  </defs>
  <g id="Object">
    <g>
      <g>
        <path class="cls-1" d="M19.36,7.11H6.53l-.94-4.64c-.02-.12-.13-.21-.26-.21H.36c-.14,0-.26.12-.26.26s.12.26.26.26h4.76l2.31,11.43v4.95c0,.14.12.26.26.26h6.88c.14,0,.26-.12.26-.26s-.12-.26-.26-.26h-6.62v-4.46h7.15c.09,0,.17-.05.22-.12l4.25-6.81c.05-.08.05-.18,0-.27s-.13-.14-.23-.14ZM6.64,7.63h4.07v1.64h-3.74l-.33-1.64ZM7.51,11.93l-.43-2.14h3.63v2.1h-3.07s-.09.02-.13.04ZM7.91,13.92l-.31-1.51s.02,0,.04,0h3.07v1.46s0,.03,0,.05h-2.81ZM14.77,13.92h-3.55s0-.03,0-.05v-1.46h3.54v1.51ZM14.77,11.89h-3.54v-2.1h3.54v2.1ZM14.77,9.27h-3.54v-1.64h3.54v1.64ZM15.3,13.39v-.97h.61l-.61.97ZM16.23,11.89h-.93v-2.1h2.24l-1.31,2.1ZM17.87,9.28s-.02,0-.04,0h-2.53v-1.64h3.59l-1.03,1.65Z"/>
        <path class="cls-1" d="M14.58,19.52h-6.88c-.2,0-.36-.16-.36-.36v-4.95L5.05,2.88H.36c-.2,0-.36-.16-.36-.36s.16-.36.36-.36h4.98c.17,0,.32.12.35.29l.92,4.56h12.75c.13,0,.25.07.32.19.06.11.06.25,0,.37l-4.25,6.81c-.07.11-.18.17-.31.17h-7.05v4.26h6.52c.2,0,.36.16.36.36s-.16.36-.36.36ZM.36,2.36c-.09,0-.16.07-.16.16s.07.16.16.16h4.77s.09.03.1.08l2.31,11.43v4.97c0,.09.08.16.17.16h6.88c.09,0,.16-.07.16-.16s-.07-.16-.16-.16h-6.62c-.05,0-.1-.04-.1-.1v-4.46c0-.05.04-.1.1-.1h7.15c.06,0,.11-.03.14-.08l4.25-6.81c.03-.05.03-.11,0-.17-.03-.05-.08-.08-.14-.08H6.53s-.09-.03-.1-.08l-.94-4.64c-.02-.08-.08-.13-.16-.13H.36ZM14.77,14.02h-3.55s-.06-.01-.08-.04c-.02-.02-.03-.05-.02-.08l.1-.02h-.09s0-1.47,0-1.47c0-.05.04-.1.1-.1h3.54c.05,0,.1.04.1.1v1.51c0,.05-.04.1-.1.1ZM11.33,13.82h3.34v-1.31h-3.34v1.31ZM10.72,14.02h-2.81s-.09-.03-.1-.08l-.31-1.51s0-.06.02-.09c.02-.02.05-.04.09-.03,0,0,.02,0,.03,0h3.06c.05,0,.1.04.1.1v1.46s0,.03,0,.03c0,.03,0,.06-.02.08-.02.02-.05.04-.08.04ZM7.99,13.82h2.62v-1.31h-2.89l.27,1.31ZM15.3,13.49s-.02,0-.03,0c-.04-.01-.07-.05-.07-.09v-.97c0-.05.04-.1.1-.1h.61s.07.02.09.05c.02.03.02.07,0,.1l-.61.97s-.05.05-.08.05ZM15.4,12.51v.53l.33-.53h-.33ZM7.51,12.03s-.03,0-.04,0c-.03-.01-.05-.04-.06-.07l-.43-2.14s0-.06.02-.08.05-.04.08-.04h3.63c.05,0,.1.04.1.1v2.1c0,.05-.04.1-.1.1h-3.07s-.05,0-.08.03c-.02,0-.03.01-.05.01ZM7.2,9.89l.39,1.91s.04,0,.06,0h2.97v-1.9h-3.42ZM16.23,11.99h-.93c-.05,0-.1-.04-.1-.1v-2.1c0-.05.04-.1.1-.1h2.24s.07.02.09.05c.02.03.02.07,0,.1l-1.31,2.1s-.05.05-.08.05ZM15.4,11.79h.78l1.19-1.9h-1.97v1.9ZM14.77,11.99h-3.54c-.05,0-.1-.04-.1-.1v-2.1c0-.05.04-.1.1-.1h3.54c.05,0,.1.04.1.1v2.1c0,.05-.04.1-.1.1ZM11.33,11.79h3.34v-1.9h-3.34v1.9ZM17.87,9.38s0,0-.01,0c0,0-.02,0-.03,0h-2.53c-.05,0-.1-.04-.1-.1v-1.64c0-.05.04-.1.1-.1h3.59s.07.02.09.05c.02.03.02.07,0,.1l-1.03,1.65s-.05.05-.08.05ZM15.4,9.17h2.42l.9-1.44h-3.32v1.44ZM14.77,9.37h-3.54c-.05,0-.1-.04-.1-.1v-1.64c0-.05.04-.1.1-.1h3.54c.05,0,.1.04.1.1v1.64c0,.05-.04.1-.1.1ZM11.33,9.17h3.34v-1.44h-3.34v1.44ZM10.71,9.37h-3.74s-.09-.03-.1-.08l-.33-1.64s0-.06.02-.08c.02-.02.05-.04.08-.04h4.07c.05,0,.1.04.1.1v1.64c0,.05-.04.1-.1.1ZM7.05,9.17h3.56v-1.44h-3.85l.29,1.44Z"/>
      </g>
      <g>
        <path class="cls-1" d="M12.03.1c-.14,0-.26.12-.26.26v4.24l-1.98-1.87c-.11-.1-.27-.09-.37.01-.1.11-.09.27.01.37l2.42,2.29s.03.02.04.03c.01,0,.03.02.04.03.03.01.06.02.1.02s.07,0,.1-.02c.03-.01.06-.03.09-.06h0l2.29-2.29c.1-.1.1-.27,0-.37-.1-.1-.27-.1-.37,0l-1.85,1.85V.36c0-.14-.12-.26-.26-.26Z"/>
        <path class="cls-1" d="M12.03,5.57s-.09,0-.14-.03c-.02,0-.04-.02-.05-.03-.03-.02-.05-.03-.06-.04l-2.42-2.29c-.14-.14-.15-.37-.01-.51.14-.14.36-.15.51-.01l1.82,1.72V.36c0-.2.16-.36.36-.36s.36.16.36.36v3.98l1.68-1.68c.14-.14.37-.14.51,0,.14.14.14.37,0,.51l-2.29,2.29s-.07.06-.12.08c-.05.02-.09.03-.14.03ZM9.6,2.75s-.09.02-.12.05c-.03.03-.05.07-.04.12,0,.04.02.08.05.11l2.42,2.29s.02.01.03.01l-.04.09.07-.07s.08.02.12,0c.02,0,.04-.02.05-.04l2.29-2.29c.06-.06.06-.17,0-.23-.06-.06-.17-.06-.23,0l-1.85,1.85s-.07.04-.11.02c-.04-.02-.06-.05-.06-.09V.36c0-.09-.07-.16-.16-.16s-.16.07-.16.16v4.24s-.02.07-.06.09c-.04.02-.08,0-.11-.02l-1.98-1.87s-.07-.04-.11-.04Z"/>
      </g>
    </g>
  </g>
</svg>