<?xml version="1.0" encoding="UTF-8"?>
<svg id="Layer_2" data-name="Layer 2" xmlns="http://www.w3.org/2000/svg" viewBox="0 0 12.25 19.52">
  <defs>
    <style>
      .cls-1 {
        fill: #1f1f1f;
      }
    </style>
  </defs>
  <g id="Object">
    <g>
      <g>
        <g>
          <path class="cls-1" d="M4.99,5.34c-1.18,0-2.14.96-2.14,2.14s.96,2.14,2.14,2.14,2.14-.96,2.14-2.14-.96-2.14-2.14-2.14ZM4.99,9.1c-.89,0-1.62-.72-1.62-1.62s.73-1.62,1.62-1.62,1.62.73,1.62,1.62-.72,1.62-1.62,1.62Z"/>
          <path class="cls-1" d="M4.99,9.72c-1.23,0-2.24-1-2.24-2.24s1-2.24,2.24-2.24,2.24,1,2.24,2.24-1,2.24-2.24,2.24ZM4.99,5.44c-1.13,0-2.04.92-2.04,2.04s.92,2.04,2.04,2.04,2.04-.92,2.04-2.04-.92-2.04-2.04-2.04ZM4.99,9.19c-.95,0-1.71-.77-1.71-1.71s.77-1.71,1.71-1.71,1.71.77,1.71,1.71-.77,1.71-1.71,1.71ZM4.99,5.96c-.84,0-1.52.68-1.52,1.52s.68,1.52,1.52,1.52,1.52-.68,1.52-1.52-.68-1.52-1.52-1.52Z"/>
        </g>
        <g>
          <path class="cls-1" d="M9.88,14.17v-7c0-.05-.02-.1-.05-.15L5.21.21c-.05-.07-.12-.11-.22-.11-.09,0-.17.05-.22.12L.18,7.25s-.04.09-.04.14l-.04,11.75c0,.07.03.14.08.19.05.05.12.08.19.08h8.63s.06,0,.09-.02c.14.02.29.04.44.04,1.46,0,2.64-1.19,2.64-2.64,0-1.33-.99-2.43-2.27-2.61ZM.62,18.88l.04-11.41L4.99.83l4.36,6.42v6.89c-1.39.08-2.49,1.23-2.49,2.63,0,.85.41,1.61,1.04,2.1H.62ZM9.51,18.9c-1.17,0-2.12-.95-2.12-2.12s.95-2.12,2.12-2.12,2.12.95,2.12,2.12-.95,2.12-2.12,2.12Z"/>
          <path class="cls-1" d="M9.51,19.52c-.13,0-.28-.01-.43-.04-.03,0-.06.02-.1.02H.36c-.1,0-.19-.04-.26-.11C.04,19.33,0,19.24,0,19.14L.04,7.39c0-.07.02-.14.06-.2L4.69.16c.07-.1.18-.16.3-.16.13,0,.23.06.3.16l4.63,6.81c.04.06.06.13.06.2v6.91c1.3.23,2.27,1.37,2.27,2.7,0,1.51-1.23,2.74-2.74,2.74ZM9.07,19.29s.01,0,.02,0c.15.03.29.04.42.04,1.4,0,2.54-1.14,2.54-2.54,0-1.26-.94-2.34-2.19-2.52-.05,0-.08-.05-.08-.1v-7s0-.06-.03-.09L5.13.27s-.08-.07-.14-.07c-.05,0-.1.03-.13.07L.27,7.3s-.03.06-.03.09l-.04,11.75s.02.09.05.12c.03.03.07.05.12.05h8.63s.03,0,.05-.01c.01,0,.02,0,.03,0ZM9.51,19c-1.22,0-2.22-.99-2.22-2.22s.99-2.22,2.22-2.22,2.22.99,2.22,2.22-.99,2.22-2.22,2.22ZM9.51,14.76c-1.11,0-2.02.91-2.02,2.02s.91,2.02,2.02,2.02,2.02-.91,2.02-2.02-.91-2.02-2.02-2.02ZM7.91,18.98H.62s-.05-.01-.07-.03c-.02-.02-.03-.04-.03-.07l.04-11.41s0-.04.02-.05L4.91.78s.05-.04.08-.04h0s.06.02.08.04l4.36,6.42s.02.04.02.06v6.89c0,.05-.04.1-.09.1-1.34.08-2.4,1.19-2.4,2.54,0,.8.37,1.53,1,2.02.03.03.05.07.03.11s-.05.07-.09.07ZM.72,18.78h6.92c-.56-.52-.87-1.23-.87-2,0-1.42,1.09-2.6,2.49-2.73v-6.77L5,1.01.76,7.5l-.04,11.28Z"/>
        </g>
      </g>
      <g>
        <path class="cls-1" d="M10.97,17.09h-2.93c-.14,0-.26-.12-.26-.26s.12-.26.26-.26h2.93c.14,0,.26.12.26.26s-.12.26-.26.26Z"/>
        <path class="cls-1" d="M10.97,17.19h-2.93c-.2,0-.36-.16-.36-.36s.16-.36.36-.36h2.93c.2,0,.36.16.36.36s-.16.36-.36.36ZM8.05,16.66c-.09,0-.16.07-.16.16s.07.16.16.16h2.93c.09,0,.16-.07.16-.16s-.07-.16-.16-.16h-2.93Z"/>
      </g>
    </g>
  </g>
</svg>