<?xml version="1.0" encoding="UTF-8"?>
<svg id="Layer_2" data-name="Layer 2" xmlns="http://www.w3.org/2000/svg" viewBox="0 0 19.43 17.67">
  <defs>
    <style>
      .cls-1 {
        fill: #1f1f1f;
      }
    </style>
  </defs>
  <g id="Object">
    <g>
      <g>
        <path class="cls-1" d="M.36.1s0,0,0,0c-.02,0-.04,0-.06.01-.01,0-.03,0-.04,0-.01,0-.02.02-.03.02-.02.01-.04.02-.05.04,0,0,0,0,0,0,0,0-.01.02-.02.03-.01.02-.02.03-.03.05,0,.02,0,.04-.01.06,0,.01,0,.02,0,.04v13.68c0,.14.12.26.26.26h10.18c.14,0,.26-.12.26-.26s-.12-.26-.26-.26H.62V.96l8.91,8.24c.05.05.11.07.18.07s.13-.02.18-.07L18.81.96v12.82h-.85c-.14,0-.26.12-.26.26s.12.26.26.26h1.11c.14,0,.26-.12.26-.26V.36s0-.02,0-.04c0-.02,0-.04-.01-.06,0-.02-.02-.03-.03-.05,0-.01-.01-.02-.02-.03,0,0,0,0,0,0-.01-.01-.03-.02-.05-.04-.01,0-.02-.02-.03-.02-.01,0-.03,0-.04,0-.02,0-.04-.01-.06-.01,0,0,0,0,0,0H.36ZM9.71,8.65L1.03.62h17.37l-8.68,8.02Z"/>
        <path class="cls-1" d="M19.07,14.4h-1.11c-.2,0-.36-.16-.36-.36s.16-.36.36-.36h.75V1.18l-8.75,8.08c-.13.12-.36.12-.49,0L.72,1.18v12.49h9.82c.2,0,.36.16.36.36s-.16.36-.36.36H.36c-.2,0-.36-.16-.36-.36V.36s0-.04,0-.05c0-.03,0-.06.02-.08.01-.03.02-.05.04-.06.01-.02.02-.03.03-.05,0,0,.01-.01.02-.02,0,0,.03-.02.04-.03.02-.02.04-.03.05-.03.02,0,.04-.01.05-.01.03,0,.06-.02.09-.02h0s18.71,0,18.71,0c0,0,.01,0,.02,0,.03,0,.05,0,.07.01,0,0,.06.01.06.02.02,0,.03.02.04.03.03.02.05.03.07.05.02.02.03.04.03.05.02.02.03.04.04.07.01.03.01.05.02.07,0,0,.01.05.01.06v13.68c0,.2-.16.36-.36.36ZM17.96,13.87c-.09,0-.16.07-.16.16s.07.16.16.16h1.11c.09,0,.16-.07.16-.16V.36s0-.01,0-.02v-.04s-.01-.01-.02-.02c0,0-.02-.03-.02-.03,0,0,0,0,0,0,0,0,0,0-.02,0l-.03-.02s-.02,0-.03,0c-.05-.01-.05,0-.06-.01H.37s-.01,0-.04.01c0,0-.03,0-.03,0,0,0-.02.01-.02.01-.02.01-.03.02-.03.02h0s-.01.02-.01.02c-.01.02-.02.03-.02.03,0,0,0,.02,0,.03,0,.02,0,.03,0,.04v13.67c0,.09.07.16.16.16h10.18c.09,0,.16-.07.16-.16s-.07-.16-.16-.16H.62c-.05,0-.1-.04-.1-.1V.96s.02-.07.06-.09c.04-.02.08,0,.11.02l8.91,8.24c.06.06.16.06.22,0L18.74.89s.07-.03.11-.02c.04.02.06.05.06.09v12.82c0,.05-.04.1-.1.1h-.85ZM9.71,8.74s-.05,0-.07-.03L.96.69s-.04-.07-.02-.11c.01-.04.05-.06.09-.06h17.37s.08.02.09.06c.01.04,0,.08-.02.11l-8.68,8.02s-.04.03-.07.03ZM1.28.72l8.43,7.79L18.15.72H1.28Z"/>
      </g>
      <g>
        <g>
          <g>
            <path class="cls-1" d="M14.22,17.47c-1.96,0-3.55-1.59-3.55-3.55s1.59-3.55,3.55-3.55,3.55,1.59,3.55,3.55-1.59,3.55-3.55,3.55ZM14.22,10.57c-1.85,0-3.35,1.5-3.35,3.35s1.5,3.35,3.35,3.35,3.35-1.5,3.35-3.35-1.5-3.35-3.35-3.35Z"/>
            <path class="cls-1" d="M14.22,17.57c-2.01,0-3.65-1.64-3.65-3.65s1.64-3.64,3.65-3.64,3.64,1.63,3.64,3.64-1.63,3.65-3.64,3.65ZM14.22,10.67c-1.8,0-3.26,1.46-3.26,3.26s1.46,3.26,3.26,3.26,3.26-1.46,3.26-3.26-1.46-3.26-3.26-3.26Z"/>
          </g>
          <g>
            <path class="cls-1" d="M14.22,17.57c-2.01,0-3.64-1.63-3.64-3.64s1.64-3.65,3.64-3.65,3.65,1.64,3.65,3.65-1.64,3.64-3.65,3.64ZM14.22,10.67c-1.8,0-3.26,1.46-3.26,3.26s1.46,3.26,3.26,3.26,3.26-1.46,3.26-3.26-1.46-3.26-3.26-3.26Z"/>
            <path class="cls-1" d="M14.22,17.67c-2.06,0-3.74-1.68-3.74-3.74s1.68-3.74,3.74-3.74,3.74,1.68,3.74,3.74-1.68,3.74-3.74,3.74ZM14.22,10.38c-1.96,0-3.55,1.59-3.55,3.55s1.59,3.55,3.55,3.55,3.55-1.59,3.55-3.55-1.59-3.55-3.55-3.55ZM14.22,17.28c-1.85,0-3.35-1.5-3.35-3.35s1.5-3.35,3.35-3.35,3.35,1.5,3.35,3.35-1.5,3.35-3.35,3.35ZM14.22,10.77c-1.74,0-3.16,1.42-3.16,3.16s1.42,3.16,3.16,3.16,3.16-1.42,3.16-3.16-1.42-3.16-3.16-3.16Z"/>
          </g>
        </g>
        <g>
          <g>
            <path class="cls-1" d="M12.71,15.45s-.04-.1,0-.14l2.87-2.87s.1-.04.14,0c.04.04.04.1,0,.14l-2.87,2.87s-.1.04-.14,0Z"/>
            <path class="cls-1" d="M12.78,15.58s-.1-.02-.14-.06c-.08-.08-.08-.2,0-.28l2.87-2.87c.08-.08.2-.08.28,0,.08.08.08.2,0,.28l-2.87,2.87s-.09.06-.14.06Z"/>
          </g>
          <g>
            <path class="cls-1" d="M12.78,15.58s-.1-.02-.14-.06c-.08-.08-.08-.2,0-.28l2.87-2.87c.08-.08.2-.08.28,0,.08.08.08.2,0,.28l-2.87,2.87s-.09.06-.14.06Z"/>
            <path class="cls-1" d="M12.78,15.68c-.08,0-.15-.03-.21-.09-.11-.11-.11-.3,0-.41l2.87-2.87c.11-.11.3-.11.41,0,.11.11.11.3,0,.41l-2.87,2.87c-.06.06-.13.09-.21.09ZM15.65,12.42s-.05,0-.07.03l-2.87,2.87s-.04.1,0,.14c.04.04.1.04.14,0l2.87-2.87s.04-.1,0-.14c-.02-.02-.04-.03-.07-.03Z"/>
          </g>
        </g>
        <g>
          <g>
            <path class="cls-1" d="M15.58,15.45l-2.87-2.87s-.04-.1,0-.14.1-.04.14,0l2.87,2.87s.04.1,0,.14-.1.04-.14,0Z"/>
            <path class="cls-1" d="M15.65,15.58s-.1-.02-.14-.06l-2.87-2.87c-.08-.08-.08-.2,0-.28.08-.08.2-.08.28,0l2.87,2.87c.08.08.08.2,0,.28-.04.04-.09.06-.14.06ZM15.65,15.38l-.07.07.07-.07h0Z"/>
          </g>
          <g>
            <path class="cls-1" d="M15.65,15.58s-.1-.02-.14-.06l-2.87-2.87c-.08-.08-.08-.2,0-.28.08-.08.2-.08.28,0l2.87,2.87c.08.08.08.2,0,.28-.04.04-.09.06-.14.06Z"/>
            <path class="cls-1" d="M15.65,15.68c-.08,0-.15-.03-.21-.09l-2.87-2.87c-.11-.11-.11-.3,0-.41.11-.11.3-.11.41,0l2.87,2.87c.11.11.11.3,0,.41-.06.06-.13.09-.21.09ZM12.78,12.42s-.05,0-.07.03c-.04.04-.04.1,0,.14l2.87,2.87s.1.04.14,0c.04-.04.04-.1,0-.14l-2.87-2.87s-.04-.03-.07-.03Z"/>
          </g>
        </g>
      </g>
    </g>
  </g>
</svg>