<?xml version="1.0" encoding="UTF-8"?>
<svg id="Layer_2" data-name="Layer 2" xmlns="http://www.w3.org/2000/svg" viewBox="0 0 19.5 20.81">
  <defs>
    <style>
      .cls-1 {
        fill: #1f1f1f;
      }
    </style>
  </defs>
  <g id="Object">
    <g>
      <g>
        <path class="cls-1" d="M13.11,4.38c-.09,0-.18-.05-.23-.14l-1.7-3.07c-.04-.07-.04-.16,0-.24.03-.08.1-.13.19-.15L14.8.1c.14-.03.28.06.31.21s-.06.28-.21.31l-3.09.62,1.53,2.76c.07.13.02.29-.1.36-.04.02-.08.03-.13.03Z"/>
        <path class="cls-1" d="M13.11,4.48c-.13,0-.25-.07-.32-.19l-1.7-3.07c-.06-.1-.06-.22-.01-.33.05-.1.14-.18.26-.2L14.78,0c.19-.04.39.09.42.28.04.19-.09.38-.28.42l-2.96.59,1.46,2.64c.05.08.06.18.03.27-.03.09-.09.17-.17.22-.05.03-.11.05-.17.05ZM14.85.2s-.02,0-.03,0l-3.44.69c-.05.01-.09.04-.12.09-.02.05-.02.1,0,.15l1.7,3.07c.04.08.15.11.22.06.04-.02.07-.06.08-.1.01-.04,0-.09-.01-.12l-1.53-2.76s-.02-.06,0-.09c.01-.03.04-.05.07-.06l3.09-.62c.09-.02.15-.1.13-.19-.02-.08-.08-.13-.16-.13Z"/>
      </g>
      <g>
        <path class="cls-1" d="M4.76,20.71c-.12,0-.23-.09-.26-.21-.03-.14.06-.28.21-.31l3.09-.62-1.53-2.76c-.07-.13-.02-.29.1-.36.13-.07.29-.02.36.1l1.7,3.07c.04.07.04.16,0,.24-.04.08-.1.13-.19.15l-3.44.69s-.03,0-.05,0Z"/>
        <path class="cls-1" d="M4.76,20.81c-.17,0-.32-.12-.35-.29-.02-.09,0-.19.05-.27s.13-.13.23-.15l2.96-.59-1.46-2.64c-.05-.08-.06-.18-.03-.27.03-.09.09-.17.17-.22.17-.1.39-.03.49.14l1.7,3.07c.06.1.06.22.01.33-.05.1-.14.18-.26.2l-3.44.69s-.05,0-.07,0ZM6.51,16.52s-.05,0-.08.02c-.04.02-.07.06-.08.1-.01.04,0,.09.01.12l1.53,2.76s.02.06,0,.09c-.01.03-.04.05-.07.06l-3.09.62s-.08.03-.1.07c-.02.04-.03.08-.02.12.02.09.1.15.19.13l3.44-.69c.05-.01.09-.04.12-.09.02-.05.02-.1,0-.15l-1.7-3.07c-.03-.05-.09-.08-.14-.08Z"/>
      </g>
      <g>
        <path class="cls-1" d="M8.09,19.91s-.03,0-.05,0c-1.89-.34-3.62-1.22-5-2.56C-.79,13.65-.89,7.52,2.8,3.7c1.42-1.47,3.23-2.44,5.24-2.79.14-.02.28.07.3.21.03.14-.07.28-.21.3-1.9.34-3.61,1.25-4.95,2.64C-.32,7.68-.22,13.47,3.41,16.97c1.31,1.26,2.94,2.1,4.73,2.42.14.03.24.16.21.3-.02.13-.13.22-.26.22Z"/>
        <path class="cls-1" d="M8.09,20s-.04,0-.06,0c-1.91-.34-3.65-1.23-5.05-2.58-3.87-3.73-3.98-9.92-.24-13.79,1.43-1.48,3.26-2.46,5.29-2.82.2-.03.38.1.42.29.02.09,0,.19-.06.27-.06.08-.14.13-.23.15-1.88.34-3.57,1.24-4.9,2.61C-.21,7.71-.11,13.44,3.47,16.9c1.29,1.25,2.91,2.08,4.68,2.39.2.03.33.22.29.42-.03.17-.18.3-.35.3ZM8.09.99s-.02,0-.03,0c-1.99.36-3.78,1.31-5.18,2.77-3.66,3.79-3.55,9.85.24,13.51,1.37,1.32,3.08,2.2,4.95,2.53.09.02.17-.04.19-.13.02-.09-.04-.17-.13-.19-1.8-.32-3.46-1.17-4.78-2.44C-.32,13.5-.43,7.65,3.11,3.99c1.36-1.4,3.09-2.33,5.01-2.67.04,0,.08-.03.11-.07.03-.04.03-.08.03-.12-.01-.08-.08-.13-.16-.13Z"/>
      </g>
      <g>
        <path class="cls-1" d="M11.41,19.9c-.12,0-.23-.09-.26-.22-.03-.14.07-.28.21-.3,1.9-.34,3.61-1.25,4.95-2.64,1.69-1.75,2.6-4.06,2.56-6.5-.04-2.44-1.03-4.71-2.79-6.41-1.31-1.26-2.94-2.1-4.73-2.42-.14-.03-.24-.16-.21-.3.03-.14.16-.24.3-.21,1.89.34,3.62,1.22,5,2.56,1.85,1.79,2.9,4.2,2.95,6.78.05,2.58-.92,5.02-2.71,6.87-1.42,1.47-3.23,2.44-5.24,2.79-.02,0-.03,0-.05,0Z"/>
        <path class="cls-1" d="M11.41,20c-.17,0-.32-.12-.35-.3-.02-.09,0-.19.06-.27.06-.08.14-.13.23-.15,1.88-.34,3.57-1.24,4.9-2.61,1.68-1.74,2.57-4.02,2.53-6.43-.04-2.41-1.02-4.66-2.76-6.34-1.29-1.25-2.91-2.08-4.68-2.39-.2-.03-.33-.22-.29-.42.02-.09.07-.18.15-.23.08-.05.17-.08.27-.06,1.91.34,3.65,1.23,5.05,2.58,1.87,1.81,2.93,4.24,2.98,6.84.05,2.6-.92,5.07-2.73,6.94-1.43,1.48-3.26,2.46-5.29,2.82-.02,0-.04,0-.06,0ZM11.41.99s-.07.01-.09.03c-.04.03-.06.06-.07.11,0,.04,0,.09.03.12s.06.06.11.07c1.8.32,3.46,1.17,4.78,2.44,1.77,1.71,2.77,4.01,2.82,6.48.04,2.46-.88,4.8-2.59,6.57-1.36,1.4-3.09,2.33-5.01,2.67-.04,0-.08.03-.11.07-.03.04-.03.08-.03.12.02.09.1.15.19.13,1.99-.36,3.78-1.31,5.19-2.77,1.77-1.84,2.72-4.25,2.68-6.8-.04-2.55-1.08-4.93-2.92-6.71-1.37-1.32-3.08-2.2-4.95-2.53,0,0-.02,0-.03,0Z"/>
      </g>
    </g>
  </g>
</svg>