<?xml version="1.0" encoding="UTF-8"?>
<svg id="Layer_2" data-name="Layer 2" xmlns="http://www.w3.org/2000/svg" viewBox="0 0 19.43 19.2">
  <defs>
    <style>
      .cls-1 {
        fill: #1f1f1f;
      }
    </style>
  </defs>
  <g id="Object">
    <g>
      <g>
        <path class="cls-1" d="M19.07.1H.36C.22.1.1.22.1.36v18.47c0,.14.12.26.26.26h18.71c.14,0,.26-.12.26-.26V.36c0-.14-.12-.26-.26-.26ZM18.81.62v3.3H.62V.62h18.18ZM.62,18.57V4.44h18.18v14.13H.62Z"/>
        <path class="cls-1" d="M19.07,19.2H.36c-.2,0-.36-.16-.36-.36V.36c0-.2.16-.36.36-.36h18.71c.2,0,.36.16.36.36v18.47c0,.2-.16.36-.36.36ZM.36.2c-.09,0-.16.07-.16.16v18.47c0,.09.07.16.16.16h18.71c.09,0,.16-.07.16-.16V.36c0-.09-.07-.16-.16-.16H.36ZM18.81,18.67H.62c-.05,0-.1-.04-.1-.1V4.44c0-.05.04-.1.1-.1h18.18c.05,0,.1.04.1.1v14.13c0,.05-.04.1-.1.1ZM.72,18.47h17.99V4.54H.72v13.93ZM18.81,4.02H.62c-.05,0-.1-.04-.1-.1V.62c0-.05.04-.1.1-.1h18.18c.05,0,.1.04.1.1v3.3c0,.05-.04.1-.1.1ZM.72,3.82h17.99V.72H.72v3.1Z"/>
      </g>
      <g>
        <path class="cls-1" d="M2.19,3.16c.48,0,.86-.39.86-.86s-.39-.86-.86-.86-.86.39-.86.86.39.86.86.86ZM2.19,1.96c.19,0,.34.15.34.34s-.15.34-.34.34-.34-.15-.34-.34.15-.34.34-.34Z"/>
        <path class="cls-1" d="M2.19,3.26c-.53,0-.96-.43-.96-.96s.43-.96.96-.96.96.43.96.96-.43.96-.96.96ZM2.19,1.53c-.42,0-.76.34-.76.76s.34.76.76.76.76-.34.76-.76-.34-.76-.76-.76ZM2.19,2.73c-.24,0-.44-.2-.44-.44s.2-.44.44-.44.44.2.44.44-.2.44-.44.44ZM2.19,2.06c-.13,0-.24.11-.24.24s.11.24.24.24.24-.11.24-.24-.11-.24-.24-.24Z"/>
      </g>
      <g>
        <path class="cls-1" d="M4.37,3.16c.48,0,.86-.39.86-.86s-.39-.86-.86-.86-.86.39-.86.86.39.86.86.86ZM4.37,1.96c.19,0,.34.15.34.34s-.15.34-.34.34-.34-.15-.34-.34.15-.34.34-.34Z"/>
        <path class="cls-1" d="M4.37,3.26c-.53,0-.96-.43-.96-.96s.43-.96.96-.96.96.43.96.96-.43.96-.96.96ZM4.37,1.53c-.42,0-.76.34-.76.76s.34.76.76.76.76-.34.76-.76-.34-.76-.76-.76ZM4.37,2.73c-.24,0-.44-.2-.44-.44s.2-.44.44-.44.44.2.44.44-.2.44-.44.44ZM4.37,2.06c-.13,0-.24.11-.24.24s.11.24.24.24.24-.11.24-.24-.11-.24-.24-.24Z"/>
      </g>
      <g>
        <path class="cls-1" d="M6.55,3.16c.48,0,.86-.39.86-.86s-.39-.86-.86-.86-.86.39-.86.86.39.86.86.86ZM6.55,1.96c.19,0,.34.15.34.34s-.15.34-.34.34-.34-.15-.34-.34.15-.34.34-.34Z"/>
        <path class="cls-1" d="M6.55,3.26c-.53,0-.96-.43-.96-.96s.43-.96.96-.96.96.43.96.96-.43.96-.96.96ZM6.55,1.53c-.42,0-.76.34-.76.76s.34.76.76.76.76-.34.76-.76-.34-.76-.76-.76ZM6.55,2.73c-.24,0-.44-.2-.44-.44s.2-.44.44-.44.44.2.44.44-.2.44-.44.44ZM6.55,2.06c-.13,0-.24.11-.24.24s.11.24.24.24.24-.11.24-.24-.11-.24-.24-.24Z"/>
      </g>
    </g>
  </g>
</svg>