<?xml version="1.0" encoding="UTF-8"?>
<svg id="Layer_2" data-name="Layer 2" xmlns="http://www.w3.org/2000/svg" viewBox="0 0 15.86 19.2">
  <defs>
    <style>
      .cls-1 {
        fill: #1f1f1f;
      }
    </style>
  </defs>
  <g id="Object">
    <g>
      <path class="cls-1" d="M12.23.1H.36C.22.1.1.22.1.36v14.72c0,.14.12.26.26.26h3v3.5c0,.14.12.26.26.26h8.8s.07,0,.1-.02c.03-.01.06-.03.08-.06,0,0,0,0,0,0l3.07-3.19s.04-.05.05-.07c0,0,0-.02,0-.02,0-.02.01-.05.01-.07,0,0,0,0,0-.02V4.12c0-.14-.12-.26-.26-.26h-3V.36c0-.14-.12-.26-.26-.26ZM.62,14.82V.62h11.35v11h-3.05c-.14,0-.26.12-.26.26v2.93H.62ZM11.58,12.15l-2.4,2.31v-2.31h2.4ZM12.68,18.19v-2.28h2.19l-2.19,2.28ZM15.23,4.38v11h-2.81c-.14,0-.26.12-.26.26v2.93H3.89v-3.23h5.03s.07,0,.1-.02c.02,0,.03-.02.04-.03.01,0,.03-.01.04-.03h0s0,0,0,0h0s3.31-3.19,3.31-3.19c.05-.05.08-.12.08-.19v-7.51h2.74Z"/>
      <path class="cls-1" d="M12.42,19.2H3.63c-.2,0-.36-.16-.36-.36v-3.4H.36c-.2,0-.36-.16-.36-.36V.36c0-.2.16-.36.36-.36h11.87c.2,0,.36.16.36.36v3.4h2.9c.2,0,.36.16.36.36v11.53s0,.03,0,.04c0,.02,0,.05-.02.08,0,0,0,.03-.01.03-.02.04-.04.07-.07.1l-3.07,3.19s-.01.01-.02.01c-.04.03-.07.05-.1.07-.04.02-.09.03-.14.03ZM12.61,19.02h0,0ZM.36.2c-.09,0-.16.07-.16.16v14.72c0,.09.07.16.16.16h3c.05,0,.1.04.1.1v3.5c0,.09.07.16.16.16h8.8s.04,0,.06-.01c.02,0,.04-.02.05-.04,0,0,0,0,.01-.01l3.06-3.18s.02-.03.03-.05c0-.03.01-.04.01-.06,0,0,0-.02,0-.03V4.12c0-.09-.08-.16-.17-.16h-3c-.05,0-.1-.04-.1-.1V.36c0-.09-.07-.16-.16-.16H.36ZM12.16,18.67H3.89c-.05,0-.1-.04-.1-.1v-3.23c0-.05.04-.1.1-.1h5.03s.04,0,.06-.01c0,0,.02-.02.03-.02l.07.07-.04-.09,3.31-3.19s.05-.07.05-.12v-7.51c0-.05.04-.1.1-.1h2.74c.05,0,.1.04.1.1v11c0,.05-.04.1-.1.1h-2.81c-.09,0-.16.07-.16.16v2.93c0,.05-.04.1-.1.1ZM3.99,18.47h8.08v-2.83c0-.2.16-.36.36-.36h2.71V4.48h-2.54v7.41c0,.1-.04.19-.11.26l-3.31,3.19s-.04.03-.05.04c-.03.02-.04.03-.07.04-.04.02-.09.03-.14.03H3.99v3.04ZM12.68,18.28s-.02,0-.04,0c-.04-.01-.06-.05-.06-.09v-2.28c0-.05.04-.1.1-.1h2.19s.07.02.09.06c.02.04,0,.08-.02.11l-2.19,2.28s-.04.03-.07.03ZM12.78,16.01v1.94l1.86-1.94h-1.86ZM8.66,14.91H.62c-.05,0-.1-.04-.1-.1V.62c0-.05.04-.1.1-.1h11.35c.05,0,.1.04.1.1v11c0,.05-.04.1-.1.1h-3.05c-.09,0-.16.07-.16.16v2.93c0,.05-.04.1-.1.1ZM.72,14.72h7.84v-2.83c0-.2.16-.36.36-.36h2.95V.72H.72v14ZM9.18,14.56s-.03,0-.04,0c-.04-.02-.06-.05-.06-.09v-2.31c0-.05.04-.1.1-.1h2.4s.08.02.09.06c.02.04,0,.08-.02.11l-2.4,2.31s-.04.03-.07.03ZM9.28,12.25v1.98l2.06-1.98h-2.06Z"/>
    </g>
  </g>
</svg>