<?xml version="1.0" encoding="UTF-8"?>
<svg id="Layer_2" data-name="Layer 2" xmlns="http://www.w3.org/2000/svg" viewBox="0 0 19.43 19.2">
  <defs>
    <style>
      .cls-1 {
        fill: #1f1f1f;
      }
    </style>
  </defs>
  <g id="Object">
    <g>
      <g>
        <path class="cls-1" d="M19.07,19.1H.36c-.14,0-.26-.12-.26-.26V.36C.1.22.22.1.36.1h18.71c.14,0,.26.12.26.26v18.47c0,.14-.12.26-.26.26ZM.62,18.57h18.18V.62H.62v17.95Z"/>
        <path class="cls-1" d="M19.07,19.2H.36c-.2,0-.36-.16-.36-.36V.36c0-.2.16-.36.36-.36h18.71c.2,0,.36.16.36.36v18.47c0,.2-.16.36-.36.36ZM.36.2c-.09,0-.16.07-.16.16v18.47c0,.09.07.16.16.16h18.71c.09,0,.16-.07.16-.16V.36c0-.09-.07-.16-.16-.16H.36ZM18.81,18.67H.62c-.05,0-.1-.04-.1-.1V.62c0-.05.04-.1.1-.1h18.18c.05,0,.1.04.1.1v17.95c0,.05-.04.1-.1.1ZM.72,18.47h17.99V.72H.72v17.75Z"/>
      </g>
      <g>
        <g>
          <path class="cls-1" d="M5.68,8.4c-.14,0-.26-.12-.26-.26V3.94c0-.14.12-.26.26-.26s.26.12.26.26v4.19c0,.14-.12.26-.26.26Z"/>
          <path class="cls-1" d="M5.68,8.5c-.2,0-.36-.16-.36-.36V3.94c0-.2.16-.36.36-.36s.36.16.36.36v4.19c0,.2-.16.36-.36.36ZM5.68,3.78c-.09,0-.16.07-.16.16v4.19c0,.09.07.16.16.16s.16-.07.16-.16V3.94c0-.09-.07-.16-.16-.16Z"/>
        </g>
        <g>
          <path class="cls-1" d="M7.78,6.3H3.59c-.14,0-.26-.12-.26-.26s.12-.26.26-.26h4.19c.14,0,.26.12.26.26s-.12.26-.26.26Z"/>
          <path class="cls-1" d="M7.78,6.4H3.59c-.2,0-.36-.16-.36-.36s.16-.36.36-.36h4.19c.2,0,.36.16.36.36s-.16.36-.36.36ZM3.59,5.88c-.09,0-.16.07-.16.16s.07.16.16.16h4.19c.09,0,.16-.07.16-.16s-.07-.16-.16-.16H3.59Z"/>
        </g>
        <g>
          <path class="cls-1" d="M15.84,6.3h-4.19c-.14,0-.26-.12-.26-.26s.12-.26.26-.26h4.19c.14,0,.26.12.26.26s-.12.26-.26.26Z"/>
          <path class="cls-1" d="M15.84,6.4h-4.19c-.2,0-.36-.16-.36-.36s.16-.36.36-.36h4.19c.2,0,.36.16.36.36s-.16.36-.36.36ZM11.65,5.88c-.09,0-.16.07-.16.16s.07.16.16.16h4.19c.09,0,.16-.07.16-.16s-.07-.16-.16-.16h-4.19Z"/>
        </g>
        <g>
          <path class="cls-1" d="M15.84,14.03h-4.19c-.14,0-.26-.12-.26-.26s.12-.26.26-.26h4.19c.14,0,.26.12.26.26s-.12.26-.26.26Z"/>
          <path class="cls-1" d="M15.84,14.13h-4.19c-.2,0-.36-.16-.36-.36s.16-.36.36-.36h4.19c.2,0,.36.16.36.36s-.16.36-.36.36ZM11.65,13.6c-.09,0-.16.07-.16.16s.07.16.16.16h4.19c.09,0,.16-.07.16-.16s-.07-.16-.16-.16h-4.19Z"/>
        </g>
        <g>
          <path class="cls-1" d="M4.2,15.29c-.07,0-.13-.03-.19-.08-.1-.1-.1-.27,0-.37l2.96-2.97c.1-.1.27-.1.37,0s.1.27,0,.37l-2.97,2.97c-.05.05-.12.08-.19.08Z"/>
          <path class="cls-1" d="M4.2,15.39c-.1,0-.19-.04-.25-.11-.14-.14-.14-.37,0-.51l2.96-2.97c.14-.14.37-.14.51,0,.14.14.14.37,0,.51l-2.96,2.97c-.07.07-.16.11-.25.11ZM7.16,11.9s-.08.02-.12.05l-2.97,2.96c-.06.06-.06.17,0,.23.06.06.17.06.23,0l2.97-2.97c.06-.06.06-.17,0-.23-.03-.03-.07-.05-.12-.05Z"/>
        </g>
        <g>
          <path class="cls-1" d="M7.16,15.29c-.07,0-.13-.03-.19-.08l-2.96-2.97c-.1-.1-.1-.27,0-.37.1-.1.27-.1.37,0l2.97,2.97c.1.1.1.27,0,.37-.05.05-.12.08-.19.08Z"/>
          <path class="cls-1" d="M7.16,15.39c-.1,0-.19-.04-.26-.11l-2.96-2.97c-.14-.14-.14-.37,0-.51.14-.14.37-.14.51,0l2.96,2.97c.14.14.14.37,0,.51-.07.07-.16.11-.25.11ZM4.2,11.9s-.08.02-.12.05c-.06.06-.06.17,0,.23l2.97,2.97c.06.06.17.06.23,0,.06-.06.06-.17,0-.23l-2.97-2.96s-.07-.05-.12-.05Z"/>
        </g>
        <g>
          <path class="cls-1" d="M14.21,12.54h-.83c-.14,0-.26-.12-.26-.26s.12-.26.26-.26h.83c.14,0,.26.12.26.26s-.12.26-.26.26Z"/>
          <path class="cls-1" d="M14.21,12.64h-.83c-.2,0-.36-.16-.36-.36s.16-.36.36-.36h.83c.2,0,.36.16.36.36s-.16.36-.36.36ZM13.38,12.12c-.09,0-.16.07-.16.16s.07.16.16.16h.83c.09,0,.16-.07.16-.16s-.07-.16-.16-.16h-.83Z"/>
        </g>
        <g>
          <path class="cls-1" d="M14.21,15.51h-.83c-.14,0-.26-.12-.26-.26s.12-.26.26-.26h.83c.14,0,.26.12.26.26s-.12.26-.26.26Z"/>
          <path class="cls-1" d="M14.21,15.61h-.83c-.2,0-.36-.16-.36-.36s.16-.36.36-.36h.83c.2,0,.36.16.36.36s-.16.36-.36.36ZM13.38,15.09c-.09,0-.16.07-.16.16s.07.16.16.16h.83c.09,0,.16-.07.16-.16s-.07-.16-.16-.16h-.83Z"/>
        </g>
      </g>
    </g>
  </g>
</svg>