<?xml version="1.0" encoding="UTF-8"?>
<svg id="Layer_2" data-name="Layer 2" xmlns="http://www.w3.org/2000/svg" viewBox="0 0 19.16 14.41">
  <defs>
    <style>
      .cls-1 {
        fill: #1f1f1f;
      }
    </style>
  </defs>
  <g id="Object">
    <g>
      <g>
        <path class="cls-1" d="M10.99.16L3.35,3.92c-.08.04-.17.06-.26.06H.69c-.33,0-.59.27-.59.59v4.67c0,.33.27.59.59.59h2.29c.1,0,.2.03.29.08l7.69,4.32c.4.22.88-.06.88-.52V.69c0-.44-.46-.73-.86-.53ZM2.98,9.31H.62v-4.8h2.36v4.8ZM11.33,13.83l-7.82-4.39v-5.01L11.33.58v13.25Z"/>
        <path class="cls-1" d="M11.26,14.41c-.12,0-.23-.03-.34-.09l-7.69-4.32c-.07-.04-.16-.06-.24-.06H.69c-.38,0-.69-.31-.69-.69v-4.67c0-.38.31-.69.69-.69h2.39c.08,0,.15-.02.22-.05L10.95.07c.22-.11.47-.09.67.03.2.13.33.35.33.59v13.02c0,.25-.13.47-.34.6-.11.06-.23.1-.35.1ZM.69,4.08c-.27,0-.49.22-.49.49v4.67c0,.27.22.5.49.5h2.29c.12,0,.24.03.34.09l7.69,4.32c.16.09.34.09.49,0,.15-.09.24-.25.24-.43V.69c0-.17-.09-.33-.23-.42-.15-.09-.33-.1-.48-.02h0l-7.65,3.76c-.09.05-.2.07-.31.07H.69ZM10.99.16h0,0ZM11.33,13.93s-.03,0-.05-.01l-7.82-4.39s-.05-.05-.05-.09v-5.01s.02-.07.05-.09L11.28.49s.07-.01.1,0c.03.02.05.05.05.08v13.25s-.02.07-.05.08c-.02,0-.03.01-.05.01ZM3.6,9.38l7.62,4.28V.74l-7.62,3.75v4.89ZM2.98,9.41H.62c-.05,0-.1-.04-.1-.1v-4.8c0-.05.04-.1.1-.1h2.36c.05,0,.1.04.1.1v4.8c0,.05-.04.1-.1.1ZM.72,9.21h2.16v-4.61H.72v4.61Z"/>
      </g>
      <g>
        <g>
          <path class="cls-1" d="M18.8,7.46h-4.68c-.14,0-.26-.12-.26-.26s.12-.26.26-.26h4.68c.14,0,.26.12.26.26s-.12.26-.26.26Z"/>
          <path class="cls-1" d="M18.8,7.56h-4.68c-.2,0-.36-.16-.36-.36s.16-.36.36-.36h4.68c.2,0,.36.16.36.36s-.16.36-.36.36ZM14.11,7.04c-.09,0-.16.07-.16.16s.07.16.16.16h4.68c.09,0,.16-.07.16-.16s-.07-.16-.16-.16h-4.68Z"/>
        </g>
        <g>
          <path class="cls-1" d="M16.46,9.81c-.14,0-.26-.12-.26-.26v-4.68c0-.14.12-.26.26-.26s.26.12.26.26v4.68c0,.14-.12.26-.26.26Z"/>
          <path class="cls-1" d="M16.46,9.91c-.2,0-.36-.16-.36-.36v-4.68c0-.2.16-.36.36-.36s.36.16.36.36v4.68c0,.2-.16.36-.36.36ZM16.46,4.7c-.09,0-.16.07-.16.16v4.68c0,.09.07.16.16.16s.16-.07.16-.16v-4.68c0-.09-.07-.16-.16-.16Z"/>
        </g>
      </g>
    </g>
  </g>
</svg>