<?xml version="1.0" encoding="UTF-8"?>
<svg id="Layer_2" data-name="Layer 2" xmlns="http://www.w3.org/2000/svg" viewBox="0 0 12.78 19.2">
  <defs>
    <style>
      .cls-1 {
        fill: #1f1f1f;
      }
    </style>
  </defs>
  <g id="Object">
    <g>
      <g>
        <path class="cls-1" d="M12.42,19.1H.36c-.14,0-.26-.12-.26-.26V4.42c0-.14.12-.26.26-.26h12.06c.14,0,.26.12.26.26v14.41c0,.14-.12.26-.26.26ZM.62,18.57h11.53V4.68H.62v13.89Z"/>
        <path class="cls-1" d="M12.42,19.2H.36c-.2,0-.36-.16-.36-.36V4.42c0-.2.16-.36.36-.36h12.06c.2,0,.36.16.36.36v14.41c0,.2-.16.36-.36.36ZM.36,4.26c-.09,0-.16.07-.16.16v14.41c0,.09.07.16.16.16h12.06c.09,0,.16-.07.16-.16V4.42c0-.09-.07-.16-.16-.16H.36ZM12.15,18.67H.62c-.05,0-.1-.04-.1-.1V4.68c0-.05.04-.1.1-.1h11.53c.05,0,.1.04.1.1v13.89c0,.05-.04.1-.1.1ZM.72,18.48h11.33V4.78H.72v13.69Z"/>
      </g>
      <g>
        <path class="cls-1" d="M10.25,7.5c-.14,0-.26-.12-.26-.26v-3.01c0-1.99-1.62-3.6-3.6-3.6s-3.6,1.62-3.6,3.6v3.01c0,.14-.12.26-.26.26s-.26-.12-.26-.26v-3.01C2.26,1.95,4.11.1,6.39.1s4.13,1.85,4.13,4.13v3.01c0,.14-.12.26-.26.26Z"/>
        <path class="cls-1" d="M10.25,7.6c-.2,0-.36-.16-.36-.36v-3.01c0-1.93-1.57-3.51-3.51-3.51s-3.51,1.57-3.51,3.51v3.01c0,.2-.16.36-.36.36s-.36-.16-.36-.36v-3.01C2.16,1.9,4.06,0,6.39,0s4.23,1.9,4.23,4.23v3.01c0,.2-.16.36-.36.36ZM6.39.52c2.04,0,3.7,1.66,3.7,3.7v3.01c0,.09.07.16.16.16s.16-.07.16-.16v-3.01C10.42,2,8.61.2,6.39.2S2.36,2,2.36,4.23v3.01c0,.09.07.16.16.16s.16-.07.16-.16v-3.01c0-2.04,1.66-3.7,3.7-3.7Z"/>
      </g>
    </g>
  </g>
</svg>