<?xml version="1.0" encoding="UTF-8"?>
<svg id="Layer_2" data-name="Layer 2" xmlns="http://www.w3.org/2000/svg" viewBox="0 0 19.1 19.29">
  <defs>
    <style>
      .cls-1 {
        fill: #1f1f1f;
      }
    </style>
  </defs>
  <g id="Object">
    <g>
      <g>
        <path class="cls-1" d="M14.63,9.79c-.2-.2-.52-.2-.72,0l-1.29,1.29-4.66-4.66,1.29-1.29c.23-.23.23-.59,0-.82l-2.78-2.78c-.28-.28-.74-.28-1.03,0l-3.5,3.5c-.26.26-.26.67,0,.93l9.54,9.54c.1.1.27.1.37,0,.1-.1.1-.27,0-.37L2.23,5.49l2.68-2.68,2.97,2.97-.34.34c-.17.17-.17.44,0,.61l4.79,4.79c.17.17.43.17.6,0l.37-.37,3.03,3.03-2.74,2.74c-.1.1-.1.27,0,.37h0c.1.1.27.1.37,0l3.65-3.65c.26-.26.25-.67,0-.93l-2.97-2.94ZM5.29,2.44l.68-.68,2.97,2.97-.68.68-2.97-2.97ZM16.71,13.81l-3.03-3.03.6-.6,3.05,3.02-.62.62Z"/>
        <path class="cls-1" d="M13.78,17.47c-.09,0-.18-.04-.25-.11-.07-.07-.11-.16-.11-.25s.04-.19.11-.26l2.68-2.68-2.9-2.9-.3.3c-.2.2-.54.2-.74,0l-4.79-4.79c-.21-.21-.21-.54,0-.75l.28-.28-2.83-2.83-2.55,2.55,9.57,9.57c.07.07.11.16.11.26s-.04.19-.11.25c-.14.14-.37.14-.51,0L1.88,6.03c-.29-.29-.29-.77,0-1.07l3.5-3.5c.31-.31.85-.31,1.17,0l2.78,2.78c.13.13.2.3.2.48s-.07.35-.2.48l-1.22,1.22,4.52,4.52,1.22-1.22c.24-.23.62-.24.86,0h0l2.97,2.94c.14.14.22.33.22.53,0,.2-.08.39-.22.53l-3.65,3.64c-.07.07-.16.11-.25.11ZM13.3,11.05s.05,0,.07.03l3.03,3.03s.03.04.03.07-.01.05-.03.07l-2.74,2.74s-.05.07-.05.12.02.08.05.12c.06.06.17.06.23,0l3.65-3.64c.11-.11.16-.25.16-.39,0-.15-.06-.29-.16-.39l-2.97-2.94c-.16-.16-.42-.16-.58,0l-1.29,1.29s-.1.04-.14,0l-4.66-4.66s-.03-.04-.03-.07.01-.05.03-.07l1.29-1.29c.09-.09.14-.21.14-.34s-.05-.25-.14-.34l-2.78-2.78c-.24-.24-.64-.25-.89,0l-3.5,3.5c-.22.22-.22.57,0,.79l9.54,9.54c.06.06.17.06.23,0,.03-.03.05-.07.05-.12s-.02-.09-.05-.12L2.16,5.56s-.04-.1,0-.14l2.68-2.68s.1-.04.14,0l2.97,2.97s.04.1,0,.14l-.34.34c-.13.13-.13.34,0,.47l4.79,4.79c.12.12.34.12.46,0l.37-.37s.04-.03.07-.03ZM16.71,13.91s-.05-.01-.07-.03l-3.03-3.03s-.04-.1,0-.14l.6-.6s.1-.04.14,0l3.05,3.02s.03.04.03.07-.01.05-.03.07l-.62.62s-.04.03-.07.03ZM13.81,10.78l2.9,2.9.48-.48-2.91-2.88-.46.46ZM8.25,5.5s-.05-.01-.07-.03l-2.96-2.97s-.04-.1,0-.14l.68-.68s.1-.04.14,0l2.97,2.97s.03.04.03.07-.01.05-.03.07l-.68.68s-.04.03-.07.03ZM5.42,2.44l2.83,2.83.54-.54-2.83-2.83-.54.54Z"/>
      </g>
      <g>
        <path class="cls-1" d="M8.68,15.62c-.03-.08-.09-.14-.17-.17l-3.47-1.09c-.08-.03-.15-.09-.17-.18l-.97-3.4c-.02-.08-.08-.14-.16-.17l-3.29-1.22c-.14-.05-.29.02-.34.15s.02.29.15.34l3.04,1.13c.08.03.14.09.16.17l.98,3.41c.02.08.09.15.17.18l3.48,1.1c.08.03.14.09.17.17l1.01,2.97c.05.14.2.21.33.16.14-.05.21-.2.16-.33l-1.09-3.22Z"/>
        <path class="cls-1" d="M9.53,19.29c-.05,0-.11-.01-.16-.04-.09-.04-.15-.12-.18-.21l-1.01-2.97s-.06-.09-.11-.1l-3.48-1.1c-.12-.04-.2-.13-.24-.24l-.98-3.41s-.05-.09-.1-.11L.24,9.98c-.09-.03-.16-.1-.2-.19-.04-.09-.04-.19-.01-.28.03-.09.1-.16.19-.2s.19-.04.28-.01l3.29,1.22c.11.04.19.13.22.24l.97,3.4c.02.05.06.09.11.11l3.47,1.09c.11.03.2.12.23.23h0l1.1,3.22c.03.09.02.19-.02.28-.04.09-.12.15-.21.18-.04.01-.08.02-.12.02ZM.36,9.48c-.07,0-.13.04-.15.11-.02.04-.01.09,0,.13.02.04.05.07.09.09l3.04,1.13c.11.04.19.13.22.24l.98,3.41c.02.05.06.09.11.11l3.48,1.1c.11.03.2.12.23.23l1.01,2.97s.04.07.08.09c.04.02.08.02.12,0,.04-.01.08-.04.09-.08.02-.04.02-.08,0-.12l-1.1-3.22s-.06-.09-.11-.1l-3.47-1.09c-.12-.04-.2-.13-.24-.24l-.97-3.4c-.01-.05-.05-.09-.1-.11l-3.29-1.22s-.04-.01-.06-.01Z"/>
      </g>
      <g>
        <path class="cls-1" d="M18.83,9.41l-3.05-1.13c-.08-.03-.14-.09-.16-.17l-.98-3.42c-.02-.08-.09-.15-.17-.18l-3.49-1.1c-.08-.02-.14-.09-.17-.16l-1.01-2.98c-.05-.13-.19-.21-.33-.16h0c-.13.05-.21.19-.16.33l1.1,3.23c.03.08.09.14.17.16l3.47,1.1c.08.03.15.09.17.17l.97,3.4c.02.08.08.14.16.17l3.3,1.22c.13.05.28-.02.33-.15h0c.05-.14-.02-.29-.15-.34Z"/>
        <path class="cls-1" d="M18.74,10.01s-.08,0-.12-.02l-3.3-1.22c-.11-.04-.19-.13-.22-.24l-.97-3.4c-.01-.05-.05-.09-.11-.11l-3.47-1.1c-.11-.03-.19-.12-.23-.23l-1.1-3.23c-.03-.09-.02-.19.02-.27.04-.09.11-.15.2-.18.1-.03.19-.03.28.02.09.04.15.11.18.2l1.01,2.98s.06.09.1.1l3.49,1.1c.11.04.2.13.24.24l.98,3.42s.05.09.1.11l3.05,1.13h0c.09.03.16.1.2.19.04.09.04.18.01.27-.06.15-.19.24-.34.24ZM9.57.2s-.03,0-.05,0c-.09.03-.14.12-.11.21l1.1,3.23s.05.09.1.1l3.47,1.1c.11.04.2.13.23.24l.97,3.4s.05.09.1.11l3.3,1.22c.08.03.17-.01.21-.09.02-.05.02-.09,0-.13-.02-.04-.05-.07-.09-.08l-3.05-1.13c-.11-.04-.19-.13-.22-.24l-.98-3.42c-.01-.05-.05-.09-.11-.11l-3.49-1.1c-.11-.03-.19-.12-.23-.22l-1.01-2.98c-.02-.07-.08-.11-.15-.11Z"/>
      </g>
    </g>
  </g>
</svg>