<?xml version="1.0" encoding="UTF-8"?>
<svg id="Layer_2" data-name="Layer 2" xmlns="http://www.w3.org/2000/svg" viewBox="0 0 19.43 14.4">
  <defs>
    <style>
      .cls-1 {
        fill: #1f1f1f;
      }
    </style>
  </defs>
  <g id="Object">
    <g>
      <g>
        <path class="cls-1" d="M19.07,14.3H.36c-.14,0-.26-.12-.26-.26V.36C.1.22.22.1.36.1h18.71c.14,0,.26.12.26.26v13.68c0,.14-.12.26-.26.26ZM.62,13.78h18.18V.62H.62v13.15Z"/>
        <path class="cls-1" d="M19.07,14.4H.36c-.2,0-.36-.16-.36-.36V.36C0,.16.16,0,.36,0h18.71c.2,0,.36.16.36.36v13.68c0,.2-.16.36-.36.36ZM.36.2c-.09,0-.16.07-.16.16v13.68c0,.09.07.16.16.16h18.71c.09,0,.16-.07.16-.16V.36c0-.09-.07-.16-.16-.16H.36ZM18.81,13.87H.62c-.05,0-.1-.04-.1-.1V.62c0-.05.04-.1.1-.1h18.18c.05,0,.1.04.1.1v13.15c0,.05-.04.1-.1.1ZM.72,13.68h17.99V.72H.72v12.96Z"/>
      </g>
      <g>
        <path class="cls-1" d="M9.71,9.26c-.06,0-.13-.02-.18-.07L.18.55c-.11-.1-.11-.26-.01-.37.1-.11.26-.11.37-.01l9.18,8.48L18.89.17c.11-.1.27-.09.37.01.1.11.09.27-.01.37l-9.35,8.64c-.05.05-.11.07-.18.07Z"/>
        <path class="cls-1" d="M9.71,9.36c-.09,0-.18-.03-.24-.1L.12.63C-.03.49-.04.26.1.12.16.05.25,0,.35,0c.09,0,.19.03.26.1l9.11,8.42L18.82.1C18.89.03,18.98,0,19.08,0c.1,0,.19.05.25.12.07.07.1.16.1.26,0,.1-.04.19-.12.25l-9.35,8.64c-.07.06-.15.1-.24.1ZM.36.2s0,0,0,0c-.04,0-.08.02-.11.05-.03.03-.04.07-.04.12,0,.04.02.08.05.11l9.35,8.64c.06.06.16.06.22,0L19.18.48c.07-.06.07-.17,0-.23-.03-.03-.07-.05-.11-.05-.04,0-.09.01-.12.04l-9.18,8.48s-.1.03-.13,0L.47.24s-.07-.04-.11-.04Z"/>
      </g>
    </g>
  </g>
</svg>