<?xml version="1.0" encoding="UTF-8"?>
<svg id="Layer_2" data-name="Layer 2" xmlns="http://www.w3.org/2000/svg" viewBox="0 0 19.73 19.13">
  <defs>
    <style>
      .cls-1 {
        fill: #1f1f1f;
      }
    </style>
  </defs>
  <g id="Object">
    <g>
      <g>
        <path class="cls-1" d="M9.71,17.09c-.36,0-.72-.02-1.07-.05l-4.74-.43H1.11c-.28,0-.55-.11-.74-.32-.19-.2-.29-.47-.28-.75.03-.54.49-.96,1.06-.96h.52c1.09,0,1.99-.89,1.99-1.99v-5.27c0-3.34,2.71-6.05,6.05-6.05s6.05,2.71,6.05,6.05v5.27c0,1.1.89,1.99,1.99,1.99h.83c.51,0,.96.36,1.04.84.05.3-.03.6-.22.83-.19.23-.48.36-.78.36h-3.12l-4.71.43c-.36.03-.72.05-1.07.05ZM1.16,15.1c-.28,0-.52.21-.53.46,0,.14.04.27.13.37.09.1.22.15.36.15h2.81l4.76.43c.68.06,1.37.06,2.05,0l4.74-.43h3.14c.15,0,.28-.06.38-.18.1-.11.13-.26.11-.41-.04-.23-.27-.4-.53-.4h-.83c-1.38,0-2.51-1.13-2.51-2.51v-5.27c0-3.05-2.48-5.52-5.52-5.52s-5.52,2.48-5.52,5.52v5.27c0,1.38-1.13,2.51-2.51,2.51h-.52Z"/>
        <path class="cls-1" d="M9.71,17.18c-.36,0-.73-.02-1.08-.05l-4.74-.43H1.11c-.3,0-.6-.12-.81-.35-.21-.22-.32-.52-.3-.83.03-.59.54-1.05,1.15-1.05h.52c1.04,0,1.89-.85,1.89-1.89v-5.27c0-3.39,2.76-6.15,6.15-6.15s6.15,2.76,6.15,6.15v5.27c0,1.04.85,1.89,1.89,1.89h.83c.56,0,1.05.39,1.14.92.06.33-.03.66-.24.91-.21.25-.52.4-.85.4h-3.12l-4.7.43c-.36.03-.72.05-1.08.05ZM3.9,16.51l4.74.43c.7.06,1.43.06,2.13,0l4.71-.43h3.13c.27,0,.53-.12.7-.33.17-.21.25-.48.2-.75-.07-.43-.48-.75-.95-.75h-.83c-1.15,0-2.08-.93-2.08-2.08v-5.27c0-3.28-2.67-5.95-5.95-5.95S3.76,4.05,3.76,7.33v5.27c0,1.15-.93,2.08-2.08,2.08h-.52c-.51,0-.93.38-.96.87-.01.25.08.5.25.68.17.18.41.29.67.29h2.79ZM9.71,16.66c-.35,0-.69-.02-1.04-.05l-4.76-.43H1.11c-.16,0-.32-.06-.43-.18-.11-.12-.17-.27-.16-.44.02-.31.3-.56.63-.56h.52c1.33,0,2.41-1.08,2.41-2.41v-5.27c0-3.1,2.52-5.62,5.62-5.62s5.62,2.52,5.62,5.62v5.27c0,1.33,1.08,2.41,2.41,2.41h.83c.31,0,.58.21.62.48.03.18-.01.35-.13.49-.11.13-.28.21-.45.21h-3.14s-4.73.43-4.73.43c-.34.03-.69.05-1.04.05ZM1.16,15.2c-.23,0-.42.17-.44.37,0,.11.03.21.11.29.08.08.18.12.29.12h2.81l4.77.43c.68.06,1.36.06,2.04,0l4.74-.43h3.15c.12,0,.23-.05.3-.14.08-.09.11-.21.09-.33-.03-.18-.22-.32-.43-.32h-.83c-1.44,0-2.61-1.17-2.61-2.61v-5.27c0-2.99-2.43-5.43-5.43-5.43s-5.43,2.43-5.43,5.43v5.27c0,1.44-1.17,2.61-2.61,2.61h-.52Z"/>
      </g>
      <g>
        <path class="cls-1" d="M9.71,19.03c-1.18,0-2.14-.96-2.14-2.14,0-.14.12-.26.26-.26s.26.12.26.26c0,.89.72,1.61,1.61,1.61s1.61-.72,1.61-1.61c0-.14.12-.26.26-.26s.26.12.26.26c0,1.18-.96,2.14-2.14,2.14Z"/>
        <path class="cls-1" d="M9.71,19.13c-1.23,0-2.24-1-2.24-2.24,0-.2.16-.36.36-.36s.36.16.36.36c0,.84.68,1.51,1.51,1.51s1.51-.68,1.51-1.51c0-.2.16-.36.36-.36s.36.16.36.36c0,1.23-1,2.24-2.24,2.24ZM7.84,16.73c-.09,0-.16.07-.16.16,0,1.12.91,2.04,2.04,2.04s2.04-.91,2.04-2.04c0-.09-.07-.16-.16-.16s-.16.07-.16.16c0,.94-.77,1.71-1.71,1.71s-1.71-.77-1.71-1.71c0-.09-.07-.16-.16-.16Z"/>
      </g>
      <g>
        <path class="cls-1" d="M9.71,3.88c-.14,0-.26-.12-.26-.26V.36c0-.14.12-.26.26-.26s.26.12.26.26v3.25c0,.14-.12.26-.26.26Z"/>
        <path class="cls-1" d="M9.71,3.97c-.2,0-.36-.16-.36-.36V.36c0-.2.16-.36.36-.36s.36.16.36.36v3.25c0,.2-.16.36-.36.36ZM9.71.2c-.09,0-.16.07-.16.16v3.25c0,.09.07.16.16.16s.16-.07.16-.16V.36c0-.09-.07-.16-.16-.16Z"/>
      </g>
    </g>
  </g>
</svg>