<?xml version="1.0" encoding="UTF-8"?>
<svg id="Layer_2" data-name="Layer 2" xmlns="http://www.w3.org/2000/svg" viewBox="0 0 15.18 18.56">
  <defs>
    <style>
      .cls-1 {
        fill: #1f1f1f;
      }
    </style>
  </defs>
  <g id="Object">
    <g>
      <path class="cls-1" d="M14.82,6.8c-.14,0-.26.12-.26.26v6.2l-6.97,4.63L.62,13.26V2.02l.42-.16C5.26.21,9.91.21,14.14,1.86l.26.1-6.73,8.64-2.24-2.08c-.11-.1-.27-.09-.37.01-.1.11-.09.27.01.37l2.45,2.27s.11.07.18.07c0,0,.01,0,.02,0,.07,0,.14-.04.19-.1L15.03,2.01s.01-.02.02-.03c0-.01.02-.02.02-.03,0,0,0,0,0-.01,0-.02,0-.04,0-.05,0-.02,0-.03,0-.05,0-.02,0-.03-.01-.05,0-.02,0-.03-.02-.05,0-.01-.02-.03-.03-.04-.01-.01-.02-.03-.04-.04,0,0,0,0,0-.01-.01,0-.02-.01-.03-.02-.01,0-.02-.02-.03-.02l-.59-.23C9.98-.33,5.2-.33.85,1.37l-.59.23c-.1.04-.17.14-.17.24v11.55c0,.09.04.17.12.22l7.23,4.8s.09.04.15.04.1-.01.14-.04l7.23-4.8c.07-.05.12-.13.12-.22v-6.34c0-.14-.12-.26-.26-.26Z"/>
      <path class="cls-1" d="M7.59,18.56c-.07,0-.14-.02-.2-.06L.16,13.7c-.1-.07-.16-.18-.16-.3V1.85c0-.15.09-.28.23-.34l.59-.23C5.18-.43,9.99-.43,14.36,1.28l.59.23s.04.02.04.03c.01,0,.03.01.05.03,0,0,.02.02.03.03.01,0,.02.03.04.04.02.02.03.04.04.06,0,.02.01.04.02.05.01.04.02.06.02.08,0,.02,0,.04,0,.06,0,.03,0,.05-.01.08-.01.04-.02.05-.03.06,0,0-.02.04-.03.05l-7.12,9.15c-.06.08-.15.13-.26.14,0,0-.03,0-.03,0-.09,0-.18-.03-.24-.1l-2.45-2.27c-.15-.14-.15-.36-.02-.51.14-.15.36-.15.51-.02l2.16,2L14.24,2.01l-.14-.05C9.9.31,5.28.31,1.08,1.95l-.36.14v11.11l6.87,4.56,6.87-4.56v-6.14c0-.2.16-.36.36-.36s.36.16.36.36v6.34c0,.12-.06.23-.16.3l-7.23,4.8c-.06.04-.13.06-.2.06ZM7.59.2C5.32.2,3.05.62.89,1.46l-.59.23c-.06.02-.1.08-.1.15v11.55c0,.06.03.11.07.14l7.23,4.8c.05.04.13.04.18,0l7.23-4.8s.07-.08.07-.14v-6.34c0-.09-.07-.16-.16-.16s-.16.07-.16.16v6.2s-.02.06-.04.08l-6.97,4.63s-.08.02-.11,0L.57,13.34s-.04-.05-.04-.08V2.02s.02-.08.06-.09l.42-.16C5.25.11,9.93.11,14.17,1.77l.26.1s.05.04.06.07c0,.03,0,.06-.02.09l-6.73,8.64s-.04.04-.07.04c-.03,0-.05,0-.07-.03l-2.24-2.08c-.07-.06-.17-.06-.23,0-.06.07-.06.17,0,.23l2.45,2.27s.07.04.11.04c.06,0,.1-.03.13-.06L14.95,1.95s0-.01,0-.02c0,0,0-.01.01-.02,0,0,0,0,0,0,0,0,0-.02,0-.03v-.03s0-.03,0-.03c0,0,0-.03,0-.03,0,0-.02-.02-.02-.02,0-.01-.02-.02-.02-.03,0,0,0,0,0,0,0,0-.02,0-.02,0,0,0-.02-.01-.02-.02l-.58-.23C12.13.62,9.86.2,7.59.2ZM14.56,13.26h0,0Z"/>
    </g>
  </g>
</svg>