<?xml version="1.0" encoding="UTF-8"?>
<svg id="Layer_2" data-name="Layer 2" xmlns="http://www.w3.org/2000/svg" viewBox="0 0 15.69 19.1">
  <defs>
    <style>
      .cls-1 {
        fill: #1f1f1f;
      }
    </style>
  </defs>
  <g id="Object">
    <g>
      <g>
        <path class="cls-1" d="M5.94,9.38c-2.56,0-4.64-2.08-4.64-4.64S3.38.1,5.94.1s4.64,2.08,4.64,4.64-2.08,4.64-4.64,4.64ZM5.94.62C3.67.62,1.83,2.47,1.83,4.74s1.85,4.11,4.11,4.11,4.11-1.85,4.11-4.11S8.21.62,5.94.62Z"/>
        <path class="cls-1" d="M5.94,9.47c-2.61,0-4.74-2.13-4.74-4.74S3.33,0,5.94,0s4.74,2.12,4.74,4.74-2.13,4.74-4.74,4.74ZM5.94.2C3.44.2,1.4,2.23,1.4,4.74s2.04,4.54,4.54,4.54,4.54-2.04,4.54-4.54S8.45.2,5.94.2ZM5.94,8.95c-2.32,0-4.21-1.89-4.21-4.21S3.62.52,5.94.52s4.21,1.89,4.21,4.21-1.89,4.21-4.21,4.21ZM5.94.72C3.73.72,1.93,2.52,1.93,4.74s1.8,4.02,4.02,4.02,4.02-1.8,4.02-4.02S8.16.72,5.94.72Z"/>
      </g>
      <g>
        <path class="cls-1" d="M11.75,19H.36c-.14,0-.26-.12-.26-.26v-3.93c0-3.28,2.67-5.96,5.96-5.96s5.96,2.67,5.96,5.96v3.93c0,.14-.12.26-.26.26ZM.62,18.48h10.86v-3.67c0-3-2.44-5.43-5.43-5.43S.62,11.81.62,14.81v3.67Z"/>
        <path class="cls-1" d="M11.75,19.1H.36c-.2,0-.36-.16-.36-.36v-3.93c0-3.34,2.72-6.05,6.05-6.05s6.05,2.72,6.05,6.05v3.93c0,.2-.16.36-.36.36ZM6.05,8.95C2.82,8.95.2,11.58.2,14.81v3.93c0,.09.07.16.16.16h11.39c.09,0,.16-.07.16-.16v-3.93c0-3.23-2.63-5.86-5.86-5.86ZM11.49,18.58H.62c-.05,0-.1-.04-.1-.1v-3.67c0-3.05,2.48-5.53,5.53-5.53s5.53,2.48,5.53,5.53v3.67c0,.05-.04.1-.1.1ZM.72,18.38h10.67v-3.57c0-2.94-2.39-5.33-5.33-5.33S.72,11.87.72,14.81v3.57Z"/>
      </g>
      <g>
        <path class="cls-1" d="M10.12,10.36c-1.12,0-2.17-.44-2.96-1.23-.1-.1-.1-.27,0-.37s.27-.1.37,0c.69.69,1.61,1.07,2.59,1.07,2.02,0,3.67-1.65,3.67-3.67s-1.65-3.67-3.67-3.67c-.18,0-.36.01-.54.04-.14.02-.28-.08-.3-.22-.02-.14.08-.28.22-.3.2-.03.41-.04.61-.04,2.31,0,4.19,1.88,4.19,4.19s-1.88,4.19-4.19,4.19Z"/>
        <path class="cls-1" d="M10.12,10.46c-1.15,0-2.22-.45-3.03-1.26-.14-.14-.14-.37,0-.51.14-.14.37-.14.51,0,.67.67,1.57,1.05,2.52,1.05,1.97,0,3.57-1.6,3.57-3.57s-1.6-3.57-3.57-3.57c-.18,0-.35.01-.52.04-.09.02-.19,0-.26-.06-.08-.06-.13-.14-.14-.24-.01-.1,0-.19.07-.27.06-.08.14-.13.24-.14.21-.03.42-.05.63-.05,2.37,0,4.29,1.92,4.29,4.29s-1.92,4.29-4.29,4.29ZM7.34,8.78s-.08.02-.12.05c-.06.06-.06.17,0,.23.77.77,1.8,1.2,2.89,1.2,2.26,0,4.09-1.84,4.09-4.09s-1.84-4.09-4.09-4.09c-.2,0-.4.01-.6.04-.04,0-.08.03-.11.06-.03.04-.04.08-.03.12,0,.04.03.08.07.11.03.03.08.04.12.03.18-.03.37-.04.55-.04,2.08,0,3.77,1.69,3.77,3.77s-1.69,3.77-3.77,3.77c-1.01,0-1.95-.39-2.66-1.1-.03-.03-.07-.05-.12-.05Z"/>
      </g>
      <g>
        <path class="cls-1" d="M15.33,19h-3.58c-.14,0-.26-.12-.26-.26s.12-.26.26-.26h3.32v-3.27c0-2.67-2.13-4.85-4.76-4.85-.27,0-.54.02-.8.07-.14.02-.28-.07-.3-.21-.02-.14.07-.28.21-.3.29-.05.59-.08.89-.08,2.91,0,5.28,2.41,5.28,5.37v3.53c0,.14-.12.26-.26.26Z"/>
        <path class="cls-1" d="M15.33,19.1h-3.58c-.2,0-.36-.16-.36-.36s.16-.36.36-.36h3.22v-3.17c0-2.62-2.09-4.75-4.66-4.75-.26,0-.53.02-.78.07-.2.03-.38-.1-.42-.29-.02-.09,0-.19.06-.27.06-.08.14-.13.23-.15.3-.05.6-.08.91-.08,2.97,0,5.38,2.45,5.38,5.47v3.53c0,.2-.16.36-.36.36ZM11.75,18.58c-.09,0-.16.07-.16.16s.07.16.16.16h3.58c.09,0,.16-.07.16-.16v-3.53c0-2.91-2.33-5.28-5.18-5.28-.29,0-.59.03-.87.07-.04,0-.08.03-.11.07-.02.04-.03.08-.03.12.02.09.1.15.19.13.27-.05.54-.07.82-.07,2.68,0,4.86,2.22,4.86,4.95v3.27c0,.05-.04.1-.1.1h-3.32Z"/>
      </g>
    </g>
  </g>
</svg>