<?xml version="1.0" encoding="UTF-8"?>
<svg id="Layer_2" data-name="Layer 2" xmlns="http://www.w3.org/2000/svg" viewBox="0 0 16.3 15.25">
  <defs>
    <style>
      .cls-1 {
        fill: #1f1f1f;
      }
    </style>
  </defs>
  <g id="Object">
    <g>
      <path class="cls-1" d="M.39,7.58c-.11,0-.22-.05-.3-.14-.14-.17-.12-.41.04-.55L8.11.09c.15-.13.37-.12.52,0l7.54,6.8c.16.15.17.39.03.56-.15.16-.39.17-.56.03L8.36.92.65,7.49c-.07.06-.16.09-.25.09Z"/>
      <path class="cls-1" d="M.39,15.25c-.11,0-.22-.05-.3-.14-.14-.17-.12-.41.04-.55l7.98-6.8c.15-.13.37-.12.52,0l7.54,6.8c.16.15.17.39.03.56-.15.16-.39.17-.56.03l-7.28-6.57L.65,15.16c-.07.06-.16.09-.25.09Z"/>
    </g>
  </g>
</svg>