<?xml version="1.0" encoding="UTF-8"?>
<svg id="Layer_2" data-name="Layer 2" xmlns="http://www.w3.org/2000/svg" viewBox="0 0 19.37 8.97">
  <defs>
    <style>
      .cls-1 {
        fill: #1f1f1f;
      }
    </style>
  </defs>
  <g id="Object">
    <g>
      <path class="cls-1" d="M19.01,4.37H1.15L6.2.57c.12-.09.14-.25.05-.37-.09-.12-.25-.14-.37-.05L.21,4.42s-.01.01-.02.02c0,0,0,0-.01.01-.02.02-.04.05-.05.07,0,0,0,0,0,.01-.01.03-.02.06-.02.09,0,0,0,0,0,0,0,0,0,0,0,0h0s0,.06.02.09c0,0,0,.01,0,.02.01.03.03.05.05.07,0,0,0,0,.01,0,0,0,.02.02.03.03l5.89,3.97s.1.04.15.04c.08,0,.17-.04.22-.12.08-.12.05-.28-.07-.36L1.22,4.89h17.79c.14,0,.26-.12.26-.26s-.12-.26-.26-.26Z"/>
      <path class="cls-1" d="M6.25,8.97c-.07,0-.14-.02-.2-.06L.16,4.93s-.03-.02-.04-.03c0,0-.02-.02-.02-.02-.03-.03-.05-.06-.07-.1,0,0,0-.02-.01-.03-.01-.04-.02-.08-.02-.12,0-.02,0-.02,0-.03,0-.04.01-.07.02-.1.02-.05.04-.09.07-.12,0,0,.02-.02.02-.02,0,0,.02-.02.03-.02L5.82.07c.08-.06.17-.08.27-.07.1.01.18.06.24.14s.08.17.07.27c-.01.1-.06.18-.14.24L1.44,4.27h17.57c.2,0,.36.16.36.36s-.16.36-.36.36H1.54l4.91,3.31c.16.11.21.34.1.5-.07.1-.18.16-.3.16ZM.27,4.77l5.89,3.97c.07.05.18.03.23-.04.05-.07.03-.18-.04-.23L1.17,4.97s-.05-.07-.04-.11c.01-.04.05-.07.09-.07h17.79c.09,0,.16-.07.16-.16s-.07-.16-.16-.16H1.15s-.08-.03-.09-.07c-.01-.04,0-.08.03-.11L6.14.49s.06-.06.06-.11c0-.04,0-.09-.03-.12-.03-.03-.06-.06-.11-.06-.04,0-.09,0-.12.03L.26,4.5l-.08-.06.06.08s-.03.03-.03.05c0,.03-.01.04-.01.06,0,0,0,0,0,0,0,.02,0,.03.01.05.01.03.02.04.03.06l-.03.1.06-.08Z"/>
    </g>
  </g>
</svg>