<?xml version="1.0" encoding="UTF-8"?>
<svg id="Layer_2" data-name="Layer 2" xmlns="http://www.w3.org/2000/svg" viewBox="0 0 15.02 19.43">
  <defs>
    <style>
      .cls-1 {
        fill: #1f1f1f;
      }
    </style>
  </defs>
  <g id="Object">
    <g>
      <g>
        <path class="cls-1" d="M7.35,11.4l.16.13.16-.13c.16-.13,3.89-3.16,3.89-5.67,0-1.36-.81-2.03-1.57-2.2-.93-.21-1.9.21-2.49,1.05-.6-.85-1.58-1.28-2.5-1.07-.75.18-1.55.85-1.55,2.21,0,2.5,3.73,5.54,3.89,5.67ZM5.13,4.03c.11-.03.23-.04.35-.04.62,0,1.37.36,1.8,1.23l.24.48.23-.48c.49-1.03,1.45-1.33,2.13-1.17.73.17,1.16.8,1.16,1.69,0,1.98-2.81,4.51-3.53,5.12-.72-.61-3.53-3.14-3.53-5.12,0-.9.43-1.53,1.14-1.7Z"/>
        <path class="cls-1" d="M7.51,11.63s-.04,0-.06-.02l-.16-.13c-.16-.13-3.93-3.19-3.93-5.74,0-1.42.84-2.12,1.62-2.31.91-.21,1.89.18,2.53,1,.62-.81,1.59-1.19,2.51-.98.8.18,1.65.88,1.65,2.3,0,2.55-3.77,5.61-3.93,5.74l-.16.13s-.04.02-.06.02ZM5.49,3.56c-.15,0-.31.02-.46.05-.71.17-1.47.81-1.47,2.12,0,2.46,3.7,5.46,3.85,5.59h0l.1.08.1-.08c.16-.13,3.85-3.14,3.85-5.59,0-1.3-.77-1.94-1.49-2.1-.88-.2-1.82.2-2.38,1.01-.02.03-.05.04-.08.04h0s-.06-.02-.08-.04c-.49-.69-1.21-1.08-1.94-1.08ZM7.51,10.95s-.05,0-.06-.02c-.84-.71-3.56-3.2-3.56-5.19,0-.95.46-1.62,1.22-1.8h0c.12-.03.24-.04.37-.04.6,0,1.42.34,1.89,1.28l.15.3.14-.3c.52-1.07,1.52-1.39,2.24-1.22.78.18,1.24.84,1.24,1.78,0,2-2.73,4.48-3.56,5.19-.02.02-.04.02-.06.02ZM5.15,4.12c-.67.16-1.07.76-1.07,1.61,0,1.9,2.73,4.38,3.43,4.99.71-.61,3.43-3.09,3.43-4.99,0-.84-.41-1.44-1.09-1.59-.65-.15-1.55.14-2.02,1.12l-.23.48s-.05.04-.09.06c-.04,0-.07-.02-.09-.05l-.24-.48c-.43-.87-1.17-1.17-1.72-1.17-.11,0-.22.01-.33.04h0Z"/>
      </g>
      <g>
        <path class="cls-1" d="M14.66,19.33c-.05,0-.1-.02-.15-.05l-7-4.76L.51,19.29c-.08.05-.18.06-.27.01-.09-.05-.14-.13-.14-.23V.36C.1.22.22.1.36.1h14.3c.14,0,.26.12.26.26v18.71c0,.1-.05.19-.14.23-.04.02-.08.03-.12.03ZM7.51,13.95c.05,0,.1.02.15.05l6.74,4.58V.62H.62v17.95l6.74-4.58s.1-.05.15-.05Z"/>
        <path class="cls-1" d="M.36,19.43c-.06,0-.12-.01-.17-.04-.12-.06-.19-.18-.19-.32V.36c0-.2.16-.36.36-.36h14.3c.2,0,.36.16.36.36v18.71c0,.13-.07.26-.19.32-.11.06-.26.05-.37-.02l-6.95-4.72L.56,19.37c-.06.04-.13.06-.2.06ZM.36.2c-.09,0-.16.07-.16.16v18.71c0,.06.03.12.09.14.05.03.12.03.17,0l7-4.76s.08-.02.11,0l7,4.76s.12.04.17,0c.05-.03.09-.08.09-.14V.36c0-.09-.07-.16-.16-.16H.36ZM14.4,18.67s-.04,0-.06-.02l-6.74-4.58c-.05-.04-.13-.04-.18,0L.68,18.65s-.07.02-.1,0c-.03-.02-.05-.05-.05-.09V.62c0-.05.04-.1.1-.1h13.78c.05,0,.1.04.1.1v17.95s-.02.07-.05.09c-.01,0-.03.01-.05.01ZM7.51,13.85c.07,0,.14.02.2.06l6.59,4.48V.72H.72v17.67l6.59-4.48c.06-.04.13-.06.2-.06Z"/>
      </g>
    </g>
  </g>
</svg>