<?xml version="1.0" encoding="UTF-8"?>
<svg id="Layer_2" data-name="Layer 2" xmlns="http://www.w3.org/2000/svg" viewBox="0 0 14.87 14.83">
  <defs>
    <style>
      .cls-1 {
        fill: #1f1f1f;
      }
    </style>
  </defs>
  <g id="Object">
    <g>
      <g>
        <path class="cls-1" d="M11.25,9.61c-.14,0-.26.12-.26.26v1.88H3.49v-1.79c0-.14-.12-.26-.26-.26s-.26.12-.26.26v4.51c0,.14.12.26.26.26h8.03c.14,0,.26-.12.26-.26v-4.6c0-.14-.12-.26-.26-.26ZM10.73,14.21H3.75c-.14,0-.26-.12-.26-.26v-1.67h7.5v1.67c0,.14-.12.26-.26.26Z"/>
        <path class="cls-1" d="M11.25,14.83H3.23c-.2,0-.36-.16-.36-.36v-4.51c0-.2.16-.36.36-.36s.36.16.36.36v1.69h7.3v-1.78c0-.2.16-.36.36-.36s.36.16.36.36v4.6c0,.2-.16.36-.36.36ZM3.23,9.8c-.09,0-.16.07-.16.16v4.51c0,.09.07.16.16.16h8.03c.09,0,.16-.07.16-.16v-4.6c0-.09-.07-.16-.16-.16s-.16.07-.16.16v1.88c0,.05-.04.1-.1.1H3.49c-.05,0-.1-.04-.1-.1v-1.79c0-.09-.07-.16-.16-.16ZM10.73,14.31H3.75c-.2,0-.36-.16-.36-.36v-1.67c0-.05.04-.1.1-.1h7.5c.05,0,.1.04.1.1v1.67c0,.2-.16.36-.36.36ZM3.59,12.38v1.57c0,.09.07.16.16.16h6.98c.09,0,.16-.07.16-.16v-1.57H3.59Z"/>
      </g>
      <g>
        <path class="cls-1" d="M3.23,6.56c.14,0,.26-.12.26-.26V.62h7.5v5.85c0,.14.12.26.26.26s.26-.12.26-.26V.7c0-.33-.27-.6-.6-.6H3.57c-.33,0-.6.27-.6.6v5.59c0,.14.12.26.26.26Z"/>
        <path class="cls-1" d="M11.25,6.83c-.2,0-.36-.16-.36-.36V.72H3.59v5.57c0,.2-.16.36-.36.36s-.36-.16-.36-.36V.7c0-.39.31-.7.7-.7h7.34c.39,0,.7.32.7.7v5.77c0,.2-.16.36-.36.36ZM3.49.52h7.5c.05,0,.1.04.1.1v5.85c0,.09.07.16.16.16s.16-.07.16-.16V.7c0-.28-.23-.51-.51-.51H3.57c-.28,0-.51.23-.51.51v5.59c0,.09.07.16.16.16s.16-.07.16-.16V.62c0-.05.04-.1.1-.1Z"/>
      </g>
      <g>
        <path class="cls-1" d="M7.81,12.98h-1.14c-.14,0-.26.12-.26.26s.12.26.26.26h1.14c.14,0,.26-.12.26-.26s-.12-.26-.26-.26Z"/>
        <path class="cls-1" d="M7.81,13.6h-1.14c-.2,0-.36-.16-.36-.36s.16-.36.36-.36h1.14c.2,0,.36.16.36.36s-.16.36-.36.36ZM6.67,13.08c-.09,0-.16.07-.16.16s.07.16.16.16h1.14c.09,0,.16-.07.16-.16s-.07-.16-.16-.16h-1.14Z"/>
      </g>
      <g>
        <path class="cls-1" d="M12.78,4.31c-.14-.05-.29.02-.34.16-.05.14.03.28.16.33,1.04.4,1.65.9,1.65,1.38,0,.84-1.94,1.84-5.21,2.1-.14.01-.25.13-.24.28h0c0,.15.14.26.28.25,3.93-.31,5.7-1.53,5.7-2.62,0-.72-.71-1.38-2-1.87Z"/>
        <path class="cls-1" d="M9.06,8.91c-.09,0-.17-.03-.24-.09-.07-.06-.12-.15-.12-.25-.01-.19.14-.37.33-.38,3.21-.26,5.12-1.22,5.12-2,0-.43-.59-.91-1.59-1.29-.18-.07-.28-.27-.22-.45.03-.09.1-.17.19-.21.09-.04.19-.05.28-.01,1.33.5,2.06,1.2,2.06,1.96,0,1.04-1.52,2.38-5.79,2.72,0,0-.02,0-.03,0ZM12.69,4.4s-.05,0-.07.02c-.04.02-.07.05-.09.1-.03.08.02.18.1.21,1.09.41,1.72.95,1.72,1.47,0,1.01-2.28,1.96-5.3,2.2-.09,0-.16.08-.15.17,0,.04.02.08.06.11.03.03.08.05.12.04,3.87-.3,5.61-1.49,5.61-2.52,0-.67-.69-1.31-1.94-1.78h0s-.04-.01-.06-.01Z"/>
      </g>
      <g>
        <path class="cls-1" d="M6.02,9.88c-.1.1-.1.27,0,.37.1.1.27.1.37,0l1.12-1.12c.29-.29.29-.75,0-1.04l-1.21-1.21c-.1-.1-.27-.1-.37,0-.1.1-.1.27,0,.37l1.09,1.09c-3.79-.08-6.39-1.17-6.39-2.16,0-.38.38-.78,1.08-1.13.12-.06.17-.21.12-.34-.06-.14-.23-.19-.36-.13-.89.45-1.36,1-1.36,1.59,0,1.26,2.43,2.6,6.93,2.68l-1.01,1.01Z"/>
        <path class="cls-1" d="M6.2,10.42c-.09,0-.18-.03-.25-.11-.07-.07-.11-.16-.11-.25s.04-.19.11-.26l.85-.85c-4.47-.12-6.8-1.47-6.8-2.77,0-.63.49-1.21,1.41-1.68.09-.05.19-.05.29-.02.09.03.17.1.21.19.08.18,0,.38-.16.47-.66.33-1.02.7-1.02,1.04,0,.89,2.47,1.94,6.05,2.05l-.91-.91c-.07-.07-.11-.16-.11-.25s.04-.19.11-.26c.14-.14.37-.14.51,0l1.21,1.21c.32.33.32.85,0,1.18l-1.12,1.12c-.07.07-.16.11-.25.11ZM1.58,4.66s-.05,0-.08.02c-.85.43-1.31.95-1.31,1.5,0,1.2,2.4,2.51,6.84,2.58.04,0,.07.02.09.06.01.04,0,.08-.02.11l-1.01,1.01s-.05.07-.05.12.02.08.05.12c.06.06.17.06.23,0l1.12-1.12c.12-.12.19-.28.19-.45s-.07-.33-.19-.45l-1.21-1.21c-.06-.06-.17-.06-.23,0-.03.03-.05.07-.05.12s.02.08.05.12l1.09,1.09s.04.07.02.11c-.02.04-.05.06-.09.06-3.58-.07-6.49-1.08-6.49-2.26,0-.42.39-.84,1.13-1.22.08-.04.11-.13.07-.21-.02-.04-.05-.07-.09-.09-.02,0-.04,0-.06,0Z"/>
      </g>
    </g>
  </g>
</svg>