<?xml version="1.0" encoding="UTF-8"?>
<svg id="Layer_2" data-name="Layer 2" xmlns="http://www.w3.org/2000/svg" viewBox="0 0 13.71 18.15">
  <defs>
    <style>
      .cls-1 {
        fill: #1f1f1f;
      }
    </style>
  </defs>
  <g id="Object">
    <g>
      <g>
        <path class="cls-1" d="M6.65,18.05h0c-.14,0-.26-.12-.26-.27V1.43c0-.15.12-.27.26-.27h0c.14,0,.26.12.26.27v16.35c0,.15-.12.27-.26.27Z"/>
        <path class="cls-1" d="M6.65,18.15c-.2,0-.36-.16-.36-.36V1.43c0-.2.16-.36.36-.36s.36.16.36.36v16.35c0,.2-.16.36-.36.36ZM6.65,1.27c-.09,0-.16.08-.16.17v16.35c0,.09.07.17.16.17s.16-.08.16-.17V1.43c0-.09-.07-.17-.16-.17Z"/>
      </g>
      <g>
        <path class="cls-1" d="M10.98,11.11h-4.06c-.14,0-.26-.12-.26-.26h0c0-.14.12-.26.26-.26h4.06c.14,0,.26.12.26.26h0c0,.14-.12.26-.26.26Z"/>
        <path class="cls-1" d="M10.98,11.2h-4.06c-.2,0-.36-.16-.36-.36s.16-.36.36-.36h4.06c.2,0,.36.16.36.36s-.16.36-.36.36ZM6.91,10.68c-.09,0-.16.07-.16.16s.07.16.16.16h4.06c.09,0,.16-.07.16-.16s-.07-.16-.16-.16h-4.06Z"/>
      </g>
      <g>
        <path class="cls-1" d="M13.35,1.69h-6.46c-.14,0-.26-.12-.26-.26h0c0-.14-.12-.26.02-.26h6.7c.14,0,.26.12.26.26h0c0,.14-.12.26-.26.26Z"/>
        <path class="cls-1" d="M13.35,1.79h-6.46c-.2,0-.36-.16-.36-.36,0-.04-.01-.08-.02-.11-.02-.06-.04-.13,0-.19.04-.06.12-.06.14-.06h6.7c.2,0,.36.16.36.36s-.16.36-.36.36ZM6.69,1.27s.03.1.03.16c0,.09.07.16.16.16h6.46c.09,0,.16-.07.16-.16s-.07-.16-.16-.16h-6.66Z"/>
      </g>
      <g>
        <path class="cls-1" d="M1.67,3.24C.8,3.24.1,2.54.1,1.67S.8.1,1.67.1s1.57.71,1.57,1.57-.71,1.57-1.57,1.57ZM1.67.62c-.58,0-1.05.47-1.05,1.05s.47,1.05,1.05,1.05,1.05-.47,1.05-1.05-.47-1.05-1.05-1.05Z"/>
        <path class="cls-1" d="M1.67,3.34c-.92,0-1.67-.75-1.67-1.67S.75,0,1.67,0s1.67.75,1.67,1.67-.75,1.67-1.67,1.67ZM1.67.2C.86.2.2.86.2,1.67s.66,1.47,1.47,1.47,1.47-.66,1.47-1.47S2.48.2,1.67.2ZM1.67,2.82c-.63,0-1.15-.51-1.15-1.15S1.04.52,1.67.52s1.15.51,1.15,1.15-.51,1.15-1.15,1.15ZM1.67.72c-.52,0-.95.43-.95.95s.43.95.95.95.95-.43.95-.95-.43-.95-.95-.95Z"/>
      </g>
    </g>
  </g>
</svg>