<?xml version="1.0" encoding="UTF-8"?>
<svg id="Layer_2" data-name="Layer 2" xmlns="http://www.w3.org/2000/svg" viewBox="0 0 19.15 12.95">
  <defs>
    <style>
      .cls-1 {
        fill: #1f1f1f;
      }
    </style>
  </defs>
  <g id="Object">
    <g>
      <g>
        <path class="cls-1" d="M16.12,11.72H3.03c-.39,0-.7-.31-.7-.7v-2.72c0-.39.31-.7.7-.7h11.04c.14,0,.26.12.26.26h0c0,.14-.12.26-.26.26H2.85v3.08h13.45v-1.48c0-.14.12-.26.26-.26h0c.14,0,.26.12.26.26v1.31c0,.39-.31.7-.7.7Z"/>
        <path class="cls-1" d="M16.12,11.81H3.03c-.44,0-.8-.36-.8-.8v-2.72c0-.44.36-.8.8-.8h11.04c.2,0,.36.16.36.36s-.16.36-.36.36H2.95v2.88h13.25v-1.38c0-.2.16-.36.36-.36s.36.16.36.36v1.31c0,.44-.36.8-.8.8ZM3.03,7.69c-.33,0-.6.27-.6.6v2.72c0,.33.27.6.6.6h13.1c.33,0,.6-.27.6-.6v-1.31c0-.09-.07-.16-.16-.16s-.16.07-.16.16v1.48c0,.05-.04.1-.1.1H2.85c-.05,0-.1-.04-.1-.1v-3.08c0-.05.04-.1.1-.1h11.21c.09,0,.16-.07.16-.16s-.07-.16-.16-.16H3.03Z"/>
      </g>
      <g>
        <path class="cls-1" d="M13.96,4.4H5.2c-.33,0-.6-.27-.6-.6V.7c0-.33.27-.6.6-.6h6.43c.14,0,.26.12.26.26h0c0,.14-.12.26-.26.26h-6.51v3.25h8.91v-1.2c0-.14.12-.26.26-.26h0c.14,0,.26.12.26.26v1.12c0,.33-.27.6-.6.6Z"/>
        <path class="cls-1" d="M13.96,4.5H5.2c-.38,0-.7-.31-.7-.7V.7c0-.38.31-.7.7-.7h6.43c.2,0,.36.16.36.36s-.16.36-.36.36h-6.41v3.06h8.71v-1.1c0-.2.16-.36.36-.36s.36.16.36.36v1.12c0,.38-.31.7-.7.7ZM5.2.2c-.28,0-.5.22-.5.5v3.1c0,.28.22.5.5.5h8.76c.28,0,.5-.22.5-.5v-1.12c0-.09-.07-.16-.16-.16s-.16.07-.16.16v1.2c0,.05-.04.1-.1.1H5.12c-.05,0-.1-.04-.1-.1V.62c0-.05.04-.1.1-.1h6.51c.09,0,.16-.07.16-.16s-.07-.16-.16-.16h-6.43Z"/>
      </g>
      <g>
        <path class="cls-1" d="M18.66,5.69H.49c-.14,0-.26-.12-.26-.26H.23c0-.14.12-.26.26-.26h18.17c.14,0,.26.12.26.26h0c0,.14-.12.26-.26.26Z"/>
        <path class="cls-1" d="M18.66,5.79H.49c-.2,0-.36-.16-.36-.36s.16-.36.36-.36h18.17c.2,0,.36.16.36.36s-.16.36-.36.36ZM.49,5.26c-.09,0-.16.07-.16.16s.07.16.16.16h18.17c.09,0,.16-.07.16-.16s-.07-.16-.16-.16H.49Z"/>
      </g>
      <g>
        <path class="cls-1" d="M18.79,12.85H.36c-.14,0-.26-.12-.26-.26H.1c0-.14.12-.26.26-.26h18.43c.14,0,.26.12.26.26h0c0,.14-.12.26-.26.26Z"/>
        <path class="cls-1" d="M18.79,12.95H.36c-.2,0-.36-.16-.36-.36s.16-.36.36-.36h18.43c.2,0,.36.16.36.36s-.16.36-.36.36ZM.36,12.43c-.09,0-.16.07-.16.16s.07.16.16.16h18.43c.09,0,.16-.07.16-.16s-.07-.16-.16-.16H.36Z"/>
      </g>
    </g>
  </g>
</svg>