<?xml version="1.0" encoding="UTF-8"?>
<svg id="Layer_2" data-name="Layer 2" xmlns="http://www.w3.org/2000/svg" viewBox="0 0 15.18 18.56">
  <defs>
    <style>
      .cls-1 {
        fill: #1f1f1f;
      }
    </style>
  </defs>
  <g id="Object">
    <g>
      <g>
        <path class="cls-1" d="M14.82,6.8c-.14,0-.26.12-.26.26v6.2l-6.97,4.63L.62,13.26V2.02l.42-.16C5.26.21,9.91.21,14.14,1.86l.59.23c.13.05.29-.01.34-.15.05-.13-.01-.29-.15-.34l-.59-.23C9.98-.33,5.2-.33.85,1.37l-.59.23c-.1.04-.17.14-.17.24v11.55c0,.09.04.17.12.22l7.23,4.8s.09.04.15.04.1-.01.14-.04l7.23-4.8c.07-.05.12-.13.12-.22v-6.34c0-.14-.12-.26-.26-.26Z"/>
        <path class="cls-1" d="M7.59,18.56c-.07,0-.14-.02-.2-.06L.16,13.7c-.1-.07-.16-.18-.16-.3V1.85c0-.15.09-.28.23-.34l.59-.23C5.18-.43,9.99-.43,14.36,1.28l.59.23c.19.07.28.28.2.47-.07.18-.28.28-.47.2l-.59-.23C9.9.31,5.28.31,1.08,1.95l-.36.14v11.11l6.87,4.56,6.87-4.56v-6.14c0-.2.16-.36.36-.36s.36.16.36.36v6.34c0,.12-.06.23-.16.3l-7.23,4.8c-.06.04-.13.06-.2.06ZM7.59.2C5.32.2,3.05.62.89,1.46l-.59.23c-.06.02-.1.08-.1.15v11.55c0,.06.03.11.07.14l7.23,4.8c.05.04.13.04.18,0l7.23-4.8s.07-.08.07-.14v-6.34c0-.09-.07-.16-.16-.16s-.16.07-.16.16v6.2s-.02.06-.04.08l-6.97,4.63s-.08.02-.11,0L.57,13.34s-.04-.05-.04-.08V2.02s.02-.08.06-.09l.42-.16C5.25.11,9.93.11,14.17,1.77l.59.23c.08.03.18,0,.21-.09.03-.08,0-.18-.09-.21l-.59-.23C12.13.62,9.86.2,7.59.2ZM14.56,13.26h0,0Z"/>
      </g>
      <g>
        <path class="cls-1" d="M7.9,10.84V3.42c0-.14-.12-.26-.26-.26s-.26.12-.26.26v7.43c0,.14.12.26.26.26s.26-.12.26-.26Z"/>
        <path class="cls-1" d="M7.63,11.2c-.2,0-.36-.16-.36-.36V3.42c0-.2.16-.36.36-.36s.36.16.36.36v7.43c0,.2-.16.36-.36.36ZM7.63,3.25c-.09,0-.16.07-.16.16v7.43c0,.09.07.16.16.16s.16-.07.16-.16V3.42c0-.09-.07-.16-.16-.16Z"/>
      </g>
      <g>
        <path class="cls-1" d="M6.59,13.12c0,.58.47,1.05,1.05,1.05s1.05-.47,1.05-1.05-.47-1.05-1.05-1.05-1.05.47-1.05,1.05ZM7.63,12.59c.29,0,.52.24.52.52s-.24.52-.52.52-.52-.24-.52-.52.24-.52.52-.52Z"/>
        <path class="cls-1" d="M7.63,14.26c-.63,0-1.15-.51-1.15-1.15s.51-1.15,1.15-1.15,1.15.51,1.15,1.15-.51,1.15-1.15,1.15ZM7.63,12.17c-.52,0-.95.43-.95.95s.43.95.95.95.95-.43.95-.95-.43-.95-.95-.95ZM7.63,13.74c-.34,0-.62-.28-.62-.62s.28-.62.62-.62.62.28.62.62-.28.62-.62.62ZM7.63,12.69c-.24,0-.43.19-.43.43s.19.43.43.43.43-.19.43-.43-.19-.43-.43-.43Z"/>
      </g>
    </g>
  </g>
</svg>