<?xml version="1.0" encoding="UTF-8"?>
<svg id="Layer_2" data-name="Layer 2" xmlns="http://www.w3.org/2000/svg" viewBox="0 0 17.32 18.8">
  <defs>
    <style>
      .cls-1 {
        fill: #1f1f1f;
      }
    </style>
  </defs>
  <g id="Object">
    <g>
      <g>
        <path class="cls-1" d="M15.82,16.07s0-.02,0-.03c0,0,0,0,0-.01,0-.02-.01-.03-.02-.05,0-.02-.02-.03-.03-.04,0,0,0,0,0-.01,0,0-.02-.01-.03-.02-.01-.01-.03-.02-.04-.03-.02,0-.03-.01-.05-.02-.02,0-.03,0-.05-.01-.02,0-.04,0-.05,0-.01,0-.02,0-.03,0-.22.05-.45.12-.68.19-.43.13-.87.27-1.29.27-4.87,0-8.83-3.96-8.83-8.83,0-2.53,1.37-5.05,3.77-6.89.11-.09.14-.25.05-.37-.08-.11-.23-.13-.34-.06-.05-.03-.11-.05-.18-.04C3.42.82.1,4.71.1,9.35c0,5.16,4.2,9.36,9.36,9.36,2.33,0,4.56-.86,6.28-2.42,0,0,.01-.02.02-.03.01-.01.02-.03.03-.04,0-.02.01-.03.02-.05,0-.02,0-.03.01-.05,0-.02,0-.04,0-.05ZM.62,9.35C.62,5.18,3.46,1.66,7.44.74c-2.09,1.88-3.27,4.28-3.27,6.71,0,5.16,4.2,9.36,9.36,9.36.27,0,.54-.05.8-.11-1.44.96-3.13,1.47-4.88,1.47C4.59,18.18.62,14.22.62,9.35Z"/>
        <path class="cls-1" d="M9.46,18.8C4.24,18.8,0,14.56,0,9.35,0,4.66,3.36.73,7.99,0c.06-.01.13,0,.19.03.15-.06.32-.02.42.11.12.16.09.38-.07.51-2.37,1.83-3.73,4.31-3.73,6.81,0,4.82,3.92,8.74,8.74,8.74.41,0,.84-.13,1.26-.26.23-.07.46-.14.69-.19,0,0,.04,0,.05,0,.02,0,.05,0,.08,0,.02,0,.05,0,.07.02.02,0,.04.01.06.03.02.01.04.03.06.04.01,0,.02.01.04.03,0,0,.02.02.02.03,0,0,.02.03.03.04.01.02.02.04.03.07.01.04.01.05.01.06h0s0,.05,0,.07c0,.03-.01.05-.02.07,0,.02-.01.04-.03.06-.01.03-.03.04-.04.06,0,0-.01.02-.03.04-1.74,1.58-3.99,2.44-6.34,2.44ZM8.04.2s-.01,0-.02,0C3.48.91.2,4.75.2,9.35c0,5.11,4.15,9.26,9.26,9.26,2.3,0,4.51-.85,6.21-2.39,0,0,0-.01.01-.02,0-.01.02-.02.02-.03,0,0,0-.02.01-.03,0-.01,0-.02,0-.03,0,0,0-.02,0-.03h0s0-.01,0-.02c0,0,0,0,0,0,0,0,0-.02-.01-.03,0-.02-.01-.03-.02-.03,0,0,0,0,0,0,0,0-.01-.01-.02-.01-.01-.01-.02-.02-.03-.02,0,0-.02,0-.03-.01-.01,0-.02,0-.03,0,0,0-.02,0-.03,0,0,0-.02,0-.03,0-.21.05-.44.12-.66.19-.44.13-.88.27-1.32.27-4.93,0-8.93-4.01-8.93-8.93,0-2.56,1.39-5.1,3.81-6.97.03-.03.06-.07.06-.11,0-.04,0-.09-.03-.12-.05-.06-.14-.08-.21-.04-.03.02-.07.02-.1,0-.03-.02-.06-.03-.09-.03ZM9.46,18.28C4.53,18.28.52,14.27.52,9.35.52,5.16,3.36,1.59,7.42.65c.04-.01.09.01.11.05.02.04.01.09-.02.12-2.09,1.88-3.23,4.24-3.23,6.64,0,5.11,4.15,9.26,9.26,9.26.23,0,.48-.03.78-.11.05-.01.09.01.11.06.02.04,0,.09-.04.12-1.47.97-3.17,1.49-4.94,1.49ZM7.1.93C3.32,1.98.72,5.38.72,9.35c0,4.82,3.92,8.74,8.74,8.74,1.55,0,3.06-.41,4.39-1.19-.11.01-.21.02-.32.02-5.21,0-9.46-4.24-9.46-9.46,0-2.35,1.07-4.65,3.02-6.52Z"/>
      </g>
      <g>
        <path class="cls-1" d="M10.87,4.33h1.15v2.29c0,.14.12.26.26.26s.26-.12.26-.26v-2.29h1.15c.14,0,.26-.12.26-.26s-.12-.26-.26-.26h-1.15V1.74c0-.14-.12-.26-.26-.26s-.26.12-.26.26v2.07h-1.15c-.14,0-.26.12-.26.26s.12.26.26.26Z"/>
        <path class="cls-1" d="M12.27,6.99c-.2,0-.36-.16-.36-.36v-2.19h-1.05c-.2,0-.36-.16-.36-.36s.16-.36.36-.36h1.05v-1.98c0-.2.16-.36.36-.36s.36.16.36.36v1.98h1.05c.2,0,.36.16.36.36s-.16.36-.36.36h-1.05v2.19c0,.2-.16.36-.36.36ZM10.87,3.91c-.09,0-.16.07-.16.16s.07.16.16.16h1.15c.05,0,.1.04.1.1v2.29c0,.09.07.16.16.16s.16-.07.16-.16v-2.29c0-.05.04-.1.1-.1h1.15c.09,0,.16-.07.16-.16s-.07-.16-.16-.16h-1.15c-.05,0-.1-.04-.1-.1V1.74c0-.09-.07-.16-.16-.16s-.16.07-.16.16v2.07c0,.05-.04.1-.1.1h-1.15Z"/>
      </g>
      <g>
        <path class="cls-1" d="M16.96,8.67h-.87v-2.04c0-.14-.12-.26-.26-.26s-.26.12-.26.26v2.04h-1.03c-.14,0-.26.12-.26.26s.12.26.26.26h1.03v2.09c0,.14.12.26.26.26s.26-.12.26-.26v-2.09h.87c.14,0,.26-.12.26-.26s-.12-.26-.26-.26Z"/>
        <path class="cls-1" d="M15.82,11.64c-.2,0-.36-.16-.36-.36v-1.99h-.93c-.2,0-.36-.16-.36-.36s.16-.36.36-.36h.93v-1.94c0-.2.16-.36.36-.36s.36.16.36.36v1.94h.78c.2,0,.36.16.36.36s-.16.36-.36.36h-.78v1.99c0,.2-.16.36-.36.36ZM14.53,8.77c-.09,0-.16.07-.16.16s.07.16.16.16h1.03c.05,0,.1.04.1.1v2.09c0,.09.07.16.16.16s.16-.07.16-.16v-2.09c0-.05.04-.1.1-.1h.87c.09,0,.16-.07.16-.16s-.07-.16-.16-.16h-.87c-.05,0-.1-.04-.1-.1v-2.04c0-.09-.07-.16-.16-.16s-.16.07-.16.16v2.04c0,.05-.04.1-.1.1h-1.03Z"/>
      </g>
    </g>
  </g>
</svg>