<?xml version="1.0" encoding="UTF-8"?>
<svg id="Layer_2" data-name="Layer 2" xmlns="http://www.w3.org/2000/svg" viewBox="0 0 19.5 19.5">
  <defs>
    <style>
      .cls-1 {
        fill: #1f1f1f;
      }
    </style>
  </defs>
  <g id="Object">
    <g>
      <g>
        <path class="cls-1" d="M9.75,19.4C4.43,19.4.1,15.07.1,9.75S4.43.1,9.75.1s9.65,4.33,9.65,9.65-4.33,9.65-9.65,9.65ZM9.75.62C4.72.62.62,4.72.62,9.75s4.1,9.13,9.13,9.13,9.13-4.1,9.13-9.13S14.79.62,9.75.62Z"/>
        <path class="cls-1" d="M9.75,19.5C4.37,19.5,0,15.13,0,9.75S4.37,0,9.75,0s9.75,4.37,9.75,9.75-4.37,9.75-9.75,9.75ZM9.75.2C4.48.2.2,4.48.2,9.75s4.29,9.55,9.56,9.55,9.55-4.29,9.55-9.55S15.02.2,9.75.2ZM9.75,18.98C4.66,18.98.52,14.84.52,9.75S4.66.52,9.75.52s9.23,4.14,9.23,9.23-4.14,9.23-9.23,9.23ZM9.75.72C4.77.72.72,4.77.72,9.75s4.05,9.03,9.03,9.03,9.03-4.05,9.03-9.03S14.73.72,9.75.72Z"/>
      </g>
      <g>
        <path class="cls-1" d="M6.74,12.88c-.07,0-.14-.03-.19-.08-.1-.1-.1-.27,0-.37l2.33-2.22c.11-.1.27-.1.37,0,.1.1.1.27,0,.37l-2.33,2.22c-.05.05-.12.07-.18.07Z"/>
        <path class="cls-1" d="M6.74,12.97c-.1,0-.19-.04-.26-.11-.07-.07-.1-.16-.1-.26,0-.1.04-.19.11-.25l2.33-2.22c.07-.07.17-.11.26-.1.1,0,.19.04.25.11.07.07.1.16.1.26,0,.1-.04.19-.11.25l-2.33,2.22c-.07.06-.16.1-.25.1ZM9.07,10.23s-.08.02-.11.05l-2.33,2.22s-.05.07-.05.11c0,.04.01.09.05.12.06.06.17.07.23,0l2.33-2.22s.05-.07.05-.11c0-.04-.01-.09-.05-.12-.03-.03-.07-.05-.11-.05h0Z"/>
      </g>
      <g>
        <path class="cls-1" d="M9.75,9.09c-.14,0-.26-.12-.26-.26V2.8c0-.14.12-.26.26-.26s.26.12.26.26v6.03c0,.14-.12.26-.26.26Z"/>
        <path class="cls-1" d="M9.75,9.19c-.2,0-.36-.16-.36-.36V2.8c0-.2.16-.36.36-.36s.36.16.36.36v6.03c0,.2-.16.36-.36.36ZM9.75,2.63c-.09,0-.16.07-.16.16v6.03c0,.09.07.16.16.16s.16-.07.16-.16V2.8c0-.09-.07-.16-.16-.16Z"/>
      </g>
      <g>
        <path class="cls-1" d="M9.75,10.8c-.58,0-1.05-.47-1.05-1.05s.47-1.05,1.05-1.05,1.05.47,1.05,1.05-.47,1.05-1.05,1.05ZM9.75,9.23c-.29,0-.52.23-.52.52s.24.52.52.52.52-.24.52-.52-.24-.52-.52-.52Z"/>
        <path class="cls-1" d="M9.75,10.9c-.63,0-1.15-.51-1.15-1.15s.51-1.15,1.15-1.15,1.15.51,1.15,1.15-.51,1.15-1.15,1.15ZM9.75,8.8c-.52,0-.95.43-.95.95s.43.95.95.95.95-.43.95-.95-.43-.95-.95-.95ZM9.75,10.37c-.34,0-.62-.28-.62-.62s.28-.62.62-.62.62.28.62.62-.28.62-.62.62ZM9.75,9.33c-.24,0-.43.19-.43.43s.19.43.43.43.43-.19.43-.43-.19-.43-.43-.43Z"/>
      </g>
    </g>
  </g>
</svg>