<?xml version="1.0" encoding="UTF-8"?>
<svg id="Layer_2" data-name="Layer 2" xmlns="http://www.w3.org/2000/svg" viewBox="0 0 15.28 15.28">
  <defs>
    <style>
      .cls-1 {
        fill: #1f1f1f;
      }
    </style>
  </defs>
  <g id="Object">
    <g>
      <path class="cls-1" d="M15.11,14.73L1.12.75l6.2,1.04c.14.02.28-.07.3-.22.02-.14-.07-.28-.22-.3L.4.1c-.08-.01-.17.01-.23.07-.06.06-.09.15-.07.23l1.18,7.01c.02.13.13.22.26.22.01,0,.03,0,.04,0,.14-.02.24-.16.22-.3L.75,1.12l13.98,13.98c.05.05.12.08.19.08s.13-.03.19-.08c.1-.1.1-.27,0-.37Z"/>
      <path class="cls-1" d="M14.92,15.28c-.1,0-.19-.04-.25-.11L.9,1.41l.99,5.9c.03.2-.1.38-.3.42-.19.03-.38-.1-.42-.3L0,.42C-.01.3.02.19.11.11.19.02.31-.01.42,0l7.01,1.18c.09.02.18.07.23.15.06.08.08.17.06.27-.03.2-.22.33-.41.3L1.41.9l13.76,13.76c.07.07.11.16.11.25s-.04.19-.11.26c-.07.07-.16.11-.25.11ZM.75,1.03s.05,0,.07.03l13.98,13.98c.06.06.17.06.23,0,.03-.03.05-.07.05-.12s-.02-.08-.05-.12h0L1.06.82s-.04-.08-.02-.11c.02-.04.06-.06.1-.05l6.2,1.04c.09.02.17-.05.19-.13,0-.04,0-.09-.03-.12-.03-.04-.06-.06-.11-.07L.39.2c-.05,0-.11,0-.14.05-.04.04-.05.09-.05.14l1.18,7.01c.02.09.1.15.19.13.09-.01.15-.1.14-.19L.66,1.14s.01-.08.05-.1c.01,0,.03-.01.05-.01Z"/>
    </g>
  </g>
</svg>