<?xml version="1.0" encoding="UTF-8"?>
<svg id="Layer_2" data-name="Layer 2" xmlns="http://www.w3.org/2000/svg" viewBox="0 0 19.13 19.69">
  <defs>
    <style>
      .cls-1 {
        fill: #1f1f1f;
      }
    </style>
  </defs>
  <g id="Object">
    <g>
      <g>
        <path class="cls-1" d="M14.75.1H4.44c-.14,0-.26.12-.26.26v18.13c0,.14.12.26.26.26h10.31c.14,0,.26-.12.26-.26V.36c0-.14-.12-.26-.26-.26ZM14.49.62v14.45H4.7V.62h9.78ZM4.7,18.23v-2.63h9.78v2.63H4.7Z"/>
        <path class="cls-1" d="M14.75,18.85H4.44c-.2,0-.36-.16-.36-.36V.36c0-.2.16-.36.36-.36h10.31c.2,0,.36.16.36.36v18.13c0,.2-.16.36-.36.36ZM4.44.2c-.09,0-.16.07-.16.16v18.13c0,.09.07.16.16.16h10.31c.09,0,.16-.07.16-.16V.36c0-.09-.07-.16-.16-.16H4.44ZM14.49,18.32H4.7c-.05,0-.1-.04-.1-.1v-2.63c0-.05.04-.1.1-.1h9.78c.05,0,.1.04.1.1v2.63c0,.05-.04.1-.1.1ZM4.8,18.13h9.59v-2.44H4.8v2.44ZM14.49,15.17H4.7c-.05,0-.1-.04-.1-.1V.62c0-.05.04-.1.1-.1h9.78c.05,0,.1.04.1.1v14.45c0,.05-.04.1-.1.1ZM4.8,14.97h9.59V.72H4.8v14.25Z"/>
      </g>
      <g>
        <path class="cls-1" d="M10.67,16.64h-2.14c-.14,0-.26.12-.26.26s.12.26.26.26h2.14c.14,0,.26-.12.26-.26s-.12-.26-.26-.26Z"/>
        <path class="cls-1" d="M10.67,17.26h-2.14c-.2,0-.36-.16-.36-.36s.16-.36.36-.36h2.14c.2,0,.36.16.36.36s-.16.36-.36.36ZM8.53,16.74c-.09,0-.16.07-.16.16s.07.16.16.16h2.14c.09,0,.16-.07.16-.16s-.07-.16-.16-.16h-2.14Z"/>
      </g>
      <g>
        <path class="cls-1" d="M.59.27c-.07-.13-.23-.18-.35-.11-.13.07-.18.23-.11.35l2.43,4.66L.26,9.71c-.04.07-.04.16,0,.23l2.24,4.6L.13,19.14c-.07.13-.02.29.11.35.04.02.08.03.12.03.1,0,.19-.05.23-.14l2.42-4.72c.04-.07.04-.16,0-.23L.78,9.83l2.3-4.54c.04-.08.04-.16,0-.24L.59.27Z"/>
        <path class="cls-1" d="M.36,19.62c-.06,0-.11-.01-.16-.04-.18-.09-.25-.31-.16-.49l2.34-4.56L.17,9.99c-.05-.1-.05-.22,0-.32l2.27-4.49L.04.56C0,.48-.01.38.02.29S.11.12.19.07c.08-.04.18-.05.27-.02.09.03.17.09.21.18l2.49,4.78c.05.1.05.23,0,.33L.89,9.83l2.21,4.56c.05.1.05.22,0,.32l-2.42,4.72c-.06.12-.19.2-.32.2ZM.36.23s-.05,0-.08.02c-.04.02-.07.05-.08.1-.01.04,0,.09.01.12l2.43,4.66s.01.06,0,.09L.35,9.76s-.02.1,0,.15l2.24,4.6s.01.06,0,.09L.21,19.19c-.04.08,0,.18.07.22.08.04.18,0,.22-.07l2.42-4.72s.02-.1,0-.15L.7,9.87s-.01-.06,0-.09l2.3-4.54s.02-.1,0-.15L.51.32h0s-.05-.07-.1-.08c-.02,0-.03,0-.05,0Z"/>
      </g>
      <g>
        <path class="cls-1" d="M16.58,14.54l2.3-4.53c.04-.07.04-.16,0-.23l-2.24-4.6,2.36-4.6c.07-.13.02-.29-.11-.35-.13-.07-.29-.02-.35.11l-2.42,4.72c-.04.07-.04.16,0,.23l2.24,4.6-2.3,4.54c-.04.08-.04.16,0,.24l2.49,4.78c.05.09.14.14.23.14.04,0,.08,0,.12-.03.13-.07.18-.23.11-.35l-2.43-4.66Z"/>
        <path class="cls-1" d="M18.77,19.69c-.14,0-.26-.07-.32-.19l-2.49-4.78c-.05-.1-.05-.23,0-.33l2.28-4.49-2.21-4.56c-.05-.1-.05-.22,0-.32L18.45.3c.09-.18.31-.25.49-.16.18.09.25.31.16.49l-2.34,4.56,2.21,4.55c.05.1.05.22,0,.32l-2.27,4.49,2.4,4.62c.09.18.02.39-.15.49-.05.03-.11.04-.17.04ZM18.77.3c-.06,0-.12.03-.15.09l-2.42,4.72s-.02.1,0,.15l2.24,4.6s.01.06,0,.09l-2.3,4.54s-.02.1,0,.15l2.49,4.78c.04.08.14.11.22.07.08-.04.11-.14.07-.22l-2.43-4.66s-.01-.06,0-.09l2.3-4.53s.02-.1,0-.15l-2.24-4.6s-.01-.06,0-.09l2.36-4.6c.04-.08,0-.18-.07-.22-.02-.01-.05-.02-.07-.02Z"/>
      </g>
    </g>
  </g>
</svg>