<?xml version="1.0" encoding="UTF-8"?>
<svg id="Layer_2" data-name="Layer 2" xmlns="http://www.w3.org/2000/svg" viewBox="0 0 19.42 19.35">
  <defs>
    <style>
      .cls-1 {
        fill: #1f1f1f;
      }
    </style>
  </defs>
  <g id="Object">
    <g>
      <g>
        <path class="cls-1" d="M4.94,19.25c-1.41,0-2.56-1.15-2.56-2.56s1.15-2.56,2.56-2.56,2.56,1.15,2.56,2.56-1.15,2.56-2.56,2.56ZM4.94,14.66c-1.12,0-2.03.91-2.03,2.03s.91,2.03,2.03,2.03,2.03-.91,2.03-2.03-.91-2.03-2.03-2.03Z"/>
        <path class="cls-1" d="M4.94,19.35c-1.46,0-2.66-1.19-2.66-2.66s1.19-2.66,2.66-2.66,2.66,1.19,2.66,2.66-1.19,2.66-2.66,2.66ZM4.94,14.23c-1.36,0-2.46,1.1-2.46,2.46s1.1,2.46,2.46,2.46,2.46-1.1,2.46-2.46-1.1-2.46-2.46-2.46ZM4.94,18.82c-1.18,0-2.13-.96-2.13-2.13s.96-2.13,2.13-2.13,2.13.96,2.13,2.13-.96,2.13-2.13,2.13ZM4.94,14.76c-1.07,0-1.93.87-1.93,1.94s.87,1.93,1.93,1.93,1.94-.87,1.94-1.93-.87-1.94-1.94-1.94Z"/>
      </g>
      <g>
        <path class="cls-1" d="M16.77,16.96c-1.41,0-2.56-1.15-2.56-2.56s1.15-2.56,2.56-2.56,2.56,1.15,2.56,2.56-1.15,2.56-2.56,2.56ZM16.77,12.36c-1.12,0-2.03.91-2.03,2.03s.91,2.03,2.03,2.03,2.03-.91,2.03-2.03-.91-2.03-2.03-2.03Z"/>
        <path class="cls-1" d="M16.77,17.05c-1.46,0-2.66-1.19-2.66-2.66s1.19-2.66,2.66-2.66,2.66,1.19,2.66,2.66-1.19,2.66-2.66,2.66ZM16.77,11.94c-1.36,0-2.46,1.1-2.46,2.46s1.1,2.46,2.46,2.46,2.46-1.1,2.46-2.46-1.1-2.46-2.46-2.46ZM16.77,16.53c-1.18,0-2.13-.96-2.13-2.13s.96-2.13,2.13-2.13,2.13.96,2.13,2.13-.96,2.13-2.13,2.13ZM16.77,12.46c-1.07,0-1.93.87-1.93,1.93s.87,1.94,1.93,1.94,1.94-.87,1.94-1.94-.87-1.93-1.94-1.93Z"/>
      </g>
      <g>
        <path class="cls-1" d="M7.23,16.96c-.14,0-.26-.12-.26-.26V2.57c0-.13.09-.23.21-.26L19.01.1c.08-.01.16,0,.22.06.06.05.09.12.09.2v14.04c0,.14-.12.26-.26.26s-.26-.12-.26-.26V.68L7.49,2.79v13.91c0,.14-.12.26-.26.26Z"/>
        <path class="cls-1" d="M7.23,17.05c-.2,0-.36-.16-.36-.36V2.57c0-.17.12-.32.29-.35L18.99,0c.1-.02.21,0,.3.08.08.07.13.17.13.28v14.04c0,.2-.16.36-.36.36s-.36-.16-.36-.36V.79L7.59,2.87v13.83c0,.2-.16.36-.36.36ZM19.06.2s-.02,0-.03,0L7.2,2.41c-.08.01-.13.08-.13.16v14.13c0,.09.07.16.16.16s.16-.07.16-.16V2.79s.03-.09.08-.1L18.78.58s.06,0,.08.02c.02.02.04.05.04.08v13.72c0,.09.07.16.16.16s.16-.07.16-.16V.36s-.02-.09-.06-.13c-.03-.02-.07-.04-.1-.04Z"/>
      </g>
      <g>
        <path class="cls-1" d="M7.23,5.49c-.12,0-.23-.09-.26-.21-.03-.14.07-.28.21-.31l11.83-2.21c.14-.03.28.07.31.21.03.14-.07.28-.21.31l-11.83,2.21s-.03,0-.05,0Z"/>
        <path class="cls-1" d="M7.23,5.59c-.17,0-.32-.12-.35-.29-.04-.2.09-.38.29-.42l11.83-2.21c.19-.04.38.09.42.29.04.2-.09.38-.29.42l-11.83,2.21s-.04,0-.07,0ZM19.06,2.85s-.02,0-.03,0l-11.83,2.21c-.09.02-.15.1-.13.19.02.09.1.15.19.13l11.83-2.21c.09-.02.15-.1.13-.19-.01-.08-.08-.13-.16-.13Z"/>
      </g>
      <g>
        <path class="cls-1" d="M5.3,5.49H.36c-.14,0-.26-.12-.26-.26s.12-.26.26-.26h4.94c.14,0,.26.12.26.26s-.12.26-.26.26Z"/>
        <path class="cls-1" d="M5.3,5.59H.36c-.2,0-.36-.16-.36-.36s.16-.36.36-.36h4.94c.2,0,.36.16.36.36s-.16.36-.36.36ZM.36,5.06c-.09,0-.16.07-.16.16s.07.16.16.16h4.94c.09,0,.16-.07.16-.16s-.07-.16-.16-.16H.36Z"/>
      </g>
      <g>
        <path class="cls-1" d="M2.83,7.96c-.14,0-.26-.12-.26-.26V2.63c0-.14.12-.26.26-.26s.26.12.26.26v5.07c0,.14-.12.26-.26.26Z"/>
        <path class="cls-1" d="M2.83,8.06c-.2,0-.36-.16-.36-.36V2.63c0-.2.16-.36.36-.36s.36.16.36.36v5.07c0,.2-.16.36-.36.36ZM2.83,2.47c-.09,0-.16.07-.16.16v5.07c0,.09.07.16.16.16s.16-.07.16-.16V2.63c0-.09-.07-.16-.16-.16Z"/>
      </g>
    </g>
  </g>
</svg>