<?xml version="1.0" encoding="UTF-8"?>
<svg id="Layer_2" data-name="Layer 2" xmlns="http://www.w3.org/2000/svg" viewBox="0 0 17.15 19.72">
  <defs>
    <style>
      .cls-1 {
        fill: #1f1f1f;
      }
    </style>
  </defs>
  <g id="Object">
    <g>
      <g>
        <path class="cls-1" d="M7.44,9.4c.14,0,.26-.12.26-.26V2.26c0-.07-.03-.14-.08-.19L5.65.17s-.11-.07-.18-.07H.36C.22.1.1.22.1.36v8.78c0,.14.12.26.26.26h7.08ZM5.73.98l1.06,1.02h-.8c-.14,0-.26-.12-.26-.26v-.76ZM.62.62h4.58v1.64c0,.14.12.26.26.26h1.57c.05,0,.1-.02.14-.05,0,0,0,0,0,0v6.39H.62V.62Z"/>
        <path class="cls-1" d="M7.44,9.5H.36c-.2,0-.36-.16-.36-.36V.36C0,.16.16,0,.36,0h5.11c.09,0,.18.04.25.1l1.97,1.9c.07.07.11.16.11.26v6.88c0,.2-.16.36-.36.36ZM.36.2c-.09,0-.16.07-.16.16v8.78c0,.09.07.16.16.16h7.08c.09,0,.16-.07.16-.16V2.26s-.02-.09-.05-.12L5.58.24s-.07-.05-.11-.05H.36ZM7.18,8.98H.62c-.05,0-.1-.04-.1-.1V.62c0-.05.04-.1.1-.1h4.58c.05,0,.1.04.1.1v1.64c0,.09.07.16.16.16h1.57s.05,0,.09-.03c.03-.02.07-.02.1,0,.03.01.05.04.05.07,0,0,0,.02,0,.02v6.39c0,.05-.04.1-.1.1ZM.72,8.78h6.36V2.62s-.03,0-.04,0h-1.57c-.2,0-.36-.16-.36-.36V.72H.72v8.06ZM6.79,2.1h-.8c-.2,0-.36-.16-.36-.36v-.76s.02-.07.06-.09c.04-.02.08,0,.11.02l1.06,1.02s.04.07.02.11c-.02.04-.05.06-.09.06ZM5.83,1.21v.53c0,.09.07.16.16.16h.56l-.72-.69Z"/>
      </g>
      <g>
        <path class="cls-1" d="M5.66,10.39s-.11-.07-.18-.07H.37c-.14,0-.26.12-.26.26v8.78c0,.14.12.26.26.26h7.08c.14,0,.26-.12.26-.26v-6.88c0-.07-.03-.14-.08-.19l-1.97-1.9ZM5.74,11.2l1.06,1.02h-.8c-.14,0-.26-.12-.26-.26v-.76ZM7.19,19.1H.64v-8.26h4.58v1.64c0,.14.12.26.26.26h1.57c.05,0,.1-.02.14-.05,0,0,0,0,0,0v6.39Z"/>
        <path class="cls-1" d="M7.46,19.72H.37c-.2,0-.36-.16-.36-.36v-8.78c0-.2.16-.36.36-.36h5.11c.09,0,.18.04.25.1h0l1.97,1.9c.07.07.11.16.11.26v6.88c0,.2-.16.36-.36.36ZM.37,10.42c-.09,0-.16.07-.16.16v8.78c0,.09.07.16.16.16h7.08c.09,0,.16-.07.16-.16v-6.88s-.02-.09-.05-.12l-1.97-1.9h0s-.07-.05-.11-.05H.37ZM7.19,19.2H.64c-.05,0-.1-.04-.1-.1v-8.26c0-.05.04-.1.1-.1h4.58c.05,0,.1.04.1.1v1.64c0,.09.07.16.16.16h1.57s.05,0,.09-.03c.03-.02.07-.02.1,0,.03.01.05.04.05.07,0,0,0,.02,0,.02v6.39c0,.05-.04.1-.1.1ZM.74,19h6.36v-6.16s-.03,0-.04,0h-1.57c-.2,0-.36-.16-.36-.36v-1.54H.74v8.06ZM6.81,12.32h-.8c-.2,0-.36-.16-.36-.36v-.76s.02-.07.06-.09c.04-.02.08,0,.11.02l1.06,1.02s.04.07.02.11c-.01.04-.05.06-.09.06ZM5.84,11.43v.53c0,.09.07.16.16.16h.56l-.72-.69Z"/>
      </g>
      <g>
        <path class="cls-1" d="M16.79,9.4c.14,0,.26-.12.26-.26V2.26c0-.07-.03-.14-.08-.19l-1.97-1.9s-.11-.07-.18-.07h-5.11c-.14,0-.26.12-.26.26v8.78c0,.14.12.26.26.26h7.08ZM15.08.98l1.06,1.02h-.8c-.14,0-.26-.12-.26-.26v-.76ZM9.97.62h4.58v1.64c0,.14.12.26.26.26h1.57c.05,0,.1-.02.14-.05,0,0,0,0,0,0v6.39h-6.56V.62Z"/>
        <path class="cls-1" d="M16.79,9.5h-7.08c-.2,0-.36-.16-.36-.36V.36c0-.2.16-.36.36-.36h5.11c.09,0,.18.04.25.1l1.97,1.9c.07.07.11.16.11.26v6.88c0,.2-.16.36-.36.36ZM9.71.2c-.09,0-.16.07-.16.16v8.78c0,.09.07.16.16.16h7.08c.09,0,.16-.07.16-.16V2.26s-.02-.09-.05-.12l-1.97-1.9s-.07-.05-.11-.05h-5.11ZM16.53,8.98h-6.56c-.05,0-.1-.04-.1-.1V.62c0-.05.04-.1.1-.1h4.58c.05,0,.1.04.1.1v1.64c0,.09.07.16.16.16h1.57s.05,0,.09-.03c.03-.02.06-.02.1,0,.03.01.05.04.06.08v6.41c0,.05-.04.1-.1.1ZM10.07,8.78h6.36V2.62s-.03,0-.04,0h-1.57c-.2,0-.36-.16-.36-.36V.72h-4.39v8.06ZM16.14,2.1h-.8c-.2,0-.36-.16-.36-.36v-.76s.02-.07.06-.09c.04-.02.08,0,.11.02l1.06,1.02s.04.07.02.11c-.02.04-.05.06-.09.06ZM15.18,1.21v.53c0,.09.07.16.16.16h.56l-.72-.69Z"/>
      </g>
      <g>
        <path class="cls-1" d="M16.97,12.3l-1.97-1.9s-.11-.07-.18-.07h-5.11c-.14,0-.26.12-.26.26v8.78c0,.14.12.26.26.26h7.08c.14,0,.26-.12.26-.26v-6.88c0-.07-.03-.14-.08-.19ZM15.08,11.2l1.06,1.02h-.8c-.14,0-.26-.12-.26-.26v-.76ZM16.53,19.1h-6.56v-8.26h4.58v1.64c0,.14.12.26.26.26h1.57c.05,0,.1-.02.14-.05,0,0,0,0,0,0v6.39Z"/>
        <path class="cls-1" d="M16.79,19.72h-7.08c-.2,0-.36-.16-.36-.36v-8.78c0-.2.16-.36.36-.36h5.11c.09,0,.18.04.25.1l1.97,1.9c.07.07.11.16.11.26v6.88c0,.2-.16.36-.36.36ZM9.71,10.42c-.09,0-.16.07-.16.16v8.78c0,.09.07.16.16.16h7.08c.09,0,.16-.07.16-.16v-6.88s-.02-.09-.05-.12h0s-1.97-1.9-1.97-1.9c-.03-.03-.07-.05-.11-.05h-5.11ZM16.53,19.2h-6.56c-.05,0-.1-.04-.1-.1v-8.26c0-.05.04-.1.1-.1h4.58c.05,0,.1.04.1.1v1.64c0,.09.07.16.16.16h1.57s.05,0,.09-.03c.03-.02.07-.02.1,0,.03.01.05.04.05.07,0,0,0,.02,0,.02v6.39c0,.05-.04.1-.1.1ZM10.07,19h6.36v-6.16s-.03,0-.04,0h-1.57c-.2,0-.36-.16-.36-.36v-1.54h-4.39v8.06ZM16.14,12.32h-.8c-.2,0-.36-.16-.36-.36v-.76s.02-.07.06-.09c.04-.02.08,0,.11.02l1.06,1.02s.04.07.02.11c-.02.04-.05.06-.09.06ZM15.18,11.43v.53c0,.09.07.16.16.16h.56l-.72-.69Z"/>
      </g>
    </g>
  </g>
</svg>