<?xml version="1.0" encoding="UTF-8"?>
<svg id="Layer_2" data-name="Layer 2" xmlns="http://www.w3.org/2000/svg" viewBox="0 0 19.17 19.09">
  <defs>
    <style>
      .cls-1 {
        fill: #1f1f1f;
      }
    </style>
  </defs>
  <g id="Object">
    <g>
      <g>
        <path class="cls-1" d="M18.8.1h-4.62c-.14,0-.26.12-.26.26v1.95h-.56c-.14,0-.26.12-.26.26s.12.26.26.26h.56v2.15c0,.14.12.26.26.26h2.11v1.83c0,.14.12.26.26.26s.26-.12.26-.26v-1.83h1.99c.14,0,.26-.12.26-.26V.36c0-.14-.12-.26-.26-.26ZM18.54,4.72h-4.1v-2.15h0s0,0,0,0V.62h4.1v4.1Z"/>
        <path class="cls-1" d="M16.55,7.44c-.2,0-.36-.16-.36-.36v-1.74h-2.01c-.2,0-.36-.16-.36-.36v-2.05h-.46c-.2,0-.36-.16-.36-.36s.16-.36.36-.36h.46V.36c0-.2.16-.36.36-.36h4.62c.2,0,.36.16.36.36v4.62c0,.2-.16.36-.36.36h-1.89v1.74c0,.2-.16.36-.36.36ZM13.37,2.41c-.09,0-.16.07-.16.16s.07.16.16.16h.56c.05,0,.1.04.1.1v2.15c0,.09.07.16.16.16h2.11c.05,0,.1.04.1.1v1.83c0,.09.07.16.16.16s.16-.07.16-.16v-1.83c0-.05.04-.1.1-.1h1.99c.09,0,.16-.07.16-.16V.36c0-.09-.07-.16-.16-.16h-4.62c-.09,0-.16.07-.16.16v1.95c0,.05-.04.1-.1.1h-.56ZM18.54,4.82h-4.1c-.05,0-.1-.04-.1-.1v-2.15h0V.62c0-.05.04-.1.1-.1h4.1c.05,0,.1.04.1.1v4.1c0,.05-.04.1-.1.1ZM14.55,4.62h3.9V.72h-3.9v1.84s0,0,0,0,0,0,0,0v2.04Z"/>
      </g>
      <g>
        <path class="cls-1" d="M18.8,13.84h-1.99v-.48c0-.14-.12-.26-.26-.26s-.26.12-.26.26v.48h-2.11c-.14,0-.26.12-.26.26v2.15h-1.83c-.14,0-.26.12-.26.26s.12.26.26.26h1.83v1.95c0,.14.12.26.26.26h4.62c.14,0,.26-.12.26-.26v-4.62c0-.14-.12-.26-.26-.26ZM18.54,18.46h-4.1v-1.95h0s0,0,0,0v-2.15h4.1v4.1Z"/>
        <path class="cls-1" d="M18.8,19.09h-4.62c-.2,0-.36-.16-.36-.36v-1.85h-1.74c-.2,0-.36-.16-.36-.36s.16-.36.36-.36h1.74v-2.05c0-.2.16-.36.36-.36h2.01v-.38c0-.2.16-.36.36-.36s.36.16.36.36v.38h1.89c.2,0,.36.16.36.36v4.62c0,.2-.16.36-.36.36ZM12.09,16.35c-.09,0-.16.07-.16.16s.07.16.16.16h1.83c.05,0,.1.04.1.1v1.95c0,.09.07.16.16.16h4.62c.09,0,.16-.07.16-.16v-4.62c0-.09-.07-.16-.16-.16h-1.99c-.05,0-.1-.04-.1-.1v-.48c0-.09-.07-.16-.16-.16s-.16.07-.16.16v.48c0,.05-.04.1-.1.1h-2.11c-.09,0-.16.07-.16.16v2.15c0,.05-.04.1-.1.1h-1.83ZM18.54,18.56h-4.1c-.05,0-.1-.04-.1-.1v-1.95h0v-2.15c0-.05.04-.1.1-.1h4.1c.05,0,.1.04.1.1v4.1c0,.05-.04.1-.1.1ZM14.55,18.36h3.9v-3.9h-3.9v2.04s0,0,0,0,0,0,0,0v1.84Z"/>
      </g>
      <g>
        <path class="cls-1" d="M2.61,10.17c.14,0,.26-.12.26-.26v-2.1c0-.14-.12-.26-.26-.26s-.26.12-.26.26v2.1c0,.14.12.26.26.26Z"/>
        <path class="cls-1" d="M2.61,10.27c-.2,0-.36-.16-.36-.36v-2.1c0-.2.16-.36.36-.36s.36.16.36.36v2.1c0,.2-.16.36-.36.36ZM2.61,7.65c-.09,0-.16.07-.16.16v2.1c0,.09.07.16.16.16s.16-.07.16-.16v-2.1c0-.09-.07-.16-.16-.16Z"/>
      </g>
      <g>
        <path class="cls-1" d="M5.8,16.25h-.56v-2.15c0-.14-.12-.26-.26-.26h-2.11v-1.83c0-.14-.12-.26-.26-.26s-.26.12-.26.26v1.83H.36c-.14,0-.26.12-.26.26v4.62c0,.14.12.26.26.26h4.62c.14,0,.26-.12.26-.26v-1.95h.56c.14,0,.26-.12.26-.26s-.12-.26-.26-.26ZM4.72,18.46H.62v-4.1h4.1v4.1Z"/>
        <path class="cls-1" d="M4.98,19.09H.36c-.2,0-.36-.16-.36-.36v-4.62c0-.2.16-.36.36-.36h1.89v-1.74c0-.2.16-.36.36-.36s.36.16.36.36v1.74h2.01c.2,0,.36.16.36.36v2.05h.46c.2,0,.36.16.36.36s-.16.36-.36.36h-.46v1.85c0,.2-.16.36-.36.36ZM.36,13.94c-.09,0-.16.07-.16.16v4.62c0,.09.07.16.16.16h4.62c.09,0,.16-.07.16-.16v-1.95c0-.05.04-.1.1-.1h.56c.09,0,.16-.07.16-.16s-.07-.16-.16-.16h-.56c-.05,0-.1-.04-.1-.1v-2.15c0-.09-.07-.16-.16-.16h-2.11c-.05,0-.1-.04-.1-.1v-1.83c0-.09-.07-.16-.16-.16s-.16.07-.16.16v1.83c0,.05-.04.1-.1.1H.36ZM4.72,18.56H.62c-.05,0-.1-.04-.1-.1v-4.1c0-.05.04-.1.1-.1h4.1c.05,0,.1.04.1.1v4.1c0,.05-.04.1-.1.1ZM.72,18.36h3.9v-3.9H.72v3.9Z"/>
      </g>
      <g>
        <path class="cls-1" d="M9.99,16.25h-2.1c-.14,0-.26.12-.26.26s.12.26.26.26h2.1c.14,0,.26-.12.26-.26s-.12-.26-.26-.26Z"/>
        <path class="cls-1" d="M9.99,16.88h-2.1c-.2,0-.36-.16-.36-.36s.16-.36.36-.36h2.1c.2,0,.36.16.36.36s-.16.36-.36.36ZM7.9,16.35c-.09,0-.16.07-.16.16s.07.16.16.16h2.1c.09,0,.16-.07.16-.16s-.07-.16-.16-.16h-2.1Z"/>
      </g>
      <g>
        <path class="cls-1" d="M16.55,11.53c.14,0,.26-.12.26-.26v-2.1c0-.14-.12-.26-.26-.26s-.26.12-.26.26v2.1c0,.14.12.26.26.26Z"/>
        <path class="cls-1" d="M16.55,11.63c-.2,0-.36-.16-.36-.36v-2.1c0-.2.16-.36.36-.36s.36.16.36.36v2.1c0,.2-.16.36-.36.36ZM16.55,9.01c-.09,0-.16.07-.16.16v2.1c0,.09.07.16.16.16s.16-.07.16-.16v-2.1c0-.09-.07-.16-.16-.16Z"/>
      </g>
      <g>
        <path class="cls-1" d="M7.08,2.31h-1.83V.1H.1v5.14h2.25v.48c0,.14.12.26.26.26s.26-.12.26-.26v-.48h2.37v-2.41h1.83c.14,0,.26-.12.26-.26s-.12-.26-.26-.26ZM2.61,4.72h0s0,0,0,0H.62s4.1,0,4.1,0h0s-2.11,0-2.11,0Z"/>
        <path class="cls-1" d="M2.61,6.08c-.2,0-.36-.16-.36-.36v-.38H.1c-.05,0-.1-.04-.1-.1V.1c0-.05.04-.1.1-.1h5.14c.05,0,.1.04.1.1v2.11h1.74c.2,0,.36.16.36.36s-.16.36-.36.36h-1.74v2.31c0,.05-.04.1-.1.1h-2.27v.38c0,.2-.16.36-.36.36ZM.2,5.14h2.15c.05,0,.1.04.1.1v.48c0,.09.07.16.16.16s.16-.07.16-.16v-.48c0-.05.04-.1.1-.1h2.27v-2.31c0-.05.04-.1.1-.1h1.83c.09,0,.16-.07.16-.16s-.07-.16-.16-.16h-1.83c-.05,0-.1-.04-.1-.1V.2H.2v4.95ZM4.72,4.82H.62c-.05,0-.1-.04-.1-.1s.04-.1.1-.1h4.1c.05,0,.1.04.1.1s-.04.1-.1.1Z"/>
      </g>
      <g>
        <path class="cls-1" d="M11.27,2.31h-2.1c-.14,0-.26.12-.26.26s.12.26.26.26h2.1c.14,0,.26-.12.26-.26s-.12-.26-.26-.26Z"/>
        <path class="cls-1" d="M11.27,2.93h-2.1c-.2,0-.36-.16-.36-.36s.16-.36.36-.36h2.1c.2,0,.36.16.36.36s-.16.36-.36.36ZM9.17,2.41c-.09,0-.16.07-.16.16s.07.16.16.16h2.1c.09,0,.16-.07.16-.16s-.07-.16-.16-.16h-2.1Z"/>
      </g>
    </g>
  </g>
</svg>