<?xml version="1.0" encoding="UTF-8"?>
<svg id="Layer_2" data-name="Layer 2" xmlns="http://www.w3.org/2000/svg" viewBox="0 0 19.53 18.95">
  <defs>
    <style>
      .cls-1 {
        fill: #1f1f1f;
      }
    </style>
  </defs>
  <g id="Object">
    <g>
      <g>
        <g>
          <path class="cls-1" d="M3.56,17.85c-1.91,0-3.47-1.55-3.47-3.47s1.55-3.47,3.47-3.47c.14,0,.26.12.26.26s-.12.26-.26.26c-1.62,0-2.94,1.32-2.94,2.94s1.32,2.94,2.94,2.94c.14,0,.26.12.26.26s-.12.26-.26.26Z"/>
          <path class="cls-1" d="M3.56,17.94c-1.97,0-3.56-1.6-3.56-3.56s1.6-3.56,3.56-3.56c.2,0,.36.16.36.36s-.16.36-.36.36c-1.57,0-2.84,1.28-2.84,2.84s1.28,2.84,2.84,2.84c.2,0,.36.16.36.36s-.16.36-.36.36ZM3.56,11.01c-1.86,0-3.37,1.51-3.37,3.37s1.51,3.37,3.37,3.37c.09,0,.16-.07.16-.16s-.07-.16-.16-.16c-1.68,0-3.04-1.36-3.04-3.04s1.36-3.04,3.04-3.04c.09,0,.16-.07.16-.16s-.07-.16-.16-.16Z"/>
        </g>
        <g>
          <path class="cls-1" d="M4.7,18.85c-.77,0-1.39-.63-1.39-1.39v-6.24c0-.77.63-1.39,1.39-1.39s1.39.63,1.39,1.39v6.24c0,.77-.63,1.39-1.39,1.39ZM4.7,10.35c-.48,0-.87.39-.87.87v6.24c0,.48.39.87.87.87s.87-.39.87-.87v-6.24c0-.48-.39-.87-.87-.87Z"/>
          <path class="cls-1" d="M4.7,18.95c-.82,0-1.49-.67-1.49-1.49v-6.24c0-.82.67-1.49,1.49-1.49s1.49.67,1.49,1.49v6.24c0,.82-.67,1.49-1.49,1.49ZM4.7,9.92c-.71,0-1.3.58-1.3,1.3v6.24c0,.71.58,1.3,1.3,1.3s1.3-.58,1.3-1.3v-6.24c0-.71-.58-1.3-1.3-1.3ZM4.7,18.42c-.53,0-.97-.43-.97-.97v-6.24c0-.53.43-.97.97-.97s.97.43.97.97v6.24c0,.53-.43.97-.97.97ZM4.7,10.44c-.43,0-.77.35-.77.77v6.24c0,.43.35.77.77.77s.77-.35.77-.77v-6.24c0-.43-.35-.77-.77-.77Z"/>
        </g>
        <g>
          <path class="cls-1" d="M15.97,17.85c-.14,0-.26-.12-.26-.26s.12-.26.26-.26c1.62,0,2.94-1.32,2.94-2.94s-1.32-2.94-2.94-2.94c-.14,0-.26-.12-.26-.26s.12-.26.26-.26c1.91,0,3.47,1.55,3.47,3.47s-1.55,3.47-3.47,3.47Z"/>
          <path class="cls-1" d="M15.97,17.94c-.2,0-.36-.16-.36-.36s.16-.36.36-.36c1.57,0,2.84-1.28,2.84-2.84s-1.28-2.84-2.84-2.84c-.2,0-.36-.16-.36-.36s.16-.36.36-.36c1.97,0,3.56,1.6,3.56,3.56s-1.6,3.56-3.56,3.56ZM15.97,11.01c-.09,0-.16.07-.16.16s.07.16.16.16c1.68,0,3.04,1.36,3.04,3.04s-1.36,3.04-3.04,3.04c-.09,0-.16.07-.16.16s.07.16.16.16c1.86,0,3.37-1.51,3.37-3.37s-1.51-3.37-3.37-3.37Z"/>
        </g>
        <g>
          <path class="cls-1" d="M14.83,18.85c-.77,0-1.39-.63-1.39-1.39v-6.24c0-.77.63-1.39,1.39-1.39s1.39.63,1.39,1.39v6.24c0,.77-.63,1.39-1.39,1.39ZM14.83,10.35c-.48,0-.87.39-.87.87v6.24c0,.48.39.87.87.87s.87-.39.87-.87v-6.24c0-.48-.39-.87-.87-.87Z"/>
          <path class="cls-1" d="M14.83,18.95c-.82,0-1.49-.67-1.49-1.49v-6.24c0-.82.67-1.49,1.49-1.49s1.49.67,1.49,1.49v6.24c0,.82-.67,1.49-1.49,1.49ZM14.83,9.92c-.71,0-1.3.58-1.3,1.3v6.24c0,.71.58,1.3,1.3,1.3s1.3-.58,1.3-1.3v-6.24c0-.71-.58-1.3-1.3-1.3ZM14.83,18.42c-.53,0-.97-.43-.97-.97v-6.24c0-.53.43-.97.97-.97s.97.43.97.97v6.24c0,.53-.43.97-.97.97ZM14.83,10.44c-.43,0-.77.35-.77.77v6.24c0,.43.35.77.77.77s.77-.35.77-.77v-6.24c0-.43-.35-.77-.77-.77Z"/>
        </g>
      </g>
      <g>
        <path class="cls-1" d="M17.16,11.54c-.14,0-.26-.12-.26-.26v-3.1c0-4.17-3.2-7.56-7.13-7.56s-7.13,3.39-7.13,7.56v3.1c0,.14-.12.26-.26.26s-.26-.12-.26-.26v-3.1C2.11,3.72,5.54.1,9.76.1s7.66,3.63,7.66,8.08v3.1c0,.14-.12.26-.26.26Z"/>
        <path class="cls-1" d="M17.16,11.64c-.2,0-.36-.16-.36-.36v-3.1c0-4.11-3.16-7.46-7.03-7.46s-7.03,3.35-7.03,7.46v3.1c0,.2-.16.36-.36.36s-.36-.16-.36-.36v-3.1C2.01,3.67,5.49,0,9.76,0s7.76,3.67,7.76,8.18v3.1c0,.2-.16.36-.36.36ZM9.76.52c3.99,0,7.23,3.44,7.23,7.66v3.1c0,.09.07.16.16.16s.16-.07.16-.16v-3.1C17.32,3.78,13.93.2,9.76.2S2.21,3.78,2.21,8.18v3.1c0,.09.07.16.16.16s.16-.07.16-.16v-3.1C2.53,3.96,5.78.52,9.76.52Z"/>
      </g>
    </g>
  </g>
</svg>