<?xml version="1.0" encoding="UTF-8"?>
<svg id="Layer_2" data-name="Layer 2" xmlns="http://www.w3.org/2000/svg" viewBox="0 0 17.01 19.5">
  <defs>
    <style>
      .cls-1 {
        fill: #1f1f1f;
      }
    </style>
  </defs>
  <g id="Object">
    <g>
      <g>
        <path class="cls-1" d="M7.42,14.75C3.39,14.75.1,11.46.1,7.42S3.39.1,7.42.1s7.33,3.29,7.33,7.33-3.29,7.33-7.33,7.33ZM7.42.62C3.67.62.62,3.67.62,7.42s3.05,6.8,6.8,6.8,6.8-3.05,6.8-6.8S11.18.62,7.42.62Z"/>
        <path class="cls-1" d="M7.42,14.85C3.33,14.85,0,11.52,0,7.42S3.33,0,7.42,0s7.42,3.33,7.42,7.42-3.33,7.42-7.42,7.42ZM7.42.2C3.44.2.2,3.44.2,7.42s3.24,7.23,7.23,7.23,7.23-3.24,7.23-7.23S11.41.2,7.42.2ZM7.42,14.33c-3.81,0-6.9-3.1-6.9-6.9S3.62.52,7.42.52s6.9,3.1,6.9,6.9-3.1,6.9-6.9,6.9ZM7.42.72C3.73.72.72,3.73.72,7.42s3.01,6.7,6.7,6.7,6.7-3.01,6.7-6.7S11.12.72,7.42.72Z"/>
      </g>
      <g>
        <path class="cls-1" d="M16.65,19.4c-.07,0-.15-.03-.2-.09l-5.09-5.99c-.09-.11-.08-.28.03-.37.11-.09.28-.08.37.03l5.09,5.99c.09.11.08.28-.03.37-.05.04-.11.06-.17.06Z"/>
        <path class="cls-1" d="M16.65,19.5c-.11,0-.21-.05-.27-.13l-5.09-5.99c-.13-.15-.11-.38.04-.51.15-.13.38-.11.51.04l5.09,5.99c.13.15.11.38-.04.51-.07.06-.15.09-.23.09ZM11.56,12.99s-.08.01-.11.04c-.07.06-.08.16-.02.23l5.09,5.99c.06.07.16.08.23.02.07-.06.08-.16.02-.23l-5.09-5.99s-.08-.06-.13-.06Z"/>
      </g>
    </g>
  </g>
</svg>