<?xml version="1.0" encoding="UTF-8"?>
<svg id="Layer_2" data-name="Layer 2" xmlns="http://www.w3.org/2000/svg" viewBox="0 0 19.43 19.2">
  <defs>
    <style>
      .cls-1 {
        fill: #1f1f1f;
      }
    </style>
  </defs>
  <g id="Object">
    <g>
      <path class="cls-1" d="M5,19.1s-.07,0-.11-.02c-.1-.04-.16-.14-.16-.24v-4.06H.36c-.14,0-.26-.12-.26-.26V.36C.1.22.22.1.36.1h18.71c.14,0,.26.12.26.26v14.15c0,.14-.12.26-.26.26h-9.25l-4.64,4.25s-.11.07-.18.07ZM.62,14.25h4.38c.14,0,.26.12.26.26v3.73l4.28-3.92s.11-.07.18-.07h9.09V.62H.62v13.63Z"/>
      <path class="cls-1" d="M5,19.2c-.05,0-.1-.01-.14-.03-.13-.06-.22-.19-.22-.33v-3.96H.36c-.2,0-.36-.16-.36-.36V.36c0-.2.16-.36.36-.36h18.71c.2,0,.36.16.36.36v14.15c0,.2-.16.36-.36.36h-9.21l-4.61,4.23c-.07.06-.15.09-.24.09ZM.36.2c-.09,0-.16.07-.16.16v14.15c0,.09.07.16.16.16h4.37c.05,0,.1.04.1.1v4.06c0,.06.04.12.1.15.06.03.13.01.18-.03l4.64-4.25s.04-.03.07-.03h9.25c.09,0,.16-.07.16-.16V.36c0-.09-.07-.16-.16-.16H.36ZM5.26,18.34s-.03,0-.04,0c-.04-.02-.06-.05-.06-.09v-3.73c0-.09-.07-.16-.16-.16H.62c-.05,0-.1-.04-.1-.1V.62c0-.05.04-.1.1-.1h18.18c.05,0,.1.04.1.1v13.63c0,.05-.04.1-.1.1h-9.09s-.08.02-.11.04l-4.28,3.92s-.04.03-.07.03ZM.72,14.15h4.28c.2,0,.36.16.36.36v3.5l4.11-3.77c.07-.06.15-.09.24-.09h8.99V.72H.72v13.43Z"/>
    </g>
  </g>
</svg>