<?xml version="1.0" encoding="UTF-8"?>
<svg id="Layer_2" data-name="Layer 2" xmlns="http://www.w3.org/2000/svg" viewBox="0 0 15.92 18.8">
  <defs>
    <style>
      .cls-1 {
        fill: #1f1f1f;
      }
    </style>
  </defs>
  <g id="Object">
    <g>
      <path class="cls-1" d="M15.82,16.07s0-.02,0-.03c0,0,0,0,0-.01,0-.02-.01-.03-.02-.05,0-.02-.02-.03-.03-.05,0,0,0,0,0-.01,0,0-.02-.01-.03-.02-.01-.01-.03-.02-.04-.03-.01,0-.03-.01-.05-.02-.02,0-.03,0-.05-.01-.02,0-.04,0-.05,0-.01,0-.02,0-.03,0-.22.05-.45.12-.68.19-.43.13-.87.27-1.29.27-.87,0-1.7-.13-2.5-.36,1.2-1.2,1.85-2.8,1.85-4.5,0-3.52-2.86-6.38-6.38-6.38-.49,0-.98.06-1.45.17.55-1.73,1.73-3.36,3.41-4.65.11-.09.14-.25.05-.37-.08-.11-.23-.13-.34-.06-.05-.03-.11-.05-.18-.04C3.42.82.1,4.71.1,9.35c0,5.16,4.2,9.36,9.36,9.36,2.33,0,4.56-.86,6.28-2.42,0,0,.01-.02.02-.03.01-.01.02-.03.03-.04,0-.01.01-.03.02-.05,0-.02.01-.03.01-.05,0-.02,0-.04,0-.05ZM6.51,5.58c3.23,0,5.86,2.63,5.86,5.86,0,1.56-.61,3.04-1.72,4.14l-.17.17c-3.37-1.25-5.78-4.49-5.78-8.29,0-.55.07-1.11.2-1.65.52-.15,1.06-.23,1.61-.23ZM9.46,18.18C4.59,18.18.62,14.22.62,9.35.62,5.18,3.46,1.66,7.44.74c-2.09,1.88-3.27,4.28-3.27,6.71,0,5.16,4.2,9.36,9.36,9.36.27,0,.54-.05.8-.11-1.44.96-3.13,1.47-4.88,1.47Z"/>
      <path class="cls-1" d="M9.46,18.8C4.24,18.8,0,14.56,0,9.35,0,4.66,3.36.73,7.99,0c.06-.01.13,0,.19.03.15-.06.32-.02.42.11.06.08.08.17.07.27-.01.1-.06.18-.14.24-1.6,1.24-2.75,2.77-3.32,4.44.43-.09.87-.13,1.3-.13,3.57,0,6.48,2.91,6.48,6.48,0,1.67-.63,3.24-1.77,4.45.75.21,1.53.31,2.31.31.41,0,.84-.13,1.26-.26.23-.07.46-.14.69-.19,0,0,.04,0,.05,0,.02,0,.05,0,.07,0,.02,0,.05,0,.07.02.02,0,.04.01.06.02.03.01.05.03.06.04,0,0,.02.01.04.03,0,0,.02.02.02.03,0,0,.02.03.03.05,0,.02.02.04.03.06.01.04.01.06.01.07h0s-.1,0-.1,0h.1s0,.04,0,.06c0,.02,0,.04-.02.07,0,.02-.01.04-.02.06-.01.03-.03.05-.04.06,0,0-.01.02-.03.03-1.74,1.58-3.99,2.44-6.34,2.44ZM8.04.2s-.01,0-.02,0C3.48.91.2,4.75.2,9.35c0,5.11,4.15,9.26,9.26,9.26,2.3,0,4.51-.85,6.21-2.39,0,0,0-.01.01-.02,0-.01.02-.02.02-.03,0,0,0-.02,0-.03,0-.01,0-.02,0-.03,0,0,0-.02,0-.03h.1s-.1,0-.1,0c0,0,0-.01,0-.02,0,0,0,0,0-.01,0,0,0-.01-.01-.02,0-.02-.01-.03-.02-.03,0,0,0,0,0,0,0,0-.01,0-.01-.01-.01,0-.02-.02-.03-.02,0,0-.02,0-.03-.01-.01,0-.02,0-.03,0,0,0-.02,0-.03,0,0,0-.02,0-.03,0-.21.05-.44.12-.66.19-.44.13-.88.27-1.32.27-.85,0-1.7-.12-2.52-.37-.03,0-.06-.04-.07-.07,0-.03,0-.07.03-.09,1.18-1.19,1.82-2.76,1.82-4.43,0-3.47-2.82-6.28-6.28-6.28-.48,0-.96.06-1.43.17-.03,0-.07,0-.09-.03-.02-.03-.03-.06-.02-.1.57-1.78,1.76-3.4,3.44-4.7.03-.03.06-.07.06-.11,0-.04,0-.09-.03-.12-.05-.06-.14-.08-.21-.04-.03.02-.07.02-.1,0-.02-.01-.05-.03-.09-.03ZM9.46,18.28C4.53,18.28.52,14.27.52,9.35.52,5.16,3.36,1.59,7.42.65c.04-.01.09.01.11.05.02.04.01.09-.02.12-2.09,1.88-3.23,4.24-3.23,6.64,0,5.11,4.15,9.26,9.26,9.26.23,0,.48-.03.78-.11.05-.01.09.01.11.06.02.04,0,.09-.04.12-1.47.97-3.18,1.49-4.94,1.49ZM7.1.93C3.32,1.98.72,5.38.72,9.35c0,4.82,3.92,8.74,8.74,8.74,1.55,0,3.06-.41,4.39-1.19-.11.01-.21.02-.32.02-5.21,0-9.46-4.24-9.46-9.46,0-2.35,1.07-4.66,3.02-6.52ZM10.49,15.84s-.02,0-.03,0c-3.5-1.29-5.85-4.66-5.85-8.38,0-.55.07-1.11.2-1.68,0-.03.03-.06.07-.07.54-.15,1.09-.23,1.64-.23,3.28,0,5.96,2.67,5.96,5.96,0,1.59-.62,3.09-1.74,4.21l-.17.17s-.04.03-.07.03ZM4.98,5.88c-.12.53-.18,1.06-.18,1.57,0,3.62,2.27,6.89,5.66,8.17l.12-.12c1.09-1.09,1.69-2.53,1.69-4.07,0-3.18-2.58-5.76-5.76-5.76-.51,0-1.03.07-1.53.21Z"/>
    </g>
  </g>
</svg>