<?xml version="1.0" encoding="UTF-8"?>
<svg id="Layer_2" data-name="Layer 2" xmlns="http://www.w3.org/2000/svg" viewBox="0 0 19.2 19.72">
  <defs>
    <style>
      .cls-1 {
        fill: #1f1f1f;
      }
    </style>
  </defs>
  <g id="Object">
    <g>
      <path class="cls-1" d="M19.02.17c-.09-.08-.22-.1-.32-.03L.22,11.93c-.08.05-.13.14-.12.24,0,.1.06.18.15.22l4.76,2.19,2.19,4.89c.04.09.13.15.22.15,0,0,.01,0,.02,0,.09,0,.18-.05.22-.13L19.06.5c.06-.1.05-.24-.04-.32ZM7.47,18.8l-1.95-4.36,4.07-4.33c.1-.11.09-.27-.01-.37-.11-.1-.27-.09-.37.01l-4.06,4.32-4.24-1.95L18.04,1.18,7.47,18.8Z"/>
      <path class="cls-1" d="M7.44,19.72c-.16,0-.27-.09-.33-.21l-2.17-4.86L.21,12.48c-.12-.06-.2-.17-.21-.3,0-.13.05-.26.17-.33L18.64.06c.14-.09.32-.07.44.05h0c.12.12.14.3.06.44L7.75,19.55c-.07.11-.18.17-.31.17ZM18.84.2s-.06,0-.09.03L.27,12.02c-.05.03-.08.09-.08.15,0,.06.04.11.09.14l4.76,2.19s.04.03.05.05l2.19,4.89c.02.06.08.09.14.1h0c.07,0,.12-.03.15-.08L18.98.44c.04-.07.03-.15-.03-.2h0s-.07-.05-.11-.05ZM7.47,18.89s0,0,0,0c-.04,0-.07-.02-.08-.06l-1.95-4.36s0-.08.02-.11l4.07-4.33c.06-.07.06-.17,0-.23-.07-.06-.17-.06-.23,0l-4.06,4.32s-.07.04-.11.02l-4.24-1.95s-.05-.05-.06-.08c0-.04.01-.07.05-.09L17.99,1.1s.09-.02.12.01c.03.03.04.08.02.12L7.55,18.85s-.05.05-.08.05ZM5.64,14.45l1.85,4.13L17.74,1.49,1.11,12.1l4.01,1.84,4.02-4.27c.14-.14.36-.15.51-.02.14.14.15.36.02.51l-4.03,4.28Z"/>
    </g>
  </g>
</svg>