<?xml version="1.0" encoding="UTF-8"?>
<svg id="Layer_2" data-name="Layer 2" xmlns="http://www.w3.org/2000/svg" viewBox="0 0 19.5 19.5">
  <defs>
    <style>
      .cls-1 {
        fill: #1f1f1f;
      }
    </style>
  </defs>
  <g id="Object">
    <g>
      <g>
        <path class="cls-1" d="M9.75,19.4C4.43,19.4.1,15.07.1,9.75S4.43.1,9.75.1s9.65,4.33,9.65,9.65-4.33,9.65-9.65,9.65ZM9.75.62C4.72.62.62,4.72.62,9.75s4.1,9.13,9.13,9.13,9.13-4.1,9.13-9.13S14.79.62,9.75.62Z"/>
        <path class="cls-1" d="M9.75,19.5C4.37,19.5,0,15.13,0,9.75S4.37,0,9.75,0s9.75,4.37,9.75,9.75-4.37,9.75-9.75,9.75ZM9.75.2C4.48.2.2,4.48.2,9.75s4.29,9.55,9.55,9.55,9.56-4.29,9.56-9.55S15.02.2,9.75.2ZM9.75,18.98C4.66,18.98.52,14.84.52,9.75S4.66.52,9.75.52s9.23,4.14,9.23,9.23-4.14,9.23-9.23,9.23ZM9.75.72C4.77.72.72,4.77.72,9.75s4.05,9.03,9.03,9.03,9.03-4.05,9.03-9.03S14.73.72,9.75.72Z"/>
      </g>
      <g>
        <path class="cls-1" d="M9.63,14.15s-.07,0-.11-.02c-.09-.04-.15-.14-.15-.24V5.61c0-.1.06-.2.15-.24.09-.04.2-.03.28.04l4.83,4.14c.06.05.09.12.09.2s-.03.15-.09.2l-4.83,4.14s-.11.06-.17.06ZM9.9,6.18v7.14l4.16-3.57-4.16-3.57Z"/>
        <path class="cls-1" d="M9.63,14.25c-.05,0-.1-.01-.15-.03-.13-.06-.21-.19-.21-.33V5.61c0-.14.08-.27.21-.33.13-.06.28-.04.39.05l4.83,4.14c.08.07.13.17.13.27s-.05.2-.13.27l-4.83,4.14c-.06.06-.15.09-.23.09ZM9.63,5.45s-.05,0-.07.01c-.06.03-.1.09-.1.15v8.28c0,.06.04.12.1.15.06.03.13.02.17-.02l4.83-4.14s.06-.08.06-.12-.02-.09-.06-.12l-4.83-4.14s-.07-.04-.11-.04ZM9.9,13.42s-.03,0-.04,0c-.03-.02-.06-.05-.06-.09v-7.14s.02-.07.06-.09c.03-.02.08-.01.1.01l4.16,3.57s.03.05.03.07-.01.06-.03.07l-4.16,3.57s-.04.02-.06.02ZM9.99,6.4v6.71l3.91-3.36-3.91-3.36Z"/>
      </g>
      <g>
        <path class="cls-1" d="M7.37,14.39c-.14,0-.26-.12-.26-.26V5.61c0-.14.12-.26.26-.26s.26.12.26.26v8.52c0,.14-.12.26-.26.26Z"/>
        <path class="cls-1" d="M7.37,14.49c-.2,0-.36-.16-.36-.36V5.61c0-.2.16-.36.36-.36s.36.16.36.36v8.52c0,.2-.16.36-.36.36ZM7.37,5.45c-.09,0-.16.07-.16.16v8.52c0,.09.07.16.16.16s.16-.07.16-.16V5.61c0-.09-.07-.16-.16-.16Z"/>
      </g>
    </g>
  </g>
</svg>