<?xml version="1.0" encoding="UTF-8"?>
<svg id="Layer_2" data-name="Layer 2" xmlns="http://www.w3.org/2000/svg" viewBox="0 0 19.45 19.37">
  <defs>
    <style>
      .cls-1 {
        fill: #1f1f1f;
      }
    </style>
  </defs>
  <g id="Object">
    <g>
      <g>
        <path class="cls-1" d="M6.56,4.89c-.1-.1-.27-.1-.37,0s-.1.27,0,.37l9.64,9.64-2.68,2.68-2.97-2.97.46-.46c.1-.1.1-.27,0-.37l-5.03-5.03c-.1-.1-.27-.1-.37,0l-.49.49-3.03-3.03,2.74-2.74c.1-.1.1-.27,0-.37-.1-.1-.27-.1-.37,0L.18,7.02c-.1.1-.1.27,0,.37l3.43,3.39c.1.1.27.1.37,0l1.46-1.46,4.66,4.66-1.52,1.52c-.1.1-.1.27,0,.37l3.34,3.34c.1.1.27.1.37,0l4.11-4.11c.1-.1.1-.27,0-.37L6.56,4.89ZM3.78,10.22L.73,7.2l.62-.62,3.03,3.03-.6.6ZM12.09,18.64l-2.97-2.97.68-.68,2.96,2.97-.68.68Z"/>
        <path class="cls-1" d="M12.09,19.37c-.09,0-.18-.04-.25-.11l-3.34-3.34c-.07-.07-.11-.16-.11-.26s.04-.19.11-.25l1.45-1.45-4.52-4.52-1.39,1.39c-.14.14-.37.14-.51,0L.11,7.46C.04,7.39,0,7.3,0,7.21c0-.1.04-.19.11-.26l3.92-3.92c.14-.14.37-.14.51,0,.07.07.11.16.11.25s-.04.19-.11.25l-2.68,2.68,2.9,2.9.42-.42c.07-.07.16-.11.25-.11h0c.1,0,.19.04.26.11l5.03,5.03c.14.14.14.37,0,.51l-.39.39,2.83,2.83,2.55-2.54L6.12,5.33c-.14-.14-.14-.37,0-.51.14-.14.37-.14.51,0l9.82,9.82c.14.14.14.37,0,.51l-4.11,4.11c-.07.07-.16.11-.25.11ZM5.43,9.22s.05.01.07.03l4.66,4.66s.04.1,0,.14l-1.52,1.52s-.05.07-.05.12.02.08.05.12l3.34,3.34c.06.06.17.06.23,0l4.11-4.11c.06-.06.06-.17,0-.23L6.49,4.96c-.06-.06-.17-.06-.23,0-.06.06-.06.17,0,.23l9.64,9.64s.03.04.03.07-.01.05-.03.07l-2.68,2.68s-.1.04-.14,0l-2.97-2.97s-.03-.04-.03-.07.01-.05.03-.07l.46-.46c.06-.06.06-.17,0-.23l-5.03-5.03s-.07-.05-.12-.05h0s-.08.02-.12.05l-.49.49s-.1.04-.14,0l-3.03-3.03s-.04-.1,0-.14l2.74-2.74c.06-.06.06-.17,0-.23-.06-.06-.17-.06-.23,0L.24,7.09s-.05.07-.05.12c0,.04.02.09.05.12l3.43,3.39c.06.06.17.06.23,0l1.46-1.46s.04-.03.07-.03ZM12.09,18.74s-.05-.01-.07-.03l-2.97-2.97s-.04-.1,0-.14l.68-.68s.1-.04.14,0l2.96,2.97s.04.1,0,.14l-.68.68s-.04.03-.07.03ZM9.26,15.67l2.83,2.83.54-.54-2.83-2.83-.54.54ZM3.78,10.32s-.05,0-.07-.03L.66,7.27s-.03-.04-.03-.07.01-.05.03-.07l.62-.62s.1-.04.14,0l3.03,3.03s.03.04.03.07-.01.05-.03.07l-.6.6s-.04.03-.07.03ZM.87,7.2l2.91,2.88.47-.46-2.9-2.9-.48.48Z"/>
      </g>
      <g>
        <path class="cls-1" d="M19.09,7.35h-6.81V1.02l1.19,1.19c.1.1.27.1.37,0,.1-.1.1-.27,0-.37l-1.67-1.67c-.1-.1-.27-.1-.37,0l-1.7,1.7c-.1.1-.1.27,0,.37.05.05.12.08.19.08s.13-.03.19-.08l1.28-1.28v6.65c0,.14.12.26.26.26h7.08c.14,0,.26-.12.26-.26s-.12-.26-.26-.26Z"/>
        <path class="cls-1" d="M19.09,7.97h-7.08c-.2,0-.36-.16-.36-.36V1.2l-1.11,1.11c-.14.14-.37.14-.51,0-.14-.14-.14-.37,0-.51L11.73.1c.14-.14.37-.14.51,0l1.67,1.67c.14.14.14.37,0,.51-.07.07-.16.11-.25.11h0c-.1,0-.19-.04-.25-.11l-1.02-1.02v5.99h6.72c.2,0,.36.16.36.36s-.16.36-.36.36ZM11.75.86s.03,0,.04,0c.04.02.06.05.06.09v6.65c0,.09.07.16.16.16h7.08c.09,0,.16-.07.16-.16s-.07-.16-.16-.16h-6.81c-.05,0-.1-.04-.1-.1V1.02s.02-.08.06-.09c.04-.02.08,0,.11.02l1.19,1.19s.07.05.12.05h0s.08-.02.12-.05c.03-.03.05-.07.05-.12s-.02-.08-.05-.12l-1.67-1.67c-.06-.06-.17-.06-.23,0l-1.7,1.7c-.06.06-.06.17,0,.23.06.06.17.06.23,0l1.28-1.28s.04-.03.07-.03Z"/>
      </g>
    </g>
  </g>
</svg>