<?xml version="1.0" encoding="UTF-8"?>
<svg id="Layer_2" data-name="Layer 2" xmlns="http://www.w3.org/2000/svg" viewBox="0 0 19.59 19.59">
  <defs>
    <style>
      .cls-1 {
        fill: #1f1f1f;
      }
    </style>
  </defs>
  <g id="Object">
    <g>
      <path class="cls-1" d="M19.23.1H.36C.22.1.1.22.1.36v18.87c0,.14.12.26.26.26h18.87c.14,0,.26-.12.26-.26V.36c0-.14-.12-.26-.26-.26ZM18.97,18.97H.62v-5.5s0,0,0,0h18.34v5.5ZM18.97,7v5.94H.63s0,0,0,0v-5.94h18.33s0,0,0,0c.14,0,.26-.12.26-.26s-.12-.26-.26-.26c0,0,0,0,0,0H.62V.62h18.35v5.85c.14,0,.25.12.25.26s-.11.26-.25.26Z"/>
      <path class="cls-1" d="M19.23,19.59H.36c-.2,0-.36-.16-.36-.36V.36c0-.2.16-.36.36-.36h18.87c.2,0,.36.16.36.36v18.87c0,.2-.16.36-.36.36ZM.36.2c-.09,0-.16.07-.16.16v18.87c0,.09.07.16.16.16h18.87c.09,0,.16-.07.16-.16V.36c0-.09-.07-.16-.16-.16H.36ZM18.97,19.07H.62c-.05,0-.1-.04-.1-.1v-5.51c0-.06.05-.1.11-.1h18.33c.05,0,.1.04.1.1v5.5c0,.05-.04.1-.1.1ZM.72,18.87h18.15v-5.31H.72v5.31ZM18.97,13.04H.63c-.05,0-.1-.04-.1-.1v-5.94c0-.05.04-.1.1-.1h18.32s.01,0,.02,0c.09,0,.16-.07.16-.16s-.07-.16-.16-.16c0,0-.02,0-.03,0H.62c-.05,0-.1-.04-.1-.1V.62c0-.05.04-.1.1-.1h18.35c.05,0,.1.04.1.1v5.77c.1.03.18.1.23.21.02.04.03.09.03.14h0c0,.16-.11.3-.25.34v5.86c0,.05-.04.1-.1.1ZM.72,7.1v5.74h18.15v-5.75H.72ZM.72,6.38h18.15V.72H.72v5.66Z"/>
    </g>
  </g>
</svg>