<?xml version="1.0" encoding="UTF-8"?>
<svg id="Layer_2" data-name="Layer 2" xmlns="http://www.w3.org/2000/svg" viewBox="0 0 19.68 17.17">
  <defs>
    <style>
      .cls-1 {
        fill: #1f1f1f;
      }
    </style>
  </defs>
  <g id="Object">
    <g>
      <g>
        <path class="cls-1" d="M9.65,10.45c1.4.09,2.58-.95,2.74-2.29h.53v-.18c0-.74-.23-1.47-.7-2.04-.6-.73-1.47-1.14-2.4-1.14h-.26v.48c-1.36.14-2.41,1.33-2.33,2.74.07,1.29,1.14,2.36,2.43,2.44ZM10.08,5.33c.59.06,1.14.32,1.56.74.43.42.68.97.74,1.56h-2.3v-2.3ZM9.55,5.8v1.86c0,.27.22.5.5.5h1.81c-.15,1.04-1.08,1.83-2.17,1.77-1.04-.06-1.9-.92-1.95-1.96-.06-1.1.75-2.03,1.81-2.16Z"/>
        <path class="cls-1" d="M9.82,10.55c-.06,0-.11,0-.17,0h0c-1.34-.08-2.45-1.19-2.52-2.53-.08-1.42.94-2.64,2.33-2.83v-.39c0-.05.04-.1.1-.1h.26c.96,0,1.86.43,2.48,1.17.47.57.72,1.31.72,2.11v.18c0,.05-.04.1-.1.1h-.44c-.2,1.32-1.34,2.29-2.67,2.29ZM9.66,10.35c1.33.08,2.48-.89,2.64-2.2,0-.05.05-.09.1-.09h.43v-.09c0-.75-.24-1.45-.68-1.98-.58-.7-1.43-1.1-2.33-1.1h-.16v.38c0,.05-.04.09-.09.1-1.34.13-2.32,1.29-2.24,2.63.07,1.24,1.1,2.27,2.34,2.35h0ZM9.82,10.03s-.08,0-.13,0c-1.09-.06-1.99-.96-2.04-2.05-.06-1.13.77-2.12,1.89-2.27.03,0,.06,0,.08.02.02.02.03.05.03.07v1.86c0,.22.18.4.4.4h1.81s.06.01.07.03c.02.02.03.05.02.08-.16,1.08-1.07,1.85-2.14,1.85ZM9.46,5.92c-.96.18-1.66,1.06-1.61,2.04.05.99.87,1.81,1.86,1.87,1,.06,1.85-.61,2.05-1.57h-1.7c-.33,0-.59-.27-.59-.59v-1.75ZM12.38,7.73h-2.3c-.05,0-.1-.04-.1-.1v-2.3s.01-.05.03-.07c.02-.02.05-.03.08-.02.62.06,1.18.33,1.62.77.44.44.71,1,.77,1.62,0,.03,0,.06-.02.08-.02.02-.05.03-.07.03ZM10.18,7.54h2.1c-.08-.53-.32-1.01-.7-1.39-.38-.38-.86-.62-1.39-.7v2.1Z"/>
      </g>
      <g>
        <path class="cls-1" d="M.36.62h9.22v1.91H2.72c-.14,0-.26.12-.26.26v9.41c0,.14.12.26.26.26h6.46l-4.37,4.14c-.1.1-.11.27,0,.37.1.11.27.11.37,0l4.41-4.18v3.99c0,.14.12.26.26.26s.26-.12.26-.26v-3.98l4.31,4.17c.05.05.12.07.18.07s.14-.03.19-.08c.1-.1.1-.27,0-.37l-4.28-4.15h6.38c.14,0,.26-.12.26-.26V2.8c0-.14-.12-.26-.26-.26h-6.77V.62h9.22c.14,0,.26-.12.26-.26s-.12-.26-.26-.26H.36C.22.1.1.22.1.36s.12.26.26.26ZM16.6,3.06v8.89H2.99V3.06h13.62Z"/>
        <path class="cls-1" d="M4.99,17.17h0c-.1,0-.19-.04-.25-.11-.07-.07-.1-.16-.1-.26,0-.1.04-.19.11-.25l4.19-3.98H2.72c-.2,0-.36-.16-.36-.36V2.8c0-.2.16-.36.36-.36h6.75V.72H.36c-.2,0-.36-.16-.36-.36s.16-.36.36-.36h18.96c.2,0,.36.16.36.36s-.16.36-.36.36h-9.12v1.71h6.67c.2,0,.36.16.36.36v9.41c0,.2-.16.36-.36.36h-6.14l4.11,3.98c.07.07.11.16.11.25,0,.1-.03.19-.1.26-.13.14-.37.14-.51,0l-4.14-4.01v3.75c0,.2-.16.36-.36.36s-.36-.16-.36-.36v-3.76l-4.24,4.02c-.07.06-.15.1-.25.1ZM2.72,2.63c-.09,0-.16.07-.16.16v9.41c0,.09.07.16.16.16h6.46s.08.02.09.06c.01.04,0,.08-.02.11l-4.37,4.14s-.05.07-.05.11c0,.04.01.09.05.12.03.03.07.05.11.05.04,0,.08-.01.12-.04l4.41-4.18s.07-.03.11-.02c.04.02.06.05.06.09v3.99c0,.09.07.16.16.16s.16-.07.16-.16v-3.98s.02-.07.06-.09c.04-.02.08,0,.11.02l4.31,4.17c.06.06.17.06.23,0,.06-.06.06-.17,0-.23l-4.28-4.15s-.04-.07-.02-.11.05-.06.09-.06h6.38c.09,0,.16-.07.16-.16V2.8c0-.09-.07-.16-.16-.16h-6.77c-.05,0-.1-.04-.1-.1V.62c0-.05.04-.1.1-.1h9.22c.09,0,.16-.07.16-.16s-.07-.16-.16-.16H.36c-.09,0-.16.07-.16.16s.07.16.16.16h9.22c.05,0,.1.04.1.1v1.91c0,.05-.04.1-.1.1H2.72ZM16.6,12.04H2.99c-.05,0-.1-.04-.1-.1V3.06c0-.05.04-.1.1-.1h13.62c.05,0,.1.04.1.1v8.89c0,.05-.04.1-.1.1ZM3.08,11.85h13.42V3.16H3.08v8.69Z"/>
      </g>
    </g>
  </g>
</svg>