<?xml version="1.0" encoding="UTF-8"?>
<svg id="Layer_2" data-name="Layer 2" xmlns="http://www.w3.org/2000/svg" viewBox="0 0 19.03 15.77">
  <defs>
    <style>
      .cls-1 {
        fill: #1f1f1f;
      }
    </style>
  </defs>
  <g id="Object">
    <g>
      <g>
        <path class="cls-1" d="M10.04,10.67H1.46c-.48-.6-.84-2.03-.84-2.99,0-1.8,1.42-3.26,3.17-3.26.16,0,.32.02.51.05.14.02.28-.07.3-.21.39-2.11,2.18-3.64,4.27-3.64,1.63,0,3.11.93,3.87,2.43.06.11.18.17.3.14.35-.09.71-.14,1.05-.14,2.38,0,4.31,1.99,4.31,4.43,0,.97-.28,2.46-.69,3.19h-.53c-.14,0-.26.12-.26.26s.12.26.26.26h.68c.09,0,.17-.04.22-.12.56-.83.86-2.62.86-3.6,0-2.73-2.17-4.96-4.84-4.96-.32,0-.64.04-.97.11C12.25,1.06,10.64.1,8.88.1,6.62.1,4.66,1.69,4.14,3.92c-.12-.01-.24-.02-.35-.02C1.76,3.9.1,5.6.1,7.69c0,.97.37,2.71,1.05,3.43.05.05.12.08.19.08h8.7c.14,0,.26-.12.26-.26s-.12-.26-.26-.26Z"/>
        <path class="cls-1" d="M17.85,11.29h-.68c-.2,0-.36-.16-.36-.36s.16-.36.36-.36h.47c.39-.73.65-2.17.65-3.09,0-2.39-1.89-4.34-4.22-4.34-.33,0-.67.05-1.02.13-.16.04-.34-.04-.41-.19-.74-1.46-2.18-2.37-3.78-2.37-2.04,0-3.8,1.5-4.18,3.56-.04.19-.22.32-.41.29-.18-.03-.34-.05-.5-.05-1.69,0-3.07,1.42-3.07,3.16,0,.88.32,2.27.79,2.89h8.53c.2,0,.36.16.36.36s-.16.36-.36.36H1.34c-.1,0-.19-.04-.26-.11-.7-.74-1.08-2.51-1.08-3.5,0-2.14,1.7-3.88,3.79-3.88.09,0,.18,0,.27.01.57-2.25,2.53-3.81,4.81-3.81,1.76,0,3.4.96,4.29,2.52.31-.06.62-.09.92-.09,2.72,0,4.94,2.27,4.94,5.06,0,.99-.3,2.81-.87,3.65-.07.1-.18.16-.3.16ZM17.18,10.77c-.09,0-.16.07-.16.16s.07.16.16.16h.68c.05,0,.11-.03.14-.07.55-.81.84-2.58.84-3.54,0-2.68-2.13-4.86-4.74-4.86-.31,0-.63.03-.95.1-.04,0-.09-.01-.11-.05C12.18,1.15,10.59.2,8.88.2,6.66.2,4.75,1.74,4.24,3.94c-.01.05-.05.08-.11.08-.12-.01-.23-.02-.34-.02C1.81,4,.2,5.65.2,7.69c0,.96.36,2.66,1.02,3.36.03.03.07.05.12.05h8.7c.09,0,.16-.07.16-.16s-.07-.16-.16-.16H1.46s-.06-.01-.08-.04c-.51-.64-.86-2.09-.86-3.05,0-1.85,1.47-3.36,3.27-3.36.16,0,.34.02.53.05.09.02.17-.04.19-.13.4-2.16,2.23-3.72,4.37-3.72,1.67,0,3.19.95,3.95,2.48.03.07.11.1.19.09.36-.09.72-.14,1.07-.14,2.43,0,4.41,2.03,4.41,4.53,0,.96-.27,2.47-.71,3.24-.02.03-.05.05-.09.05h-.53Z"/>
      </g>
      <g>
        <path class="cls-1" d="M15.92,12.6c.35-.47.55-1.04.55-1.67,0-1.55-1.26-2.82-2.82-2.82s-2.82,1.26-2.82,2.82,1.26,2.82,2.82,2.82c.74,0,1.41-.29,1.92-.76l2.6,2.6c.05.05.12.08.19.08s.13-.03.19-.08c.1-.1.1-.27,0-.37l-2.62-2.62ZM13.65,13.23c-1.26,0-2.29-1.03-2.29-2.29s1.03-2.29,2.29-2.29,2.29,1.03,2.29,2.29-1.03,2.29-2.29,2.29Z"/>
        <path class="cls-1" d="M18.36,15.77c-.1,0-.19-.04-.26-.11l-2.54-2.54c-.53.47-1.21.72-1.91.72-1.61,0-2.92-1.31-2.92-2.92s1.31-2.92,2.92-2.92,2.92,1.31,2.92,2.92c0,.6-.18,1.17-.52,1.66l2.56,2.56c.14.14.14.37,0,.51-.07.07-.16.11-.25.11ZM15.57,12.89s.05,0,.07.03l2.6,2.6c.06.06.17.06.23,0,.06-.06.06-.17,0-.23l-2.62-2.62s-.04-.09,0-.13c.35-.47.53-1.03.53-1.61,0-1.5-1.22-2.72-2.72-2.72s-2.72,1.22-2.72,2.72,1.22,2.72,2.72,2.72c.69,0,1.34-.26,1.85-.73.02-.02.04-.03.07-.03ZM13.65,13.32c-1.32,0-2.39-1.07-2.39-2.39s1.07-2.39,2.39-2.39,2.39,1.07,2.39,2.39-1.07,2.39-2.39,2.39ZM13.65,8.74c-1.21,0-2.2.98-2.2,2.2s.98,2.2,2.2,2.2,2.2-.98,2.2-2.2-.98-2.2-2.2-2.2Z"/>
      </g>
    </g>
  </g>
</svg>