<?xml version="1.0" encoding="UTF-8"?>
<svg id="Layer_2" data-name="Layer 2" xmlns="http://www.w3.org/2000/svg" viewBox="0 0 19.08 19.33">
  <defs>
    <style>
      .cls-1 {
        fill: #1f1f1f;
      }
    </style>
  </defs>
  <g id="Object">
    <g>
      <g>
        <path class="cls-1" d="M18.72,19.23H.36c-.14,0-.26-.12-.26-.26v-9.22c0-.14.12-.26.26-.26s.26.12.26.26v8.95h17.84v-8.95c0-.14.12-.26.26-.26s.26.12.26.26v9.22c0,.14-.12.26-.26.26Z"/>
        <path class="cls-1" d="M18.72,19.33H.36c-.2,0-.36-.16-.36-.36v-9.22c0-.2.16-.36.36-.36s.36.16.36.36v8.86h17.64v-8.86c0-.2.16-.36.36-.36s.36.16.36.36v9.22c0,.2-.16.36-.36.36ZM.36,9.59c-.09,0-.16.07-.16.16v9.22c0,.09.07.16.16.16h18.36c.09,0,.16-.07.16-.16v-9.22c0-.09-.07-.16-.16-.16s-.16.07-.16.16v8.95c0,.05-.04.1-.1.1H.62c-.05,0-.1-.04-.1-.1v-8.95c0-.09-.07-.16-.16-.16Z"/>
      </g>
      <g>
        <g>
          <path class="cls-1" d="M9.54,14.77c-.14,0-.26-.12-.26-.26V.36c0-.14.12-.26.26-.26s.26.12.26.26v14.15c0,.14-.12.26-.26.26Z"/>
          <path class="cls-1" d="M9.54,14.87c-.2,0-.36-.16-.36-.36V.36c0-.2.16-.36.36-.36s.36.16.36.36v14.15c0,.2-.16.36-.36.36ZM9.54.2c-.09,0-.16.07-.16.16v14.15c0,.09.07.16.16.16s.16-.07.16-.16V.36c0-.09-.07-.16-.16-.16Z"/>
        </g>
        <g>
          <path class="cls-1" d="M9.54,15.17h0c-.08,0-.16-.04-.21-.11l-1.94-2.73c-.08-.12-.06-.28.06-.37.12-.08.28-.06.37.06l1.73,2.43,1.73-2.43c.08-.12.25-.15.37-.06.12.08.15.25.06.37l-1.94,2.73c-.05.07-.13.11-.21.11Z"/>
          <path class="cls-1" d="M9.54,15.27c-.12,0-.23-.06-.29-.15l-1.94-2.73c-.06-.08-.08-.17-.06-.27.02-.1.07-.18.15-.23.16-.11.39-.08.5.08l1.65,2.31,1.65-2.31c.06-.08.14-.13.23-.15.09-.02.19,0,.27.06.08.06.13.14.15.23.02.09,0,.19-.06.27l-1.94,2.73c-.07.09-.18.15-.29.15ZM7.6,12.02s-.07,0-.09.03c-.04.03-.06.06-.07.11,0,.04,0,.09.03.12l1.94,2.73c.06.09.21.09.27,0l1.94-2.73s.04-.08.03-.12c0-.04-.03-.08-.07-.11-.04-.03-.08-.04-.12-.03-.04,0-.08.03-.11.07l-1.73,2.43s-.05.04-.08.04h0s-.06-.02-.08-.04l-1.73-2.43s-.08-.07-.13-.07Z"/>
        </g>
      </g>
    </g>
  </g>
</svg>