<?xml version="1.0" encoding="UTF-8"?>
<svg id="Layer_2" data-name="Layer 2" xmlns="http://www.w3.org/2000/svg" viewBox="0 0 18.98 9.9">
  <defs>
    <style>
      .cls-1 {
        fill: #1f1f1f;
      }
    </style>
  </defs>
  <g id="Object">
    <g>
      <path class="cls-1" d="M9.5.1C4.32.1.11,4.31.11,9.49c0,0,0,0,0,0,0,.02,0,.03,0,.04,0,.07.03.13.07.18.05.05.12.08.19.08h6.89c.31,0,.16.09.2-.43.08-.97.9-1.74,1.89-1.74s1.85.81,1.89,1.81h0c.01.37-.04.37.25.36h7.1c.07,0,.12-.03.17-.06.02-.01.03-.03.04-.05.05-.05.09-.12.09-.19C18.89,4.31,14.67.1,9.5.1ZM11.76,9.27h-.02c-.12-1.22-1.16-2.17-2.41-2.17s-2.28.95-2.41,2.17h-1.75c.12-2.19,1.94-3.94,4.17-3.94s4.04,1.75,4.17,3.94h-1.75ZM14.12,9.27h-.08c-.12-2.48-2.18-4.46-4.69-4.46s-4.56,1.98-4.69,4.46h-1.75c.09-3.59,3.03-6.47,6.64-6.47s6.55,2.89,6.64,6.47h-2.06ZM16.87,9.27h-.16c-.09-3.87-3.27-7-7.16-7s-7.07,3.12-7.16,7H.64C.75,4.48,4.68.62,9.5.62s8.75,3.86,8.86,8.65h-1.49Z"/>
      <path class="cls-1" d="M7.41,9.9s-.03,0-.05,0c-.03,0-.06,0-.11,0H.36c-.1,0-.19-.04-.26-.11-.07-.07-.1-.16-.1-.25,0-.02,0-.04,0-.05h0C.01,4.25,4.27,0,9.5,0s9.49,4.26,9.49,9.49c0,.1-.04.2-.12.27,0,.01-.02.03-.04.05-.07.06-.15.09-.23.09h-7.1c-.15,0-.23,0-.29-.05-.06-.06-.06-.13-.06-.26,0-.04,0-.08,0-.13,0,0,0,0,0-.01-.04-.96-.83-1.72-1.79-1.72s-1.71.72-1.79,1.65c-.01.17,0,.27,0,.33,0,.06,0,.12-.03.16-.03.03-.07.04-.11.04ZM11.33,9.42s0,0,0,.01c0,.06,0,.11,0,.15,0,.06,0,.11,0,.13,0-.01.07-.01.13-.01h7.12s.08-.01.11-.04c0,0,.03-.03.03-.03.03-.03.07-.07.07-.13C18.79,4.36,14.62.2,9.5.2S.21,4.36.2,9.48c0,0,0,.02,0,.03,0,0,0,.02,0,.03,0,.04.02.08.05.11.03.03.07.05.12.05h6.89s.07,0,.1,0c0-.07-.01-.18,0-.34.08-1.03.96-1.83,1.99-1.83s1.94.83,1.99,1.89ZM18.36,9.37h-1.65c-.05,0-.1-.04-.1-.1-.09-3.81-3.26-6.9-7.06-6.9s-6.98,3.1-7.06,6.9c0,.05-.04.1-.1.1H.64s-.05-.01-.07-.03-.03-.04-.03-.07C.65,4.45,4.67.52,9.5.52s8.84,3.92,8.96,8.75c0,.03,0,.05-.03.07s-.04.03-.07.03ZM16.8,9.17h1.45c-.17-4.67-4.07-8.45-8.76-8.45S.9,4.5.74,9.17h1.55c.14-3.87,3.38-7,7.26-7s7.12,3.13,7.26,7ZM16.18,9.37h-2.14c-.05,0-.1-.04-.1-.09-.12-2.45-2.14-4.37-4.59-4.37s-4.47,1.92-4.59,4.37c0,.05-.05.09-.1.09h-1.75s-.05-.01-.07-.03-.03-.04-.03-.07c.09-3.62,3.11-6.57,6.74-6.57s6.65,2.95,6.74,6.57c0,.03,0,.05-.03.07s-.04.03-.07.03ZM14.13,9.17h1.95c-.14-3.47-3.05-6.28-6.54-6.28s-6.4,2.81-6.54,6.28h1.56c.17-2.51,2.26-4.46,4.78-4.46s4.61,1.95,4.78,4.46ZM13.51,9.37h-1.77c-.05,0-.09-.04-.1-.09-.12-1.19-1.11-2.08-2.31-2.08s-2.19.9-2.31,2.08c0,.05-.05.09-.1.09h-1.75s-.05-.01-.07-.03c-.02-.02-.03-.05-.03-.07.13-2.26,2-4.03,4.26-4.03s4.14,1.77,4.26,4.03c0,.03,0,.05-.03.07-.02.02-.04.03-.07.03ZM11.83,9.17h1.58c-.17-2.11-1.94-3.74-4.06-3.74s-3.89,1.64-4.06,3.74h1.55c.17-1.24,1.23-2.17,2.49-2.17s2.32.93,2.49,2.17Z"/>
    </g>
  </g>
</svg>