<?xml version="1.0" encoding="UTF-8"?>
<svg id="Layer_2" data-name="Layer 2" xmlns="http://www.w3.org/2000/svg" viewBox="0 0 15.41 14.84">
  <defs>
    <style>
      .cls-1 {
        fill: #1f1f1f;
      }
    </style>
  </defs>
  <g id="Object">
    <g>
      <g>
        <path class="cls-1" d="M3.24,10.04H.36c-.14,0-.26-.12-.26-.26v-5.33c0-.14.12-.26.26-.26h2.88c.14,0,.26.12.26.26v5.33c0,.14-.12.26-.26.26ZM.62,9.51h2.36v-4.8H.62v4.8Z"/>
        <path class="cls-1" d="M3.24,10.14H.36c-.2,0-.36-.16-.36-.36v-5.33c0-.2.16-.36.36-.36h2.88c.2,0,.36.16.36.36v5.33c0,.2-.16.36-.36.36ZM.36,4.28c-.09,0-.16.07-.16.16v5.33c0,.09.07.16.16.16h2.88c.09,0,.16-.07.16-.16v-5.33c0-.09-.07-.16-.16-.16H.36ZM2.98,9.61H.62c-.05,0-.1-.04-.1-.1v-4.8c0-.05.04-.1.1-.1h2.36c.05,0,.1.04.1.1v4.8c0,.05-.04.1-.1.1ZM.72,9.41h2.16v-4.61H.72v4.61Z"/>
      </g>
      <g>
        <path class="cls-1" d="M11.59,14.74s-.09-.01-.13-.03L3.12,10.02c-.13-.07-.17-.23-.1-.36s.23-.17.36-.1l7.95,4.47V.78l-7.97,3.92c-.13.06-.29.01-.35-.12-.06-.13-.01-.29.12-.35L11.47.13c.08-.04.18-.04.25.01.08.05.12.13.12.22v14.12c0,.09-.05.18-.13.23-.04.02-.09.04-.13.04Z"/>
        <path class="cls-1" d="M11.59,14.84c-.06,0-.12-.02-.18-.05L3.07,10.11c-.17-.1-.24-.32-.14-.49.05-.08.12-.14.22-.17.09-.03.19-.01.27.03l7.81,4.38V.94l-7.82,3.85c-.09.04-.18.05-.28.02-.09-.03-.16-.1-.21-.18-.09-.18-.01-.39.16-.48L11.43.04c.11-.05.24-.05.35.02.11.07.17.18.17.31v14.12c0,.13-.07.25-.18.31-.05.03-.12.05-.18.05ZM3.24,9.63s-.03,0-.04,0c-.04.01-.08.04-.1.08-.04.08-.02.18.06.22l8.34,4.68s.11.03.16,0c.05-.03.08-.08.08-.14V.36c0-.06-.03-.11-.08-.14-.05-.03-.11-.03-.16,0L3.17,4.32c-.08.04-.11.14-.07.22.02.04.05.07.09.08.04.01.09.01.13,0L11.28.69s.07-.01.1,0c.03.02.05.05.05.08v13.25s-.02.07-.05.08c-.03.02-.07.02-.1,0l-7.95-4.47s-.05-.02-.08-.02Z"/>
      </g>
      <g>
        <path class="cls-1" d="M13.63,10.95c-.06,0-.13-.02-.18-.07-.11-.1-.11-.27-.01-.37.87-.92,1.35-2.12,1.35-3.39s-.48-2.48-1.36-3.4c-.1-.1-.1-.27,0-.37.1-.1.27-.1.37,0,.97,1.02,1.5,2.35,1.5,3.76s-.53,2.73-1.49,3.75c-.05.05-.12.08-.19.08Z"/>
        <path class="cls-1" d="M13.63,11.05c-.09,0-.18-.03-.25-.1-.07-.07-.11-.16-.11-.25,0-.1.03-.19.1-.26.85-.9,1.32-2.08,1.32-3.32s-.47-2.43-1.33-3.33c-.07-.07-.1-.16-.1-.26,0-.1.04-.19.11-.25.07-.06.15-.1.25-.1h0c.1,0,.19.04.25.11.99,1.04,1.53,2.4,1.53,3.83s-.54,2.78-1.52,3.82c-.07.07-.16.11-.26.11ZM13.62,3.37s-.08.02-.11.05c-.03.03-.05.07-.05.11,0,.04.01.09.04.12.89.94,1.38,2.17,1.38,3.47s-.49,2.52-1.37,3.46c-.03.03-.05.07-.04.12s.02.08.05.11c.06.06.17.06.23,0,.94-1,1.46-2.31,1.46-3.68s-.52-2.69-1.48-3.69c-.03-.03-.07-.05-.11-.05h0Z"/>
      </g>
    </g>
  </g>
</svg>