<?xml version="1.0" encoding="UTF-8"?>
<svg id="Layer_2" data-name="Layer 2" xmlns="http://www.w3.org/2000/svg" viewBox="0 0 13.8 13.48">
  <defs>
    <style>
      .cls-1 {
        fill: #1f1f1f;
      }
    </style>
  </defs>
  <g id="Object">
    <g>
      <g>
        <path class="cls-1" d="M8.23,12.41h0c-.11,0-.2-.07-.24-.17l-1.85-4.76-4.76-1.98c-.1-.04-.16-.14-.16-.24,0-.11.06-.2.16-.24L13.34.12c.1-.04.21-.02.29.06.07.08.1.19.05.29l-5.21,11.79c-.04.1-.14.16-.24.16ZM2.17,5.26l4.27,1.78c.07.03.12.08.14.15l1.66,4.28L12.93.85,2.17,5.26Z"/>
        <path class="cls-1" d="M8.23,12.51h0c-.15,0-.28-.09-.33-.23l-1.83-4.72-4.72-1.97c-.14-.06-.22-.19-.22-.33,0-.15.09-.28.22-.33L13.3.03c.14-.06.29-.02.4.08.1.11.13.26.07.4l-5.21,11.79c-.06.13-.19.21-.33.21ZM13.44.2s-.04,0-.06.01L1.42,5.11c-.06.03-.1.08-.1.15,0,.07.04.13.1.15l4.76,1.98s.04.03.05.06l1.85,4.76c.02.06.08.1.15.1v.1s0-.1,0-.1c.06,0,.12-.04.15-.1L13.59.43c.03-.06.01-.13-.03-.18-.03-.03-.07-.05-.12-.05ZM8.25,11.56h0s-.07-.03-.09-.06l-1.66-4.28s-.05-.07-.09-.09l-4.27-1.78s-.06-.05-.06-.09.02-.08.06-.09L12.9.76s.08,0,.11.02c.03.03.04.07.02.11l-4.69,10.62s-.05.06-.09.06ZM2.43,5.26l4.05,1.69c.09.04.16.11.2.2l1.57,4.06L12.75,1.03,2.43,5.26Z"/>
      </g>
      <g>
        <path class="cls-1" d="M.36,13.38c-.07,0-.14-.03-.19-.08-.1-.1-.1-.27,0-.37l5.98-5.83c.1-.1.27-.1.37,0,.1.1.1.27,0,.37L.54,13.3c-.05.05-.12.07-.18.07Z"/>
        <path class="cls-1" d="M.36,13.48c-.1,0-.19-.04-.26-.11-.07-.07-.1-.16-.1-.26,0-.1.04-.19.11-.25l5.98-5.83c.14-.14.37-.14.51,0,.14.14.14.37,0,.51L.61,13.37c-.07.07-.16.1-.25.1ZM6.34,7.12s-.08.02-.11.05L.25,13s-.05.07-.05.11c0,.04.02.09.05.12.06.06.17.06.23,0l5.98-5.83c.06-.06.07-.17,0-.23-.03-.03-.07-.05-.12-.05Z"/>
      </g>
    </g>
  </g>
</svg>