<?xml version="1.0" encoding="UTF-8"?>
<svg id="Layer_2" data-name="Layer 2" xmlns="http://www.w3.org/2000/svg" viewBox="0 0 20.04 20.24">
  <defs>
    <style>
      .cls-1 {
        fill: #1f1f1f;
      }
    </style>
  </defs>
  <g id="Object">
    <g>
      <g>
        <path class="cls-1" d="M19.43,10.38H.69c-.14,0-.26-.12-.26-.26s.12-.26.26-.26h18.74c.14,0,.26.12.26.26s-.12.26-.26.26Z"/>
        <path class="cls-1" d="M19.43,10.47H.7c-.2,0-.36-.16-.36-.36s.16-.36.36-.36h18.74c.2,0,.36.16.36.36s-.16.36-.36.36ZM.7,9.95c-.09,0-.16.07-.16.16s.07.16.16.16h18.74c.09,0,.16-.07.16-.16s-.07-.16-.16-.16H.7Z"/>
      </g>
      <g>
        <path class="cls-1" d="M10.06,19.75c-.14,0-.26-.12-.26-.26V.74c0-.14.12-.26.26-.26s.26.12.26.26v18.74c0,.14-.12.26-.26.26Z"/>
        <path class="cls-1" d="M10.06,19.84c-.2,0-.36-.16-.36-.36V.74c0-.2.16-.36.36-.36s.36.16.36.36v18.74c0,.2-.16.36-.36.36ZM10.06.58c-.09,0-.16.07-.16.16v18.74c0,.09.07.16.16.16s.16-.07.16-.16V.74c0-.09-.07-.16-.16-.16Z"/>
      </g>
      <g>
        <path class="cls-1" d="M12.01,3.33c-.08,0-.16-.04-.21-.11l-1.73-2.43-1.73,2.43c-.08.12-.25.15-.37.06-.12-.08-.15-.25-.06-.37L9.85.19c.1-.14.33-.14.43,0l1.94,2.73c.08.12.06.28-.06.37-.05.03-.1.05-.15.05Z"/>
        <path class="cls-1" d="M8.12,3.43c-.07,0-.15-.02-.21-.07-.16-.12-.2-.34-.08-.5L9.77.14c.13-.18.46-.18.59,0l1.94,2.73c.12.16.08.39-.08.5-.16.11-.39.07-.5-.08l-1.65-2.31-1.65,2.31c-.06.08-.14.13-.23.15-.02,0-.04,0-.06,0ZM10.06.19c-.06,0-.11.02-.13.06l-1.94,2.73c-.05.07-.04.18.04.23.04.03.08.04.12.03.04,0,.08-.03.11-.07l1.73-2.43c.04-.05.12-.05.16,0l1.73,2.43c.05.07.16.09.23.04.07-.05.09-.16.04-.23l-1.94-2.73s-.08-.06-.13-.06Z"/>
      </g>
      <g>
        <path class="cls-1" d="M10.06,20.14c-.08,0-.16-.04-.21-.11l-1.94-2.73c-.08-.12-.06-.28.06-.37.12-.08.28-.06.37.06l1.73,2.43,1.73-2.43c.08-.12.25-.15.37-.06.12.08.15.25.06.37l-1.94,2.73c-.05.07-.13.11-.21.11Z"/>
        <path class="cls-1" d="M10.06,20.24c-.12,0-.23-.06-.29-.15l-1.94-2.73c-.06-.08-.08-.17-.06-.27.02-.09.07-.18.15-.23.16-.12.39-.08.5.08l1.65,2.32,1.65-2.32c.12-.16.34-.2.5-.08.08.06.13.14.15.23.02.09,0,.19-.06.27l-1.94,2.73c-.07.09-.18.15-.29.15ZM8.12,16.99s-.07,0-.09.03c-.04.03-.06.06-.07.11,0,.04,0,.09.03.12l1.94,2.73c.06.09.21.09.27,0l1.94-2.73s.04-.08.03-.12c0-.04-.03-.08-.07-.11-.07-.05-.18-.03-.23.04l-1.73,2.43c-.04.05-.12.05-.16,0l-1.73-2.43s-.08-.07-.13-.07Z"/>
      </g>
      <g>
        <path class="cls-1" d="M16.96,12.32c-.08,0-.16-.04-.21-.11-.08-.12-.06-.28.06-.37l2.43-1.73-2.43-1.73c-.12-.08-.15-.25-.06-.37.08-.12.25-.15.37-.06l2.73,1.94c.07.05.11.13.11.21s-.04.16-.11.21l-2.73,1.94s-.1.05-.15.05Z"/>
        <path class="cls-1" d="M16.96,12.42c-.12,0-.23-.06-.29-.15-.12-.16-.08-.39.08-.5l2.32-1.65-2.32-1.65c-.16-.12-.2-.34-.08-.5.12-.16.34-.2.5-.08l2.73,1.94c.09.07.15.18.15.29s-.06.23-.15.29l-2.73,1.94c-.06.04-.13.07-.21.07ZM16.96,8.01c-.05,0-.1.02-.13.07-.05.07-.03.18.04.23l2.43,1.73s.04.05.04.08-.02.06-.04.08l-2.43,1.73c-.07.05-.09.16-.04.23.05.07.16.09.23.04l2.73-1.94s.07-.08.07-.13-.03-.1-.07-.13l-2.73-1.94s-.06-.03-.09-.03Z"/>
      </g>
      <g>
        <path class="cls-1" d="M3.09,12.32c-.05,0-.11-.02-.15-.05L.21,10.33c-.07-.05-.11-.13-.11-.21s.04-.16.11-.21l2.73-1.94c.12-.08.28-.06.37.06.08.12.06.28-.06.37l-2.43,1.73,2.43,1.73c.12.08.15.25.06.37-.05.07-.13.11-.21.11Z"/>
        <path class="cls-1" d="M3.09,12.42c-.08,0-.15-.02-.21-.07L.15,10.41c-.09-.07-.15-.18-.15-.29s.06-.23.15-.29l2.73-1.94c.16-.12.39-.08.5.08.12.16.08.39-.08.5l-2.31,1.65,2.31,1.65c.16.12.2.34.08.5-.07.09-.18.15-.29.15ZM3.09,8.01s-.07.01-.09.03l-2.73,1.94s-.07.08-.07.13.03.1.07.13l2.73,1.94c.07.05.18.03.23-.04.05-.07.03-.18-.04-.23l-2.43-1.73s-.04-.05-.04-.08.02-.06.04-.08l2.43-1.73c.07-.05.09-.16.04-.23-.03-.04-.08-.07-.13-.07Z"/>
      </g>
    </g>
  </g>
</svg>