<?xml version="1.0" encoding="UTF-8"?>
<svg id="Layer_2" data-name="Layer 2" xmlns="http://www.w3.org/2000/svg" viewBox="0 0 19.43 19.2">
  <defs>
    <style>
      .cls-1 {
        fill: #1f1f1f;
      }
    </style>
  </defs>
  <g id="Object">
    <g>
      <g>
        <path class="cls-1" d="M15.38,15.46H4.05c-.14,0-.26-.12-.26-.26V4c0-.14.12-.26.26-.26h11.34c.14,0,.26.12.26.26v11.19c0,.14-.12.26-.26.26ZM4.31,14.93h10.81V4.26H4.31v10.67Z"/>
        <path class="cls-1" d="M15.38,15.56H4.05c-.2,0-.36-.16-.36-.36V4c0-.2.16-.36.36-.36h11.34c.2,0,.36.16.36.36v11.19c0,.2-.16.36-.36.36ZM4.05,3.84c-.09,0-.16.07-.16.16v11.19c0,.09.07.16.16.16h11.34c.09,0,.16-.07.16-.16V4c0-.09-.07-.16-.16-.16H4.05ZM15.12,15.03H4.31c-.05,0-.1-.04-.1-.1V4.26c0-.05.04-.1.1-.1h10.81c.05,0,.1.04.1.1v10.67c0,.05-.04.1-.1.1ZM4.41,14.83h10.62V4.36H4.41v10.47Z"/>
      </g>
      <g>
        <path class="cls-1" d="M19.07,5.08c-.14,0-.26-.12-.26-.26V.62h-4.82c-.14,0-.26-.12-.26-.26s.12-.26.26-.26h5.08c.14,0,.26.12.26.26v4.46c0,.14-.12.26-.26.26Z"/>
        <path class="cls-1" d="M19.07,5.18c-.2,0-.36-.16-.36-.36V.72h-4.72c-.2,0-.36-.16-.36-.36s.16-.36.36-.36h5.08c.2,0,.36.16.36.36v4.46c0,.2-.16.36-.36.36ZM13.99.2c-.09,0-.16.07-.16.16s.07.16.16.16h4.82c.05,0,.1.04.1.1v4.19c0,.09.07.16.16.16s.16-.07.16-.16V.36c0-.09-.07-.16-.16-.16h-5.08Z"/>
      </g>
      <g>
        <path class="cls-1" d="M19.07,19.1h-5.08c-.14,0-.26-.12-.26-.26s.12-.26.26-.26h4.82v-4.45c0-.14.12-.26.26-.26s.26.12.26.26v4.72c0,.14-.12.26-.26.26Z"/>
        <path class="cls-1" d="M19.07,19.2h-5.08c-.2,0-.36-.16-.36-.36s.16-.36.36-.36h4.72v-4.36c0-.2.16-.36.36-.36s.36.16.36.36v4.72c0,.2-.16.36-.36.36ZM13.99,18.67c-.09,0-.16.07-.16.16s.07.16.16.16h5.08c.09,0,.16-.07.16-.16v-4.72c0-.09-.07-.16-.16-.16s-.16.07-.16.16v4.45c0,.05-.04.1-.1.1h-4.82Z"/>
      </g>
      <g>
        <path class="cls-1" d="M4.96,19.1H.36c-.14,0-.26-.12-.26-.26v-4.72c0-.14.12-.26.26-.26s.26.12.26.26v4.45h4.33c.14,0,.26.12.26.26s-.12.26-.26.26Z"/>
        <path class="cls-1" d="M4.96,19.2H.36c-.2,0-.36-.16-.36-.36v-4.72c0-.2.16-.36.36-.36s.36.16.36.36v4.36h4.24c.2,0,.36.16.36.36s-.16.36-.36.36ZM.36,13.96c-.09,0-.16.07-.16.16v4.72c0,.09.07.16.16.16h4.6c.09,0,.16-.07.16-.16s-.07-.16-.16-.16H.62c-.05,0-.1-.04-.1-.1v-4.45c0-.09-.07-.16-.16-.16Z"/>
      </g>
      <g>
        <path class="cls-1" d="M.36,5.08c-.14,0-.26-.12-.26-.26V.36C.1.22.22.1.36.1h4.6c.14,0,.26.12.26.26s-.12.26-.26.26H.62v4.19c0,.14-.12.26-.26.26Z"/>
        <path class="cls-1" d="M.36,5.18c-.2,0-.36-.16-.36-.36V.36c0-.2.16-.36.36-.36h4.6c.2,0,.36.16.36.36s-.16.36-.36.36H.72v4.09c0,.2-.16.36-.36.36ZM.36.2c-.09,0-.16.07-.16.16v4.46c0,.09.07.16.16.16s.16-.07.16-.16V.62c0-.05.04-.1.1-.1h4.33c.09,0,.16-.07.16-.16s-.07-.16-.16-.16H.36Z"/>
      </g>
    </g>
  </g>
</svg>