<?xml version="1.0" encoding="UTF-8"?>
<svg id="Layer_2" data-name="Layer 2" xmlns="http://www.w3.org/2000/svg" viewBox="0 0 9.22 19.05">
  <defs>
    <style>
      .cls-1 {
        fill: #1f1f1f;
      }
    </style>
  </defs>
  <g id="Object">
    <g>
      <g>
        <path class="cls-1" d="M4.61,18.95c-.99,0-1.79-.8-1.79-1.79s.8-1.79,1.79-1.79c.48,0,.93.19,1.27.52h0c.34.34.53.79.53,1.27,0,.99-.8,1.79-1.79,1.79ZM4.61,15.89c-.7,0-1.27.57-1.27,1.27s.57,1.27,1.27,1.27,1.27-.57,1.27-1.27c0-.34-.13-.66-.37-.9h0c-.24-.24-.56-.37-.9-.37Z"/>
        <path class="cls-1" d="M4.61,19.05c-1.04,0-1.89-.85-1.89-1.89s.85-1.89,1.89-1.89c.5,0,.98.2,1.34.55.36.36.55.83.55,1.34,0,1.04-.85,1.89-1.89,1.89ZM4.61,15.47c-.93,0-1.69.76-1.69,1.69s.76,1.69,1.69,1.69,1.69-.76,1.69-1.69c0-.45-.18-.88-.5-1.2-.32-.32-.74-.5-1.2-.5ZM4.61,18.53c-.75,0-1.37-.61-1.37-1.37s.61-1.37,1.37-1.37c.36,0,.71.14.96.4.26.26.4.6.4.97,0,.75-.61,1.37-1.37,1.37ZM4.61,15.99c-.64,0-1.17.52-1.17,1.17s.52,1.17,1.17,1.17,1.17-.52,1.17-1.17c0-.31-.12-.61-.34-.83-.22-.22-.51-.34-.83-.34Z"/>
      </g>
      <g>
        <path class="cls-1" d="M4.61,15.89c-.14,0-.26-.12-.26-.26V.65c0-.14.12-.26.26-.26s.26.12.26.26v14.98c0,.14-.12.26-.26.26Z"/>
        <path class="cls-1" d="M4.61,15.99c-.2,0-.36-.16-.36-.36V.65c0-.2.16-.36.36-.36s.36.16.36.36v14.98c0,.2-.16.36-.36.36ZM4.61.48c-.09,0-.16.07-.16.16v14.98c0,.09.07.16.16.16s.16-.07.16-.16V.65c0-.09-.07-.16-.16-.16Z"/>
      </g>
      <g>
        <path class="cls-1" d="M6.55,3.33c-.08,0-.16-.04-.21-.11l-1.73-2.43-1.73,2.43c-.08.12-.25.15-.37.06-.12-.08-.15-.25-.06-.37L4.39.19c.1-.14.33-.14.43,0l1.94,2.73c.08.12.06.28-.06.37-.05.03-.1.05-.15.05Z"/>
        <path class="cls-1" d="M6.55,3.43c-.12,0-.23-.06-.29-.15l-1.65-2.31-1.65,2.31c-.11.16-.34.2-.5.08-.08-.06-.13-.14-.15-.23-.02-.1,0-.19.06-.27L4.31.14c.13-.18.46-.18.59,0l1.94,2.73c.06.08.08.17.06.27-.02.09-.07.18-.15.23-.06.04-.13.07-.21.07ZM4.61.7s.06.02.08.04l1.73,2.43c.05.07.16.09.23.04.04-.03.06-.06.07-.11,0-.04,0-.09-.03-.12L4.74.25c-.06-.08-.21-.08-.27,0l-1.94,2.73s-.04.08-.03.12c0,.04.03.08.07.11.07.05.18.03.23-.04l1.73-2.43s.05-.04.08-.04Z"/>
      </g>
      <g>
        <path class="cls-1" d="M4.61,12.32c-.08,0-.16-.04-.22-.11-.08-.12-.05-.28.07-.36l3.3-2.3v-3.41c0-.14.12-.26.26-.26s.26.12.26.26v3.55c0,.09-.04.17-.11.22l-3.41,2.38s-.1.05-.15.05Z"/>
        <path class="cls-1" d="M4.61,12.42c-.12,0-.23-.06-.3-.15-.11-.16-.07-.39.09-.5l3.25-2.27v-3.36c0-.2.16-.36.36-.36s.36.16.36.36v3.55c0,.12-.06.23-.15.3l-3.41,2.38c-.06.04-.13.06-.21.06ZM8.01,5.97c-.09,0-.16.07-.16.16v3.41s-.02.06-.04.08l-3.3,2.3c-.07.05-.09.15-.04.23.05.07.16.09.23.04l3.41-2.38s.07-.08.07-.13v-3.55c0-.09-.07-.16-.16-.16Z"/>
      </g>
      <g>
        <path class="cls-1" d="M4.61,14.02c-.05,0-.1-.02-.15-.05l-3.41-2.38c-.07-.05-.11-.13-.11-.21v-3.48c0-.14.12-.26.26-.26s.26.12.26.26v3.34l3.3,2.3c.12.08.15.25.07.36-.05.07-.13.11-.22.11Z"/>
        <path class="cls-1" d="M4.61,14.12c-.07,0-.15-.02-.21-.06l-3.41-2.38c-.1-.07-.15-.18-.15-.3v-3.48c0-.2.16-.36.36-.36s.36.16.36.36v3.29l3.25,2.27c.16.11.2.34.09.5-.07.1-.18.15-.3.15ZM1.2,7.74c-.09,0-.16.07-.16.16v3.48c0,.05.03.1.07.13l3.41,2.38c.07.05.18.03.23-.04.05-.07.03-.18-.04-.23l-3.3-2.3s-.04-.05-.04-.08v-3.34c0-.09-.07-.16-.16-.16Z"/>
      </g>
      <g>
        <path class="cls-1" d="M8.86,6.39h-1.68c-.14,0-.26-.12-.26-.26v-1.68c0-.14.12-.26.26-.26h1.68c.14,0,.26.12.26.26v1.68c0,.14-.12.26-.26.26ZM7.45,5.87h1.15v-1.15h-1.15v1.15Z"/>
        <path class="cls-1" d="M8.86,6.49h-1.68c-.2,0-.36-.16-.36-.36v-1.68c0-.2.16-.36.36-.36h1.68c.2,0,.36.16.36.36v1.68c0,.2-.16.36-.36.36ZM7.18,4.29c-.09,0-.16.07-.16.16v1.68c0,.09.07.16.16.16h1.68c.09,0,.16-.07.16-.16v-1.68c0-.09-.07-.16-.16-.16h-1.68ZM8.6,5.97h-1.15c-.05,0-.1-.04-.1-.1v-1.15c0-.05.04-.1.1-.1h1.15c.05,0,.1.04.1.1v1.15c0,.05-.04.1-.1.1ZM7.54,5.77h.96v-.96h-.96v.96Z"/>
      </g>
      <g>
        <path class="cls-1" d="M2.04,8.07H.36c-.14,0-.26-.12-.26-.26v-1.68c0-.14.12-.26.26-.26h1.68c.14,0,.26.12.26.26v1.68c0,.14-.12.26-.26.26ZM.62,7.55h1.15v-1.15H.62v1.15Z"/>
        <path class="cls-1" d="M2.04,8.17H.36c-.2,0-.36-.16-.36-.36v-1.68c0-.2.16-.36.36-.36h1.68c.2,0,.36.16.36.36v1.68c0,.2-.16.36-.36.36ZM.36,5.97c-.09,0-.16.07-.16.16v1.68c0,.09.07.16.16.16h1.68c.09,0,.16-.07.16-.16v-1.68c0-.09-.07-.16-.16-.16H.36ZM1.78,7.65H.62c-.05,0-.1-.04-.1-.1v-1.15c0-.05.04-.1.1-.1h1.15c.05,0,.1.04.1.1v1.15c0,.05-.04.1-.1.1ZM.72,7.45h.96v-.96h-.96v.96Z"/>
      </g>
    </g>
  </g>
</svg>