<?xml version="1.0" encoding="UTF-8"?>
<svg id="Layer_2" data-name="Layer 2" xmlns="http://www.w3.org/2000/svg" viewBox="0 0 18.64 18.36">
  <defs>
    <style>
      .cls-1 {
        fill: #1f1f1f;
      }
    </style>
  </defs>
  <g id="Object">
    <g>
      <g>
        <path class="cls-1" d="M11.63,6.62h-4.24c-.14,0-.26-.12-.26-.26h0c0-.14.12-.26.26-.26h4.24c.14,0,.26.12.26.26h0c0,.14-.12.26-.26.26Z"/>
        <path class="cls-1" d="M11.63,6.72h-4.24c-.2,0-.36-.16-.36-.36s.16-.36.36-.36h4.24c.2,0,.36.16.36.36s-.16.36-.36.36ZM7.4,6.19c-.09,0-.16.07-.16.16s.07.16.16.16h4.24c.09,0,.16-.07.16-.16s-.07-.16-.16-.16h-4.24Z"/>
      </g>
      <g>
        <path class="cls-1" d="M15.4.57c-.09-.28-.34-.47-.64-.47H4.1c-.3,0-.56.19-.65.47L.1,10.56v7.07c0,.35.28.64.64.64h17.22c.32,0,.59-.26.59-.59v-7.12L15.4.57ZM3.99.62h10.88l3.06,9.94h-6.02c-.27,0-.49.22-.49.49v2.75h-4.09v-2.65c0-.33-.27-.59-.59-.59H.72L3.99.62ZM18.01,17.74H.62v-6.66h6.17v2.7c0,.3.24.54.54.54h4.04c.31,0,.56-.25.56-.56v-2.68h6.08v6.66Z"/>
        <path class="cls-1" d="M17.95,18.36H.73c-.4,0-.73-.33-.73-.73v-7.07s0-.02,0-.03L3.36.54c.11-.32.4-.54.74-.54h10.66c.34,0,.63.22.73.54l3.14,9.99s0,.02,0,.03v7.12c0,.38-.31.68-.68.68ZM.2,10.57v7.05c0,.3.24.54.54.54h17.22c.27,0,.49-.22.49-.49v-7.1L15.3.6h0c-.07-.24-.29-.4-.54-.4H4.1c-.25,0-.48.16-.56.4L.2,10.57ZM18.01,17.84H.62c-.05,0-.1-.04-.1-.1v-6.66c0-.05.04-.1.1-.1h6.17c.05,0,.1.04.1.1v2.7c0,.24.2.44.44.44h4.04c.25,0,.46-.21.46-.46v-2.68c0-.05.04-.1.1-.1h6.08c.05,0,.1.04.1.1v6.66c0,.05-.04.1-.1.1ZM.72,17.64h17.2v-6.46h-5.88v2.58c0,.36-.29.66-.66.66h-4.04c-.35,0-.64-.29-.64-.64v-2.6H.72v6.46ZM11.41,13.9h-4.09c-.05,0-.1-.04-.1-.1v-2.65c0-.27-.22-.5-.5-.5H.72s-.06-.02-.08-.04c-.02-.03-.02-.06-.01-.09L3.89.59s.05-.07.09-.07h10.88s.08.03.09.07l3.06,9.94s0,.06-.01.09c-.02.03-.05.04-.08.04h-6.02c-.22,0-.39.18-.39.39v2.75c0,.05-.04.1-.1.1ZM7.42,13.7h3.89v-2.65c0-.32.26-.59.59-.59h5.89L14.79.72H4.06L.86,10.46h5.87c.38,0,.69.31.69.69v2.55Z"/>
      </g>
    </g>
  </g>
</svg>