<?xml version="1.0" encoding="UTF-8"?>
<svg id="Layer_2" data-name="Layer 2" xmlns="http://www.w3.org/2000/svg" viewBox="0 0 19.05 19.59">
  <defs>
    <style>
      .cls-1 {
        fill: #1f1f1f;
      }
    </style>
  </defs>
  <g id="Object">
    <g>
      <g>
        <path class="cls-1" d="M16.75,9.23c-.14,0-.26-.12-.26-.26V.62H2.57v6.55c0,.14-.12.26-.26.26s-.26-.12-.26-.26V.36c0-.14.12-.26.26-.26h14.44c.14,0,.26.12.26.26v8.6c0,.14-.12.26-.26.26Z"/>
        <path class="cls-1" d="M16.75,9.33c-.2,0-.36-.16-.36-.36V.72H2.66v6.45c0,.2-.16.36-.36.36s-.36-.16-.36-.36V.36c0-.2.16-.36.36-.36h14.44c.2,0,.36.16.36.36v8.6c0,.2-.16.36-.36.36ZM2.57.52h13.92c.05,0,.1.04.1.1v8.34c0,.09.07.16.16.16s.16-.07.16-.16V.36c0-.09-.07-.16-.16-.16H2.3c-.09,0-.16.07-.16.16v6.81c0,.09.07.16.16.16s.16-.07.16-.16V.62c0-.05.04-.1.1-.1Z"/>
      </g>
      <g>
        <path class="cls-1" d="M16.75,19.49H2.3c-.14,0-.26-.12-.26-.26v-8.26c0-.14.12-.26.26-.26s.26.12.26.26v7.99h13.92v-6.07c0-.14.12-.26.26-.26s.26.12.26.26v6.33c0,.14-.12.26-.26.26Z"/>
        <path class="cls-1" d="M16.75,19.59H2.3c-.2,0-.36-.16-.36-.36v-8.26c0-.2.16-.36.36-.36s.36.16.36.36v7.9h13.72v-5.97c0-.2.16-.36.36-.36s.36.16.36.36v6.33c0,.2-.16.36-.36.36ZM2.3,10.81c-.09,0-.16.07-.16.16v8.26c0,.09.07.16.16.16h14.44c.09,0,.16-.07.16-.16v-6.33c0-.09-.07-.16-.16-.16s-.16.07-.16.16v6.07c0,.05-.04.1-.1.1H2.57c-.05,0-.1-.04-.1-.1v-7.99c0-.09-.07-.16-.16-.16Z"/>
      </g>
      <g>
        <path class="cls-1" d="M16.75,9.58h0c-.08,0-.16-.04-.21-.11l-1.94-2.73c-.08-.12-.06-.28.06-.37.12-.08.28-.06.37.06l1.73,2.43,1.73-2.43c.08-.12.25-.14.37-.06.12.08.15.25.06.37l-1.94,2.73c-.05.07-.13.11-.21.11Z"/>
        <path class="cls-1" d="M16.75,9.68c-.12,0-.23-.06-.29-.15l-1.94-2.73c-.06-.08-.08-.17-.06-.27.02-.1.07-.18.15-.23.16-.12.39-.08.5.08l1.65,2.31,1.65-2.31c.12-.16.34-.2.5-.08.08.06.13.14.15.23.02.09,0,.19-.06.27l-1.94,2.73c-.07.09-.18.15-.29.15ZM14.8,6.43s-.07,0-.09.03c-.04.03-.06.06-.07.11,0,.04,0,.09.03.12l1.94,2.73c.06.09.21.09.27,0l1.94-2.73s.04-.08.03-.12-.03-.08-.07-.11c-.07-.05-.18-.04-.23.04l-1.73,2.43s-.05.04-.08.04h0s-.06-.02-.08-.04l-1.73-2.43s-.08-.07-.13-.07Z"/>
      </g>
      <g>
        <path class="cls-1" d="M4.25,13.65c-.08,0-.16-.04-.21-.11l-1.73-2.43-1.73,2.43c-.08.12-.25.15-.37.06-.12-.08-.15-.25-.06-.37l1.94-2.73c.05-.07.13-.11.21-.11h0c.08,0,.16.04.21.11l1.94,2.73c.08.12.06.28-.06.37-.05.03-.1.05-.15.05Z"/>
        <path class="cls-1" d="M.36,13.75c-.07,0-.15-.02-.21-.07-.08-.06-.13-.14-.15-.23-.02-.09,0-.19.06-.27l1.94-2.73c.13-.19.45-.19.59,0l1.94,2.73c.06.08.08.17.06.27-.02.1-.07.18-.15.23-.16.11-.39.07-.5-.08l-1.65-2.31-1.65,2.31c-.06.08-.14.13-.23.15-.02,0-.04,0-.06,0ZM2.3,10.5c-.05,0-.1.03-.13.07L.23,13.3s-.04.08-.03.12c0,.04.03.08.07.11.04.03.08.04.12.03.04,0,.08-.03.11-.07l1.73-2.43s.05-.04.08-.04h0s.06.02.08.04l1.73,2.43c.05.07.16.09.23.04.04-.03.06-.06.07-.11,0-.04,0-.09-.03-.12l-1.94-2.73s-.08-.07-.13-.07Z"/>
      </g>
    </g>
  </g>
</svg>