<?xml version="1.0" encoding="UTF-8"?>
<svg id="Layer_2" data-name="Layer 2" xmlns="http://www.w3.org/2000/svg" viewBox="0 0 19.17 18.79">
  <defs>
    <style>
      .cls-1 {
        fill: #1f1f1f;
      }
    </style>
  </defs>
  <g id="Object">
    <g>
      <g>
        <path class="cls-1" d="M12.96,10.93c-.1-.1-.27-.1-.37,0l-1.46,1.46-4.66-4.66,1.52-1.52c.1-.1.1-.27,0-.37l-3.34-3.34c-.1-.1-.27-.1-.37,0L.18,6.62c-.1.1-.1.27,0,.37l9.82,9.82c.1.1.27.1.37,0s.1-.27,0-.37L.73,6.81l2.68-2.68,2.97,2.97-.46.46c-.1.1-.1.27,0,.37l5.03,5.03c.1.1.27.1.37,0l.49-.49,3.03,3.03-2.74,2.74c-.1.1-.1.27,0,.37.1.1.27.1.37,0l3.92-3.92c.1-.1.1-.27,0-.37l-3.43-3.39ZM3.79,3.75l.68-.68,2.97,2.97-.68.68-2.97-2.97ZM15.21,15.12l-3.03-3.03.6-.6,3.05,3.02-.62.62Z"/>
        <path class="cls-1" d="M12.28,18.79c-.09,0-.18-.03-.25-.11-.07-.07-.11-.16-.11-.25s.04-.19.11-.25l2.68-2.68-2.9-2.9-.42.42c-.14.14-.37.14-.51,0l-5.03-5.03c-.07-.07-.11-.16-.11-.26s.04-.19.11-.25l.39-.39-2.83-2.83L.87,6.81l9.57,9.57c.14.14.14.37,0,.51-.14.14-.37.14-.51,0L.11,7.06c-.07-.07-.11-.16-.11-.26s.04-.19.11-.25L4.21,2.44c.07-.07.16-.11.25-.11h0c.1,0,.19.04.25.11l3.34,3.34c.07.07.11.16.11.25s-.04.19-.11.26l-1.45,1.45,4.52,4.52,1.39-1.39c.14-.14.37-.14.51,0h0l3.43,3.38c.07.07.11.16.11.26,0,.1-.04.19-.11.26l-3.92,3.92c-.07.07-.16.11-.25.11ZM11.8,12.36s.05,0,.07.03l3.03,3.03s.04.1,0,.14l-2.74,2.74s-.05.07-.05.12.02.09.05.12c.06.06.17.06.23,0l3.92-3.92s.05-.07.05-.12c0-.04-.02-.09-.05-.12l-3.43-3.38c-.06-.06-.17-.06-.23,0l-1.46,1.46s-.1.04-.14,0l-4.66-4.66s-.04-.1,0-.14l1.52-1.52s.05-.07.05-.12-.02-.08-.05-.12l-3.34-3.34s-.07-.05-.12-.05h0s-.08.02-.12.05L.24,6.69s-.05.07-.05.12.02.09.05.12l9.82,9.82c.06.06.17.06.23,0,.06-.06.06-.17,0-.23L.66,6.88s-.04-.1,0-.14l2.68-2.68s.1-.04.14,0l2.97,2.96s.04.1,0,.14l-.46.46s-.05.07-.05.12.02.08.05.12l5.03,5.03c.06.06.17.06.23,0l.49-.49s.04-.03.07-.03ZM15.21,15.22s-.05,0-.07-.03l-3.03-3.03s-.04-.1,0-.14l.6-.6s.1-.04.14,0l3.05,3.02s.03.04.03.07-.01.05-.03.07l-.62.62s-.04.03-.07.03ZM12.31,12.09l2.9,2.9.48-.48-2.91-2.88-.46.46ZM6.75,6.81s-.05,0-.07-.03l-2.97-2.97s-.03-.04-.03-.07.01-.05.03-.07l.68-.68s.1-.04.14,0l2.97,2.97s.03.04.03.07-.01.05-.03.07l-.68.68s-.04.03-.07.03ZM3.92,3.75l2.83,2.83.54-.54-2.83-2.83-.54.54Z"/>
      </g>
      <g>
        <path class="cls-1" d="M18.63.17l-6.67,6.55v-1.73c0-.14-.12-.26-.26-.26s-.26.12-.26.26v2.36c0,.14.12.26.26.26h2.36c.14,0,.26-.12.26-.26s-.12-.26-.26-.26h-1.72L18.99.55c.1-.1.1-.27,0-.37-.1-.1-.27-.1-.37,0Z"/>
        <path class="cls-1" d="M14.05,7.71h-2.36c-.2,0-.36-.16-.36-.36v-2.36c0-.2.16-.36.36-.36s.36.16.36.36v1.5L18.56.1h0c.14-.14.37-.14.51,0,.07.07.1.16.1.26,0,.1-.04.19-.11.25l-6.49,6.37h1.48c.2,0,.36.16.36.36s-.16.36-.36.36ZM11.69,4.83c-.09,0-.16.07-.16.16v2.36c0,.09.07.16.16.16h2.36c.09,0,.16-.07.16-.16s-.07-.16-.16-.16h-1.72s-.08-.02-.09-.06c-.02-.04,0-.08.02-.11L18.92.48s.05-.07.05-.12c0-.04-.02-.09-.05-.12-.06-.06-.17-.07-.23,0l-6.67,6.55s-.07.04-.11.02c-.04-.02-.06-.05-.06-.09v-1.73c0-.09-.07-.16-.16-.16Z"/>
      </g>
    </g>
  </g>
</svg>