<?xml version="1.0" encoding="UTF-8"?>
<svg id="Layer_2" data-name="Layer 2" xmlns="http://www.w3.org/2000/svg" viewBox="0 0 19.43 19.2">
  <defs>
    <style>
      .cls-1 {
        fill: #1f1f1f;
      }
    </style>
  </defs>
  <g id="Object">
    <g>
      <g>
        <path class="cls-1" d="M19.07.1H.36C.22.1.1.22.1.36v18.47c0,.14.12.26.26.26h18.71c.14,0,.26-.12.26-.26V.36c0-.14-.12-.26-.26-.26ZM18.81,18.57H.62V4.44h18.18v14.13ZM18.81,3.92H.62V.62h18.18v3.3Z"/>
        <path class="cls-1" d="M19.07,19.2H.36c-.2,0-.36-.16-.36-.36V.36c0-.2.16-.36.36-.36h18.71c.2,0,.36.16.36.36v18.47c0,.2-.16.36-.36.36ZM.36.2c-.09,0-.16.07-.16.16v18.47c0,.09.07.16.16.16h18.71c.09,0,.16-.07.16-.16V.36c0-.09-.07-.16-.16-.16H.36ZM18.81,18.67H.62c-.05,0-.1-.04-.1-.1V4.44c0-.05.04-.1.1-.1h18.18c.05,0,.1.04.1.1v14.13c0,.05-.04.1-.1.1ZM.72,18.47h17.99V4.54H.72v13.93ZM18.81,4.02H.62c-.05,0-.1-.04-.1-.1V.62c0-.05.04-.1.1-.1h18.18c.05,0,.1.04.1.1v3.3c0,.05-.04.1-.1.1ZM.72,3.82h17.99V.72H.72v3.1Z"/>
      </g>
      <g>
        <path class="cls-1" d="M2.19,3.16c.48,0,.86-.39.86-.86s-.39-.86-.86-.86-.86.39-.86.86.39.86.86.86ZM2.19,1.96c.19,0,.34.15.34.34s-.15.34-.34.34-.34-.15-.34-.34.15-.34.34-.34Z"/>
        <path class="cls-1" d="M2.19,3.26c-.53,0-.96-.43-.96-.96s.43-.96.96-.96.96.43.96.96-.43.96-.96.96ZM2.19,1.53c-.42,0-.76.34-.76.76s.34.76.76.76.76-.34.76-.76-.34-.76-.76-.76ZM2.19,2.73c-.24,0-.44-.2-.44-.44s.2-.44.44-.44.44.2.44.44-.2.44-.44.44ZM2.19,2.06c-.13,0-.24.11-.24.24s.11.24.24.24.24-.11.24-.24-.11-.24-.24-.24Z"/>
      </g>
      <g>
        <path class="cls-1" d="M4.37,3.16c.48,0,.86-.39.86-.86s-.39-.86-.86-.86-.86.39-.86.86.39.86.86.86ZM4.37,1.96c.19,0,.34.15.34.34s-.15.34-.34.34-.34-.15-.34-.34.15-.34.34-.34Z"/>
        <path class="cls-1" d="M4.37,3.26c-.53,0-.96-.43-.96-.96s.43-.96.96-.96.96.43.96.96-.43.96-.96.96ZM4.37,1.53c-.42,0-.76.34-.76.76s.34.76.76.76.76-.34.76-.76-.34-.76-.76-.76ZM4.37,2.73c-.24,0-.44-.2-.44-.44s.2-.44.44-.44.44.2.44.44-.2.44-.44.44ZM4.37,2.06c-.13,0-.24.11-.24.24s.11.24.24.24.24-.11.24-.24-.11-.24-.24-.24Z"/>
      </g>
      <g>
        <path class="cls-1" d="M6.55,3.16c.48,0,.86-.39.86-.86s-.39-.86-.86-.86-.86.39-.86.86.39.86.86.86ZM6.55,1.96c.19,0,.34.15.34.34s-.15.34-.34.34-.34-.15-.34-.34.15-.34.34-.34Z"/>
        <path class="cls-1" d="M6.55,3.26c-.53,0-.96-.43-.96-.96s.43-.96.96-.96.96.43.96.96-.43.96-.96.96ZM6.55,1.53c-.42,0-.76.34-.76.76s.34.76.76.76.76-.34.76-.76-.34-.76-.76-.76ZM6.55,2.73c-.24,0-.44-.2-.44-.44s.2-.44.44-.44.44.2.44.44-.2.44-.44.44ZM6.55,2.06c-.13,0-.24.11-.24.24s.11.24.24.24.24-.11.24-.24-.11-.24-.24-.24Z"/>
      </g>
      <g>
        <path class="cls-1" d="M8.21,15.17l-.38.08c-.14.03-.23.17-.21.31.02.12.13.21.26.21.02,0,.03,0,.05,0l1.33-.27c.08-.02.15-.07.19-.15.04-.08.03-.16,0-.24l-.66-1.18c-.07-.13-.23-.17-.36-.1-.13.07-.17.23-.1.36l.34.61c-.44-.16-.85-.41-1.19-.74-1.33-1.29-1.37-3.41-.08-4.75.49-.51,1.12-.85,1.82-.97.14-.03.24-.16.21-.3-.03-.14-.16-.24-.3-.21-.81.14-1.54.53-2.11,1.12-1.49,1.54-1.44,4,.1,5.49.33.31.7.56,1.1.75Z"/>
        <path class="cls-1" d="M7.89,15.86c-.17,0-.32-.12-.35-.29-.04-.19.09-.38.28-.42l.1-.02c-.32-.17-.61-.38-.87-.64-1.58-1.52-1.62-4.05-.1-5.62.58-.61,1.33-1,2.16-1.15.1-.02.19,0,.27.06.08.06.13.14.15.23.02.09,0,.19-.06.27-.06.08-.14.13-.23.15-.68.12-1.29.45-1.77.94-1.25,1.29-1.21,3.36.08,4.61.26.26.57.46.9.61l-.2-.36c-.05-.08-.06-.18-.03-.27.03-.09.09-.17.17-.22.17-.1.39-.03.49.14l.66,1.18c.06.1.06.22.01.33-.05.1-.14.18-.26.2l-1.33.26s-.05,0-.07,0ZM9.17,7.91s-.02,0-.03,0c-.79.14-1.5.52-2.05,1.09-1.45,1.5-1.41,3.9.09,5.35.31.3.67.55,1.08.73.04.02.06.06.06.1,0,.04-.04.08-.08.09l-.38.08c-.09.02-.15.1-.13.19.02.09.12.15.19.13l1.33-.27c.05,0,.09-.04.12-.09.02-.05.02-.1,0-.15l-.66-1.18c-.04-.08-.14-.11-.22-.06-.04.02-.07.06-.08.1-.01.04,0,.09.01.12l.34.61s.02.08-.01.11c-.03.03-.07.04-.11.03-.46-.17-.87-.42-1.22-.76-1.37-1.32-1.41-3.51-.09-4.88.51-.53,1.16-.87,1.87-1,.04,0,.08-.03.11-.07.03-.04.03-.08.03-.12,0-.04-.03-.08-.07-.11-.03-.02-.06-.03-.09-.03Z"/>
      </g>
      <g>
        <path class="cls-1" d="M10.4,14.93c-.14.03-.24.16-.21.3.02.13.13.22.26.22.02,0,.03,0,.05,0,.81-.14,1.54-.53,2.11-1.12,1.49-1.54,1.44-4-.1-5.49-.32-.31-.69-.56-1.09-.74l.41-.08c.14-.03.23-.17.21-.31-.03-.14-.17-.23-.31-.21l-1.33.27c-.08.02-.15.07-.19.15-.02.03-.02.07-.02.1,0,0,0,0,0,0,0,.01,0,.02,0,.03,0,.08.03.16.09.21l.59,1.07c.05.09.14.14.23.14.04,0,.09-.01.13-.03.13-.07.17-.23.1-.36l-.32-.59c.42.16.8.4,1.13.72,1.33,1.29,1.37,3.41.08,4.74-.49.51-1.12.85-1.82.97Z"/>
        <path class="cls-1" d="M10.44,15.55c-.17,0-.32-.12-.35-.3-.03-.2.1-.38.29-.42h0c.68-.12,1.29-.45,1.77-.94,1.25-1.29,1.21-3.36-.08-4.61-.25-.24-.53-.44-.84-.58l.19.33c.1.17.03.39-.14.49-.17.09-.4.03-.49-.14l-.59-1.06c-.07-.07-.11-.17-.11-.28,0,0,0-.02,0-.04,0-.04,0-.08.03-.13.05-.1.14-.18.26-.2l1.33-.27c.19-.04.38.09.42.28.02.09,0,.19-.05.27-.05.08-.13.13-.23.15l-.13.03c.31.17.6.38.85.63,1.58,1.52,1.62,4.05.1,5.62-.58.61-1.33,1-2.16,1.15-.02,0-.04,0-.06,0ZM11,8.4s.02,0,.03,0c.44.17.83.42,1.16.74,1.37,1.32,1.41,3.51.09,4.88-.51.53-1.16.87-1.87,1h0s-.08.03-.11.07c-.03.04-.03.08-.03.12.02.09.1.15.19.13.79-.14,1.5-.52,2.05-1.1,1.45-1.5,1.41-3.9-.09-5.35-.31-.3-.66-.54-1.06-.72-.04-.02-.06-.06-.06-.1,0-.04.04-.08.08-.09l.41-.08s.08-.03.1-.07c.02-.04.03-.08.02-.12-.02-.09-.1-.15-.19-.13l-1.33.27c-.05.01-.09.04-.12.09,0,.01-.01.03-.01.06,0,0,0,.01,0,.02,0,0,0,0,0,.02,0,.05.02.1.05.13,0,0,.02.02.02.03l.59,1.07c.04.08.15.11.22.06.08-.04.11-.14.06-.22l-.32-.59s-.02-.08.01-.11c.02-.02.05-.03.07-.03ZM10.4,14.93h0,0Z"/>
      </g>
    </g>
  </g>
</svg>