<?xml version="1.0" encoding="UTF-8"?>
<svg id="Layer_2" data-name="Layer 2" xmlns="http://www.w3.org/2000/svg" viewBox="0 0 19.13 19.66">
  <defs>
    <style>
      .cls-1 {
        fill: #1f1f1f;
      }
    </style>
  </defs>
  <g id="Object">
    <g>
      <g>
        <path class="cls-1" d="M15.17,4.87c-.14,0-.26.12-.26.26v10.42H5.12v-.28c0-.14-.12-.26-.26-.26s-.26.12-.26.26v3.7c0,.14.12.26.26.26h10.31c.14,0,.26-.12.26-.26V5.13c0-.14-.12-.26-.26-.26ZM5.12,18.71v-2.63h9.78v2.63H5.12Z"/>
        <path class="cls-1" d="M15.17,19.33H4.86c-.2,0-.36-.16-.36-.36v-3.7c0-.2.16-.36.36-.36s.36.16.36.36v.19h9.59V5.13c0-.2.16-.36.36-.36s.36.16.36.36v13.84c0,.2-.16.36-.36.36ZM4.86,15.1c-.09,0-.16.07-.16.16v3.7c0,.09.07.16.16.16h10.31c.09,0,.16-.07.16-.16V5.13c0-.09-.07-.16-.16-.16s-.16.07-.16.16v10.42c0,.05-.04.1-.1.1H5.12c-.05,0-.1-.04-.1-.1v-.28c0-.09-.07-.16-.16-.16ZM14.91,18.81H5.12c-.05,0-.1-.04-.1-.1v-2.63c0-.05.04-.1.1-.1h9.78c.05,0,.1.04.1.1v2.63c0,.05-.04.1-.1.1ZM5.22,18.61h9.59v-2.43H5.22v2.43Z"/>
      </g>
      <g>
        <path class="cls-1" d="M4.86,13.78c.14,0,.26-.12.26-.26V1.1h9.78v1.78c0,.14.12.26.26.26s.26-.12.26-.26V.84c0-.14-.12-.26-.26-.26H4.86c-.14,0-.26.12-.26.26v12.68c0,.14.12.26.26.26Z"/>
        <path class="cls-1" d="M4.86,13.88c-.2,0-.36-.16-.36-.36V.84c0-.2.16-.36.36-.36h10.31c.2,0,.36.16.36.36v2.04c0,.2-.16.36-.36.36s-.36-.16-.36-.36v-1.68H5.22v12.32c0,.2-.16.36-.36.36ZM4.86.68c-.09,0-.16.07-.16.16v12.68c0,.09.07.16.16.16s.16-.07.16-.16V1.1c0-.05.04-.1.1-.1h9.78c.05,0,.1.04.1.1v1.78c0,.09.07.16.16.16s.16-.07.16-.16V.84c0-.09-.07-.16-.16-.16H4.86Z"/>
      </g>
      <g>
        <path class="cls-1" d="M11.09,17.12h-2.14c-.14,0-.26.12-.26.26s.12.26.26.26h2.14c.14,0,.26-.12.26-.26s-.12-.26-.26-.26Z"/>
        <path class="cls-1" d="M11.09,17.75h-2.14c-.2,0-.36-.16-.36-.36s.16-.36.36-.36h2.14c.2,0,.36.16.36.36s-.16.36-.36.36ZM8.95,17.22c-.09,0-.16.07-.16.16s.07.16.16.16h2.14c.09,0,.16-.07.16-.16s-.07-.16-.16-.16h-2.14Z"/>
      </g>
      <g>
        <path class="cls-1" d="M3.02,14.4L.78,9.8l2.3-4.54c.04-.08.04-.16,0-.24L.59.24c-.07-.13-.23-.18-.35-.11-.13.07-.18.23-.11.35l2.43,4.66L.26,9.68c-.04.07-.04.16,0,.23l2.24,4.6-.91,1.76-1.46,2.84c-.07.13-.02.29.11.35.04.02.08.03.12.03.1,0,.19-.05.23-.14l1.46-2.84.96-1.88c.04-.07.04-.16,0-.23Z"/>
        <path class="cls-1" d="M.36,19.59c-.06,0-.11-.01-.16-.04-.09-.04-.15-.12-.18-.21-.03-.09-.02-.19.02-.27l2.34-4.56L.17,9.95c-.05-.1-.05-.22,0-.32l2.27-4.49L.04.53C0,.44-.01.34.02.25.05.16.11.09.19.04.28,0,.38-.01.47.02c.09.03.17.09.21.18l2.49,4.78c.05.1.05.23,0,.33L.89,9.8l2.21,4.56h0c.05.1.05.22,0,.32l-2.42,4.72c-.06.12-.18.2-.32.2ZM.36.2s-.05,0-.08.02c-.04.02-.07.05-.08.1-.01.04,0,.09.01.12l2.43,4.66s.01.06,0,.09L.35,9.72s-.02.1,0,.15l2.24,4.6s.01.06,0,.09L.22,19.16s-.02.08-.01.12.04.08.08.1c.08.04.18,0,.22-.07l2.42-4.72s.02-.1,0-.15L.7,9.84s-.01-.06,0-.09l2.3-4.54s.02-.1,0-.15L.51.28s-.05-.07-.1-.08c-.02,0-.03,0-.05,0Z"/>
      </g>
      <g>
        <path class="cls-1" d="M16.58,14.51l2.3-4.53c.04-.07.04-.16,0-.23l-2.24-4.6,2.36-4.6c.07-.13.02-.29-.11-.35-.13-.07-.29-.02-.35.11l-2.42,4.72c-.04.07-.04.16,0,.23l2.24,4.6-2.3,4.54c-.04.08-.04.16,0,.24l2.49,4.78c.05.09.14.14.23.14.04,0,.08,0,.12-.03.13-.07.18-.23.11-.35l-2.43-4.66Z"/>
        <path class="cls-1" d="M18.77,19.66c-.13,0-.26-.07-.32-.19l-2.49-4.78c-.05-.1-.05-.23,0-.33l2.28-4.49-2.21-4.56c-.05-.1-.05-.22,0-.32L18.45.26c.04-.09.12-.15.21-.18.09-.03.19-.02.28.02.09.04.15.12.18.21.03.09.02.19-.02.28l-2.34,4.56,2.21,4.56c.05.1.05.22,0,.32l-2.27,4.49,2.4,4.62c.04.09.05.18.02.27-.03.09-.09.17-.18.21-.05.03-.11.04-.17.04ZM18.77.26s-.03,0-.05,0c-.04.01-.08.04-.1.08l-2.42,4.72s-.02.1,0,.15l2.24,4.6s.01.06,0,.09l-2.3,4.54s-.02.1,0,.15l2.49,4.78c.04.08.14.11.22.07.04-.02.07-.05.08-.1.01-.04,0-.09-.01-.12l-2.43-4.66s-.01-.06,0-.09l2.3-4.53s.02-.1,0-.15l-2.24-4.6s-.01-.06,0-.09l2.36-4.6s.02-.08.01-.13c-.01-.04-.04-.08-.08-.1-.02-.01-.05-.02-.08-.02Z"/>
      </g>
      <g>
        <path class="cls-1" d="M16.79,2.33c-.1-.1-.27-.1-.37,0L2.98,16.02c-.1.1-.1.27,0,.37.05.05.12.08.18.08s.14-.03.19-.08L16.8,2.71c.1-.1.1-.27,0-.37Z"/>
        <path class="cls-1" d="M3.17,16.57c-.09,0-.18-.04-.25-.1-.14-.14-.14-.37,0-.51L16.35,2.27c.14-.14.37-.14.51,0,.07.07.11.16.11.25,0,.1-.04.19-.1.26L3.42,16.46c-.07.07-.16.11-.26.11ZM16.61,2.36s-.08.02-.12.05L3.05,16.09c-.06.06-.06.17,0,.23.06.06.17.06.23,0L16.72,2.64s.05-.07.05-.12c0-.04-.02-.08-.05-.12-.03-.03-.07-.05-.11-.05Z"/>
      </g>
    </g>
  </g>
</svg>