<?xml version="1.0" encoding="UTF-8"?>
<svg id="Layer_2" data-name="Layer 2" xmlns="http://www.w3.org/2000/svg" viewBox="0 0 14.76 14.7">
  <defs>
    <style>
      .cls-1 {
        fill: #1f1f1f;
      }
    </style>
  </defs>
  <g id="Object">
    <g>
      <path class="cls-1" d="M.86,13.89c.33-1.27,2.04-7.15,6-8.61,2.14-.79,4.63-.17,7.38,1.86.12.09.28.06.37-.05.09-.12.06-.28-.05-.37-2.91-2.14-5.56-2.78-7.88-1.93-1.95.72-3.68,2.55-4.99,5.29-.49,1.03-.84,2-1.07,2.72V.36C.62.22.51.1.36.1S.1.22.1.36v13.98c0,.14.12.26.26.26h13.98c.14,0,.26-.12.26-.26s-.12-.26-.26-.26H.88s-.09-.02-.13-.04c.05-.03.09-.08.11-.15Z"/>
      <path class="cls-1" d="M14.34,14.7H.36c-.2,0-.36-.16-.36-.36V.36c0-.2.16-.36.36-.36s.36.16.36.36v11.83c.26-.74.55-1.47.88-2.15,1.32-2.76,3.07-4.61,5.04-5.34,2.35-.87,5.03-.22,7.97,1.94.08.06.13.14.14.24.01.1-.01.19-.07.27-.12.16-.34.19-.5.07-2.73-2-5.18-2.62-7.29-1.84C2.96,6.82,1.26,12.74.95,13.91h0s-.01.05-.02.07h13.41c.2,0,.36.16.36.36s-.16.36-.36.36ZM.36.2c-.09,0-.16.07-.16.16v13.98c0,.09.07.16.16.16h13.98c.09,0,.16-.07.16-.16s-.07-.16-.16-.16H.88c-.06,0-.12-.02-.18-.06-.03-.02-.05-.05-.05-.08,0-.03.02-.06.04-.08.02-.02.05-.05.07-.09h0c.31-1.19,2.04-7.19,6.06-8.67,2.18-.8,4.69-.17,7.48,1.87.07.05.18.04.23-.03.03-.04.04-.08.03-.12,0-.04-.03-.08-.07-.11-2.88-2.11-5.5-2.76-7.78-1.91-1.93.71-3.63,2.52-4.93,5.24-.41.85-.76,1.76-1.06,2.71-.01.05-.06.07-.11.07-.05,0-.08-.05-.08-.1V.36c0-.09-.07-.16-.16-.16ZM.86,13.89h0,0Z"/>
    </g>
  </g>
</svg>