<?xml version="1.0" encoding="UTF-8"?>
<svg id="Layer_2" data-name="Layer 2" xmlns="http://www.w3.org/2000/svg" viewBox="0 0 18.81 19.64">
  <defs>
    <style>
      .cls-1 {
        fill: #1f1f1f;
      }
    </style>
  </defs>
  <g id="Object">
    <g>
      <g>
        <g>
          <path class="cls-1" d="M9.26,17.07c-.34,0-.68-.02-1.02-.05l-2.51-.23c-.14-.01-.25-.14-.24-.28.01-.14.14-.25.28-.24l2.51.23c.65.06,1.31.06,1.95,0l4.51-.41h2.99c.13,0,.26-.06.35-.16.09-.1.12-.24.1-.38-.04-.21-.25-.37-.49-.37h-.79c-1.32,0-2.4-1.08-2.4-2.4v-5.01c0-.88-.22-1.75-.64-2.51-.07-.13-.02-.29.1-.36.13-.07.29-.02.36.1.46.84.7,1.8.7,2.76v5.01c0,1.04.84,1.88,1.88,1.88h.79c.49,0,.93.35,1,.81.05.29-.03.58-.21.8-.19.22-.46.35-.75.35h-2.97l-4.48.41c-.34.03-.68.05-1.02.05Z"/>
          <path class="cls-1" d="M9.26,17.17c-.34,0-.69-.02-1.03-.05l-2.51-.23c-.1,0-.18-.05-.24-.13-.06-.07-.09-.17-.08-.26.02-.2.19-.34.39-.33l2.51.23c.64.06,1.29.06,1.94,0l4.51-.41h3c.11,0,.2-.05.27-.13.07-.08.1-.19.08-.3-.03-.17-.2-.29-.39-.29h-.79c-1.38,0-2.5-1.12-2.5-2.5v-5.01c0-.86-.22-1.71-.63-2.47-.1-.17-.03-.39.14-.49.18-.09.39-.03.49.14.47.86.72,1.83.72,2.81v5.01c0,.98.8,1.78,1.78,1.78h.79c.54,0,1.01.38,1.1.89.06.32-.03.64-.24.88-.21.24-.51.38-.82.38h-2.97l-4.47.41c-.34.03-.69.05-1.03.05ZM5.76,16.37c-.08,0-.16.06-.16.15,0,.04,0,.09.04.12.03.03.07.05.11.06l2.51.23c.67.06,1.36.06,2.03,0l4.48-.41h2.98c.26,0,.51-.11.67-.31.17-.2.24-.46.19-.72-.07-.41-.46-.72-.91-.72h-.79c-1.09,0-1.98-.89-1.98-1.98v-5.01c0-.95-.24-1.89-.69-2.72-.04-.08-.14-.11-.22-.07-.04.02-.07.06-.08.1-.01.04,0,.09.01.12.43.78.65,1.67.65,2.56v5.01c0,1.27,1.03,2.3,2.3,2.3h.79c.29,0,.54.19.59.45.03.17-.01.33-.12.46-.11.13-.26.2-.42.2h-2.99s-4.5.41-4.5.41c-.65.06-1.32.06-1.97,0l-2.51-.23s0,0-.01,0Z"/>
        </g>
        <g>
          <path class="cls-1" d="M3.57,16.62H1.08c-.27,0-.53-.11-.71-.31-.19-.2-.28-.45-.27-.73.03-.52.47-.93,1.02-.93h.5c1.04,0,1.88-.84,1.88-1.88v-5.01c0-3.18,2.59-5.77,5.77-5.77,1.31,0,2.55.43,3.57,1.24.11.09.13.25.04.37-.09.11-.25.13-.37.04-.93-.74-2.06-1.13-3.25-1.13-2.89,0-5.24,2.35-5.24,5.24v5.01c0,1.32-1.08,2.4-2.4,2.4h-.5c-.26,0-.48.19-.49.43,0,.13.04.25.12.34.09.09.2.14.33.14h2.49c.14,0,.26.12.26.26s-.12.26-.26.26Z"/>
          <path class="cls-1" d="M3.57,16.72H1.08c-.29,0-.58-.12-.78-.34-.21-.22-.31-.5-.29-.8.03-.57.52-1.02,1.12-1.02h.5c.98,0,1.78-.8,1.78-1.78v-5.01c0-3.24,2.63-5.87,5.87-5.87,1.33,0,2.59.44,3.63,1.26.08.06.12.14.13.24.01.1-.02.19-.07.27-.06.08-.15.12-.24.13-.1.01-.19-.02-.26-.08-.92-.72-2.02-1.1-3.19-1.1-2.84,0-5.15,2.31-5.15,5.15v5.01c0,1.38-1.12,2.5-2.5,2.5h-.5c-.21,0-.39.15-.4.34,0,.1.03.19.1.27.07.07.16.11.26.11h2.49c.2,0,.36.16.36.36s-.16.36-.36.36ZM1.12,14.76c-.49,0-.9.37-.92.83-.01.24.07.48.24.65.17.17.4.27.64.27h2.49c.09,0,.16-.07.16-.16s-.07-.16-.16-.16H1.08c-.15,0-.3-.06-.4-.17-.11-.11-.16-.26-.15-.41.01-.29.28-.52.59-.52h.5c1.27,0,2.3-1.03,2.3-2.3v-5.01c0-2.95,2.4-5.34,5.34-5.34,1.21,0,2.36.4,3.31,1.15.03.03.08.04.12.03.04,0,.08-.03.11-.06.03-.03.04-.08.03-.12,0-.04-.03-.08-.06-.11-1.01-.8-2.22-1.22-3.51-1.22-3.13,0-5.67,2.54-5.67,5.67v5.01c0,1.09-.89,1.98-1.98,1.98h-.5Z"/>
        </g>
        <g>
          <path class="cls-1" d="M9.26,18.92c-1.13,0-2.05-.92-2.05-2.05,0-.14.12-.26.26-.26s.26.12.26.26c0,.84.68,1.52,1.52,1.52s1.52-.68,1.52-1.52c0-.14.12-.26.26-.26s.26.12.26.26c0,1.13-.92,2.05-2.05,2.05Z"/>
          <path class="cls-1" d="M9.26,19.02c-1.18,0-2.14-.96-2.14-2.14,0-.2.16-.36.36-.36s.36.16.36.36c0,.78.64,1.42,1.42,1.42s1.42-.64,1.42-1.42c0-.2.16-.36.36-.36s.36.16.36.36c0,1.18-.96,2.14-2.14,2.14ZM7.48,16.71c-.09,0-.16.07-.16.16,0,1.07.87,1.95,1.95,1.95s1.95-.87,1.95-1.95c0-.09-.07-.16-.16-.16s-.16.07-.16.16c0,.89-.73,1.62-1.62,1.62s-1.62-.73-1.62-1.62c0-.09-.07-.16-.16-.16Z"/>
        </g>
        <g>
          <path class="cls-1" d="M9.26,4.5c-.14,0-.26-.12-.26-.26V1.14c0-.14.12-.26.26-.26s.26.12.26.26v3.1c0,.14-.12.26-.26.26Z"/>
          <path class="cls-1" d="M9.26,4.6c-.2,0-.36-.16-.36-.36V1.14c0-.2.16-.36.36-.36s.36.16.36.36v3.1c0,.2-.16.36-.36.36ZM9.26.98c-.09,0-.16.07-.16.16v3.1c0,.09.07.16.16.16s.16-.07.16-.16V1.14c0-.09-.07-.16-.16-.16Z"/>
        </g>
      </g>
      <g>
        <path class="cls-1" d="M2.65,19.54c-.05,0-.11-.02-.15-.05-.12-.08-.14-.25-.06-.37L16.04.21c.08-.12.25-.14.37-.06.12.08.14.25.06.37L2.86,19.43c-.05.07-.13.11-.21.11Z"/>
        <path class="cls-1" d="M2.65,19.64c-.08,0-.15-.02-.21-.07-.08-.06-.13-.14-.15-.23-.02-.1,0-.19.06-.27L15.96.15c.06-.08.14-.13.23-.15.1-.02.19,0,.27.06.16.12.2.34.08.5L2.94,19.49c-.07.09-.18.15-.29.15ZM16.25.2s-.02,0-.03,0c-.04,0-.08.03-.11.07L2.52,19.18s-.04.08-.03.12c0,.04.03.08.07.11.07.05.18.03.23-.04L16.38.46c.05-.07.04-.18-.04-.23-.03-.02-.06-.03-.09-.03Z"/>
      </g>
    </g>
  </g>
</svg>