<?xml version="1.0" encoding="UTF-8"?>
<svg id="Layer_2" data-name="Layer 2" xmlns="http://www.w3.org/2000/svg" viewBox="0 0 19.51 21.49">
  <defs>
    <style>
      .cls-1 {
        fill: #1f1f1f;
      }
    </style>
  </defs>
  <g id="Object">
    <g>
      <g>
        <path class="cls-1" d="M9.77,19.41c-3.69,0-7.15-2.14-8.75-5.55C-.08,11.52-.2,8.9.68,6.47,1.55,4.05,3.32,2.11,5.66,1.01c4.82-2.26,10.58-.18,12.84,4.64,1.87,3.99.81,8.74-2.59,11.54-.11.09-.28.08-.37-.04-.09-.11-.08-.28.04-.37,3.21-2.65,4.22-7.14,2.45-10.91C15.88,1.32,10.43-.65,5.88,1.49,3.67,2.53,2,4.36,1.17,6.65c-.83,2.29-.71,4.77.32,6.98,1.72,3.67,5.72,5.78,9.73,5.13.14-.02.28.07.3.22.02.14-.07.28-.22.3-.51.08-1.02.12-1.53.12Z"/>
        <path class="cls-1" d="M9.77,19.5c-3.77,0-7.24-2.2-8.84-5.61C-.18,11.54-.3,8.89.59,6.44,1.47,3.99,3.26,2.03,5.61.93,7.97-.18,10.62-.3,13.07.59c2.45.89,4.41,2.67,5.52,5.02,1.89,4.03.82,8.83-2.62,11.66-.15.13-.38.1-.51-.05-.13-.15-.1-.38.05-.51,3.18-2.62,4.17-7.06,2.42-10.8-1.02-2.18-2.84-3.83-5.11-4.65-2.27-.82-4.72-.71-6.9.31-2.18,1.02-3.84,2.84-4.66,5.11-.82,2.27-.71,4.72.32,6.9,1.7,3.63,5.66,5.72,9.62,5.08.09-.02.19,0,.27.06.08.06.13.14.15.24.02.09,0,.19-.06.27-.06.08-.14.13-.23.15-.51.08-1.03.13-1.55.13h0ZM9.74.2c-1.38,0-2.76.3-4.04.91C3.39,2.19,1.64,4.11.77,6.51S.02,11.5,1.11,13.81c1.57,3.34,4.97,5.49,8.66,5.49h0c.51,0,1.02-.04,1.52-.12.04,0,.08-.03.11-.07.03-.04.04-.08.03-.12,0-.04-.03-.08-.07-.11-.04-.02-.08-.03-.12-.03-4.05.66-8.09-1.48-9.83-5.19-1.05-2.23-1.16-4.74-.33-7.05C1.92,4.3,3.61,2.45,5.84,1.4c2.23-1.05,4.73-1.16,7.05-.32,2.32.84,4.17,2.53,5.22,4.75,1.79,3.82.77,8.35-2.47,11.03-.07.06-.08.16-.02.23.06.07.16.08.23.02,3.36-2.78,4.42-7.47,2.56-11.42-1.08-2.31-3-4.05-5.4-4.92-1.06-.38-2.16-.57-3.26-.57Z"/>
      </g>
      <g>
        <path class="cls-1" d="M8.74,21.4c-.08,0-.16-.04-.21-.11-.09-.12-.06-.28.06-.37l2.54-1.87-2.55-1.85c-.12-.08-.14-.25-.06-.37.08-.12.25-.14.37-.06l2.84,2.06c.07.05.11.13.11.21,0,.08-.04.16-.11.21l-2.82,2.09s-.1.05-.16.05Z"/>
        <path class="cls-1" d="M8.74,21.49c-.11,0-.22-.05-.29-.15-.06-.08-.08-.17-.07-.27s.06-.18.14-.24l2.43-1.79-2.45-1.77c-.08-.06-.13-.14-.14-.23-.02-.09,0-.19.06-.27.06-.08.14-.13.24-.14.09-.02.19,0,.27.06l2.84,2.06c.09.07.15.18.15.29,0,.11-.05.22-.15.29l-2.82,2.09c-.06.05-.14.07-.21.07ZM8.72,16.83s-.02,0-.03,0c-.04,0-.08.03-.11.07-.05.07-.04.18.04.23l2.55,1.85s.04.05.04.08c0,.03-.01.06-.04.08l-2.54,1.87c-.07.05-.09.16-.03.23.05.07.16.09.23.03l2.82-2.09s.07-.08.07-.13c0-.05-.03-.1-.07-.13l-2.84-2.06s-.06-.03-.1-.03Z"/>
      </g>
    </g>
  </g>
</svg>