<?xml version="1.0" encoding="UTF-8"?>
<svg id="Layer_2" data-name="Layer 2" xmlns="http://www.w3.org/2000/svg" viewBox="0 0 14.77 19.24">
  <defs>
    <style>
      .cls-1 {
        fill: #1f1f1f;
      }
    </style>
  </defs>
  <g id="Object">
    <g>
      <g>
        <g>
          <path class="cls-1" d="M5.05,14.55c-.07,0-.14-.03-.19-.08-.07-.07-.1-.19-.06-.28l1.24-3.04c.03-.07.08-.12.14-.14l3.04-1.24c.1-.04.21-.02.28.06.07.07.1.19.06.28l-1.24,3.04c-.03.07-.08.12-.14.14l-3.04,1.24s-.07.02-.1.02ZM6.49,11.45l-.96,2.37,2.37-.96.96-2.37-2.37.96Z"/>
          <path class="cls-1" d="M5.05,14.65c-.1,0-.19-.04-.25-.11-.1-.1-.13-.26-.08-.39l1.24-3.04c.04-.09.11-.16.2-.2l3.04-1.24c.14-.05.29-.02.39.08.1.1.13.26.08.39l-1.24,3.04c-.04.09-.11.16-.2.2l-3.04,1.24s-.09.03-.14.03ZM9.33,9.85s-.04,0-.06.01l-3.04,1.24s-.07.05-.09.09l-1.24,3.04c-.02.06-.01.13.04.18.05.05.12.06.18.04l3.04-1.24s.07-.05.09-.09l1.24-3.04c.02-.06.01-.13-.04-.18-.03-.03-.07-.05-.12-.05ZM5.53,13.91s-.05-.01-.07-.03c-.03-.03-.04-.07-.02-.11l.96-2.37s.03-.04.05-.05l2.37-.96s.08,0,.11.02c.03.03.04.07.02.11l-.96,2.37s-.03.04-.05.05l-2.37.96s-.02,0-.04,0ZM6.57,11.52l-.86,2.11,2.11-.86.86-2.11-2.11.86Z"/>
        </g>
        <g>
          <path class="cls-1" d="M7.19,12.15c-.13,0-.24-.11-.24-.24v-2.24c0-.13.11-.24.24-.24s.24.11.24.24v2.24c0,.13-.11.24-.24.24Z"/>
          <path class="cls-1" d="M7.19,12.25c-.19,0-.34-.15-.34-.34v-2.24c0-.19.15-.34.34-.34s.34.15.34.34v2.24c0,.19-.15.34-.34.34ZM7.19,9.53c-.08,0-.14.06-.14.14v2.24c0,.08.06.14.14.14s.14-.06.14-.14v-2.24c0-.08-.06-.14-.14-.14Z"/>
        </g>
      </g>
      <g>
        <g>
          <path class="cls-1" d="M7.38,4.58c-.07,0-.14,0-.2,0,0,0,0,0,0,0,0,0,0,0,0,0C3.25,4.7.1,7.92.1,11.86c0,.09,0,.17,0,.25,0,.01,0,.02,0,.03,0,.01,0,.03,0,.04.17,3.86,3.37,6.96,7.28,6.96s7.28-3.27,7.28-7.28-3.27-7.28-7.28-7.28ZM7.42,18.62v-1.68c0-.13-.11-.24-.24-.24s-.24.11-.24.24v1.66c-3.35-.22-6.03-2.88-6.29-6.22h1.64c.13,0,.24-.11.24-.24s-.11-.24-.24-.24H.62s0-.03,0-.05c0-3.58,2.79-6.51,6.31-6.74v1.94c0,.13.11.24.24.24s.24-.11.24-.24v-1.96c3.71.02,6.73,3.04,6.73,6.76,0,.02,0,.03,0,.05h-1.98c-.12,0-.22.11-.22.24s.1.24.22.24h1.96c-.27,3.47-3.17,6.21-6.71,6.23Z"/>
          <path class="cls-1" d="M7.38,19.24C3.42,19.24.18,16.15,0,12.19c0,0,0-.02,0-.05,0,0,0-.04,0-.05h0c0-.09,0-.16,0-.24,0-3.95,3.21-7.26,7.17-7.38,0,0,0,0,.01,0h0s.06,0,.06,0c.05,0,.09,0,.14,0,4.07,0,7.38,3.31,7.38,7.38s-3.31,7.38-7.38,7.38ZM7.18,4.68s0,0,0,0C3.33,4.79.2,8.01.2,11.86c0,.07,0,.15,0,.22v.03s0,.03,0,.04c0,0,0,.03,0,.03.17,3.85,3.32,6.86,7.18,6.86s7.19-3.22,7.19-7.19-3.22-7.19-7.19-7.19c-.05,0-.09,0-.14,0h-.07s0,0,0,0ZM7.42,18.72s-.05-.01-.07-.03-.03-.04-.03-.07v-1.68c0-.08-.06-.14-.14-.14s-.14.06-.14.14v1.66s-.01.05-.03.07c-.02.02-.05.03-.07.03-3.38-.22-6.12-2.94-6.38-6.31,0-.03,0-.05.03-.07.02-.02.04-.03.07-.03h1.64c.08,0,.14-.06.14-.14s-.06-.14-.14-.14H.62c-.05,0-.1-.04-.1-.1v-.05c0-3.6,2.81-6.61,6.4-6.84.03,0,.05,0,.07.03.02.02.03.04.03.07v1.94c0,.08.06.14.14.14s.14-.06.14-.14v-1.96s.01-.05.03-.07c.02-.02.04-.03.07-.03h0c3.76.02,6.83,3.09,6.83,6.86v.03c0,.05-.05.12-.1.12h-1.98c-.07,0-.12.06-.12.14s.05.14.12.14h1.96s.05.01.07.03c.02.02.03.05.03.07-.27,3.53-3.26,6.31-6.8,6.32h0ZM7.17,16.6c.19,0,.34.15.34.34v1.58c3.36-.07,6.19-2.69,6.5-6.03h-1.85c-.17,0-.32-.15-.32-.34s.14-.34.32-.34h1.88c-.04-3.61-2.95-6.54-6.53-6.61v1.86c0,.19-.15.34-.34.34s-.34-.15-.34-.34v-1.84c-3.42.28-6.09,3.15-6.12,6.59h1.57c.18,0,.34.15.34.34s-.15.34-.34.34H.75c.3,3.19,2.89,5.75,6.08,6.02v-1.56c0-.19.15-.34.34-.34Z"/>
        </g>
        <g>
          <path class="cls-1" d="M8.55,2.96c-.07,0-.14-.03-.19-.08l-1.89-1.89v1.68c0,.14-.12.26-.26.26s-.26-.12-.26-.26V.36c0-.11.06-.2.16-.24.1-.04.21-.02.29.06l1.89,1.89V.36c0-.14.12-.26.26-.26s.26.12.26.26v2.34c0,.11-.06.2-.16.24-.03.01-.07.02-.1.02Z"/>
          <path class="cls-1" d="M8.55,3.06c-.1,0-.19-.04-.25-.11l-1.72-1.72v1.44c0,.2-.16.36-.36.36s-.36-.16-.36-.36V.36c0-.15.09-.28.22-.33.13-.06.29-.03.39.08l1.72,1.72V.36C8.19.16,8.35,0,8.55,0s.36.16.36.36v2.34c0,.15-.09.28-.22.33-.04.02-.09.03-.14.03ZM6.48.9s.05.01.07.03l1.89,1.89s.12.06.18.04c.06-.03.1-.08.1-.15V.36c0-.09-.07-.16-.16-.16s-.16.07-.16.16v1.7s-.02.08-.06.09c-.04.01-.08,0-.11-.02L6.33.25s-.12-.06-.18-.04c-.06.03-.1.08-.1.15v2.32c0,.09.07.16.16.16s.16-.07.16-.16V.99s.02-.08.06-.09c.01,0,.02,0,.04,0Z"/>
        </g>
      </g>
    </g>
  </g>
</svg>