<?xml version="1.0" encoding="UTF-8"?>
<svg id="Layer_2" data-name="Layer 2" xmlns="http://www.w3.org/2000/svg" viewBox="0 0 10.37 18.99">
  <defs>
    <style>
      .cls-1 {
        fill: #1f1f1f;
      }
    </style>
  </defs>
  <g id="Object">
    <g>
      <path class="cls-1" d="M10.25,12.28L5.59.27c-.04-.1-.13-.17-.24-.17-.1,0-.2.06-.25.16L.12,12.17c-.04.1-.02.21.06.29.07.08.19.1.29.06l4.5-1.85-.1,7.96c0,.14.11.26.26.27h0c.14,0,.26-.12.26-.26l.1-7.96,4.41,1.95s.07.02.11.02c.07,0,.13-.03.18-.07.08-.07.1-.19.06-.28ZM5.33,10.03h0s-.07-.02-.1-.02h0s0,0,0,0c0,0-.01,0-.02,0-.04,0-.07,0-.1.02l-4.26,1.75L5.34,1.06l4.19,10.82-4.2-1.85Z"/>
      <path class="cls-1" d="M5.12,18.99c-.2,0-.36-.17-.36-.36l.1-7.81L.5,12.61c-.13.06-.29.03-.39-.08-.1-.1-.13-.26-.08-.39L5.02.22c.05-.13.19-.22.33-.22.15,0,.28.09.34.23l4.65,12.02c.05.14.02.29-.09.39-.1.1-.26.13-.39.07l-4.28-1.89-.1,7.81c0,.2-.16.36-.36.36ZM4.96,10.57s.04,0,.06.02c.03.02.04.05.04.08l-.1,7.96s.02.09.05.12c.03.03.07.05.12.05.09,0,.16-.07.17-.16l.1-7.96s.02-.06.05-.08c.03-.02.06-.02.09,0l4.41,1.95c.06.03.13.01.18-.03.05-.05.06-.12.04-.18h0L5.5.3c-.02-.06-.08-.1-.15-.1-.07,0-.13.04-.15.1L.21,12.21c-.03.06-.01.13.03.18.05.05.12.06.18.04l4.5-1.85s.02,0,.04,0ZM9.53,11.98s-.03,0-.04,0l-4.2-1.85s-.04-.01-.06-.01c-.04,0-.06,0-.08.02l-4.27,1.76s-.08,0-.11-.02c-.03-.03-.04-.07-.02-.11L5.25,1.02s.06-.07.09-.06c.04,0,.08.03.09.06l4.19,10.82s0,.08-.02.11c-.02.02-.04.03-.07.03ZM5.37,9.94l3.98,1.76L5.34,1.32,1.03,11.61l4.04-1.66s.08-.03.13-.03c0,0,0,0,.01,0h0s.01,0,.02,0c0,0,0,0,0,0h0c.05,0,.09.01.13.03l-.04.09.04-.09Z"/>
    </g>
  </g>
</svg>