<?xml version="1.0" encoding="UTF-8"?>
<svg id="Layer_2" data-name="Layer 2" xmlns="http://www.w3.org/2000/svg" viewBox="0 0 19.73 17.5">
  <defs>
    <style>
      .cls-1 {
        fill: #1f1f1f;
      }
    </style>
  </defs>
  <g id="Object">
    <g>
      <g>
        <path class="cls-1" d="M7.44,12.05v4.95c0,.14.12.26.26.26h6.88c.14,0,.26-.12.26-.26s-.12-.26-.26-.26h-6.62v-4.46h7.15c.09,0,.17-.05.22-.12l4.25-6.81c.05-.08.05-.18,0-.27-.05-.08-.13-.14-.23-.14H6.53L5.6.31c-.02-.12-.13-.21-.26-.21H.36C.22.1.1.22.1.36s.12.26.26.26h4.77l2.31,11.43ZM15.3,5.47h3.59l-1.03,1.64s-.02,0-.04,0h-2.53v-1.64ZM15.3,7.63h2.24l-1.31,2.1h-.93v-2.1ZM15.3,10.25h.61l-.61.97v-.97ZM7.51,9.77l-.43-2.14h3.63v2.1h-3.07s-.09.02-.13.04ZM11.24,5.47h3.54v1.64h-3.54v-1.64ZM11.24,7.63h3.54v2.1h-3.54v-2.1ZM11.24,11.71v-1.46h3.54v1.51h-3.55s0-.03,0-.05ZM7.91,11.76l-.31-1.51s.02,0,.04,0h3.07v1.46s0,.03,0,.05h-2.81ZM10.71,5.47v1.64h-3.74l-.33-1.64h4.07Z"/>
        <path class="cls-1" d="M14.58,17.36h-6.88c-.2,0-.36-.16-.36-.36v-4.94L5.04.72H.36c-.2,0-.36-.16-.36-.36s.16-.36.36-.36h4.98c.17,0,.32.12.35.29l.92,4.56h12.75c.13,0,.25.07.32.19.06.11.06.25,0,.37l-4.25,6.81c-.07.11-.18.17-.31.17h-7.05v4.26h6.52c.2,0,.36.16.36.36s-.16.36-.36.36ZM.36.2c-.09,0-.16.07-.16.16s.07.16.16.16h4.76s.09.03.1.08l2.31,11.43s0,.01,0,.02v4.95c0,.09.07.16.16.16h6.88c.09,0,.16-.07.16-.16s-.07-.16-.16-.16h-6.62c-.05,0-.1-.04-.1-.1v-4.46c0-.05.04-.1.1-.1h7.15c.06,0,.11-.03.14-.08l4.25-6.81c.03-.05.03-.11,0-.17-.03-.05-.08-.08-.14-.08H6.53s-.09-.03-.1-.08L5.5.33c-.02-.08-.08-.13-.16-.13H.36ZM14.77,11.86h-3.55s-.06-.01-.08-.04c-.02-.02-.03-.05-.02-.08,0,0,0-.02,0-.02h0v-1.46c0-.05.04-.1.1-.1h3.54c.05,0,.1.04.1.1v1.51c0,.05-.04.1-.1.1ZM11.33,11.66h3.34v-1.31h-3.34v1.31ZM10.72,11.86h-2.81s-.09-.03-.1-.08l-.31-1.51s0-.06.02-.09c.02-.02.05-.04.09-.03,0,0,.02,0,.03,0h3.06c.05,0,.1.04.1.1v1.46s0,.03,0,.03c0,.03,0,.06-.02.08-.02.02-.05.04-.08.04ZM7.99,11.66h2.62v-1.31h-2.88l.26,1.31ZM15.3,11.32s-.02,0-.03,0c-.04-.01-.07-.05-.07-.09v-.97c0-.05.04-.1.1-.1h.61s.07.02.09.05.02.07,0,.1l-.61.97s-.05.05-.08.05ZM15.4,10.35v.53l.33-.53h-.33ZM7.51,9.87s-.03,0-.04,0c-.03-.01-.05-.04-.06-.07l-.43-2.14s0-.06.02-.08c.02-.02.05-.04.08-.04h3.63c.05,0,.1.04.1.1v2.1c0,.05-.04.1-.1.1h-3.07s-.05,0-.08.03c-.02,0-.03.01-.05.01ZM7.2,7.73l.39,1.91s.04,0,.06,0h2.97v-1.9h-3.42ZM16.23,9.83h-.93c-.05,0-.1-.04-.1-.1v-2.1c0-.05.04-.1.1-.1h2.24s.07.02.09.05.02.07,0,.1l-1.31,2.1s-.05.05-.08.05ZM15.4,9.63h.78l1.19-1.9h-1.97v1.9ZM14.77,9.83h-3.54c-.05,0-.1-.04-.1-.1v-2.1c0-.05.04-.1.1-.1h3.54c.05,0,.1.04.1.1v2.1c0,.05-.04.1-.1.1ZM11.33,9.63h3.34v-1.9h-3.34v1.9ZM17.87,7.21s0,0-.01,0c0,0-.02,0-.03,0h-2.52c-.05,0-.1-.04-.1-.1v-1.64c0-.05.04-.1.1-.1h3.59s.07.02.09.05c.02.03.02.07,0,.1l-1.03,1.65s-.05.05-.08.05ZM15.4,7.01h2.42l.9-1.44h-3.32v1.44ZM14.77,7.21h-3.54c-.05,0-.1-.04-.1-.1v-1.64c0-.05.04-.1.1-.1h3.54c.05,0,.1.04.1.1v1.64c0,.05-.04.1-.1.1ZM11.33,7.01h3.34v-1.44h-3.34v1.44ZM10.71,7.21h-3.74s-.09-.03-.1-.08l-.33-1.64s0-.06.02-.08c.02-.02.05-.04.08-.04h4.07c.05,0,.1.04.1.1v1.64c0,.05-.04.1-.1.1ZM7.05,7.01h3.56v-1.44h-3.85l.29,1.44Z"/>
      </g>
      <g>
        <path class="cls-1" d="M15.8,13.95l1.5,1.5-1.46,1.46c-.1.1-.1.27,0,.37s.27.1.37,0l1.46-1.46,1.51,1.51c.1.1.27.1.37,0,.1-.1.1-.27,0-.37l-1.51-1.51,1.45-1.45c.1-.1.1-.27,0-.37-.1-.1-.27-.1-.37,0l-1.45,1.45-1.5-1.5c-.1-.1-.27-.1-.37,0-.1.1-.1.27,0,.37Z"/>
        <path class="cls-1" d="M19.36,17.5c-.09,0-.18-.03-.25-.11l-1.44-1.44-1.39,1.39c-.14.14-.37.14-.51,0-.14-.14-.14-.37,0-.51l1.39-1.39-1.43-1.43c-.07-.07-.11-.16-.11-.26s.04-.19.11-.25c.14-.14.37-.14.51,0l1.43,1.43,1.38-1.38c.14-.14.37-.14.51,0,.14.14.14.37,0,.51l-1.38,1.38,1.44,1.44c.14.14.14.37,0,.51-.07.07-.16.11-.25.11ZM17.67,15.72s.05,0,.07.03l1.51,1.51c.06.06.17.06.23,0s.06-.17,0-.23l-1.51-1.51s-.03-.04-.03-.07.01-.05.03-.07l1.45-1.45c.06-.06.06-.17,0-.23-.06-.06-.17-.06-.23,0l-1.45,1.45s-.1.04-.14,0l-1.5-1.5c-.06-.06-.17-.06-.23,0-.03.03-.05.07-.05.12s.02.08.05.12l1.5,1.5s.04.1,0,.14l-1.46,1.46c-.06.06-.06.17,0,.23.06.06.17.06.23,0l1.46-1.46s.04-.03.07-.03Z"/>
      </g>
    </g>
  </g>
</svg>