<?xml version="1.0" encoding="UTF-8"?>
<svg id="Layer_2" data-name="Layer 2" xmlns="http://www.w3.org/2000/svg" viewBox="0 0 15.86 19.2">
  <defs>
    <style>
      .cls-1 {
        fill: #1f1f1f;
      }
    </style>
  </defs>
  <g id="Object">
    <g>
      <g>
        <path class="cls-1" d="M12.23,19.1H.36c-.14,0-.26-.12-.26-.26V4.12c0-.14.12-.26.26-.26h8.56c.07,0,.13.03.18.07l3.31,3.19c.05.05.08.12.08.19v11.53c0,.14-.12.26-.26.26ZM.62,18.57h11.35V7.42l-3.15-3.04H.62v14.19Z"/>
        <path class="cls-1" d="M12.23,19.2H.36c-.2,0-.36-.16-.36-.36V4.12c0-.2.16-.36.36-.36h8.56c.09,0,.18.04.25.1l3.31,3.19c.07.07.11.16.11.26v11.53c0,.2-.16.36-.36.36ZM.36,3.95c-.09,0-.16.07-.16.16v14.72c0,.09.07.16.16.16h11.87c.09,0,.16-.07.16-.16V7.31s-.02-.09-.05-.12l-3.31-3.19s-.07-.05-.11-.05H.36ZM11.97,18.67H.62c-.05,0-.1-.04-.1-.1V4.38c0-.05.04-.1.1-.1h8.19s.05.01.07.03l3.15,3.04s.03.04.03.07v11.15c0,.05-.04.1-.1.1ZM.72,18.47h11.15V7.46l-3.09-2.98H.72v14Z"/>
      </g>
      <g>
        <path class="cls-1" d="M15.5,15.34h-3.26c-.14,0-.26-.12-.26-.26s.12-.26.26-.26h3V3.55c0-.14.12-.26.26-.26s.26.12.26.26v11.53c0,.14-.12.26-.26.26Z"/>
        <path class="cls-1" d="M15.5,15.44h-3.26c-.2,0-.36-.16-.36-.36s.16-.36.36-.36h2.9V3.55c0-.2.16-.36.36-.36s.36.16.36.36v11.53c0,.2-.16.36-.36.36ZM12.23,14.91c-.09,0-.16.07-.16.16s.07.16.16.16h3.26c.09,0,.16-.07.16-.16V3.55c0-.09-.07-.16-.16-.16s-.16.07-.16.16v11.27c0,.05-.04.1-.1.1h-3Z"/>
      </g>
      <g>
        <path class="cls-1" d="M3.63,4.38c-.14,0-.26-.12-.26-.26V.36c0-.14.12-.26.26-.26h8.8c.14,0,.26.12.26.26s-.12.26-.26.26H3.89v3.5c0,.14-.12.26-.26.26Z"/>
        <path class="cls-1" d="M3.62,4.48c-.2,0-.36-.16-.36-.36V.36C3.26.16,3.43,0,3.62,0h8.8c.2,0,.36.16.36.36s-.16.36-.36.36H3.99v3.4c0,.2-.16.36-.36.36ZM3.62.2c-.09,0-.16.07-.16.16v3.76c0,.09.07.16.16.16s.16-.07.16-.16V.62c0-.05.04-.1.1-.1h8.54c.09,0,.16-.07.16-.16s-.07-.16-.16-.16H3.62Z"/>
      </g>
      <g>
        <path class="cls-1" d="M11.99,7.57h-3.07c-.14,0-.26-.12-.26-.26v-3.19c0-.14.12-.26.26-.26s.26.12.26.26v2.93h2.81c.14,0,.26.12.26.26s-.12.26-.26.26Z"/>
        <path class="cls-1" d="M11.99,7.67h-3.07c-.2,0-.36-.16-.36-.36v-3.19c0-.2.16-.36.36-.36s.36.16.36.36v2.83h2.71c.2,0,.36.16.36.36s-.16.36-.36.36ZM8.92,3.95c-.09,0-.16.07-.16.16v3.19c0,.09.07.16.16.16h3.07c.09,0,.16-.07.16-.16s-.07-.16-.16-.16h-2.81c-.05,0-.1-.04-.1-.1v-2.93c0-.09-.07-.16-.16-.16Z"/>
      </g>
      <g>
        <path class="cls-1" d="M15.5,3.81h-3.07c-.14,0-.26-.12-.26-.26V.36c0-.11.07-.2.16-.24.1-.04.21-.02.29.06l3.07,3.19c.07.08.09.19.05.28-.04.1-.14.16-.24.16ZM12.68,3.29h2.19l-2.19-2.28v2.28Z"/>
        <path class="cls-1" d="M15.5,3.91h-3.07c-.2,0-.36-.16-.36-.36V.36c0-.15.09-.28.23-.33.14-.06.29-.02.39.08l3.07,3.19c.1.1.13.26.07.39-.06.13-.19.22-.33.22ZM12.42.2s-.04,0-.06.01c-.06.02-.1.08-.1.15v3.19c0,.09.07.16.16.16h3.07c.07,0,.12-.04.15-.1.03-.06.01-.13-.03-.18L12.54.25s-.07-.05-.12-.05ZM14.88,3.39h-2.19c-.05,0-.1-.04-.1-.1V1.01s.02-.08.06-.09c.04-.02.08,0,.11.02l2.19,2.28s.04.07.02.11c-.02.04-.05.06-.09.06ZM12.78,3.19h1.86l-1.86-1.94v1.94Z"/>
      </g>
    </g>
  </g>
</svg>