<?xml version="1.0" encoding="UTF-8"?>
<svg id="Layer_2" data-name="Layer 2" xmlns="http://www.w3.org/2000/svg" viewBox="0 0 15.25 16.3">
  <defs>
    <style>
      .cls-1 {
        fill: #1f1f1f;
      }
    </style>
  </defs>
  <g id="Object">
    <g>
      <path class="cls-1" d="M8.06,16.3c-.09,0-.19-.03-.26-.1-.16-.15-.17-.39-.03-.56l6.57-7.28L7.76.65c-.14-.17-.12-.41.04-.55.17-.14.41-.12.55.04l6.8,7.98c.13.15.12.37,0,.52l-6.8,7.54c-.08.09-.18.13-.29.13Z"/>
      <path class="cls-1" d="M.39,16.3c-.09,0-.19-.03-.26-.1-.16-.15-.17-.39-.03-.56l6.57-7.28L.09.65C-.05.48-.03.23.14.09c.17-.14.41-.12.55.04l6.8,7.98c.13.15.12.37,0,.52L.69,16.17c-.08.09-.18.13-.29.13Z"/>
    </g>
  </g>
</svg>